  0
SECTION
  2
HEADER
  9
$ANGBASE
  50
0.0
  9
$ANGDIR
  70
1
  9
$MEASUREMENT
  70
0
  0
ENDSEC
  0
SECTION
  2
TABLES
  0
TABLE
  2
LTYPE
  70
4
  0
LTYPE
  5
40F
  2
CONTINUOUS
  70
0
  3
Solid line
  72
65
  73
0
  40
0.0
  0
LTYPE
  5
410
  2
DASHDOT
 70
0
  3
Dash Dot ____ _ ____ _
 72
65
 73
4
 40
2.0
 49
1.25
 49
-0.25
 49
0.25
 49
-0.25
  0
LTYPE
  5
411
  2
DASHED
 70
0
  3
Dashed __ __ __ __ __
 72
65
 73
2
 40
0.75
 49
0.5
 49
-0.25
  0
LTYPE
  5
43B
  2
DOTTED
 70
0
  3
Dotted .  .  .  .
 72
65
 73
2
 40
0.2
 49
0.0
 49
-0.2
  0
ENDTAB
  0
TABLE
  2
STYLE
  70
4
  0
STYLE
  2
KICAD
  70
0
  40
0
  41
1
  42
1
  50
0
  71
0
  3
isocp.shx
  0
STYLE
  2
KICADB
  70
0
  40
0
  41
1
  42
1
  50
0
  71
0
  3
isocp.shx
  0
STYLE
  2
KICADI
  70
0
  40
0
  41
1
  42
1
  50
15
  71
0
  3
isocp.shx
  0
STYLE
  2
KICADBI
  70
0
  40
0
  41
1
  42
1
  50
15
  71
0
  3
isocp.shx
  0
ENDTAB
  0
TABLE
  2
LAYER
  70
1
  0
LAYER
  2
BLACK
  70
0
  62
7
  6
CONTINUOUS
  0
ENDTAB
  0
ENDSEC
  0
SECTION
  2
ENTITIES
0
LINE
8
BLACK
6
CONTINUOUS
10
2.2330537795275589
20
0.5481534251968504
11
2.2335864566929131
21
0.5476207480314961
0
LINE
8
BLACK
6
CONTINUOUS
10
2.2335864566929131
20
0.5476207480314961
11
2.2336613779527559
21
0.547244094488189
0
LINE
8
BLACK
6
CONTINUOUS
10
2.2336613779527559
20
0.547244094488189
11
2.2336613779527559
21
0.2153543307086614
0
LINE
8
BLACK
6
CONTINUOUS
10
2.2336613779527559
20
0.2153543307086614
11
2.2335864566929131
21
0.2149776771653543
0
LINE
8
BLACK
6
CONTINUOUS
10
2.2335864566929131
20
0.2149776771653543
11
2.2330537795275589
21
0.214445
0
LINE
8
BLACK
6
CONTINUOUS
10
2.2330537795275589
20
0.214445
11
2.2326771259842517
21
0.2143700787401575
0
LINE
8
BLACK
6
CONTINUOUS
10
2.2326771259842517
20
0.2143700787401575
11
1.8311023228346457
21
0.2143700787401575
0
LINE
8
BLACK
6
CONTINUOUS
10
1.8311023228346457
20
0.2143700787401575
11
1.8307256692913385
21
0.214445
0
LINE
8
BLACK
6
CONTINUOUS
10
1.8307256692913385
20
0.214445
11
1.8301929921259843
21
0.2149776771653543
0
LINE
8
BLACK
6
CONTINUOUS
10
1.8301929921259843
20
0.2149776771653543
11
1.8301180708661418
21
0.2153543307086614
0
LINE
8
BLACK
6
CONTINUOUS
10
1.8301180708661418
20
0.2153543307086614
11
1.8301180708661418
21
0.547244094488189
0
LINE
8
BLACK
6
CONTINUOUS
10
1.8301180708661418
20
0.547244094488189
11
1.8301929921259843
21
0.5476207480314961
0
LINE
8
BLACK
6
CONTINUOUS
10
1.8301929921259843
20
0.5476207480314961
11
1.8307256692913385
21
0.5481534251968504
0
LINE
8
BLACK
6
CONTINUOUS
10
1.8307256692913385
20
0.5481534251968504
11
1.8311023228346457
21
0.5482283464566929
0
LINE
8
BLACK
6
CONTINUOUS
10
1.8311023228346457
20
0.5482283464566929
11
2.2326771259842517
21
0.5482283464566929
0
LINE
8
BLACK
6
CONTINUOUS
10
2.2326771259842517
20
0.5482283464566929
11
2.2330537795275589
21
0.5481534251968504
0
LINE
8
BLACK
6
CONTINUOUS
10
1.8320865748031496
20
0.5462598425196851
11
1.8320865748031496
21
0.2163385826771654
0
LINE
8
BLACK
6
CONTINUOUS
10
1.8320865748031496
20
0.2163385826771654
11
2.231692874015748
21
0.2163385826771654
0
LINE
8
BLACK
6
CONTINUOUS
10
2.231692874015748
20
0.2163385826771654
11
2.231692874015748
21
0.5462598425196851
0
LINE
8
BLACK
6
CONTINUOUS
10
2.231692874015748
20
0.5462598425196851
11
1.8320865748031496
21
0.5462598425196851
0
LINE
8
BLACK
6
CONTINUOUS
10
1.262286062992126
20
0.6367361023622047
11
1.2628187401574802
21
0.6362034251968504
0
LINE
8
BLACK
6
CONTINUOUS
10
1.2628187401574802
20
0.6362034251968504
11
1.2628936614173227
21
0.6358267716535433
0
LINE
8
BLACK
6
CONTINUOUS
10
1.2628936614173227
20
0.6358267716535433
11
1.2628936614173227
21
0.5586614173228346
0
LINE
8
BLACK
6
CONTINUOUS
10
1.2628936614173227
20
0.5586614173228346
11
1.2628187401574802
21
0.5582847637795275
0
LINE
8
BLACK
6
CONTINUOUS
10
1.2628187401574802
20
0.5582847637795275
11
1.262286062992126
21
0.5577520866141732
0
LINE
8
BLACK
6
CONTINUOUS
10
1.262286062992126
20
0.5577520866141732
11
1.2619094094488188
21
0.5576771653543307
0
LINE
8
BLACK
6
CONTINUOUS
10
1.2619094094488188
20
0.5576771653543307
11
1.1280511417322834
21
0.5576771653543307
0
LINE
8
BLACK
6
CONTINUOUS
10
1.1280511417322834
20
0.5576771653543307
11
1.1276744881889764
21
0.5577520866141732
0
LINE
8
BLACK
6
CONTINUOUS
10
1.1276744881889764
20
0.5577520866141732
11
1.127141811023622
21
0.5582847637795275
0
LINE
8
BLACK
6
CONTINUOUS
10
1.127141811023622
20
0.5582847637795275
11
1.1270668897637794
21
0.5586614173228346
0
LINE
8
BLACK
6
CONTINUOUS
10
1.1270668897637794
20
0.5586614173228346
11
1.1270668897637794
21
0.6358267716535433
0
LINE
8
BLACK
6
CONTINUOUS
10
1.1270668897637794
20
0.6358267716535433
11
1.127141811023622
21
0.6362034251968504
0
LINE
8
BLACK
6
CONTINUOUS
10
1.127141811023622
20
0.6362034251968504
11
1.1276744881889764
21
0.6367361023622047
0
LINE
8
BLACK
6
CONTINUOUS
10
1.1276744881889764
20
0.6367361023622047
11
1.1280511417322834
21
0.6368110236220472
0
LINE
8
BLACK
6
CONTINUOUS
10
1.1280511417322834
20
0.6368110236220472
11
1.2619094094488188
21
0.6368110236220472
0
LINE
8
BLACK
6
CONTINUOUS
10
1.2619094094488188
20
0.6368110236220472
11
1.262286062992126
21
0.6367361023622047
0
LINE
8
BLACK
6
CONTINUOUS
10
1.1290353937007873
20
0.6348425196850394
11
1.1290353937007873
21
0.5596456692913385
0
LINE
8
BLACK
6
CONTINUOUS
10
1.1290353937007873
20
0.5596456692913385
11
1.2609251574803149
21
0.5596456692913385
0
LINE
8
BLACK
6
CONTINUOUS
10
1.2609251574803149
20
0.5596456692913385
11
1.2609251574803149
21
0.6348425196850394
0
LINE
8
BLACK
6
CONTINUOUS
10
1.2609251574803149
20
0.6348425196850394
11
1.1290353937007873
21
0.6348425196850394
0
LINE
8
BLACK
6
CONTINUOUS
10
1.2622861023622047
20
0.7552400787401574
11
1.2628187795275589
21
0.7547074015748031
0
LINE
8
BLACK
6
CONTINUOUS
10
1.2628187795275589
20
0.7547074015748031
11
1.2628937007874015
21
0.754330748031496
0
LINE
8
BLACK
6
CONTINUOUS
10
1.2628937007874015
20
0.754330748031496
11
1.2628937007874015
21
0.6771653937007874
0
LINE
8
BLACK
6
CONTINUOUS
10
1.2628937007874015
20
0.6771653937007874
11
1.2628187795275589
21
0.6767887401574803
0
LINE
8
BLACK
6
CONTINUOUS
10
1.2628187795275589
20
0.6767887401574803
11
1.2622861023622047
21
0.6762560629921259
0
LINE
8
BLACK
6
CONTINUOUS
10
1.2622861023622047
20
0.6762560629921259
11
1.2619094488188976
21
0.6761811417322835
0
LINE
8
BLACK
6
CONTINUOUS
10
1.2619094488188976
20
0.6761811417322835
11
1.1280511811023621
21
0.6761811417322835
0
LINE
8
BLACK
6
CONTINUOUS
10
1.1280511811023621
20
0.6761811417322835
11
1.1276745275590552
21
0.6762560629921259
0
LINE
8
BLACK
6
CONTINUOUS
10
1.1276745275590552
20
0.6762560629921259
11
1.1271418503937007
21
0.6767887401574803
0
LINE
8
BLACK
6
CONTINUOUS
10
1.1271418503937007
20
0.6767887401574803
11
1.1270669291338582
21
0.6771653937007874
0
LINE
8
BLACK
6
CONTINUOUS
10
1.1270669291338582
20
0.6771653937007874
11
1.1270669291338582
21
0.754330748031496
0
LINE
8
BLACK
6
CONTINUOUS
10
1.1270669291338582
20
0.754330748031496
11
1.1271418503937007
21
0.7547074015748031
0
LINE
8
BLACK
6
CONTINUOUS
10
1.1271418503937007
20
0.7547074015748031
11
1.1276745275590552
21
0.7552400787401574
0
LINE
8
BLACK
6
CONTINUOUS
10
1.1276745275590552
20
0.7552400787401574
11
1.1280511811023621
21
0.755315
0
LINE
8
BLACK
6
CONTINUOUS
10
1.1280511811023621
20
0.755315
11
1.2619094488188976
21
0.755315
0
LINE
8
BLACK
6
CONTINUOUS
10
1.2619094488188976
20
0.755315
11
1.2622861023622047
21
0.7552400787401574
0
LINE
8
BLACK
6
CONTINUOUS
10
1.1290354330708661
20
0.7533464960629921
11
1.1290354330708661
21
0.6781496456692914
0
LINE
8
BLACK
6
CONTINUOUS
10
1.1290354330708661
20
0.6781496456692914
11
1.2609251968503936
21
0.6781496456692914
0
LINE
8
BLACK
6
CONTINUOUS
10
1.2609251968503936
20
0.6781496456692914
11
1.2609251968503936
21
0.7533464960629921
0
LINE
8
BLACK
6
CONTINUOUS
10
1.2609251968503936
20
0.7533464960629921
11
1.1290354330708661
21
0.7533464960629921
0
LINE
8
BLACK
6
CONTINUOUS
10
1.1106128740157479
20
1.0166573622047244
11
1.1111455511811024
21
1.0161246850393701
0
LINE
8
BLACK
6
CONTINUOUS
10
1.1111455511811024
20
1.0161246850393701
11
1.1112204724409449
21
1.015748031496063
0
LINE
8
BLACK
6
CONTINUOUS
10
1.1112204724409449
20
1.015748031496063
11
1.1112204724409449
21
0.7322834645669292
0
LINE
8
BLACK
6
CONTINUOUS
10
1.1112204724409449
20
0.7322834645669292
11
1.1111455511811024
21
0.731906811023622
0
LINE
8
BLACK
6
CONTINUOUS
10
1.1111455511811024
20
0.731906811023622
11
1.1106128740157479
21
0.7313741338582677
0
LINE
8
BLACK
6
CONTINUOUS
10
1.1106128740157479
20
0.7313741338582677
11
1.110236220472441
21
0.7312992125984252
0
LINE
8
BLACK
6
CONTINUOUS
10
1.110236220472441
20
0.7312992125984252
11
0.7637795275590551
21
0.7312992125984252
0
LINE
8
BLACK
6
CONTINUOUS
10
0.7637795275590551
20
0.7312992125984252
11
0.763402874015748
21
0.7313741338582677
0
LINE
8
BLACK
6
CONTINUOUS
10
0.763402874015748
20
0.7313741338582677
11
0.7628701968503937
21
0.731906811023622
0
LINE
8
BLACK
6
CONTINUOUS
10
0.7628701968503937
20
0.731906811023622
11
0.7627952755905512
21
0.7322834645669292
0
LINE
8
BLACK
6
CONTINUOUS
10
0.7627952755905512
20
0.7322834645669292
11
0.7627952755905512
21
1.015748031496063
0
LINE
8
BLACK
6
CONTINUOUS
10
0.7627952755905512
20
1.015748031496063
11
0.7628701968503937
21
1.0161246850393701
0
LINE
8
BLACK
6
CONTINUOUS
10
0.7628701968503937
20
1.0161246850393701
11
0.763402874015748
21
1.0166573622047244
0
LINE
8
BLACK
6
CONTINUOUS
10
0.763402874015748
20
1.0166573622047244
11
0.7637795275590551
21
1.0167322834645669
0
LINE
8
BLACK
6
CONTINUOUS
10
0.7637795275590551
20
1.0167322834645669
11
1.110236220472441
21
1.0167322834645669
0
LINE
8
BLACK
6
CONTINUOUS
10
1.110236220472441
20
1.0167322834645669
11
1.1106128740157479
21
1.0166573622047244
0
LINE
8
BLACK
6
CONTINUOUS
10
0.764763779527559
20
1.014763779527559
11
0.764763779527559
21
0.7332677165354331
0
LINE
8
BLACK
6
CONTINUOUS
10
0.764763779527559
20
0.7332677165354331
11
1.109251968503937
21
0.7332677165354331
0
LINE
8
BLACK
6
CONTINUOUS
10
1.109251968503937
20
0.7332677165354331
11
1.109251968503937
21
1.014763779527559
0
LINE
8
BLACK
6
CONTINUOUS
10
1.109251968503937
20
1.014763779527559
11
0.764763779527559
21
1.014763779527559
0
LINE
8
BLACK
6
CONTINUOUS
10
1.2622860236220472
20
0.8737439763779528
11
1.2628187007874014
21
0.8732112992125984
0
LINE
8
BLACK
6
CONTINUOUS
10
1.2628187007874014
20
0.8732112992125984
11
1.262893622047244
21
0.8728346456692914
0
LINE
8
BLACK
6
CONTINUOUS
10
1.262893622047244
20
0.8728346456692914
11
1.262893622047244
21
0.7956692913385827
0
LINE
8
BLACK
6
CONTINUOUS
10
1.262893622047244
20
0.7956692913385827
11
1.2628187007874014
21
0.7952926377952756
0
LINE
8
BLACK
6
CONTINUOUS
10
1.2628187007874014
20
0.7952926377952756
11
1.2622860236220472
21
0.7947599606299213
0
LINE
8
BLACK
6
CONTINUOUS
10
1.2622860236220472
20
0.7947599606299213
11
1.26190937007874
21
0.7946850393700787
0
LINE
8
BLACK
6
CONTINUOUS
10
1.26190937007874
20
0.7946850393700787
11
1.1280511023622046
21
0.7946850393700787
0
LINE
8
BLACK
6
CONTINUOUS
10
1.1280511023622046
20
0.7946850393700787
11
1.1276744488188977
21
0.7947599606299213
0
LINE
8
BLACK
6
CONTINUOUS
10
1.1276744488188977
20
0.7947599606299213
11
1.1271417716535432
21
0.7952926377952756
0
LINE
8
BLACK
6
CONTINUOUS
10
1.1271417716535432
20
0.7952926377952756
11
1.1270668503937007
21
0.7956692913385827
0
LINE
8
BLACK
6
CONTINUOUS
10
1.1270668503937007
20
0.7956692913385827
11
1.1270668503937007
21
0.8728346456692914
0
LINE
8
BLACK
6
CONTINUOUS
10
1.1270668503937007
20
0.8728346456692914
11
1.1271417716535432
21
0.8732112992125984
0
LINE
8
BLACK
6
CONTINUOUS
10
1.1271417716535432
20
0.8732112992125984
11
1.1276744488188977
21
0.8737439763779528
0
LINE
8
BLACK
6
CONTINUOUS
10
1.1276744488188977
20
0.8737439763779528
11
1.1280511023622046
21
0.8738188976377953
0
LINE
8
BLACK
6
CONTINUOUS
10
1.1280511023622046
20
0.8738188976377953
11
1.26190937007874
21
0.8738188976377953
0
LINE
8
BLACK
6
CONTINUOUS
10
1.26190937007874
20
0.8738188976377953
11
1.2622860236220472
21
0.8737439763779528
0
LINE
8
BLACK
6
CONTINUOUS
10
1.1290353543307086
20
0.8718503937007874
11
1.1290353543307086
21
0.7966535433070866
0
LINE
8
BLACK
6
CONTINUOUS
10
1.1290353543307086
20
0.7966535433070866
11
1.2609251181102361
21
0.7966535433070866
0
LINE
8
BLACK
6
CONTINUOUS
10
1.2609251181102361
20
0.7966535433070866
11
1.2609251181102361
21
0.8718503937007874
0
LINE
8
BLACK
6
CONTINUOUS
10
1.2609251181102361
20
0.8718503937007874
11
1.1290353543307086
21
0.8718503937007874
0
LINE
8
BLACK
6
CONTINUOUS
10
2.9560853149606299
20
0.9999250787401575
11
2.9566179921259841
21
0.9993924015748031
0
LINE
8
BLACK
6
CONTINUOUS
10
2.9566179921259841
20
0.9993924015748031
11
2.9566929133858268
21
0.9990157480314961
0
LINE
8
BLACK
6
CONTINUOUS
10
2.9566929133858268
20
0.9990157480314961
11
2.9566929133858268
21
0.8533464566929133
0
LINE
8
BLACK
6
CONTINUOUS
10
2.9566929133858268
20
0.8533464566929133
11
2.9566179921259841
21
0.8529698031496062
0
LINE
8
BLACK
6
CONTINUOUS
10
2.9566179921259841
20
0.8529698031496062
11
2.9560853149606299
21
0.8524371259842519
0
LINE
8
BLACK
6
CONTINUOUS
10
2.9560853149606299
20
0.8524371259842519
11
2.9557086614173227
21
0.8523622047244094
0
LINE
8
BLACK
6
CONTINUOUS
10
2.9557086614173227
20
0.8523622047244094
11
2.731299212598425
21
0.8523622047244094
0
LINE
8
BLACK
6
CONTINUOUS
10
2.731299212598425
20
0.8523622047244094
11
2.7309225590551178
21
0.8524371259842519
0
LINE
8
BLACK
6
CONTINUOUS
10
2.7309225590551178
20
0.8524371259842519
11
2.7303898818897636
21
0.8529698031496062
0
LINE
8
BLACK
6
CONTINUOUS
10
2.7303898818897636
20
0.8529698031496062
11
2.7303149606299213
21
0.8533464566929133
0
LINE
8
BLACK
6
CONTINUOUS
10
2.7303149606299213
20
0.8533464566929133
11
2.7303149606299213
21
0.9990157480314961
0
LINE
8
BLACK
6
CONTINUOUS
10
2.7303149606299213
20
0.9990157480314961
11
2.7303898818897636
21
0.9993924015748031
0
LINE
8
BLACK
6
CONTINUOUS
10
2.7303898818897636
20
0.9993924015748031
11
2.7309225590551178
21
0.9999250787401575
0
LINE
8
BLACK
6
CONTINUOUS
10
2.7309225590551178
20
0.9999250787401575
11
2.731299212598425
21
1.
0
LINE
8
BLACK
6
CONTINUOUS
10
2.731299212598425
20
1.
11
2.9557086614173227
21
1.
0
LINE
8
BLACK
6
CONTINUOUS
10
2.9557086614173227
20
1.
11
2.9560853149606299
21
0.9999250787401575
0
LINE
8
BLACK
6
CONTINUOUS
10
2.7322834645669292
20
0.9980314960629921
11
2.7322834645669292
21
0.8543307086614172
0
LINE
8
BLACK
6
CONTINUOUS
10
2.7322834645669292
20
0.8543307086614172
11
2.954724409448819
21
0.8543307086614172
0
LINE
8
BLACK
6
CONTINUOUS
10
2.954724409448819
20
0.8543307086614172
11
2.954724409448819
21
0.9980314960629921
0
LINE
8
BLACK
6
CONTINUOUS
10
2.954724409448819
20
0.9980314960629921
11
2.7322834645669292
21
0.9980314960629921
0
LINE
8
BLACK
6
CONTINUOUS
10
1.2622860236220472
20
0.992247874015748
11
1.2628187007874014
21
0.9917151968503937
0
LINE
8
BLACK
6
CONTINUOUS
10
1.2628187007874014
20
0.9917151968503937
11
1.262893622047244
21
0.9913385433070866
0
LINE
8
BLACK
6
CONTINUOUS
10
1.262893622047244
20
0.9913385433070866
11
1.262893622047244
21
0.9141731889763779
0
LINE
8
BLACK
6
CONTINUOUS
10
1.262893622047244
20
0.9141731889763779
11
1.2628187007874014
21
0.9137965354330708
0
LINE
8
BLACK
6
CONTINUOUS
10
1.2628187007874014
20
0.9137965354330708
11
1.2622860236220472
21
0.9132638582677165
0
LINE
8
BLACK
6
CONTINUOUS
10
1.2622860236220472
20
0.9132638582677165
11
1.26190937007874
21
0.913188937007874
0
LINE
8
BLACK
6
CONTINUOUS
10
1.26190937007874
20
0.913188937007874
11
1.1280511023622046
21
0.913188937007874
0
LINE
8
BLACK
6
CONTINUOUS
10
1.1280511023622046
20
0.913188937007874
11
1.1276744488188977
21
0.9132638582677165
0
LINE
8
BLACK
6
CONTINUOUS
10
1.1276744488188977
20
0.9132638582677165
11
1.1271417716535432
21
0.9137965354330708
0
LINE
8
BLACK
6
CONTINUOUS
10
1.1271417716535432
20
0.9137965354330708
11
1.1270668503937007
21
0.9141731889763779
0
LINE
8
BLACK
6
CONTINUOUS
10
1.1270668503937007
20
0.9141731889763779
11
1.1270668503937007
21
0.9913385433070866
0
LINE
8
BLACK
6
CONTINUOUS
10
1.1270668503937007
20
0.9913385433070866
11
1.1271417716535432
21
0.9917151968503937
0
LINE
8
BLACK
6
CONTINUOUS
10
1.1271417716535432
20
0.9917151968503937
11
1.1276744488188977
21
0.992247874015748
0
LINE
8
BLACK
6
CONTINUOUS
10
1.1276744488188977
20
0.992247874015748
11
1.1280511023622046
21
0.9923227952755905
0
LINE
8
BLACK
6
CONTINUOUS
10
1.1280511023622046
20
0.9923227952755905
11
1.26190937007874
21
0.9923227952755905
0
LINE
8
BLACK
6
CONTINUOUS
10
1.26190937007874
20
0.9923227952755905
11
1.2622860236220472
21
0.992247874015748
0
LINE
8
BLACK
6
CONTINUOUS
10
1.1290353543307086
20
0.9903542913385827
11
1.1290353543307086
21
0.9151574409448818
0
LINE
8
BLACK
6
CONTINUOUS
10
1.1290353543307086
20
0.9151574409448818
11
1.2609251181102361
21
0.9151574409448818
0
LINE
8
BLACK
6
CONTINUOUS
10
1.2609251181102361
20
0.9151574409448818
11
1.2609251181102361
21
0.9903542913385827
0
LINE
8
BLACK
6
CONTINUOUS
10
1.2609251181102361
20
0.9903542913385827
11
1.1290353543307086
21
0.9903542913385827
0
LINE
8
BLACK
6
CONTINUOUS
10
1.6243924409448818
20
1.1578975196850394
11
1.6249251181102362
21
1.157364842519685
0
LINE
8
BLACK
6
CONTINUOUS
10
1.6249251181102362
20
1.157364842519685
11
1.6250000393700788
21
1.156988188976378
0
LINE
8
BLACK
6
CONTINUOUS
10
1.6250000393700788
20
1.156988188976378
11
1.6250000393700788
21
1.1186024015748031
0
LINE
8
BLACK
6
CONTINUOUS
10
1.6250000393700788
20
1.1186024015748031
11
1.6318898031496063
21
1.1186024015748031
0
LINE
8
BLACK
6
CONTINUOUS
10
1.6318898031496063
20
1.1186024015748031
11
1.6322664566929133
21
1.1185274803149605
0
LINE
8
BLACK
6
CONTINUOUS
10
1.6322664566929133
20
1.1185274803149605
11
1.6327991338582677
21
1.1179948031496063
0
LINE
8
BLACK
6
CONTINUOUS
10
1.6327991338582677
20
1.1179948031496063
11
1.6328740551181102
21
1.1176181496062991
0
LINE
8
BLACK
6
CONTINUOUS
10
1.6328740551181102
20
1.1176181496062991
11
1.6328740551181102
21
1.0349409055118111
0
LINE
8
BLACK
6
CONTINUOUS
10
1.6328740551181102
20
1.0349409055118111
11
1.6327991338582677
21
1.0345642913385826
0
LINE
8
BLACK
6
CONTINUOUS
10
1.6327991338582677
20
1.0345642913385826
11
1.6327991338582677
21
1.0345642519685039
0
LINE
8
BLACK
6
CONTINUOUS
10
1.6327991338582677
20
1.0345642519685039
11
1.6322664566929133
21
1.0340315748031497
0
LINE
8
BLACK
6
CONTINUOUS
10
1.6322664566929133
20
1.0340315748031497
11
1.6318898031496063
21
1.0339566535433071
0
LINE
8
BLACK
6
CONTINUOUS
10
1.6318898031496063
20
1.0339566535433071
11
1.6250000393700788
21
1.0339566929133859
0
LINE
8
BLACK
6
CONTINUOUS
10
1.6250000393700788
20
1.0339566929133859
11
1.6250000393700788
21
0.9955708661417323
0
LINE
8
BLACK
6
CONTINUOUS
10
1.6250000393700788
20
0.9955708661417323
11
1.6249251181102362
21
0.9951942125984252
0
LINE
8
BLACK
6
CONTINUOUS
10
1.6249251181102362
20
0.9951942125984252
11
1.6243924409448818
21
0.9946615354330709
0
LINE
8
BLACK
6
CONTINUOUS
10
1.6243924409448818
20
0.9946615354330709
11
1.6240157874015748
21
0.9945866141732284
0
LINE
8
BLACK
6
CONTINUOUS
10
1.6240157874015748
20
0.9945866141732284
11
1.5059055511811024
21
0.9945866141732284
0
LINE
8
BLACK
6
CONTINUOUS
10
1.5059055511811024
20
0.9945866141732284
11
1.5055288976377952
21
0.9946615354330709
0
LINE
8
BLACK
6
CONTINUOUS
10
1.5055288976377952
20
0.9946615354330709
11
1.504996220472441
21
0.9951942125984252
0
LINE
8
BLACK
6
CONTINUOUS
10
1.504996220472441
20
0.9951942125984252
11
1.5049212992125984
21
0.9955708661417323
0
LINE
8
BLACK
6
CONTINUOUS
10
1.5049212992125984
20
0.9955708661417323
11
1.5049212992125984
21
1.0339566929133859
0
LINE
8
BLACK
6
CONTINUOUS
10
1.5049212992125984
20
1.0339566929133859
11
1.4980315354330709
21
1.0339566535433071
0
LINE
8
BLACK
6
CONTINUOUS
10
1.4980315354330709
20
1.0339566535433071
11
1.4976548818897637
21
1.0340315748031497
0
LINE
8
BLACK
6
CONTINUOUS
10
1.4976548818897637
20
1.0340315748031497
11
1.4971222047244095
21
1.0345642519685039
0
LINE
8
BLACK
6
CONTINUOUS
10
1.4971222047244095
20
1.0345642519685039
11
1.4971222047244095
21
1.0345642913385826
0
LINE
8
BLACK
6
CONTINUOUS
10
1.4971222047244095
20
1.0345642913385826
11
1.4970472834645669
21
1.0349409055118111
0
LINE
8
BLACK
6
CONTINUOUS
10
1.4970472834645669
20
1.0349409055118111
11
1.4970472834645669
21
1.1176181496062991
0
LINE
8
BLACK
6
CONTINUOUS
10
1.4970472834645669
20
1.1176181496062991
11
1.4971222047244095
21
1.1179948031496063
0
LINE
8
BLACK
6
CONTINUOUS
10
1.4971222047244095
20
1.1179948031496063
11
1.4976548818897637
21
1.1185274803149605
0
LINE
8
BLACK
6
CONTINUOUS
10
1.4976548818897637
20
1.1185274803149605
11
1.4980315354330709
21
1.1186024015748031
0
LINE
8
BLACK
6
CONTINUOUS
10
1.4980315354330709
20
1.1186024015748031
11
1.5049212992125984
21
1.1186024015748031
0
LINE
8
BLACK
6
CONTINUOUS
10
1.5049212992125984
20
1.1186024015748031
11
1.5049212992125984
21
1.156988188976378
0
LINE
8
BLACK
6
CONTINUOUS
10
1.5049212992125984
20
1.156988188976378
11
1.504996220472441
21
1.157364842519685
0
LINE
8
BLACK
6
CONTINUOUS
10
1.504996220472441
20
1.157364842519685
11
1.5055288976377952
21
1.1578975196850394
0
LINE
8
BLACK
6
CONTINUOUS
10
1.5055288976377952
20
1.1578975196850394
11
1.5059055511811024
21
1.1579724409448819
0
LINE
8
BLACK
6
CONTINUOUS
10
1.5059055511811024
20
1.1579724409448819
11
1.6240157874015748
21
1.1579724409448819
0
LINE
8
BLACK
6
CONTINUOUS
10
1.6240157874015748
20
1.1579724409448819
11
1.6243924409448818
21
1.1578975196850394
0
LINE
8
BLACK
6
CONTINUOUS
10
1.5068898031496063
20
1.1560039370078741
11
1.5068898031496063
21
1.1176181102362204
0
LINE
8
BLACK
6
CONTINUOUS
10
1.5068898031496063
20
1.1176181102362204
11
1.5068148818897638
21
1.1172414960629922
0
LINE
8
BLACK
6
CONTINUOUS
10
1.5068148818897638
20
1.1172414960629922
11
1.5068148818897638
21
1.1172414566929134
0
LINE
8
BLACK
6
CONTINUOUS
10
1.5068148818897638
20
1.1172414566929134
11
1.5062822047244093
21
1.116708779527559
0
LINE
8
BLACK
6
CONTINUOUS
10
1.5062822047244093
20
1.116708779527559
11
1.5059055511811024
21
1.1166338582677164
0
LINE
8
BLACK
6
CONTINUOUS
10
1.5059055511811024
20
1.1166338582677164
11
1.4990157874015748
21
1.1166338976377952
0
LINE
8
BLACK
6
CONTINUOUS
10
1.4990157874015748
20
1.1166338976377952
11
1.4990157874015748
21
1.0359251968503937
0
LINE
8
BLACK
6
CONTINUOUS
10
1.4990157874015748
20
1.0359251968503937
11
1.5059055511811024
21
1.0359251968503937
0
LINE
8
BLACK
6
CONTINUOUS
10
1.5059055511811024
20
1.0359251968503937
11
1.5062822047244093
21
1.0358502755905512
0
LINE
8
BLACK
6
CONTINUOUS
10
1.5062822047244093
20
1.0358502755905512
11
1.5068148818897638
21
1.0353175984251968
0
LINE
8
BLACK
6
CONTINUOUS
10
1.5068148818897638
20
1.0353175984251968
11
1.5068898031496063
21
1.0349409448818898
0
LINE
8
BLACK
6
CONTINUOUS
10
1.5068898031496063
20
1.0349409448818898
11
1.5068898031496063
21
0.9965551181102362
0
LINE
8
BLACK
6
CONTINUOUS
10
1.5068898031496063
20
0.9965551181102362
11
1.6230315354330709
21
0.9965551181102362
0
LINE
8
BLACK
6
CONTINUOUS
10
1.6230315354330709
20
0.9965551181102362
11
1.6230315354330709
21
1.0349409448818898
0
LINE
8
BLACK
6
CONTINUOUS
10
1.6230315354330709
20
1.0349409448818898
11
1.6231064566929134
21
1.0353175984251968
0
LINE
8
BLACK
6
CONTINUOUS
10
1.6231064566929134
20
1.0353175984251968
11
1.6236391338582676
21
1.0358502755905512
0
LINE
8
BLACK
6
CONTINUOUS
10
1.6236391338582676
20
1.0358502755905512
11
1.6240157874015748
21
1.0359251968503937
0
LINE
8
BLACK
6
CONTINUOUS
10
1.6240157874015748
20
1.0359251968503937
11
1.6309055511811024
21
1.0359251968503937
0
LINE
8
BLACK
6
CONTINUOUS
10
1.6309055511811024
20
1.0359251968503937
11
1.6309055511811024
21
1.1166338976377952
0
LINE
8
BLACK
6
CONTINUOUS
10
1.6309055511811024
20
1.1166338976377952
11
1.6240157874015748
21
1.1166338582677164
0
LINE
8
BLACK
6
CONTINUOUS
10
1.6240157874015748
20
1.1166338582677164
11
1.6236391338582676
21
1.116708779527559
0
LINE
8
BLACK
6
CONTINUOUS
10
1.6236391338582676
20
1.116708779527559
11
1.6231064566929134
21
1.1172414566929134
0
LINE
8
BLACK
6
CONTINUOUS
10
1.6231064566929134
20
1.1172414566929134
11
1.6231064566929134
21
1.1172414960629922
0
LINE
8
BLACK
6
CONTINUOUS
10
1.6231064566929134
20
1.1172414960629922
11
1.6230315354330709
21
1.1176181102362204
0
LINE
8
BLACK
6
CONTINUOUS
10
1.6230315354330709
20
1.1176181102362204
11
1.6230315354330709
21
1.1560039370078741
0
LINE
8
BLACK
6
CONTINUOUS
10
1.6230315354330709
20
1.1560039370078741
11
1.5068898031496063
21
1.1560039370078741
0
LINE
8
BLACK
6
CONTINUOUS
10
1.7745260236220473
20
2.1832847637795276
11
1.7758044488188975
21
2.1820063385826769
0
LINE
8
BLACK
6
CONTINUOUS
10
1.7758044488188975
20
2.1820063385826769
11
1.7759842519685038
21
2.1811023622047245
0
LINE
8
BLACK
6
CONTINUOUS
10
1.7759842519685038
20
2.1811023622047245
11
1.7759842519685038
21
1.3503937007874016
0
LINE
8
BLACK
6
CONTINUOUS
10
1.7759842519685038
20
1.3503937007874016
11
1.7758044488188975
21
1.3494897244094488
0
LINE
8
BLACK
6
CONTINUOUS
10
1.7758044488188975
20
1.3494897244094488
11
1.7745260236220473
21
1.3482112992125983
0
LINE
8
BLACK
6
CONTINUOUS
10
1.7745260236220473
20
1.3482112992125983
11
1.7736220472440944
21
1.348031496062992
0
LINE
8
BLACK
6
CONTINUOUS
10
1.7736220472440944
20
1.348031496062992
11
1.1437007874015748
21
1.348031496062992
0
LINE
8
BLACK
6
CONTINUOUS
10
1.1437007874015748
20
1.348031496062992
11
1.142796811023622
21
1.3482112992125983
0
LINE
8
BLACK
6
CONTINUOUS
10
1.142796811023622
20
1.3482112992125983
11
1.1415183858267717
21
1.3494897244094488
0
LINE
8
BLACK
6
CONTINUOUS
10
1.1415183858267717
20
1.3494897244094488
11
1.1413385826771654
21
1.3503937007874016
0
LINE
8
BLACK
6
CONTINUOUS
10
1.1413385826771654
20
1.3503937007874016
11
1.1413385826771654
21
2.1811023622047245
0
LINE
8
BLACK
6
CONTINUOUS
10
1.1413385826771654
20
2.1811023622047245
11
1.1415183858267717
21
2.1820063385826769
0
LINE
8
BLACK
6
CONTINUOUS
10
1.1415183858267717
20
2.1820063385826769
11
1.142796811023622
21
2.1832847637795276
0
LINE
8
BLACK
6
CONTINUOUS
10
1.142796811023622
20
2.1832847637795276
11
1.1437007874015748
21
2.1834645669291337
0
LINE
8
BLACK
6
CONTINUOUS
10
1.1437007874015748
20
2.1834645669291337
11
1.7736220472440944
21
2.1834645669291337
0
LINE
8
BLACK
6
CONTINUOUS
10
1.7736220472440944
20
2.1834645669291337
11
1.7745260236220473
21
2.1832847637795276
0
LINE
8
BLACK
6
CONTINUOUS
10
1.1460629921259842
20
2.1787401574803149
11
1.1460629921259842
21
1.352755905511811
0
LINE
8
BLACK
6
CONTINUOUS
10
1.1460629921259842
20
1.352755905511811
11
1.771259842519685
21
1.352755905511811
0
LINE
8
BLACK
6
CONTINUOUS
10
1.771259842519685
20
1.352755905511811
11
1.771259842519685
21
2.1787401574803149
0
LINE
8
BLACK
6
CONTINUOUS
10
1.771259842519685
20
2.1787401574803149
11
1.1460629921259842
21
2.1787401574803149
0
LINE
8
BLACK
6
CONTINUOUS
10
-1.1565131496062993
20
1.6127203543307087
11
-1.1559804724409448
21
1.6121876771653543
0
LINE
8
BLACK
6
CONTINUOUS
10
-1.1559804724409448
20
1.6121876771653543
11
-1.1559055511811023
21
1.6118110236220473
0
LINE
8
BLACK
6
CONTINUOUS
10
-1.1559055511811023
20
1.6118110236220473
11
-1.1559055511811023
21
1.5346456692913386
0
LINE
8
BLACK
6
CONTINUOUS
10
-1.1559055511811023
20
1.5346456692913386
11
-1.1559804724409448
21
1.5342690157480314
0
LINE
8
BLACK
6
CONTINUOUS
10
-1.1559804724409448
20
1.5342690157480314
11
-1.1565131496062993
21
1.5337363385826772
0
LINE
8
BLACK
6
CONTINUOUS
10
-1.1565131496062993
20
1.5337363385826772
11
-1.1568898031496062
21
1.5336614173228347
0
LINE
8
BLACK
6
CONTINUOUS
10
-1.1568898031496062
20
1.5336614173228347
11
-1.2907480708661416
21
1.5336614173228347
0
LINE
8
BLACK
6
CONTINUOUS
10
-1.2907480708661416
20
1.5336614173228347
11
-1.2911247244094488
21
1.5337363385826772
0
LINE
8
BLACK
6
CONTINUOUS
10
-1.2911247244094488
20
1.5337363385826772
11
-1.291657401574803
21
1.5342690157480314
0
LINE
8
BLACK
6
CONTINUOUS
10
-1.291657401574803
20
1.5342690157480314
11
-1.2917323228346456
21
1.5346456692913386
0
LINE
8
BLACK
6
CONTINUOUS
10
-1.2917323228346456
20
1.5346456692913386
11
-1.2917323228346456
21
1.6118110236220473
0
LINE
8
BLACK
6
CONTINUOUS
10
-1.2917323228346456
20
1.6118110236220473
11
-1.291657401574803
21
1.6121876771653543
0
LINE
8
BLACK
6
CONTINUOUS
10
-1.291657401574803
20
1.6121876771653543
11
-1.2911247244094488
21
1.6127203543307087
0
LINE
8
BLACK
6
CONTINUOUS
10
-1.2911247244094488
20
1.6127203543307087
11
-1.2907480708661416
21
1.6127952755905512
0
LINE
8
BLACK
6
CONTINUOUS
10
-1.2907480708661416
20
1.6127952755905512
11
-1.1568898031496062
21
1.6127952755905512
0
LINE
8
BLACK
6
CONTINUOUS
10
-1.1568898031496062
20
1.6127952755905512
11
-1.1565131496062993
21
1.6127203543307087
0
LINE
8
BLACK
6
CONTINUOUS
10
-1.2897638188976377
20
1.6108267716535434
11
-1.2897638188976377
21
1.5356299212598425
0
LINE
8
BLACK
6
CONTINUOUS
10
-1.2897638188976377
20
1.5356299212598425
11
-1.1578740551181101
21
1.5356299212598425
0
LINE
8
BLACK
6
CONTINUOUS
10
-1.1578740551181101
20
1.5356299212598425
11
-1.1578740551181101
21
1.6108267716535434
0
LINE
8
BLACK
6
CONTINUOUS
10
-1.1578740551181101
20
1.6108267716535434
11
-1.2897638188976377
21
1.6108267716535434
0
LINE
8
BLACK
6
CONTINUOUS
10
-1.1565131102362205
20
1.7312242913385827
11
-1.1559804330708661
21
1.7306916141732283
0
LINE
8
BLACK
6
CONTINUOUS
10
-1.1559804330708661
20
1.7306916141732283
11
-1.1559055118110235
21
1.7303149606299213
0
LINE
8
BLACK
6
CONTINUOUS
10
-1.1559055118110235
20
1.7303149606299213
11
-1.1559055118110235
21
1.6531496062992126
0
LINE
8
BLACK
6
CONTINUOUS
10
-1.1559055118110235
20
1.6531496062992126
11
-1.1559804330708661
21
1.6527729527559054
0
LINE
8
BLACK
6
CONTINUOUS
10
-1.1559804330708661
20
1.6527729527559054
11
-1.1565131102362205
21
1.6522402755905512
0
LINE
8
BLACK
6
CONTINUOUS
10
-1.1565131102362205
20
1.6522402755905512
11
-1.1568897637795275
21
1.6521653543307087
0
LINE
8
BLACK
6
CONTINUOUS
10
-1.1568897637795275
20
1.6521653543307087
11
-1.2907480314960629
21
1.6521653543307087
0
LINE
8
BLACK
6
CONTINUOUS
10
-1.2907480314960629
20
1.6521653543307087
11
-1.2911246850393701
21
1.6522402755905512
0
LINE
8
BLACK
6
CONTINUOUS
10
-1.2911246850393701
20
1.6522402755905512
11
-1.2916573622047245
21
1.6527729527559054
0
LINE
8
BLACK
6
CONTINUOUS
10
-1.2916573622047245
20
1.6527729527559054
11
-1.2917322834645668
21
1.6531496062992126
0
LINE
8
BLACK
6
CONTINUOUS
10
-1.2917322834645668
20
1.6531496062992126
11
-1.2917322834645668
21
1.7303149606299213
0
LINE
8
BLACK
6
CONTINUOUS
10
-1.2917322834645668
20
1.7303149606299213
11
-1.2916573622047245
21
1.7306916141732283
0
LINE
8
BLACK
6
CONTINUOUS
10
-1.2916573622047245
20
1.7306916141732283
11
-1.2911246850393701
21
1.7312242913385827
0
LINE
8
BLACK
6
CONTINUOUS
10
-1.2911246850393701
20
1.7312242913385827
11
-1.2907480314960629
21
1.7312992125984252
0
LINE
8
BLACK
6
CONTINUOUS
10
-1.2907480314960629
20
1.7312992125984252
11
-1.1568897637795275
21
1.7312992125984252
0
LINE
8
BLACK
6
CONTINUOUS
10
-1.1568897637795275
20
1.7312992125984252
11
-1.1565131102362205
21
1.7312242913385827
0
LINE
8
BLACK
6
CONTINUOUS
10
-1.2897637795275589
20
1.7293307086614174
11
-1.2897637795275589
21
1.6541338582677165
0
LINE
8
BLACK
6
CONTINUOUS
10
-1.2897637795275589
20
1.6541338582677165
11
-1.1578740157480314
21
1.6541338582677165
0
LINE
8
BLACK
6
CONTINUOUS
10
-1.1578740157480314
20
1.6541338582677165
11
-1.1578740157480314
21
1.7293307086614174
0
LINE
8
BLACK
6
CONTINUOUS
10
-1.1578740157480314
20
1.7293307086614174
11
-1.2897637795275589
21
1.7293307086614174
0
LINE
8
BLACK
6
CONTINUOUS
10
-1.1565131496062993
20
1.8497282677165354
11
-1.1559804724409448
21
1.849195590551181
0
LINE
8
BLACK
6
CONTINUOUS
10
-1.1559804724409448
20
1.849195590551181
11
-1.1559055511811023
21
1.848818937007874
0
LINE
8
BLACK
6
CONTINUOUS
10
-1.1559055511811023
20
1.848818937007874
11
-1.1559055511811023
21
1.7716535826771653
0
LINE
8
BLACK
6
CONTINUOUS
10
-1.1559055511811023
20
1.7716535826771653
11
-1.1559804724409448
21
1.7712769291338581
0
LINE
8
BLACK
6
CONTINUOUS
10
-1.1559804724409448
20
1.7712769291338581
11
-1.1565131496062993
21
1.7707442519685039
0
LINE
8
BLACK
6
CONTINUOUS
10
-1.1565131496062993
20
1.7707442519685039
11
-1.1568898031496062
21
1.7706693307086614
0
LINE
8
BLACK
6
CONTINUOUS
10
-1.1568898031496062
20
1.7706693307086614
11
-1.2907480708661416
21
1.7706693307086614
0
LINE
8
BLACK
6
CONTINUOUS
10
-1.2907480708661416
20
1.7706693307086614
11
-1.2911247244094488
21
1.7707442519685039
0
LINE
8
BLACK
6
CONTINUOUS
10
-1.2911247244094488
20
1.7707442519685039
11
-1.291657401574803
21
1.7712769291338581
0
LINE
8
BLACK
6
CONTINUOUS
10
-1.291657401574803
20
1.7712769291338581
11
-1.2917323228346456
21
1.7716535826771653
0
LINE
8
BLACK
6
CONTINUOUS
10
-1.2917323228346456
20
1.7716535826771653
11
-1.2917323228346456
21
1.848818937007874
0
LINE
8
BLACK
6
CONTINUOUS
10
-1.2917323228346456
20
1.848818937007874
11
-1.291657401574803
21
1.849195590551181
0
LINE
8
BLACK
6
CONTINUOUS
10
-1.291657401574803
20
1.849195590551181
11
-1.2911247244094488
21
1.8497282677165354
0
LINE
8
BLACK
6
CONTINUOUS
10
-1.2911247244094488
20
1.8497282677165354
11
-1.2907480708661416
21
1.849803188976378
0
LINE
8
BLACK
6
CONTINUOUS
10
-1.2907480708661416
20
1.849803188976378
11
-1.1568898031496062
21
1.849803188976378
0
LINE
8
BLACK
6
CONTINUOUS
10
-1.1568898031496062
20
1.849803188976378
11
-1.1565131496062993
21
1.8497282677165354
0
LINE
8
BLACK
6
CONTINUOUS
10
-1.2897638188976377
20
1.8478346850393701
11
-1.2897638188976377
21
1.7726378346456693
0
LINE
8
BLACK
6
CONTINUOUS
10
-1.2897638188976377
20
1.7726378346456693
11
-1.1578740551181101
21
1.7726378346456693
0
LINE
8
BLACK
6
CONTINUOUS
10
-1.1578740551181101
20
1.7726378346456693
11
-1.1578740551181101
21
1.8478346850393701
0
LINE
8
BLACK
6
CONTINUOUS
10
-1.1578740551181101
20
1.8478346850393701
11
-1.2897638188976377
21
1.8478346850393701
0
LINE
8
BLACK
6
CONTINUOUS
10
1.0424042125984252
20
2.4083896456692915
11
1.0429368897637794
21
2.4078569685039368
0
LINE
8
BLACK
6
CONTINUOUS
10
1.0429368897637794
20
2.4078569685039368
11
1.0430118110236219
21
2.4074803149606301
0
LINE
8
BLACK
6
CONTINUOUS
10
1.0430118110236219
20
2.4074803149606301
11
1.0430118110236219
21
2.3326771653543306
0
LINE
8
BLACK
6
CONTINUOUS
10
1.0430118110236219
20
2.3326771653543306
11
1.0429368897637794
21
2.3323005118110234
0
LINE
8
BLACK
6
CONTINUOUS
10
1.0429368897637794
20
2.3323005118110234
11
1.0424042125984252
21
2.3317678346456692
0
LINE
8
BLACK
6
CONTINUOUS
10
1.0424042125984252
20
2.3317678346456692
11
1.042027559055118
21
2.3316929133858268
0
LINE
8
BLACK
6
CONTINUOUS
10
1.042027559055118
20
2.3316929133858268
11
0.9097440944881889
21
2.3316929133858268
0
LINE
8
BLACK
6
CONTINUOUS
10
0.9097440944881889
20
2.3316929133858268
11
0.9093674409448819
21
2.3317678346456692
0
LINE
8
BLACK
6
CONTINUOUS
10
0.9093674409448819
20
2.3317678346456692
11
0.9088347637795275
21
2.3323005118110234
0
LINE
8
BLACK
6
CONTINUOUS
10
0.9088347637795275
20
2.3323005118110234
11
0.908759842519685
21
2.3326771653543306
0
LINE
8
BLACK
6
CONTINUOUS
10
0.908759842519685
20
2.3326771653543306
11
0.908759842519685
21
2.4074803149606301
0
LINE
8
BLACK
6
CONTINUOUS
10
0.908759842519685
20
2.4074803149606301
11
0.9088347637795275
21
2.4078569685039368
0
LINE
8
BLACK
6
CONTINUOUS
10
0.9088347637795275
20
2.4078569685039368
11
0.9093674409448819
21
2.4083896456692915
0
LINE
8
BLACK
6
CONTINUOUS
10
0.9093674409448819
20
2.4083896456692915
11
0.9097440944881889
21
2.4084645669291338
0
LINE
8
BLACK
6
CONTINUOUS
10
0.9097440944881889
20
2.4084645669291338
11
1.042027559055118
21
2.4084645669291338
0
LINE
8
BLACK
6
CONTINUOUS
10
1.042027559055118
20
2.4084645669291338
11
1.0424042125984252
21
2.4083896456692915
0
LINE
8
BLACK
6
CONTINUOUS
10
0.9107283464566929
20
2.4064960629921259
11
0.9107283464566929
21
2.3336614173228347
0
LINE
8
BLACK
6
CONTINUOUS
10
0.9107283464566929
20
2.3336614173228347
11
1.0410433070866141
21
2.3336614173228347
0
LINE
8
BLACK
6
CONTINUOUS
10
1.0410433070866141
20
2.3336614173228347
11
1.0410433070866141
21
2.4064960629921259
0
LINE
8
BLACK
6
CONTINUOUS
10
1.0410433070866141
20
2.4064960629921259
11
0.9107283464566929
21
2.4064960629921259
0
LINE
8
BLACK
6
CONTINUOUS
10
0.8453570078740157
20
2.5304368897637795
11
0.84588968503937
21
2.5299042125984252
0
LINE
8
BLACK
6
CONTINUOUS
10
0.84588968503937
20
2.5299042125984252
11
0.8459646062992126
21
2.5295275590551181
0
LINE
8
BLACK
6
CONTINUOUS
10
0.8459646062992126
20
2.5295275590551181
11
0.8459645669291338
21
2.5226377952755903
0
LINE
8
BLACK
6
CONTINUOUS
10
0.8459645669291338
20
2.5226377952755903
11
0.8855314960629921
21
2.5226377952755903
0
LINE
8
BLACK
6
CONTINUOUS
10
0.8855314960629921
20
2.5226377952755903
11
0.8859081496062992
21
2.522562874015748
0
LINE
8
BLACK
6
CONTINUOUS
10
0.8859081496062992
20
2.522562874015748
11
0.8864408267716535
21
2.5220301968503938
0
LINE
8
BLACK
6
CONTINUOUS
10
0.8864408267716535
20
2.5220301968503938
11
0.886515748031496
21
2.5216535433070866
0
LINE
8
BLACK
6
CONTINUOUS
10
0.886515748031496
20
2.5216535433070866
11
0.886515748031496
21
2.4035433070866139
0
LINE
8
BLACK
6
CONTINUOUS
10
0.886515748031496
20
2.4035433070866139
11
0.8864408267716535
21
2.4031666535433072
0
LINE
8
BLACK
6
CONTINUOUS
10
0.8864408267716535
20
2.4031666535433072
11
0.8859081496062992
21
2.4026339763779525
0
LINE
8
BLACK
6
CONTINUOUS
10
0.8859081496062992
20
2.4026339763779525
11
0.8855314960629921
21
2.4025590551181102
0
LINE
8
BLACK
6
CONTINUOUS
10
0.8855314960629921
20
2.4025590551181102
11
0.8459645669291338
21
2.4025590551181102
0
LINE
8
BLACK
6
CONTINUOUS
10
0.8459645669291338
20
2.4025590551181102
11
0.8459646062992126
21
2.3956692913385824
0
LINE
8
BLACK
6
CONTINUOUS
10
0.8459646062992126
20
2.3956692913385824
11
0.84588968503937
21
2.3952926377952757
0
LINE
8
BLACK
6
CONTINUOUS
10
0.84588968503937
20
2.3952926377952757
11
0.8453570078740157
21
2.394759960629921
0
LINE
8
BLACK
6
CONTINUOUS
10
0.8453570078740157
20
2.394759960629921
11
0.8449803543307086
21
2.3946850393700787
0
LINE
8
BLACK
6
CONTINUOUS
10
0.8449803543307086
20
2.3946850393700787
11
0.7741141338582677
21
2.3946850393700787
0
LINE
8
BLACK
6
CONTINUOUS
10
0.7741141338582677
20
2.3946850393700787
11
0.7737374803149606
21
2.394759960629921
0
LINE
8
BLACK
6
CONTINUOUS
10
0.7737374803149606
20
2.394759960629921
11
0.7732048031496063
21
2.3952926377952757
0
LINE
8
BLACK
6
CONTINUOUS
10
0.7732048031496063
20
2.3952926377952757
11
0.7731298818897637
21
2.3956692913385824
0
LINE
8
BLACK
6
CONTINUOUS
10
0.7731298818897637
20
2.3956692913385824
11
0.7731299212598425
21
2.4399606299212597
0
LINE
8
BLACK
6
CONTINUOUS
10
0.7731299212598425
20
2.4399606299212597
11
0.7335629921259842
21
2.4399606299212597
0
LINE
8
BLACK
6
CONTINUOUS
10
0.7335629921259842
20
2.4399606299212597
11
0.7331863385826771
21
2.4400355511811025
0
LINE
8
BLACK
6
CONTINUOUS
10
0.7331863385826771
20
2.4400355511811025
11
0.7326536614173228
21
2.4405682283464567
0
LINE
8
BLACK
6
CONTINUOUS
10
0.7326536614173228
20
2.4405682283464567
11
0.7325787401574803
21
2.4409448818897639
0
LINE
8
BLACK
6
CONTINUOUS
10
0.7325787401574803
20
2.4409448818897639
11
0.7325787401574803
21
2.484251968503937
0
LINE
8
BLACK
6
CONTINUOUS
10
0.7325787401574803
20
2.484251968503937
11
0.7326536614173228
21
2.4846286220472442
0
LINE
8
BLACK
6
CONTINUOUS
10
0.7326536614173228
20
2.4846286220472442
11
0.7331863385826771
21
2.4851612992125984
0
LINE
8
BLACK
6
CONTINUOUS
10
0.7331863385826771
20
2.4851612992125984
11
0.7335629921259842
21
2.4852362204724407
0
LINE
8
BLACK
6
CONTINUOUS
10
0.7335629921259842
20
2.4852362204724407
11
0.7731299212598425
21
2.4852362204724407
0
LINE
8
BLACK
6
CONTINUOUS
10
0.7731299212598425
20
2.4852362204724407
11
0.7731298818897637
21
2.5295275590551181
0
LINE
8
BLACK
6
CONTINUOUS
10
0.7731298818897637
20
2.5295275590551181
11
0.7732048031496063
21
2.5299042125984252
0
LINE
8
BLACK
6
CONTINUOUS
10
0.7732048031496063
20
2.5299042125984252
11
0.7737374803149606
21
2.5304368897637795
0
LINE
8
BLACK
6
CONTINUOUS
10
0.7737374803149606
20
2.5304368897637795
11
0.7741141338582677
21
2.5305118110236218
0
LINE
8
BLACK
6
CONTINUOUS
10
0.7741141338582677
20
2.5305118110236218
11
0.8449803543307086
21
2.5305118110236218
0
LINE
8
BLACK
6
CONTINUOUS
10
0.8449803543307086
20
2.5305118110236218
11
0.8453570078740157
21
2.5304368897637795
0
LINE
8
BLACK
6
CONTINUOUS
10
0.7750983858267716
20
2.5285433070866139
11
0.7750984251968503
21
2.484251968503937
0
LINE
8
BLACK
6
CONTINUOUS
10
0.7750984251968503
20
2.484251968503937
11
0.7750235039370078
21
2.4838753149606299
0
LINE
8
BLACK
6
CONTINUOUS
10
0.7750235039370078
20
2.4838753149606299
11
0.7744908267716535
21
2.4833426377952756
0
LINE
8
BLACK
6
CONTINUOUS
10
0.7744908267716535
20
2.4833426377952756
11
0.7741141732283464
21
2.4832677165354329
0
LINE
8
BLACK
6
CONTINUOUS
10
0.7741141732283464
20
2.4832677165354329
11
0.7345472440944881
21
2.4832677165354329
0
LINE
8
BLACK
6
CONTINUOUS
10
0.7345472440944881
20
2.4832677165354329
11
0.7345472440944881
21
2.4419291338582676
0
LINE
8
BLACK
6
CONTINUOUS
10
0.7345472440944881
20
2.4419291338582676
11
0.7741141732283464
21
2.4419291338582676
0
LINE
8
BLACK
6
CONTINUOUS
10
0.7741141732283464
20
2.4419291338582676
11
0.7744908267716535
21
2.4418542125984253
0
LINE
8
BLACK
6
CONTINUOUS
10
0.7744908267716535
20
2.4418542125984253
11
0.7750235039370078
21
2.4413215354330706
0
LINE
8
BLACK
6
CONTINUOUS
10
0.7750235039370078
20
2.4413215354330706
11
0.7750984251968503
21
2.4409448818897639
0
LINE
8
BLACK
6
CONTINUOUS
10
0.7750984251968503
20
2.4409448818897639
11
0.7750983858267716
21
2.3966535433070866
0
LINE
8
BLACK
6
CONTINUOUS
10
0.7750983858267716
20
2.3966535433070866
11
0.8439961023622047
21
2.3966535433070866
0
LINE
8
BLACK
6
CONTINUOUS
10
0.8439961023622047
20
2.3966535433070866
11
0.8439960629921259
21
2.4035433070866139
0
LINE
8
BLACK
6
CONTINUOUS
10
0.8439960629921259
20
2.4035433070866139
11
0.8440709842519685
21
2.4039199606299211
0
LINE
8
BLACK
6
CONTINUOUS
10
0.8440709842519685
20
2.4039199606299211
11
0.8446036614173228
21
2.4044526377952757
0
LINE
8
BLACK
6
CONTINUOUS
10
0.8446036614173228
20
2.4044526377952757
11
0.8449803149606299
21
2.4045275590551181
0
LINE
8
BLACK
6
CONTINUOUS
10
0.8449803149606299
20
2.4045275590551181
11
0.8845472440944881
21
2.4045275590551181
0
LINE
8
BLACK
6
CONTINUOUS
10
0.8845472440944881
20
2.4045275590551181
11
0.8845472440944881
21
2.5206692913385824
0
LINE
8
BLACK
6
CONTINUOUS
10
0.8845472440944881
20
2.5206692913385824
11
0.8449803149606299
21
2.5206692913385824
0
LINE
8
BLACK
6
CONTINUOUS
10
0.8449803149606299
20
2.5206692913385824
11
0.8446036614173228
21
2.5207442125984252
0
LINE
8
BLACK
6
CONTINUOUS
10
0.8446036614173228
20
2.5207442125984252
11
0.8440709842519685
21
2.5212768897637794
0
LINE
8
BLACK
6
CONTINUOUS
10
0.8440709842519685
20
2.5212768897637794
11
0.8439960629921259
21
2.5216535433070866
0
LINE
8
BLACK
6
CONTINUOUS
10
0.8439960629921259
20
2.5216535433070866
11
0.8439961023622047
21
2.5285433070866139
0
LINE
8
BLACK
6
CONTINUOUS
10
0.8439961023622047
20
2.5285433070866139
11
0.7750983858267716
21
2.5285433070866139
0
LINE
8
BLACK
6
CONTINUOUS
10
1.1221286220472442
20
2.5776809842519683
11
1.1226612992125984
21
2.5771483070866141
0
LINE
8
BLACK
6
CONTINUOUS
10
1.1226612992125984
20
2.5771483070866141
11
1.1227362204724409
21
2.576771653543307
0
LINE
8
BLACK
6
CONTINUOUS
10
1.1227362204724409
20
2.576771653543307
11
1.1227362204724409
21
2.5019685039370079
0
LINE
8
BLACK
6
CONTINUOUS
10
1.1227362204724409
20
2.5019685039370079
11
1.1226612992125984
21
2.5015918503937007
0
LINE
8
BLACK
6
CONTINUOUS
10
1.1226612992125984
20
2.5015918503937007
11
1.1221286220472442
21
2.5010591732283465
0
LINE
8
BLACK
6
CONTINUOUS
10
1.1221286220472442
20
2.5010591732283465
11
1.121751968503937
21
2.5009842519685037
0
LINE
8
BLACK
6
CONTINUOUS
10
1.121751968503937
20
2.5009842519685037
11
0.9894685039370078
21
2.5009842519685037
0
LINE
8
BLACK
6
CONTINUOUS
10
0.9894685039370078
20
2.5009842519685037
11
0.9890918503937007
21
2.5010591732283465
0
LINE
8
BLACK
6
CONTINUOUS
10
0.9890918503937007
20
2.5010591732283465
11
0.9885591732283464
21
2.5015918503937007
0
LINE
8
BLACK
6
CONTINUOUS
10
0.9885591732283464
20
2.5015918503937007
11
0.9884842519685039
21
2.5019685039370079
0
LINE
8
BLACK
6
CONTINUOUS
10
0.9884842519685039
20
2.5019685039370079
11
0.9884842519685039
21
2.576771653543307
0
LINE
8
BLACK
6
CONTINUOUS
10
0.9884842519685039
20
2.576771653543307
11
0.9885591732283464
21
2.5771483070866141
0
LINE
8
BLACK
6
CONTINUOUS
10
0.9885591732283464
20
2.5771483070866141
11
0.9890918503937007
21
2.5776809842519683
0
LINE
8
BLACK
6
CONTINUOUS
10
0.9890918503937007
20
2.5776809842519683
11
0.9894685039370078
21
2.5777559055118111
0
LINE
8
BLACK
6
CONTINUOUS
10
0.9894685039370078
20
2.5777559055118111
11
1.121751968503937
21
2.5777559055118111
0
LINE
8
BLACK
6
CONTINUOUS
10
1.121751968503937
20
2.5777559055118111
11
1.1221286220472442
21
2.5776809842519683
0
LINE
8
BLACK
6
CONTINUOUS
10
0.9904527559055117
20
2.5757874015748032
11
0.9904527559055117
21
2.5029527559055116
0
LINE
8
BLACK
6
CONTINUOUS
10
0.9904527559055117
20
2.5029527559055116
11
1.1207677165354331
21
2.5029527559055116
0
LINE
8
BLACK
6
CONTINUOUS
10
1.1207677165354331
20
2.5029527559055116
11
1.1207677165354331
21
2.5757874015748032
0
LINE
8
BLACK
6
CONTINUOUS
10
1.1207677165354331
20
2.5757874015748032
11
0.9904527559055117
21
2.5757874015748032
0
LINE
8
BLACK
6
CONTINUOUS
10
0.8179947637795275
20
2.6879172047244095
11
0.8185274409448818
21
2.6873845275590549
0
LINE
8
BLACK
6
CONTINUOUS
10
0.8185274409448818
20
2.6873845275590549
11
0.8186023622047244
21
2.6870078740157481
0
LINE
8
BLACK
6
CONTINUOUS
10
0.8186023622047244
20
2.6870078740157481
11
0.8186023622047244
21
2.6122047244094486
0
LINE
8
BLACK
6
CONTINUOUS
10
0.8186023622047244
20
2.6122047244094486
11
0.8185274409448818
21
2.6118280708661419
0
LINE
8
BLACK
6
CONTINUOUS
10
0.8185274409448818
20
2.6118280708661419
11
0.8179947637795275
21
2.6112953937007872
0
LINE
8
BLACK
6
CONTINUOUS
10
0.8179947637795275
20
2.6112953937007872
11
0.8176181102362204
21
2.6112204724409449
0
LINE
8
BLACK
6
CONTINUOUS
10
0.8176181102362204
20
2.6112204724409449
11
0.6853346456692914
21
2.6112204724409449
0
LINE
8
BLACK
6
CONTINUOUS
10
0.6853346456692914
20
2.6112204724409449
11
0.6849579921259842
21
2.6112953937007872
0
LINE
8
BLACK
6
CONTINUOUS
10
0.6849579921259842
20
2.6112953937007872
11
0.6844253149606299
21
2.6118280708661419
0
LINE
8
BLACK
6
CONTINUOUS
10
0.6844253149606299
20
2.6118280708661419
11
0.6843503937007874
21
2.6122047244094486
0
LINE
8
BLACK
6
CONTINUOUS
10
0.6843503937007874
20
2.6122047244094486
11
0.6843503937007874
21
2.6870078740157481
0
LINE
8
BLACK
6
CONTINUOUS
10
0.6843503937007874
20
2.6870078740157481
11
0.6844253149606299
21
2.6873845275590549
0
LINE
8
BLACK
6
CONTINUOUS
10
0.6844253149606299
20
2.6873845275590549
11
0.6849579921259842
21
2.6879172047244095
0
LINE
8
BLACK
6
CONTINUOUS
10
0.6849579921259842
20
2.6879172047244095
11
0.6853346456692914
21
2.6879921259842519
0
LINE
8
BLACK
6
CONTINUOUS
10
0.6853346456692914
20
2.6879921259842519
11
0.8176181102362204
21
2.6879921259842519
0
LINE
8
BLACK
6
CONTINUOUS
10
0.8176181102362204
20
2.6879921259842519
11
0.8179947637795275
21
2.6879172047244095
0
LINE
8
BLACK
6
CONTINUOUS
10
0.6863188976377953
20
2.686023622047244
11
0.6863188976377953
21
2.6131889763779528
0
LINE
8
BLACK
6
CONTINUOUS
10
0.6863188976377953
20
2.6131889763779528
11
0.8166338582677165
21
2.6131889763779528
0
LINE
8
BLACK
6
CONTINUOUS
10
0.8166338582677165
20
2.6131889763779528
11
0.8166338582677165
21
2.686023622047244
0
LINE
8
BLACK
6
CONTINUOUS
10
0.8166338582677165
20
2.686023622047244
11
0.6863188976377953
21
2.686023622047244
0
LINE
8
BLACK
6
CONTINUOUS
10
0.9990971259842519
20
2.7076022440944882
11
0.9996298031496063
21
2.7070695669291336
0
LINE
8
BLACK
6
CONTINUOUS
10
0.9996298031496063
20
2.7070695669291336
11
0.9997047244094488
21
2.7066929133858268
0
LINE
8
BLACK
6
CONTINUOUS
10
0.9997047244094488
20
2.7066929133858268
11
0.9997047244094488
21
2.6318897637795273
0
LINE
8
BLACK
6
CONTINUOUS
10
0.9997047244094488
20
2.6318897637795273
11
0.9996298031496063
21
2.6315131102362206
0
LINE
8
BLACK
6
CONTINUOUS
10
0.9996298031496063
20
2.6315131102362206
11
0.9990971259842519
21
2.6309804330708659
0
LINE
8
BLACK
6
CONTINUOUS
10
0.9990971259842519
20
2.6309804330708659
11
0.9987204724409449
21
2.6309055118110236
0
LINE
8
BLACK
6
CONTINUOUS
10
0.9987204724409449
20
2.6309055118110236
11
0.8664370078740157
21
2.6309055118110236
0
LINE
8
BLACK
6
CONTINUOUS
10
0.8664370078740157
20
2.6309055118110236
11
0.8660603543307086
21
2.6309804330708659
0
LINE
8
BLACK
6
CONTINUOUS
10
0.8660603543307086
20
2.6309804330708659
11
0.8655276771653543
21
2.6315131102362206
0
LINE
8
BLACK
6
CONTINUOUS
10
0.8655276771653543
20
2.6315131102362206
11
0.8654527559055117
21
2.6318897637795273
0
LINE
8
BLACK
6
CONTINUOUS
10
0.8654527559055117
20
2.6318897637795273
11
0.8654527559055117
21
2.7066929133858268
0
LINE
8
BLACK
6
CONTINUOUS
10
0.8654527559055117
20
2.7066929133858268
11
0.8655276771653543
21
2.7070695669291336
0
LINE
8
BLACK
6
CONTINUOUS
10
0.8655276771653543
20
2.7070695669291336
11
0.8660603543307086
21
2.7076022440944882
0
LINE
8
BLACK
6
CONTINUOUS
10
0.8660603543307086
20
2.7076022440944882
11
0.8664370078740157
21
2.7076771653543306
0
LINE
8
BLACK
6
CONTINUOUS
10
0.8664370078740157
20
2.7076771653543306
11
0.9987204724409449
21
2.7076771653543306
0
LINE
8
BLACK
6
CONTINUOUS
10
0.9987204724409449
20
2.7076771653543306
11
0.9990971259842519
21
2.7076022440944882
0
LINE
8
BLACK
6
CONTINUOUS
10
0.8674212598425197
20
2.7057086614173227
11
0.8674212598425197
21
2.6328740157480315
0
LINE
8
BLACK
6
CONTINUOUS
10
0.8674212598425197
20
2.6328740157480315
11
0.9977362204724409
21
2.6328740157480315
0
LINE
8
BLACK
6
CONTINUOUS
10
0.9977362204724409
20
2.6328740157480315
11
0.9977362204724409
21
2.7057086614173227
0
LINE
8
BLACK
6
CONTINUOUS
10
0.9977362204724409
20
2.7057086614173227
11
0.8674212598425197
21
2.7057086614173227
0
LINE
8
BLACK
6
CONTINUOUS
10
1.1221286220472442
20
2.8099644488188975
11
1.1226612992125984
21
2.8094317716535433
0
LINE
8
BLACK
6
CONTINUOUS
10
1.1226612992125984
20
2.8094317716535433
11
1.1227362204724409
21
2.8090551181102361
0
LINE
8
BLACK
6
CONTINUOUS
10
1.1227362204724409
20
2.8090551181102361
11
1.1227362204724409
21
2.734251968503937
0
LINE
8
BLACK
6
CONTINUOUS
10
1.1227362204724409
20
2.734251968503937
11
1.1226612992125984
21
2.7338753149606299
0
LINE
8
BLACK
6
CONTINUOUS
10
1.1226612992125984
20
2.7338753149606299
11
1.1221286220472442
21
2.7333426377952756
0
LINE
8
BLACK
6
CONTINUOUS
10
1.1221286220472442
20
2.7333426377952756
11
1.121751968503937
21
2.7332677165354329
0
LINE
8
BLACK
6
CONTINUOUS
10
1.121751968503937
20
2.7332677165354329
11
0.9894685039370078
21
2.7332677165354329
0
LINE
8
BLACK
6
CONTINUOUS
10
0.9894685039370078
20
2.7332677165354329
11
0.9890918503937007
21
2.7333426377952756
0
LINE
8
BLACK
6
CONTINUOUS
10
0.9890918503937007
20
2.7333426377952756
11
0.9885591732283464
21
2.7338753149606299
0
LINE
8
BLACK
6
CONTINUOUS
10
0.9885591732283464
20
2.7338753149606299
11
0.9884842519685039
21
2.734251968503937
0
LINE
8
BLACK
6
CONTINUOUS
10
0.9884842519685039
20
2.734251968503937
11
0.9884842519685039
21
2.8090551181102361
0
LINE
8
BLACK
6
CONTINUOUS
10
0.9884842519685039
20
2.8090551181102361
11
0.9885591732283464
21
2.8094317716535433
0
LINE
8
BLACK
6
CONTINUOUS
10
0.9885591732283464
20
2.8094317716535433
11
0.9890918503937007
21
2.8099644488188975
0
LINE
8
BLACK
6
CONTINUOUS
10
0.9890918503937007
20
2.8099644488188975
11
0.9894685039370078
21
2.8100393700787403
0
LINE
8
BLACK
6
CONTINUOUS
10
0.9894685039370078
20
2.8100393700787403
11
1.121751968503937
21
2.8100393700787403
0
LINE
8
BLACK
6
CONTINUOUS
10
1.121751968503937
20
2.8100393700787403
11
1.1221286220472442
21
2.8099644488188975
0
LINE
8
BLACK
6
CONTINUOUS
10
0.9904527559055117
20
2.8080708661417324
11
0.9904527559055117
21
2.7352362204724407
0
LINE
8
BLACK
6
CONTINUOUS
10
0.9904527559055117
20
2.7352362204724407
11
1.1207677165354331
21
2.7352362204724407
0
LINE
8
BLACK
6
CONTINUOUS
10
1.1207677165354331
20
2.7352362204724407
11
1.1207677165354331
21
2.8080708661417324
0
LINE
8
BLACK
6
CONTINUOUS
10
1.1207677165354331
20
2.8080708661417324
11
0.9904527559055117
21
2.8080708661417324
0
LINE
8
BLACK
6
CONTINUOUS
10
1.1221286220472442
20
2.9261061811023623
11
1.1226612992125984
21
2.9255735039370077
0
LINE
8
BLACK
6
CONTINUOUS
10
1.1226612992125984
20
2.9255735039370077
11
1.1227362204724409
21
2.9251968503937009
0
LINE
8
BLACK
6
CONTINUOUS
10
1.1227362204724409
20
2.9251968503937009
11
1.1227362204724409
21
2.8503937007874014
0
LINE
8
BLACK
6
CONTINUOUS
10
1.1227362204724409
20
2.8503937007874014
11
1.1226612992125984
21
2.8500170472440942
0
LINE
8
BLACK
6
CONTINUOUS
10
1.1226612992125984
20
2.8500170472440942
11
1.1221286220472442
21
2.84948437007874
0
LINE
8
BLACK
6
CONTINUOUS
10
1.1221286220472442
20
2.84948437007874
11
1.121751968503937
21
2.8494094488188977
0
LINE
8
BLACK
6
CONTINUOUS
10
1.121751968503937
20
2.8494094488188977
11
0.9894685039370078
21
2.8494094488188977
0
LINE
8
BLACK
6
CONTINUOUS
10
0.9894685039370078
20
2.8494094488188977
11
0.9890918503937007
21
2.84948437007874
0
LINE
8
BLACK
6
CONTINUOUS
10
0.9890918503937007
20
2.84948437007874
11
0.9885591732283464
21
2.8500170472440942
0
LINE
8
BLACK
6
CONTINUOUS
10
0.9885591732283464
20
2.8500170472440942
11
0.9884842519685039
21
2.8503937007874014
0
LINE
8
BLACK
6
CONTINUOUS
10
0.9884842519685039
20
2.8503937007874014
11
0.9884842519685039
21
2.9251968503937009
0
LINE
8
BLACK
6
CONTINUOUS
10
0.9884842519685039
20
2.9251968503937009
11
0.9885591732283464
21
2.9255735039370077
0
LINE
8
BLACK
6
CONTINUOUS
10
0.9885591732283464
20
2.9255735039370077
11
0.9890918503937007
21
2.9261061811023623
0
LINE
8
BLACK
6
CONTINUOUS
10
0.9890918503937007
20
2.9261061811023623
11
0.9894685039370078
21
2.9261811023622046
0
LINE
8
BLACK
6
CONTINUOUS
10
0.9894685039370078
20
2.9261811023622046
11
1.121751968503937
21
2.9261811023622046
0
LINE
8
BLACK
6
CONTINUOUS
10
1.121751968503937
20
2.9261811023622046
11
1.1221286220472442
21
2.9261061811023623
0
LINE
8
BLACK
6
CONTINUOUS
10
0.9904527559055117
20
2.9242125984251968
11
0.9904527559055117
21
2.8513779527559056
0
LINE
8
BLACK
6
CONTINUOUS
10
0.9904527559055117
20
2.8513779527559056
11
1.1207677165354331
21
2.8513779527559056
0
LINE
8
BLACK
6
CONTINUOUS
10
1.1207677165354331
20
2.8513779527559056
11
1.1207677165354331
21
2.9242125984251968
0
LINE
8
BLACK
6
CONTINUOUS
10
1.1207677165354331
20
2.9242125984251968
11
0.9904527559055117
21
2.9242125984251968
0
CIRCLE
8
BLACK
10
2.3055118110236221
20
0.4
40
0.0068897637795276
0
CIRCLE
8
BLACK
10
2.3331867716535433
20
0.4668132283464567
40
0.0068897637795276
0
CIRCLE
8
BLACK
10
2.3331867716535433
20
0.3331867716535433
40
0.0068897637795276
0
CIRCLE
8
BLACK
10
2.3999999999999999
20
0.4944881889763779
40
0.0068897637795276
0
CIRCLE
8
BLACK
10
2.3999999999999999
20
0.4
40
0.0068897637795276
0
CIRCLE
8
BLACK
10
2.3999999999999999
20
0.305511811023622
40
0.0068897637795276
0
CIRCLE
8
BLACK
10
2.4668132283464566
20
0.4668132283464567
40
0.0068897637795276
0
CIRCLE
8
BLACK
10
2.4668132283464566
20
0.3331867716535433
40
0.0068897637795276
0
CIRCLE
8
BLACK
10
2.4944881889763777
20
0.4
40
0.0068897637795276
0
CIRCLE
8
BLACK
10
3.192913346456693
20
0.2897637795275591
40
0.0068897637795276
0
CIRCLE
8
BLACK
10
3.0929133464566929
20
0.2897637795275591
40
0.0068897637795276
0
CIRCLE
8
BLACK
10
3.1929133858267718
20
0.389763779527559
40
0.0068897637795276
0
CIRCLE
8
BLACK
10
3.0929133070866142
20
0.389763779527559
40
0.0068897637795276
0
CIRCLE
8
BLACK
10
3.192913346456693
20
0.4897637795275591
40
0.0068897637795276
0
CIRCLE
8
BLACK
10
3.0929133464566929
20
0.4897637795275591
40
0.0068897637795276
0
CIRCLE
8
BLACK
10
-0.5275590944881889
20
0.7070866141732284
40
0.0068897637795276
0
CIRCLE
8
BLACK
10
-0.6275590944881889
20
0.7070866141732284
40
0.0068897637795276
0
CIRCLE
8
BLACK
10
-0.5275590551181102
20
0.8070866141732284
40
0.0068897637795276
0
CIRCLE
8
BLACK
10
-0.6275591338582677
20
0.8070866141732284
40
0.0068897637795276
0
CIRCLE
8
BLACK
10
-0.5275590944881889
20
0.9070866141732283
40
0.0068897637795276
0
CIRCLE
8
BLACK
10
-0.6275590944881889
20
0.9070866141732283
40
0.0068897637795276
0
CIRCLE
8
BLACK
10
0.305511811023622
20
0.4
40
0.0068897637795276
0
CIRCLE
8
BLACK
10
0.3331867716535433
20
0.4668132283464567
40
0.0068897637795276
0
CIRCLE
8
BLACK
10
0.3331867716535433
20
0.3331867716535433
40
0.0068897637795276
0
CIRCLE
8
BLACK
10
0.4
20
0.4944881889763779
40
0.0068897637795276
0
CIRCLE
8
BLACK
10
0.4
20
0.4
40
0.0068897637795276
0
CIRCLE
8
BLACK
10
0.4
20
0.305511811023622
40
0.0068897637795276
0
CIRCLE
8
BLACK
10
0.4668132283464567
20
0.4668132283464567
40
0.0068897637795276
0
CIRCLE
8
BLACK
10
0.4668132283464567
20
0.3331867716535433
40
0.0068897637795276
0
CIRCLE
8
BLACK
10
0.4944881889763779
20
0.4
40
0.0068897637795276
0
CIRCLE
8
BLACK
10
0.305511811023622
20
2.
40
0.0068897637795276
0
CIRCLE
8
BLACK
10
0.3331867716535433
20
2.0668132283464566
40
0.0068897637795276
0
CIRCLE
8
BLACK
10
0.3331867716535433
20
1.9331867716535434
40
0.0068897637795276
0
CIRCLE
8
BLACK
10
0.4
20
2.0944881889763778
40
0.0068897637795276
0
CIRCLE
8
BLACK
10
0.4
20
2.
40
0.0068897637795276
0
CIRCLE
8
BLACK
10
0.4
20
1.905511811023622
40
0.0068897637795276
0
CIRCLE
8
BLACK
10
0.4668132283464567
20
2.0668132283464566
40
0.0068897637795276
0
CIRCLE
8
BLACK
10
0.4668132283464567
20
1.9331867716535434
40
0.0068897637795276
0
CIRCLE
8
BLACK
10
0.4944881889763779
20
2.
40
0.0068897637795276
0
CIRCLE
8
BLACK
10
4.0885826771653546
20
1.3421259842519684
40
0.0068897637795276
0
CIRCLE
8
BLACK
10
4.1885826771653543
20
1.3421259842519684
40
0.0068897637795276
0
CIRCLE
8
BLACK
10
4.0885826771653546
20
1.2421259842519685
40
0.0068897637795276
0
CIRCLE
8
BLACK
10
4.1885826771653543
20
1.2421259842519685
40
0.0068897637795276
0
CIRCLE
8
BLACK
10
4.0885826771653546
20
1.1421259842519684
40
0.0068897637795276
0
CIRCLE
8
BLACK
10
4.1885826771653543
20
1.1421259842519684
40
0.0068897637795276
0
CIRCLE
8
BLACK
10
0.6283464566929133
20
0.3645669291338582
40
0.0068897637795276
0
CIRCLE
8
BLACK
10
0.6283464566929133
20
0.4645669291338583
40
0.0068897637795276
0
CIRCLE
8
BLACK
10
0.7283464566929134
20
0.3645669291338582
40
0.0068897637795276
0
CIRCLE
8
BLACK
10
0.7283464566929134
20
0.4645669291338583
40
0.0068897637795276
0
CIRCLE
8
BLACK
10
0.8283464566929134
20
0.3645669291338582
40
0.0068897637795276
0
CIRCLE
8
BLACK
10
0.8283464566929134
20
0.4645669291338583
40
0.0068897637795276
0
CIRCLE
8
BLACK
10
0.9283464566929134
20
0.3645668897637795
40
0.0068897637795276
0
CIRCLE
8
BLACK
10
0.9283464566929134
20
0.464566968503937
40
0.0068897637795276
0
CIRCLE
8
BLACK
10
1.0283464566929135
20
0.3645669291338582
40
0.0068897637795276
0
CIRCLE
8
BLACK
10
1.0283464566929135
20
0.4645669291338583
40
0.0068897637795276
0
CIRCLE
8
BLACK
10
1.1283464566929133
20
0.3645669291338582
40
0.0068897637795276
0
CIRCLE
8
BLACK
10
1.1283464566929133
20
0.4645669291338583
40
0.0068897637795276
0
CIRCLE
8
BLACK
10
1.2283464566929134
20
0.3645669291338582
40
0.0068897637795276
0
CIRCLE
8
BLACK
10
1.2283464566929134
20
0.4645669291338583
40
0.0068897637795276
0
CIRCLE
8
BLACK
10
1.3283464566929133
20
0.3645669291338582
40
0.0068897637795276
0
CIRCLE
8
BLACK
10
1.3283464566929133
20
0.4645669291338583
40
0.0068897637795276
0
CIRCLE
8
BLACK
10
1.4283464566929134
20
0.3645668897637795
40
0.0068897637795276
0
CIRCLE
8
BLACK
10
1.4283464566929134
20
0.464566968503937
40
0.0068897637795276
0
CIRCLE
8
BLACK
10
1.5283464566929132
20
0.3645669291338582
40
0.0068897637795276
0
CIRCLE
8
BLACK
10
1.5283464566929132
20
0.4645669291338583
40
0.0068897637795276
0
CIRCLE
8
BLACK
10
1.6283464566929133
20
0.3645669291338582
40
0.0068897637795276
0
CIRCLE
8
BLACK
10
1.6283464566929133
20
0.4645669291338583
40
0.0068897637795276
0
CIRCLE
8
BLACK
10
1.7283464566929134
20
0.3645669291338582
40
0.0068897637795276
0
CIRCLE
8
BLACK
10
1.7283464566929134
20
0.4645669291338583
40
0.0068897637795276
0
CIRCLE
8
BLACK
10
0.4188976377952756
20
0.6535433070866141
40
0.0068897637795276
0
CIRCLE
8
BLACK
10
0.3188976377952756
20
0.6535433070866141
40
0.0068897637795276
0
CIRCLE
8
BLACK
10
0.4188976377952756
20
0.7535433070866142
40
0.0068897637795276
0
CIRCLE
8
BLACK
10
0.3188976377952756
20
0.7535433070866142
40
0.0068897637795276
0
CIRCLE
8
BLACK
10
0.4188976377952756
20
0.8535433070866142
40
0.0068897637795276
0
CIRCLE
8
BLACK
10
0.3188976377952756
20
0.8535433070866142
40
0.0068897637795276
0
CIRCLE
8
BLACK
10
0.4188976771653543
20
0.9535433070866142
40
0.0068897637795276
0
CIRCLE
8
BLACK
10
0.3188975984251968
20
0.9535433070866142
40
0.0068897637795276
0
CIRCLE
8
BLACK
10
0.4188976377952756
20
1.0535433070866143
40
0.0068897637795276
0
CIRCLE
8
BLACK
10
0.3188976377952756
20
1.0535433070866143
40
0.0068897637795276
0
CIRCLE
8
BLACK
10
0.4188976377952756
20
1.1535433070866141
40
0.0068897637795276
0
CIRCLE
8
BLACK
10
0.3188976377952756
20
1.1535433070866141
40
0.0068897637795276
0
CIRCLE
8
BLACK
10
0.4188976377952756
20
1.2535433070866142
40
0.0068897637795276
0
CIRCLE
8
BLACK
10
0.3188976377952756
20
1.2535433070866142
40
0.0068897637795276
0
CIRCLE
8
BLACK
10
0.4188976377952756
20
1.3535433070866141
40
0.0068897637795276
0
CIRCLE
8
BLACK
10
0.3188976377952756
20
1.3535433070866141
40
0.0068897637795276
0
CIRCLE
8
BLACK
10
0.4188976771653543
20
1.4535433070866142
40
0.0068897637795276
0
CIRCLE
8
BLACK
10
0.3188975984251968
20
1.4535433070866142
40
0.0068897637795276
0
CIRCLE
8
BLACK
10
0.4188976377952756
20
1.553543307086614
40
0.0068897637795276
0
CIRCLE
8
BLACK
10
0.3188976377952756
20
1.553543307086614
40
0.0068897637795276
0
CIRCLE
8
BLACK
10
0.4188976377952756
20
1.6535433070866141
40
0.0068897637795276
0
CIRCLE
8
BLACK
10
0.3188976377952756
20
1.6535433070866141
40
0.0068897637795276
0
CIRCLE
8
BLACK
10
0.4188976377952756
20
1.7535433070866142
40
0.0068897637795276
0
CIRCLE
8
BLACK
10
0.3188976377952756
20
1.7535433070866142
40
0.0068897637795276
0
CIRCLE
8
BLACK
10
2.3622047244094486
20
1.7488188976377952
40
0.0068897637795276
0
CIRCLE
8
BLACK
10
2.4622047244094487
20
1.7488188976377952
40
0.0068897637795276
0
CIRCLE
8
BLACK
10
2.3622047244094486
20
1.6488188976377953
40
0.0068897637795276
0
CIRCLE
8
BLACK
10
2.4622047244094487
20
1.6488188976377953
40
0.0068897637795276
0
CIRCLE
8
BLACK
10
2.3622047244094486
20
1.5488188976377952
40
0.0068897637795276
0
CIRCLE
8
BLACK
10
2.4622047244094487
20
1.5488188976377952
40
0.0068897637795276
0
CIRCLE
8
BLACK
10
2.3622047244094486
20
1.4488188976377951
40
0.0068897637795276
0
CIRCLE
8
BLACK
10
2.4622047244094487
20
1.4488188976377951
40
0.0068897637795276
0
CIRCLE
8
BLACK
10
2.3622047244094486
20
1.3488188976377953
40
0.0068897637795276
0
CIRCLE
8
BLACK
10
2.4622047244094487
20
1.3488188976377953
40
0.0068897637795276
0
CIRCLE
8
BLACK
10
2.3622047244094486
20
1.2488188976377952
40
0.0068897637795276
0
CIRCLE
8
BLACK
10
2.4622047244094487
20
1.2488188976377952
40
0.0068897637795276
0
CIRCLE
8
BLACK
10
2.3622047244094486
20
1.1488188976377953
40
0.0068897637795276
0
CIRCLE
8
BLACK
10
2.4622047244094487
20
1.1488188976377953
40
0.0068897637795276
0
CIRCLE
8
BLACK
10
2.3622047244094486
20
1.0488188976377952
40
0.0068897637795276
0
CIRCLE
8
BLACK
10
2.4622047244094487
20
1.0488188976377952
40
0.0068897637795276
0
CIRCLE
8
BLACK
10
2.3622047244094486
20
0.9488188976377953
40
0.0068897637795276
0
CIRCLE
8
BLACK
10
2.4622047244094487
20
0.9488188976377953
40
0.0068897637795276
0
CIRCLE
8
BLACK
10
2.3622047244094486
20
0.8488188976377953
40
0.0068897637795276
0
CIRCLE
8
BLACK
10
2.4622047244094487
20
0.8488188976377953
40
0.0068897637795276
0
CIRCLE
8
BLACK
10
2.3622047244094486
20
0.7488188976377953
40
0.0068897637795276
0
CIRCLE
8
BLACK
10
2.4622047244094487
20
0.7488188976377953
40
0.0068897637795276
0
CIRCLE
8
BLACK
10
2.3622047244094486
20
0.6488188976377952
40
0.0068897637795276
0
CIRCLE
8
BLACK
10
2.4622047244094487
20
0.6488188976377952
40
0.0068897637795276
0
CIRCLE
8
BLACK
10
2.1535432677165356
20
0.8944881889763779
40
0.0068897637795276
0
CIRCLE
8
BLACK
10
2.0535432677165355
20
0.8944881889763779
40
0.0068897637795276
0
CIRCLE
8
BLACK
10
2.1535432677165356
20
0.9944881889763779
40
0.0068897637795276
0
CIRCLE
8
BLACK
10
2.0535432677165355
20
0.9944881889763779
40
0.0068897637795276
0
CIRCLE
8
BLACK
10
2.1535433070866143
20
1.094488188976378
40
0.0068897637795276
0
CIRCLE
8
BLACK
10
2.0535432283464568
20
1.094488188976378
40
0.0068897637795276
0
CIRCLE
8
BLACK
10
2.1535432677165356
20
1.1944881889763779
40
0.0068897637795276
0
CIRCLE
8
BLACK
10
2.0535432677165355
20
1.1944881889763779
40
0.0068897637795276
0
CIRCLE
8
BLACK
10
2.1535432677165356
20
1.294488188976378
40
0.0068897637795276
0
CIRCLE
8
BLACK
10
2.0535432677165355
20
1.294488188976378
40
0.0068897637795276
0
CIRCLE
8
BLACK
10
2.3055118110236221
20
2.
40
0.0068897637795276
0
CIRCLE
8
BLACK
10
2.3331867716535433
20
2.0668132283464566
40
0.0068897637795276
0
CIRCLE
8
BLACK
10
2.3331867716535433
20
1.9331867716535434
40
0.0068897637795276
0
CIRCLE
8
BLACK
10
2.3999999999999999
20
2.0944881889763778
40
0.0068897637795276
0
CIRCLE
8
BLACK
10
2.3999999999999999
20
2.
40
0.0068897637795276
0
CIRCLE
8
BLACK
10
2.3999999999999999
20
1.905511811023622
40
0.0068897637795276
0
CIRCLE
8
BLACK
10
2.4668132283464566
20
2.0668132283464566
40
0.0068897637795276
0
CIRCLE
8
BLACK
10
2.4668132283464566
20
1.9331867716535434
40
0.0068897637795276
0
CIRCLE
8
BLACK
10
2.4944881889763777
20
2.
40
0.0068897637795276
0
CIRCLE
8
BLACK
10
2.1456692913385824
20
0.4724409448818898
40
0.0068897637795276
0
CIRCLE
8
BLACK
10
1.918110157480315
20
0.4724409448818898
40
0.0068897637795276
0
LINE
8
BLACK
6
CONTINUOUS
10
2.1902585039370077
20
0.3448487401574803
11
2.1910564960629921
21
0.347826968503937
0
LINE
8
BLACK
6
CONTINUOUS
10
2.1910564960629921
20
0.347826968503937
11
2.1925981496062992
21
0.3504971653543307
0
LINE
8
BLACK
6
CONTINUOUS
10
2.1925981496062992
20
0.3504971653543307
11
2.1947783858267718
21
0.3526774015748032
0
LINE
8
BLACK
6
CONTINUOUS
10
2.1947783858267718
20
0.3526774015748032
11
2.1974485826771653
21
0.3542190551181102
0
LINE
8
BLACK
6
CONTINUOUS
10
2.1974485826771653
20
0.3542190551181102
11
2.2004268110236218
21
0.3550170472440945
0
LINE
8
BLACK
6
CONTINUOUS
10
2.2004268110236218
20
0.3550170472440945
11
2.2035101181102363
21
0.3550170472440945
0
LINE
8
BLACK
6
CONTINUOUS
10
2.2035101181102363
20
0.3550170472440945
11
2.2064883464566929
21
0.3542190551181102
0
LINE
8
BLACK
6
CONTINUOUS
10
2.2064883464566929
20
0.3542190551181102
11
2.2091585433070864
21
0.3526774015748032
0
LINE
8
BLACK
6
CONTINUOUS
10
2.2091585433070864
20
0.3526774015748032
11
2.211338779527559
21
0.3504971653543307
0
LINE
8
BLACK
6
CONTINUOUS
10
2.211338779527559
20
0.3504971653543307
11
2.212880433070866
21
0.347826968503937
0
LINE
8
BLACK
6
CONTINUOUS
10
2.212880433070866
20
0.347826968503937
11
2.2136784251968504
21
0.3448487401574803
0
LINE
8
BLACK
6
CONTINUOUS
10
2.2136784251968504
20
0.3448487401574803
11
2.2137794881889765
21
0.3433070866141732
0
LINE
8
BLACK
6
CONTINUOUS
10
2.2137794881889765
20
0.3433070866141732
11
2.2137794881889765
21
0.3118110236220472
0
LINE
8
BLACK
6
CONTINUOUS
10
2.2137794881889765
20
0.3118110236220472
11
2.2136784251968504
21
0.3102693700787402
0
LINE
8
BLACK
6
CONTINUOUS
10
2.2136784251968504
20
0.3102693700787402
11
2.212880433070866
21
0.3072911417322834
0
LINE
8
BLACK
6
CONTINUOUS
10
2.212880433070866
20
0.3072911417322834
11
2.211338779527559
21
0.3046209448818897
0
LINE
8
BLACK
6
CONTINUOUS
10
2.211338779527559
20
0.3046209448818897
11
2.2091585433070864
21
0.3024407086614173
0
LINE
8
BLACK
6
CONTINUOUS
10
2.2091585433070864
20
0.3024407086614173
11
2.2064883464566929
21
0.3008990551181102
0
LINE
8
BLACK
6
CONTINUOUS
10
2.2064883464566929
20
0.3008990551181102
11
2.2035101181102363
21
0.300101062992126
0
LINE
8
BLACK
6
CONTINUOUS
10
2.2035101181102363
20
0.300101062992126
11
2.2004268110236218
21
0.300101062992126
0
LINE
8
BLACK
6
CONTINUOUS
10
2.2004268110236218
20
0.300101062992126
11
2.1974485826771653
21
0.3008990551181102
0
LINE
8
BLACK
6
CONTINUOUS
10
2.1974485826771653
20
0.3008990551181102
11
2.1947783858267718
21
0.3024407086614173
0
LINE
8
BLACK
6
CONTINUOUS
10
2.1947783858267718
20
0.3024407086614173
11
2.1925981496062992
21
0.3046209448818897
0
LINE
8
BLACK
6
CONTINUOUS
10
2.1925981496062992
20
0.3046209448818897
11
2.1910564960629921
21
0.3072911417322834
0
LINE
8
BLACK
6
CONTINUOUS
10
2.1910564960629921
20
0.3072911417322834
11
2.1902585039370077
21
0.3102693700787402
0
LINE
8
BLACK
6
CONTINUOUS
10
2.1902585039370077
20
0.3102693700787402
11
2.1901574409448816
21
0.3118110236220472
0
LINE
8
BLACK
6
CONTINUOUS
10
2.1901574409448816
20
0.3118110236220472
11
2.1901574409448816
21
0.3433070866141732
0
LINE
8
BLACK
6
CONTINUOUS
10
2.1901574409448816
20
0.3433070866141732
11
2.1902585039370077
21
0.3448487401574803
0
LINE
8
BLACK
6
CONTINUOUS
10
1.8501010236220472
20
0.3448487401574803
11
1.8508990157480314
21
0.347826968503937
0
LINE
8
BLACK
6
CONTINUOUS
10
1.8508990157480314
20
0.347826968503937
11
1.8524406692913384
21
0.3504971653543307
0
LINE
8
BLACK
6
CONTINUOUS
10
1.8524406692913384
20
0.3504971653543307
11
1.854620905511811
21
0.3526774015748032
0
LINE
8
BLACK
6
CONTINUOUS
10
1.854620905511811
20
0.3526774015748032
11
1.8572911023622047
21
0.3542190551181102
0
LINE
8
BLACK
6
CONTINUOUS
10
1.8572911023622047
20
0.3542190551181102
11
1.8602693307086613
21
0.3550170472440945
0
LINE
8
BLACK
6
CONTINUOUS
10
1.8602693307086613
20
0.3550170472440945
11
1.8633526377952756
21
0.3550170472440945
0
LINE
8
BLACK
6
CONTINUOUS
10
1.8633526377952756
20
0.3550170472440945
11
1.8663308661417322
21
0.3542190551181102
0
LINE
8
BLACK
6
CONTINUOUS
10
1.8663308661417322
20
0.3542190551181102
11
1.8690010629921259
21
0.3526774015748032
0
LINE
8
BLACK
6
CONTINUOUS
10
1.8690010629921259
20
0.3526774015748032
11
1.8711812992125985
21
0.3504971653543307
0
LINE
8
BLACK
6
CONTINUOUS
10
1.8711812992125985
20
0.3504971653543307
11
1.8727229527559055
21
0.347826968503937
0
LINE
8
BLACK
6
CONTINUOUS
10
1.8727229527559055
20
0.347826968503937
11
1.8735209448818897
21
0.3448487401574803
0
LINE
8
BLACK
6
CONTINUOUS
10
1.8735209448818897
20
0.3448487401574803
11
1.8736220078740158
21
0.3433070866141732
0
LINE
8
BLACK
6
CONTINUOUS
10
1.8736220078740158
20
0.3433070866141732
11
1.8736220078740158
21
0.3118110236220472
0
LINE
8
BLACK
6
CONTINUOUS
10
1.8736220078740158
20
0.3118110236220472
11
1.8735209448818897
21
0.3102693700787402
0
LINE
8
BLACK
6
CONTINUOUS
10
1.8735209448818897
20
0.3102693700787402
11
1.8727229527559055
21
0.3072911417322834
0
LINE
8
BLACK
6
CONTINUOUS
10
1.8727229527559055
20
0.3072911417322834
11
1.8711812992125985
21
0.3046209448818897
0
LINE
8
BLACK
6
CONTINUOUS
10
1.8711812992125985
20
0.3046209448818897
11
1.8690010629921259
21
0.3024407086614173
0
LINE
8
BLACK
6
CONTINUOUS
10
1.8690010629921259
20
0.3024407086614173
11
1.8663308661417322
21
0.3008990551181102
0
LINE
8
BLACK
6
CONTINUOUS
10
1.8663308661417322
20
0.3008990551181102
11
1.8633526377952756
21
0.300101062992126
0
LINE
8
BLACK
6
CONTINUOUS
10
1.8633526377952756
20
0.300101062992126
11
1.8602693307086613
21
0.300101062992126
0
LINE
8
BLACK
6
CONTINUOUS
10
1.8602693307086613
20
0.300101062992126
11
1.8572911023622047
21
0.3008990551181102
0
LINE
8
BLACK
6
CONTINUOUS
10
1.8572911023622047
20
0.3008990551181102
11
1.854620905511811
21
0.3024407086614173
0
LINE
8
BLACK
6
CONTINUOUS
10
1.854620905511811
20
0.3024407086614173
11
1.8524406692913384
21
0.3046209448818897
0
LINE
8
BLACK
6
CONTINUOUS
10
1.8524406692913384
20
0.3046209448818897
11
1.8508990157480314
21
0.3072911417322834
0
LINE
8
BLACK
6
CONTINUOUS
10
1.8508990157480314
20
0.3072911417322834
11
1.8501010236220472
21
0.3102693700787402
0
LINE
8
BLACK
6
CONTINUOUS
10
1.8501010236220472
20
0.3102693700787402
11
1.8499999606299211
21
0.3118110236220472
0
LINE
8
BLACK
6
CONTINUOUS
10
1.8499999606299211
20
0.3118110236220472
11
1.8499999606299211
21
0.3433070866141732
0
LINE
8
BLACK
6
CONTINUOUS
10
1.8499999606299211
20
0.3433070866141732
11
1.8501010236220472
21
0.3448487401574803
0
LINE
8
BLACK
6
CONTINUOUS
10
2.1902585039370077
20
0.5153211811023622
11
2.1910564960629921
21
0.5182994094488189
0
LINE
8
BLACK
6
CONTINUOUS
10
2.1910564960629921
20
0.5182994094488189
11
2.1925981496062992
21
0.5209696062992126
0
LINE
8
BLACK
6
CONTINUOUS
10
2.1925981496062992
20
0.5209696062992126
11
2.1947783858267718
21
0.523149842519685
0
LINE
8
BLACK
6
CONTINUOUS
10
2.1947783858267718
20
0.523149842519685
11
2.1974485826771653
21
0.5246914960629921
0
LINE
8
BLACK
6
CONTINUOUS
10
2.1974485826771653
20
0.5246914960629921
11
2.2004268110236218
21
0.5254894881889763
0
LINE
8
BLACK
6
CONTINUOUS
10
2.2004268110236218
20
0.5254894881889763
11
2.2035101181102363
21
0.5254894881889763
0
LINE
8
BLACK
6
CONTINUOUS
10
2.2035101181102363
20
0.5254894881889763
11
2.2064883464566929
21
0.5246914960629921
0
LINE
8
BLACK
6
CONTINUOUS
10
2.2064883464566929
20
0.5246914960629921
11
2.2091585433070864
21
0.523149842519685
0
LINE
8
BLACK
6
CONTINUOUS
10
2.2091585433070864
20
0.523149842519685
11
2.211338779527559
21
0.5209696062992126
0
LINE
8
BLACK
6
CONTINUOUS
10
2.211338779527559
20
0.5209696062992126
11
2.212880433070866
21
0.5182994094488189
0
LINE
8
BLACK
6
CONTINUOUS
10
2.212880433070866
20
0.5182994094488189
11
2.2136784251968504
21
0.5153211811023622
0
LINE
8
BLACK
6
CONTINUOUS
10
2.2136784251968504
20
0.5153211811023622
11
2.2137794881889765
21
0.5137795275590551
0
LINE
8
BLACK
6
CONTINUOUS
10
2.2137794881889765
20
0.5137795275590551
11
2.2137794881889765
21
0.4704724409448819
0
LINE
8
BLACK
6
CONTINUOUS
10
2.2137794881889765
20
0.4704724409448819
11
2.2136784251968504
21
0.4689307874015748
0
LINE
8
BLACK
6
CONTINUOUS
10
2.2136784251968504
20
0.4689307874015748
11
2.212880433070866
21
0.4659525590551181
0
LINE
8
BLACK
6
CONTINUOUS
10
2.212880433070866
20
0.4659525590551181
11
2.211338779527559
21
0.4632823622047244
0
LINE
8
BLACK
6
CONTINUOUS
10
2.211338779527559
20
0.4632823622047244
11
2.2091585433070864
21
0.4611021259842519
0
LINE
8
BLACK
6
CONTINUOUS
10
2.2091585433070864
20
0.4611021259842519
11
2.2064883464566929
21
0.4595604724409449
0
LINE
8
BLACK
6
CONTINUOUS
10
2.2064883464566929
20
0.4595604724409449
11
2.2035101181102363
21
0.4587624803149606
0
LINE
8
BLACK
6
CONTINUOUS
10
2.2035101181102363
20
0.4587624803149606
11
2.2004268110236218
21
0.4587624803149606
0
LINE
8
BLACK
6
CONTINUOUS
10
2.2004268110236218
20
0.4587624803149606
11
2.1974485826771653
21
0.4595604724409449
0
LINE
8
BLACK
6
CONTINUOUS
10
2.1974485826771653
20
0.4595604724409449
11
2.1947783858267718
21
0.4611021259842519
0
LINE
8
BLACK
6
CONTINUOUS
10
2.1947783858267718
20
0.4611021259842519
11
2.1925981496062992
21
0.4632823622047244
0
LINE
8
BLACK
6
CONTINUOUS
10
2.1925981496062992
20
0.4632823622047244
11
2.1910564960629921
21
0.4659525590551181
0
LINE
8
BLACK
6
CONTINUOUS
10
2.1910564960629921
20
0.4659525590551181
11
2.1902585039370077
21
0.4689307874015748
0
LINE
8
BLACK
6
CONTINUOUS
10
2.1902585039370077
20
0.4689307874015748
11
2.1901574409448816
21
0.4704724409448819
0
LINE
8
BLACK
6
CONTINUOUS
10
2.1901574409448816
20
0.4704724409448819
11
2.1901574409448816
21
0.5137795275590551
0
LINE
8
BLACK
6
CONTINUOUS
10
2.1901574409448816
20
0.5137795275590551
11
2.1902585039370077
21
0.5153211811023622
0
LINE
8
BLACK
6
CONTINUOUS
10
1.8501010236220472
20
0.5153211811023622
11
1.8508990157480314
21
0.5182994094488189
0
LINE
8
BLACK
6
CONTINUOUS
10
1.8508990157480314
20
0.5182994094488189
11
1.8524406692913384
21
0.5209696062992126
0
LINE
8
BLACK
6
CONTINUOUS
10
1.8524406692913384
20
0.5209696062992126
11
1.854620905511811
21
0.523149842519685
0
LINE
8
BLACK
6
CONTINUOUS
10
1.854620905511811
20
0.523149842519685
11
1.8572911023622047
21
0.5246914960629921
0
LINE
8
BLACK
6
CONTINUOUS
10
1.8572911023622047
20
0.5246914960629921
11
1.8602693307086613
21
0.5254894881889763
0
LINE
8
BLACK
6
CONTINUOUS
10
1.8602693307086613
20
0.5254894881889763
11
1.8633526377952756
21
0.5254894881889763
0
LINE
8
BLACK
6
CONTINUOUS
10
1.8633526377952756
20
0.5254894881889763
11
1.8663308661417322
21
0.5246914960629921
0
LINE
8
BLACK
6
CONTINUOUS
10
1.8663308661417322
20
0.5246914960629921
11
1.8690010629921259
21
0.523149842519685
0
LINE
8
BLACK
6
CONTINUOUS
10
1.8690010629921259
20
0.523149842519685
11
1.8711812992125985
21
0.5209696062992126
0
LINE
8
BLACK
6
CONTINUOUS
10
1.8711812992125985
20
0.5209696062992126
11
1.8727229527559055
21
0.5182994094488189
0
LINE
8
BLACK
6
CONTINUOUS
10
1.8727229527559055
20
0.5182994094488189
11
1.8735209448818897
21
0.5153211811023622
0
LINE
8
BLACK
6
CONTINUOUS
10
1.8735209448818897
20
0.5153211811023622
11
1.8736220078740158
21
0.5137795275590551
0
LINE
8
BLACK
6
CONTINUOUS
10
1.8736220078740158
20
0.5137795275590551
11
1.8736220078740158
21
0.4704724409448819
0
LINE
8
BLACK
6
CONTINUOUS
10
1.8736220078740158
20
0.4704724409448819
11
1.8735209448818897
21
0.4689307874015748
0
LINE
8
BLACK
6
CONTINUOUS
10
1.8735209448818897
20
0.4689307874015748
11
1.8727229527559055
21
0.4659525590551181
0
LINE
8
BLACK
6
CONTINUOUS
10
1.8727229527559055
20
0.4659525590551181
11
1.8711812992125985
21
0.4632823622047244
0
LINE
8
BLACK
6
CONTINUOUS
10
1.8711812992125985
20
0.4632823622047244
11
1.8690010629921259
21
0.4611021259842519
0
LINE
8
BLACK
6
CONTINUOUS
10
1.8690010629921259
20
0.4611021259842519
11
1.8663308661417322
21
0.4595604724409449
0
LINE
8
BLACK
6
CONTINUOUS
10
1.8663308661417322
20
0.4595604724409449
11
1.8633526377952756
21
0.4587624803149606
0
LINE
8
BLACK
6
CONTINUOUS
10
1.8633526377952756
20
0.4587624803149606
11
1.8602693307086613
21
0.4587624803149606
0
LINE
8
BLACK
6
CONTINUOUS
10
1.8602693307086613
20
0.4587624803149606
11
1.8572911023622047
21
0.4595604724409449
0
LINE
8
BLACK
6
CONTINUOUS
10
1.8572911023622047
20
0.4595604724409449
11
1.854620905511811
21
0.4611021259842519
0
LINE
8
BLACK
6
CONTINUOUS
10
1.854620905511811
20
0.4611021259842519
11
1.8524406692913384
21
0.4632823622047244
0
LINE
8
BLACK
6
CONTINUOUS
10
1.8524406692913384
20
0.4632823622047244
11
1.8508990157480314
21
0.4659525590551181
0
LINE
8
BLACK
6
CONTINUOUS
10
1.8508990157480314
20
0.4659525590551181
11
1.8501010236220472
21
0.4689307874015748
0
LINE
8
BLACK
6
CONTINUOUS
10
1.8501010236220472
20
0.4689307874015748
11
1.8499999606299211
21
0.4704724409448819
0
LINE
8
BLACK
6
CONTINUOUS
10
1.8499999606299211
20
0.4704724409448819
11
1.8499999606299211
21
0.5137795275590551
0
LINE
8
BLACK
6
CONTINUOUS
10
1.8499999606299211
20
0.5137795275590551
11
1.8501010236220472
21
0.5153211811023622
0
LINE
8
BLACK
6
CONTINUOUS
10
0.8249832283464567
20
2.0804376377952756
11
0.8264136220472441
21
2.0876287401574802
0
LINE
8
BLACK
6
CONTINUOUS
10
0.8264136220472441
20
2.0876287401574802
11
0.8292194488188976
21
2.0944026377952754
0
LINE
8
BLACK
6
CONTINUOUS
10
0.8292194488188976
20
2.0944026377952754
11
0.833292874015748
21
2.1004989763779527
0
LINE
8
BLACK
6
CONTINUOUS
10
0.833292874015748
20
2.1004989763779527
11
0.8384773622047244
21
2.1056834645669289
0
LINE
8
BLACK
6
CONTINUOUS
10
0.8384773622047244
20
2.1056834645669289
11
0.8445737007874016
21
2.1097568897637795
0
LINE
8
BLACK
6
CONTINUOUS
10
0.8445737007874016
20
2.1097568897637795
11
0.8513475984251968
21
2.1125627165354328
0
LINE
8
BLACK
6
CONTINUOUS
10
0.8513475984251968
20
2.1125627165354328
11
0.8585387007874016
21
2.1139931102362204
0
LINE
8
BLACK
6
CONTINUOUS
10
0.8585387007874016
20
2.1139931102362204
11
0.8658706692913386
21
2.1139931102362204
0
LINE
8
BLACK
6
CONTINUOUS
10
0.8658706692913386
20
2.1139931102362204
11
0.8730617716535433
21
2.1125627165354328
0
LINE
8
BLACK
6
CONTINUOUS
10
0.8730617716535433
20
2.1125627165354328
11
0.8798356692913386
21
2.1097568897637795
0
LINE
8
BLACK
6
CONTINUOUS
10
0.8798356692913386
20
2.1097568897637795
11
0.8859320078740157
21
2.1056834645669289
0
LINE
8
BLACK
6
CONTINUOUS
10
0.8859320078740157
20
2.1056834645669289
11
0.8911164960629921
21
2.1004989763779527
0
LINE
8
BLACK
6
CONTINUOUS
10
0.8911164960629921
20
2.1004989763779527
11
0.8951899212598425
21
2.0944026377952754
0
LINE
8
BLACK
6
CONTINUOUS
10
0.8951899212598425
20
2.0944026377952754
11
0.8979957480314961
21
2.0876287401574802
0
LINE
8
BLACK
6
CONTINUOUS
10
0.8979957480314961
20
2.0876287401574802
11
0.8994261417322834
21
2.0804376377952756
0
LINE
8
BLACK
6
CONTINUOUS
10
0.8994261417322834
20
2.0804376377952756
11
0.8996062598425196
21
2.076771653543307
0
LINE
8
BLACK
6
CONTINUOUS
10
0.8996062598425196
20
2.076771653543307
11
0.8996062598425196
21
2.0570866141732282
0
LINE
8
BLACK
6
CONTINUOUS
10
0.8996062598425196
20
2.0570866141732282
11
0.8994261417322834
21
2.0534206299212596
0
LINE
8
BLACK
6
CONTINUOUS
10
0.8994261417322834
20
2.0534206299212596
11
0.8979957480314961
21
2.046229527559055
0
LINE
8
BLACK
6
CONTINUOUS
10
0.8979957480314961
20
2.046229527559055
11
0.8951899212598425
21
2.0394556299212598
0
LINE
8
BLACK
6
CONTINUOUS
10
0.8951899212598425
20
2.0394556299212598
11
0.8911164960629921
21
2.0333592913385825
0
LINE
8
BLACK
6
CONTINUOUS
10
0.8911164960629921
20
2.0333592913385825
11
0.8859320078740157
21
2.0281748031496063
0
LINE
8
BLACK
6
CONTINUOUS
10
0.8859320078740157
20
2.0281748031496063
11
0.8798356692913386
21
2.0241013779527557
0
LINE
8
BLACK
6
CONTINUOUS
10
0.8798356692913386
20
2.0241013779527557
11
0.8730617716535433
21
2.0212955511811024
0
LINE
8
BLACK
6
CONTINUOUS
10
0.8730617716535433
20
2.0212955511811024
11
0.8658706692913386
21
2.0198651574803148
0
LINE
8
BLACK
6
CONTINUOUS
10
0.8658706692913386
20
2.0198651574803148
11
0.8585387007874016
21
2.0198651574803148
0
LINE
8
BLACK
6
CONTINUOUS
10
0.8585387007874016
20
2.0198651574803148
11
0.8513475984251968
21
2.0212955511811024
0
LINE
8
BLACK
6
CONTINUOUS
10
0.8513475984251968
20
2.0212955511811024
11
0.8445737007874016
21
2.0241013779527557
0
LINE
8
BLACK
6
CONTINUOUS
10
0.8445737007874016
20
2.0241013779527557
11
0.8384773622047244
21
2.0281748031496063
0
LINE
8
BLACK
6
CONTINUOUS
10
0.8384773622047244
20
2.0281748031496063
11
0.833292874015748
21
2.0333592913385825
0
LINE
8
BLACK
6
CONTINUOUS
10
0.833292874015748
20
2.0333592913385825
11
0.8292194488188976
21
2.0394556299212598
0
LINE
8
BLACK
6
CONTINUOUS
10
0.8292194488188976
20
2.0394556299212598
11
0.8264136220472441
21
2.046229527559055
0
LINE
8
BLACK
6
CONTINUOUS
10
0.8264136220472441
20
2.046229527559055
11
0.8249832283464567
21
2.0534206299212596
0
LINE
8
BLACK
6
CONTINUOUS
10
0.8249832283464567
20
2.0534206299212596
11
0.8248031102362204
21
2.0570866141732282
0
LINE
8
BLACK
6
CONTINUOUS
10
0.8248031102362204
20
2.0570866141732282
11
0.8248031102362204
21
2.076771653543307
0
LINE
8
BLACK
6
CONTINUOUS
10
0.8248031102362204
20
2.076771653543307
11
0.8249832283464567
21
2.0804376377952756
0
LINE
8
BLACK
6
CONTINUOUS
10
0.7029359842519685
20
2.9662644094488186
11
0.7043663779527559
21
2.9734555118110237
0
LINE
8
BLACK
6
CONTINUOUS
10
0.7043663779527559
20
2.9734555118110237
11
0.7071722047244094
21
2.9802294094488189
0
LINE
8
BLACK
6
CONTINUOUS
10
0.7071722047244094
20
2.9802294094488189
11
0.7112456299212598
21
2.9863257480314962
0
LINE
8
BLACK
6
CONTINUOUS
10
0.7112456299212598
20
2.9863257480314962
11
0.7164301181102362
21
2.9915102362204724
0
LINE
8
BLACK
6
CONTINUOUS
10
0.7164301181102362
20
2.9915102362204724
11
0.7225264566929134
21
2.9955836614173226
0
LINE
8
BLACK
6
CONTINUOUS
10
0.7225264566929134
20
2.9955836614173226
11
0.7293003543307086
21
2.9983894881889763
0
LINE
8
BLACK
6
CONTINUOUS
10
0.7293003543307086
20
2.9983894881889763
11
0.7364914566929134
21
2.9998198818897639
0
LINE
8
BLACK
6
CONTINUOUS
10
0.7364914566929134
20
2.9998198818897639
11
0.7438234251968504
21
2.9998198818897639
0
LINE
8
BLACK
6
CONTINUOUS
10
0.7438234251968504
20
2.9998198818897639
11
0.7510145275590551
21
2.9983894881889763
0
LINE
8
BLACK
6
CONTINUOUS
10
0.7510145275590551
20
2.9983894881889763
11
0.7577884251968504
21
2.9955836614173226
0
LINE
8
BLACK
6
CONTINUOUS
10
0.7577884251968504
20
2.9955836614173226
11
0.7638847637795275
21
2.9915102362204724
0
LINE
8
BLACK
6
CONTINUOUS
10
0.7638847637795275
20
2.9915102362204724
11
0.769069251968504
21
2.9863257480314962
0
LINE
8
BLACK
6
CONTINUOUS
10
0.769069251968504
20
2.9863257480314962
11
0.7731426771653543
21
2.9802294094488189
0
LINE
8
BLACK
6
CONTINUOUS
10
0.7731426771653543
20
2.9802294094488189
11
0.7759485039370079
21
2.9734555118110237
0
LINE
8
BLACK
6
CONTINUOUS
10
0.7759485039370079
20
2.9734555118110237
11
0.7773788976377952
21
2.9662644094488186
0
LINE
8
BLACK
6
CONTINUOUS
10
0.7773788976377952
20
2.9662644094488186
11
0.7775590157480314
21
2.9625984251968505
0
LINE
8
BLACK
6
CONTINUOUS
10
0.7775590157480314
20
2.9625984251968505
11
0.7775590157480314
21
2.9429133858267718
0
LINE
8
BLACK
6
CONTINUOUS
10
0.7775590157480314
20
2.9429133858267718
11
0.7773788976377952
21
2.9392474015748031
0
LINE
8
BLACK
6
CONTINUOUS
10
0.7773788976377952
20
2.9392474015748031
11
0.7759485039370079
21
2.9320562992125985
0
LINE
8
BLACK
6
CONTINUOUS
10
0.7759485039370079
20
2.9320562992125985
11
0.7731426771653543
21
2.9252824015748029
0
LINE
8
BLACK
6
CONTINUOUS
10
0.7731426771653543
20
2.9252824015748029
11
0.769069251968504
21
2.919186062992126
0
LINE
8
BLACK
6
CONTINUOUS
10
0.769069251968504
20
2.919186062992126
11
0.7638847637795275
21
2.9140015748031494
0
LINE
8
BLACK
6
CONTINUOUS
10
0.7638847637795275
20
2.9140015748031494
11
0.7577884251968504
21
2.9099281496062992
0
LINE
8
BLACK
6
CONTINUOUS
10
0.7577884251968504
20
2.9099281496062992
11
0.7510145275590551
21
2.9071223228346454
0
LINE
8
BLACK
6
CONTINUOUS
10
0.7510145275590551
20
2.9071223228346454
11
0.7438234251968504
21
2.9056919291338583
0
LINE
8
BLACK
6
CONTINUOUS
10
0.7438234251968504
20
2.9056919291338583
11
0.7364914566929134
21
2.9056919291338583
0
LINE
8
BLACK
6
CONTINUOUS
10
0.7364914566929134
20
2.9056919291338583
11
0.7293003543307086
21
2.9071223228346454
0
LINE
8
BLACK
6
CONTINUOUS
10
0.7293003543307086
20
2.9071223228346454
11
0.7225264566929134
21
2.9099281496062992
0
LINE
8
BLACK
6
CONTINUOUS
10
0.7225264566929134
20
2.9099281496062992
11
0.7164301181102362
21
2.9140015748031494
0
LINE
8
BLACK
6
CONTINUOUS
10
0.7164301181102362
20
2.9140015748031494
11
0.7112456299212598
21
2.919186062992126
0
LINE
8
BLACK
6
CONTINUOUS
10
0.7112456299212598
20
2.919186062992126
11
0.7071722047244094
21
2.9252824015748029
0
LINE
8
BLACK
6
CONTINUOUS
10
0.7071722047244094
20
2.9252824015748029
11
0.7043663779527559
21
2.9320562992125985
0
LINE
8
BLACK
6
CONTINUOUS
10
0.7043663779527559
20
2.9320562992125985
11
0.7029359842519685
21
2.9392474015748031
0
LINE
8
BLACK
6
CONTINUOUS
10
0.7029359842519685
20
2.9392474015748031
11
0.7027558661417322
21
2.9429133858267718
0
LINE
8
BLACK
6
CONTINUOUS
10
0.7027558661417322
20
2.9429133858267718
11
0.7027558661417322
21
2.9625984251968505
0
LINE
8
BLACK
6
CONTINUOUS
10
0.7027558661417322
20
2.9625984251968505
11
0.7029359842519685
21
2.9662644094488186
0
CIRCLE
8
BLACK
10
2.3055118110236221
20
0.4
40
0.0068897637795276
0
CIRCLE
8
BLACK
10
2.3331867716535433
20
0.4668132283464567
40
0.0068897637795276
0
CIRCLE
8
BLACK
10
2.3331867716535433
20
0.3331867716535433
40
0.0068897637795276
0
CIRCLE
8
BLACK
10
2.3999999999999999
20
0.4944881889763779
40
0.0068897637795276
0
CIRCLE
8
BLACK
10
2.3999999999999999
20
0.4
40
0.0068897637795276
0
CIRCLE
8
BLACK
10
2.3999999999999999
20
0.305511811023622
40
0.0068897637795276
0
CIRCLE
8
BLACK
10
2.4668132283464566
20
0.4668132283464567
40
0.0068897637795276
0
CIRCLE
8
BLACK
10
2.4668132283464566
20
0.3331867716535433
40
0.0068897637795276
0
CIRCLE
8
BLACK
10
2.4944881889763777
20
0.4
40
0.0068897637795276
0
CIRCLE
8
BLACK
10
3.192913346456693
20
0.2897637795275591
40
0.0068897637795276
0
CIRCLE
8
BLACK
10
3.0929133464566929
20
0.2897637795275591
40
0.0068897637795276
0
CIRCLE
8
BLACK
10
3.1929133858267718
20
0.389763779527559
40
0.0068897637795276
0
CIRCLE
8
BLACK
10
3.0929133070866142
20
0.389763779527559
40
0.0068897637795276
0
CIRCLE
8
BLACK
10
3.192913346456693
20
0.4897637795275591
40
0.0068897637795276
0
CIRCLE
8
BLACK
10
3.0929133464566929
20
0.4897637795275591
40
0.0068897637795276
0
CIRCLE
8
BLACK
10
-0.5275590944881889
20
0.7070866141732284
40
0.0068897637795276
0
CIRCLE
8
BLACK
10
-0.6275590944881889
20
0.7070866141732284
40
0.0068897637795276
0
CIRCLE
8
BLACK
10
-0.5275590551181102
20
0.8070866141732284
40
0.0068897637795276
0
CIRCLE
8
BLACK
10
-0.6275591338582677
20
0.8070866141732284
40
0.0068897637795276
0
CIRCLE
8
BLACK
10
-0.5275590944881889
20
0.9070866141732283
40
0.0068897637795276
0
CIRCLE
8
BLACK
10
-0.6275590944881889
20
0.9070866141732283
40
0.0068897637795276
0
CIRCLE
8
BLACK
10
0.305511811023622
20
0.4
40
0.0068897637795276
0
CIRCLE
8
BLACK
10
0.3331867716535433
20
0.4668132283464567
40
0.0068897637795276
0
CIRCLE
8
BLACK
10
0.3331867716535433
20
0.3331867716535433
40
0.0068897637795276
0
CIRCLE
8
BLACK
10
0.4
20
0.4944881889763779
40
0.0068897637795276
0
CIRCLE
8
BLACK
10
0.4
20
0.4
40
0.0068897637795276
0
CIRCLE
8
BLACK
10
0.4
20
0.305511811023622
40
0.0068897637795276
0
CIRCLE
8
BLACK
10
0.4668132283464567
20
0.4668132283464567
40
0.0068897637795276
0
CIRCLE
8
BLACK
10
0.4668132283464567
20
0.3331867716535433
40
0.0068897637795276
0
CIRCLE
8
BLACK
10
0.4944881889763779
20
0.4
40
0.0068897637795276
0
CIRCLE
8
BLACK
10
0.305511811023622
20
2.
40
0.0068897637795276
0
CIRCLE
8
BLACK
10
0.3331867716535433
20
2.0668132283464566
40
0.0068897637795276
0
CIRCLE
8
BLACK
10
0.3331867716535433
20
1.9331867716535434
40
0.0068897637795276
0
CIRCLE
8
BLACK
10
0.4
20
2.0944881889763778
40
0.0068897637795276
0
CIRCLE
8
BLACK
10
0.4
20
2.
40
0.0068897637795276
0
CIRCLE
8
BLACK
10
0.4
20
1.905511811023622
40
0.0068897637795276
0
CIRCLE
8
BLACK
10
0.4668132283464567
20
2.0668132283464566
40
0.0068897637795276
0
CIRCLE
8
BLACK
10
0.4668132283464567
20
1.9331867716535434
40
0.0068897637795276
0
CIRCLE
8
BLACK
10
0.4944881889763779
20
2.
40
0.0068897637795276
0
CIRCLE
8
BLACK
10
4.0885826771653546
20
1.3421259842519684
40
0.0068897637795276
0
CIRCLE
8
BLACK
10
4.1885826771653543
20
1.3421259842519684
40
0.0068897637795276
0
CIRCLE
8
BLACK
10
4.0885826771653546
20
1.2421259842519685
40
0.0068897637795276
0
CIRCLE
8
BLACK
10
4.1885826771653543
20
1.2421259842519685
40
0.0068897637795276
0
CIRCLE
8
BLACK
10
4.0885826771653546
20
1.1421259842519684
40
0.0068897637795276
0
CIRCLE
8
BLACK
10
4.1885826771653543
20
1.1421259842519684
40
0.0068897637795276
0
CIRCLE
8
BLACK
10
0.6283464566929133
20
0.3645669291338582
40
0.0068897637795276
0
CIRCLE
8
BLACK
10
0.6283464566929133
20
0.4645669291338583
40
0.0068897637795276
0
CIRCLE
8
BLACK
10
0.7283464566929134
20
0.3645669291338582
40
0.0068897637795276
0
CIRCLE
8
BLACK
10
0.7283464566929134
20
0.4645669291338583
40
0.0068897637795276
0
CIRCLE
8
BLACK
10
0.8283464566929134
20
0.3645669291338582
40
0.0068897637795276
0
CIRCLE
8
BLACK
10
0.8283464566929134
20
0.4645669291338583
40
0.0068897637795276
0
CIRCLE
8
BLACK
10
0.9283464566929134
20
0.3645668897637795
40
0.0068897637795276
0
CIRCLE
8
BLACK
10
0.9283464566929134
20
0.464566968503937
40
0.0068897637795276
0
CIRCLE
8
BLACK
10
1.0283464566929135
20
0.3645669291338582
40
0.0068897637795276
0
CIRCLE
8
BLACK
10
1.0283464566929135
20
0.4645669291338583
40
0.0068897637795276
0
CIRCLE
8
BLACK
10
1.1283464566929133
20
0.3645669291338582
40
0.0068897637795276
0
CIRCLE
8
BLACK
10
1.1283464566929133
20
0.4645669291338583
40
0.0068897637795276
0
CIRCLE
8
BLACK
10
1.2283464566929134
20
0.3645669291338582
40
0.0068897637795276
0
CIRCLE
8
BLACK
10
1.2283464566929134
20
0.4645669291338583
40
0.0068897637795276
0
CIRCLE
8
BLACK
10
1.3283464566929133
20
0.3645669291338582
40
0.0068897637795276
0
CIRCLE
8
BLACK
10
1.3283464566929133
20
0.4645669291338583
40
0.0068897637795276
0
CIRCLE
8
BLACK
10
1.4283464566929134
20
0.3645668897637795
40
0.0068897637795276
0
CIRCLE
8
BLACK
10
1.4283464566929134
20
0.464566968503937
40
0.0068897637795276
0
CIRCLE
8
BLACK
10
1.5283464566929132
20
0.3645669291338582
40
0.0068897637795276
0
CIRCLE
8
BLACK
10
1.5283464566929132
20
0.4645669291338583
40
0.0068897637795276
0
CIRCLE
8
BLACK
10
1.6283464566929133
20
0.3645669291338582
40
0.0068897637795276
0
CIRCLE
8
BLACK
10
1.6283464566929133
20
0.4645669291338583
40
0.0068897637795276
0
CIRCLE
8
BLACK
10
1.7283464566929134
20
0.3645669291338582
40
0.0068897637795276
0
CIRCLE
8
BLACK
10
1.7283464566929134
20
0.4645669291338583
40
0.0068897637795276
0
CIRCLE
8
BLACK
10
0.4188976377952756
20
0.6535433070866141
40
0.0068897637795276
0
CIRCLE
8
BLACK
10
0.3188976377952756
20
0.6535433070866141
40
0.0068897637795276
0
CIRCLE
8
BLACK
10
0.4188976377952756
20
0.7535433070866142
40
0.0068897637795276
0
CIRCLE
8
BLACK
10
0.3188976377952756
20
0.7535433070866142
40
0.0068897637795276
0
CIRCLE
8
BLACK
10
0.4188976377952756
20
0.8535433070866142
40
0.0068897637795276
0
CIRCLE
8
BLACK
10
0.3188976377952756
20
0.8535433070866142
40
0.0068897637795276
0
CIRCLE
8
BLACK
10
0.4188976771653543
20
0.9535433070866142
40
0.0068897637795276
0
CIRCLE
8
BLACK
10
0.3188975984251968
20
0.9535433070866142
40
0.0068897637795276
0
CIRCLE
8
BLACK
10
0.4188976377952756
20
1.0535433070866143
40
0.0068897637795276
0
CIRCLE
8
BLACK
10
0.3188976377952756
20
1.0535433070866143
40
0.0068897637795276
0
CIRCLE
8
BLACK
10
0.4188976377952756
20
1.1535433070866141
40
0.0068897637795276
0
CIRCLE
8
BLACK
10
0.3188976377952756
20
1.1535433070866141
40
0.0068897637795276
0
CIRCLE
8
BLACK
10
0.4188976377952756
20
1.2535433070866142
40
0.0068897637795276
0
CIRCLE
8
BLACK
10
0.3188976377952756
20
1.2535433070866142
40
0.0068897637795276
0
CIRCLE
8
BLACK
10
0.4188976377952756
20
1.3535433070866141
40
0.0068897637795276
0
CIRCLE
8
BLACK
10
0.3188976377952756
20
1.3535433070866141
40
0.0068897637795276
0
CIRCLE
8
BLACK
10
0.4188976771653543
20
1.4535433070866142
40
0.0068897637795276
0
CIRCLE
8
BLACK
10
0.3188975984251968
20
1.4535433070866142
40
0.0068897637795276
0
CIRCLE
8
BLACK
10
0.4188976377952756
20
1.553543307086614
40
0.0068897637795276
0
CIRCLE
8
BLACK
10
0.3188976377952756
20
1.553543307086614
40
0.0068897637795276
0
CIRCLE
8
BLACK
10
0.4188976377952756
20
1.6535433070866141
40
0.0068897637795276
0
CIRCLE
8
BLACK
10
0.3188976377952756
20
1.6535433070866141
40
0.0068897637795276
0
CIRCLE
8
BLACK
10
0.4188976377952756
20
1.7535433070866142
40
0.0068897637795276
0
CIRCLE
8
BLACK
10
0.3188976377952756
20
1.7535433070866142
40
0.0068897637795276
0
CIRCLE
8
BLACK
10
2.3622047244094486
20
1.7488188976377952
40
0.0068897637795276
0
CIRCLE
8
BLACK
10
2.4622047244094487
20
1.7488188976377952
40
0.0068897637795276
0
CIRCLE
8
BLACK
10
2.3622047244094486
20
1.6488188976377953
40
0.0068897637795276
0
CIRCLE
8
BLACK
10
2.4622047244094487
20
1.6488188976377953
40
0.0068897637795276
0
CIRCLE
8
BLACK
10
2.3622047244094486
20
1.5488188976377952
40
0.0068897637795276
0
CIRCLE
8
BLACK
10
2.4622047244094487
20
1.5488188976377952
40
0.0068897637795276
0
CIRCLE
8
BLACK
10
2.3622047244094486
20
1.4488188976377951
40
0.0068897637795276
0
CIRCLE
8
BLACK
10
2.4622047244094487
20
1.4488188976377951
40
0.0068897637795276
0
CIRCLE
8
BLACK
10
2.3622047244094486
20
1.3488188976377953
40
0.0068897637795276
0
CIRCLE
8
BLACK
10
2.4622047244094487
20
1.3488188976377953
40
0.0068897637795276
0
CIRCLE
8
BLACK
10
2.3622047244094486
20
1.2488188976377952
40
0.0068897637795276
0
CIRCLE
8
BLACK
10
2.4622047244094487
20
1.2488188976377952
40
0.0068897637795276
0
CIRCLE
8
BLACK
10
2.3622047244094486
20
1.1488188976377953
40
0.0068897637795276
0
CIRCLE
8
BLACK
10
2.4622047244094487
20
1.1488188976377953
40
0.0068897637795276
0
CIRCLE
8
BLACK
10
2.3622047244094486
20
1.0488188976377952
40
0.0068897637795276
0
CIRCLE
8
BLACK
10
2.4622047244094487
20
1.0488188976377952
40
0.0068897637795276
0
CIRCLE
8
BLACK
10
2.3622047244094486
20
0.9488188976377953
40
0.0068897637795276
0
CIRCLE
8
BLACK
10
2.4622047244094487
20
0.9488188976377953
40
0.0068897637795276
0
CIRCLE
8
BLACK
10
2.3622047244094486
20
0.8488188976377953
40
0.0068897637795276
0
CIRCLE
8
BLACK
10
2.4622047244094487
20
0.8488188976377953
40
0.0068897637795276
0
CIRCLE
8
BLACK
10
2.3622047244094486
20
0.7488188976377953
40
0.0068897637795276
0
CIRCLE
8
BLACK
10
2.4622047244094487
20
0.7488188976377953
40
0.0068897637795276
0
CIRCLE
8
BLACK
10
2.3622047244094486
20
0.6488188976377952
40
0.0068897637795276
0
CIRCLE
8
BLACK
10
2.4622047244094487
20
0.6488188976377952
40
0.0068897637795276
0
CIRCLE
8
BLACK
10
2.1535432677165356
20
0.8944881889763779
40
0.0068897637795276
0
CIRCLE
8
BLACK
10
2.0535432677165355
20
0.8944881889763779
40
0.0068897637795276
0
CIRCLE
8
BLACK
10
2.1535432677165356
20
0.9944881889763779
40
0.0068897637795276
0
CIRCLE
8
BLACK
10
2.0535432677165355
20
0.9944881889763779
40
0.0068897637795276
0
CIRCLE
8
BLACK
10
2.1535433070866143
20
1.094488188976378
40
0.0068897637795276
0
CIRCLE
8
BLACK
10
2.0535432283464568
20
1.094488188976378
40
0.0068897637795276
0
CIRCLE
8
BLACK
10
2.1535432677165356
20
1.1944881889763779
40
0.0068897637795276
0
CIRCLE
8
BLACK
10
2.0535432677165355
20
1.1944881889763779
40
0.0068897637795276
0
CIRCLE
8
BLACK
10
2.1535432677165356
20
1.294488188976378
40
0.0068897637795276
0
CIRCLE
8
BLACK
10
2.0535432677165355
20
1.294488188976378
40
0.0068897637795276
0
CIRCLE
8
BLACK
10
2.3055118110236221
20
2.
40
0.0068897637795276
0
CIRCLE
8
BLACK
10
2.3331867716535433
20
2.0668132283464566
40
0.0068897637795276
0
CIRCLE
8
BLACK
10
2.3331867716535433
20
1.9331867716535434
40
0.0068897637795276
0
CIRCLE
8
BLACK
10
2.3999999999999999
20
2.0944881889763778
40
0.0068897637795276
0
CIRCLE
8
BLACK
10
2.3999999999999999
20
2.
40
0.0068897637795276
0
CIRCLE
8
BLACK
10
2.3999999999999999
20
1.905511811023622
40
0.0068897637795276
0
CIRCLE
8
BLACK
10
2.4668132283464566
20
2.0668132283464566
40
0.0068897637795276
0
CIRCLE
8
BLACK
10
2.4668132283464566
20
1.9331867716535434
40
0.0068897637795276
0
CIRCLE
8
BLACK
10
2.4944881889763777
20
2.
40
0.0068897637795276
0
CIRCLE
8
BLACK
10
2.1456692913385824
20
0.4724409448818898
40
0.0068897637795276
0
CIRCLE
8
BLACK
10
1.918110157480315
20
0.4724409448818898
40
0.0068897637795276
0
LINE
8
BLACK
6
CONTINUOUS
10
2.2137794881889765
20
0.3118110236220472
11
2.2137794881889765
21
0.3433070866141732
0
ARC
8
BLACK
10
2.2019684645669293
20
0.3433070866141732
40
0.0118110236220472
50
0.00000000
51
180.00000000
0
LINE
8
BLACK
6
CONTINUOUS
10
2.1901574409448816
20
0.3433070866141732
11
2.1901574409448816
21
0.3118110236220472
0
ARC
8
BLACK
10
2.2019684645669293
20
0.3118110236220472
40
0.0118110236220472
50
180.00000000
51
360.00000000
0
LINE
8
BLACK
6
CONTINUOUS
10
1.8736220078740158
20
0.3118110236220472
11
1.8736220078740158
21
0.3433070866141732
0
ARC
8
BLACK
10
1.8618109842519686
20
0.3433070866141732
40
0.0118110236220472
50
0.00000000
51
180.00000000
0
LINE
8
BLACK
6
CONTINUOUS
10
1.8499999606299211
20
0.3433070866141732
11
1.8499999606299211
21
0.3118110236220472
0
ARC
8
BLACK
10
1.8618109842519686
20
0.3118110236220472
40
0.0118110236220472
50
180.00000000
51
360.00000000
0
LINE
8
BLACK
6
CONTINUOUS
10
2.2137794881889765
20
0.4704724409448819
11
2.2137794881889765
21
0.5137795275590551
0
ARC
8
BLACK
10
2.2019684645669293
20
0.5137795275590551
40
0.0118110236220472
50
0.00000000
51
180.00000000
0
LINE
8
BLACK
6
CONTINUOUS
10
2.1901574409448816
20
0.5137795275590551
11
2.1901574409448816
21
0.4704724409448819
0
ARC
8
BLACK
10
2.2019684645669293
20
0.4704724409448819
40
0.0118110236220472
50
180.00000000
51
360.00000000
0
LINE
8
BLACK
6
CONTINUOUS
10
1.8736220078740158
20
0.4704724409448819
11
1.8736220078740158
21
0.5137795275590551
0
ARC
8
BLACK
10
1.8618109842519686
20
0.5137795275590551
40
0.0118110236220472
50
0.00000000
51
180.00000000
0
LINE
8
BLACK
6
CONTINUOUS
10
1.8499999606299211
20
0.5137795275590551
11
1.8499999606299211
21
0.4704724409448819
0
ARC
8
BLACK
10
1.8618109842519686
20
0.4704724409448819
40
0.0118110236220472
50
180.00000000
51
360.00000000
0
LINE
8
BLACK
6
CONTINUOUS
10
0.8996062204724409
20
2.0570866141732282
11
0.8996062204724409
21
2.076771653543307
0
ARC
8
BLACK
10
0.8622046850393701
20
2.076771653543307
40
0.0374015354330709
50
0.00000000
51
180.00000000
0
LINE
8
BLACK
6
CONTINUOUS
10
0.8248031496062992
20
2.076771653543307
11
0.8248031496062992
21
2.0570866141732282
0
ARC
8
BLACK
10
0.8622046850393701
20
2.0570866141732282
40
0.0374015354330709
50
180.00000000
51
360.00000000
0
LINE
8
BLACK
6
CONTINUOUS
10
0.7775589763779528
20
2.9429133858267718
11
0.7775589763779528
21
2.9625984251968505
0
ARC
8
BLACK
10
0.7401574409448819
20
2.9625984251968505
40
0.0374015354330709
50
0.00000000
51
180.00000000
0
LINE
8
BLACK
6
CONTINUOUS
10
0.702755905511811
20
2.9625984251968505
11
0.702755905511811
21
2.9429133858267718
0
ARC
8
BLACK
10
0.7401574409448819
20
2.9429133858267718
40
0.0374015354330709
50
180.00000000
51
360.00000000
  0
ENDSEC
  0
EOF
