  0
SECTION
  2
HEADER
  9
$ANGBASE
  50
0.0
  9
$ANGDIR
  70
1
  9
$MEASUREMENT
  70
0
  0
ENDSEC
  0
SECTION
  2
TABLES
  0
TABLE
  2
LTYPE
  70
4
  0
LTYPE
  5
40F
  2
CONTINUOUS
  70
0
  3
Solid line
  72
65
  73
0
  40
0.0
  0
LTYPE
  5
410
  2
DASHDOT
 70
0
  3
Dash Dot ____ _ ____ _
 72
65
 73
4
 40
2.0
 49
1.25
 49
-0.25
 49
0.25
 49
-0.25
  0
LTYPE
  5
411
  2
DASHED
 70
0
  3
Dashed __ __ __ __ __
 72
65
 73
2
 40
0.75
 49
0.5
 49
-0.25
  0
LTYPE
  5
43B
  2
DOTTED
 70
0
  3
Dotted .  .  .  .
 72
65
 73
2
 40
0.2
 49
0.0
 49
-0.2
  0
ENDTAB
  0
TABLE
  2
STYLE
  70
4
  0
STYLE
  2
KICAD
  70
0
  40
0
  41
1
  42
1
  50
0
  71
0
  3
isocp.shx
  0
STYLE
  2
KICADB
  70
0
  40
0
  41
1
  42
1
  50
0
  71
0
  3
isocp.shx
  0
STYLE
  2
KICADI
  70
0
  40
0
  41
1
  42
1
  50
15
  71
0
  3
isocp.shx
  0
STYLE
  2
KICADBI
  70
0
  40
0
  41
1
  42
1
  50
15
  71
0
  3
isocp.shx
  0
ENDTAB
  0
TABLE
  2
LAYER
  70
1
  0
LAYER
  2
BLACK
  70
0
  62
7
  6
CONTINUOUS
  0
ENDTAB
  0
ENDSEC
  0
SECTION
  2
ENTITIES
0
LINE
8
BLACK
6
CONTINUOUS
10
0.4200743307086614
20
0.5353302362204724
11
0.4332423622047244
21
0.5327109842519685
0
LINE
8
BLACK
6
CONTINUOUS
10
0.4332423622047244
20
0.5327109842519685
11
0.4460902362204724
21
0.5288136220472441
0
LINE
8
BLACK
6
CONTINUOUS
10
0.4460902362204724
20
0.5288136220472441
11
0.4584942519685039
21
0.5236757086614173
0
LINE
8
BLACK
6
CONTINUOUS
10
0.4584942519685039
20
0.5236757086614173
11
0.4703349212598425
21
0.5173467322834645
0
LINE
8
BLACK
6
CONTINUOUS
10
0.4703349212598425
20
0.5173467322834645
11
0.4814982283464567
21
0.5098876377952756
0
LINE
8
BLACK
6
CONTINUOUS
10
0.4814982283464567
20
0.5098876377952756
11
0.4918766535433071
21
0.5013702755905511
0
LINE
8
BLACK
6
CONTINUOUS
10
0.4918766535433071
20
0.5013702755905511
11
0.5013702755905511
21
0.4918766535433071
0
LINE
8
BLACK
6
CONTINUOUS
10
0.5013702755905511
20
0.4918766535433071
11
0.5098876377952756
21
0.4814982283464567
0
LINE
8
BLACK
6
CONTINUOUS
10
0.5098876377952756
20
0.4814982283464567
11
0.5173467322834645
21
0.4703349212598425
0
LINE
8
BLACK
6
CONTINUOUS
10
0.5173467322834645
20
0.4703349212598425
11
0.5236757086614173
21
0.4584942519685039
0
LINE
8
BLACK
6
CONTINUOUS
10
0.5236757086614173
20
0.4584942519685039
11
0.5288136220472441
21
0.4460902362204724
0
LINE
8
BLACK
6
CONTINUOUS
10
0.5288136220472441
20
0.4460902362204724
11
0.5327109842519685
21
0.4332423622047244
0
LINE
8
BLACK
6
CONTINUOUS
10
0.5327109842519685
20
0.4332423622047244
11
0.5353302362204724
21
0.4200743307086614
0
LINE
8
BLACK
6
CONTINUOUS
10
0.5353302362204724
20
0.4200743307086614
11
0.5366462204724409
21
0.4067129921259842
0
LINE
8
BLACK
6
CONTINUOUS
10
0.5366462204724409
20
0.4067129921259842
11
0.5366462204724409
21
0.3932870078740157
0
LINE
8
BLACK
6
CONTINUOUS
10
0.5366462204724409
20
0.3932870078740157
11
0.5353302362204724
21
0.3799256692913386
0
LINE
8
BLACK
6
CONTINUOUS
10
0.5353302362204724
20
0.3799256692913386
11
0.5327109842519685
21
0.3667576377952756
0
LINE
8
BLACK
6
CONTINUOUS
10
0.5327109842519685
20
0.3667576377952756
11
0.5288136220472441
21
0.3539097637795275
0
LINE
8
BLACK
6
CONTINUOUS
10
0.5288136220472441
20
0.3539097637795275
11
0.5236757086614173
21
0.3415057480314961
0
LINE
8
BLACK
6
CONTINUOUS
10
0.5236757086614173
20
0.3415057480314961
11
0.5173467322834645
21
0.3296650787401575
0
LINE
8
BLACK
6
CONTINUOUS
10
0.5173467322834645
20
0.3296650787401575
11
0.5098876377952756
21
0.3185017716535433
0
LINE
8
BLACK
6
CONTINUOUS
10
0.5098876377952756
20
0.3185017716535433
11
0.5013702755905511
21
0.3081233464566929
0
LINE
8
BLACK
6
CONTINUOUS
10
0.5013702755905511
20
0.3081233464566929
11
0.4918766535433071
21
0.2986297244094488
0
LINE
8
BLACK
6
CONTINUOUS
10
0.4918766535433071
20
0.2986297244094488
11
0.4814982283464567
21
0.2901123622047244
0
LINE
8
BLACK
6
CONTINUOUS
10
0.4814982283464567
20
0.2901123622047244
11
0.4703349212598425
21
0.2826532677165354
0
LINE
8
BLACK
6
CONTINUOUS
10
0.4703349212598425
20
0.2826532677165354
11
0.4584942519685039
21
0.2763242913385827
0
LINE
8
BLACK
6
CONTINUOUS
10
0.4584942519685039
20
0.2763242913385827
11
0.4460902362204724
21
0.2711863779527559
0
LINE
8
BLACK
6
CONTINUOUS
10
0.4460902362204724
20
0.2711863779527559
11
0.4332423622047244
21
0.2672890157480315
0
LINE
8
BLACK
6
CONTINUOUS
10
0.4332423622047244
20
0.2672890157480315
11
0.4200743307086614
21
0.2646697637795276
0
LINE
8
BLACK
6
CONTINUOUS
10
0.4200743307086614
20
0.2646697637795276
11
0.4067129921259842
21
0.2633537795275591
0
LINE
8
BLACK
6
CONTINUOUS
10
0.4067129921259842
20
0.2633537795275591
11
0.3932870078740157
21
0.2633537795275591
0
LINE
8
BLACK
6
CONTINUOUS
10
0.3932870078740157
20
0.2633537795275591
11
0.3799256692913386
21
0.2646697637795276
0
LINE
8
BLACK
6
CONTINUOUS
10
0.3799256692913386
20
0.2646697637795276
11
0.3667576377952756
21
0.2672890157480315
0
LINE
8
BLACK
6
CONTINUOUS
10
0.3667576377952756
20
0.2672890157480315
11
0.3539097637795275
21
0.2711863779527559
0
LINE
8
BLACK
6
CONTINUOUS
10
0.3539097637795275
20
0.2711863779527559
11
0.3415057480314961
21
0.2763242913385827
0
LINE
8
BLACK
6
CONTINUOUS
10
0.3415057480314961
20
0.2763242913385827
11
0.3296650787401575
21
0.2826532677165354
0
LINE
8
BLACK
6
CONTINUOUS
10
0.3296650787401575
20
0.2826532677165354
11
0.3185017716535433
21
0.2901123622047244
0
LINE
8
BLACK
6
CONTINUOUS
10
0.3185017716535433
20
0.2901123622047244
11
0.3081233464566929
21
0.2986297244094488
0
LINE
8
BLACK
6
CONTINUOUS
10
0.3081233464566929
20
0.2986297244094488
11
0.2986297244094488
21
0.3081233464566929
0
LINE
8
BLACK
6
CONTINUOUS
10
0.2986297244094488
20
0.3081233464566929
11
0.2901123622047244
21
0.3185017716535433
0
LINE
8
BLACK
6
CONTINUOUS
10
0.2901123622047244
20
0.3185017716535433
11
0.2826532677165354
21
0.3296650787401575
0
LINE
8
BLACK
6
CONTINUOUS
10
0.2826532677165354
20
0.3296650787401575
11
0.2763242913385827
21
0.3415057480314961
0
LINE
8
BLACK
6
CONTINUOUS
10
0.2763242913385827
20
0.3415057480314961
11
0.2711863779527559
21
0.3539097637795275
0
LINE
8
BLACK
6
CONTINUOUS
10
0.2711863779527559
20
0.3539097637795275
11
0.2672890157480315
21
0.3667576377952756
0
LINE
8
BLACK
6
CONTINUOUS
10
0.2672890157480315
20
0.3667576377952756
11
0.2646697637795276
21
0.3799256692913386
0
LINE
8
BLACK
6
CONTINUOUS
10
0.2646697637795276
20
0.3799256692913386
11
0.2633537795275591
21
0.3932870078740157
0
LINE
8
BLACK
6
CONTINUOUS
10
0.2633537795275591
20
0.3932870078740157
11
0.2633537795275591
21
0.4066243700787401
0
LINE
8
BLACK
6
CONTINUOUS
10
0.2633537795275591
20
0.4066243700787401
11
0.2633537795275591
21
0.4067129921259842
0
LINE
8
BLACK
6
CONTINUOUS
10
0.2633537795275591
20
0.4067129921259842
11
0.2646697637795276
21
0.4200743307086614
0
LINE
8
BLACK
6
CONTINUOUS
10
0.2646697637795276
20
0.4200743307086614
11
0.2672890157480315
21
0.4332423622047244
0
LINE
8
BLACK
6
CONTINUOUS
10
0.2672890157480315
20
0.4332423622047244
11
0.2711863779527559
21
0.4460902362204724
0
LINE
8
BLACK
6
CONTINUOUS
10
0.2711863779527559
20
0.4460902362204724
11
0.2763242913385827
21
0.4584942519685039
0
LINE
8
BLACK
6
CONTINUOUS
10
0.2763242913385827
20
0.4584942519685039
11
0.2826532677165354
21
0.4703349212598425
0
LINE
8
BLACK
6
CONTINUOUS
10
0.2826532677165354
20
0.4703349212598425
11
0.2901123622047244
21
0.4814982283464567
0
LINE
8
BLACK
6
CONTINUOUS
10
0.2901123622047244
20
0.4814982283464567
11
0.2986297244094488
21
0.4918766535433071
0
LINE
8
BLACK
6
CONTINUOUS
10
0.2986297244094488
20
0.4918766535433071
11
0.3081233464566929
21
0.5013702755905511
0
LINE
8
BLACK
6
CONTINUOUS
10
0.3081233464566929
20
0.5013702755905511
11
0.3185017716535433
21
0.5098876377952756
0
LINE
8
BLACK
6
CONTINUOUS
10
0.3185017716535433
20
0.5098876377952756
11
0.3296650787401575
21
0.5173467322834645
0
LINE
8
BLACK
6
CONTINUOUS
10
0.3296650787401575
20
0.5173467322834645
11
0.3415057480314961
21
0.5236757086614173
0
LINE
8
BLACK
6
CONTINUOUS
10
0.3415057480314961
20
0.5236757086614173
11
0.3539097637795275
21
0.5288136220472441
0
LINE
8
BLACK
6
CONTINUOUS
10
0.3539097637795275
20
0.5288136220472441
11
0.3667576377952756
21
0.5327109842519685
0
LINE
8
BLACK
6
CONTINUOUS
10
0.3667576377952756
20
0.5327109842519685
11
0.3799256692913386
21
0.5353302362204724
0
LINE
8
BLACK
6
CONTINUOUS
10
0.3799256692913386
20
0.5353302362204724
11
0.3932870078740157
21
0.5366462204724409
0
LINE
8
BLACK
6
CONTINUOUS
10
0.3932870078740157
20
0.5366462204724409
11
0.4067129921259842
21
0.5366462204724409
0
LINE
8
BLACK
6
CONTINUOUS
10
0.4067129921259842
20
0.5366462204724409
11
0.4200743307086614
21
0.5353302362204724
0
LINE
8
BLACK
6
CONTINUOUS
10
0.2651574803149606
20
0.3933756299212599
11
0.266456062992126
21
0.3801906299212598
0
LINE
8
BLACK
6
CONTINUOUS
10
0.266456062992126
20
0.3801906299212598
11
0.2690407874015748
21
0.3671964173228346
0
LINE
8
BLACK
6
CONTINUOUS
10
0.2690407874015748
20
0.3671964173228346
11
0.2728866929133858
21
0.3545181496062992
0
LINE
8
BLACK
6
CONTINUOUS
10
0.2728866929133858
20
0.3545181496062992
11
0.2779567716535433
21
0.342277874015748
0
LINE
8
BLACK
6
CONTINUOUS
10
0.2779567716535433
20
0.342277874015748
11
0.2842022047244094
21
0.3305934645669291
0
LINE
8
BLACK
6
CONTINUOUS
10
0.2842022047244094
20
0.3305934645669291
11
0.2915628346456693
21
0.3195775196850393
0
LINE
8
BLACK
6
CONTINUOUS
10
0.2915628346456693
20
0.3195775196850393
11
0.2999677952755905
21
0.309336062992126
0
LINE
8
BLACK
6
CONTINUOUS
10
0.2999677952755905
20
0.309336062992126
11
0.309336062992126
21
0.2999677952755905
0
LINE
8
BLACK
6
CONTINUOUS
10
0.309336062992126
20
0.2999677952755905
11
0.3195775196850393
21
0.2915628346456693
0
LINE
8
BLACK
6
CONTINUOUS
10
0.3195775196850393
20
0.2915628346456693
11
0.3305934645669291
21
0.2842022047244094
0
LINE
8
BLACK
6
CONTINUOUS
10
0.3305934645669291
20
0.2842022047244094
11
0.342277874015748
21
0.2779567716535433
0
LINE
8
BLACK
6
CONTINUOUS
10
0.342277874015748
20
0.2779567716535433
11
0.3545181496062992
21
0.2728866929133858
0
LINE
8
BLACK
6
CONTINUOUS
10
0.3545181496062992
20
0.2728866929133858
11
0.3671964173228346
21
0.2690407874015748
0
LINE
8
BLACK
6
CONTINUOUS
10
0.3671964173228346
20
0.2690407874015748
11
0.3801906299212598
21
0.266456062992126
0
LINE
8
BLACK
6
CONTINUOUS
10
0.3801906299212598
20
0.266456062992126
11
0.3933756299212599
21
0.2651574803149606
0
LINE
8
BLACK
6
CONTINUOUS
10
0.3933756299212599
20
0.2651574803149606
11
0.4066243700787401
21
0.2651574803149606
0
LINE
8
BLACK
6
CONTINUOUS
10
0.4066243700787401
20
0.2651574803149606
11
0.4198093700787401
21
0.266456062992126
0
LINE
8
BLACK
6
CONTINUOUS
10
0.4198093700787401
20
0.266456062992126
11
0.4328035826771653
21
0.2690407874015748
0
LINE
8
BLACK
6
CONTINUOUS
10
0.4328035826771653
20
0.2690407874015748
11
0.4454818503937008
21
0.2728866929133858
0
LINE
8
BLACK
6
CONTINUOUS
10
0.4454818503937008
20
0.2728866929133858
11
0.4577221259842519
21
0.2779567716535433
0
LINE
8
BLACK
6
CONTINUOUS
10
0.4577221259842519
20
0.2779567716535433
11
0.4694065354330709
21
0.2842022047244094
0
LINE
8
BLACK
6
CONTINUOUS
10
0.4694065354330709
20
0.2842022047244094
11
0.4804224803149606
21
0.2915628346456693
0
LINE
8
BLACK
6
CONTINUOUS
10
0.4804224803149606
20
0.2915628346456693
11
0.490663937007874
21
0.2999677952755905
0
LINE
8
BLACK
6
CONTINUOUS
10
0.490663937007874
20
0.2999677952755905
11
0.5000322047244095
21
0.309336062992126
0
LINE
8
BLACK
6
CONTINUOUS
10
0.5000322047244095
20
0.309336062992126
11
0.5084371653543307
21
0.3195775196850393
0
LINE
8
BLACK
6
CONTINUOUS
10
0.5084371653543307
20
0.3195775196850393
11
0.5157977952755906
21
0.3305934645669291
0
LINE
8
BLACK
6
CONTINUOUS
10
0.5157977952755906
20
0.3305934645669291
11
0.5220432283464567
21
0.342277874015748
0
LINE
8
BLACK
6
CONTINUOUS
10
0.5220432283464567
20
0.342277874015748
11
0.5271133070866142
21
0.3545181496062992
0
LINE
8
BLACK
6
CONTINUOUS
10
0.5271133070866142
20
0.3545181496062992
11
0.5309592125984252
21
0.3671964173228346
0
LINE
8
BLACK
6
CONTINUOUS
10
0.5309592125984252
20
0.3671964173228346
11
0.5335439370078741
21
0.3801906299212598
0
LINE
8
BLACK
6
CONTINUOUS
10
0.5335439370078741
20
0.3801906299212598
11
0.5348425196850394
21
0.3933756299212599
0
LINE
8
BLACK
6
CONTINUOUS
10
0.5348425196850394
20
0.3933756299212599
11
0.5348425196850394
21
0.4066243700787401
0
LINE
8
BLACK
6
CONTINUOUS
10
0.5348425196850394
20
0.4066243700787401
11
0.5335439370078741
21
0.4198093700787401
0
LINE
8
BLACK
6
CONTINUOUS
10
0.5335439370078741
20
0.4198093700787401
11
0.5309592125984252
21
0.4328035826771653
0
LINE
8
BLACK
6
CONTINUOUS
10
0.5309592125984252
20
0.4328035826771653
11
0.5271133070866142
21
0.4454818503937008
0
LINE
8
BLACK
6
CONTINUOUS
10
0.5271133070866142
20
0.4454818503937008
11
0.5220432283464567
21
0.4577221259842519
0
LINE
8
BLACK
6
CONTINUOUS
10
0.5220432283464567
20
0.4577221259842519
11
0.5157977952755906
21
0.4694065354330709
0
LINE
8
BLACK
6
CONTINUOUS
10
0.5157977952755906
20
0.4694065354330709
11
0.5084371653543307
21
0.4804224803149606
0
LINE
8
BLACK
6
CONTINUOUS
10
0.5084371653543307
20
0.4804224803149606
11
0.5000322047244095
21
0.490663937007874
0
LINE
8
BLACK
6
CONTINUOUS
10
0.5000322047244095
20
0.490663937007874
11
0.490663937007874
21
0.5000322047244095
0
LINE
8
BLACK
6
CONTINUOUS
10
0.490663937007874
20
0.5000322047244095
11
0.4804224803149606
21
0.5084371653543307
0
LINE
8
BLACK
6
CONTINUOUS
10
0.4804224803149606
20
0.5084371653543307
11
0.4694065354330709
21
0.5157977952755906
0
LINE
8
BLACK
6
CONTINUOUS
10
0.4694065354330709
20
0.5157977952755906
11
0.4577221259842519
21
0.5220432283464567
0
LINE
8
BLACK
6
CONTINUOUS
10
0.4577221259842519
20
0.5220432283464567
11
0.4454818503937008
21
0.5271133070866142
0
LINE
8
BLACK
6
CONTINUOUS
10
0.4454818503937008
20
0.5271133070866142
11
0.4328035826771653
21
0.5309592125984252
0
LINE
8
BLACK
6
CONTINUOUS
10
0.4328035826771653
20
0.5309592125984252
11
0.4198093700787401
21
0.5335439370078741
0
LINE
8
BLACK
6
CONTINUOUS
10
0.4198093700787401
20
0.5335439370078741
11
0.4066243700787401
21
0.5348425196850394
0
LINE
8
BLACK
6
CONTINUOUS
10
0.4066243700787401
20
0.5348425196850394
11
0.3933756299212599
21
0.5348425196850394
0
LINE
8
BLACK
6
CONTINUOUS
10
0.3933756299212599
20
0.5348425196850394
11
0.3801906299212598
21
0.5335439370078741
0
LINE
8
BLACK
6
CONTINUOUS
10
0.3801906299212598
20
0.5335439370078741
11
0.3671964173228346
21
0.5309592125984252
0
LINE
8
BLACK
6
CONTINUOUS
10
0.3671964173228346
20
0.5309592125984252
11
0.3545181496062992
21
0.5271133070866142
0
LINE
8
BLACK
6
CONTINUOUS
10
0.3545181496062992
20
0.5271133070866142
11
0.342277874015748
21
0.5220432283464567
0
LINE
8
BLACK
6
CONTINUOUS
10
0.342277874015748
20
0.5220432283464567
11
0.3305934645669291
21
0.5157977952755906
0
LINE
8
BLACK
6
CONTINUOUS
10
0.3305934645669291
20
0.5157977952755906
11
0.3195775196850393
21
0.5084371653543307
0
LINE
8
BLACK
6
CONTINUOUS
10
0.3195775196850393
20
0.5084371653543307
11
0.309336062992126
21
0.5000322047244095
0
LINE
8
BLACK
6
CONTINUOUS
10
0.309336062992126
20
0.5000322047244095
11
0.2999677952755905
21
0.490663937007874
0
LINE
8
BLACK
6
CONTINUOUS
10
0.2999677952755905
20
0.490663937007874
11
0.2915628346456693
21
0.4804224803149606
0
LINE
8
BLACK
6
CONTINUOUS
10
0.2915628346456693
20
0.4804224803149606
11
0.2842022047244094
21
0.4694065354330709
0
LINE
8
BLACK
6
CONTINUOUS
10
0.2842022047244094
20
0.4694065354330709
11
0.2779567716535433
21
0.4577221259842519
0
LINE
8
BLACK
6
CONTINUOUS
10
0.2779567716535433
20
0.4577221259842519
11
0.2728866929133858
21
0.4454818503937008
0
LINE
8
BLACK
6
CONTINUOUS
10
0.2728866929133858
20
0.4454818503937008
11
0.2690407874015748
21
0.4328035826771653
0
LINE
8
BLACK
6
CONTINUOUS
10
0.2690407874015748
20
0.4328035826771653
11
0.266456062992126
21
0.4198093700787401
0
LINE
8
BLACK
6
CONTINUOUS
10
0.266456062992126
20
0.4198093700787401
11
0.2651574803149606
21
0.4066243700787401
0
LINE
8
BLACK
6
CONTINUOUS
10
0.2651574803149606
20
0.4066243700787401
11
0.2651574803149606
21
0.3933756299212599
0
LINE
8
BLACK
6
CONTINUOUS
10
2.4200743307086614
20
0.5353302362204724
11
2.4332423622047243
21
0.5327109842519685
0
LINE
8
BLACK
6
CONTINUOUS
10
2.4332423622047243
20
0.5327109842519685
11
2.4460902362204724
21
0.5288136220472441
0
LINE
8
BLACK
6
CONTINUOUS
10
2.4460902362204724
20
0.5288136220472441
11
2.4584942519685038
21
0.5236757086614173
0
LINE
8
BLACK
6
CONTINUOUS
10
2.4584942519685038
20
0.5236757086614173
11
2.4703349212598424
21
0.5173467322834645
0
LINE
8
BLACK
6
CONTINUOUS
10
2.4703349212598424
20
0.5173467322834645
11
2.4814982283464566
21
0.5098876377952756
0
LINE
8
BLACK
6
CONTINUOUS
10
2.4814982283464566
20
0.5098876377952756
11
2.491876653543307
21
0.5013702755905511
0
LINE
8
BLACK
6
CONTINUOUS
10
2.491876653543307
20
0.5013702755905511
11
2.5013702755905509
21
0.4918766535433071
0
LINE
8
BLACK
6
CONTINUOUS
10
2.5013702755905509
20
0.4918766535433071
11
2.5098876377952757
21
0.4814982283464567
0
LINE
8
BLACK
6
CONTINUOUS
10
2.5098876377952757
20
0.4814982283464567
11
2.5173467322834644
21
0.4703349212598425
0
LINE
8
BLACK
6
CONTINUOUS
10
2.5173467322834644
20
0.4703349212598425
11
2.5236757086614174
21
0.4584942519685039
0
LINE
8
BLACK
6
CONTINUOUS
10
2.5236757086614174
20
0.4584942519685039
11
2.5288136220472439
21
0.4460902362204724
0
LINE
8
BLACK
6
CONTINUOUS
10
2.5288136220472439
20
0.4460902362204724
11
2.5327109842519686
21
0.4332423622047244
0
LINE
8
BLACK
6
CONTINUOUS
10
2.5327109842519686
20
0.4332423622047244
11
2.5353302362204726
21
0.4200743307086614
0
LINE
8
BLACK
6
CONTINUOUS
10
2.5353302362204726
20
0.4200743307086614
11
2.5366462204724409
21
0.4067129921259842
0
LINE
8
BLACK
6
CONTINUOUS
10
2.5366462204724409
20
0.4067129921259842
11
2.5366462204724409
21
0.3932870078740157
0
LINE
8
BLACK
6
CONTINUOUS
10
2.5366462204724409
20
0.3932870078740157
11
2.5353302362204726
21
0.3799256692913386
0
LINE
8
BLACK
6
CONTINUOUS
10
2.5353302362204726
20
0.3799256692913386
11
2.5327109842519686
21
0.3667576377952756
0
LINE
8
BLACK
6
CONTINUOUS
10
2.5327109842519686
20
0.3667576377952756
11
2.5288136220472439
21
0.3539097637795275
0
LINE
8
BLACK
6
CONTINUOUS
10
2.5288136220472439
20
0.3539097637795275
11
2.5236757086614174
21
0.3415057480314961
0
LINE
8
BLACK
6
CONTINUOUS
10
2.5236757086614174
20
0.3415057480314961
11
2.5173467322834644
21
0.3296650787401575
0
LINE
8
BLACK
6
CONTINUOUS
10
2.5173467322834644
20
0.3296650787401575
11
2.5098876377952757
21
0.3185017716535433
0
LINE
8
BLACK
6
CONTINUOUS
10
2.5098876377952757
20
0.3185017716535433
11
2.5013702755905509
21
0.3081233464566929
0
LINE
8
BLACK
6
CONTINUOUS
10
2.5013702755905509
20
0.3081233464566929
11
2.491876653543307
21
0.2986297244094488
0
LINE
8
BLACK
6
CONTINUOUS
10
2.491876653543307
20
0.2986297244094488
11
2.4814982283464566
21
0.2901123622047244
0
LINE
8
BLACK
6
CONTINUOUS
10
2.4814982283464566
20
0.2901123622047244
11
2.4703349212598424
21
0.2826532677165354
0
LINE
8
BLACK
6
CONTINUOUS
10
2.4703349212598424
20
0.2826532677165354
11
2.4584942519685038
21
0.2763242913385827
0
LINE
8
BLACK
6
CONTINUOUS
10
2.4584942519685038
20
0.2763242913385827
11
2.4460902362204724
21
0.2711863779527559
0
LINE
8
BLACK
6
CONTINUOUS
10
2.4460902362204724
20
0.2711863779527559
11
2.4332423622047243
21
0.2672890157480315
0
LINE
8
BLACK
6
CONTINUOUS
10
2.4332423622047243
20
0.2672890157480315
11
2.4200743307086614
21
0.2646697637795276
0
LINE
8
BLACK
6
CONTINUOUS
10
2.4200743307086614
20
0.2646697637795276
11
2.4067129921259842
21
0.2633537795275591
0
LINE
8
BLACK
6
CONTINUOUS
10
2.4067129921259842
20
0.2633537795275591
11
2.3932870078740156
21
0.2633537795275591
0
LINE
8
BLACK
6
CONTINUOUS
10
2.3932870078740156
20
0.2633537795275591
11
2.3799256692913384
21
0.2646697637795276
0
LINE
8
BLACK
6
CONTINUOUS
10
2.3799256692913384
20
0.2646697637795276
11
2.3667576377952755
21
0.2672890157480315
0
LINE
8
BLACK
6
CONTINUOUS
10
2.3667576377952755
20
0.2672890157480315
11
2.3539097637795274
21
0.2711863779527559
0
LINE
8
BLACK
6
CONTINUOUS
10
2.3539097637795274
20
0.2711863779527559
11
2.341505748031496
21
0.2763242913385827
0
LINE
8
BLACK
6
CONTINUOUS
10
2.341505748031496
20
0.2763242913385827
11
2.3296650787401574
21
0.2826532677165354
0
LINE
8
BLACK
6
CONTINUOUS
10
2.3296650787401574
20
0.2826532677165354
11
2.3185017716535432
21
0.2901123622047244
0
LINE
8
BLACK
6
CONTINUOUS
10
2.3185017716535432
20
0.2901123622047244
11
2.3081233464566928
21
0.2986297244094488
0
LINE
8
BLACK
6
CONTINUOUS
10
2.3081233464566928
20
0.2986297244094488
11
2.2986297244094489
21
0.3081233464566929
0
LINE
8
BLACK
6
CONTINUOUS
10
2.2986297244094489
20
0.3081233464566929
11
2.2901123622047241
21
0.3185017716535433
0
LINE
8
BLACK
6
CONTINUOUS
10
2.2901123622047241
20
0.3185017716535433
11
2.2826532677165354
21
0.3296650787401575
0
LINE
8
BLACK
6
CONTINUOUS
10
2.2826532677165354
20
0.3296650787401575
11
2.2763242913385828
21
0.3415057480314961
0
LINE
8
BLACK
6
CONTINUOUS
10
2.2763242913385828
20
0.3415057480314961
11
2.2711863779527559
21
0.3539097637795275
0
LINE
8
BLACK
6
CONTINUOUS
10
2.2711863779527559
20
0.3539097637795275
11
2.2672890157480317
21
0.3667576377952756
0
LINE
8
BLACK
6
CONTINUOUS
10
2.2672890157480317
20
0.3667576377952756
11
2.2646697637795277
21
0.3799256692913386
0
LINE
8
BLACK
6
CONTINUOUS
10
2.2646697637795277
20
0.3799256692913386
11
2.2633537795275589
21
0.3932870078740157
0
LINE
8
BLACK
6
CONTINUOUS
10
2.2633537795275589
20
0.3932870078740157
11
2.2633537795275589
21
0.4066243700787401
0
LINE
8
BLACK
6
CONTINUOUS
10
2.2633537795275589
20
0.4066243700787401
11
2.2633537795275589
21
0.4067129921259842
0
LINE
8
BLACK
6
CONTINUOUS
10
2.2633537795275589
20
0.4067129921259842
11
2.2646697637795277
21
0.4200743307086614
0
LINE
8
BLACK
6
CONTINUOUS
10
2.2646697637795277
20
0.4200743307086614
11
2.2672890157480317
21
0.4332423622047244
0
LINE
8
BLACK
6
CONTINUOUS
10
2.2672890157480317
20
0.4332423622047244
11
2.2711863779527559
21
0.4460902362204724
0
LINE
8
BLACK
6
CONTINUOUS
10
2.2711863779527559
20
0.4460902362204724
11
2.2763242913385828
21
0.4584942519685039
0
LINE
8
BLACK
6
CONTINUOUS
10
2.2763242913385828
20
0.4584942519685039
11
2.2826532677165354
21
0.4703349212598425
0
LINE
8
BLACK
6
CONTINUOUS
10
2.2826532677165354
20
0.4703349212598425
11
2.2901123622047241
21
0.4814982283464567
0
LINE
8
BLACK
6
CONTINUOUS
10
2.2901123622047241
20
0.4814982283464567
11
2.2986297244094489
21
0.4918766535433071
0
LINE
8
BLACK
6
CONTINUOUS
10
2.2986297244094489
20
0.4918766535433071
11
2.3081233464566928
21
0.5013702755905511
0
LINE
8
BLACK
6
CONTINUOUS
10
2.3081233464566928
20
0.5013702755905511
11
2.3185017716535432
21
0.5098876377952756
0
LINE
8
BLACK
6
CONTINUOUS
10
2.3185017716535432
20
0.5098876377952756
11
2.3296650787401574
21
0.5173467322834645
0
LINE
8
BLACK
6
CONTINUOUS
10
2.3296650787401574
20
0.5173467322834645
11
2.341505748031496
21
0.5236757086614173
0
LINE
8
BLACK
6
CONTINUOUS
10
2.341505748031496
20
0.5236757086614173
11
2.3539097637795274
21
0.5288136220472441
0
LINE
8
BLACK
6
CONTINUOUS
10
2.3539097637795274
20
0.5288136220472441
11
2.3667576377952755
21
0.5327109842519685
0
LINE
8
BLACK
6
CONTINUOUS
10
2.3667576377952755
20
0.5327109842519685
11
2.3799256692913384
21
0.5353302362204724
0
LINE
8
BLACK
6
CONTINUOUS
10
2.3799256692913384
20
0.5353302362204724
11
2.3932870078740156
21
0.5366462204724409
0
LINE
8
BLACK
6
CONTINUOUS
10
2.3932870078740156
20
0.5366462204724409
11
2.4067129921259842
21
0.5366462204724409
0
LINE
8
BLACK
6
CONTINUOUS
10
2.4067129921259842
20
0.5366462204724409
11
2.4200743307086614
21
0.5353302362204724
0
LINE
8
BLACK
6
CONTINUOUS
10
2.2651574803149606
20
0.3933756299212599
11
2.266456062992126
21
0.3801906299212598
0
LINE
8
BLACK
6
CONTINUOUS
10
2.266456062992126
20
0.3801906299212598
11
2.2690407874015746
21
0.3671964173228346
0
LINE
8
BLACK
6
CONTINUOUS
10
2.2690407874015746
20
0.3671964173228346
11
2.272886692913386
21
0.3545181496062992
0
LINE
8
BLACK
6
CONTINUOUS
10
2.272886692913386
20
0.3545181496062992
11
2.2779567716535434
21
0.342277874015748
0
LINE
8
BLACK
6
CONTINUOUS
10
2.2779567716535434
20
0.342277874015748
11
2.2842022047244095
21
0.3305934645669291
0
LINE
8
BLACK
6
CONTINUOUS
10
2.2842022047244095
20
0.3305934645669291
11
2.2915628346456693
21
0.3195775196850393
0
LINE
8
BLACK
6
CONTINUOUS
10
2.2915628346456693
20
0.3195775196850393
11
2.2999677952755904
21
0.309336062992126
0
LINE
8
BLACK
6
CONTINUOUS
10
2.2999677952755904
20
0.309336062992126
11
2.3093360629921258
21
0.2999677952755905
0
LINE
8
BLACK
6
CONTINUOUS
10
2.3093360629921258
20
0.2999677952755905
11
2.3195775196850392
21
0.2915628346456693
0
LINE
8
BLACK
6
CONTINUOUS
10
2.3195775196850392
20
0.2915628346456693
11
2.3305934645669293
21
0.2842022047244094
0
LINE
8
BLACK
6
CONTINUOUS
10
2.3305934645669293
20
0.2842022047244094
11
2.3422778740157479
21
0.2779567716535433
0
LINE
8
BLACK
6
CONTINUOUS
10
2.3422778740157479
20
0.2779567716535433
11
2.354518149606299
21
0.2728866929133858
0
LINE
8
BLACK
6
CONTINUOUS
10
2.354518149606299
20
0.2728866929133858
11
2.3671964173228348
21
0.2690407874015748
0
LINE
8
BLACK
6
CONTINUOUS
10
2.3671964173228348
20
0.2690407874015748
11
2.3801906299212598
21
0.266456062992126
0
LINE
8
BLACK
6
CONTINUOUS
10
2.3801906299212598
20
0.266456062992126
11
2.3933756299212599
21
0.2651574803149606
0
LINE
8
BLACK
6
CONTINUOUS
10
2.3933756299212599
20
0.2651574803149606
11
2.40662437007874
21
0.2651574803149606
0
LINE
8
BLACK
6
CONTINUOUS
10
2.40662437007874
20
0.2651574803149606
11
2.41980937007874
21
0.266456062992126
0
LINE
8
BLACK
6
CONTINUOUS
10
2.41980937007874
20
0.266456062992126
11
2.4328035826771655
21
0.2690407874015748
0
LINE
8
BLACK
6
CONTINUOUS
10
2.4328035826771655
20
0.2690407874015748
11
2.4454818503937008
21
0.2728866929133858
0
LINE
8
BLACK
6
CONTINUOUS
10
2.4454818503937008
20
0.2728866929133858
11
2.4577221259842519
21
0.2779567716535433
0
LINE
8
BLACK
6
CONTINUOUS
10
2.4577221259842519
20
0.2779567716535433
11
2.469406535433071
21
0.2842022047244094
0
LINE
8
BLACK
6
CONTINUOUS
10
2.469406535433071
20
0.2842022047244094
11
2.4804224803149606
21
0.2915628346456693
0
LINE
8
BLACK
6
CONTINUOUS
10
2.4804224803149606
20
0.2915628346456693
11
2.490663937007874
21
0.2999677952755905
0
LINE
8
BLACK
6
CONTINUOUS
10
2.490663937007874
20
0.2999677952755905
11
2.5000322047244095
21
0.309336062992126
0
LINE
8
BLACK
6
CONTINUOUS
10
2.5000322047244095
20
0.309336062992126
11
2.5084371653543305
21
0.3195775196850393
0
LINE
8
BLACK
6
CONTINUOUS
10
2.5084371653543305
20
0.3195775196850393
11
2.5157977952755903
21
0.3305934645669291
0
LINE
8
BLACK
6
CONTINUOUS
10
2.5157977952755903
20
0.3305934645669291
11
2.5220432283464564
21
0.342277874015748
0
LINE
8
BLACK
6
CONTINUOUS
10
2.5220432283464564
20
0.342277874015748
11
2.5271133070866143
21
0.3545181496062992
0
LINE
8
BLACK
6
CONTINUOUS
10
2.5271133070866143
20
0.3545181496062992
11
2.5309592125984253
21
0.3671964173228346
0
LINE
8
BLACK
6
CONTINUOUS
10
2.5309592125984253
20
0.3671964173228346
11
2.5335439370078738
21
0.3801906299212598
0
LINE
8
BLACK
6
CONTINUOUS
10
2.5335439370078738
20
0.3801906299212598
11
2.5348425196850393
21
0.3933756299212599
0
LINE
8
BLACK
6
CONTINUOUS
10
2.5348425196850393
20
0.3933756299212599
11
2.5348425196850393
21
0.4066243700787401
0
LINE
8
BLACK
6
CONTINUOUS
10
2.5348425196850393
20
0.4066243700787401
11
2.5335439370078738
21
0.4198093700787401
0
LINE
8
BLACK
6
CONTINUOUS
10
2.5335439370078738
20
0.4198093700787401
11
2.5309592125984253
21
0.4328035826771653
0
LINE
8
BLACK
6
CONTINUOUS
10
2.5309592125984253
20
0.4328035826771653
11
2.5271133070866143
21
0.4454818503937008
0
LINE
8
BLACK
6
CONTINUOUS
10
2.5271133070866143
20
0.4454818503937008
11
2.5220432283464564
21
0.4577221259842519
0
LINE
8
BLACK
6
CONTINUOUS
10
2.5220432283464564
20
0.4577221259842519
11
2.5157977952755903
21
0.4694065354330709
0
LINE
8
BLACK
6
CONTINUOUS
10
2.5157977952755903
20
0.4694065354330709
11
2.5084371653543305
21
0.4804224803149606
0
LINE
8
BLACK
6
CONTINUOUS
10
2.5084371653543305
20
0.4804224803149606
11
2.5000322047244095
21
0.490663937007874
0
LINE
8
BLACK
6
CONTINUOUS
10
2.5000322047244095
20
0.490663937007874
11
2.490663937007874
21
0.5000322047244095
0
LINE
8
BLACK
6
CONTINUOUS
10
2.490663937007874
20
0.5000322047244095
11
2.4804224803149606
21
0.5084371653543307
0
LINE
8
BLACK
6
CONTINUOUS
10
2.4804224803149606
20
0.5084371653543307
11
2.469406535433071
21
0.5157977952755906
0
LINE
8
BLACK
6
CONTINUOUS
10
2.469406535433071
20
0.5157977952755906
11
2.4577221259842519
21
0.5220432283464567
0
LINE
8
BLACK
6
CONTINUOUS
10
2.4577221259842519
20
0.5220432283464567
11
2.4454818503937008
21
0.5271133070866142
0
LINE
8
BLACK
6
CONTINUOUS
10
2.4454818503937008
20
0.5271133070866142
11
2.4328035826771655
21
0.5309592125984252
0
LINE
8
BLACK
6
CONTINUOUS
10
2.4328035826771655
20
0.5309592125984252
11
2.41980937007874
21
0.5335439370078741
0
LINE
8
BLACK
6
CONTINUOUS
10
2.41980937007874
20
0.5335439370078741
11
2.40662437007874
21
0.5348425196850394
0
LINE
8
BLACK
6
CONTINUOUS
10
2.40662437007874
20
0.5348425196850394
11
2.3933756299212599
21
0.5348425196850394
0
LINE
8
BLACK
6
CONTINUOUS
10
2.3933756299212599
20
0.5348425196850394
11
2.3801906299212598
21
0.5335439370078741
0
LINE
8
BLACK
6
CONTINUOUS
10
2.3801906299212598
20
0.5335439370078741
11
2.3671964173228348
21
0.5309592125984252
0
LINE
8
BLACK
6
CONTINUOUS
10
2.3671964173228348
20
0.5309592125984252
11
2.354518149606299
21
0.5271133070866142
0
LINE
8
BLACK
6
CONTINUOUS
10
2.354518149606299
20
0.5271133070866142
11
2.3422778740157479
21
0.5220432283464567
0
LINE
8
BLACK
6
CONTINUOUS
10
2.3422778740157479
20
0.5220432283464567
11
2.3305934645669293
21
0.5157977952755906
0
LINE
8
BLACK
6
CONTINUOUS
10
2.3305934645669293
20
0.5157977952755906
11
2.3195775196850392
21
0.5084371653543307
0
LINE
8
BLACK
6
CONTINUOUS
10
2.3195775196850392
20
0.5084371653543307
11
2.3093360629921258
21
0.5000322047244095
0
LINE
8
BLACK
6
CONTINUOUS
10
2.3093360629921258
20
0.5000322047244095
11
2.2999677952755904
21
0.490663937007874
0
LINE
8
BLACK
6
CONTINUOUS
10
2.2999677952755904
20
0.490663937007874
11
2.2915628346456693
21
0.4804224803149606
0
LINE
8
BLACK
6
CONTINUOUS
10
2.2915628346456693
20
0.4804224803149606
11
2.2842022047244095
21
0.4694065354330709
0
LINE
8
BLACK
6
CONTINUOUS
10
2.2842022047244095
20
0.4694065354330709
11
2.2779567716535434
21
0.4577221259842519
0
LINE
8
BLACK
6
CONTINUOUS
10
2.2779567716535434
20
0.4577221259842519
11
2.272886692913386
21
0.4454818503937008
0
LINE
8
BLACK
6
CONTINUOUS
10
2.272886692913386
20
0.4454818503937008
11
2.2690407874015746
21
0.4328035826771653
0
LINE
8
BLACK
6
CONTINUOUS
10
2.2690407874015746
20
0.4328035826771653
11
2.266456062992126
21
0.4198093700787401
0
LINE
8
BLACK
6
CONTINUOUS
10
2.266456062992126
20
0.4198093700787401
11
2.2651574803149606
21
0.4066243700787401
0
LINE
8
BLACK
6
CONTINUOUS
10
2.2651574803149606
20
0.4066243700787401
11
2.2651574803149606
21
0.3933756299212599
0
LINE
8
BLACK
6
CONTINUOUS
10
0.8340380708661417
20
1.7942164173228345
11
0.834570748031496
21
1.7936837401574803
0
LINE
8
BLACK
6
CONTINUOUS
10
0.834570748031496
20
1.7936837401574803
11
0.8346456692913385
21
1.7933070866141732
0
LINE
8
BLACK
6
CONTINUOUS
10
0.8346456692913385
20
1.7933070866141732
11
0.8346456692913385
21
1.5688976377952755
0
LINE
8
BLACK
6
CONTINUOUS
10
0.8346456692913385
20
1.5688976377952755
11
0.834570748031496
21
1.5685209842519685
0
LINE
8
BLACK
6
CONTINUOUS
10
0.834570748031496
20
1.5685209842519685
11
0.8340380708661417
21
1.5679883070866141
0
LINE
8
BLACK
6
CONTINUOUS
10
0.8340380708661417
20
1.5679883070866141
11
0.8336614173228346
21
1.5679133858267715
0
LINE
8
BLACK
6
CONTINUOUS
10
0.8336614173228346
20
1.5679133858267715
11
0.687992125984252
21
1.5679133858267715
0
LINE
8
BLACK
6
CONTINUOUS
10
0.687992125984252
20
1.5679133858267715
11
0.6876154724409449
21
1.5679883070866141
0
LINE
8
BLACK
6
CONTINUOUS
10
0.6876154724409449
20
1.5679883070866141
11
0.6870827952755906
21
1.5685209842519685
0
LINE
8
BLACK
6
CONTINUOUS
10
0.6870827952755906
20
1.5685209842519685
11
0.687007874015748
21
1.5688976377952755
0
LINE
8
BLACK
6
CONTINUOUS
10
0.687007874015748
20
1.5688976377952755
11
0.687007874015748
21
1.7933070866141732
0
LINE
8
BLACK
6
CONTINUOUS
10
0.687007874015748
20
1.7933070866141732
11
0.6870827952755906
21
1.7936837401574803
0
LINE
8
BLACK
6
CONTINUOUS
10
0.6870827952755906
20
1.7936837401574803
11
0.6876154724409449
21
1.7942164173228345
0
LINE
8
BLACK
6
CONTINUOUS
10
0.6876154724409449
20
1.7942164173228345
11
0.687992125984252
21
1.7942913385826771
0
LINE
8
BLACK
6
CONTINUOUS
10
0.687992125984252
20
1.7942913385826771
11
0.8336614173228346
21
1.7942913385826771
0
LINE
8
BLACK
6
CONTINUOUS
10
0.8336614173228346
20
1.7942913385826771
11
0.8340380708661417
21
1.7942164173228345
0
LINE
8
BLACK
6
CONTINUOUS
10
0.6889763779527559
20
1.7923228346456692
11
0.6889763779527559
21
1.5698818897637794
0
LINE
8
BLACK
6
CONTINUOUS
10
0.6889763779527559
20
1.5698818897637794
11
0.8326771653543307
21
1.5698818897637794
0
LINE
8
BLACK
6
CONTINUOUS
10
0.8326771653543307
20
1.5698818897637794
11
0.8326771653543307
21
1.7923228346456692
0
LINE
8
BLACK
6
CONTINUOUS
10
0.8326771653543307
20
1.7923228346456692
11
0.6889763779527559
21
1.7923228346456692
0
LINE
8
BLACK
6
CONTINUOUS
10
2.1322664173228345
20
1.7942164173228345
11
2.1327990944881887
21
1.7936837401574803
0
LINE
8
BLACK
6
CONTINUOUS
10
2.1327990944881887
20
1.7936837401574803
11
2.1328740157480315
21
1.7933070866141732
0
LINE
8
BLACK
6
CONTINUOUS
10
2.1328740157480315
20
1.7933070866141732
11
2.1328740157480315
21
1.5688976377952755
0
LINE
8
BLACK
6
CONTINUOUS
10
2.1328740157480315
20
1.5688976377952755
11
2.1327990944881887
21
1.5685209842519685
0
LINE
8
BLACK
6
CONTINUOUS
10
2.1327990944881887
20
1.5685209842519685
11
2.1322664173228345
21
1.5679883070866141
0
LINE
8
BLACK
6
CONTINUOUS
10
2.1322664173228345
20
1.5679883070866141
11
2.1318897637795273
21
1.5679133858267715
0
LINE
8
BLACK
6
CONTINUOUS
10
2.1318897637795273
20
1.5679133858267715
11
1.9862204724409449
21
1.5679133858267715
0
LINE
8
BLACK
6
CONTINUOUS
10
1.9862204724409449
20
1.5679133858267715
11
1.9858438188976377
21
1.5679883070866141
0
LINE
8
BLACK
6
CONTINUOUS
10
1.9858438188976377
20
1.5679883070866141
11
1.9853111417322835
21
1.5685209842519685
0
LINE
8
BLACK
6
CONTINUOUS
10
1.9853111417322835
20
1.5685209842519685
11
1.985236220472441
21
1.5688976377952755
0
LINE
8
BLACK
6
CONTINUOUS
10
1.985236220472441
20
1.5688976377952755
11
1.985236220472441
21
1.7933070866141732
0
LINE
8
BLACK
6
CONTINUOUS
10
1.985236220472441
20
1.7933070866141732
11
1.9853111417322835
21
1.7936837401574803
0
LINE
8
BLACK
6
CONTINUOUS
10
1.9853111417322835
20
1.7936837401574803
11
1.9858438188976377
21
1.7942164173228345
0
LINE
8
BLACK
6
CONTINUOUS
10
1.9858438188976377
20
1.7942164173228345
11
1.9862204724409449
21
1.7942913385826771
0
LINE
8
BLACK
6
CONTINUOUS
10
1.9862204724409449
20
1.7942913385826771
11
2.1318897637795273
21
1.7942913385826771
0
LINE
8
BLACK
6
CONTINUOUS
10
2.1318897637795273
20
1.7942913385826771
11
2.1322664173228345
21
1.7942164173228345
0
LINE
8
BLACK
6
CONTINUOUS
10
1.9872047244094488
20
1.7923228346456692
11
1.9872047244094488
21
1.5698818897637794
0
LINE
8
BLACK
6
CONTINUOUS
10
1.9872047244094488
20
1.5698818897637794
11
2.1309055118110236
21
1.5698818897637794
0
LINE
8
BLACK
6
CONTINUOUS
10
2.1309055118110236
20
1.5698818897637794
11
2.1309055118110236
21
1.7923228346456692
0
LINE
8
BLACK
6
CONTINUOUS
10
2.1309055118110236
20
1.7923228346456692
11
1.9872047244094488
21
1.7923228346456692
0
LINE
8
BLACK
6
CONTINUOUS
10
0.4200743307086614
20
2.1353302362204722
11
0.4332423622047244
21
2.1327109842519683
0
LINE
8
BLACK
6
CONTINUOUS
10
0.4332423622047244
20
2.1327109842519683
11
0.4460902362204724
21
2.128813622047244
0
LINE
8
BLACK
6
CONTINUOUS
10
0.4460902362204724
20
2.128813622047244
11
0.4584942519685039
21
2.1236757086614171
0
LINE
8
BLACK
6
CONTINUOUS
10
0.4584942519685039
20
2.1236757086614171
11
0.4703349212598425
21
2.1173467322834645
0
LINE
8
BLACK
6
CONTINUOUS
10
0.4703349212598425
20
2.1173467322834645
11
0.4814982283464567
21
2.1098876377952753
0
LINE
8
BLACK
6
CONTINUOUS
10
0.4814982283464567
20
2.1098876377952753
11
0.4918766535433071
21
2.101370275590551
0
LINE
8
BLACK
6
CONTINUOUS
10
0.4918766535433071
20
2.101370275590551
11
0.5013702755905511
21
2.0918766535433071
0
LINE
8
BLACK
6
CONTINUOUS
10
0.5013702755905511
20
2.0918766535433071
11
0.5098876377952756
21
2.0814982283464567
0
LINE
8
BLACK
6
CONTINUOUS
10
0.5098876377952756
20
2.0814982283464567
11
0.5173467322834645
21
2.0703349212598425
0
LINE
8
BLACK
6
CONTINUOUS
10
0.5173467322834645
20
2.0703349212598425
11
0.5236757086614173
21
2.0584942519685039
0
LINE
8
BLACK
6
CONTINUOUS
10
0.5236757086614173
20
2.0584942519685039
11
0.5288136220472441
21
2.0460902362204725
0
LINE
8
BLACK
6
CONTINUOUS
10
0.5288136220472441
20
2.0460902362204725
11
0.5327109842519685
21
2.0332423622047244
0
LINE
8
BLACK
6
CONTINUOUS
10
0.5327109842519685
20
2.0332423622047244
11
0.5353302362204724
21
2.0200743307086615
0
LINE
8
BLACK
6
CONTINUOUS
10
0.5353302362204724
20
2.0200743307086615
11
0.5366462204724409
21
2.0067129921259843
0
LINE
8
BLACK
6
CONTINUOUS
10
0.5366462204724409
20
2.0067129921259843
11
0.5366462204724409
21
1.9932870078740157
0
LINE
8
BLACK
6
CONTINUOUS
10
0.5366462204724409
20
1.9932870078740157
11
0.5353302362204724
21
1.9799256692913385
0
LINE
8
BLACK
6
CONTINUOUS
10
0.5353302362204724
20
1.9799256692913385
11
0.5327109842519685
21
1.9667576377952756
0
LINE
8
BLACK
6
CONTINUOUS
10
0.5327109842519685
20
1.9667576377952756
11
0.5288136220472441
21
1.9539097637795275
0
LINE
8
BLACK
6
CONTINUOUS
10
0.5288136220472441
20
1.9539097637795275
11
0.5236757086614173
21
1.9415057480314961
0
LINE
8
BLACK
6
CONTINUOUS
10
0.5236757086614173
20
1.9415057480314961
11
0.5173467322834645
21
1.9296650787401575
0
LINE
8
BLACK
6
CONTINUOUS
10
0.5173467322834645
20
1.9296650787401575
11
0.5098876377952756
21
1.9185017716535433
0
LINE
8
BLACK
6
CONTINUOUS
10
0.5098876377952756
20
1.9185017716535433
11
0.5013702755905511
21
1.9081233464566929
0
LINE
8
BLACK
6
CONTINUOUS
10
0.5013702755905511
20
1.9081233464566929
11
0.4918766535433071
21
1.8986297244094488
0
LINE
8
BLACK
6
CONTINUOUS
10
0.4918766535433071
20
1.8986297244094488
11
0.4814982283464567
21
1.8901123622047244
0
LINE
8
BLACK
6
CONTINUOUS
10
0.4814982283464567
20
1.8901123622047244
11
0.4703349212598425
21
1.8826532677165353
0
LINE
8
BLACK
6
CONTINUOUS
10
0.4703349212598425
20
1.8826532677165353
11
0.4584942519685039
21
1.8763242913385827
0
LINE
8
BLACK
6
CONTINUOUS
10
0.4584942519685039
20
1.8763242913385827
11
0.4460902362204724
21
1.8711863779527558
0
LINE
8
BLACK
6
CONTINUOUS
10
0.4460902362204724
20
1.8711863779527558
11
0.4332423622047244
21
1.8672890157480315
0
LINE
8
BLACK
6
CONTINUOUS
10
0.4332423622047244
20
1.8672890157480315
11
0.4200743307086614
21
1.8646697637795275
0
LINE
8
BLACK
6
CONTINUOUS
10
0.4200743307086614
20
1.8646697637795275
11
0.4067129921259842
21
1.863353779527559
0
LINE
8
BLACK
6
CONTINUOUS
10
0.4067129921259842
20
1.863353779527559
11
0.3932870078740157
21
1.863353779527559
0
LINE
8
BLACK
6
CONTINUOUS
10
0.3932870078740157
20
1.863353779527559
11
0.3799256692913386
21
1.8646697637795275
0
LINE
8
BLACK
6
CONTINUOUS
10
0.3799256692913386
20
1.8646697637795275
11
0.3667576377952756
21
1.8672890157480315
0
LINE
8
BLACK
6
CONTINUOUS
10
0.3667576377952756
20
1.8672890157480315
11
0.3539097637795275
21
1.8711863779527558
0
LINE
8
BLACK
6
CONTINUOUS
10
0.3539097637795275
20
1.8711863779527558
11
0.3415057480314961
21
1.8763242913385827
0
LINE
8
BLACK
6
CONTINUOUS
10
0.3415057480314961
20
1.8763242913385827
11
0.3296650787401575
21
1.8826532677165353
0
LINE
8
BLACK
6
CONTINUOUS
10
0.3296650787401575
20
1.8826532677165353
11
0.3185017716535433
21
1.8901123622047244
0
LINE
8
BLACK
6
CONTINUOUS
10
0.3185017716535433
20
1.8901123622047244
11
0.3081233464566929
21
1.8986297244094488
0
LINE
8
BLACK
6
CONTINUOUS
10
0.3081233464566929
20
1.8986297244094488
11
0.2986297244094488
21
1.9081233464566929
0
LINE
8
BLACK
6
CONTINUOUS
10
0.2986297244094488
20
1.9081233464566929
11
0.2901123622047244
21
1.9185017716535433
0
LINE
8
BLACK
6
CONTINUOUS
10
0.2901123622047244
20
1.9185017716535433
11
0.2826532677165354
21
1.9296650787401575
0
LINE
8
BLACK
6
CONTINUOUS
10
0.2826532677165354
20
1.9296650787401575
11
0.2763242913385827
21
1.9415057480314961
0
LINE
8
BLACK
6
CONTINUOUS
10
0.2763242913385827
20
1.9415057480314961
11
0.2711863779527559
21
1.9539097637795275
0
LINE
8
BLACK
6
CONTINUOUS
10
0.2711863779527559
20
1.9539097637795275
11
0.2672890157480315
21
1.9667576377952756
0
LINE
8
BLACK
6
CONTINUOUS
10
0.2672890157480315
20
1.9667576377952756
11
0.2646697637795276
21
1.9799256692913385
0
LINE
8
BLACK
6
CONTINUOUS
10
0.2646697637795276
20
1.9799256692913385
11
0.2633537795275591
21
1.9932870078740157
0
LINE
8
BLACK
6
CONTINUOUS
10
0.2633537795275591
20
1.9932870078740157
11
0.2633537795275591
21
2.0066243700787401
0
LINE
8
BLACK
6
CONTINUOUS
10
0.2633537795275591
20
2.0066243700787401
11
0.2633537795275591
21
2.0067129921259843
0
LINE
8
BLACK
6
CONTINUOUS
10
0.2633537795275591
20
2.0067129921259843
11
0.2646697637795276
21
2.0200743307086615
0
LINE
8
BLACK
6
CONTINUOUS
10
0.2646697637795276
20
2.0200743307086615
11
0.2672890157480315
21
2.0332423622047244
0
LINE
8
BLACK
6
CONTINUOUS
10
0.2672890157480315
20
2.0332423622047244
11
0.2711863779527559
21
2.0460902362204725
0
LINE
8
BLACK
6
CONTINUOUS
10
0.2711863779527559
20
2.0460902362204725
11
0.2763242913385827
21
2.0584942519685039
0
LINE
8
BLACK
6
CONTINUOUS
10
0.2763242913385827
20
2.0584942519685039
11
0.2826532677165354
21
2.0703349212598425
0
LINE
8
BLACK
6
CONTINUOUS
10
0.2826532677165354
20
2.0703349212598425
11
0.2901123622047244
21
2.0814982283464567
0
LINE
8
BLACK
6
CONTINUOUS
10
0.2901123622047244
20
2.0814982283464567
11
0.2986297244094488
21
2.0918766535433071
0
LINE
8
BLACK
6
CONTINUOUS
10
0.2986297244094488
20
2.0918766535433071
11
0.3081233464566929
21
2.101370275590551
0
LINE
8
BLACK
6
CONTINUOUS
10
0.3081233464566929
20
2.101370275590551
11
0.3185017716535433
21
2.1098876377952753
0
LINE
8
BLACK
6
CONTINUOUS
10
0.3185017716535433
20
2.1098876377952753
11
0.3296650787401575
21
2.1173467322834645
0
LINE
8
BLACK
6
CONTINUOUS
10
0.3296650787401575
20
2.1173467322834645
11
0.3415057480314961
21
2.1236757086614171
0
LINE
8
BLACK
6
CONTINUOUS
10
0.3415057480314961
20
2.1236757086614171
11
0.3539097637795275
21
2.128813622047244
0
LINE
8
BLACK
6
CONTINUOUS
10
0.3539097637795275
20
2.128813622047244
11
0.3667576377952756
21
2.1327109842519683
0
LINE
8
BLACK
6
CONTINUOUS
10
0.3667576377952756
20
2.1327109842519683
11
0.3799256692913386
21
2.1353302362204722
0
LINE
8
BLACK
6
CONTINUOUS
10
0.3799256692913386
20
2.1353302362204722
11
0.3932870078740157
21
2.136646220472441
0
LINE
8
BLACK
6
CONTINUOUS
10
0.3932870078740157
20
2.136646220472441
11
0.4067129921259842
21
2.136646220472441
0
LINE
8
BLACK
6
CONTINUOUS
10
0.4067129921259842
20
2.136646220472441
11
0.4200743307086614
21
2.1353302362204722
0
LINE
8
BLACK
6
CONTINUOUS
10
0.2651574803149606
20
1.9933756299212597
11
0.266456062992126
21
1.9801906299212597
0
LINE
8
BLACK
6
CONTINUOUS
10
0.266456062992126
20
1.9801906299212597
11
0.2690407874015748
21
1.9671964173228347
0
LINE
8
BLACK
6
CONTINUOUS
10
0.2690407874015748
20
1.9671964173228347
11
0.2728866929133858
21
1.9545181496062991
0
LINE
8
BLACK
6
CONTINUOUS
10
0.2728866929133858
20
1.9545181496062991
11
0.2779567716535433
21
1.942277874015748
0
LINE
8
BLACK
6
CONTINUOUS
10
0.2779567716535433
20
1.942277874015748
11
0.2842022047244094
21
1.9305934645669292
0
LINE
8
BLACK
6
CONTINUOUS
10
0.2842022047244094
20
1.9305934645669292
11
0.2915628346456693
21
1.9195775196850393
0
LINE
8
BLACK
6
CONTINUOUS
10
0.2915628346456693
20
1.9195775196850393
11
0.2999677952755905
21
1.9093360629921259
0
LINE
8
BLACK
6
CONTINUOUS
10
0.2999677952755905
20
1.9093360629921259
11
0.309336062992126
21
1.8999677952755905
0
LINE
8
BLACK
6
CONTINUOUS
10
0.309336062992126
20
1.8999677952755905
11
0.3195775196850393
21
1.8915628346456692
0
LINE
8
BLACK
6
CONTINUOUS
10
0.3195775196850393
20
1.8915628346456692
11
0.3305934645669291
21
1.8842022047244094
0
LINE
8
BLACK
6
CONTINUOUS
10
0.3305934645669291
20
1.8842022047244094
11
0.342277874015748
21
1.8779567716535432
0
LINE
8
BLACK
6
CONTINUOUS
10
0.342277874015748
20
1.8779567716535432
11
0.3545181496062992
21
1.8728866929133858
0
LINE
8
BLACK
6
CONTINUOUS
10
0.3545181496062992
20
1.8728866929133858
11
0.3671964173228346
21
1.8690407874015749
0
LINE
8
BLACK
6
CONTINUOUS
10
0.3671964173228346
20
1.8690407874015749
11
0.3801906299212598
21
1.8664560629921259
0
LINE
8
BLACK
6
CONTINUOUS
10
0.3801906299212598
20
1.8664560629921259
11
0.3933756299212599
21
1.8651574803149606
0
LINE
8
BLACK
6
CONTINUOUS
10
0.3933756299212599
20
1.8651574803149606
11
0.4066243700787401
21
1.8651574803149606
0
LINE
8
BLACK
6
CONTINUOUS
10
0.4066243700787401
20
1.8651574803149606
11
0.4198093700787401
21
1.8664560629921259
0
LINE
8
BLACK
6
CONTINUOUS
10
0.4198093700787401
20
1.8664560629921259
11
0.4328035826771653
21
1.8690407874015749
0
LINE
8
BLACK
6
CONTINUOUS
10
0.4328035826771653
20
1.8690407874015749
11
0.4454818503937008
21
1.8728866929133858
0
LINE
8
BLACK
6
CONTINUOUS
10
0.4454818503937008
20
1.8728866929133858
11
0.4577221259842519
21
1.8779567716535432
0
LINE
8
BLACK
6
CONTINUOUS
10
0.4577221259842519
20
1.8779567716535432
11
0.4694065354330709
21
1.8842022047244094
0
LINE
8
BLACK
6
CONTINUOUS
10
0.4694065354330709
20
1.8842022047244094
11
0.4804224803149606
21
1.8915628346456692
0
LINE
8
BLACK
6
CONTINUOUS
10
0.4804224803149606
20
1.8915628346456692
11
0.490663937007874
21
1.8999677952755905
0
LINE
8
BLACK
6
CONTINUOUS
10
0.490663937007874
20
1.8999677952755905
11
0.5000322047244095
21
1.9093360629921259
0
LINE
8
BLACK
6
CONTINUOUS
10
0.5000322047244095
20
1.9093360629921259
11
0.5084371653543307
21
1.9195775196850393
0
LINE
8
BLACK
6
CONTINUOUS
10
0.5084371653543307
20
1.9195775196850393
11
0.5157977952755906
21
1.9305934645669292
0
LINE
8
BLACK
6
CONTINUOUS
10
0.5157977952755906
20
1.9305934645669292
11
0.5220432283464567
21
1.942277874015748
0
LINE
8
BLACK
6
CONTINUOUS
10
0.5220432283464567
20
1.942277874015748
11
0.5271133070866142
21
1.9545181496062991
0
LINE
8
BLACK
6
CONTINUOUS
10
0.5271133070866142
20
1.9545181496062991
11
0.5309592125984252
21
1.9671964173228347
0
LINE
8
BLACK
6
CONTINUOUS
10
0.5309592125984252
20
1.9671964173228347
11
0.5335439370078741
21
1.9801906299212597
0
LINE
8
BLACK
6
CONTINUOUS
10
0.5335439370078741
20
1.9801906299212597
11
0.5348425196850394
21
1.9933756299212597
0
LINE
8
BLACK
6
CONTINUOUS
10
0.5348425196850394
20
1.9933756299212597
11
0.5348425196850394
21
2.0066243700787401
0
LINE
8
BLACK
6
CONTINUOUS
10
0.5348425196850394
20
2.0066243700787401
11
0.5335439370078741
21
2.0198093700787401
0
LINE
8
BLACK
6
CONTINUOUS
10
0.5335439370078741
20
2.0198093700787401
11
0.5309592125984252
21
2.0328035826771651
0
LINE
8
BLACK
6
CONTINUOUS
10
0.5309592125984252
20
2.0328035826771651
11
0.5271133070866142
21
2.0454818503937009
0
LINE
8
BLACK
6
CONTINUOUS
10
0.5271133070866142
20
2.0454818503937009
11
0.5220432283464567
21
2.057722125984252
0
LINE
8
BLACK
6
CONTINUOUS
10
0.5220432283464567
20
2.057722125984252
11
0.5157977952755906
21
2.0694065354330706
0
LINE
8
BLACK
6
CONTINUOUS
10
0.5157977952755906
20
2.0694065354330706
11
0.5084371653543307
21
2.0804224803149607
0
LINE
8
BLACK
6
CONTINUOUS
10
0.5084371653543307
20
2.0804224803149607
11
0.5000322047244095
21
2.0906639370078741
0
LINE
8
BLACK
6
CONTINUOUS
10
0.5000322047244095
20
2.0906639370078741
11
0.490663937007874
21
2.1000322047244095
0
LINE
8
BLACK
6
CONTINUOUS
10
0.490663937007874
20
2.1000322047244095
11
0.4804224803149606
21
2.1084371653543306
0
LINE
8
BLACK
6
CONTINUOUS
10
0.4804224803149606
20
2.1084371653543306
11
0.4694065354330709
21
2.1157977952755904
0
LINE
8
BLACK
6
CONTINUOUS
10
0.4694065354330709
20
2.1157977952755904
11
0.4577221259842519
21
2.1220432283464565
0
LINE
8
BLACK
6
CONTINUOUS
10
0.4577221259842519
20
2.1220432283464565
11
0.4454818503937008
21
2.1271133070866139
0
LINE
8
BLACK
6
CONTINUOUS
10
0.4454818503937008
20
2.1271133070866139
11
0.4328035826771653
21
2.1309592125984254
0
LINE
8
BLACK
6
CONTINUOUS
10
0.4328035826771653
20
2.1309592125984254
11
0.4198093700787401
21
2.1335439370078739
0
LINE
8
BLACK
6
CONTINUOUS
10
0.4198093700787401
20
2.1335439370078739
11
0.4066243700787401
21
2.1348425196850394
0
LINE
8
BLACK
6
CONTINUOUS
10
0.4066243700787401
20
2.1348425196850394
11
0.3933756299212599
21
2.1348425196850394
0
LINE
8
BLACK
6
CONTINUOUS
10
0.3933756299212599
20
2.1348425196850394
11
0.3801906299212598
21
2.1335439370078739
0
LINE
8
BLACK
6
CONTINUOUS
10
0.3801906299212598
20
2.1335439370078739
11
0.3671964173228346
21
2.1309592125984254
0
LINE
8
BLACK
6
CONTINUOUS
10
0.3671964173228346
20
2.1309592125984254
11
0.3545181496062992
21
2.1271133070866139
0
LINE
8
BLACK
6
CONTINUOUS
10
0.3545181496062992
20
2.1271133070866139
11
0.342277874015748
21
2.1220432283464565
0
LINE
8
BLACK
6
CONTINUOUS
10
0.342277874015748
20
2.1220432283464565
11
0.3305934645669291
21
2.1157977952755904
0
LINE
8
BLACK
6
CONTINUOUS
10
0.3305934645669291
20
2.1157977952755904
11
0.3195775196850393
21
2.1084371653543306
0
LINE
8
BLACK
6
CONTINUOUS
10
0.3195775196850393
20
2.1084371653543306
11
0.309336062992126
21
2.1000322047244095
0
LINE
8
BLACK
6
CONTINUOUS
10
0.309336062992126
20
2.1000322047244095
11
0.2999677952755905
21
2.0906639370078741
0
LINE
8
BLACK
6
CONTINUOUS
10
0.2999677952755905
20
2.0906639370078741
11
0.2915628346456693
21
2.0804224803149607
0
LINE
8
BLACK
6
CONTINUOUS
10
0.2915628346456693
20
2.0804224803149607
11
0.2842022047244094
21
2.0694065354330706
0
LINE
8
BLACK
6
CONTINUOUS
10
0.2842022047244094
20
2.0694065354330706
11
0.2779567716535433
21
2.057722125984252
0
LINE
8
BLACK
6
CONTINUOUS
10
0.2779567716535433
20
2.057722125984252
11
0.2728866929133858
21
2.0454818503937009
0
LINE
8
BLACK
6
CONTINUOUS
10
0.2728866929133858
20
2.0454818503937009
11
0.2690407874015748
21
2.0328035826771651
0
LINE
8
BLACK
6
CONTINUOUS
10
0.2690407874015748
20
2.0328035826771651
11
0.266456062992126
21
2.0198093700787401
0
LINE
8
BLACK
6
CONTINUOUS
10
0.266456062992126
20
2.0198093700787401
11
0.2651574803149606
21
2.0066243700787401
0
LINE
8
BLACK
6
CONTINUOUS
10
0.2651574803149606
20
2.0066243700787401
11
0.2651574803149606
21
1.9933756299212597
0
LINE
8
BLACK
6
CONTINUOUS
10
2.4200743307086614
20
2.1353302362204722
11
2.4332423622047243
21
2.1327109842519683
0
LINE
8
BLACK
6
CONTINUOUS
10
2.4332423622047243
20
2.1327109842519683
11
2.4460902362204724
21
2.128813622047244
0
LINE
8
BLACK
6
CONTINUOUS
10
2.4460902362204724
20
2.128813622047244
11
2.4584942519685038
21
2.1236757086614171
0
LINE
8
BLACK
6
CONTINUOUS
10
2.4584942519685038
20
2.1236757086614171
11
2.4703349212598424
21
2.1173467322834645
0
LINE
8
BLACK
6
CONTINUOUS
10
2.4703349212598424
20
2.1173467322834645
11
2.4814982283464566
21
2.1098876377952753
0
LINE
8
BLACK
6
CONTINUOUS
10
2.4814982283464566
20
2.1098876377952753
11
2.491876653543307
21
2.101370275590551
0
LINE
8
BLACK
6
CONTINUOUS
10
2.491876653543307
20
2.101370275590551
11
2.5013702755905509
21
2.0918766535433071
0
LINE
8
BLACK
6
CONTINUOUS
10
2.5013702755905509
20
2.0918766535433071
11
2.5098876377952757
21
2.0814982283464567
0
LINE
8
BLACK
6
CONTINUOUS
10
2.5098876377952757
20
2.0814982283464567
11
2.5173467322834644
21
2.0703349212598425
0
LINE
8
BLACK
6
CONTINUOUS
10
2.5173467322834644
20
2.0703349212598425
11
2.5236757086614174
21
2.0584942519685039
0
LINE
8
BLACK
6
CONTINUOUS
10
2.5236757086614174
20
2.0584942519685039
11
2.5288136220472439
21
2.0460902362204725
0
LINE
8
BLACK
6
CONTINUOUS
10
2.5288136220472439
20
2.0460902362204725
11
2.5327109842519686
21
2.0332423622047244
0
LINE
8
BLACK
6
CONTINUOUS
10
2.5327109842519686
20
2.0332423622047244
11
2.5353302362204726
21
2.0200743307086615
0
LINE
8
BLACK
6
CONTINUOUS
10
2.5353302362204726
20
2.0200743307086615
11
2.5366462204724409
21
2.0067129921259843
0
LINE
8
BLACK
6
CONTINUOUS
10
2.5366462204724409
20
2.0067129921259843
11
2.5366462204724409
21
1.9932870078740157
0
LINE
8
BLACK
6
CONTINUOUS
10
2.5366462204724409
20
1.9932870078740157
11
2.5353302362204726
21
1.9799256692913385
0
LINE
8
BLACK
6
CONTINUOUS
10
2.5353302362204726
20
1.9799256692913385
11
2.5327109842519686
21
1.9667576377952756
0
LINE
8
BLACK
6
CONTINUOUS
10
2.5327109842519686
20
1.9667576377952756
11
2.5288136220472439
21
1.9539097637795275
0
LINE
8
BLACK
6
CONTINUOUS
10
2.5288136220472439
20
1.9539097637795275
11
2.5236757086614174
21
1.9415057480314961
0
LINE
8
BLACK
6
CONTINUOUS
10
2.5236757086614174
20
1.9415057480314961
11
2.5173467322834644
21
1.9296650787401575
0
LINE
8
BLACK
6
CONTINUOUS
10
2.5173467322834644
20
1.9296650787401575
11
2.5098876377952757
21
1.9185017716535433
0
LINE
8
BLACK
6
CONTINUOUS
10
2.5098876377952757
20
1.9185017716535433
11
2.5013702755905509
21
1.9081233464566929
0
LINE
8
BLACK
6
CONTINUOUS
10
2.5013702755905509
20
1.9081233464566929
11
2.491876653543307
21
1.8986297244094488
0
LINE
8
BLACK
6
CONTINUOUS
10
2.491876653543307
20
1.8986297244094488
11
2.4814982283464566
21
1.8901123622047244
0
LINE
8
BLACK
6
CONTINUOUS
10
2.4814982283464566
20
1.8901123622047244
11
2.4703349212598424
21
1.8826532677165353
0
LINE
8
BLACK
6
CONTINUOUS
10
2.4703349212598424
20
1.8826532677165353
11
2.4584942519685038
21
1.8763242913385827
0
LINE
8
BLACK
6
CONTINUOUS
10
2.4584942519685038
20
1.8763242913385827
11
2.4460902362204724
21
1.8711863779527558
0
LINE
8
BLACK
6
CONTINUOUS
10
2.4460902362204724
20
1.8711863779527558
11
2.4332423622047243
21
1.8672890157480315
0
LINE
8
BLACK
6
CONTINUOUS
10
2.4332423622047243
20
1.8672890157480315
11
2.4200743307086614
21
1.8646697637795275
0
LINE
8
BLACK
6
CONTINUOUS
10
2.4200743307086614
20
1.8646697637795275
11
2.4067129921259842
21
1.863353779527559
0
LINE
8
BLACK
6
CONTINUOUS
10
2.4067129921259842
20
1.863353779527559
11
2.3932870078740156
21
1.863353779527559
0
LINE
8
BLACK
6
CONTINUOUS
10
2.3932870078740156
20
1.863353779527559
11
2.3799256692913384
21
1.8646697637795275
0
LINE
8
BLACK
6
CONTINUOUS
10
2.3799256692913384
20
1.8646697637795275
11
2.3667576377952755
21
1.8672890157480315
0
LINE
8
BLACK
6
CONTINUOUS
10
2.3667576377952755
20
1.8672890157480315
11
2.3539097637795274
21
1.8711863779527558
0
LINE
8
BLACK
6
CONTINUOUS
10
2.3539097637795274
20
1.8711863779527558
11
2.341505748031496
21
1.8763242913385827
0
LINE
8
BLACK
6
CONTINUOUS
10
2.341505748031496
20
1.8763242913385827
11
2.3296650787401574
21
1.8826532677165353
0
LINE
8
BLACK
6
CONTINUOUS
10
2.3296650787401574
20
1.8826532677165353
11
2.3185017716535432
21
1.8901123622047244
0
LINE
8
BLACK
6
CONTINUOUS
10
2.3185017716535432
20
1.8901123622047244
11
2.3081233464566928
21
1.8986297244094488
0
LINE
8
BLACK
6
CONTINUOUS
10
2.3081233464566928
20
1.8986297244094488
11
2.2986297244094489
21
1.9081233464566929
0
LINE
8
BLACK
6
CONTINUOUS
10
2.2986297244094489
20
1.9081233464566929
11
2.2901123622047241
21
1.9185017716535433
0
LINE
8
BLACK
6
CONTINUOUS
10
2.2901123622047241
20
1.9185017716535433
11
2.2826532677165354
21
1.9296650787401575
0
LINE
8
BLACK
6
CONTINUOUS
10
2.2826532677165354
20
1.9296650787401575
11
2.2763242913385828
21
1.9415057480314961
0
LINE
8
BLACK
6
CONTINUOUS
10
2.2763242913385828
20
1.9415057480314961
11
2.2711863779527559
21
1.9539097637795275
0
LINE
8
BLACK
6
CONTINUOUS
10
2.2711863779527559
20
1.9539097637795275
11
2.2672890157480317
21
1.9667576377952756
0
LINE
8
BLACK
6
CONTINUOUS
10
2.2672890157480317
20
1.9667576377952756
11
2.2646697637795277
21
1.9799256692913385
0
LINE
8
BLACK
6
CONTINUOUS
10
2.2646697637795277
20
1.9799256692913385
11
2.2633537795275589
21
1.9932870078740157
0
LINE
8
BLACK
6
CONTINUOUS
10
2.2633537795275589
20
1.9932870078740157
11
2.2633537795275589
21
2.0066243700787401
0
LINE
8
BLACK
6
CONTINUOUS
10
2.2633537795275589
20
2.0066243700787401
11
2.2633537795275589
21
2.0067129921259843
0
LINE
8
BLACK
6
CONTINUOUS
10
2.2633537795275589
20
2.0067129921259843
11
2.2646697637795277
21
2.0200743307086615
0
LINE
8
BLACK
6
CONTINUOUS
10
2.2646697637795277
20
2.0200743307086615
11
2.2672890157480317
21
2.0332423622047244
0
LINE
8
BLACK
6
CONTINUOUS
10
2.2672890157480317
20
2.0332423622047244
11
2.2711863779527559
21
2.0460902362204725
0
LINE
8
BLACK
6
CONTINUOUS
10
2.2711863779527559
20
2.0460902362204725
11
2.2763242913385828
21
2.0584942519685039
0
LINE
8
BLACK
6
CONTINUOUS
10
2.2763242913385828
20
2.0584942519685039
11
2.2826532677165354
21
2.0703349212598425
0
LINE
8
BLACK
6
CONTINUOUS
10
2.2826532677165354
20
2.0703349212598425
11
2.2901123622047241
21
2.0814982283464567
0
LINE
8
BLACK
6
CONTINUOUS
10
2.2901123622047241
20
2.0814982283464567
11
2.2986297244094489
21
2.0918766535433071
0
LINE
8
BLACK
6
CONTINUOUS
10
2.2986297244094489
20
2.0918766535433071
11
2.3081233464566928
21
2.101370275590551
0
LINE
8
BLACK
6
CONTINUOUS
10
2.3081233464566928
20
2.101370275590551
11
2.3185017716535432
21
2.1098876377952753
0
LINE
8
BLACK
6
CONTINUOUS
10
2.3185017716535432
20
2.1098876377952753
11
2.3296650787401574
21
2.1173467322834645
0
LINE
8
BLACK
6
CONTINUOUS
10
2.3296650787401574
20
2.1173467322834645
11
2.341505748031496
21
2.1236757086614171
0
LINE
8
BLACK
6
CONTINUOUS
10
2.341505748031496
20
2.1236757086614171
11
2.3539097637795274
21
2.128813622047244
0
LINE
8
BLACK
6
CONTINUOUS
10
2.3539097637795274
20
2.128813622047244
11
2.3667576377952755
21
2.1327109842519683
0
LINE
8
BLACK
6
CONTINUOUS
10
2.3667576377952755
20
2.1327109842519683
11
2.3799256692913384
21
2.1353302362204722
0
LINE
8
BLACK
6
CONTINUOUS
10
2.3799256692913384
20
2.1353302362204722
11
2.3932870078740156
21
2.136646220472441
0
LINE
8
BLACK
6
CONTINUOUS
10
2.3932870078740156
20
2.136646220472441
11
2.4067129921259842
21
2.136646220472441
0
LINE
8
BLACK
6
CONTINUOUS
10
2.4067129921259842
20
2.136646220472441
11
2.4200743307086614
21
2.1353302362204722
0
LINE
8
BLACK
6
CONTINUOUS
10
2.2651574803149606
20
1.9933756299212597
11
2.266456062992126
21
1.9801906299212597
0
LINE
8
BLACK
6
CONTINUOUS
10
2.266456062992126
20
1.9801906299212597
11
2.2690407874015746
21
1.9671964173228347
0
LINE
8
BLACK
6
CONTINUOUS
10
2.2690407874015746
20
1.9671964173228347
11
2.272886692913386
21
1.9545181496062991
0
LINE
8
BLACK
6
CONTINUOUS
10
2.272886692913386
20
1.9545181496062991
11
2.2779567716535434
21
1.942277874015748
0
LINE
8
BLACK
6
CONTINUOUS
10
2.2779567716535434
20
1.942277874015748
11
2.2842022047244095
21
1.9305934645669292
0
LINE
8
BLACK
6
CONTINUOUS
10
2.2842022047244095
20
1.9305934645669292
11
2.2915628346456693
21
1.9195775196850393
0
LINE
8
BLACK
6
CONTINUOUS
10
2.2915628346456693
20
1.9195775196850393
11
2.2999677952755904
21
1.9093360629921259
0
LINE
8
BLACK
6
CONTINUOUS
10
2.2999677952755904
20
1.9093360629921259
11
2.3093360629921258
21
1.8999677952755905
0
LINE
8
BLACK
6
CONTINUOUS
10
2.3093360629921258
20
1.8999677952755905
11
2.3195775196850392
21
1.8915628346456692
0
LINE
8
BLACK
6
CONTINUOUS
10
2.3195775196850392
20
1.8915628346456692
11
2.3305934645669293
21
1.8842022047244094
0
LINE
8
BLACK
6
CONTINUOUS
10
2.3305934645669293
20
1.8842022047244094
11
2.3422778740157479
21
1.8779567716535432
0
LINE
8
BLACK
6
CONTINUOUS
10
2.3422778740157479
20
1.8779567716535432
11
2.354518149606299
21
1.8728866929133858
0
LINE
8
BLACK
6
CONTINUOUS
10
2.354518149606299
20
1.8728866929133858
11
2.3671964173228348
21
1.8690407874015749
0
LINE
8
BLACK
6
CONTINUOUS
10
2.3671964173228348
20
1.8690407874015749
11
2.3801906299212598
21
1.8664560629921259
0
LINE
8
BLACK
6
CONTINUOUS
10
2.3801906299212598
20
1.8664560629921259
11
2.3933756299212599
21
1.8651574803149606
0
LINE
8
BLACK
6
CONTINUOUS
10
2.3933756299212599
20
1.8651574803149606
11
2.40662437007874
21
1.8651574803149606
0
LINE
8
BLACK
6
CONTINUOUS
10
2.40662437007874
20
1.8651574803149606
11
2.41980937007874
21
1.8664560629921259
0
LINE
8
BLACK
6
CONTINUOUS
10
2.41980937007874
20
1.8664560629921259
11
2.4328035826771655
21
1.8690407874015749
0
LINE
8
BLACK
6
CONTINUOUS
10
2.4328035826771655
20
1.8690407874015749
11
2.4454818503937008
21
1.8728866929133858
0
LINE
8
BLACK
6
CONTINUOUS
10
2.4454818503937008
20
1.8728866929133858
11
2.4577221259842519
21
1.8779567716535432
0
LINE
8
BLACK
6
CONTINUOUS
10
2.4577221259842519
20
1.8779567716535432
11
2.469406535433071
21
1.8842022047244094
0
LINE
8
BLACK
6
CONTINUOUS
10
2.469406535433071
20
1.8842022047244094
11
2.4804224803149606
21
1.8915628346456692
0
LINE
8
BLACK
6
CONTINUOUS
10
2.4804224803149606
20
1.8915628346456692
11
2.490663937007874
21
1.8999677952755905
0
LINE
8
BLACK
6
CONTINUOUS
10
2.490663937007874
20
1.8999677952755905
11
2.5000322047244095
21
1.9093360629921259
0
LINE
8
BLACK
6
CONTINUOUS
10
2.5000322047244095
20
1.9093360629921259
11
2.5084371653543305
21
1.9195775196850393
0
LINE
8
BLACK
6
CONTINUOUS
10
2.5084371653543305
20
1.9195775196850393
11
2.5157977952755903
21
1.9305934645669292
0
LINE
8
BLACK
6
CONTINUOUS
10
2.5157977952755903
20
1.9305934645669292
11
2.5220432283464564
21
1.942277874015748
0
LINE
8
BLACK
6
CONTINUOUS
10
2.5220432283464564
20
1.942277874015748
11
2.5271133070866143
21
1.9545181496062991
0
LINE
8
BLACK
6
CONTINUOUS
10
2.5271133070866143
20
1.9545181496062991
11
2.5309592125984253
21
1.9671964173228347
0
LINE
8
BLACK
6
CONTINUOUS
10
2.5309592125984253
20
1.9671964173228347
11
2.5335439370078738
21
1.9801906299212597
0
LINE
8
BLACK
6
CONTINUOUS
10
2.5335439370078738
20
1.9801906299212597
11
2.5348425196850393
21
1.9933756299212597
0
LINE
8
BLACK
6
CONTINUOUS
10
2.5348425196850393
20
1.9933756299212597
11
2.5348425196850393
21
2.0066243700787401
0
LINE
8
BLACK
6
CONTINUOUS
10
2.5348425196850393
20
2.0066243700787401
11
2.5335439370078738
21
2.0198093700787401
0
LINE
8
BLACK
6
CONTINUOUS
10
2.5335439370078738
20
2.0198093700787401
11
2.5309592125984253
21
2.0328035826771651
0
LINE
8
BLACK
6
CONTINUOUS
10
2.5309592125984253
20
2.0328035826771651
11
2.5271133070866143
21
2.0454818503937009
0
LINE
8
BLACK
6
CONTINUOUS
10
2.5271133070866143
20
2.0454818503937009
11
2.5220432283464564
21
2.057722125984252
0
LINE
8
BLACK
6
CONTINUOUS
10
2.5220432283464564
20
2.057722125984252
11
2.5157977952755903
21
2.0694065354330706
0
LINE
8
BLACK
6
CONTINUOUS
10
2.5157977952755903
20
2.0694065354330706
11
2.5084371653543305
21
2.0804224803149607
0
LINE
8
BLACK
6
CONTINUOUS
10
2.5084371653543305
20
2.0804224803149607
11
2.5000322047244095
21
2.0906639370078741
0
LINE
8
BLACK
6
CONTINUOUS
10
2.5000322047244095
20
2.0906639370078741
11
2.490663937007874
21
2.1000322047244095
0
LINE
8
BLACK
6
CONTINUOUS
10
2.490663937007874
20
2.1000322047244095
11
2.4804224803149606
21
2.1084371653543306
0
LINE
8
BLACK
6
CONTINUOUS
10
2.4804224803149606
20
2.1084371653543306
11
2.469406535433071
21
2.1157977952755904
0
LINE
8
BLACK
6
CONTINUOUS
10
2.469406535433071
20
2.1157977952755904
11
2.4577221259842519
21
2.1220432283464565
0
LINE
8
BLACK
6
CONTINUOUS
10
2.4577221259842519
20
2.1220432283464565
11
2.4454818503937008
21
2.1271133070866139
0
LINE
8
BLACK
6
CONTINUOUS
10
2.4454818503937008
20
2.1271133070866139
11
2.4328035826771655
21
2.1309592125984254
0
LINE
8
BLACK
6
CONTINUOUS
10
2.4328035826771655
20
2.1309592125984254
11
2.41980937007874
21
2.1335439370078739
0
LINE
8
BLACK
6
CONTINUOUS
10
2.41980937007874
20
2.1335439370078739
11
2.40662437007874
21
2.1348425196850394
0
LINE
8
BLACK
6
CONTINUOUS
10
2.40662437007874
20
2.1348425196850394
11
2.3933756299212599
21
2.1348425196850394
0
LINE
8
BLACK
6
CONTINUOUS
10
2.3933756299212599
20
2.1348425196850394
11
2.3801906299212598
21
2.1335439370078739
0
LINE
8
BLACK
6
CONTINUOUS
10
2.3801906299212598
20
2.1335439370078739
11
2.3671964173228348
21
2.1309592125984254
0
LINE
8
BLACK
6
CONTINUOUS
10
2.3671964173228348
20
2.1309592125984254
11
2.354518149606299
21
2.1271133070866139
0
LINE
8
BLACK
6
CONTINUOUS
10
2.354518149606299
20
2.1271133070866139
11
2.3422778740157479
21
2.1220432283464565
0
LINE
8
BLACK
6
CONTINUOUS
10
2.3422778740157479
20
2.1220432283464565
11
2.3305934645669293
21
2.1157977952755904
0
LINE
8
BLACK
6
CONTINUOUS
10
2.3305934645669293
20
2.1157977952755904
11
2.3195775196850392
21
2.1084371653543306
0
LINE
8
BLACK
6
CONTINUOUS
10
2.3195775196850392
20
2.1084371653543306
11
2.3093360629921258
21
2.1000322047244095
0
LINE
8
BLACK
6
CONTINUOUS
10
2.3093360629921258
20
2.1000322047244095
11
2.2999677952755904
21
2.0906639370078741
0
LINE
8
BLACK
6
CONTINUOUS
10
2.2999677952755904
20
2.0906639370078741
11
2.2915628346456693
21
2.0804224803149607
0
LINE
8
BLACK
6
CONTINUOUS
10
2.2915628346456693
20
2.0804224803149607
11
2.2842022047244095
21
2.0694065354330706
0
LINE
8
BLACK
6
CONTINUOUS
10
2.2842022047244095
20
2.0694065354330706
11
2.2779567716535434
21
2.057722125984252
0
LINE
8
BLACK
6
CONTINUOUS
10
2.2779567716535434
20
2.057722125984252
11
2.272886692913386
21
2.0454818503937009
0
LINE
8
BLACK
6
CONTINUOUS
10
2.272886692913386
20
2.0454818503937009
11
2.2690407874015746
21
2.0328035826771651
0
LINE
8
BLACK
6
CONTINUOUS
10
2.2690407874015746
20
2.0328035826771651
11
2.266456062992126
21
2.0198093700787401
0
LINE
8
BLACK
6
CONTINUOUS
10
2.266456062992126
20
2.0198093700787401
11
2.2651574803149606
21
2.0066243700787401
0
LINE
8
BLACK
6
CONTINUOUS
10
2.2651574803149606
20
2.0066243700787401
11
2.2651574803149606
21
1.9933756299212597
0
CIRCLE
8
BLACK
10
2.3055118110236221
20
0.4
40
0.0068897637795276
0
CIRCLE
8
BLACK
10
2.3331867716535433
20
0.4668132283464567
40
0.0068897637795276
0
CIRCLE
8
BLACK
10
2.3331867716535433
20
0.3331867716535433
40
0.0068897637795276
0
CIRCLE
8
BLACK
10
2.3999999999999999
20
0.4944881889763779
40
0.0068897637795276
0
CIRCLE
8
BLACK
10
2.3999999999999999
20
0.4
40
0.0068897637795276
0
CIRCLE
8
BLACK
10
2.3999999999999999
20
0.305511811023622
40
0.0068897637795276
0
CIRCLE
8
BLACK
10
2.4668132283464566
20
0.4668132283464567
40
0.0068897637795276
0
CIRCLE
8
BLACK
10
2.4668132283464566
20
0.3331867716535433
40
0.0068897637795276
0
CIRCLE
8
BLACK
10
2.4944881889763777
20
0.4
40
0.0068897637795276
0
CIRCLE
8
BLACK
10
1.6299212204724409
20
0.6204724409448819
40
0.0068897637795276
0
CIRCLE
8
BLACK
10
1.5299212204724408
20
0.6204724409448819
40
0.0068897637795276
0
CIRCLE
8
BLACK
10
1.6299212598425197
20
0.7204724409448818
40
0.0068897637795276
0
CIRCLE
8
BLACK
10
1.5299211811023621
20
0.7204724409448818
40
0.0068897637795276
0
CIRCLE
8
BLACK
10
1.6299212204724409
20
0.8204724409448819
40
0.0068897637795276
0
CIRCLE
8
BLACK
10
1.5299212204724408
20
0.8204724409448819
40
0.0068897637795276
0
CIRCLE
8
BLACK
10
0.8267716141732283
20
0.6204724409448819
40
0.0068897637795276
0
CIRCLE
8
BLACK
10
0.7267716141732283
20
0.6204724409448819
40
0.0068897637795276
0
CIRCLE
8
BLACK
10
0.8267716535433071
20
0.7204724409448818
40
0.0068897637795276
0
CIRCLE
8
BLACK
10
0.7267715748031496
20
0.7204724409448818
40
0.0068897637795276
0
CIRCLE
8
BLACK
10
0.8267716141732283
20
0.8204724409448819
40
0.0068897637795276
0
CIRCLE
8
BLACK
10
0.7267716141732283
20
0.8204724409448819
40
0.0068897637795276
0
CIRCLE
8
BLACK
10
0.305511811023622
20
0.4
40
0.0068897637795276
0
CIRCLE
8
BLACK
10
0.3331867716535433
20
0.4668132283464567
40
0.0068897637795276
0
CIRCLE
8
BLACK
10
0.3331867716535433
20
0.3331867716535433
40
0.0068897637795276
0
CIRCLE
8
BLACK
10
0.4
20
0.4944881889763779
40
0.0068897637795276
0
CIRCLE
8
BLACK
10
0.4
20
0.4
40
0.0068897637795276
0
CIRCLE
8
BLACK
10
0.4
20
0.305511811023622
40
0.0068897637795276
0
CIRCLE
8
BLACK
10
0.4668132283464567
20
0.4668132283464567
40
0.0068897637795276
0
CIRCLE
8
BLACK
10
0.4668132283464567
20
0.3331867716535433
40
0.0068897637795276
0
CIRCLE
8
BLACK
10
0.4944881889763779
20
0.4
40
0.0068897637795276
0
CIRCLE
8
BLACK
10
0.305511811023622
20
2.
40
0.0068897637795276
0
CIRCLE
8
BLACK
10
0.3331867716535433
20
2.0668132283464566
40
0.0068897637795276
0
CIRCLE
8
BLACK
10
0.3331867716535433
20
1.9331867716535434
40
0.0068897637795276
0
CIRCLE
8
BLACK
10
0.4
20
2.0944881889763778
40
0.0068897637795276
0
CIRCLE
8
BLACK
10
0.4
20
2.
40
0.0068897637795276
0
CIRCLE
8
BLACK
10
0.4
20
1.905511811023622
40
0.0068897637795276
0
CIRCLE
8
BLACK
10
0.4668132283464567
20
2.0668132283464566
40
0.0068897637795276
0
CIRCLE
8
BLACK
10
0.4668132283464567
20
1.9331867716535434
40
0.0068897637795276
0
CIRCLE
8
BLACK
10
0.4944881889763779
20
2.
40
0.0068897637795276
0
CIRCLE
8
BLACK
10
1.7283464566929134
20
0.4318897637795275
40
0.0068897637795276
0
CIRCLE
8
BLACK
10
1.7283464566929134
20
0.3318897637795276
40
0.0068897637795276
0
CIRCLE
8
BLACK
10
1.6283464566929133
20
0.4318897637795275
40
0.0068897637795276
0
CIRCLE
8
BLACK
10
1.6283464566929133
20
0.3318897637795276
40
0.0068897637795276
0
CIRCLE
8
BLACK
10
1.5283464566929132
20
0.4318897637795275
40
0.0068897637795276
0
CIRCLE
8
BLACK
10
1.5283464566929132
20
0.3318897637795276
40
0.0068897637795276
0
CIRCLE
8
BLACK
10
1.4283464566929134
20
0.4318898031496063
40
0.0068897637795276
0
CIRCLE
8
BLACK
10
1.4283464566929134
20
0.3318897244094488
40
0.0068897637795276
0
CIRCLE
8
BLACK
10
1.3283464566929133
20
0.4318897637795275
40
0.0068897637795276
0
CIRCLE
8
BLACK
10
1.3283464566929133
20
0.3318897637795276
40
0.0068897637795276
0
CIRCLE
8
BLACK
10
1.2283464566929134
20
0.4318897637795275
40
0.0068897637795276
0
CIRCLE
8
BLACK
10
1.2283464566929134
20
0.3318897637795276
40
0.0068897637795276
0
CIRCLE
8
BLACK
10
1.1283464566929133
20
0.4318897637795275
40
0.0068897637795276
0
CIRCLE
8
BLACK
10
1.1283464566929133
20
0.3318897637795276
40
0.0068897637795276
0
CIRCLE
8
BLACK
10
1.0283464566929135
20
0.4318897637795275
40
0.0068897637795276
0
CIRCLE
8
BLACK
10
1.0283464566929135
20
0.3318897637795276
40
0.0068897637795276
0
CIRCLE
8
BLACK
10
0.9283464566929134
20
0.4318898031496063
40
0.0068897637795276
0
CIRCLE
8
BLACK
10
0.9283464566929134
20
0.3318897244094488
40
0.0068897637795276
0
CIRCLE
8
BLACK
10
0.8283464566929134
20
0.4318897637795275
40
0.0068897637795276
0
CIRCLE
8
BLACK
10
0.8283464566929134
20
0.3318897637795276
40
0.0068897637795276
0
CIRCLE
8
BLACK
10
0.7283464566929134
20
0.4318897637795275
40
0.0068897637795276
0
CIRCLE
8
BLACK
10
0.7283464566929134
20
0.3318897637795276
40
0.0068897637795276
0
CIRCLE
8
BLACK
10
0.6283464566929133
20
0.4318897637795275
40
0.0068897637795276
0
CIRCLE
8
BLACK
10
0.6283464566929133
20
0.3318897637795276
40
0.0068897637795276
0
CIRCLE
8
BLACK
10
0.4188976377952756
20
0.6535433070866141
40
0.0068897637795276
0
CIRCLE
8
BLACK
10
0.3188976377952756
20
0.6535433070866141
40
0.0068897637795276
0
CIRCLE
8
BLACK
10
0.4188976377952756
20
0.7535433070866142
40
0.0068897637795276
0
CIRCLE
8
BLACK
10
0.3188976377952756
20
0.7535433070866142
40
0.0068897637795276
0
CIRCLE
8
BLACK
10
0.4188976377952756
20
0.8535433070866142
40
0.0068897637795276
0
CIRCLE
8
BLACK
10
0.3188976377952756
20
0.8535433070866142
40
0.0068897637795276
0
CIRCLE
8
BLACK
10
0.4188976771653543
20
0.9535433070866142
40
0.0068897637795276
0
CIRCLE
8
BLACK
10
0.3188975984251968
20
0.9535433070866142
40
0.0068897637795276
0
CIRCLE
8
BLACK
10
0.4188976377952756
20
1.0535433070866143
40
0.0068897637795276
0
CIRCLE
8
BLACK
10
0.3188976377952756
20
1.0535433070866143
40
0.0068897637795276
0
CIRCLE
8
BLACK
10
0.4188976377952756
20
1.1535433070866141
40
0.0068897637795276
0
CIRCLE
8
BLACK
10
0.3188976377952756
20
1.1535433070866141
40
0.0068897637795276
0
CIRCLE
8
BLACK
10
0.4188976377952756
20
1.2535433070866142
40
0.0068897637795276
0
CIRCLE
8
BLACK
10
0.3188976377952756
20
1.2535433070866142
40
0.0068897637795276
0
CIRCLE
8
BLACK
10
0.4188976377952756
20
1.3535433070866141
40
0.0068897637795276
0
CIRCLE
8
BLACK
10
0.3188976377952756
20
1.3535433070866141
40
0.0068897637795276
0
CIRCLE
8
BLACK
10
0.4188976771653543
20
1.4535433070866142
40
0.0068897637795276
0
CIRCLE
8
BLACK
10
0.3188975984251968
20
1.4535433070866142
40
0.0068897637795276
0
CIRCLE
8
BLACK
10
0.4188976377952756
20
1.553543307086614
40
0.0068897637795276
0
CIRCLE
8
BLACK
10
0.3188976377952756
20
1.553543307086614
40
0.0068897637795276
0
CIRCLE
8
BLACK
10
0.4188976377952756
20
1.6535433070866141
40
0.0068897637795276
0
CIRCLE
8
BLACK
10
0.3188976377952756
20
1.6535433070866141
40
0.0068897637795276
0
CIRCLE
8
BLACK
10
0.4188976377952756
20
1.7535433070866142
40
0.0068897637795276
0
CIRCLE
8
BLACK
10
0.3188976377952756
20
1.7535433070866142
40
0.0068897637795276
0
CIRCLE
8
BLACK
10
2.3622047244094486
20
1.7488188976377952
40
0.0068897637795276
0
CIRCLE
8
BLACK
10
2.4622047244094487
20
1.7488188976377952
40
0.0068897637795276
0
CIRCLE
8
BLACK
10
2.3622047244094486
20
1.6488188976377953
40
0.0068897637795276
0
CIRCLE
8
BLACK
10
2.4622047244094487
20
1.6488188976377953
40
0.0068897637795276
0
CIRCLE
8
BLACK
10
2.3622047244094486
20
1.5488188976377952
40
0.0068897637795276
0
CIRCLE
8
BLACK
10
2.4622047244094487
20
1.5488188976377952
40
0.0068897637795276
0
CIRCLE
8
BLACK
10
2.3622047244094486
20
1.4488188976377951
40
0.0068897637795276
0
CIRCLE
8
BLACK
10
2.4622047244094487
20
1.4488188976377951
40
0.0068897637795276
0
CIRCLE
8
BLACK
10
2.3622047244094486
20
1.3488188976377953
40
0.0068897637795276
0
CIRCLE
8
BLACK
10
2.4622047244094487
20
1.3488188976377953
40
0.0068897637795276
0
CIRCLE
8
BLACK
10
2.3622047244094486
20
1.2488188976377952
40
0.0068897637795276
0
CIRCLE
8
BLACK
10
2.4622047244094487
20
1.2488188976377952
40
0.0068897637795276
0
CIRCLE
8
BLACK
10
2.3622047244094486
20
1.1488188976377953
40
0.0068897637795276
0
CIRCLE
8
BLACK
10
2.4622047244094487
20
1.1488188976377953
40
0.0068897637795276
0
CIRCLE
8
BLACK
10
2.3622047244094486
20
1.0488188976377952
40
0.0068897637795276
0
CIRCLE
8
BLACK
10
2.4622047244094487
20
1.0488188976377952
40
0.0068897637795276
0
CIRCLE
8
BLACK
10
2.3622047244094486
20
0.9488188976377953
40
0.0068897637795276
0
CIRCLE
8
BLACK
10
2.4622047244094487
20
0.9488188976377953
40
0.0068897637795276
0
CIRCLE
8
BLACK
10
2.3622047244094486
20
0.8488188976377953
40
0.0068897637795276
0
CIRCLE
8
BLACK
10
2.4622047244094487
20
0.8488188976377953
40
0.0068897637795276
0
CIRCLE
8
BLACK
10
2.3622047244094486
20
0.7488188976377953
40
0.0068897637795276
0
CIRCLE
8
BLACK
10
2.4622047244094487
20
0.7488188976377953
40
0.0068897637795276
0
CIRCLE
8
BLACK
10
2.3622047244094486
20
0.6488188976377952
40
0.0068897637795276
0
CIRCLE
8
BLACK
10
2.4622047244094487
20
0.6488188976377952
40
0.0068897637795276
0
CIRCLE
8
BLACK
10
2.1535432677165356
20
0.8944881889763779
40
0.0068897637795276
0
CIRCLE
8
BLACK
10
2.0535432677165355
20
0.8944881889763779
40
0.0068897637795276
0
CIRCLE
8
BLACK
10
2.1535432677165356
20
0.9944881889763779
40
0.0068897637795276
0
CIRCLE
8
BLACK
10
2.0535432677165355
20
0.9944881889763779
40
0.0068897637795276
0
CIRCLE
8
BLACK
10
2.1535433070866143
20
1.094488188976378
40
0.0068897637795276
0
CIRCLE
8
BLACK
10
2.0535432283464568
20
1.094488188976378
40
0.0068897637795276
0
CIRCLE
8
BLACK
10
2.1535432677165356
20
1.1944881889763779
40
0.0068897637795276
0
CIRCLE
8
BLACK
10
2.0535432677165355
20
1.1944881889763779
40
0.0068897637795276
0
CIRCLE
8
BLACK
10
2.1535432677165356
20
1.294488188976378
40
0.0068897637795276
0
CIRCLE
8
BLACK
10
2.0535432677165355
20
1.294488188976378
40
0.0068897637795276
0
CIRCLE
8
BLACK
10
2.3055118110236221
20
2.
40
0.0068897637795276
0
CIRCLE
8
BLACK
10
2.3331867716535433
20
2.0668132283464566
40
0.0068897637795276
0
CIRCLE
8
BLACK
10
2.3331867716535433
20
1.9331867716535434
40
0.0068897637795276
0
CIRCLE
8
BLACK
10
2.3999999999999999
20
2.0944881889763778
40
0.0068897637795276
0
CIRCLE
8
BLACK
10
2.3999999999999999
20
2.
40
0.0068897637795276
0
CIRCLE
8
BLACK
10
2.3999999999999999
20
1.905511811023622
40
0.0068897637795276
0
CIRCLE
8
BLACK
10
2.4668132283464566
20
2.0668132283464566
40
0.0068897637795276
0
CIRCLE
8
BLACK
10
2.4668132283464566
20
1.9331867716535434
40
0.0068897637795276
0
CIRCLE
8
BLACK
10
2.4944881889763777
20
2.
40
0.0068897637795276
0
CIRCLE
8
BLACK
10
2.1456692913385824
20
0.4724409448818898
40
0.0068897637795276
0
CIRCLE
8
BLACK
10
1.918110157480315
20
0.4724409448818898
40
0.0068897637795276
0
LINE
8
BLACK
6
CONTINUOUS
10
2.1902585039370077
20
0.3448487401574803
11
2.1910564960629921
21
0.347826968503937
0
LINE
8
BLACK
6
CONTINUOUS
10
2.1910564960629921
20
0.347826968503937
11
2.1925981496062992
21
0.3504971653543307
0
LINE
8
BLACK
6
CONTINUOUS
10
2.1925981496062992
20
0.3504971653543307
11
2.1947783858267718
21
0.3526774015748032
0
LINE
8
BLACK
6
CONTINUOUS
10
2.1947783858267718
20
0.3526774015748032
11
2.1974485826771653
21
0.3542190551181102
0
LINE
8
BLACK
6
CONTINUOUS
10
2.1974485826771653
20
0.3542190551181102
11
2.2004268110236218
21
0.3550170472440945
0
LINE
8
BLACK
6
CONTINUOUS
10
2.2004268110236218
20
0.3550170472440945
11
2.2035101181102363
21
0.3550170472440945
0
LINE
8
BLACK
6
CONTINUOUS
10
2.2035101181102363
20
0.3550170472440945
11
2.2064883464566929
21
0.3542190551181102
0
LINE
8
BLACK
6
CONTINUOUS
10
2.2064883464566929
20
0.3542190551181102
11
2.2091585433070864
21
0.3526774015748032
0
LINE
8
BLACK
6
CONTINUOUS
10
2.2091585433070864
20
0.3526774015748032
11
2.211338779527559
21
0.3504971653543307
0
LINE
8
BLACK
6
CONTINUOUS
10
2.211338779527559
20
0.3504971653543307
11
2.212880433070866
21
0.347826968503937
0
LINE
8
BLACK
6
CONTINUOUS
10
2.212880433070866
20
0.347826968503937
11
2.2136784251968504
21
0.3448487401574803
0
LINE
8
BLACK
6
CONTINUOUS
10
2.2136784251968504
20
0.3448487401574803
11
2.2137794881889765
21
0.3433070866141732
0
LINE
8
BLACK
6
CONTINUOUS
10
2.2137794881889765
20
0.3433070866141732
11
2.2137794881889765
21
0.3118110236220472
0
LINE
8
BLACK
6
CONTINUOUS
10
2.2137794881889765
20
0.3118110236220472
11
2.2136784251968504
21
0.3102693700787402
0
LINE
8
BLACK
6
CONTINUOUS
10
2.2136784251968504
20
0.3102693700787402
11
2.212880433070866
21
0.3072911417322834
0
LINE
8
BLACK
6
CONTINUOUS
10
2.212880433070866
20
0.3072911417322834
11
2.211338779527559
21
0.3046209448818897
0
LINE
8
BLACK
6
CONTINUOUS
10
2.211338779527559
20
0.3046209448818897
11
2.2091585433070864
21
0.3024407086614173
0
LINE
8
BLACK
6
CONTINUOUS
10
2.2091585433070864
20
0.3024407086614173
11
2.2064883464566929
21
0.3008990551181102
0
LINE
8
BLACK
6
CONTINUOUS
10
2.2064883464566929
20
0.3008990551181102
11
2.2035101181102363
21
0.300101062992126
0
LINE
8
BLACK
6
CONTINUOUS
10
2.2035101181102363
20
0.300101062992126
11
2.2004268110236218
21
0.300101062992126
0
LINE
8
BLACK
6
CONTINUOUS
10
2.2004268110236218
20
0.300101062992126
11
2.1974485826771653
21
0.3008990551181102
0
LINE
8
BLACK
6
CONTINUOUS
10
2.1974485826771653
20
0.3008990551181102
11
2.1947783858267718
21
0.3024407086614173
0
LINE
8
BLACK
6
CONTINUOUS
10
2.1947783858267718
20
0.3024407086614173
11
2.1925981496062992
21
0.3046209448818897
0
LINE
8
BLACK
6
CONTINUOUS
10
2.1925981496062992
20
0.3046209448818897
11
2.1910564960629921
21
0.3072911417322834
0
LINE
8
BLACK
6
CONTINUOUS
10
2.1910564960629921
20
0.3072911417322834
11
2.1902585039370077
21
0.3102693700787402
0
LINE
8
BLACK
6
CONTINUOUS
10
2.1902585039370077
20
0.3102693700787402
11
2.1901574409448816
21
0.3118110236220472
0
LINE
8
BLACK
6
CONTINUOUS
10
2.1901574409448816
20
0.3118110236220472
11
2.1901574409448816
21
0.3433070866141732
0
LINE
8
BLACK
6
CONTINUOUS
10
2.1901574409448816
20
0.3433070866141732
11
2.1902585039370077
21
0.3448487401574803
0
LINE
8
BLACK
6
CONTINUOUS
10
1.8501010236220472
20
0.3448487401574803
11
1.8508990157480314
21
0.347826968503937
0
LINE
8
BLACK
6
CONTINUOUS
10
1.8508990157480314
20
0.347826968503937
11
1.8524406692913384
21
0.3504971653543307
0
LINE
8
BLACK
6
CONTINUOUS
10
1.8524406692913384
20
0.3504971653543307
11
1.854620905511811
21
0.3526774015748032
0
LINE
8
BLACK
6
CONTINUOUS
10
1.854620905511811
20
0.3526774015748032
11
1.8572911023622047
21
0.3542190551181102
0
LINE
8
BLACK
6
CONTINUOUS
10
1.8572911023622047
20
0.3542190551181102
11
1.8602693307086613
21
0.3550170472440945
0
LINE
8
BLACK
6
CONTINUOUS
10
1.8602693307086613
20
0.3550170472440945
11
1.8633526377952756
21
0.3550170472440945
0
LINE
8
BLACK
6
CONTINUOUS
10
1.8633526377952756
20
0.3550170472440945
11
1.8663308661417322
21
0.3542190551181102
0
LINE
8
BLACK
6
CONTINUOUS
10
1.8663308661417322
20
0.3542190551181102
11
1.8690010629921259
21
0.3526774015748032
0
LINE
8
BLACK
6
CONTINUOUS
10
1.8690010629921259
20
0.3526774015748032
11
1.8711812992125985
21
0.3504971653543307
0
LINE
8
BLACK
6
CONTINUOUS
10
1.8711812992125985
20
0.3504971653543307
11
1.8727229527559055
21
0.347826968503937
0
LINE
8
BLACK
6
CONTINUOUS
10
1.8727229527559055
20
0.347826968503937
11
1.8735209448818897
21
0.3448487401574803
0
LINE
8
BLACK
6
CONTINUOUS
10
1.8735209448818897
20
0.3448487401574803
11
1.8736220078740158
21
0.3433070866141732
0
LINE
8
BLACK
6
CONTINUOUS
10
1.8736220078740158
20
0.3433070866141732
11
1.8736220078740158
21
0.3118110236220472
0
LINE
8
BLACK
6
CONTINUOUS
10
1.8736220078740158
20
0.3118110236220472
11
1.8735209448818897
21
0.3102693700787402
0
LINE
8
BLACK
6
CONTINUOUS
10
1.8735209448818897
20
0.3102693700787402
11
1.8727229527559055
21
0.3072911417322834
0
LINE
8
BLACK
6
CONTINUOUS
10
1.8727229527559055
20
0.3072911417322834
11
1.8711812992125985
21
0.3046209448818897
0
LINE
8
BLACK
6
CONTINUOUS
10
1.8711812992125985
20
0.3046209448818897
11
1.8690010629921259
21
0.3024407086614173
0
LINE
8
BLACK
6
CONTINUOUS
10
1.8690010629921259
20
0.3024407086614173
11
1.8663308661417322
21
0.3008990551181102
0
LINE
8
BLACK
6
CONTINUOUS
10
1.8663308661417322
20
0.3008990551181102
11
1.8633526377952756
21
0.300101062992126
0
LINE
8
BLACK
6
CONTINUOUS
10
1.8633526377952756
20
0.300101062992126
11
1.8602693307086613
21
0.300101062992126
0
LINE
8
BLACK
6
CONTINUOUS
10
1.8602693307086613
20
0.300101062992126
11
1.8572911023622047
21
0.3008990551181102
0
LINE
8
BLACK
6
CONTINUOUS
10
1.8572911023622047
20
0.3008990551181102
11
1.854620905511811
21
0.3024407086614173
0
LINE
8
BLACK
6
CONTINUOUS
10
1.854620905511811
20
0.3024407086614173
11
1.8524406692913384
21
0.3046209448818897
0
LINE
8
BLACK
6
CONTINUOUS
10
1.8524406692913384
20
0.3046209448818897
11
1.8508990157480314
21
0.3072911417322834
0
LINE
8
BLACK
6
CONTINUOUS
10
1.8508990157480314
20
0.3072911417322834
11
1.8501010236220472
21
0.3102693700787402
0
LINE
8
BLACK
6
CONTINUOUS
10
1.8501010236220472
20
0.3102693700787402
11
1.8499999606299211
21
0.3118110236220472
0
LINE
8
BLACK
6
CONTINUOUS
10
1.8499999606299211
20
0.3118110236220472
11
1.8499999606299211
21
0.3433070866141732
0
LINE
8
BLACK
6
CONTINUOUS
10
1.8499999606299211
20
0.3433070866141732
11
1.8501010236220472
21
0.3448487401574803
0
LINE
8
BLACK
6
CONTINUOUS
10
2.1902585039370077
20
0.5153211811023622
11
2.1910564960629921
21
0.5182994094488189
0
LINE
8
BLACK
6
CONTINUOUS
10
2.1910564960629921
20
0.5182994094488189
11
2.1925981496062992
21
0.5209696062992126
0
LINE
8
BLACK
6
CONTINUOUS
10
2.1925981496062992
20
0.5209696062992126
11
2.1947783858267718
21
0.523149842519685
0
LINE
8
BLACK
6
CONTINUOUS
10
2.1947783858267718
20
0.523149842519685
11
2.1974485826771653
21
0.5246914960629921
0
LINE
8
BLACK
6
CONTINUOUS
10
2.1974485826771653
20
0.5246914960629921
11
2.2004268110236218
21
0.5254894881889763
0
LINE
8
BLACK
6
CONTINUOUS
10
2.2004268110236218
20
0.5254894881889763
11
2.2035101181102363
21
0.5254894881889763
0
LINE
8
BLACK
6
CONTINUOUS
10
2.2035101181102363
20
0.5254894881889763
11
2.2064883464566929
21
0.5246914960629921
0
LINE
8
BLACK
6
CONTINUOUS
10
2.2064883464566929
20
0.5246914960629921
11
2.2091585433070864
21
0.523149842519685
0
LINE
8
BLACK
6
CONTINUOUS
10
2.2091585433070864
20
0.523149842519685
11
2.211338779527559
21
0.5209696062992126
0
LINE
8
BLACK
6
CONTINUOUS
10
2.211338779527559
20
0.5209696062992126
11
2.212880433070866
21
0.5182994094488189
0
LINE
8
BLACK
6
CONTINUOUS
10
2.212880433070866
20
0.5182994094488189
11
2.2136784251968504
21
0.5153211811023622
0
LINE
8
BLACK
6
CONTINUOUS
10
2.2136784251968504
20
0.5153211811023622
11
2.2137794881889765
21
0.5137795275590551
0
LINE
8
BLACK
6
CONTINUOUS
10
2.2137794881889765
20
0.5137795275590551
11
2.2137794881889765
21
0.4704724409448819
0
LINE
8
BLACK
6
CONTINUOUS
10
2.2137794881889765
20
0.4704724409448819
11
2.2136784251968504
21
0.4689307874015748
0
LINE
8
BLACK
6
CONTINUOUS
10
2.2136784251968504
20
0.4689307874015748
11
2.212880433070866
21
0.4659525590551181
0
LINE
8
BLACK
6
CONTINUOUS
10
2.212880433070866
20
0.4659525590551181
11
2.211338779527559
21
0.4632823622047244
0
LINE
8
BLACK
6
CONTINUOUS
10
2.211338779527559
20
0.4632823622047244
11
2.2091585433070864
21
0.4611021259842519
0
LINE
8
BLACK
6
CONTINUOUS
10
2.2091585433070864
20
0.4611021259842519
11
2.2064883464566929
21
0.4595604724409449
0
LINE
8
BLACK
6
CONTINUOUS
10
2.2064883464566929
20
0.4595604724409449
11
2.2035101181102363
21
0.4587624803149606
0
LINE
8
BLACK
6
CONTINUOUS
10
2.2035101181102363
20
0.4587624803149606
11
2.2004268110236218
21
0.4587624803149606
0
LINE
8
BLACK
6
CONTINUOUS
10
2.2004268110236218
20
0.4587624803149606
11
2.1974485826771653
21
0.4595604724409449
0
LINE
8
BLACK
6
CONTINUOUS
10
2.1974485826771653
20
0.4595604724409449
11
2.1947783858267718
21
0.4611021259842519
0
LINE
8
BLACK
6
CONTINUOUS
10
2.1947783858267718
20
0.4611021259842519
11
2.1925981496062992
21
0.4632823622047244
0
LINE
8
BLACK
6
CONTINUOUS
10
2.1925981496062992
20
0.4632823622047244
11
2.1910564960629921
21
0.4659525590551181
0
LINE
8
BLACK
6
CONTINUOUS
10
2.1910564960629921
20
0.4659525590551181
11
2.1902585039370077
21
0.4689307874015748
0
LINE
8
BLACK
6
CONTINUOUS
10
2.1902585039370077
20
0.4689307874015748
11
2.1901574409448816
21
0.4704724409448819
0
LINE
8
BLACK
6
CONTINUOUS
10
2.1901574409448816
20
0.4704724409448819
11
2.1901574409448816
21
0.5137795275590551
0
LINE
8
BLACK
6
CONTINUOUS
10
2.1901574409448816
20
0.5137795275590551
11
2.1902585039370077
21
0.5153211811023622
0
LINE
8
BLACK
6
CONTINUOUS
10
1.8501010236220472
20
0.5153211811023622
11
1.8508990157480314
21
0.5182994094488189
0
LINE
8
BLACK
6
CONTINUOUS
10
1.8508990157480314
20
0.5182994094488189
11
1.8524406692913384
21
0.5209696062992126
0
LINE
8
BLACK
6
CONTINUOUS
10
1.8524406692913384
20
0.5209696062992126
11
1.854620905511811
21
0.523149842519685
0
LINE
8
BLACK
6
CONTINUOUS
10
1.854620905511811
20
0.523149842519685
11
1.8572911023622047
21
0.5246914960629921
0
LINE
8
BLACK
6
CONTINUOUS
10
1.8572911023622047
20
0.5246914960629921
11
1.8602693307086613
21
0.5254894881889763
0
LINE
8
BLACK
6
CONTINUOUS
10
1.8602693307086613
20
0.5254894881889763
11
1.8633526377952756
21
0.5254894881889763
0
LINE
8
BLACK
6
CONTINUOUS
10
1.8633526377952756
20
0.5254894881889763
11
1.8663308661417322
21
0.5246914960629921
0
LINE
8
BLACK
6
CONTINUOUS
10
1.8663308661417322
20
0.5246914960629921
11
1.8690010629921259
21
0.523149842519685
0
LINE
8
BLACK
6
CONTINUOUS
10
1.8690010629921259
20
0.523149842519685
11
1.8711812992125985
21
0.5209696062992126
0
LINE
8
BLACK
6
CONTINUOUS
10
1.8711812992125985
20
0.5209696062992126
11
1.8727229527559055
21
0.5182994094488189
0
LINE
8
BLACK
6
CONTINUOUS
10
1.8727229527559055
20
0.5182994094488189
11
1.8735209448818897
21
0.5153211811023622
0
LINE
8
BLACK
6
CONTINUOUS
10
1.8735209448818897
20
0.5153211811023622
11
1.8736220078740158
21
0.5137795275590551
0
LINE
8
BLACK
6
CONTINUOUS
10
1.8736220078740158
20
0.5137795275590551
11
1.8736220078740158
21
0.4704724409448819
0
LINE
8
BLACK
6
CONTINUOUS
10
1.8736220078740158
20
0.4704724409448819
11
1.8735209448818897
21
0.4689307874015748
0
LINE
8
BLACK
6
CONTINUOUS
10
1.8735209448818897
20
0.4689307874015748
11
1.8727229527559055
21
0.4659525590551181
0
LINE
8
BLACK
6
CONTINUOUS
10
1.8727229527559055
20
0.4659525590551181
11
1.8711812992125985
21
0.4632823622047244
0
LINE
8
BLACK
6
CONTINUOUS
10
1.8711812992125985
20
0.4632823622047244
11
1.8690010629921259
21
0.4611021259842519
0
LINE
8
BLACK
6
CONTINUOUS
10
1.8690010629921259
20
0.4611021259842519
11
1.8663308661417322
21
0.4595604724409449
0
LINE
8
BLACK
6
CONTINUOUS
10
1.8663308661417322
20
0.4595604724409449
11
1.8633526377952756
21
0.4587624803149606
0
LINE
8
BLACK
6
CONTINUOUS
10
1.8633526377952756
20
0.4587624803149606
11
1.8602693307086613
21
0.4587624803149606
0
LINE
8
BLACK
6
CONTINUOUS
10
1.8602693307086613
20
0.4587624803149606
11
1.8572911023622047
21
0.4595604724409449
0
LINE
8
BLACK
6
CONTINUOUS
10
1.8572911023622047
20
0.4595604724409449
11
1.854620905511811
21
0.4611021259842519
0
LINE
8
BLACK
6
CONTINUOUS
10
1.854620905511811
20
0.4611021259842519
11
1.8524406692913384
21
0.4632823622047244
0
LINE
8
BLACK
6
CONTINUOUS
10
1.8524406692913384
20
0.4632823622047244
11
1.8508990157480314
21
0.4659525590551181
0
LINE
8
BLACK
6
CONTINUOUS
10
1.8508990157480314
20
0.4659525590551181
11
1.8501010236220472
21
0.4689307874015748
0
LINE
8
BLACK
6
CONTINUOUS
10
1.8501010236220472
20
0.4689307874015748
11
1.8499999606299211
21
0.4704724409448819
0
LINE
8
BLACK
6
CONTINUOUS
10
1.8499999606299211
20
0.4704724409448819
11
1.8499999606299211
21
0.5137795275590551
0
LINE
8
BLACK
6
CONTINUOUS
10
1.8499999606299211
20
0.5137795275590551
11
1.8501010236220472
21
0.5153211811023622
0
LINE
8
BLACK
6
CONTINUOUS
10
0.6906738582677165
20
2.0372214566929134
11
0.6978649606299212
21
2.0357910629921259
0
LINE
8
BLACK
6
CONTINUOUS
10
0.6978649606299212
20
2.0357910629921259
11
0.7046388582677166
21
2.0329852362204726
0
LINE
8
BLACK
6
CONTINUOUS
10
0.7046388582677166
20
2.0329852362204726
11
0.7107351968503937
21
2.0289118110236219
0
LINE
8
BLACK
6
CONTINUOUS
10
0.7107351968503937
20
2.0289118110236219
11
0.7159196850393701
21
2.0237273228346457
0
LINE
8
BLACK
6
CONTINUOUS
10
0.7159196850393701
20
2.0237273228346457
11
0.7199931102362205
21
2.0176309842519684
0
LINE
8
BLACK
6
CONTINUOUS
10
0.7199931102362205
20
2.0176309842519684
11
0.722798937007874
21
2.0108570866141733
0
LINE
8
BLACK
6
CONTINUOUS
10
0.722798937007874
20
2.0108570866141733
11
0.7242293307086614
21
2.0036659842519686
0
LINE
8
BLACK
6
CONTINUOUS
10
0.7242293307086614
20
2.0036659842519686
11
0.7242293307086614
21
1.9963340157480314
0
LINE
8
BLACK
6
CONTINUOUS
10
0.7242293307086614
20
1.9963340157480314
11
0.722798937007874
21
1.9891429133858267
0
LINE
8
BLACK
6
CONTINUOUS
10
0.722798937007874
20
1.9891429133858267
11
0.7199931102362205
21
1.9823690157480314
0
LINE
8
BLACK
6
CONTINUOUS
10
0.7199931102362205
20
1.9823690157480314
11
0.7159196850393701
21
1.9762726771653543
0
LINE
8
BLACK
6
CONTINUOUS
10
0.7159196850393701
20
1.9762726771653543
11
0.7107351968503937
21
1.9710881889763778
0
LINE
8
BLACK
6
CONTINUOUS
10
0.7107351968503937
20
1.9710881889763778
11
0.7046388582677166
21
1.9670147637795274
0
LINE
8
BLACK
6
CONTINUOUS
10
0.7046388582677166
20
1.9670147637795274
11
0.6978649606299212
21
1.9642089370078739
0
LINE
8
BLACK
6
CONTINUOUS
10
0.6978649606299212
20
1.9642089370078739
11
0.6906738582677165
21
1.9627785433070866
0
LINE
8
BLACK
6
CONTINUOUS
10
0.6906738582677165
20
1.9627785433070866
11
0.687007874015748
21
1.9625984251968502
0
LINE
8
BLACK
6
CONTINUOUS
10
0.687007874015748
20
1.9625984251968502
11
0.6673228346456693
21
1.9625984251968502
0
LINE
8
BLACK
6
CONTINUOUS
10
0.6673228346456693
20
1.9625984251968502
11
0.6636568503937008
21
1.9627785433070866
0
LINE
8
BLACK
6
CONTINUOUS
10
0.6636568503937008
20
1.9627785433070866
11
0.656465748031496
21
1.9642089370078739
0
LINE
8
BLACK
6
CONTINUOUS
10
0.656465748031496
20
1.9642089370078739
11
0.6496918503937008
21
1.9670147637795274
0
LINE
8
BLACK
6
CONTINUOUS
10
0.6496918503937008
20
1.9670147637795274
11
0.6435955118110236
21
1.9710881889763778
0
LINE
8
BLACK
6
CONTINUOUS
10
0.6435955118110236
20
1.9710881889763778
11
0.6384110236220473
21
1.9762726771653543
0
LINE
8
BLACK
6
CONTINUOUS
10
0.6384110236220473
20
1.9762726771653543
11
0.6343375984251969
21
1.9823690157480314
0
LINE
8
BLACK
6
CONTINUOUS
10
0.6343375984251969
20
1.9823690157480314
11
0.6315317716535432
21
1.9891429133858267
0
LINE
8
BLACK
6
CONTINUOUS
10
0.6315317716535432
20
1.9891429133858267
11
0.6301013779527559
21
1.9963340157480314
0
LINE
8
BLACK
6
CONTINUOUS
10
0.6301013779527559
20
1.9963340157480314
11
0.6301013779527559
21
2.0036659842519686
0
LINE
8
BLACK
6
CONTINUOUS
10
0.6301013779527559
20
2.0036659842519686
11
0.6315317716535432
21
2.0108570866141733
0
LINE
8
BLACK
6
CONTINUOUS
10
0.6315317716535432
20
2.0108570866141733
11
0.6343375984251969
21
2.0176309842519684
0
LINE
8
BLACK
6
CONTINUOUS
10
0.6343375984251969
20
2.0176309842519684
11
0.6384110236220473
21
2.0237273228346457
0
LINE
8
BLACK
6
CONTINUOUS
10
0.6384110236220473
20
2.0237273228346457
11
0.6435955118110236
21
2.0289118110236219
0
LINE
8
BLACK
6
CONTINUOUS
10
0.6435955118110236
20
2.0289118110236219
11
0.6496918503937008
21
2.0329852362204726
0
LINE
8
BLACK
6
CONTINUOUS
10
0.6496918503937008
20
2.0329852362204726
11
0.656465748031496
21
2.0357910629921259
0
LINE
8
BLACK
6
CONTINUOUS
10
0.656465748031496
20
2.0357910629921259
11
0.6636568503937008
21
2.0372214566929134
0
LINE
8
BLACK
6
CONTINUOUS
10
0.6636568503937008
20
2.0372214566929134
11
0.6673228346456693
21
2.0374015748031495
0
LINE
8
BLACK
6
CONTINUOUS
10
0.6673228346456693
20
2.0374015748031495
11
0.687007874015748
21
2.0374015748031495
0
LINE
8
BLACK
6
CONTINUOUS
10
0.687007874015748
20
2.0374015748031495
11
0.6906738582677165
21
2.0372214566929134
0
LINE
8
BLACK
6
CONTINUOUS
10
2.1394927559055117
20
2.0372214566929134
11
2.1466838582677163
21
2.0357910629921259
0
LINE
8
BLACK
6
CONTINUOUS
10
2.1466838582677163
20
2.0357910629921259
11
2.1534577559055119
21
2.0329852362204726
0
LINE
8
BLACK
6
CONTINUOUS
10
2.1534577559055119
20
2.0329852362204726
11
2.1595540944881888
21
2.0289118110236219
0
LINE
8
BLACK
6
CONTINUOUS
10
2.1595540944881888
20
2.0289118110236219
11
2.1647385826771655
21
2.0237273228346457
0
LINE
8
BLACK
6
CONTINUOUS
10
2.1647385826771655
20
2.0237273228346457
11
2.1688120078740156
21
2.0176309842519684
0
LINE
8
BLACK
6
CONTINUOUS
10
2.1688120078740156
20
2.0176309842519684
11
2.1716178346456694
21
2.0108570866141733
0
LINE
8
BLACK
6
CONTINUOUS
10
2.1716178346456694
20
2.0108570866141733
11
2.1730482283464565
21
2.0036659842519686
0
LINE
8
BLACK
6
CONTINUOUS
10
2.1730482283464565
20
2.0036659842519686
11
2.1730482283464565
21
1.9963340157480314
0
LINE
8
BLACK
6
CONTINUOUS
10
2.1730482283464565
20
1.9963340157480314
11
2.1716178346456694
21
1.9891429133858267
0
LINE
8
BLACK
6
CONTINUOUS
10
2.1716178346456694
20
1.9891429133858267
11
2.1688120078740156
21
1.9823690157480314
0
LINE
8
BLACK
6
CONTINUOUS
10
2.1688120078740156
20
1.9823690157480314
11
2.1647385826771655
21
1.9762726771653543
0
LINE
8
BLACK
6
CONTINUOUS
10
2.1647385826771655
20
1.9762726771653543
11
2.1595540944881888
21
1.9710881889763778
0
LINE
8
BLACK
6
CONTINUOUS
10
2.1595540944881888
20
1.9710881889763778
11
2.1534577559055119
21
1.9670147637795274
0
LINE
8
BLACK
6
CONTINUOUS
10
2.1534577559055119
20
1.9670147637795274
11
2.1466838582677163
21
1.9642089370078739
0
LINE
8
BLACK
6
CONTINUOUS
10
2.1466838582677163
20
1.9642089370078739
11
2.1394927559055117
21
1.9627785433070866
0
LINE
8
BLACK
6
CONTINUOUS
10
2.1394927559055117
20
1.9627785433070866
11
2.1358267716535431
21
1.9625984251968502
0
LINE
8
BLACK
6
CONTINUOUS
10
2.1358267716535431
20
1.9625984251968502
11
2.1161417322834644
21
1.9625984251968502
0
LINE
8
BLACK
6
CONTINUOUS
10
2.1161417322834644
20
1.9625984251968502
11
2.1124757480314962
21
1.9627785433070866
0
LINE
8
BLACK
6
CONTINUOUS
10
2.1124757480314962
20
1.9627785433070866
11
2.1052846456692911
21
1.9642089370078739
0
LINE
8
BLACK
6
CONTINUOUS
10
2.1052846456692911
20
1.9642089370078739
11
2.098510748031496
21
1.9670147637795274
0
LINE
8
BLACK
6
CONTINUOUS
10
2.098510748031496
20
1.9670147637795274
11
2.0924144094488191
21
1.9710881889763778
0
LINE
8
BLACK
6
CONTINUOUS
10
2.0924144094488191
20
1.9710881889763778
11
2.0872299212598424
21
1.9762726771653543
0
LINE
8
BLACK
6
CONTINUOUS
10
2.0872299212598424
20
1.9762726771653543
11
2.0831564960629922
21
1.9823690157480314
0
LINE
8
BLACK
6
CONTINUOUS
10
2.0831564960629922
20
1.9823690157480314
11
2.0803506692913385
21
1.9891429133858267
0
LINE
8
BLACK
6
CONTINUOUS
10
2.0803506692913385
20
1.9891429133858267
11
2.0789202755905509
21
1.9963340157480314
0
LINE
8
BLACK
6
CONTINUOUS
10
2.0789202755905509
20
1.9963340157480314
11
2.0789202755905509
21
2.0036659842519686
0
LINE
8
BLACK
6
CONTINUOUS
10
2.0789202755905509
20
2.0036659842519686
11
2.0803506692913385
21
2.0108570866141733
0
LINE
8
BLACK
6
CONTINUOUS
10
2.0803506692913385
20
2.0108570866141733
11
2.0831564960629922
21
2.0176309842519684
0
LINE
8
BLACK
6
CONTINUOUS
10
2.0831564960629922
20
2.0176309842519684
11
2.0872299212598424
21
2.0237273228346457
0
LINE
8
BLACK
6
CONTINUOUS
10
2.0872299212598424
20
2.0237273228346457
11
2.0924144094488191
21
2.0289118110236219
0
LINE
8
BLACK
6
CONTINUOUS
10
2.0924144094488191
20
2.0289118110236219
11
2.098510748031496
21
2.0329852362204726
0
LINE
8
BLACK
6
CONTINUOUS
10
2.098510748031496
20
2.0329852362204726
11
2.1052846456692911
21
2.0357910629921259
0
LINE
8
BLACK
6
CONTINUOUS
10
2.1052846456692911
20
2.0357910629921259
11
2.1124757480314962
21
2.0372214566929134
0
LINE
8
BLACK
6
CONTINUOUS
10
2.1124757480314962
20
2.0372214566929134
11
2.1161417322834644
21
2.0374015748031495
0
LINE
8
BLACK
6
CONTINUOUS
10
2.1161417322834644
20
2.0374015748031495
11
2.1358267716535431
21
2.0374015748031495
0
LINE
8
BLACK
6
CONTINUOUS
10
2.1358267716535431
20
2.0374015748031495
11
2.1394927559055117
21
2.0372214566929134
0
CIRCLE
8
BLACK
10
2.3055118110236221
20
0.4
40
0.0068897637795276
0
CIRCLE
8
BLACK
10
2.3331867716535433
20
0.4668132283464567
40
0.0068897637795276
0
CIRCLE
8
BLACK
10
2.3331867716535433
20
0.3331867716535433
40
0.0068897637795276
0
CIRCLE
8
BLACK
10
2.3999999999999999
20
0.4944881889763779
40
0.0068897637795276
0
CIRCLE
8
BLACK
10
2.3999999999999999
20
0.4
40
0.0068897637795276
0
CIRCLE
8
BLACK
10
2.3999999999999999
20
0.305511811023622
40
0.0068897637795276
0
CIRCLE
8
BLACK
10
2.4668132283464566
20
0.4668132283464567
40
0.0068897637795276
0
CIRCLE
8
BLACK
10
2.4668132283464566
20
0.3331867716535433
40
0.0068897637795276
0
CIRCLE
8
BLACK
10
2.4944881889763777
20
0.4
40
0.0068897637795276
0
CIRCLE
8
BLACK
10
1.6299212204724409
20
0.6204724409448819
40
0.0068897637795276
0
CIRCLE
8
BLACK
10
1.5299212204724408
20
0.6204724409448819
40
0.0068897637795276
0
CIRCLE
8
BLACK
10
1.6299212598425197
20
0.7204724409448818
40
0.0068897637795276
0
CIRCLE
8
BLACK
10
1.5299211811023621
20
0.7204724409448818
40
0.0068897637795276
0
CIRCLE
8
BLACK
10
1.6299212204724409
20
0.8204724409448819
40
0.0068897637795276
0
CIRCLE
8
BLACK
10
1.5299212204724408
20
0.8204724409448819
40
0.0068897637795276
0
CIRCLE
8
BLACK
10
0.8267716141732283
20
0.6204724409448819
40
0.0068897637795276
0
CIRCLE
8
BLACK
10
0.7267716141732283
20
0.6204724409448819
40
0.0068897637795276
0
CIRCLE
8
BLACK
10
0.8267716535433071
20
0.7204724409448818
40
0.0068897637795276
0
CIRCLE
8
BLACK
10
0.7267715748031496
20
0.7204724409448818
40
0.0068897637795276
0
CIRCLE
8
BLACK
10
0.8267716141732283
20
0.8204724409448819
40
0.0068897637795276
0
CIRCLE
8
BLACK
10
0.7267716141732283
20
0.8204724409448819
40
0.0068897637795276
0
CIRCLE
8
BLACK
10
0.305511811023622
20
0.4
40
0.0068897637795276
0
CIRCLE
8
BLACK
10
0.3331867716535433
20
0.4668132283464567
40
0.0068897637795276
0
CIRCLE
8
BLACK
10
0.3331867716535433
20
0.3331867716535433
40
0.0068897637795276
0
CIRCLE
8
BLACK
10
0.4
20
0.4944881889763779
40
0.0068897637795276
0
CIRCLE
8
BLACK
10
0.4
20
0.4
40
0.0068897637795276
0
CIRCLE
8
BLACK
10
0.4
20
0.305511811023622
40
0.0068897637795276
0
CIRCLE
8
BLACK
10
0.4668132283464567
20
0.4668132283464567
40
0.0068897637795276
0
CIRCLE
8
BLACK
10
0.4668132283464567
20
0.3331867716535433
40
0.0068897637795276
0
CIRCLE
8
BLACK
10
0.4944881889763779
20
0.4
40
0.0068897637795276
0
CIRCLE
8
BLACK
10
0.305511811023622
20
2.
40
0.0068897637795276
0
CIRCLE
8
BLACK
10
0.3331867716535433
20
2.0668132283464566
40
0.0068897637795276
0
CIRCLE
8
BLACK
10
0.3331867716535433
20
1.9331867716535434
40
0.0068897637795276
0
CIRCLE
8
BLACK
10
0.4
20
2.0944881889763778
40
0.0068897637795276
0
CIRCLE
8
BLACK
10
0.4
20
2.
40
0.0068897637795276
0
CIRCLE
8
BLACK
10
0.4
20
1.905511811023622
40
0.0068897637795276
0
CIRCLE
8
BLACK
10
0.4668132283464567
20
2.0668132283464566
40
0.0068897637795276
0
CIRCLE
8
BLACK
10
0.4668132283464567
20
1.9331867716535434
40
0.0068897637795276
0
CIRCLE
8
BLACK
10
0.4944881889763779
20
2.
40
0.0068897637795276
0
CIRCLE
8
BLACK
10
1.7283464566929134
20
0.4318897637795275
40
0.0068897637795276
0
CIRCLE
8
BLACK
10
1.7283464566929134
20
0.3318897637795276
40
0.0068897637795276
0
CIRCLE
8
BLACK
10
1.6283464566929133
20
0.4318897637795275
40
0.0068897637795276
0
CIRCLE
8
BLACK
10
1.6283464566929133
20
0.3318897637795276
40
0.0068897637795276
0
CIRCLE
8
BLACK
10
1.5283464566929132
20
0.4318897637795275
40
0.0068897637795276
0
CIRCLE
8
BLACK
10
1.5283464566929132
20
0.3318897637795276
40
0.0068897637795276
0
CIRCLE
8
BLACK
10
1.4283464566929134
20
0.4318898031496063
40
0.0068897637795276
0
CIRCLE
8
BLACK
10
1.4283464566929134
20
0.3318897244094488
40
0.0068897637795276
0
CIRCLE
8
BLACK
10
1.3283464566929133
20
0.4318897637795275
40
0.0068897637795276
0
CIRCLE
8
BLACK
10
1.3283464566929133
20
0.3318897637795276
40
0.0068897637795276
0
CIRCLE
8
BLACK
10
1.2283464566929134
20
0.4318897637795275
40
0.0068897637795276
0
CIRCLE
8
BLACK
10
1.2283464566929134
20
0.3318897637795276
40
0.0068897637795276
0
CIRCLE
8
BLACK
10
1.1283464566929133
20
0.4318897637795275
40
0.0068897637795276
0
CIRCLE
8
BLACK
10
1.1283464566929133
20
0.3318897637795276
40
0.0068897637795276
0
CIRCLE
8
BLACK
10
1.0283464566929135
20
0.4318897637795275
40
0.0068897637795276
0
CIRCLE
8
BLACK
10
1.0283464566929135
20
0.3318897637795276
40
0.0068897637795276
0
CIRCLE
8
BLACK
10
0.9283464566929134
20
0.4318898031496063
40
0.0068897637795276
0
CIRCLE
8
BLACK
10
0.9283464566929134
20
0.3318897244094488
40
0.0068897637795276
0
CIRCLE
8
BLACK
10
0.8283464566929134
20
0.4318897637795275
40
0.0068897637795276
0
CIRCLE
8
BLACK
10
0.8283464566929134
20
0.3318897637795276
40
0.0068897637795276
0
CIRCLE
8
BLACK
10
0.7283464566929134
20
0.4318897637795275
40
0.0068897637795276
0
CIRCLE
8
BLACK
10
0.7283464566929134
20
0.3318897637795276
40
0.0068897637795276
0
CIRCLE
8
BLACK
10
0.6283464566929133
20
0.4318897637795275
40
0.0068897637795276
0
CIRCLE
8
BLACK
10
0.6283464566929133
20
0.3318897637795276
40
0.0068897637795276
0
CIRCLE
8
BLACK
10
0.4188976377952756
20
0.6535433070866141
40
0.0068897637795276
0
CIRCLE
8
BLACK
10
0.3188976377952756
20
0.6535433070866141
40
0.0068897637795276
0
CIRCLE
8
BLACK
10
0.4188976377952756
20
0.7535433070866142
40
0.0068897637795276
0
CIRCLE
8
BLACK
10
0.3188976377952756
20
0.7535433070866142
40
0.0068897637795276
0
CIRCLE
8
BLACK
10
0.4188976377952756
20
0.8535433070866142
40
0.0068897637795276
0
CIRCLE
8
BLACK
10
0.3188976377952756
20
0.8535433070866142
40
0.0068897637795276
0
CIRCLE
8
BLACK
10
0.4188976771653543
20
0.9535433070866142
40
0.0068897637795276
0
CIRCLE
8
BLACK
10
0.3188975984251968
20
0.9535433070866142
40
0.0068897637795276
0
CIRCLE
8
BLACK
10
0.4188976377952756
20
1.0535433070866143
40
0.0068897637795276
0
CIRCLE
8
BLACK
10
0.3188976377952756
20
1.0535433070866143
40
0.0068897637795276
0
CIRCLE
8
BLACK
10
0.4188976377952756
20
1.1535433070866141
40
0.0068897637795276
0
CIRCLE
8
BLACK
10
0.3188976377952756
20
1.1535433070866141
40
0.0068897637795276
0
CIRCLE
8
BLACK
10
0.4188976377952756
20
1.2535433070866142
40
0.0068897637795276
0
CIRCLE
8
BLACK
10
0.3188976377952756
20
1.2535433070866142
40
0.0068897637795276
0
CIRCLE
8
BLACK
10
0.4188976377952756
20
1.3535433070866141
40
0.0068897637795276
0
CIRCLE
8
BLACK
10
0.3188976377952756
20
1.3535433070866141
40
0.0068897637795276
0
CIRCLE
8
BLACK
10
0.4188976771653543
20
1.4535433070866142
40
0.0068897637795276
0
CIRCLE
8
BLACK
10
0.3188975984251968
20
1.4535433070866142
40
0.0068897637795276
0
CIRCLE
8
BLACK
10
0.4188976377952756
20
1.553543307086614
40
0.0068897637795276
0
CIRCLE
8
BLACK
10
0.3188976377952756
20
1.553543307086614
40
0.0068897637795276
0
CIRCLE
8
BLACK
10
0.4188976377952756
20
1.6535433070866141
40
0.0068897637795276
0
CIRCLE
8
BLACK
10
0.3188976377952756
20
1.6535433070866141
40
0.0068897637795276
0
CIRCLE
8
BLACK
10
0.4188976377952756
20
1.7535433070866142
40
0.0068897637795276
0
CIRCLE
8
BLACK
10
0.3188976377952756
20
1.7535433070866142
40
0.0068897637795276
0
CIRCLE
8
BLACK
10
2.3622047244094486
20
1.7488188976377952
40
0.0068897637795276
0
CIRCLE
8
BLACK
10
2.4622047244094487
20
1.7488188976377952
40
0.0068897637795276
0
CIRCLE
8
BLACK
10
2.3622047244094486
20
1.6488188976377953
40
0.0068897637795276
0
CIRCLE
8
BLACK
10
2.4622047244094487
20
1.6488188976377953
40
0.0068897637795276
0
CIRCLE
8
BLACK
10
2.3622047244094486
20
1.5488188976377952
40
0.0068897637795276
0
CIRCLE
8
BLACK
10
2.4622047244094487
20
1.5488188976377952
40
0.0068897637795276
0
CIRCLE
8
BLACK
10
2.3622047244094486
20
1.4488188976377951
40
0.0068897637795276
0
CIRCLE
8
BLACK
10
2.4622047244094487
20
1.4488188976377951
40
0.0068897637795276
0
CIRCLE
8
BLACK
10
2.3622047244094486
20
1.3488188976377953
40
0.0068897637795276
0
CIRCLE
8
BLACK
10
2.4622047244094487
20
1.3488188976377953
40
0.0068897637795276
0
CIRCLE
8
BLACK
10
2.3622047244094486
20
1.2488188976377952
40
0.0068897637795276
0
CIRCLE
8
BLACK
10
2.4622047244094487
20
1.2488188976377952
40
0.0068897637795276
0
CIRCLE
8
BLACK
10
2.3622047244094486
20
1.1488188976377953
40
0.0068897637795276
0
CIRCLE
8
BLACK
10
2.4622047244094487
20
1.1488188976377953
40
0.0068897637795276
0
CIRCLE
8
BLACK
10
2.3622047244094486
20
1.0488188976377952
40
0.0068897637795276
0
CIRCLE
8
BLACK
10
2.4622047244094487
20
1.0488188976377952
40
0.0068897637795276
0
CIRCLE
8
BLACK
10
2.3622047244094486
20
0.9488188976377953
40
0.0068897637795276
0
CIRCLE
8
BLACK
10
2.4622047244094487
20
0.9488188976377953
40
0.0068897637795276
0
CIRCLE
8
BLACK
10
2.3622047244094486
20
0.8488188976377953
40
0.0068897637795276
0
CIRCLE
8
BLACK
10
2.4622047244094487
20
0.8488188976377953
40
0.0068897637795276
0
CIRCLE
8
BLACK
10
2.3622047244094486
20
0.7488188976377953
40
0.0068897637795276
0
CIRCLE
8
BLACK
10
2.4622047244094487
20
0.7488188976377953
40
0.0068897637795276
0
CIRCLE
8
BLACK
10
2.3622047244094486
20
0.6488188976377952
40
0.0068897637795276
0
CIRCLE
8
BLACK
10
2.4622047244094487
20
0.6488188976377952
40
0.0068897637795276
0
CIRCLE
8
BLACK
10
2.1535432677165356
20
0.8944881889763779
40
0.0068897637795276
0
CIRCLE
8
BLACK
10
2.0535432677165355
20
0.8944881889763779
40
0.0068897637795276
0
CIRCLE
8
BLACK
10
2.1535432677165356
20
0.9944881889763779
40
0.0068897637795276
0
CIRCLE
8
BLACK
10
2.0535432677165355
20
0.9944881889763779
40
0.0068897637795276
0
CIRCLE
8
BLACK
10
2.1535433070866143
20
1.094488188976378
40
0.0068897637795276
0
CIRCLE
8
BLACK
10
2.0535432283464568
20
1.094488188976378
40
0.0068897637795276
0
CIRCLE
8
BLACK
10
2.1535432677165356
20
1.1944881889763779
40
0.0068897637795276
0
CIRCLE
8
BLACK
10
2.0535432677165355
20
1.1944881889763779
40
0.0068897637795276
0
CIRCLE
8
BLACK
10
2.1535432677165356
20
1.294488188976378
40
0.0068897637795276
0
CIRCLE
8
BLACK
10
2.0535432677165355
20
1.294488188976378
40
0.0068897637795276
0
CIRCLE
8
BLACK
10
2.3055118110236221
20
2.
40
0.0068897637795276
0
CIRCLE
8
BLACK
10
2.3331867716535433
20
2.0668132283464566
40
0.0068897637795276
0
CIRCLE
8
BLACK
10
2.3331867716535433
20
1.9331867716535434
40
0.0068897637795276
0
CIRCLE
8
BLACK
10
2.3999999999999999
20
2.0944881889763778
40
0.0068897637795276
0
CIRCLE
8
BLACK
10
2.3999999999999999
20
2.
40
0.0068897637795276
0
CIRCLE
8
BLACK
10
2.3999999999999999
20
1.905511811023622
40
0.0068897637795276
0
CIRCLE
8
BLACK
10
2.4668132283464566
20
2.0668132283464566
40
0.0068897637795276
0
CIRCLE
8
BLACK
10
2.4668132283464566
20
1.9331867716535434
40
0.0068897637795276
0
CIRCLE
8
BLACK
10
2.4944881889763777
20
2.
40
0.0068897637795276
0
CIRCLE
8
BLACK
10
2.1456692913385824
20
0.4724409448818898
40
0.0068897637795276
0
CIRCLE
8
BLACK
10
1.918110157480315
20
0.4724409448818898
40
0.0068897637795276
0
LINE
8
BLACK
6
CONTINUOUS
10
2.2137794881889765
20
0.3118110236220472
11
2.2137794881889765
21
0.3433070866141732
0
ARC
8
BLACK
10
2.2019684645669293
20
0.3433070866141732
40
0.0118110236220472
50
0.00000000
51
180.00000000
0
LINE
8
BLACK
6
CONTINUOUS
10
2.1901574409448816
20
0.3433070866141732
11
2.1901574409448816
21
0.3118110236220472
0
ARC
8
BLACK
10
2.2019684645669293
20
0.3118110236220472
40
0.0118110236220472
50
180.00000000
51
360.00000000
0
LINE
8
BLACK
6
CONTINUOUS
10
1.8736220078740158
20
0.3118110236220472
11
1.8736220078740158
21
0.3433070866141732
0
ARC
8
BLACK
10
1.8618109842519686
20
0.3433070866141732
40
0.0118110236220472
50
0.00000000
51
180.00000000
0
LINE
8
BLACK
6
CONTINUOUS
10
1.8499999606299211
20
0.3433070866141732
11
1.8499999606299211
21
0.3118110236220472
0
ARC
8
BLACK
10
1.8618109842519686
20
0.3118110236220472
40
0.0118110236220472
50
180.00000000
51
360.00000000
0
LINE
8
BLACK
6
CONTINUOUS
10
2.2137794881889765
20
0.4704724409448819
11
2.2137794881889765
21
0.5137795275590551
0
ARC
8
BLACK
10
2.2019684645669293
20
0.5137795275590551
40
0.0118110236220472
50
0.00000000
51
180.00000000
0
LINE
8
BLACK
6
CONTINUOUS
10
2.1901574409448816
20
0.5137795275590551
11
2.1901574409448816
21
0.4704724409448819
0
ARC
8
BLACK
10
2.2019684645669293
20
0.4704724409448819
40
0.0118110236220472
50
180.00000000
51
360.00000000
0
LINE
8
BLACK
6
CONTINUOUS
10
1.8736220078740158
20
0.4704724409448819
11
1.8736220078740158
21
0.5137795275590551
0
ARC
8
BLACK
10
1.8618109842519686
20
0.5137795275590551
40
0.0118110236220472
50
0.00000000
51
180.00000000
0
LINE
8
BLACK
6
CONTINUOUS
10
1.8499999606299211
20
0.5137795275590551
11
1.8499999606299211
21
0.4704724409448819
0
ARC
8
BLACK
10
1.8618109842519686
20
0.4704724409448819
40
0.0118110236220472
50
180.00000000
51
360.00000000
0
LINE
8
BLACK
6
CONTINUOUS
10
0.6673228346456693
20
1.962598464566929
11
0.687007874015748
21
1.962598464566929
0
ARC
8
BLACK
10
0.687007874015748
20
2.
40
0.0374015354330709
50
-90.00000000
51
90.00000000
0
LINE
8
BLACK
6
CONTINUOUS
10
0.687007874015748
20
2.0374015354330708
11
0.6673228346456693
21
2.0374015354330708
0
ARC
8
BLACK
10
0.6673228346456693
20
2.
40
0.0374015354330709
50
90.00000000
51
270.00000000
0
LINE
8
BLACK
6
CONTINUOUS
10
2.1358267716535431
20
2.0374015354330708
11
2.1161417322834644
21
2.0374015354330708
0
ARC
8
BLACK
10
2.1161417322834644
20
2.
40
0.0374015354330709
50
90.00000000
51
270.00000000
0
LINE
8
BLACK
6
CONTINUOUS
10
2.1161417322834644
20
1.962598464566929
11
2.1358267716535431
21
1.962598464566929
0
ARC
8
BLACK
10
2.1358267716535431
20
2.
40
0.0374015354330709
50
270.00000000
51
450.00000000
  0
ENDSEC
  0
EOF
