  0
SECTION
  2
HEADER
  9
$ANGBASE
  50
0.0
  9
$ANGDIR
  70
1
  9
$MEASUREMENT
  70
0
  0
ENDSEC
  0
SECTION
  2
TABLES
  0
TABLE
  2
LTYPE
  70
4
  0
LTYPE
  5
40F
  2
CONTINUOUS
  70
0
  3
Solid line
  72
65
  73
0
  40
0.0
  0
LTYPE
  5
410
  2
DASHDOT
 70
0
  3
Dash Dot ____ _ ____ _
 72
65
 73
4
 40
2.0
 49
1.25
 49
-0.25
 49
0.25
 49
-0.25
  0
LTYPE
  5
411
  2
DASHED
 70
0
  3
Dashed __ __ __ __ __
 72
65
 73
2
 40
0.75
 49
0.5
 49
-0.25
  0
LTYPE
  5
43B
  2
DOTTED
 70
0
  3
Dotted .  .  .  .
 72
65
 73
2
 40
0.2
 49
0.0
 49
-0.2
  0
ENDTAB
  0
TABLE
  2
STYLE
  70
4
  0
STYLE
  2
KICAD
  70
0
  40
0
  41
1
  42
1
  50
0
  71
0
  3
isocp.shx
  0
STYLE
  2
KICADB
  70
0
  40
0
  41
1
  42
1
  50
0
  71
0
  3
isocp.shx
  0
STYLE
  2
KICADI
  70
0
  40
0
  41
1
  42
1
  50
15
  71
0
  3
isocp.shx
  0
STYLE
  2
KICADBI
  70
0
  40
0
  41
1
  42
1
  50
15
  71
0
  3
isocp.shx
  0
ENDTAB
  0
TABLE
  2
LAYER
  70
1
  0
LAYER
  2
BLACK
  70
0
  62
7
  6
CONTINUOUS
  0
ENDTAB
  0
ENDSEC
  0
SECTION
  2
ENTITIES
0
LINE
8
BLACK
6
CONTINUOUS
10
2.2330537795275589
20
0.5481534251968504
11
2.2335864566929131
21
0.5476207480314961
0
LINE
8
BLACK
6
CONTINUOUS
10
2.2335864566929131
20
0.5476207480314961
11
2.2336613779527559
21
0.547244094488189
0
LINE
8
BLACK
6
CONTINUOUS
10
2.2336613779527559
20
0.547244094488189
11
2.2336613779527559
21
0.2153543307086614
0
LINE
8
BLACK
6
CONTINUOUS
10
2.2336613779527559
20
0.2153543307086614
11
2.2335864566929131
21
0.2149776771653543
0
LINE
8
BLACK
6
CONTINUOUS
10
2.2335864566929131
20
0.2149776771653543
11
2.2330537795275589
21
0.214445
0
LINE
8
BLACK
6
CONTINUOUS
10
2.2330537795275589
20
0.214445
11
2.2326771259842517
21
0.2143700787401575
0
LINE
8
BLACK
6
CONTINUOUS
10
2.2326771259842517
20
0.2143700787401575
11
1.8311023228346457
21
0.2143700787401575
0
LINE
8
BLACK
6
CONTINUOUS
10
1.8311023228346457
20
0.2143700787401575
11
1.8307256692913385
21
0.214445
0
LINE
8
BLACK
6
CONTINUOUS
10
1.8307256692913385
20
0.214445
11
1.8301929921259843
21
0.2149776771653543
0
LINE
8
BLACK
6
CONTINUOUS
10
1.8301929921259843
20
0.2149776771653543
11
1.8301180708661418
21
0.2153543307086614
0
LINE
8
BLACK
6
CONTINUOUS
10
1.8301180708661418
20
0.2153543307086614
11
1.8301180708661418
21
0.547244094488189
0
LINE
8
BLACK
6
CONTINUOUS
10
1.8301180708661418
20
0.547244094488189
11
1.8301929921259843
21
0.5476207480314961
0
LINE
8
BLACK
6
CONTINUOUS
10
1.8301929921259843
20
0.5476207480314961
11
1.8307256692913385
21
0.5481534251968504
0
LINE
8
BLACK
6
CONTINUOUS
10
1.8307256692913385
20
0.5481534251968504
11
1.8311023228346457
21
0.5482283464566929
0
LINE
8
BLACK
6
CONTINUOUS
10
1.8311023228346457
20
0.5482283464566929
11
2.2326771259842517
21
0.5482283464566929
0
LINE
8
BLACK
6
CONTINUOUS
10
2.2326771259842517
20
0.5482283464566929
11
2.2330537795275589
21
0.5481534251968504
0
LINE
8
BLACK
6
CONTINUOUS
10
1.8320865748031496
20
0.5462598425196851
11
1.8320865748031496
21
0.2163385826771654
0
LINE
8
BLACK
6
CONTINUOUS
10
1.8320865748031496
20
0.2163385826771654
11
2.231692874015748
21
0.2163385826771654
0
LINE
8
BLACK
6
CONTINUOUS
10
2.231692874015748
20
0.2163385826771654
11
2.231692874015748
21
0.5462598425196851
0
LINE
8
BLACK
6
CONTINUOUS
10
2.231692874015748
20
0.5462598425196851
11
1.8320865748031496
21
0.5462598425196851
0
LINE
8
BLACK
6
CONTINUOUS
10
1.452345157480315
20
0.7154762992125984
11
1.4528778346456692
21
0.714943622047244
0
LINE
8
BLACK
6
CONTINUOUS
10
1.4528778346456692
20
0.714943622047244
11
1.4529527559055118
21
0.714566968503937
0
LINE
8
BLACK
6
CONTINUOUS
10
1.4529527559055118
20
0.714566968503937
11
1.4529527559055118
21
0.5807087007874016
0
LINE
8
BLACK
6
CONTINUOUS
10
1.4529527559055118
20
0.5807087007874016
11
1.4528778346456692
21
0.5803320472440945
0
LINE
8
BLACK
6
CONTINUOUS
10
1.4528778346456692
20
0.5803320472440945
11
1.452345157480315
21
0.5797993700787402
0
LINE
8
BLACK
6
CONTINUOUS
10
1.452345157480315
20
0.5797993700787402
11
1.4519685039370078
21
0.5797244488188976
0
LINE
8
BLACK
6
CONTINUOUS
10
1.4519685039370078
20
0.5797244488188976
11
1.3748031496062991
21
0.5797244488188976
0
LINE
8
BLACK
6
CONTINUOUS
10
1.3748031496062991
20
0.5797244488188976
11
1.3744264960629922
21
0.5797993700787402
0
LINE
8
BLACK
6
CONTINUOUS
10
1.3744264960629922
20
0.5797993700787402
11
1.3738938188976377
21
0.5803320472440945
0
LINE
8
BLACK
6
CONTINUOUS
10
1.3738938188976377
20
0.5803320472440945
11
1.3738188976377952
21
0.5807087007874016
0
LINE
8
BLACK
6
CONTINUOUS
10
1.3738188976377952
20
0.5807087007874016
11
1.3738188976377952
21
0.714566968503937
0
LINE
8
BLACK
6
CONTINUOUS
10
1.3738188976377952
20
0.714566968503937
11
1.3738938188976377
21
0.714943622047244
0
LINE
8
BLACK
6
CONTINUOUS
10
1.3738938188976377
20
0.714943622047244
11
1.3744264960629922
21
0.7154762992125984
0
LINE
8
BLACK
6
CONTINUOUS
10
1.3744264960629922
20
0.7154762992125984
11
1.3748031496062991
21
0.7155512204724409
0
LINE
8
BLACK
6
CONTINUOUS
10
1.3748031496062991
20
0.7155512204724409
11
1.4519685039370078
21
0.7155512204724409
0
LINE
8
BLACK
6
CONTINUOUS
10
1.4519685039370078
20
0.7155512204724409
11
1.452345157480315
21
0.7154762992125984
0
LINE
8
BLACK
6
CONTINUOUS
10
1.3757874015748031
20
0.713582716535433
11
1.3757874015748031
21
0.5816929527559055
0
LINE
8
BLACK
6
CONTINUOUS
10
1.3757874015748031
20
0.5816929527559055
11
1.4509842519685039
21
0.5816929527559055
0
LINE
8
BLACK
6
CONTINUOUS
10
1.4509842519685039
20
0.5816929527559055
11
1.4509842519685039
21
0.713582716535433
0
LINE
8
BLACK
6
CONTINUOUS
10
1.4509842519685039
20
0.713582716535433
11
1.3757874015748031
21
0.713582716535433
0
LINE
8
BLACK
6
CONTINUOUS
10
1.3606128740157479
20
0.867051062992126
11
1.3611455511811024
21
0.8665183858267717
0
LINE
8
BLACK
6
CONTINUOUS
10
1.3611455511811024
20
0.8665183858267717
11
1.3612204724409449
21
0.8661417322834646
0
LINE
8
BLACK
6
CONTINUOUS
10
1.3612204724409449
20
0.8661417322834646
11
1.3612204724409449
21
0.5826771653543307
0
LINE
8
BLACK
6
CONTINUOUS
10
1.3612204724409449
20
0.5826771653543307
11
1.3611455511811024
21
0.5823005118110236
0
LINE
8
BLACK
6
CONTINUOUS
10
1.3611455511811024
20
0.5823005118110236
11
1.3606128740157479
21
0.5817678346456693
0
LINE
8
BLACK
6
CONTINUOUS
10
1.3606128740157479
20
0.5817678346456693
11
1.360236220472441
21
0.5816929133858267
0
LINE
8
BLACK
6
CONTINUOUS
10
1.360236220472441
20
0.5816929133858267
11
1.0137795275590551
21
0.5816929133858267
0
LINE
8
BLACK
6
CONTINUOUS
10
1.0137795275590551
20
0.5816929133858267
11
1.0134028740157479
21
0.5817678346456693
0
LINE
8
BLACK
6
CONTINUOUS
10
1.0134028740157479
20
0.5817678346456693
11
1.0128701968503937
21
0.5823005118110236
0
LINE
8
BLACK
6
CONTINUOUS
10
1.0128701968503937
20
0.5823005118110236
11
1.0127952755905512
21
0.5826771653543307
0
LINE
8
BLACK
6
CONTINUOUS
10
1.0127952755905512
20
0.5826771653543307
11
1.0127952755905512
21
0.8661417322834646
0
LINE
8
BLACK
6
CONTINUOUS
10
1.0127952755905512
20
0.8661417322834646
11
1.0128701968503937
21
0.8665183858267717
0
LINE
8
BLACK
6
CONTINUOUS
10
1.0128701968503937
20
0.8665183858267717
11
1.0134028740157479
21
0.867051062992126
0
LINE
8
BLACK
6
CONTINUOUS
10
1.0134028740157479
20
0.867051062992126
11
1.0137795275590551
21
0.8671259842519685
0
LINE
8
BLACK
6
CONTINUOUS
10
1.0137795275590551
20
0.8671259842519685
11
1.360236220472441
21
0.8671259842519685
0
LINE
8
BLACK
6
CONTINUOUS
10
1.360236220472441
20
0.8671259842519685
11
1.3606128740157479
21
0.867051062992126
0
LINE
8
BLACK
6
CONTINUOUS
10
1.014763779527559
20
0.8651574803149606
11
1.014763779527559
21
0.5836614173228346
0
LINE
8
BLACK
6
CONTINUOUS
10
1.014763779527559
20
0.5836614173228346
11
1.359251968503937
21
0.5836614173228346
0
LINE
8
BLACK
6
CONTINUOUS
10
1.359251968503937
20
0.5836614173228346
11
1.359251968503937
21
0.8651574803149606
0
LINE
8
BLACK
6
CONTINUOUS
10
1.359251968503937
20
0.8651574803149606
11
1.014763779527559
21
0.8651574803149606
0
LINE
8
BLACK
6
CONTINUOUS
10
1.920356968503937
20
0.6603581496062992
11
1.9208896456692912
21
0.6598254724409449
0
LINE
8
BLACK
6
CONTINUOUS
10
1.9208896456692912
20
0.6598254724409449
11
1.9209645669291338
21
0.6594488188976377
0
LINE
8
BLACK
6
CONTINUOUS
10
1.9209645669291338
20
0.6594488188976377
11
1.9209645669291338
21
0.5846456692913385
0
LINE
8
BLACK
6
CONTINUOUS
10
1.9209645669291338
20
0.5846456692913385
11
1.9208896456692912
21
0.5842690157480315
0
LINE
8
BLACK
6
CONTINUOUS
10
1.9208896456692912
20
0.5842690157480315
11
1.920356968503937
21
0.5837363385826772
0
LINE
8
BLACK
6
CONTINUOUS
10
1.920356968503937
20
0.5837363385826772
11
1.9199803149606298
21
0.5836614173228346
0
LINE
8
BLACK
6
CONTINUOUS
10
1.9199803149606298
20
0.5836614173228346
11
1.7876968503937007
21
0.5836614173228346
0
LINE
8
BLACK
6
CONTINUOUS
10
1.7876968503937007
20
0.5836614173228346
11
1.7873201968503936
21
0.5837363385826772
0
LINE
8
BLACK
6
CONTINUOUS
10
1.7873201968503936
20
0.5837363385826772
11
1.7867875196850393
21
0.5842690157480315
0
LINE
8
BLACK
6
CONTINUOUS
10
1.7867875196850393
20
0.5842690157480315
11
1.7867125984251968
21
0.5846456692913385
0
LINE
8
BLACK
6
CONTINUOUS
10
1.7867125984251968
20
0.5846456692913385
11
1.7867125984251968
21
0.6594488188976377
0
LINE
8
BLACK
6
CONTINUOUS
10
1.7867125984251968
20
0.6594488188976377
11
1.7867875196850393
21
0.6598254724409449
0
LINE
8
BLACK
6
CONTINUOUS
10
1.7867875196850393
20
0.6598254724409449
11
1.7873201968503936
21
0.6603581496062992
0
LINE
8
BLACK
6
CONTINUOUS
10
1.7873201968503936
20
0.6603581496062992
11
1.7876968503937007
21
0.6604330708661417
0
LINE
8
BLACK
6
CONTINUOUS
10
1.7876968503937007
20
0.6604330708661417
11
1.9199803149606298
21
0.6604330708661417
0
LINE
8
BLACK
6
CONTINUOUS
10
1.9199803149606298
20
0.6604330708661417
11
1.920356968503937
21
0.6603581496062992
0
LINE
8
BLACK
6
CONTINUOUS
10
1.7886811023622047
20
0.6584645669291338
11
1.7886811023622047
21
0.5856299212598425
0
LINE
8
BLACK
6
CONTINUOUS
10
1.7886811023622047
20
0.5856299212598425
11
1.9189960629921259
21
0.5856299212598425
0
LINE
8
BLACK
6
CONTINUOUS
10
1.9189960629921259
20
0.5856299212598425
11
1.9189960629921259
21
0.6584645669291338
0
LINE
8
BLACK
6
CONTINUOUS
10
1.9189960629921259
20
0.6584645669291338
11
1.7886811023622047
21
0.6584645669291338
0
LINE
8
BLACK
6
CONTINUOUS
10
2.2707506692913384
20
0.664295157480315
11
2.2712833464566931
21
0.6637624803149607
0
LINE
8
BLACK
6
CONTINUOUS
10
2.2712833464566931
20
0.6637624803149607
11
2.2713582677165354
21
0.6633858267716535
0
LINE
8
BLACK
6
CONTINUOUS
10
2.2713582677165354
20
0.6633858267716535
11
2.2713582677165354
21
0.5885826771653543
0
LINE
8
BLACK
6
CONTINUOUS
10
2.2713582677165354
20
0.5885826771653543
11
2.2712833464566931
21
0.5882060236220472
0
LINE
8
BLACK
6
CONTINUOUS
10
2.2712833464566931
20
0.5882060236220472
11
2.2707506692913384
21
0.5876733464566929
0
LINE
8
BLACK
6
CONTINUOUS
10
2.2707506692913384
20
0.5876733464566929
11
2.2703740157480317
21
0.5875984251968503
0
LINE
8
BLACK
6
CONTINUOUS
10
2.2703740157480317
20
0.5875984251968503
11
2.1380905511811021
21
0.5875984251968503
0
LINE
8
BLACK
6
CONTINUOUS
10
2.1380905511811021
20
0.5875984251968503
11
2.1377138976377954
21
0.5876733464566929
0
LINE
8
BLACK
6
CONTINUOUS
10
2.1377138976377954
20
0.5876733464566929
11
2.1371812204724407
21
0.5882060236220472
0
LINE
8
BLACK
6
CONTINUOUS
10
2.1371812204724407
20
0.5882060236220472
11
2.1371062992125984
21
0.5885826771653543
0
LINE
8
BLACK
6
CONTINUOUS
10
2.1371062992125984
20
0.5885826771653543
11
2.1371062992125984
21
0.6633858267716535
0
LINE
8
BLACK
6
CONTINUOUS
10
2.1371062992125984
20
0.6633858267716535
11
2.1371812204724407
21
0.6637624803149607
0
LINE
8
BLACK
6
CONTINUOUS
10
2.1371812204724407
20
0.6637624803149607
11
2.1377138976377954
21
0.664295157480315
0
LINE
8
BLACK
6
CONTINUOUS
10
2.1377138976377954
20
0.664295157480315
11
2.1380905511811021
21
0.6643700787401574
0
LINE
8
BLACK
6
CONTINUOUS
10
2.1380905511811021
20
0.6643700787401574
11
2.2703740157480317
21
0.6643700787401574
0
LINE
8
BLACK
6
CONTINUOUS
10
2.2703740157480317
20
0.6643700787401574
11
2.2707506692913384
21
0.664295157480315
0
LINE
8
BLACK
6
CONTINUOUS
10
2.1390748031496063
20
0.6624015748031495
11
2.1390748031496063
21
0.5895669291338582
0
LINE
8
BLACK
6
CONTINUOUS
10
2.1390748031496063
20
0.5895669291338582
11
2.2693897637795275
21
0.5895669291338582
0
LINE
8
BLACK
6
CONTINUOUS
10
2.2693897637795275
20
0.5895669291338582
11
2.2693897637795275
21
0.6624015748031495
0
LINE
8
BLACK
6
CONTINUOUS
10
2.2693897637795275
20
0.6624015748031495
11
2.1390748031496063
21
0.6624015748031495
0
LINE
8
BLACK
6
CONTINUOUS
10
1.0035262598425196
20
0.7450038188976378
11
1.0040589370078741
21
0.7444711417322835
0
LINE
8
BLACK
6
CONTINUOUS
10
1.0040589370078741
20
0.7444711417322835
11
1.0041338582677166
21
0.7440944881889764
0
LINE
8
BLACK
6
CONTINUOUS
10
1.0041338582677166
20
0.7440944881889764
11
1.0041338582677166
21
0.610236220472441
0
LINE
8
BLACK
6
CONTINUOUS
10
1.0041338582677166
20
0.610236220472441
11
1.0040589370078741
21
0.6098595669291338
0
LINE
8
BLACK
6
CONTINUOUS
10
1.0040589370078741
20
0.6098595669291338
11
1.0035262598425196
21
0.6093268897637795
0
LINE
8
BLACK
6
CONTINUOUS
10
1.0035262598425196
20
0.6093268897637795
11
1.0031496062992127
21
0.609251968503937
0
LINE
8
BLACK
6
CONTINUOUS
10
1.0031496062992127
20
0.609251968503937
11
0.9259842519685039
21
0.609251968503937
0
LINE
8
BLACK
6
CONTINUOUS
10
0.9259842519685039
20
0.609251968503937
11
0.9256075984251968
21
0.6093268897637795
0
LINE
8
BLACK
6
CONTINUOUS
10
0.9256075984251968
20
0.6093268897637795
11
0.9250749212598425
21
0.6098595669291338
0
LINE
8
BLACK
6
CONTINUOUS
10
0.9250749212598425
20
0.6098595669291338
11
0.9249999999999999
21
0.610236220472441
0
LINE
8
BLACK
6
CONTINUOUS
10
0.9249999999999999
20
0.610236220472441
11
0.9249999999999999
21
0.7440944881889764
0
LINE
8
BLACK
6
CONTINUOUS
10
0.9249999999999999
20
0.7440944881889764
11
0.9250749212598425
21
0.7444711417322835
0
LINE
8
BLACK
6
CONTINUOUS
10
0.9250749212598425
20
0.7444711417322835
11
0.9256075984251968
21
0.7450038188976378
0
LINE
8
BLACK
6
CONTINUOUS
10
0.9256075984251968
20
0.7450038188976378
11
0.9259842519685039
21
0.7450787401574803
0
LINE
8
BLACK
6
CONTINUOUS
10
0.9259842519685039
20
0.7450787401574803
11
1.0031496062992127
21
0.7450787401574803
0
LINE
8
BLACK
6
CONTINUOUS
10
1.0031496062992127
20
0.7450787401574803
11
1.0035262598425196
21
0.7450038188976378
0
LINE
8
BLACK
6
CONTINUOUS
10
0.9269685039370078
20
0.7431102362204725
11
0.9269685039370078
21
0.6112204724409449
0
LINE
8
BLACK
6
CONTINUOUS
10
0.9269685039370078
20
0.6112204724409449
11
1.0021653543307087
21
0.6112204724409449
0
LINE
8
BLACK
6
CONTINUOUS
10
1.0021653543307087
20
0.6112204724409449
11
1.0021653543307087
21
0.7431102362204725
0
LINE
8
BLACK
6
CONTINUOUS
10
1.0021653543307087
20
0.7431102362204725
11
0.9269685039370078
21
0.7431102362204725
0
LINE
8
BLACK
6
CONTINUOUS
10
1.8827030708661416
20
0.8753277952755906
11
1.8830224015748032
21
0.8751144488188977
0
LINE
8
BLACK
6
CONTINUOUS
10
1.8830224015748032
20
0.8751144488188977
11
1.9101652362204724
21
0.8479715748031496
0
LINE
8
BLACK
6
CONTINUOUS
10
1.9101652362204724
20
0.8479715748031496
11
1.9150370472440945
21
0.8528433464566929
0
LINE
8
BLACK
6
CONTINUOUS
10
1.9150370472440945
20
0.8528433464566929
11
1.9153563779527558
21
0.8530567322834646
0
LINE
8
BLACK
6
CONTINUOUS
10
1.9153563779527558
20
0.8530567322834646
11
1.91610968503937
21
0.8530567322834646
0
LINE
8
BLACK
6
CONTINUOUS
10
1.91610968503937
20
0.8530567322834646
11
1.9164290157480315
21
0.8528433858267717
0
LINE
8
BLACK
6
CONTINUOUS
10
1.9164290157480315
20
0.8528433858267717
11
1.9748906299212599
21
0.7943817716535433
0
LINE
8
BLACK
6
CONTINUOUS
10
1.9748906299212599
20
0.7943817716535433
11
1.9751039763779528
21
0.7940624409448819
0
LINE
8
BLACK
6
CONTINUOUS
10
1.9751039763779528
20
0.7940624409448819
11
1.9751039763779528
21
0.7933091338582677
0
LINE
8
BLACK
6
CONTINUOUS
10
1.9751039763779528
20
0.7933091338582677
11
1.9748905905511811
21
0.7929898031496063
0
LINE
8
BLACK
6
CONTINUOUS
10
1.9748905905511811
20
0.7929898031496063
11
1.970018779527559
21
0.788118031496063
0
LINE
8
BLACK
6
CONTINUOUS
10
1.970018779527559
20
0.788118031496063
11
1.997161653543307
21
0.760975157480315
0
LINE
8
BLACK
6
CONTINUOUS
10
1.997161653543307
20
0.760975157480315
11
1.9973750393700787
21
0.7606558267716536
0
LINE
8
BLACK
6
CONTINUOUS
10
1.9973750393700787
20
0.7606558267716536
11
1.9973750393700787
21
0.7599025196850393
0
LINE
8
BLACK
6
CONTINUOUS
10
1.9973750393700787
20
0.7599025196850393
11
1.9971616929133857
21
0.7595832283464566
0
LINE
8
BLACK
6
CONTINUOUS
10
1.9971616929133857
20
0.7595832283464566
11
1.9136451574803148
21
0.6760666535433071
0
LINE
8
BLACK
6
CONTINUOUS
10
1.9136451574803148
20
0.6760666535433071
11
1.9133258267716535
21
0.6758533070866142
0
LINE
8
BLACK
6
CONTINUOUS
10
1.9133258267716535
20
0.6758533070866142
11
1.9125725196850394
21
0.6758533070866142
0
LINE
8
BLACK
6
CONTINUOUS
10
1.9125725196850394
20
0.6758533070866142
11
1.9122531889763779
21
0.6760666929133858
0
LINE
8
BLACK
6
CONTINUOUS
10
1.9122531889763779
20
0.6760666929133858
11
1.8851103149606299
21
0.7032095275590551
0
LINE
8
BLACK
6
CONTINUOUS
10
1.8851103149606299
20
0.7032095275590551
11
1.8802385433070865
21
0.6983377165354331
0
LINE
8
BLACK
6
CONTINUOUS
10
1.8802385433070865
20
0.6983377165354331
11
1.8799192125984252
21
0.6981243700787402
0
LINE
8
BLACK
6
CONTINUOUS
10
1.8799192125984252
20
0.6981243700787402
11
1.8791659055118111
21
0.6981243700787402
0
LINE
8
BLACK
6
CONTINUOUS
10
1.8791659055118111
20
0.6981243700787402
11
1.8788465748031495
21
0.6983377165354331
0
LINE
8
BLACK
6
CONTINUOUS
10
1.8788465748031495
20
0.6983377165354331
11
1.8203849606299212
21
0.7567993307086615
0
LINE
8
BLACK
6
CONTINUOUS
10
1.8203849606299212
20
0.7567993307086615
11
1.8201716141732283
21
0.7571186614173229
0
LINE
8
BLACK
6
CONTINUOUS
10
1.8201716141732283
20
0.7571186614173229
11
1.8201716141732283
21
0.757871968503937
0
LINE
8
BLACK
6
CONTINUOUS
10
1.8201716141732283
20
0.757871968503937
11
1.8203849606299212
21
0.7581912992125984
0
LINE
8
BLACK
6
CONTINUOUS
10
1.8203849606299212
20
0.7581912992125984
11
1.8252567716535433
21
0.7630631102362204
0
LINE
8
BLACK
6
CONTINUOUS
10
1.8252567716535433
20
0.7630631102362204
11
1.7981138976377953
21
0.7902059448818898
0
LINE
8
BLACK
6
CONTINUOUS
10
1.7981138976377953
20
0.7902059448818898
11
1.7979005511811024
21
0.7905252755905512
0
LINE
8
BLACK
6
CONTINUOUS
10
1.7979005511811024
20
0.7905252755905512
11
1.7979005511811024
21
0.7912785826771653
0
LINE
8
BLACK
6
CONTINUOUS
10
1.7979005511811024
20
0.7912785826771653
11
1.7981138976377953
21
0.7915979133858267
0
LINE
8
BLACK
6
CONTINUOUS
10
1.7981138976377953
20
0.7915979133858267
11
1.8816304724409449
21
0.8751144488188977
0
LINE
8
BLACK
6
CONTINUOUS
10
1.8816304724409449
20
0.8751144488188977
11
1.8819497637795275
21
0.8753277952755906
0
LINE
8
BLACK
6
CONTINUOUS
10
1.8819497637795275
20
0.8753277952755906
11
1.8827030708661416
21
0.8753277952755906
0
LINE
8
BLACK
6
CONTINUOUS
10
1.800201811023622
20
0.7909019291338583
11
1.82734468503937
21
0.7637590551181103
0
LINE
8
BLACK
6
CONTINUOUS
10
1.82734468503937
20
0.7637590551181103
11
1.8275580708661416
21
0.7634397244094488
0
LINE
8
BLACK
6
CONTINUOUS
10
1.8275580708661416
20
0.7634397244094488
11
1.8275580708661416
21
0.7626864173228346
0
LINE
8
BLACK
6
CONTINUOUS
10
1.8275580708661416
20
0.7626864173228346
11
1.82734468503937
21
0.7623670866141732
0
LINE
8
BLACK
6
CONTINUOUS
10
1.82734468503937
20
0.7623670866141732
11
1.8224729133858266
21
0.7574953149606299
0
LINE
8
BLACK
6
CONTINUOUS
10
1.8224729133858266
20
0.7574953149606299
11
1.879542559055118
21
0.7004256692913385
0
LINE
8
BLACK
6
CONTINUOUS
10
1.879542559055118
20
0.7004256692913385
11
1.8844143307086614
21
0.7052974409448819
0
LINE
8
BLACK
6
CONTINUOUS
10
1.8844143307086614
20
0.7052974409448819
11
1.8847336614173227
21
0.7055108267716536
0
LINE
8
BLACK
6
CONTINUOUS
10
1.8847336614173227
20
0.7055108267716536
11
1.885486968503937
21
0.7055108267716536
0
LINE
8
BLACK
6
CONTINUOUS
10
1.885486968503937
20
0.7055108267716536
11
1.8858062992125983
21
0.7052974803149606
0
LINE
8
BLACK
6
CONTINUOUS
10
1.8858062992125983
20
0.7052974803149606
11
1.9129491338582676
21
0.6781546062992125
0
LINE
8
BLACK
6
CONTINUOUS
10
1.9129491338582676
20
0.6781546062992125
11
1.9950737401574803
21
0.7602791732283465
0
LINE
8
BLACK
6
CONTINUOUS
10
1.9950737401574803
20
0.7602791732283465
11
1.9679308661417323
21
0.7874220472440945
0
LINE
8
BLACK
6
CONTINUOUS
10
1.9679308661417323
20
0.7874220472440945
11
1.9677175196850394
21
0.7877413779527559
0
LINE
8
BLACK
6
CONTINUOUS
10
1.9677175196850394
20
0.7877413779527559
11
1.9677175196850394
21
0.78849468503937
0
LINE
8
BLACK
6
CONTINUOUS
10
1.9677175196850394
20
0.78849468503937
11
1.9679308661417323
21
0.7888140157480314
0
LINE
8
BLACK
6
CONTINUOUS
10
1.9679308661417323
20
0.7888140157480314
11
1.9728026377952756
21
0.7936858267716536
0
LINE
8
BLACK
6
CONTINUOUS
10
1.9728026377952756
20
0.7936858267716536
11
1.915733031496063
21
0.8507554330708661
0
LINE
8
BLACK
6
CONTINUOUS
10
1.915733031496063
20
0.8507554330708661
11
1.9108612598425196
21
0.8458836220472441
0
LINE
8
BLACK
6
CONTINUOUS
10
1.9108612598425196
20
0.8458836220472441
11
1.9105419291338581
21
0.8456702755905512
0
LINE
8
BLACK
6
CONTINUOUS
10
1.9105419291338581
20
0.8456702755905512
11
1.909788622047244
21
0.8456702755905512
0
LINE
8
BLACK
6
CONTINUOUS
10
1.909788622047244
20
0.8456702755905512
11
1.9094692913385827
21
0.8458836614173229
0
LINE
8
BLACK
6
CONTINUOUS
10
1.9094692913385827
20
0.8458836614173229
11
1.8823263779527559
21
0.8730265354330708
0
LINE
8
BLACK
6
CONTINUOUS
10
1.8823263779527559
20
0.8730265354330708
11
1.800201811023622
21
0.7909019291338583
0
LINE
8
BLACK
6
CONTINUOUS
10
1.452345157480315
20
0.8532714960629921
11
1.4528778346456692
21
0.8527388188976378
0
LINE
8
BLACK
6
CONTINUOUS
10
1.4528778346456692
20
0.8527388188976378
11
1.4529527559055118
21
0.8523621653543307
0
LINE
8
BLACK
6
CONTINUOUS
10
1.4529527559055118
20
0.8523621653543307
11
1.4529527559055118
21
0.7185038976377952
0
LINE
8
BLACK
6
CONTINUOUS
10
1.4529527559055118
20
0.7185038976377952
11
1.4528778346456692
21
0.7181272440944881
0
LINE
8
BLACK
6
CONTINUOUS
10
1.4528778346456692
20
0.7181272440944881
11
1.452345157480315
21
0.7175945669291338
0
LINE
8
BLACK
6
CONTINUOUS
10
1.452345157480315
20
0.7175945669291338
11
1.4519685039370078
21
0.7175196456692913
0
LINE
8
BLACK
6
CONTINUOUS
10
1.4519685039370078
20
0.7175196456692913
11
1.3748031496062991
21
0.7175196456692913
0
LINE
8
BLACK
6
CONTINUOUS
10
1.3748031496062991
20
0.7175196456692913
11
1.3744264960629922
21
0.7175945669291338
0
LINE
8
BLACK
6
CONTINUOUS
10
1.3744264960629922
20
0.7175945669291338
11
1.3738938188976377
21
0.7181272440944881
0
LINE
8
BLACK
6
CONTINUOUS
10
1.3738938188976377
20
0.7181272440944881
11
1.3738188976377952
21
0.7185038976377952
0
LINE
8
BLACK
6
CONTINUOUS
10
1.3738188976377952
20
0.7185038976377952
11
1.3738188976377952
21
0.8523621653543307
0
LINE
8
BLACK
6
CONTINUOUS
10
1.3738188976377952
20
0.8523621653543307
11
1.3738938188976377
21
0.8527388188976378
0
LINE
8
BLACK
6
CONTINUOUS
10
1.3738938188976377
20
0.8527388188976378
11
1.3744264960629922
21
0.8532714960629921
0
LINE
8
BLACK
6
CONTINUOUS
10
1.3744264960629922
20
0.8532714960629921
11
1.3748031496062991
21
0.8533464173228347
0
LINE
8
BLACK
6
CONTINUOUS
10
1.3748031496062991
20
0.8533464173228347
11
1.4519685039370078
21
0.8533464173228347
0
LINE
8
BLACK
6
CONTINUOUS
10
1.4519685039370078
20
0.8533464173228347
11
1.452345157480315
21
0.8532714960629921
0
LINE
8
BLACK
6
CONTINUOUS
10
1.3757874015748031
20
0.8513779133858268
11
1.3757874015748031
21
0.7194881496062991
0
LINE
8
BLACK
6
CONTINUOUS
10
1.3757874015748031
20
0.7194881496062991
11
1.4509842519685039
21
0.7194881496062991
0
LINE
8
BLACK
6
CONTINUOUS
10
1.4509842519685039
20
0.7194881496062991
11
1.4509842519685039
21
0.8513779133858268
0
LINE
8
BLACK
6
CONTINUOUS
10
1.4509842519685039
20
0.8513779133858268
11
1.3757874015748031
21
0.8513779133858268
0
LINE
8
BLACK
6
CONTINUOUS
10
1.545652283464567
20
1.3347675984251968
11
1.5461849606299212
21
1.3342349212598426
0
LINE
8
BLACK
6
CONTINUOUS
10
1.5461849606299212
20
1.3342349212598426
11
1.5462598818897637
21
1.3338582677165354
0
LINE
8
BLACK
6
CONTINUOUS
10
1.5462598818897637
20
1.3338582677165354
11
1.5462598818897637
21
1.2566929133858267
0
LINE
8
BLACK
6
CONTINUOUS
10
1.5462598818897637
20
1.2566929133858267
11
1.5461849606299212
21
1.2563162598425197
0
LINE
8
BLACK
6
CONTINUOUS
10
1.5461849606299212
20
1.2563162598425197
11
1.545652283464567
21
1.2557835826771653
0
LINE
8
BLACK
6
CONTINUOUS
10
1.545652283464567
20
1.2557835826771653
11
1.5452756299212598
21
1.2557086614173227
0
LINE
8
BLACK
6
CONTINUOUS
10
1.5452756299212598
20
1.2557086614173227
11
1.4114173622047244
21
1.2557086614173227
0
LINE
8
BLACK
6
CONTINUOUS
10
1.4114173622047244
20
1.2557086614173227
11
1.4110407086614174
21
1.2557835826771653
0
LINE
8
BLACK
6
CONTINUOUS
10
1.4110407086614174
20
1.2557835826771653
11
1.410508031496063
21
1.2563162598425197
0
LINE
8
BLACK
6
CONTINUOUS
10
1.410508031496063
20
1.2563162598425197
11
1.4104331102362204
21
1.2566929133858267
0
LINE
8
BLACK
6
CONTINUOUS
10
1.4104331102362204
20
1.2566929133858267
11
1.4104331102362204
21
1.3338582677165354
0
LINE
8
BLACK
6
CONTINUOUS
10
1.4104331102362204
20
1.3338582677165354
11
1.410508031496063
21
1.3342349212598426
0
LINE
8
BLACK
6
CONTINUOUS
10
1.410508031496063
20
1.3342349212598426
11
1.4110407086614174
21
1.3347675984251968
0
LINE
8
BLACK
6
CONTINUOUS
10
1.4110407086614174
20
1.3347675984251968
11
1.4114173622047244
21
1.3348425196850393
0
LINE
8
BLACK
6
CONTINUOUS
10
1.4114173622047244
20
1.3348425196850393
11
1.5452756299212598
21
1.3348425196850393
0
LINE
8
BLACK
6
CONTINUOUS
10
1.5452756299212598
20
1.3348425196850393
11
1.545652283464567
21
1.3347675984251968
0
LINE
8
BLACK
6
CONTINUOUS
10
1.4124016141732283
20
1.3328740157480314
11
1.4124016141732283
21
1.2576771653543306
0
LINE
8
BLACK
6
CONTINUOUS
10
1.4124016141732283
20
1.2576771653543306
11
1.5442913779527558
21
1.2576771653543306
0
LINE
8
BLACK
6
CONTINUOUS
10
1.5442913779527558
20
1.2576771653543306
11
1.5442913779527558
21
1.3328740157480314
0
LINE
8
BLACK
6
CONTINUOUS
10
1.5442913779527558
20
1.3328740157480314
11
1.4124016141732283
21
1.3328740157480314
0
LINE
8
BLACK
6
CONTINUOUS
10
1.6834474803149606
20
1.3347675984251968
11
1.6839801574803148
21
1.3342349212598426
0
LINE
8
BLACK
6
CONTINUOUS
10
1.6839801574803148
20
1.3342349212598426
11
1.6840550787401574
21
1.3338582677165354
0
LINE
8
BLACK
6
CONTINUOUS
10
1.6840550787401574
20
1.3338582677165354
11
1.6840550787401574
21
1.2566929133858267
0
LINE
8
BLACK
6
CONTINUOUS
10
1.6840550787401574
20
1.2566929133858267
11
1.6839801574803148
21
1.2563162598425197
0
LINE
8
BLACK
6
CONTINUOUS
10
1.6839801574803148
20
1.2563162598425197
11
1.6834474803149606
21
1.2557835826771653
0
LINE
8
BLACK
6
CONTINUOUS
10
1.6834474803149606
20
1.2557835826771653
11
1.6830708267716534
21
1.2557086614173227
0
LINE
8
BLACK
6
CONTINUOUS
10
1.6830708267716534
20
1.2557086614173227
11
1.549212559055118
21
1.2557086614173227
0
LINE
8
BLACK
6
CONTINUOUS
10
1.549212559055118
20
1.2557086614173227
11
1.5488359055118111
21
1.2557835826771653
0
LINE
8
BLACK
6
CONTINUOUS
10
1.5488359055118111
20
1.2557835826771653
11
1.5483032283464566
21
1.2563162598425197
0
LINE
8
BLACK
6
CONTINUOUS
10
1.5483032283464566
20
1.2563162598425197
11
1.5482283070866141
21
1.2566929133858267
0
LINE
8
BLACK
6
CONTINUOUS
10
1.5482283070866141
20
1.2566929133858267
11
1.5482283070866141
21
1.3338582677165354
0
LINE
8
BLACK
6
CONTINUOUS
10
1.5482283070866141
20
1.3338582677165354
11
1.5483032283464566
21
1.3342349212598426
0
LINE
8
BLACK
6
CONTINUOUS
10
1.5483032283464566
20
1.3342349212598426
11
1.5488359055118111
21
1.3347675984251968
0
LINE
8
BLACK
6
CONTINUOUS
10
1.5488359055118111
20
1.3347675984251968
11
1.549212559055118
21
1.3348425196850393
0
LINE
8
BLACK
6
CONTINUOUS
10
1.549212559055118
20
1.3348425196850393
11
1.6830708267716534
21
1.3348425196850393
0
LINE
8
BLACK
6
CONTINUOUS
10
1.6830708267716534
20
1.3348425196850393
11
1.6834474803149606
21
1.3347675984251968
0
LINE
8
BLACK
6
CONTINUOUS
10
1.5501968110236219
20
1.3328740157480314
11
1.5501968110236219
21
1.2576771653543306
0
LINE
8
BLACK
6
CONTINUOUS
10
1.5501968110236219
20
1.2576771653543306
11
1.6820865748031495
21
1.2576771653543306
0
LINE
8
BLACK
6
CONTINUOUS
10
1.6820865748031495
20
1.2576771653543306
11
1.6820865748031495
21
1.3328740157480314
0
LINE
8
BLACK
6
CONTINUOUS
10
1.6820865748031495
20
1.3328740157480314
11
1.5501968110236219
21
1.3328740157480314
0
LINE
8
BLACK
6
CONTINUOUS
10
1.7158646062992127
20
2.1832847637795276
11
1.717143031496063
21
2.1820063385826769
0
LINE
8
BLACK
6
CONTINUOUS
10
1.717143031496063
20
2.1820063385826769
11
1.7173228346456693
21
2.1811023622047245
0
LINE
8
BLACK
6
CONTINUOUS
10
1.7173228346456693
20
2.1811023622047245
11
1.7173228346456693
21
1.3503937007874016
0
LINE
8
BLACK
6
CONTINUOUS
10
1.7173228346456693
20
1.3503937007874016
11
1.717143031496063
21
1.3494897244094488
0
LINE
8
BLACK
6
CONTINUOUS
10
1.717143031496063
20
1.3494897244094488
11
1.7158646062992127
21
1.3482112992125983
0
LINE
8
BLACK
6
CONTINUOUS
10
1.7158646062992127
20
1.3482112992125983
11
1.7149606299212599
21
1.348031496062992
0
LINE
8
BLACK
6
CONTINUOUS
10
1.7149606299212599
20
1.348031496062992
11
1.0850393700787402
21
1.348031496062992
0
LINE
8
BLACK
6
CONTINUOUS
10
1.0850393700787402
20
1.348031496062992
11
1.0841353937007874
21
1.3482112992125983
0
LINE
8
BLACK
6
CONTINUOUS
10
1.0841353937007874
20
1.3482112992125983
11
1.0828569685039371
21
1.3494897244094488
0
LINE
8
BLACK
6
CONTINUOUS
10
1.0828569685039371
20
1.3494897244094488
11
1.0826771653543308
21
1.3503937007874016
0
LINE
8
BLACK
6
CONTINUOUS
10
1.0826771653543308
20
1.3503937007874016
11
1.0826771653543308
21
2.1811023622047245
0
LINE
8
BLACK
6
CONTINUOUS
10
1.0826771653543308
20
2.1811023622047245
11
1.0828569685039371
21
2.1820063385826769
0
LINE
8
BLACK
6
CONTINUOUS
10
1.0828569685039371
20
2.1820063385826769
11
1.0841353937007874
21
2.1832847637795276
0
LINE
8
BLACK
6
CONTINUOUS
10
1.0841353937007874
20
2.1832847637795276
11
1.0850393700787402
21
2.1834645669291337
0
LINE
8
BLACK
6
CONTINUOUS
10
1.0850393700787402
20
2.1834645669291337
11
1.7149606299212599
21
2.1834645669291337
0
LINE
8
BLACK
6
CONTINUOUS
10
1.7149606299212599
20
2.1834645669291337
11
1.7158646062992127
21
2.1832847637795276
0
LINE
8
BLACK
6
CONTINUOUS
10
1.0874015748031496
20
2.1787401574803149
11
1.0874015748031496
21
1.352755905511811
0
LINE
8
BLACK
6
CONTINUOUS
10
1.0874015748031496
20
1.352755905511811
11
1.7125984251968505
21
1.352755905511811
0
LINE
8
BLACK
6
CONTINUOUS
10
1.7125984251968505
20
1.352755905511811
11
1.7125984251968505
21
2.1787401574803149
0
LINE
8
BLACK
6
CONTINUOUS
10
1.7125984251968505
20
2.1787401574803149
11
1.0874015748031496
21
2.1787401574803149
0
LINE
8
BLACK
6
CONTINUOUS
10
2.2582506692913387
20
1.9135077559055118
11
2.2587833464566929
21
1.9129750787401574
0
LINE
8
BLACK
6
CONTINUOUS
10
2.2587833464566929
20
1.9129750787401574
11
2.2588582677165352
21
1.9125984251968504
0
LINE
8
BLACK
6
CONTINUOUS
10
2.2588582677165352
20
1.9125984251968504
11
2.2588582677165352
21
1.7803149606299211
0
LINE
8
BLACK
6
CONTINUOUS
10
2.2588582677165352
20
1.7803149606299211
11
2.2587833464566929
21
1.7799383070866142
0
LINE
8
BLACK
6
CONTINUOUS
10
2.2587833464566929
20
1.7799383070866142
11
2.2582506692913387
21
1.7794056299212597
0
LINE
8
BLACK
6
CONTINUOUS
10
2.2582506692913387
20
1.7794056299212597
11
2.2578740157480315
21
1.7793307086614172
0
LINE
8
BLACK
6
CONTINUOUS
10
2.2578740157480315
20
1.7793307086614172
11
2.1830708661417324
21
1.7793307086614172
0
LINE
8
BLACK
6
CONTINUOUS
10
2.1830708661417324
20
1.7793307086614172
11
2.1826942125984252
21
1.7794056299212597
0
LINE
8
BLACK
6
CONTINUOUS
10
2.1826942125984252
20
1.7794056299212597
11
2.182161535433071
21
1.7799383070866142
0
LINE
8
BLACK
6
CONTINUOUS
10
2.182161535433071
20
1.7799383070866142
11
2.1820866141732282
21
1.7803149606299211
0
LINE
8
BLACK
6
CONTINUOUS
10
2.1820866141732282
20
1.7803149606299211
11
2.1820866141732282
21
1.9125984251968504
0
LINE
8
BLACK
6
CONTINUOUS
10
2.1820866141732282
20
1.9125984251968504
11
2.182161535433071
21
1.9129750787401574
0
LINE
8
BLACK
6
CONTINUOUS
10
2.182161535433071
20
1.9129750787401574
11
2.1826942125984252
21
1.9135077559055118
0
LINE
8
BLACK
6
CONTINUOUS
10
2.1826942125984252
20
1.9135077559055118
11
2.1830708661417324
21
1.9135826771653544
0
LINE
8
BLACK
6
CONTINUOUS
10
2.1830708661417324
20
1.9135826771653544
11
2.2578740157480315
21
1.9135826771653544
0
LINE
8
BLACK
6
CONTINUOUS
10
2.2578740157480315
20
1.9135826771653544
11
2.2582506692913387
21
1.9135077559055118
0
LINE
8
BLACK
6
CONTINUOUS
10
2.1840551181102361
20
1.9116141732283465
11
2.1840551181102361
21
1.7812992125984251
0
LINE
8
BLACK
6
CONTINUOUS
10
2.1840551181102361
20
1.7812992125984251
11
2.2568897637795273
21
1.7812992125984251
0
LINE
8
BLACK
6
CONTINUOUS
10
2.2568897637795273
20
1.7812992125984251
11
2.2568897637795273
21
1.9116141732283465
0
LINE
8
BLACK
6
CONTINUOUS
10
2.2568897637795273
20
1.9116141732283465
11
2.1840551181102361
21
1.9116141732283465
0
LINE
8
BLACK
6
CONTINUOUS
10
1.8617939763779527
20
1.9162637007874015
11
1.862326653543307
21
1.9157310236220473
0
LINE
8
BLACK
6
CONTINUOUS
10
1.862326653543307
20
1.9157310236220473
11
1.8624015748031495
21
1.9153543700787401
0
LINE
8
BLACK
6
CONTINUOUS
10
1.8624015748031495
20
1.9153543700787401
11
1.8624015748031495
21
1.7814961023622047
0
LINE
8
BLACK
6
CONTINUOUS
10
1.8624015748031495
20
1.7814961023622047
11
1.862326653543307
21
1.7811194488188975
0
LINE
8
BLACK
6
CONTINUOUS
10
1.862326653543307
20
1.7811194488188975
11
1.8617939763779527
21
1.7805867716535433
0
LINE
8
BLACK
6
CONTINUOUS
10
1.8617939763779527
20
1.7805867716535433
11
1.8614173228346456
21
1.7805118503937007
0
LINE
8
BLACK
6
CONTINUOUS
10
1.8614173228346456
20
1.7805118503937007
11
1.7842519685039369
21
1.7805118503937007
0
LINE
8
BLACK
6
CONTINUOUS
10
1.7842519685039369
20
1.7805118503937007
11
1.7838753149606299
21
1.7805867716535433
0
LINE
8
BLACK
6
CONTINUOUS
10
1.7838753149606299
20
1.7805867716535433
11
1.7833426377952755
21
1.7811194488188975
0
LINE
8
BLACK
6
CONTINUOUS
10
1.7833426377952755
20
1.7811194488188975
11
1.7832677165354329
21
1.7814961023622047
0
LINE
8
BLACK
6
CONTINUOUS
10
1.7832677165354329
20
1.7814961023622047
11
1.7832677165354329
21
1.9153543700787401
0
LINE
8
BLACK
6
CONTINUOUS
10
1.7832677165354329
20
1.9153543700787401
11
1.7833426377952755
21
1.9157310236220473
0
LINE
8
BLACK
6
CONTINUOUS
10
1.7833426377952755
20
1.9157310236220473
11
1.7838753149606299
21
1.9162637007874015
0
LINE
8
BLACK
6
CONTINUOUS
10
1.7838753149606299
20
1.9162637007874015
11
1.7842519685039369
21
1.916338622047244
0
LINE
8
BLACK
6
CONTINUOUS
10
1.7842519685039369
20
1.916338622047244
11
1.8614173228346456
21
1.916338622047244
0
LINE
8
BLACK
6
CONTINUOUS
10
1.8614173228346456
20
1.916338622047244
11
1.8617939763779527
21
1.9162637007874015
0
LINE
8
BLACK
6
CONTINUOUS
10
1.7852362204724408
20
1.9143701181102362
11
1.7852362204724408
21
1.7824803543307086
0
LINE
8
BLACK
6
CONTINUOUS
10
1.7852362204724408
20
1.7824803543307086
11
1.8604330708661416
21
1.7824803543307086
0
LINE
8
BLACK
6
CONTINUOUS
10
1.8604330708661416
20
1.7824803543307086
11
1.8604330708661416
21
1.9143701181102362
0
LINE
8
BLACK
6
CONTINUOUS
10
1.8604330708661416
20
1.9143701181102362
11
1.7852362204724408
21
1.9143701181102362
0
LINE
8
BLACK
6
CONTINUOUS
10
0.6327585433070866
20
1.9457912204724408
11
0.6332912204724409
21
1.9452585433070866
0
LINE
8
BLACK
6
CONTINUOUS
10
0.6332912204724409
20
1.9452585433070866
11
0.6333661417322834
21
1.9448818897637794
0
LINE
8
BLACK
6
CONTINUOUS
10
0.6333661417322834
20
1.9448818897637794
11
0.6333661023622047
21
1.9005905511811023
0
LINE
8
BLACK
6
CONTINUOUS
10
0.6333661023622047
20
1.9005905511811023
11
0.672933031496063
21
1.9005905511811023
0
LINE
8
BLACK
6
CONTINUOUS
10
0.672933031496063
20
1.9005905511811023
11
0.6733096850393701
21
1.9005156299212598
0
LINE
8
BLACK
6
CONTINUOUS
10
0.6733096850393701
20
1.9005156299212598
11
0.6737204330708662
21
1.9001048818897637
0
LINE
8
BLACK
6
CONTINUOUS
10
0.6737204330708662
20
1.9001048818897637
11
0.6741312204724409
21
1.9005156299212598
0
LINE
8
BLACK
6
CONTINUOUS
10
0.6741312204724409
20
1.9005156299212598
11
0.674507874015748
21
1.9005905511811023
0
LINE
8
BLACK
6
CONTINUOUS
10
0.674507874015748
20
1.9005905511811023
11
0.8067913385826772
21
1.9005905511811023
0
LINE
8
BLACK
6
CONTINUOUS
10
0.8067913385826772
20
1.9005905511811023
11
0.8071679921259842
21
1.9005156299212598
0
LINE
8
BLACK
6
CONTINUOUS
10
0.8071679921259842
20
1.9005156299212598
11
0.8077006692913385
21
1.8999829527559056
0
LINE
8
BLACK
6
CONTINUOUS
10
0.8077006692913385
20
1.8999829527559056
11
0.8077755905511811
21
1.8996062992125984
0
LINE
8
BLACK
6
CONTINUOUS
10
0.8077755905511811
20
1.8996062992125984
11
0.8077755905511811
21
1.8248031496062991
0
LINE
8
BLACK
6
CONTINUOUS
10
0.8077755905511811
20
1.8248031496062991
11
0.8077006692913385
21
1.8244264960629921
0
LINE
8
BLACK
6
CONTINUOUS
10
0.8077006692913385
20
1.8244264960629921
11
0.8071679921259842
21
1.8238938188976377
0
LINE
8
BLACK
6
CONTINUOUS
10
0.8071679921259842
20
1.8238938188976377
11
0.8067913385826772
21
1.8238188976377951
0
LINE
8
BLACK
6
CONTINUOUS
10
0.8067913385826772
20
1.8238188976377951
11
0.674507874015748
21
1.8238188976377951
0
LINE
8
BLACK
6
CONTINUOUS
10
0.674507874015748
20
1.8238188976377951
11
0.6741312204724409
21
1.8238938188976377
0
LINE
8
BLACK
6
CONTINUOUS
10
0.6741312204724409
20
1.8238938188976377
11
0.6735985433070866
21
1.8244264960629921
0
LINE
8
BLACK
6
CONTINUOUS
10
0.6735985433070866
20
1.8244264960629921
11
0.673523622047244
21
1.8248031496062991
0
LINE
8
BLACK
6
CONTINUOUS
10
0.673523622047244
20
1.8248031496062991
11
0.673523622047244
21
1.8556038188976378
0
LINE
8
BLACK
6
CONTINUOUS
10
0.673523622047244
20
1.8556038188976378
11
0.6733096850393701
21
1.8553898818897638
0
LINE
8
BLACK
6
CONTINUOUS
10
0.6733096850393701
20
1.8553898818897638
11
0.672933031496063
21
1.8553149606299213
0
LINE
8
BLACK
6
CONTINUOUS
10
0.672933031496063
20
1.8553149606299213
11
0.6333661023622047
21
1.8553149606299213
0
LINE
8
BLACK
6
CONTINUOUS
10
0.6333661023622047
20
1.8553149606299213
11
0.6333661417322834
21
1.811023622047244
0
LINE
8
BLACK
6
CONTINUOUS
10
0.6333661417322834
20
1.811023622047244
11
0.6332912204724409
21
1.810646968503937
0
LINE
8
BLACK
6
CONTINUOUS
10
0.6332912204724409
20
1.810646968503937
11
0.6327585433070866
21
1.8101142913385826
0
LINE
8
BLACK
6
CONTINUOUS
10
0.6327585433070866
20
1.8101142913385826
11
0.6323818897637795
21
1.8100393700787401
0
LINE
8
BLACK
6
CONTINUOUS
10
0.6323818897637795
20
1.8100393700787401
11
0.5615156692913386
21
1.8100393700787401
0
LINE
8
BLACK
6
CONTINUOUS
10
0.5615156692913386
20
1.8100393700787401
11
0.5611390157480315
21
1.8101142913385826
0
LINE
8
BLACK
6
CONTINUOUS
10
0.5611390157480315
20
1.8101142913385826
11
0.5606063385826772
21
1.810646968503937
0
LINE
8
BLACK
6
CONTINUOUS
10
0.5606063385826772
20
1.810646968503937
11
0.5605314173228346
21
1.811023622047244
0
LINE
8
BLACK
6
CONTINUOUS
10
0.5605314173228346
20
1.811023622047244
11
0.5605314566929134
21
1.8179133858267715
0
LINE
8
BLACK
6
CONTINUOUS
10
0.5605314566929134
20
1.8179133858267715
11
0.5209645275590551
21
1.8179133858267715
0
LINE
8
BLACK
6
CONTINUOUS
10
0.5209645275590551
20
1.8179133858267715
11
0.520587874015748
21
1.8179883070866141
0
LINE
8
BLACK
6
CONTINUOUS
10
0.520587874015748
20
1.8179883070866141
11
0.5200551968503937
21
1.8185209842519685
0
LINE
8
BLACK
6
CONTINUOUS
10
0.5200551968503937
20
1.8185209842519685
11
0.5199802755905512
21
1.8188976377952755
0
LINE
8
BLACK
6
CONTINUOUS
10
0.5199802755905512
20
1.8188976377952755
11
0.5199802755905512
21
1.9370078740157479
0
LINE
8
BLACK
6
CONTINUOUS
10
0.5199802755905512
20
1.9370078740157479
11
0.5200551968503937
21
1.9373845275590551
0
LINE
8
BLACK
6
CONTINUOUS
10
0.5200551968503937
20
1.9373845275590551
11
0.520587874015748
21
1.9379172047244093
0
LINE
8
BLACK
6
CONTINUOUS
10
0.520587874015748
20
1.9379172047244093
11
0.5209645275590551
21
1.9379921259842519
0
LINE
8
BLACK
6
CONTINUOUS
10
0.5209645275590551
20
1.9379921259842519
11
0.5605314566929134
21
1.9379921259842519
0
LINE
8
BLACK
6
CONTINUOUS
10
0.5605314566929134
20
1.9379921259842519
11
0.5605314173228346
21
1.9448818897637794
0
LINE
8
BLACK
6
CONTINUOUS
10
0.5605314173228346
20
1.9448818897637794
11
0.5606063385826772
21
1.9452585433070866
0
LINE
8
BLACK
6
CONTINUOUS
10
0.5606063385826772
20
1.9452585433070866
11
0.5611390157480315
21
1.9457912204724408
0
LINE
8
BLACK
6
CONTINUOUS
10
0.5611390157480315
20
1.9457912204724408
11
0.5615156692913386
21
1.9458661417322833
0
LINE
8
BLACK
6
CONTINUOUS
10
0.5615156692913386
20
1.9458661417322833
11
0.6323818897637795
21
1.9458661417322833
0
LINE
8
BLACK
6
CONTINUOUS
10
0.6323818897637795
20
1.9458661417322833
11
0.6327585433070866
21
1.9457912204724408
0
LINE
8
BLACK
6
CONTINUOUS
10
0.5624999212598425
20
1.9438976377952755
11
0.5624999606299212
21
1.9370078740157479
0
LINE
8
BLACK
6
CONTINUOUS
10
0.5624999606299212
20
1.9370078740157479
11
0.5624250393700787
21
1.936631220472441
0
LINE
8
BLACK
6
CONTINUOUS
10
0.5624250393700787
20
1.936631220472441
11
0.5618923622047244
21
1.9360985433070865
0
LINE
8
BLACK
6
CONTINUOUS
10
0.5618923622047244
20
1.9360985433070865
11
0.5615157086614173
21
1.936023622047244
0
LINE
8
BLACK
6
CONTINUOUS
10
0.5615157086614173
20
1.936023622047244
11
0.521948779527559
21
1.936023622047244
0
LINE
8
BLACK
6
CONTINUOUS
10
0.521948779527559
20
1.936023622047244
11
0.521948779527559
21
1.8198818897637794
0
LINE
8
BLACK
6
CONTINUOUS
10
0.521948779527559
20
1.8198818897637794
11
0.5615157086614173
21
1.8198818897637794
0
LINE
8
BLACK
6
CONTINUOUS
10
0.5615157086614173
20
1.8198818897637794
11
0.5618923622047244
21
1.8198069685039369
0
LINE
8
BLACK
6
CONTINUOUS
10
0.5618923622047244
20
1.8198069685039369
11
0.5624250393700787
21
1.8192742913385826
0
LINE
8
BLACK
6
CONTINUOUS
10
0.5624250393700787
20
1.8192742913385826
11
0.5624999606299212
21
1.8188976377952755
0
LINE
8
BLACK
6
CONTINUOUS
10
0.5624999606299212
20
1.8188976377952755
11
0.5624999212598425
21
1.8120078740157479
0
LINE
8
BLACK
6
CONTINUOUS
10
0.5624999212598425
20
1.8120078740157479
11
0.6313976377952756
21
1.8120078740157479
0
LINE
8
BLACK
6
CONTINUOUS
10
0.6313976377952756
20
1.8120078740157479
11
0.6313975984251968
21
1.8562992125984252
0
LINE
8
BLACK
6
CONTINUOUS
10
0.6313975984251968
20
1.8562992125984252
11
0.6314725196850394
21
1.8566758661417322
0
LINE
8
BLACK
6
CONTINUOUS
10
0.6314725196850394
20
1.8566758661417322
11
0.6320051968503937
21
1.8572085433070866
0
LINE
8
BLACK
6
CONTINUOUS
10
0.6320051968503937
20
1.8572085433070866
11
0.6323818503937008
21
1.8572834645669292
0
LINE
8
BLACK
6
CONTINUOUS
10
0.6323818503937008
20
1.8572834645669292
11
0.671948779527559
21
1.8572834645669292
0
LINE
8
BLACK
6
CONTINUOUS
10
0.671948779527559
20
1.8572834645669292
11
0.671948779527559
21
1.8986220472440944
0
LINE
8
BLACK
6
CONTINUOUS
10
0.671948779527559
20
1.8986220472440944
11
0.6323818503937008
21
1.8986220472440944
0
LINE
8
BLACK
6
CONTINUOUS
10
0.6323818503937008
20
1.8986220472440944
11
0.6320051968503937
21
1.898696968503937
0
LINE
8
BLACK
6
CONTINUOUS
10
0.6320051968503937
20
1.898696968503937
11
0.6314725196850394
21
1.8992296456692912
0
LINE
8
BLACK
6
CONTINUOUS
10
0.6314725196850394
20
1.8992296456692912
11
0.6313975984251968
21
1.8996062992125984
0
LINE
8
BLACK
6
CONTINUOUS
10
0.6313975984251968
20
1.8996062992125984
11
0.6313976377952756
21
1.9438976377952755
0
LINE
8
BLACK
6
CONTINUOUS
10
0.6313976377952756
20
1.9438976377952755
11
0.5624999212598425
21
1.9438976377952755
0
LINE
8
BLACK
6
CONTINUOUS
10
0.6754921259842519
20
1.8986220472440944
11
0.6754921259842519
21
1.825787401574803
0
LINE
8
BLACK
6
CONTINUOUS
10
0.6754921259842519
20
1.825787401574803
11
0.8058070866141732
21
1.825787401574803
0
LINE
8
BLACK
6
CONTINUOUS
10
0.8058070866141732
20
1.825787401574803
11
0.8058070866141732
21
1.8986220472440944
0
LINE
8
BLACK
6
CONTINUOUS
10
0.8058070866141732
20
1.8986220472440944
11
0.6754921259842519
21
1.8986220472440944
0
LINE
8
BLACK
6
CONTINUOUS
10
1.9799042125984252
20
1.961539251968504
11
1.9804368897637794
21
1.9610065748031495
0
LINE
8
BLACK
6
CONTINUOUS
10
1.9804368897637794
20
1.9610065748031495
11
1.9805118110236219
21
1.9606299212598424
0
LINE
8
BLACK
6
CONTINUOUS
10
1.9805118110236219
20
1.9606299212598424
11
1.9805118110236219
21
1.826771653543307
0
LINE
8
BLACK
6
CONTINUOUS
10
1.9805118110236219
20
1.826771653543307
11
1.9804368897637794
21
1.826395
0
LINE
8
BLACK
6
CONTINUOUS
10
1.9804368897637794
20
1.826395
11
1.9799042125984252
21
1.8258623228346456
0
LINE
8
BLACK
6
CONTINUOUS
10
1.9799042125984252
20
1.8258623228346456
11
1.979527559055118
21
1.825787401574803
0
LINE
8
BLACK
6
CONTINUOUS
10
1.979527559055118
20
1.825787401574803
11
1.9023622047244093
21
1.825787401574803
0
LINE
8
BLACK
6
CONTINUOUS
10
1.9023622047244093
20
1.825787401574803
11
1.9019855511811024
21
1.8258623228346456
0
LINE
8
BLACK
6
CONTINUOUS
10
1.9019855511811024
20
1.8258623228346456
11
1.9014528740157479
21
1.826395
0
LINE
8
BLACK
6
CONTINUOUS
10
1.9014528740157479
20
1.826395
11
1.9013779527559054
21
1.826771653543307
0
LINE
8
BLACK
6
CONTINUOUS
10
1.9013779527559054
20
1.826771653543307
11
1.9013779527559054
21
1.9606299212598424
0
LINE
8
BLACK
6
CONTINUOUS
10
1.9013779527559054
20
1.9606299212598424
11
1.9014528740157479
21
1.9610065748031495
0
LINE
8
BLACK
6
CONTINUOUS
10
1.9014528740157479
20
1.9610065748031495
11
1.9019855511811024
21
1.961539251968504
0
LINE
8
BLACK
6
CONTINUOUS
10
1.9019855511811024
20
1.961539251968504
11
1.9023622047244093
21
1.9616141732283463
0
LINE
8
BLACK
6
CONTINUOUS
10
1.9023622047244093
20
1.9616141732283463
11
1.979527559055118
21
1.9616141732283463
0
LINE
8
BLACK
6
CONTINUOUS
10
1.979527559055118
20
1.9616141732283463
11
1.9799042125984252
21
1.961539251968504
0
LINE
8
BLACK
6
CONTINUOUS
10
1.9033464566929132
20
1.9596456692913384
11
1.9033464566929132
21
1.8277559055118109
0
LINE
8
BLACK
6
CONTINUOUS
10
1.9033464566929132
20
1.8277559055118109
11
1.9785433070866141
21
1.8277559055118109
0
LINE
8
BLACK
6
CONTINUOUS
10
1.9785433070866141
20
1.8277559055118109
11
1.9785433070866141
21
1.9596456692913384
0
LINE
8
BLACK
6
CONTINUOUS
10
1.9785433070866141
20
1.9596456692913384
11
1.9033464566929132
21
1.9596456692913384
0
LINE
8
BLACK
6
CONTINUOUS
10
0.958545905511811
20
1.9056337401574803
11
0.9590785826771653
21
1.9051010629921259
0
LINE
8
BLACK
6
CONTINUOUS
10
0.9590785826771653
20
1.9051010629921259
11
0.9591535039370078
21
1.9047244094488189
0
LINE
8
BLACK
6
CONTINUOUS
10
0.9591535039370078
20
1.9047244094488189
11
0.9591535039370078
21
1.8275590551181102
0
LINE
8
BLACK
6
CONTINUOUS
10
0.9591535039370078
20
1.8275590551181102
11
0.9590785826771653
21
1.8271824015748031
0
LINE
8
BLACK
6
CONTINUOUS
10
0.9590785826771653
20
1.8271824015748031
11
0.958545905511811
21
1.8266497244094488
0
LINE
8
BLACK
6
CONTINUOUS
10
0.958545905511811
20
1.8266497244094488
11
0.9581692519685039
21
1.8265748031496063
0
LINE
8
BLACK
6
CONTINUOUS
10
0.9581692519685039
20
1.8265748031496063
11
0.8243109842519685
21
1.8265748031496063
0
LINE
8
BLACK
6
CONTINUOUS
10
0.8243109842519685
20
1.8265748031496063
11
0.8239343307086614
21
1.8266497244094488
0
LINE
8
BLACK
6
CONTINUOUS
10
0.8239343307086614
20
1.8266497244094488
11
0.8234016535433071
21
1.8271824015748031
0
LINE
8
BLACK
6
CONTINUOUS
10
0.8234016535433071
20
1.8271824015748031
11
0.8233267322834645
21
1.8275590551181102
0
LINE
8
BLACK
6
CONTINUOUS
10
0.8233267322834645
20
1.8275590551181102
11
0.8233267322834645
21
1.9047244094488189
0
LINE
8
BLACK
6
CONTINUOUS
10
0.8233267322834645
20
1.9047244094488189
11
0.8234016535433071
21
1.9051010629921259
0
LINE
8
BLACK
6
CONTINUOUS
10
0.8234016535433071
20
1.9051010629921259
11
0.8239343307086614
21
1.9056337401574803
0
LINE
8
BLACK
6
CONTINUOUS
10
0.8239343307086614
20
1.9056337401574803
11
0.8243109842519685
21
1.9057086614173229
0
LINE
8
BLACK
6
CONTINUOUS
10
0.8243109842519685
20
1.9057086614173229
11
0.9581692519685039
21
1.9057086614173229
0
LINE
8
BLACK
6
CONTINUOUS
10
0.9581692519685039
20
1.9057086614173229
11
0.958545905511811
21
1.9056337401574803
0
LINE
8
BLACK
6
CONTINUOUS
10
0.8252952362204724
20
1.903740157480315
11
0.8252952362204724
21
1.8285433070866142
0
LINE
8
BLACK
6
CONTINUOUS
10
0.8252952362204724
20
1.8285433070866142
11
0.957185
21
1.8285433070866142
0
LINE
8
BLACK
6
CONTINUOUS
10
0.957185
20
1.8285433070866142
11
0.957185
21
1.903740157480315
0
LINE
8
BLACK
6
CONTINUOUS
10
0.957185
20
1.903740157480315
11
0.8252952362204724
21
1.903740157480315
0
LINE
8
BLACK
6
CONTINUOUS
10
2.0614002755905512
20
1.9607518503937007
11
2.0619329527559054
21
1.9602191732283465
0
LINE
8
BLACK
6
CONTINUOUS
10
2.0619329527559054
20
1.9602191732283465
11
2.0620078740157481
21
1.9598425196850393
0
LINE
8
BLACK
6
CONTINUOUS
10
2.0620078740157481
20
1.9598425196850393
11
2.0620078740157481
21
1.8275590551181102
0
LINE
8
BLACK
6
CONTINUOUS
10
2.0620078740157481
20
1.8275590551181102
11
2.0619329527559054
21
1.8271824015748031
0
LINE
8
BLACK
6
CONTINUOUS
10
2.0619329527559054
20
1.8271824015748031
11
2.0614002755905512
21
1.8266497244094488
0
LINE
8
BLACK
6
CONTINUOUS
10
2.0614002755905512
20
1.8266497244094488
11
2.061023622047244
21
1.8265748031496063
0
LINE
8
BLACK
6
CONTINUOUS
10
2.061023622047244
20
1.8265748031496063
11
1.9862204724409449
21
1.8265748031496063
0
LINE
8
BLACK
6
CONTINUOUS
10
1.9862204724409449
20
1.8265748031496063
11
1.9858438188976377
21
1.8266497244094488
0
LINE
8
BLACK
6
CONTINUOUS
10
1.9858438188976377
20
1.8266497244094488
11
1.9853111417322835
21
1.8271824015748031
0
LINE
8
BLACK
6
CONTINUOUS
10
1.9853111417322835
20
1.8271824015748031
11
1.985236220472441
21
1.8275590551181102
0
LINE
8
BLACK
6
CONTINUOUS
10
1.985236220472441
20
1.8275590551181102
11
1.985236220472441
21
1.9598425196850393
0
LINE
8
BLACK
6
CONTINUOUS
10
1.985236220472441
20
1.9598425196850393
11
1.9853111417322835
21
1.9602191732283465
0
LINE
8
BLACK
6
CONTINUOUS
10
1.9853111417322835
20
1.9602191732283465
11
1.9858438188976377
21
1.9607518503937007
0
LINE
8
BLACK
6
CONTINUOUS
10
1.9858438188976377
20
1.9607518503937007
11
1.9862204724409449
21
1.9608267716535432
0
LINE
8
BLACK
6
CONTINUOUS
10
1.9862204724409449
20
1.9608267716535432
11
2.061023622047244
21
1.9608267716535432
0
LINE
8
BLACK
6
CONTINUOUS
10
2.061023622047244
20
1.9608267716535432
11
2.0614002755905512
21
1.9607518503937007
0
LINE
8
BLACK
6
CONTINUOUS
10
1.9872047244094488
20
1.9588582677165354
11
1.9872047244094488
21
1.8285433070866142
0
LINE
8
BLACK
6
CONTINUOUS
10
1.9872047244094488
20
1.8285433070866142
11
2.0600393700787403
21
1.8285433070866142
0
LINE
8
BLACK
6
CONTINUOUS
10
2.0600393700787403
20
1.8285433070866142
11
2.0600393700787403
21
1.9588582677165354
0
LINE
8
BLACK
6
CONTINUOUS
10
2.0600393700787403
20
1.9588582677165354
11
1.9872047244094488
21
1.9588582677165354
0
LINE
8
BLACK
6
CONTINUOUS
10
0.8967349212598426
20
1.9831927952755906
11
0.8972675984251969
21
1.9826601181102361
0
LINE
8
BLACK
6
CONTINUOUS
10
0.8972675984251969
20
1.9826601181102361
11
0.8973425196850393
21
1.9822834645669292
0
LINE
8
BLACK
6
CONTINUOUS
10
0.8973425196850393
20
1.9822834645669292
11
0.8973425196850393
21
1.9074803149606299
0
LINE
8
BLACK
6
CONTINUOUS
10
0.8973425196850393
20
1.9074803149606299
11
0.8972675984251969
21
1.9071036614173227
0
LINE
8
BLACK
6
CONTINUOUS
10
0.8972675984251969
20
1.9071036614173227
11
0.8967349212598426
21
1.9065709842519685
0
LINE
8
BLACK
6
CONTINUOUS
10
0.8967349212598426
20
1.9065709842519685
11
0.8963582677165354
21
1.9064960629921259
0
LINE
8
BLACK
6
CONTINUOUS
10
0.8963582677165354
20
1.9064960629921259
11
0.7640748031496063
21
1.9064960629921259
0
LINE
8
BLACK
6
CONTINUOUS
10
0.7640748031496063
20
1.9064960629921259
11
0.7636981496062992
21
1.9065709842519685
0
LINE
8
BLACK
6
CONTINUOUS
10
0.7636981496062992
20
1.9065709842519685
11
0.7631654724409449
21
1.9071036614173227
0
LINE
8
BLACK
6
CONTINUOUS
10
0.7631654724409449
20
1.9071036614173227
11
0.7630905511811024
21
1.9074803149606299
0
LINE
8
BLACK
6
CONTINUOUS
10
0.7630905511811024
20
1.9074803149606299
11
0.7630905511811024
21
1.9822834645669292
0
LINE
8
BLACK
6
CONTINUOUS
10
0.7630905511811024
20
1.9822834645669292
11
0.7631654724409449
21
1.9826601181102361
0
LINE
8
BLACK
6
CONTINUOUS
10
0.7631654724409449
20
1.9826601181102361
11
0.7636981496062992
21
1.9831927952755906
0
LINE
8
BLACK
6
CONTINUOUS
10
0.7636981496062992
20
1.9831927952755906
11
0.7640748031496063
21
1.9832677165354331
0
LINE
8
BLACK
6
CONTINUOUS
10
0.7640748031496063
20
1.9832677165354331
11
0.8963582677165354
21
1.9832677165354331
0
LINE
8
BLACK
6
CONTINUOUS
10
0.8963582677165354
20
1.9832677165354331
11
0.8967349212598426
21
1.9831927952755906
0
LINE
8
BLACK
6
CONTINUOUS
10
0.7650590551181102
20
1.9812992125984252
11
0.7650590551181102
21
1.9084645669291338
0
LINE
8
BLACK
6
CONTINUOUS
10
0.7650590551181102
20
1.9084645669291338
11
0.8953740157480314
21
1.9084645669291338
0
LINE
8
BLACK
6
CONTINUOUS
10
0.8953740157480314
20
1.9084645669291338
11
0.8953740157480314
21
1.9812992125984252
0
LINE
8
BLACK
6
CONTINUOUS
10
0.8953740157480314
20
1.9812992125984252
11
0.7650590551181102
21
1.9812992125984252
0
LINE
8
BLACK
6
CONTINUOUS
10
0.6204553937007874
20
2.1019920078740157
11
0.6209880708661417
21
2.1014593307086615
0
LINE
8
BLACK
6
CONTINUOUS
10
0.6209880708661417
20
2.1014593307086615
11
0.6210629921259843
21
2.1010826771653544
0
LINE
8
BLACK
6
CONTINUOUS
10
0.6210629921259843
20
2.1010826771653544
11
0.6210629921259843
21
1.9687992125984251
0
LINE
8
BLACK
6
CONTINUOUS
10
0.6210629921259843
20
1.9687992125984251
11
0.6209880708661417
21
1.9684225590551181
0
LINE
8
BLACK
6
CONTINUOUS
10
0.6209880708661417
20
1.9684225590551181
11
0.6204553937007874
21
1.9678898818897637
0
LINE
8
BLACK
6
CONTINUOUS
10
0.6204553937007874
20
1.9678898818897637
11
0.6200787401574803
21
1.9678149606299211
0
LINE
8
BLACK
6
CONTINUOUS
10
0.6200787401574803
20
1.9678149606299211
11
0.5452755905511811
21
1.9678149606299211
0
LINE
8
BLACK
6
CONTINUOUS
10
0.5452755905511811
20
1.9678149606299211
11
0.544898937007874
21
1.9678898818897637
0
LINE
8
BLACK
6
CONTINUOUS
10
0.544898937007874
20
1.9678898818897637
11
0.5443662598425196
21
1.9684225590551181
0
LINE
8
BLACK
6
CONTINUOUS
10
0.5443662598425196
20
1.9684225590551181
11
0.5442913385826772
21
1.9687992125984251
0
LINE
8
BLACK
6
CONTINUOUS
10
0.5442913385826772
20
1.9687992125984251
11
0.5442913385826772
21
2.1010826771653544
0
LINE
8
BLACK
6
CONTINUOUS
10
0.5442913385826772
20
2.1010826771653544
11
0.5443662598425196
21
2.1014593307086615
0
LINE
8
BLACK
6
CONTINUOUS
10
0.5443662598425196
20
2.1014593307086615
11
0.544898937007874
21
2.1019920078740157
0
LINE
8
BLACK
6
CONTINUOUS
10
0.544898937007874
20
2.1019920078740157
11
0.5452755905511811
21
2.1020669291338581
0
LINE
8
BLACK
6
CONTINUOUS
10
0.5452755905511811
20
2.1020669291338581
11
0.6200787401574803
21
2.1020669291338581
0
LINE
8
BLACK
6
CONTINUOUS
10
0.6200787401574803
20
2.1020669291338581
11
0.6204553937007874
21
2.1019920078740157
0
LINE
8
BLACK
6
CONTINUOUS
10
0.5462598425196851
20
2.1000984251968502
11
0.5462598425196851
21
1.969783464566929
0
LINE
8
BLACK
6
CONTINUOUS
10
0.5462598425196851
20
1.969783464566929
11
0.6190944881889764
21
1.969783464566929
0
LINE
8
BLACK
6
CONTINUOUS
10
0.6190944881889764
20
1.969783464566929
11
0.6190944881889764
21
2.1000984251968502
0
LINE
8
BLACK
6
CONTINUOUS
10
0.6190944881889764
20
2.1000984251968502
11
0.5462598425196851
21
2.1000984251968502
0
CIRCLE
8
BLACK
10
2.3055118110236221
20
0.4
40
0.0068897637795276
0
CIRCLE
8
BLACK
10
2.3331867716535433
20
0.4668132283464567
40
0.0068897637795276
0
CIRCLE
8
BLACK
10
2.3331867716535433
20
0.3331867716535433
40
0.0068897637795276
0
CIRCLE
8
BLACK
10
2.3999999999999999
20
0.4944881889763779
40
0.0068897637795276
0
CIRCLE
8
BLACK
10
2.3999999999999999
20
0.4
40
0.0068897637795276
0
CIRCLE
8
BLACK
10
2.3999999999999999
20
0.305511811023622
40
0.0068897637795276
0
CIRCLE
8
BLACK
10
2.4668132283464566
20
0.4668132283464567
40
0.0068897637795276
0
CIRCLE
8
BLACK
10
2.4668132283464566
20
0.3331867716535433
40
0.0068897637795276
0
CIRCLE
8
BLACK
10
2.4944881889763777
20
0.4
40
0.0068897637795276
0
CIRCLE
8
BLACK
10
1.6299212204724409
20
0.6204724409448819
40
0.0068897637795276
0
CIRCLE
8
BLACK
10
1.5299212204724408
20
0.6204724409448819
40
0.0068897637795276
0
CIRCLE
8
BLACK
10
1.6299212598425197
20
0.7204724409448818
40
0.0068897637795276
0
CIRCLE
8
BLACK
10
1.5299211811023621
20
0.7204724409448818
40
0.0068897637795276
0
CIRCLE
8
BLACK
10
1.6299212204724409
20
0.8204724409448819
40
0.0068897637795276
0
CIRCLE
8
BLACK
10
1.5299212204724408
20
0.8204724409448819
40
0.0068897637795276
0
CIRCLE
8
BLACK
10
0.8267716141732283
20
0.6204724409448819
40
0.0068897637795276
0
CIRCLE
8
BLACK
10
0.7267716141732283
20
0.6204724409448819
40
0.0068897637795276
0
CIRCLE
8
BLACK
10
0.8267716535433071
20
0.7204724409448818
40
0.0068897637795276
0
CIRCLE
8
BLACK
10
0.7267715748031496
20
0.7204724409448818
40
0.0068897637795276
0
CIRCLE
8
BLACK
10
0.8267716141732283
20
0.8204724409448819
40
0.0068897637795276
0
CIRCLE
8
BLACK
10
0.7267716141732283
20
0.8204724409448819
40
0.0068897637795276
0
CIRCLE
8
BLACK
10
0.305511811023622
20
0.4
40
0.0068897637795276
0
CIRCLE
8
BLACK
10
0.3331867716535433
20
0.4668132283464567
40
0.0068897637795276
0
CIRCLE
8
BLACK
10
0.3331867716535433
20
0.3331867716535433
40
0.0068897637795276
0
CIRCLE
8
BLACK
10
0.4
20
0.4944881889763779
40
0.0068897637795276
0
CIRCLE
8
BLACK
10
0.4
20
0.4
40
0.0068897637795276
0
CIRCLE
8
BLACK
10
0.4
20
0.305511811023622
40
0.0068897637795276
0
CIRCLE
8
BLACK
10
0.4668132283464567
20
0.4668132283464567
40
0.0068897637795276
0
CIRCLE
8
BLACK
10
0.4668132283464567
20
0.3331867716535433
40
0.0068897637795276
0
CIRCLE
8
BLACK
10
0.4944881889763779
20
0.4
40
0.0068897637795276
0
CIRCLE
8
BLACK
10
0.305511811023622
20
2.
40
0.0068897637795276
0
CIRCLE
8
BLACK
10
0.3331867716535433
20
2.0668132283464566
40
0.0068897637795276
0
CIRCLE
8
BLACK
10
0.3331867716535433
20
1.9331867716535434
40
0.0068897637795276
0
CIRCLE
8
BLACK
10
0.4
20
2.0944881889763778
40
0.0068897637795276
0
CIRCLE
8
BLACK
10
0.4
20
2.
40
0.0068897637795276
0
CIRCLE
8
BLACK
10
0.4
20
1.905511811023622
40
0.0068897637795276
0
CIRCLE
8
BLACK
10
0.4668132283464567
20
2.0668132283464566
40
0.0068897637795276
0
CIRCLE
8
BLACK
10
0.4668132283464567
20
1.9331867716535434
40
0.0068897637795276
0
CIRCLE
8
BLACK
10
0.4944881889763779
20
2.
40
0.0068897637795276
0
CIRCLE
8
BLACK
10
1.7283464566929134
20
0.4318897637795275
40
0.0068897637795276
0
CIRCLE
8
BLACK
10
1.7283464566929134
20
0.3318897637795276
40
0.0068897637795276
0
CIRCLE
8
BLACK
10
1.6283464566929133
20
0.4318897637795275
40
0.0068897637795276
0
CIRCLE
8
BLACK
10
1.6283464566929133
20
0.3318897637795276
40
0.0068897637795276
0
CIRCLE
8
BLACK
10
1.5283464566929132
20
0.4318897637795275
40
0.0068897637795276
0
CIRCLE
8
BLACK
10
1.5283464566929132
20
0.3318897637795276
40
0.0068897637795276
0
CIRCLE
8
BLACK
10
1.4283464566929134
20
0.4318898031496063
40
0.0068897637795276
0
CIRCLE
8
BLACK
10
1.4283464566929134
20
0.3318897244094488
40
0.0068897637795276
0
CIRCLE
8
BLACK
10
1.3283464566929133
20
0.4318897637795275
40
0.0068897637795276
0
CIRCLE
8
BLACK
10
1.3283464566929133
20
0.3318897637795276
40
0.0068897637795276
0
CIRCLE
8
BLACK
10
1.2283464566929134
20
0.4318897637795275
40
0.0068897637795276
0
CIRCLE
8
BLACK
10
1.2283464566929134
20
0.3318897637795276
40
0.0068897637795276
0
CIRCLE
8
BLACK
10
1.1283464566929133
20
0.4318897637795275
40
0.0068897637795276
0
CIRCLE
8
BLACK
10
1.1283464566929133
20
0.3318897637795276
40
0.0068897637795276
0
CIRCLE
8
BLACK
10
1.0283464566929135
20
0.4318897637795275
40
0.0068897637795276
0
CIRCLE
8
BLACK
10
1.0283464566929135
20
0.3318897637795276
40
0.0068897637795276
0
CIRCLE
8
BLACK
10
0.9283464566929134
20
0.4318898031496063
40
0.0068897637795276
0
CIRCLE
8
BLACK
10
0.9283464566929134
20
0.3318897244094488
40
0.0068897637795276
0
CIRCLE
8
BLACK
10
0.8283464566929134
20
0.4318897637795275
40
0.0068897637795276
0
CIRCLE
8
BLACK
10
0.8283464566929134
20
0.3318897637795276
40
0.0068897637795276
0
CIRCLE
8
BLACK
10
0.7283464566929134
20
0.4318897637795275
40
0.0068897637795276
0
CIRCLE
8
BLACK
10
0.7283464566929134
20
0.3318897637795276
40
0.0068897637795276
0
CIRCLE
8
BLACK
10
0.6283464566929133
20
0.4318897637795275
40
0.0068897637795276
0
CIRCLE
8
BLACK
10
0.6283464566929133
20
0.3318897637795276
40
0.0068897637795276
0
CIRCLE
8
BLACK
10
0.4188976377952756
20
0.6535433070866141
40
0.0068897637795276
0
CIRCLE
8
BLACK
10
0.3188976377952756
20
0.6535433070866141
40
0.0068897637795276
0
CIRCLE
8
BLACK
10
0.4188976377952756
20
0.7535433070866142
40
0.0068897637795276
0
CIRCLE
8
BLACK
10
0.3188976377952756
20
0.7535433070866142
40
0.0068897637795276
0
CIRCLE
8
BLACK
10
0.4188976377952756
20
0.8535433070866142
40
0.0068897637795276
0
CIRCLE
8
BLACK
10
0.3188976377952756
20
0.8535433070866142
40
0.0068897637795276
0
CIRCLE
8
BLACK
10
0.4188976771653543
20
0.9535433070866142
40
0.0068897637795276
0
CIRCLE
8
BLACK
10
0.3188975984251968
20
0.9535433070866142
40
0.0068897637795276
0
CIRCLE
8
BLACK
10
0.4188976377952756
20
1.0535433070866143
40
0.0068897637795276
0
CIRCLE
8
BLACK
10
0.3188976377952756
20
1.0535433070866143
40
0.0068897637795276
0
CIRCLE
8
BLACK
10
0.4188976377952756
20
1.1535433070866141
40
0.0068897637795276
0
CIRCLE
8
BLACK
10
0.3188976377952756
20
1.1535433070866141
40
0.0068897637795276
0
CIRCLE
8
BLACK
10
0.4188976377952756
20
1.2535433070866142
40
0.0068897637795276
0
CIRCLE
8
BLACK
10
0.3188976377952756
20
1.2535433070866142
40
0.0068897637795276
0
CIRCLE
8
BLACK
10
0.4188976377952756
20
1.3535433070866141
40
0.0068897637795276
0
CIRCLE
8
BLACK
10
0.3188976377952756
20
1.3535433070866141
40
0.0068897637795276
0
CIRCLE
8
BLACK
10
0.4188976771653543
20
1.4535433070866142
40
0.0068897637795276
0
CIRCLE
8
BLACK
10
0.3188975984251968
20
1.4535433070866142
40
0.0068897637795276
0
CIRCLE
8
BLACK
10
0.4188976377952756
20
1.553543307086614
40
0.0068897637795276
0
CIRCLE
8
BLACK
10
0.3188976377952756
20
1.553543307086614
40
0.0068897637795276
0
CIRCLE
8
BLACK
10
0.4188976377952756
20
1.6535433070866141
40
0.0068897637795276
0
CIRCLE
8
BLACK
10
0.3188976377952756
20
1.6535433070866141
40
0.0068897637795276
0
CIRCLE
8
BLACK
10
0.4188976377952756
20
1.7535433070866142
40
0.0068897637795276
0
CIRCLE
8
BLACK
10
0.3188976377952756
20
1.7535433070866142
40
0.0068897637795276
0
CIRCLE
8
BLACK
10
2.3622047244094486
20
1.7488188976377952
40
0.0068897637795276
0
CIRCLE
8
BLACK
10
2.4622047244094487
20
1.7488188976377952
40
0.0068897637795276
0
CIRCLE
8
BLACK
10
2.3622047244094486
20
1.6488188976377953
40
0.0068897637795276
0
CIRCLE
8
BLACK
10
2.4622047244094487
20
1.6488188976377953
40
0.0068897637795276
0
CIRCLE
8
BLACK
10
2.3622047244094486
20
1.5488188976377952
40
0.0068897637795276
0
CIRCLE
8
BLACK
10
2.4622047244094487
20
1.5488188976377952
40
0.0068897637795276
0
CIRCLE
8
BLACK
10
2.3622047244094486
20
1.4488188976377951
40
0.0068897637795276
0
CIRCLE
8
BLACK
10
2.4622047244094487
20
1.4488188976377951
40
0.0068897637795276
0
CIRCLE
8
BLACK
10
2.3622047244094486
20
1.3488188976377953
40
0.0068897637795276
0
CIRCLE
8
BLACK
10
2.4622047244094487
20
1.3488188976377953
40
0.0068897637795276
0
CIRCLE
8
BLACK
10
2.3622047244094486
20
1.2488188976377952
40
0.0068897637795276
0
CIRCLE
8
BLACK
10
2.4622047244094487
20
1.2488188976377952
40
0.0068897637795276
0
CIRCLE
8
BLACK
10
2.3622047244094486
20
1.1488188976377953
40
0.0068897637795276
0
CIRCLE
8
BLACK
10
2.4622047244094487
20
1.1488188976377953
40
0.0068897637795276
0
CIRCLE
8
BLACK
10
2.3622047244094486
20
1.0488188976377952
40
0.0068897637795276
0
CIRCLE
8
BLACK
10
2.4622047244094487
20
1.0488188976377952
40
0.0068897637795276
0
CIRCLE
8
BLACK
10
2.3622047244094486
20
0.9488188976377953
40
0.0068897637795276
0
CIRCLE
8
BLACK
10
2.4622047244094487
20
0.9488188976377953
40
0.0068897637795276
0
CIRCLE
8
BLACK
10
2.3622047244094486
20
0.8488188976377953
40
0.0068897637795276
0
CIRCLE
8
BLACK
10
2.4622047244094487
20
0.8488188976377953
40
0.0068897637795276
0
CIRCLE
8
BLACK
10
2.3622047244094486
20
0.7488188976377953
40
0.0068897637795276
0
CIRCLE
8
BLACK
10
2.4622047244094487
20
0.7488188976377953
40
0.0068897637795276
0
CIRCLE
8
BLACK
10
2.3622047244094486
20
0.6488188976377952
40
0.0068897637795276
0
CIRCLE
8
BLACK
10
2.4622047244094487
20
0.6488188976377952
40
0.0068897637795276
0
CIRCLE
8
BLACK
10
2.1535432677165356
20
0.8944881889763779
40
0.0068897637795276
0
CIRCLE
8
BLACK
10
2.0535432677165355
20
0.8944881889763779
40
0.0068897637795276
0
CIRCLE
8
BLACK
10
2.1535432677165356
20
0.9944881889763779
40
0.0068897637795276
0
CIRCLE
8
BLACK
10
2.0535432677165355
20
0.9944881889763779
40
0.0068897637795276
0
CIRCLE
8
BLACK
10
2.1535433070866143
20
1.094488188976378
40
0.0068897637795276
0
CIRCLE
8
BLACK
10
2.0535432283464568
20
1.094488188976378
40
0.0068897637795276
0
CIRCLE
8
BLACK
10
2.1535432677165356
20
1.1944881889763779
40
0.0068897637795276
0
CIRCLE
8
BLACK
10
2.0535432677165355
20
1.1944881889763779
40
0.0068897637795276
0
CIRCLE
8
BLACK
10
2.1535432677165356
20
1.294488188976378
40
0.0068897637795276
0
CIRCLE
8
BLACK
10
2.0535432677165355
20
1.294488188976378
40
0.0068897637795276
0
CIRCLE
8
BLACK
10
2.3055118110236221
20
2.
40
0.0068897637795276
0
CIRCLE
8
BLACK
10
2.3331867716535433
20
2.0668132283464566
40
0.0068897637795276
0
CIRCLE
8
BLACK
10
2.3331867716535433
20
1.9331867716535434
40
0.0068897637795276
0
CIRCLE
8
BLACK
10
2.3999999999999999
20
2.0944881889763778
40
0.0068897637795276
0
CIRCLE
8
BLACK
10
2.3999999999999999
20
2.
40
0.0068897637795276
0
CIRCLE
8
BLACK
10
2.3999999999999999
20
1.905511811023622
40
0.0068897637795276
0
CIRCLE
8
BLACK
10
2.4668132283464566
20
2.0668132283464566
40
0.0068897637795276
0
CIRCLE
8
BLACK
10
2.4668132283464566
20
1.9331867716535434
40
0.0068897637795276
0
CIRCLE
8
BLACK
10
2.4944881889763777
20
2.
40
0.0068897637795276
0
CIRCLE
8
BLACK
10
2.1456692913385824
20
0.4724409448818898
40
0.0068897637795276
0
CIRCLE
8
BLACK
10
1.918110157480315
20
0.4724409448818898
40
0.0068897637795276
0
LINE
8
BLACK
6
CONTINUOUS
10
2.1902585039370077
20
0.3448487401574803
11
2.1910564960629921
21
0.347826968503937
0
LINE
8
BLACK
6
CONTINUOUS
10
2.1910564960629921
20
0.347826968503937
11
2.1925981496062992
21
0.3504971653543307
0
LINE
8
BLACK
6
CONTINUOUS
10
2.1925981496062992
20
0.3504971653543307
11
2.1947783858267718
21
0.3526774015748032
0
LINE
8
BLACK
6
CONTINUOUS
10
2.1947783858267718
20
0.3526774015748032
11
2.1974485826771653
21
0.3542190551181102
0
LINE
8
BLACK
6
CONTINUOUS
10
2.1974485826771653
20
0.3542190551181102
11
2.2004268110236218
21
0.3550170472440945
0
LINE
8
BLACK
6
CONTINUOUS
10
2.2004268110236218
20
0.3550170472440945
11
2.2035101181102363
21
0.3550170472440945
0
LINE
8
BLACK
6
CONTINUOUS
10
2.2035101181102363
20
0.3550170472440945
11
2.2064883464566929
21
0.3542190551181102
0
LINE
8
BLACK
6
CONTINUOUS
10
2.2064883464566929
20
0.3542190551181102
11
2.2091585433070864
21
0.3526774015748032
0
LINE
8
BLACK
6
CONTINUOUS
10
2.2091585433070864
20
0.3526774015748032
11
2.211338779527559
21
0.3504971653543307
0
LINE
8
BLACK
6
CONTINUOUS
10
2.211338779527559
20
0.3504971653543307
11
2.212880433070866
21
0.347826968503937
0
LINE
8
BLACK
6
CONTINUOUS
10
2.212880433070866
20
0.347826968503937
11
2.2136784251968504
21
0.3448487401574803
0
LINE
8
BLACK
6
CONTINUOUS
10
2.2136784251968504
20
0.3448487401574803
11
2.2137794881889765
21
0.3433070866141732
0
LINE
8
BLACK
6
CONTINUOUS
10
2.2137794881889765
20
0.3433070866141732
11
2.2137794881889765
21
0.3118110236220472
0
LINE
8
BLACK
6
CONTINUOUS
10
2.2137794881889765
20
0.3118110236220472
11
2.2136784251968504
21
0.3102693700787402
0
LINE
8
BLACK
6
CONTINUOUS
10
2.2136784251968504
20
0.3102693700787402
11
2.212880433070866
21
0.3072911417322834
0
LINE
8
BLACK
6
CONTINUOUS
10
2.212880433070866
20
0.3072911417322834
11
2.211338779527559
21
0.3046209448818897
0
LINE
8
BLACK
6
CONTINUOUS
10
2.211338779527559
20
0.3046209448818897
11
2.2091585433070864
21
0.3024407086614173
0
LINE
8
BLACK
6
CONTINUOUS
10
2.2091585433070864
20
0.3024407086614173
11
2.2064883464566929
21
0.3008990551181102
0
LINE
8
BLACK
6
CONTINUOUS
10
2.2064883464566929
20
0.3008990551181102
11
2.2035101181102363
21
0.300101062992126
0
LINE
8
BLACK
6
CONTINUOUS
10
2.2035101181102363
20
0.300101062992126
11
2.2004268110236218
21
0.300101062992126
0
LINE
8
BLACK
6
CONTINUOUS
10
2.2004268110236218
20
0.300101062992126
11
2.1974485826771653
21
0.3008990551181102
0
LINE
8
BLACK
6
CONTINUOUS
10
2.1974485826771653
20
0.3008990551181102
11
2.1947783858267718
21
0.3024407086614173
0
LINE
8
BLACK
6
CONTINUOUS
10
2.1947783858267718
20
0.3024407086614173
11
2.1925981496062992
21
0.3046209448818897
0
LINE
8
BLACK
6
CONTINUOUS
10
2.1925981496062992
20
0.3046209448818897
11
2.1910564960629921
21
0.3072911417322834
0
LINE
8
BLACK
6
CONTINUOUS
10
2.1910564960629921
20
0.3072911417322834
11
2.1902585039370077
21
0.3102693700787402
0
LINE
8
BLACK
6
CONTINUOUS
10
2.1902585039370077
20
0.3102693700787402
11
2.1901574409448816
21
0.3118110236220472
0
LINE
8
BLACK
6
CONTINUOUS
10
2.1901574409448816
20
0.3118110236220472
11
2.1901574409448816
21
0.3433070866141732
0
LINE
8
BLACK
6
CONTINUOUS
10
2.1901574409448816
20
0.3433070866141732
11
2.1902585039370077
21
0.3448487401574803
0
LINE
8
BLACK
6
CONTINUOUS
10
1.8501010236220472
20
0.3448487401574803
11
1.8508990157480314
21
0.347826968503937
0
LINE
8
BLACK
6
CONTINUOUS
10
1.8508990157480314
20
0.347826968503937
11
1.8524406692913384
21
0.3504971653543307
0
LINE
8
BLACK
6
CONTINUOUS
10
1.8524406692913384
20
0.3504971653543307
11
1.854620905511811
21
0.3526774015748032
0
LINE
8
BLACK
6
CONTINUOUS
10
1.854620905511811
20
0.3526774015748032
11
1.8572911023622047
21
0.3542190551181102
0
LINE
8
BLACK
6
CONTINUOUS
10
1.8572911023622047
20
0.3542190551181102
11
1.8602693307086613
21
0.3550170472440945
0
LINE
8
BLACK
6
CONTINUOUS
10
1.8602693307086613
20
0.3550170472440945
11
1.8633526377952756
21
0.3550170472440945
0
LINE
8
BLACK
6
CONTINUOUS
10
1.8633526377952756
20
0.3550170472440945
11
1.8663308661417322
21
0.3542190551181102
0
LINE
8
BLACK
6
CONTINUOUS
10
1.8663308661417322
20
0.3542190551181102
11
1.8690010629921259
21
0.3526774015748032
0
LINE
8
BLACK
6
CONTINUOUS
10
1.8690010629921259
20
0.3526774015748032
11
1.8711812992125985
21
0.3504971653543307
0
LINE
8
BLACK
6
CONTINUOUS
10
1.8711812992125985
20
0.3504971653543307
11
1.8727229527559055
21
0.347826968503937
0
LINE
8
BLACK
6
CONTINUOUS
10
1.8727229527559055
20
0.347826968503937
11
1.8735209448818897
21
0.3448487401574803
0
LINE
8
BLACK
6
CONTINUOUS
10
1.8735209448818897
20
0.3448487401574803
11
1.8736220078740158
21
0.3433070866141732
0
LINE
8
BLACK
6
CONTINUOUS
10
1.8736220078740158
20
0.3433070866141732
11
1.8736220078740158
21
0.3118110236220472
0
LINE
8
BLACK
6
CONTINUOUS
10
1.8736220078740158
20
0.3118110236220472
11
1.8735209448818897
21
0.3102693700787402
0
LINE
8
BLACK
6
CONTINUOUS
10
1.8735209448818897
20
0.3102693700787402
11
1.8727229527559055
21
0.3072911417322834
0
LINE
8
BLACK
6
CONTINUOUS
10
1.8727229527559055
20
0.3072911417322834
11
1.8711812992125985
21
0.3046209448818897
0
LINE
8
BLACK
6
CONTINUOUS
10
1.8711812992125985
20
0.3046209448818897
11
1.8690010629921259
21
0.3024407086614173
0
LINE
8
BLACK
6
CONTINUOUS
10
1.8690010629921259
20
0.3024407086614173
11
1.8663308661417322
21
0.3008990551181102
0
LINE
8
BLACK
6
CONTINUOUS
10
1.8663308661417322
20
0.3008990551181102
11
1.8633526377952756
21
0.300101062992126
0
LINE
8
BLACK
6
CONTINUOUS
10
1.8633526377952756
20
0.300101062992126
11
1.8602693307086613
21
0.300101062992126
0
LINE
8
BLACK
6
CONTINUOUS
10
1.8602693307086613
20
0.300101062992126
11
1.8572911023622047
21
0.3008990551181102
0
LINE
8
BLACK
6
CONTINUOUS
10
1.8572911023622047
20
0.3008990551181102
11
1.854620905511811
21
0.3024407086614173
0
LINE
8
BLACK
6
CONTINUOUS
10
1.854620905511811
20
0.3024407086614173
11
1.8524406692913384
21
0.3046209448818897
0
LINE
8
BLACK
6
CONTINUOUS
10
1.8524406692913384
20
0.3046209448818897
11
1.8508990157480314
21
0.3072911417322834
0
LINE
8
BLACK
6
CONTINUOUS
10
1.8508990157480314
20
0.3072911417322834
11
1.8501010236220472
21
0.3102693700787402
0
LINE
8
BLACK
6
CONTINUOUS
10
1.8501010236220472
20
0.3102693700787402
11
1.8499999606299211
21
0.3118110236220472
0
LINE
8
BLACK
6
CONTINUOUS
10
1.8499999606299211
20
0.3118110236220472
11
1.8499999606299211
21
0.3433070866141732
0
LINE
8
BLACK
6
CONTINUOUS
10
1.8499999606299211
20
0.3433070866141732
11
1.8501010236220472
21
0.3448487401574803
0
LINE
8
BLACK
6
CONTINUOUS
10
2.1902585039370077
20
0.5153211811023622
11
2.1910564960629921
21
0.5182994094488189
0
LINE
8
BLACK
6
CONTINUOUS
10
2.1910564960629921
20
0.5182994094488189
11
2.1925981496062992
21
0.5209696062992126
0
LINE
8
BLACK
6
CONTINUOUS
10
2.1925981496062992
20
0.5209696062992126
11
2.1947783858267718
21
0.523149842519685
0
LINE
8
BLACK
6
CONTINUOUS
10
2.1947783858267718
20
0.523149842519685
11
2.1974485826771653
21
0.5246914960629921
0
LINE
8
BLACK
6
CONTINUOUS
10
2.1974485826771653
20
0.5246914960629921
11
2.2004268110236218
21
0.5254894881889763
0
LINE
8
BLACK
6
CONTINUOUS
10
2.2004268110236218
20
0.5254894881889763
11
2.2035101181102363
21
0.5254894881889763
0
LINE
8
BLACK
6
CONTINUOUS
10
2.2035101181102363
20
0.5254894881889763
11
2.2064883464566929
21
0.5246914960629921
0
LINE
8
BLACK
6
CONTINUOUS
10
2.2064883464566929
20
0.5246914960629921
11
2.2091585433070864
21
0.523149842519685
0
LINE
8
BLACK
6
CONTINUOUS
10
2.2091585433070864
20
0.523149842519685
11
2.211338779527559
21
0.5209696062992126
0
LINE
8
BLACK
6
CONTINUOUS
10
2.211338779527559
20
0.5209696062992126
11
2.212880433070866
21
0.5182994094488189
0
LINE
8
BLACK
6
CONTINUOUS
10
2.212880433070866
20
0.5182994094488189
11
2.2136784251968504
21
0.5153211811023622
0
LINE
8
BLACK
6
CONTINUOUS
10
2.2136784251968504
20
0.5153211811023622
11
2.2137794881889765
21
0.5137795275590551
0
LINE
8
BLACK
6
CONTINUOUS
10
2.2137794881889765
20
0.5137795275590551
11
2.2137794881889765
21
0.4704724409448819
0
LINE
8
BLACK
6
CONTINUOUS
10
2.2137794881889765
20
0.4704724409448819
11
2.2136784251968504
21
0.4689307874015748
0
LINE
8
BLACK
6
CONTINUOUS
10
2.2136784251968504
20
0.4689307874015748
11
2.212880433070866
21
0.4659525590551181
0
LINE
8
BLACK
6
CONTINUOUS
10
2.212880433070866
20
0.4659525590551181
11
2.211338779527559
21
0.4632823622047244
0
LINE
8
BLACK
6
CONTINUOUS
10
2.211338779527559
20
0.4632823622047244
11
2.2091585433070864
21
0.4611021259842519
0
LINE
8
BLACK
6
CONTINUOUS
10
2.2091585433070864
20
0.4611021259842519
11
2.2064883464566929
21
0.4595604724409449
0
LINE
8
BLACK
6
CONTINUOUS
10
2.2064883464566929
20
0.4595604724409449
11
2.2035101181102363
21
0.4587624803149606
0
LINE
8
BLACK
6
CONTINUOUS
10
2.2035101181102363
20
0.4587624803149606
11
2.2004268110236218
21
0.4587624803149606
0
LINE
8
BLACK
6
CONTINUOUS
10
2.2004268110236218
20
0.4587624803149606
11
2.1974485826771653
21
0.4595604724409449
0
LINE
8
BLACK
6
CONTINUOUS
10
2.1974485826771653
20
0.4595604724409449
11
2.1947783858267718
21
0.4611021259842519
0
LINE
8
BLACK
6
CONTINUOUS
10
2.1947783858267718
20
0.4611021259842519
11
2.1925981496062992
21
0.4632823622047244
0
LINE
8
BLACK
6
CONTINUOUS
10
2.1925981496062992
20
0.4632823622047244
11
2.1910564960629921
21
0.4659525590551181
0
LINE
8
BLACK
6
CONTINUOUS
10
2.1910564960629921
20
0.4659525590551181
11
2.1902585039370077
21
0.4689307874015748
0
LINE
8
BLACK
6
CONTINUOUS
10
2.1902585039370077
20
0.4689307874015748
11
2.1901574409448816
21
0.4704724409448819
0
LINE
8
BLACK
6
CONTINUOUS
10
2.1901574409448816
20
0.4704724409448819
11
2.1901574409448816
21
0.5137795275590551
0
LINE
8
BLACK
6
CONTINUOUS
10
2.1901574409448816
20
0.5137795275590551
11
2.1902585039370077
21
0.5153211811023622
0
LINE
8
BLACK
6
CONTINUOUS
10
1.8501010236220472
20
0.5153211811023622
11
1.8508990157480314
21
0.5182994094488189
0
LINE
8
BLACK
6
CONTINUOUS
10
1.8508990157480314
20
0.5182994094488189
11
1.8524406692913384
21
0.5209696062992126
0
LINE
8
BLACK
6
CONTINUOUS
10
1.8524406692913384
20
0.5209696062992126
11
1.854620905511811
21
0.523149842519685
0
LINE
8
BLACK
6
CONTINUOUS
10
1.854620905511811
20
0.523149842519685
11
1.8572911023622047
21
0.5246914960629921
0
LINE
8
BLACK
6
CONTINUOUS
10
1.8572911023622047
20
0.5246914960629921
11
1.8602693307086613
21
0.5254894881889763
0
LINE
8
BLACK
6
CONTINUOUS
10
1.8602693307086613
20
0.5254894881889763
11
1.8633526377952756
21
0.5254894881889763
0
LINE
8
BLACK
6
CONTINUOUS
10
1.8633526377952756
20
0.5254894881889763
11
1.8663308661417322
21
0.5246914960629921
0
LINE
8
BLACK
6
CONTINUOUS
10
1.8663308661417322
20
0.5246914960629921
11
1.8690010629921259
21
0.523149842519685
0
LINE
8
BLACK
6
CONTINUOUS
10
1.8690010629921259
20
0.523149842519685
11
1.8711812992125985
21
0.5209696062992126
0
LINE
8
BLACK
6
CONTINUOUS
10
1.8711812992125985
20
0.5209696062992126
11
1.8727229527559055
21
0.5182994094488189
0
LINE
8
BLACK
6
CONTINUOUS
10
1.8727229527559055
20
0.5182994094488189
11
1.8735209448818897
21
0.5153211811023622
0
LINE
8
BLACK
6
CONTINUOUS
10
1.8735209448818897
20
0.5153211811023622
11
1.8736220078740158
21
0.5137795275590551
0
LINE
8
BLACK
6
CONTINUOUS
10
1.8736220078740158
20
0.5137795275590551
11
1.8736220078740158
21
0.4704724409448819
0
LINE
8
BLACK
6
CONTINUOUS
10
1.8736220078740158
20
0.4704724409448819
11
1.8735209448818897
21
0.4689307874015748
0
LINE
8
BLACK
6
CONTINUOUS
10
1.8735209448818897
20
0.4689307874015748
11
1.8727229527559055
21
0.4659525590551181
0
LINE
8
BLACK
6
CONTINUOUS
10
1.8727229527559055
20
0.4659525590551181
11
1.8711812992125985
21
0.4632823622047244
0
LINE
8
BLACK
6
CONTINUOUS
10
1.8711812992125985
20
0.4632823622047244
11
1.8690010629921259
21
0.4611021259842519
0
LINE
8
BLACK
6
CONTINUOUS
10
1.8690010629921259
20
0.4611021259842519
11
1.8663308661417322
21
0.4595604724409449
0
LINE
8
BLACK
6
CONTINUOUS
10
1.8663308661417322
20
0.4595604724409449
11
1.8633526377952756
21
0.4587624803149606
0
LINE
8
BLACK
6
CONTINUOUS
10
1.8633526377952756
20
0.4587624803149606
11
1.8602693307086613
21
0.4587624803149606
0
LINE
8
BLACK
6
CONTINUOUS
10
1.8602693307086613
20
0.4587624803149606
11
1.8572911023622047
21
0.4595604724409449
0
LINE
8
BLACK
6
CONTINUOUS
10
1.8572911023622047
20
0.4595604724409449
11
1.854620905511811
21
0.4611021259842519
0
LINE
8
BLACK
6
CONTINUOUS
10
1.854620905511811
20
0.4611021259842519
11
1.8524406692913384
21
0.4632823622047244
0
LINE
8
BLACK
6
CONTINUOUS
10
1.8524406692913384
20
0.4632823622047244
11
1.8508990157480314
21
0.4659525590551181
0
LINE
8
BLACK
6
CONTINUOUS
10
1.8508990157480314
20
0.4659525590551181
11
1.8501010236220472
21
0.4689307874015748
0
LINE
8
BLACK
6
CONTINUOUS
10
1.8501010236220472
20
0.4689307874015748
11
1.8499999606299211
21
0.4704724409448819
0
LINE
8
BLACK
6
CONTINUOUS
10
1.8499999606299211
20
0.4704724409448819
11
1.8499999606299211
21
0.5137795275590551
0
LINE
8
BLACK
6
CONTINUOUS
10
1.8499999606299211
20
0.5137795275590551
11
1.8501010236220472
21
0.5153211811023622
0
LINE
8
BLACK
6
CONTINUOUS
10
0.6906738582677165
20
2.0372214566929134
11
0.6978649606299212
21
2.0357910629921259
0
LINE
8
BLACK
6
CONTINUOUS
10
0.6978649606299212
20
2.0357910629921259
11
0.7046388582677166
21
2.0329852362204726
0
LINE
8
BLACK
6
CONTINUOUS
10
0.7046388582677166
20
2.0329852362204726
11
0.7107351968503937
21
2.0289118110236219
0
LINE
8
BLACK
6
CONTINUOUS
10
0.7107351968503937
20
2.0289118110236219
11
0.7159196850393701
21
2.0237273228346457
0
LINE
8
BLACK
6
CONTINUOUS
10
0.7159196850393701
20
2.0237273228346457
11
0.7199931102362205
21
2.0176309842519684
0
LINE
8
BLACK
6
CONTINUOUS
10
0.7199931102362205
20
2.0176309842519684
11
0.722798937007874
21
2.0108570866141733
0
LINE
8
BLACK
6
CONTINUOUS
10
0.722798937007874
20
2.0108570866141733
11
0.7242293307086614
21
2.0036659842519686
0
LINE
8
BLACK
6
CONTINUOUS
10
0.7242293307086614
20
2.0036659842519686
11
0.7242293307086614
21
1.9963340157480314
0
LINE
8
BLACK
6
CONTINUOUS
10
0.7242293307086614
20
1.9963340157480314
11
0.722798937007874
21
1.9891429133858267
0
LINE
8
BLACK
6
CONTINUOUS
10
0.722798937007874
20
1.9891429133858267
11
0.7199931102362205
21
1.9823690157480314
0
LINE
8
BLACK
6
CONTINUOUS
10
0.7199931102362205
20
1.9823690157480314
11
0.7159196850393701
21
1.9762726771653543
0
LINE
8
BLACK
6
CONTINUOUS
10
0.7159196850393701
20
1.9762726771653543
11
0.7107351968503937
21
1.9710881889763778
0
LINE
8
BLACK
6
CONTINUOUS
10
0.7107351968503937
20
1.9710881889763778
11
0.7046388582677166
21
1.9670147637795274
0
LINE
8
BLACK
6
CONTINUOUS
10
0.7046388582677166
20
1.9670147637795274
11
0.6978649606299212
21
1.9642089370078739
0
LINE
8
BLACK
6
CONTINUOUS
10
0.6978649606299212
20
1.9642089370078739
11
0.6906738582677165
21
1.9627785433070866
0
LINE
8
BLACK
6
CONTINUOUS
10
0.6906738582677165
20
1.9627785433070866
11
0.687007874015748
21
1.9625984251968502
0
LINE
8
BLACK
6
CONTINUOUS
10
0.687007874015748
20
1.9625984251968502
11
0.6673228346456693
21
1.9625984251968502
0
LINE
8
BLACK
6
CONTINUOUS
10
0.6673228346456693
20
1.9625984251968502
11
0.6636568503937008
21
1.9627785433070866
0
LINE
8
BLACK
6
CONTINUOUS
10
0.6636568503937008
20
1.9627785433070866
11
0.656465748031496
21
1.9642089370078739
0
LINE
8
BLACK
6
CONTINUOUS
10
0.656465748031496
20
1.9642089370078739
11
0.6496918503937008
21
1.9670147637795274
0
LINE
8
BLACK
6
CONTINUOUS
10
0.6496918503937008
20
1.9670147637795274
11
0.6435955118110236
21
1.9710881889763778
0
LINE
8
BLACK
6
CONTINUOUS
10
0.6435955118110236
20
1.9710881889763778
11
0.6384110236220473
21
1.9762726771653543
0
LINE
8
BLACK
6
CONTINUOUS
10
0.6384110236220473
20
1.9762726771653543
11
0.6343375984251969
21
1.9823690157480314
0
LINE
8
BLACK
6
CONTINUOUS
10
0.6343375984251969
20
1.9823690157480314
11
0.6315317716535432
21
1.9891429133858267
0
LINE
8
BLACK
6
CONTINUOUS
10
0.6315317716535432
20
1.9891429133858267
11
0.6301013779527559
21
1.9963340157480314
0
LINE
8
BLACK
6
CONTINUOUS
10
0.6301013779527559
20
1.9963340157480314
11
0.6301013779527559
21
2.0036659842519686
0
LINE
8
BLACK
6
CONTINUOUS
10
0.6301013779527559
20
2.0036659842519686
11
0.6315317716535432
21
2.0108570866141733
0
LINE
8
BLACK
6
CONTINUOUS
10
0.6315317716535432
20
2.0108570866141733
11
0.6343375984251969
21
2.0176309842519684
0
LINE
8
BLACK
6
CONTINUOUS
10
0.6343375984251969
20
2.0176309842519684
11
0.6384110236220473
21
2.0237273228346457
0
LINE
8
BLACK
6
CONTINUOUS
10
0.6384110236220473
20
2.0237273228346457
11
0.6435955118110236
21
2.0289118110236219
0
LINE
8
BLACK
6
CONTINUOUS
10
0.6435955118110236
20
2.0289118110236219
11
0.6496918503937008
21
2.0329852362204726
0
LINE
8
BLACK
6
CONTINUOUS
10
0.6496918503937008
20
2.0329852362204726
11
0.656465748031496
21
2.0357910629921259
0
LINE
8
BLACK
6
CONTINUOUS
10
0.656465748031496
20
2.0357910629921259
11
0.6636568503937008
21
2.0372214566929134
0
LINE
8
BLACK
6
CONTINUOUS
10
0.6636568503937008
20
2.0372214566929134
11
0.6673228346456693
21
2.0374015748031495
0
LINE
8
BLACK
6
CONTINUOUS
10
0.6673228346456693
20
2.0374015748031495
11
0.687007874015748
21
2.0374015748031495
0
LINE
8
BLACK
6
CONTINUOUS
10
0.687007874015748
20
2.0374015748031495
11
0.6906738582677165
21
2.0372214566929134
0
LINE
8
BLACK
6
CONTINUOUS
10
2.1394927559055117
20
2.0372214566929134
11
2.1466838582677163
21
2.0357910629921259
0
LINE
8
BLACK
6
CONTINUOUS
10
2.1466838582677163
20
2.0357910629921259
11
2.1534577559055119
21
2.0329852362204726
0
LINE
8
BLACK
6
CONTINUOUS
10
2.1534577559055119
20
2.0329852362204726
11
2.1595540944881888
21
2.0289118110236219
0
LINE
8
BLACK
6
CONTINUOUS
10
2.1595540944881888
20
2.0289118110236219
11
2.1647385826771655
21
2.0237273228346457
0
LINE
8
BLACK
6
CONTINUOUS
10
2.1647385826771655
20
2.0237273228346457
11
2.1688120078740156
21
2.0176309842519684
0
LINE
8
BLACK
6
CONTINUOUS
10
2.1688120078740156
20
2.0176309842519684
11
2.1716178346456694
21
2.0108570866141733
0
LINE
8
BLACK
6
CONTINUOUS
10
2.1716178346456694
20
2.0108570866141733
11
2.1730482283464565
21
2.0036659842519686
0
LINE
8
BLACK
6
CONTINUOUS
10
2.1730482283464565
20
2.0036659842519686
11
2.1730482283464565
21
1.9963340157480314
0
LINE
8
BLACK
6
CONTINUOUS
10
2.1730482283464565
20
1.9963340157480314
11
2.1716178346456694
21
1.9891429133858267
0
LINE
8
BLACK
6
CONTINUOUS
10
2.1716178346456694
20
1.9891429133858267
11
2.1688120078740156
21
1.9823690157480314
0
LINE
8
BLACK
6
CONTINUOUS
10
2.1688120078740156
20
1.9823690157480314
11
2.1647385826771655
21
1.9762726771653543
0
LINE
8
BLACK
6
CONTINUOUS
10
2.1647385826771655
20
1.9762726771653543
11
2.1595540944881888
21
1.9710881889763778
0
LINE
8
BLACK
6
CONTINUOUS
10
2.1595540944881888
20
1.9710881889763778
11
2.1534577559055119
21
1.9670147637795274
0
LINE
8
BLACK
6
CONTINUOUS
10
2.1534577559055119
20
1.9670147637795274
11
2.1466838582677163
21
1.9642089370078739
0
LINE
8
BLACK
6
CONTINUOUS
10
2.1466838582677163
20
1.9642089370078739
11
2.1394927559055117
21
1.9627785433070866
0
LINE
8
BLACK
6
CONTINUOUS
10
2.1394927559055117
20
1.9627785433070866
11
2.1358267716535431
21
1.9625984251968502
0
LINE
8
BLACK
6
CONTINUOUS
10
2.1358267716535431
20
1.9625984251968502
11
2.1161417322834644
21
1.9625984251968502
0
LINE
8
BLACK
6
CONTINUOUS
10
2.1161417322834644
20
1.9625984251968502
11
2.1124757480314962
21
1.9627785433070866
0
LINE
8
BLACK
6
CONTINUOUS
10
2.1124757480314962
20
1.9627785433070866
11
2.1052846456692911
21
1.9642089370078739
0
LINE
8
BLACK
6
CONTINUOUS
10
2.1052846456692911
20
1.9642089370078739
11
2.098510748031496
21
1.9670147637795274
0
LINE
8
BLACK
6
CONTINUOUS
10
2.098510748031496
20
1.9670147637795274
11
2.0924144094488191
21
1.9710881889763778
0
LINE
8
BLACK
6
CONTINUOUS
10
2.0924144094488191
20
1.9710881889763778
11
2.0872299212598424
21
1.9762726771653543
0
LINE
8
BLACK
6
CONTINUOUS
10
2.0872299212598424
20
1.9762726771653543
11
2.0831564960629922
21
1.9823690157480314
0
LINE
8
BLACK
6
CONTINUOUS
10
2.0831564960629922
20
1.9823690157480314
11
2.0803506692913385
21
1.9891429133858267
0
LINE
8
BLACK
6
CONTINUOUS
10
2.0803506692913385
20
1.9891429133858267
11
2.0789202755905509
21
1.9963340157480314
0
LINE
8
BLACK
6
CONTINUOUS
10
2.0789202755905509
20
1.9963340157480314
11
2.0789202755905509
21
2.0036659842519686
0
LINE
8
BLACK
6
CONTINUOUS
10
2.0789202755905509
20
2.0036659842519686
11
2.0803506692913385
21
2.0108570866141733
0
LINE
8
BLACK
6
CONTINUOUS
10
2.0803506692913385
20
2.0108570866141733
11
2.0831564960629922
21
2.0176309842519684
0
LINE
8
BLACK
6
CONTINUOUS
10
2.0831564960629922
20
2.0176309842519684
11
2.0872299212598424
21
2.0237273228346457
0
LINE
8
BLACK
6
CONTINUOUS
10
2.0872299212598424
20
2.0237273228346457
11
2.0924144094488191
21
2.0289118110236219
0
LINE
8
BLACK
6
CONTINUOUS
10
2.0924144094488191
20
2.0289118110236219
11
2.098510748031496
21
2.0329852362204726
0
LINE
8
BLACK
6
CONTINUOUS
10
2.098510748031496
20
2.0329852362204726
11
2.1052846456692911
21
2.0357910629921259
0
LINE
8
BLACK
6
CONTINUOUS
10
2.1052846456692911
20
2.0357910629921259
11
2.1124757480314962
21
2.0372214566929134
0
LINE
8
BLACK
6
CONTINUOUS
10
2.1124757480314962
20
2.0372214566929134
11
2.1161417322834644
21
2.0374015748031495
0
LINE
8
BLACK
6
CONTINUOUS
10
2.1161417322834644
20
2.0374015748031495
11
2.1358267716535431
21
2.0374015748031495
0
LINE
8
BLACK
6
CONTINUOUS
10
2.1358267716535431
20
2.0374015748031495
11
2.1394927559055117
21
2.0372214566929134
0
CIRCLE
8
BLACK
10
2.3055118110236221
20
0.4
40
0.0068897637795276
0
CIRCLE
8
BLACK
10
2.3331867716535433
20
0.4668132283464567
40
0.0068897637795276
0
CIRCLE
8
BLACK
10
2.3331867716535433
20
0.3331867716535433
40
0.0068897637795276
0
CIRCLE
8
BLACK
10
2.3999999999999999
20
0.4944881889763779
40
0.0068897637795276
0
CIRCLE
8
BLACK
10
2.3999999999999999
20
0.4
40
0.0068897637795276
0
CIRCLE
8
BLACK
10
2.3999999999999999
20
0.305511811023622
40
0.0068897637795276
0
CIRCLE
8
BLACK
10
2.4668132283464566
20
0.4668132283464567
40
0.0068897637795276
0
CIRCLE
8
BLACK
10
2.4668132283464566
20
0.3331867716535433
40
0.0068897637795276
0
CIRCLE
8
BLACK
10
2.4944881889763777
20
0.4
40
0.0068897637795276
0
CIRCLE
8
BLACK
10
1.6299212204724409
20
0.6204724409448819
40
0.0068897637795276
0
CIRCLE
8
BLACK
10
1.5299212204724408
20
0.6204724409448819
40
0.0068897637795276
0
CIRCLE
8
BLACK
10
1.6299212598425197
20
0.7204724409448818
40
0.0068897637795276
0
CIRCLE
8
BLACK
10
1.5299211811023621
20
0.7204724409448818
40
0.0068897637795276
0
CIRCLE
8
BLACK
10
1.6299212204724409
20
0.8204724409448819
40
0.0068897637795276
0
CIRCLE
8
BLACK
10
1.5299212204724408
20
0.8204724409448819
40
0.0068897637795276
0
CIRCLE
8
BLACK
10
0.8267716141732283
20
0.6204724409448819
40
0.0068897637795276
0
CIRCLE
8
BLACK
10
0.7267716141732283
20
0.6204724409448819
40
0.0068897637795276
0
CIRCLE
8
BLACK
10
0.8267716535433071
20
0.7204724409448818
40
0.0068897637795276
0
CIRCLE
8
BLACK
10
0.7267715748031496
20
0.7204724409448818
40
0.0068897637795276
0
CIRCLE
8
BLACK
10
0.8267716141732283
20
0.8204724409448819
40
0.0068897637795276
0
CIRCLE
8
BLACK
10
0.7267716141732283
20
0.8204724409448819
40
0.0068897637795276
0
CIRCLE
8
BLACK
10
0.305511811023622
20
0.4
40
0.0068897637795276
0
CIRCLE
8
BLACK
10
0.3331867716535433
20
0.4668132283464567
40
0.0068897637795276
0
CIRCLE
8
BLACK
10
0.3331867716535433
20
0.3331867716535433
40
0.0068897637795276
0
CIRCLE
8
BLACK
10
0.4
20
0.4944881889763779
40
0.0068897637795276
0
CIRCLE
8
BLACK
10
0.4
20
0.4
40
0.0068897637795276
0
CIRCLE
8
BLACK
10
0.4
20
0.305511811023622
40
0.0068897637795276
0
CIRCLE
8
BLACK
10
0.4668132283464567
20
0.4668132283464567
40
0.0068897637795276
0
CIRCLE
8
BLACK
10
0.4668132283464567
20
0.3331867716535433
40
0.0068897637795276
0
CIRCLE
8
BLACK
10
0.4944881889763779
20
0.4
40
0.0068897637795276
0
CIRCLE
8
BLACK
10
0.305511811023622
20
2.
40
0.0068897637795276
0
CIRCLE
8
BLACK
10
0.3331867716535433
20
2.0668132283464566
40
0.0068897637795276
0
CIRCLE
8
BLACK
10
0.3331867716535433
20
1.9331867716535434
40
0.0068897637795276
0
CIRCLE
8
BLACK
10
0.4
20
2.0944881889763778
40
0.0068897637795276
0
CIRCLE
8
BLACK
10
0.4
20
2.
40
0.0068897637795276
0
CIRCLE
8
BLACK
10
0.4
20
1.905511811023622
40
0.0068897637795276
0
CIRCLE
8
BLACK
10
0.4668132283464567
20
2.0668132283464566
40
0.0068897637795276
0
CIRCLE
8
BLACK
10
0.4668132283464567
20
1.9331867716535434
40
0.0068897637795276
0
CIRCLE
8
BLACK
10
0.4944881889763779
20
2.
40
0.0068897637795276
0
CIRCLE
8
BLACK
10
1.7283464566929134
20
0.4318897637795275
40
0.0068897637795276
0
CIRCLE
8
BLACK
10
1.7283464566929134
20
0.3318897637795276
40
0.0068897637795276
0
CIRCLE
8
BLACK
10
1.6283464566929133
20
0.4318897637795275
40
0.0068897637795276
0
CIRCLE
8
BLACK
10
1.6283464566929133
20
0.3318897637795276
40
0.0068897637795276
0
CIRCLE
8
BLACK
10
1.5283464566929132
20
0.4318897637795275
40
0.0068897637795276
0
CIRCLE
8
BLACK
10
1.5283464566929132
20
0.3318897637795276
40
0.0068897637795276
0
CIRCLE
8
BLACK
10
1.4283464566929134
20
0.4318898031496063
40
0.0068897637795276
0
CIRCLE
8
BLACK
10
1.4283464566929134
20
0.3318897244094488
40
0.0068897637795276
0
CIRCLE
8
BLACK
10
1.3283464566929133
20
0.4318897637795275
40
0.0068897637795276
0
CIRCLE
8
BLACK
10
1.3283464566929133
20
0.3318897637795276
40
0.0068897637795276
0
CIRCLE
8
BLACK
10
1.2283464566929134
20
0.4318897637795275
40
0.0068897637795276
0
CIRCLE
8
BLACK
10
1.2283464566929134
20
0.3318897637795276
40
0.0068897637795276
0
CIRCLE
8
BLACK
10
1.1283464566929133
20
0.4318897637795275
40
0.0068897637795276
0
CIRCLE
8
BLACK
10
1.1283464566929133
20
0.3318897637795276
40
0.0068897637795276
0
CIRCLE
8
BLACK
10
1.0283464566929135
20
0.4318897637795275
40
0.0068897637795276
0
CIRCLE
8
BLACK
10
1.0283464566929135
20
0.3318897637795276
40
0.0068897637795276
0
CIRCLE
8
BLACK
10
0.9283464566929134
20
0.4318898031496063
40
0.0068897637795276
0
CIRCLE
8
BLACK
10
0.9283464566929134
20
0.3318897244094488
40
0.0068897637795276
0
CIRCLE
8
BLACK
10
0.8283464566929134
20
0.4318897637795275
40
0.0068897637795276
0
CIRCLE
8
BLACK
10
0.8283464566929134
20
0.3318897637795276
40
0.0068897637795276
0
CIRCLE
8
BLACK
10
0.7283464566929134
20
0.4318897637795275
40
0.0068897637795276
0
CIRCLE
8
BLACK
10
0.7283464566929134
20
0.3318897637795276
40
0.0068897637795276
0
CIRCLE
8
BLACK
10
0.6283464566929133
20
0.4318897637795275
40
0.0068897637795276
0
CIRCLE
8
BLACK
10
0.6283464566929133
20
0.3318897637795276
40
0.0068897637795276
0
CIRCLE
8
BLACK
10
0.4188976377952756
20
0.6535433070866141
40
0.0068897637795276
0
CIRCLE
8
BLACK
10
0.3188976377952756
20
0.6535433070866141
40
0.0068897637795276
0
CIRCLE
8
BLACK
10
0.4188976377952756
20
0.7535433070866142
40
0.0068897637795276
0
CIRCLE
8
BLACK
10
0.3188976377952756
20
0.7535433070866142
40
0.0068897637795276
0
CIRCLE
8
BLACK
10
0.4188976377952756
20
0.8535433070866142
40
0.0068897637795276
0
CIRCLE
8
BLACK
10
0.3188976377952756
20
0.8535433070866142
40
0.0068897637795276
0
CIRCLE
8
BLACK
10
0.4188976771653543
20
0.9535433070866142
40
0.0068897637795276
0
CIRCLE
8
BLACK
10
0.3188975984251968
20
0.9535433070866142
40
0.0068897637795276
0
CIRCLE
8
BLACK
10
0.4188976377952756
20
1.0535433070866143
40
0.0068897637795276
0
CIRCLE
8
BLACK
10
0.3188976377952756
20
1.0535433070866143
40
0.0068897637795276
0
CIRCLE
8
BLACK
10
0.4188976377952756
20
1.1535433070866141
40
0.0068897637795276
0
CIRCLE
8
BLACK
10
0.3188976377952756
20
1.1535433070866141
40
0.0068897637795276
0
CIRCLE
8
BLACK
10
0.4188976377952756
20
1.2535433070866142
40
0.0068897637795276
0
CIRCLE
8
BLACK
10
0.3188976377952756
20
1.2535433070866142
40
0.0068897637795276
0
CIRCLE
8
BLACK
10
0.4188976377952756
20
1.3535433070866141
40
0.0068897637795276
0
CIRCLE
8
BLACK
10
0.3188976377952756
20
1.3535433070866141
40
0.0068897637795276
0
CIRCLE
8
BLACK
10
0.4188976771653543
20
1.4535433070866142
40
0.0068897637795276
0
CIRCLE
8
BLACK
10
0.3188975984251968
20
1.4535433070866142
40
0.0068897637795276
0
CIRCLE
8
BLACK
10
0.4188976377952756
20
1.553543307086614
40
0.0068897637795276
0
CIRCLE
8
BLACK
10
0.3188976377952756
20
1.553543307086614
40
0.0068897637795276
0
CIRCLE
8
BLACK
10
0.4188976377952756
20
1.6535433070866141
40
0.0068897637795276
0
CIRCLE
8
BLACK
10
0.3188976377952756
20
1.6535433070866141
40
0.0068897637795276
0
CIRCLE
8
BLACK
10
0.4188976377952756
20
1.7535433070866142
40
0.0068897637795276
0
CIRCLE
8
BLACK
10
0.3188976377952756
20
1.7535433070866142
40
0.0068897637795276
0
CIRCLE
8
BLACK
10
2.3622047244094486
20
1.7488188976377952
40
0.0068897637795276
0
CIRCLE
8
BLACK
10
2.4622047244094487
20
1.7488188976377952
40
0.0068897637795276
0
CIRCLE
8
BLACK
10
2.3622047244094486
20
1.6488188976377953
40
0.0068897637795276
0
CIRCLE
8
BLACK
10
2.4622047244094487
20
1.6488188976377953
40
0.0068897637795276
0
CIRCLE
8
BLACK
10
2.3622047244094486
20
1.5488188976377952
40
0.0068897637795276
0
CIRCLE
8
BLACK
10
2.4622047244094487
20
1.5488188976377952
40
0.0068897637795276
0
CIRCLE
8
BLACK
10
2.3622047244094486
20
1.4488188976377951
40
0.0068897637795276
0
CIRCLE
8
BLACK
10
2.4622047244094487
20
1.4488188976377951
40
0.0068897637795276
0
CIRCLE
8
BLACK
10
2.3622047244094486
20
1.3488188976377953
40
0.0068897637795276
0
CIRCLE
8
BLACK
10
2.4622047244094487
20
1.3488188976377953
40
0.0068897637795276
0
CIRCLE
8
BLACK
10
2.3622047244094486
20
1.2488188976377952
40
0.0068897637795276
0
CIRCLE
8
BLACK
10
2.4622047244094487
20
1.2488188976377952
40
0.0068897637795276
0
CIRCLE
8
BLACK
10
2.3622047244094486
20
1.1488188976377953
40
0.0068897637795276
0
CIRCLE
8
BLACK
10
2.4622047244094487
20
1.1488188976377953
40
0.0068897637795276
0
CIRCLE
8
BLACK
10
2.3622047244094486
20
1.0488188976377952
40
0.0068897637795276
0
CIRCLE
8
BLACK
10
2.4622047244094487
20
1.0488188976377952
40
0.0068897637795276
0
CIRCLE
8
BLACK
10
2.3622047244094486
20
0.9488188976377953
40
0.0068897637795276
0
CIRCLE
8
BLACK
10
2.4622047244094487
20
0.9488188976377953
40
0.0068897637795276
0
CIRCLE
8
BLACK
10
2.3622047244094486
20
0.8488188976377953
40
0.0068897637795276
0
CIRCLE
8
BLACK
10
2.4622047244094487
20
0.8488188976377953
40
0.0068897637795276
0
CIRCLE
8
BLACK
10
2.3622047244094486
20
0.7488188976377953
40
0.0068897637795276
0
CIRCLE
8
BLACK
10
2.4622047244094487
20
0.7488188976377953
40
0.0068897637795276
0
CIRCLE
8
BLACK
10
2.3622047244094486
20
0.6488188976377952
40
0.0068897637795276
0
CIRCLE
8
BLACK
10
2.4622047244094487
20
0.6488188976377952
40
0.0068897637795276
0
CIRCLE
8
BLACK
10
2.1535432677165356
20
0.8944881889763779
40
0.0068897637795276
0
CIRCLE
8
BLACK
10
2.0535432677165355
20
0.8944881889763779
40
0.0068897637795276
0
CIRCLE
8
BLACK
10
2.1535432677165356
20
0.9944881889763779
40
0.0068897637795276
0
CIRCLE
8
BLACK
10
2.0535432677165355
20
0.9944881889763779
40
0.0068897637795276
0
CIRCLE
8
BLACK
10
2.1535433070866143
20
1.094488188976378
40
0.0068897637795276
0
CIRCLE
8
BLACK
10
2.0535432283464568
20
1.094488188976378
40
0.0068897637795276
0
CIRCLE
8
BLACK
10
2.1535432677165356
20
1.1944881889763779
40
0.0068897637795276
0
CIRCLE
8
BLACK
10
2.0535432677165355
20
1.1944881889763779
40
0.0068897637795276
0
CIRCLE
8
BLACK
10
2.1535432677165356
20
1.294488188976378
40
0.0068897637795276
0
CIRCLE
8
BLACK
10
2.0535432677165355
20
1.294488188976378
40
0.0068897637795276
0
CIRCLE
8
BLACK
10
2.3055118110236221
20
2.
40
0.0068897637795276
0
CIRCLE
8
BLACK
10
2.3331867716535433
20
2.0668132283464566
40
0.0068897637795276
0
CIRCLE
8
BLACK
10
2.3331867716535433
20
1.9331867716535434
40
0.0068897637795276
0
CIRCLE
8
BLACK
10
2.3999999999999999
20
2.0944881889763778
40
0.0068897637795276
0
CIRCLE
8
BLACK
10
2.3999999999999999
20
2.
40
0.0068897637795276
0
CIRCLE
8
BLACK
10
2.3999999999999999
20
1.905511811023622
40
0.0068897637795276
0
CIRCLE
8
BLACK
10
2.4668132283464566
20
2.0668132283464566
40
0.0068897637795276
0
CIRCLE
8
BLACK
10
2.4668132283464566
20
1.9331867716535434
40
0.0068897637795276
0
CIRCLE
8
BLACK
10
2.4944881889763777
20
2.
40
0.0068897637795276
0
CIRCLE
8
BLACK
10
2.1456692913385824
20
0.4724409448818898
40
0.0068897637795276
0
CIRCLE
8
BLACK
10
1.918110157480315
20
0.4724409448818898
40
0.0068897637795276
0
LINE
8
BLACK
6
CONTINUOUS
10
2.2137794881889765
20
0.3118110236220472
11
2.2137794881889765
21
0.3433070866141732
0
ARC
8
BLACK
10
2.2019684645669293
20
0.3433070866141732
40
0.0118110236220472
50
0.00000000
51
180.00000000
0
LINE
8
BLACK
6
CONTINUOUS
10
2.1901574409448816
20
0.3433070866141732
11
2.1901574409448816
21
0.3118110236220472
0
ARC
8
BLACK
10
2.2019684645669293
20
0.3118110236220472
40
0.0118110236220472
50
180.00000000
51
360.00000000
0
LINE
8
BLACK
6
CONTINUOUS
10
1.8736220078740158
20
0.3118110236220472
11
1.8736220078740158
21
0.3433070866141732
0
ARC
8
BLACK
10
1.8618109842519686
20
0.3433070866141732
40
0.0118110236220472
50
0.00000000
51
180.00000000
0
LINE
8
BLACK
6
CONTINUOUS
10
1.8499999606299211
20
0.3433070866141732
11
1.8499999606299211
21
0.3118110236220472
0
ARC
8
BLACK
10
1.8618109842519686
20
0.3118110236220472
40
0.0118110236220472
50
180.00000000
51
360.00000000
0
LINE
8
BLACK
6
CONTINUOUS
10
2.2137794881889765
20
0.4704724409448819
11
2.2137794881889765
21
0.5137795275590551
0
ARC
8
BLACK
10
2.2019684645669293
20
0.5137795275590551
40
0.0118110236220472
50
0.00000000
51
180.00000000
0
LINE
8
BLACK
6
CONTINUOUS
10
2.1901574409448816
20
0.5137795275590551
11
2.1901574409448816
21
0.4704724409448819
0
ARC
8
BLACK
10
2.2019684645669293
20
0.4704724409448819
40
0.0118110236220472
50
180.00000000
51
360.00000000
0
LINE
8
BLACK
6
CONTINUOUS
10
1.8736220078740158
20
0.4704724409448819
11
1.8736220078740158
21
0.5137795275590551
0
ARC
8
BLACK
10
1.8618109842519686
20
0.5137795275590551
40
0.0118110236220472
50
0.00000000
51
180.00000000
0
LINE
8
BLACK
6
CONTINUOUS
10
1.8499999606299211
20
0.5137795275590551
11
1.8499999606299211
21
0.4704724409448819
0
ARC
8
BLACK
10
1.8618109842519686
20
0.4704724409448819
40
0.0118110236220472
50
180.00000000
51
360.00000000
0
LINE
8
BLACK
6
CONTINUOUS
10
0.6673228346456693
20
1.962598464566929
11
0.687007874015748
21
1.962598464566929
0
ARC
8
BLACK
10
0.687007874015748
20
2.
40
0.0374015354330709
50
-90.00000000
51
90.00000000
0
LINE
8
BLACK
6
CONTINUOUS
10
0.687007874015748
20
2.0374015354330708
11
0.6673228346456693
21
2.0374015354330708
0
ARC
8
BLACK
10
0.6673228346456693
20
2.
40
0.0374015354330709
50
90.00000000
51
270.00000000
0
LINE
8
BLACK
6
CONTINUOUS
10
2.1358267716535431
20
2.0374015354330708
11
2.1161417322834644
21
2.0374015354330708
0
ARC
8
BLACK
10
2.1161417322834644
20
2.
40
0.0374015354330709
50
90.00000000
51
270.00000000
0
LINE
8
BLACK
6
CONTINUOUS
10
2.1161417322834644
20
1.962598464566929
11
2.1358267716535431
21
1.962598464566929
0
ARC
8
BLACK
10
2.1358267716535431
20
2.
40
0.0374015354330709
50
270.00000000
51
450.00000000
  0
ENDSEC
  0
EOF
