  0
SECTION
  2
HEADER
  9
$ANGBASE
  50
0.0
  9
$ANGDIR
  70
1
  9
$MEASUREMENT
  70
0
  0
ENDSEC
  0
SECTION
  2
TABLES
  0
TABLE
  2
LTYPE
  70
4
  0
LTYPE
  5
40F
  2
CONTINUOUS
  70
0
  3
Solid line
  72
65
  73
0
  40
0.0
  0
LTYPE
  5
410
  2
DASHDOT
 70
0
  3
Dash Dot ____ _ ____ _
 72
65
 73
4
 40
2.0
 49
1.25
 49
-0.25
 49
0.25
 49
-0.25
  0
LTYPE
  5
411
  2
DASHED
 70
0
  3
Dashed __ __ __ __ __
 72
65
 73
2
 40
0.75
 49
0.5
 49
-0.25
  0
LTYPE
  5
43B
  2
DOTTED
 70
0
  3
Dotted .  .  .  .
 72
65
 73
2
 40
0.2
 49
0.0
 49
-0.2
  0
ENDTAB
  0
TABLE
  2
STYLE
  70
4
  0
STYLE
  2
KICAD
  70
0
  40
0
  41
1
  42
1
  50
0
  71
0
  3
isocp.shx
  0
STYLE
  2
KICADB
  70
0
  40
0
  41
1
  42
1
  50
0
  71
0
  3
isocp.shx
  0
STYLE
  2
KICADI
  70
0
  40
0
  41
1
  42
1
  50
15
  71
0
  3
isocp.shx
  0
STYLE
  2
KICADBI
  70
0
  40
0
  41
1
  42
1
  50
15
  71
0
  3
isocp.shx
  0
ENDTAB
  0
TABLE
  2
LAYER
  70
1
  0
LAYER
  2
BLACK
  70
0
  62
7
  6
CONTINUOUS
  0
ENDTAB
  0
ENDSEC
  0
SECTION
  2
ENTITIES
0
LINE
8
BLACK
6
CONTINUOUS
10
0.4321756299212599
20
0.4243865748031496
11
0.4322531102362205
21
0.4243917322834646
0
LINE
8
BLACK
6
CONTINUOUS
10
0.4322531102362205
20
0.4243917322834646
11
0.4323064566929134
21
0.4243737007874016
0
LINE
8
BLACK
6
CONTINUOUS
10
0.4323064566929134
20
0.4243737007874016
11
0.4324470472440945
21
0.424359842519685
0
LINE
8
BLACK
6
CONTINUOUS
10
0.4324470472440945
20
0.424359842519685
11
0.4328902362204725
21
0.4241762598425197
0
LINE
8
BLACK
6
CONTINUOUS
10
0.4328902362204725
20
0.4241762598425197
11
0.4333444881889764
21
0.4240226377952756
0
LINE
8
BLACK
6
CONTINUOUS
10
0.4333444881889764
20
0.4240226377952756
11
0.4334194488188976
21
0.4239570866141732
0
LINE
8
BLACK
6
CONTINUOUS
10
0.4334194488188976
20
0.4239570866141732
11
0.4335114566929134
21
0.423918937007874
0
LINE
8
BLACK
6
CONTINUOUS
10
0.4335114566929134
20
0.423918937007874
11
0.4338504330708661
21
0.4235799606299213
0
LINE
8
BLACK
6
CONTINUOUS
10
0.4338504330708661
20
0.4235799606299213
11
0.4342115748031496
21
0.4232639763779528
0
LINE
8
BLACK
6
CONTINUOUS
10
0.4342115748031496
20
0.4232639763779528
11
0.4342557480314961
21
0.4231746456692913
0
LINE
8
BLACK
6
CONTINUOUS
10
0.4342557480314961
20
0.4231746456692913
11
0.4343261023622047
21
0.4231042913385827
0
LINE
8
BLACK
6
CONTINUOUS
10
0.4343261023622047
20
0.4231042913385827
11
0.4345095669291338
21
0.4226613779527559
0
LINE
8
BLACK
6
CONTINUOUS
10
0.4345095669291338
20
0.4226613779527559
11
0.4347222834645669
21
0.4222312204724409
0
LINE
8
BLACK
6
CONTINUOUS
10
0.4347222834645669
20
0.4222312204724409
11
0.4347288976377953
21
0.4221318897637795
0
LINE
8
BLACK
6
CONTINUOUS
10
0.4347288976377953
20
0.4221318897637795
11
0.4347670078740157
21
0.4220398818897638
0
LINE
8
BLACK
6
CONTINUOUS
10
0.4347670078740157
20
0.4220398818897638
11
0.4347670078740157
21
0.4215601968503937
0
LINE
8
BLACK
6
CONTINUOUS
10
0.4347670078740157
20
0.4215601968503937
11
0.4347988976377953
21
0.4210816929133858
0
LINE
8
BLACK
6
CONTINUOUS
10
0.4347988976377953
20
0.4210816929133858
11
0.4347670078740157
21
0.4209874015748031
0
LINE
8
BLACK
6
CONTINUOUS
10
0.4347670078740157
20
0.4209874015748031
11
0.4347670078740157
21
0.4208877559055118
0
LINE
8
BLACK
6
CONTINUOUS
10
0.4347670078740157
20
0.4208877559055118
11
0.4345833858267716
21
0.4204445669291338
0
LINE
8
BLACK
6
CONTINUOUS
10
0.4345833858267716
20
0.4204445669291338
11
0.4344298031496063
21
0.4199903149606299
0
LINE
8
BLACK
6
CONTINUOUS
10
0.4344298031496063
20
0.4199903149606299
11
0.4343476771653543
21
0.4198754724409449
0
LINE
8
BLACK
6
CONTINUOUS
10
0.4343476771653543
20
0.4198754724409449
11
0.4343261023622047
21
0.4198233464566929
0
LINE
8
BLACK
6
CONTINUOUS
10
0.4343261023622047
20
0.4198233464566929
11
0.4342711417322834
21
0.4197684251968504
0
LINE
8
BLACK
6
CONTINUOUS
10
0.4342711417322834
20
0.4197684251968504
11
0.4340931496062992
21
0.4195194094488189
0
LINE
8
BLACK
6
CONTINUOUS
10
0.4340931496062992
20
0.4195194094488189
11
0.4251602362204724
21
0.4093103937007874
0
LINE
8
BLACK
6
CONTINUOUS
10
0.4251602362204724
20
0.4093103937007874
11
0.4256924409448819
21
0.4091067322834646
0
LINE
8
BLACK
6
CONTINUOUS
10
0.4256924409448819
20
0.4091067322834646
11
0.429441968503937
21
0.407231968503937
0
LINE
8
BLACK
6
CONTINUOUS
10
0.429441968503937
20
0.407231968503937
11
0.4296899606299213
21
0.407075905511811
0
LINE
8
BLACK
6
CONTINUOUS
10
0.4296899606299213
20
0.407075905511811
11
0.4297619291338582
21
0.407046062992126
0
LINE
8
BLACK
6
CONTINUOUS
10
0.4297619291338582
20
0.407046062992126
11
0.429842874015748
21
0.4069796062992126
0
LINE
8
BLACK
6
CONTINUOUS
10
0.429842874015748
20
0.4069796062992126
11
0.4299318503937008
21
0.4069236220472441
0
LINE
8
BLACK
6
CONTINUOUS
10
0.4299318503937008
20
0.4069236220472441
11
0.4299829921259842
21
0.4068646456692913
0
LINE
8
BLACK
6
CONTINUOUS
10
0.4299829921259842
20
0.4068646456692913
11
0.4302093700787402
21
0.4066788582677165
0
LINE
8
BLACK
6
CONTINUOUS
10
0.4302093700787402
20
0.4066788582677165
11
0.4320841338582677
21
0.404804094488189
0
LINE
8
BLACK
6
CONTINUOUS
10
0.4320841338582677
20
0.404804094488189
11
0.4322698818897638
21
0.4045777559055118
0
LINE
8
BLACK
6
CONTINUOUS
10
0.4322698818897638
20
0.4045777559055118
11
0.4323288976377953
21
0.4045265748031496
0
LINE
8
BLACK
6
CONTINUOUS
10
0.4323288976377953
20
0.4045265748031496
11
0.432384842519685
21
0.4044376377952756
0
LINE
8
BLACK
6
CONTINUOUS
10
0.432384842519685
20
0.4044376377952756
11
0.4324513385826771
21
0.4043566535433071
0
LINE
8
BLACK
6
CONTINUOUS
10
0.4324513385826771
20
0.4043566535433071
11
0.4324811417322835
21
0.4042847244094488
0
LINE
8
BLACK
6
CONTINUOUS
10
0.4324811417322835
20
0.4042847244094488
11
0.4326372440944882
21
0.4040366929133858
0
LINE
8
BLACK
6
CONTINUOUS
10
0.4326372440944882
20
0.4040366929133858
11
0.4345120078740157
21
0.4002871653543307
0
LINE
8
BLACK
6
CONTINUOUS
10
0.4345120078740157
20
0.4002871653543307
11
0.4347188976377953
21
0.3997465748031496
0
LINE
8
BLACK
6
CONTINUOUS
10
0.4347188976377953
20
0.3997465748031496
11
0.4347264173228346
21
0.3996407086614173
0
LINE
8
BLACK
6
CONTINUOUS
10
0.4347264173228346
20
0.3996407086614173
11
0.4347670078740157
21
0.3995427165354331
0
LINE
8
BLACK
6
CONTINUOUS
10
0.4347670078740157
20
0.3995427165354331
11
0.4348237401574803
21
0.3989666535433071
0
LINE
8
BLACK
6
CONTINUOUS
10
0.4348237401574803
20
0.3989666535433071
11
0.4348237401574803
21
0.3895928346456693
0
LINE
8
BLACK
6
CONTINUOUS
10
0.4348237401574803
20
0.3895928346456693
11
0.4347670078740157
21
0.3890167716535433
0
LINE
8
BLACK
6
CONTINUOUS
10
0.4347670078740157
20
0.3890167716535433
11
0.4347264173228346
21
0.3889188188976378
0
LINE
8
BLACK
6
CONTINUOUS
10
0.4347264173228346
20
0.3889188188976378
11
0.4347188976377953
21
0.3888129133858267
0
LINE
8
BLACK
6
CONTINUOUS
10
0.4347188976377953
20
0.3888129133858267
11
0.4345120078740157
21
0.3882723228346456
0
LINE
8
BLACK
6
CONTINUOUS
10
0.4345120078740157
20
0.3882723228346456
11
0.4326372440944882
21
0.3845227952755905
0
LINE
8
BLACK
6
CONTINUOUS
10
0.4326372440944882
20
0.3845227952755905
11
0.4324811811023622
21
0.3842749212598425
0
LINE
8
BLACK
6
CONTINUOUS
10
0.4324811811023622
20
0.3842749212598425
11
0.4324513779527559
21
0.384202874015748
0
LINE
8
BLACK
6
CONTINUOUS
10
0.4324513779527559
20
0.384202874015748
11
0.432384842519685
21
0.3841218503937008
0
LINE
8
BLACK
6
CONTINUOUS
10
0.432384842519685
20
0.3841218503937008
11
0.4323288976377953
21
0.3840329133858267
0
LINE
8
BLACK
6
CONTINUOUS
10
0.4323288976377953
20
0.3840329133858267
11
0.4322698818897638
21
0.3839817716535433
0
LINE
8
BLACK
6
CONTINUOUS
10
0.4322698818897638
20
0.3839817716535433
11
0.4320841338582677
21
0.3837553937007874
0
LINE
8
BLACK
6
CONTINUOUS
10
0.4320841338582677
20
0.3837553937007874
11
0.4302094094488189
21
0.3818806299212598
0
LINE
8
BLACK
6
CONTINUOUS
10
0.4302094094488189
20
0.3818806299212598
11
0.429983031496063
21
0.3816948818897637
0
LINE
8
BLACK
6
CONTINUOUS
10
0.429983031496063
20
0.3816948818897637
11
0.4299318503937008
21
0.3816358267716535
0
LINE
8
BLACK
6
CONTINUOUS
10
0.4299318503937008
20
0.3816358267716535
11
0.429842874015748
21
0.381579842519685
0
LINE
8
BLACK
6
CONTINUOUS
10
0.429842874015748
20
0.381579842519685
11
0.4297619291338582
21
0.3815133858267716
0
LINE
8
BLACK
6
CONTINUOUS
10
0.4297619291338582
20
0.3815133858267716
11
0.4296899606299213
21
0.3814835826771654
0
LINE
8
BLACK
6
CONTINUOUS
10
0.4296899606299213
20
0.3814835826771654
11
0.429441968503937
21
0.3813274803149606
0
LINE
8
BLACK
6
CONTINUOUS
10
0.429441968503937
20
0.3813274803149606
11
0.4256924409448819
21
0.3794527165354331
0
LINE
8
BLACK
6
CONTINUOUS
10
0.4256924409448819
20
0.3794527165354331
11
0.425151811023622
21
0.3792458267716535
0
LINE
8
BLACK
6
CONTINUOUS
10
0.425151811023622
20
0.3792458267716535
11
0.4250459842519685
21
0.3792383464566929
0
LINE
8
BLACK
6
CONTINUOUS
10
0.4250459842519685
20
0.3792383464566929
11
0.4249479921259842
21
0.379197716535433
0
LINE
8
BLACK
6
CONTINUOUS
10
0.4249479921259842
20
0.379197716535433
11
0.4243719291338582
21
0.3791409842519685
0
LINE
8
BLACK
6
CONTINUOUS
10
0.4243719291338582
20
0.3791409842519685
11
0.4131233464566929
21
0.3791409842519685
0
LINE
8
BLACK
6
CONTINUOUS
10
0.4131233464566929
20
0.3791409842519685
11
0.4125472834645669
21
0.379197716535433
0
LINE
8
BLACK
6
CONTINUOUS
10
0.4125472834645669
20
0.379197716535433
11
0.4124492913385827
21
0.3792383070866142
0
LINE
8
BLACK
6
CONTINUOUS
10
0.4124492913385827
20
0.3792383070866142
11
0.4123434251968504
21
0.3792458267716535
0
LINE
8
BLACK
6
CONTINUOUS
10
0.4123434251968504
20
0.3792458267716535
11
0.4118028346456693
21
0.3794527165354331
0
LINE
8
BLACK
6
CONTINUOUS
10
0.4118028346456693
20
0.3794527165354331
11
0.4080533070866141
21
0.3813274803149606
0
LINE
8
BLACK
6
CONTINUOUS
10
0.4080533070866141
20
0.3813274803149606
11
0.4078052755905512
21
0.3814835826771654
0
LINE
8
BLACK
6
CONTINUOUS
10
0.4078052755905512
20
0.3814835826771654
11
0.4077333464566929
21
0.3815133858267716
0
LINE
8
BLACK
6
CONTINUOUS
10
0.4077333464566929
20
0.3815133858267716
11
0.4076523622047244
21
0.381579842519685
0
LINE
8
BLACK
6
CONTINUOUS
10
0.4076523622047244
20
0.381579842519685
11
0.4075634251968504
21
0.3816358267716535
0
LINE
8
BLACK
6
CONTINUOUS
10
0.4075634251968504
20
0.3816358267716535
11
0.4075122047244095
21
0.3816948818897637
0
LINE
8
BLACK
6
CONTINUOUS
10
0.4075122047244095
20
0.3816948818897637
11
0.4072858661417323
21
0.3818806299212598
0
LINE
8
BLACK
6
CONTINUOUS
10
0.4072858661417323
20
0.3818806299212598
11
0.4054111023622047
21
0.3837554330708661
0
LINE
8
BLACK
6
CONTINUOUS
10
0.4054111023622047
20
0.3837554330708661
11
0.4050438976377952
21
0.384202874015748
0
LINE
8
BLACK
6
CONTINUOUS
10
0.4050438976377952
20
0.384202874015748
11
0.404603031496063
21
0.3852672834645669
0
LINE
8
BLACK
6
CONTINUOUS
10
0.404603031496063
20
0.3852672834645669
11
0.404603031496063
21
0.3864193700787402
0
LINE
8
BLACK
6
CONTINUOUS
10
0.404603031496063
20
0.3864193700787402
11
0.405043937007874
21
0.387483779527559
0
LINE
8
BLACK
6
CONTINUOUS
10
0.405043937007874
20
0.387483779527559
11
0.4058586220472441
21
0.3882984645669291
0
LINE
8
BLACK
6
CONTINUOUS
10
0.4058586220472441
20
0.3882984645669291
11
0.406923031496063
21
0.3887393307086614
0
LINE
8
BLACK
6
CONTINUOUS
10
0.406923031496063
20
0.3887393307086614
11
0.4080751181102362
21
0.3887393307086614
0
LINE
8
BLACK
6
CONTINUOUS
10
0.4080751181102362
20
0.3887393307086614
11
0.4091395275590551
21
0.3882984251968504
0
LINE
8
BLACK
6
CONTINUOUS
10
0.4091395275590551
20
0.3882984251968504
11
0.4095870078740158
21
0.3879311811023622
0
LINE
8
BLACK
6
CONTINUOUS
10
0.4095870078740158
20
0.3879311811023622
11
0.4111229133858267
21
0.3863952362204724
0
LINE
8
BLACK
6
CONTINUOUS
10
0.4111229133858267
20
0.3863952362204724
11
0.4138203937007874
21
0.3850464960629921
0
LINE
8
BLACK
6
CONTINUOUS
10
0.4138203937007874
20
0.3850464960629921
11
0.4236748818897638
21
0.3850464960629921
0
LINE
8
BLACK
6
CONTINUOUS
10
0.4236748818897638
20
0.3850464960629921
11
0.4263723228346457
21
0.3863952362204724
0
LINE
8
BLACK
6
CONTINUOUS
10
0.4263723228346457
20
0.3863952362204724
11
0.4275694488188976
21
0.3875924015748031
0
LINE
8
BLACK
6
CONTINUOUS
10
0.4275694488188976
20
0.3875924015748031
11
0.4289182283464567
21
0.3902898818897638
0
LINE
8
BLACK
6
CONTINUOUS
10
0.4289182283464567
20
0.3902898818897638
11
0.4289182283464567
21
0.3982696062992126
0
LINE
8
BLACK
6
CONTINUOUS
10
0.4289182283464567
20
0.3982696062992126
11
0.4275694881889764
21
0.4009670866141732
0
LINE
8
BLACK
6
CONTINUOUS
10
0.4275694881889764
20
0.4009670866141732
11
0.4263723622047244
21
0.4021642125984252
0
LINE
8
BLACK
6
CONTINUOUS
10
0.4263723622047244
20
0.4021642125984252
11
0.4236748818897638
21
0.4035129527559055
0
LINE
8
BLACK
6
CONTINUOUS
10
0.4236748818897638
20
0.4035129527559055
11
0.4187476377952756
21
0.4035129527559055
0
LINE
8
BLACK
6
CONTINUOUS
10
0.4187476377952756
20
0.4035129527559055
11
0.4184429527559055
21
0.4035429921259843
0
LINE
8
BLACK
6
CONTINUOUS
10
0.4184429527559055
20
0.4035429921259843
11
0.4183655118110236
21
0.4035377952755905
0
LINE
8
BLACK
6
CONTINUOUS
10
0.4183655118110236
20
0.4035377952755905
11
0.4183121259842519
21
0.4035558661417323
0
LINE
8
BLACK
6
CONTINUOUS
10
0.4183121259842519
20
0.4035558661417323
11
0.4181715748031496
21
0.4035696850393701
0
LINE
8
BLACK
6
CONTINUOUS
10
0.4181715748031496
20
0.4035696850393701
11
0.4177283464566929
21
0.4037533070866142
0
LINE
8
BLACK
6
CONTINUOUS
10
0.4177283464566929
20
0.4037533070866142
11
0.4172741338582677
21
0.4039068897637795
0
LINE
8
BLACK
6
CONTINUOUS
10
0.4172741338582677
20
0.4039068897637795
11
0.4171991338582677
21
0.4039724803149606
0
LINE
8
BLACK
6
CONTINUOUS
10
0.4171991338582677
20
0.4039724803149606
11
0.4171071653543307
21
0.4040105905511811
0
LINE
8
BLACK
6
CONTINUOUS
10
0.4171071653543307
20
0.4040105905511811
11
0.4167681496062992
21
0.4043496062992126
0
LINE
8
BLACK
6
CONTINUOUS
10
0.4167681496062992
20
0.4043496062992126
11
0.4164070472440945
21
0.4046655511811024
0
LINE
8
BLACK
6
CONTINUOUS
10
0.4164070472440945
20
0.4046655511811024
11
0.4163628346456693
21
0.4047549212598425
0
LINE
8
BLACK
6
CONTINUOUS
10
0.4163628346456693
20
0.4047549212598425
11
0.4162925196850394
21
0.4048252362204725
0
LINE
8
BLACK
6
CONTINUOUS
10
0.4162925196850394
20
0.4048252362204725
11
0.4161090157480315
21
0.405268188976378
0
LINE
8
BLACK
6
CONTINUOUS
10
0.4161090157480315
20
0.405268188976378
11
0.4158963385826772
21
0.4056983070866141
0
LINE
8
BLACK
6
CONTINUOUS
10
0.4158963385826772
20
0.4056983070866141
11
0.4158896850393701
21
0.4057976771653543
0
LINE
8
BLACK
6
CONTINUOUS
10
0.4158896850393701
20
0.4057976771653543
11
0.4158516141732284
21
0.4058896456692913
0
LINE
8
BLACK
6
CONTINUOUS
10
0.4158516141732284
20
0.4058896456692913
11
0.4158516141732284
21
0.4063693700787401
0
LINE
8
BLACK
6
CONTINUOUS
10
0.4158516141732284
20
0.4063693700787401
11
0.4158197244094488
21
0.4068478346456693
0
LINE
8
BLACK
6
CONTINUOUS
10
0.4158197244094488
20
0.4068478346456693
11
0.4158516141732284
21
0.4069421653543307
0
LINE
8
BLACK
6
CONTINUOUS
10
0.4158516141732284
20
0.4069421653543307
11
0.4158516141732284
21
0.4070417716535433
0
LINE
8
BLACK
6
CONTINUOUS
10
0.4158516141732284
20
0.4070417716535433
11
0.4160351968503937
21
0.407485
0
LINE
8
BLACK
6
CONTINUOUS
10
0.4160351968503937
20
0.407485
11
0.4161888188976378
21
0.4079392125984252
0
LINE
8
BLACK
6
CONTINUOUS
10
0.4161888188976378
20
0.4079392125984252
11
0.416270905511811
21
0.408054094488189
0
LINE
8
BLACK
6
CONTINUOUS
10
0.416270905511811
20
0.408054094488189
11
0.4162925196850394
21
0.4081061811023622
0
LINE
8
BLACK
6
CONTINUOUS
10
0.4162925196850394
20
0.4081061811023622
11
0.4163474409448819
21
0.4081611417322835
0
LINE
8
BLACK
6
CONTINUOUS
10
0.4163474409448819
20
0.4081611417322835
11
0.4165254724409449
21
0.4084101181102362
0
LINE
8
BLACK
6
CONTINUOUS
10
0.4165254724409449
20
0.4084101181102362
11
0.4253638188976378
21
0.418511062992126
0
LINE
8
BLACK
6
CONTINUOUS
10
0.4253638188976378
20
0.418511062992126
11
0.4074990551181102
21
0.418511062992126
0
LINE
8
BLACK
6
CONTINUOUS
10
0.4074990551181102
20
0.418511062992126
11
0.4069229921259843
21
0.4185677952755905
0
LINE
8
BLACK
6
CONTINUOUS
10
0.4069229921259843
20
0.4185677952755905
11
0.4058585826771653
21
0.4190087007874015
0
LINE
8
BLACK
6
CONTINUOUS
10
0.4058585826771653
20
0.4190087007874015
11
0.405043937007874
21
0.4198233464566929
0
LINE
8
BLACK
6
CONTINUOUS
10
0.405043937007874
20
0.4198233464566929
11
0.404603031496063
21
0.4208877559055118
0
LINE
8
BLACK
6
CONTINUOUS
10
0.404603031496063
20
0.4208877559055118
11
0.404603031496063
21
0.4220398818897638
0
LINE
8
BLACK
6
CONTINUOUS
10
0.404603031496063
20
0.4220398818897638
11
0.405043937007874
21
0.4231042913385827
0
LINE
8
BLACK
6
CONTINUOUS
10
0.405043937007874
20
0.4231042913385827
11
0.4058585826771653
21
0.423918937007874
0
LINE
8
BLACK
6
CONTINUOUS
10
0.4058585826771653
20
0.423918937007874
11
0.4069229921259843
21
0.424359842519685
0
LINE
8
BLACK
6
CONTINUOUS
10
0.4069229921259843
20
0.424359842519685
11
0.4074990551181102
21
0.4244165748031496
0
LINE
8
BLACK
6
CONTINUOUS
10
0.4074990551181102
20
0.4244165748031496
11
0.4318709842519685
21
0.4244165748031496
0
LINE
8
BLACK
6
CONTINUOUS
10
0.4318709842519685
20
0.4244165748031496
11
0.4321756299212599
21
0.4243865748031496
0
LINE
8
BLACK
6
CONTINUOUS
10
0.3716442125984252
20
0.423918937007874
11
0.3724588582677165
21
0.4231042913385827
0
LINE
8
BLACK
6
CONTINUOUS
10
0.3724588582677165
20
0.4231042913385827
11
0.3728997637795275
21
0.4220398818897638
0
LINE
8
BLACK
6
CONTINUOUS
10
0.3728997637795275
20
0.4220398818897638
11
0.3729564960629921
21
0.4214638188976378
0
LINE
8
BLACK
6
CONTINUOUS
10
0.3729564960629921
20
0.4214638188976378
11
0.3729564960629921
21
0.405668937007874
0
LINE
8
BLACK
6
CONTINUOUS
10
0.3729564960629921
20
0.405668937007874
11
0.3895481496062992
21
0.405668937007874
0
LINE
8
BLACK
6
CONTINUOUS
10
0.3895481496062992
20
0.405668937007874
11
0.3895481496062992
21
0.4214638188976378
0
LINE
8
BLACK
6
CONTINUOUS
10
0.3895481496062992
20
0.4214638188976378
11
0.3896048818897638
21
0.4220398818897638
0
LINE
8
BLACK
6
CONTINUOUS
10
0.3896048818897638
20
0.4220398818897638
11
0.3900457874015748
21
0.4231042913385827
0
LINE
8
BLACK
6
CONTINUOUS
10
0.3900457874015748
20
0.4231042913385827
11
0.3908604330708662
21
0.423918937007874
0
LINE
8
BLACK
6
CONTINUOUS
10
0.3908604330708662
20
0.423918937007874
11
0.391924842519685
21
0.424359842519685
0
LINE
8
BLACK
6
CONTINUOUS
10
0.391924842519685
20
0.424359842519685
11
0.393076968503937
21
0.424359842519685
0
LINE
8
BLACK
6
CONTINUOUS
10
0.393076968503937
20
0.424359842519685
11
0.3941413779527559
21
0.423918937007874
0
LINE
8
BLACK
6
CONTINUOUS
10
0.3941413779527559
20
0.423918937007874
11
0.3949560236220472
21
0.4231042913385827
0
LINE
8
BLACK
6
CONTINUOUS
10
0.3949560236220472
20
0.4231042913385827
11
0.3953969291338583
21
0.4220398818897638
0
LINE
8
BLACK
6
CONTINUOUS
10
0.3953969291338583
20
0.4220398818897638
11
0.3954536614173228
21
0.4214638188976378
0
LINE
8
BLACK
6
CONTINUOUS
10
0.3954536614173228
20
0.4214638188976378
11
0.3954536614173228
21
0.3820937401574803
0
LINE
8
BLACK
6
CONTINUOUS
10
0.3954536614173228
20
0.3820937401574803
11
0.3953969291338583
21
0.3815176771653543
0
LINE
8
BLACK
6
CONTINUOUS
10
0.3953969291338583
20
0.3815176771653543
11
0.3949560236220472
21
0.3804532677165354
0
LINE
8
BLACK
6
CONTINUOUS
10
0.3949560236220472
20
0.3804532677165354
11
0.3941413779527559
21
0.3796386220472441
0
LINE
8
BLACK
6
CONTINUOUS
10
0.3941413779527559
20
0.3796386220472441
11
0.393076968503937
21
0.379197716535433
0
LINE
8
BLACK
6
CONTINUOUS
10
0.393076968503937
20
0.379197716535433
11
0.391924842519685
21
0.379197716535433
0
LINE
8
BLACK
6
CONTINUOUS
10
0.391924842519685
20
0.379197716535433
11
0.3908604330708662
21
0.3796386220472441
0
LINE
8
BLACK
6
CONTINUOUS
10
0.3908604330708662
20
0.3796386220472441
11
0.3900457874015748
21
0.3804532677165354
0
LINE
8
BLACK
6
CONTINUOUS
10
0.3900457874015748
20
0.3804532677165354
11
0.3896048818897638
21
0.3815176771653543
0
LINE
8
BLACK
6
CONTINUOUS
10
0.3896048818897638
20
0.3815176771653543
11
0.3895481496062992
21
0.3820937401574803
0
LINE
8
BLACK
6
CONTINUOUS
10
0.3895481496062992
20
0.3820937401574803
11
0.3895481496062992
21
0.3997634251968504
0
LINE
8
BLACK
6
CONTINUOUS
10
0.3895481496062992
20
0.3997634251968504
11
0.3729564960629921
21
0.3997634251968504
0
LINE
8
BLACK
6
CONTINUOUS
10
0.3729564960629921
20
0.3997634251968504
11
0.3729564960629921
21
0.3820937401574803
0
LINE
8
BLACK
6
CONTINUOUS
10
0.3729564960629921
20
0.3820937401574803
11
0.3728997637795275
21
0.3815176771653543
0
LINE
8
BLACK
6
CONTINUOUS
10
0.3728997637795275
20
0.3815176771653543
11
0.3724588582677165
21
0.3804532677165354
0
LINE
8
BLACK
6
CONTINUOUS
10
0.3724588582677165
20
0.3804532677165354
11
0.3716442125984252
21
0.3796386220472441
0
LINE
8
BLACK
6
CONTINUOUS
10
0.3716442125984252
20
0.3796386220472441
11
0.3705798031496063
21
0.379197716535433
0
LINE
8
BLACK
6
CONTINUOUS
10
0.3705798031496063
20
0.379197716535433
11
0.3694276771653543
21
0.379197716535433
0
LINE
8
BLACK
6
CONTINUOUS
10
0.3694276771653543
20
0.379197716535433
11
0.3683632677165354
21
0.3796386220472441
0
LINE
8
BLACK
6
CONTINUOUS
10
0.3683632677165354
20
0.3796386220472441
11
0.3675486220472441
21
0.3804532677165354
0
LINE
8
BLACK
6
CONTINUOUS
10
0.3675486220472441
20
0.3804532677165354
11
0.3671077165354331
21
0.3815176771653543
0
LINE
8
BLACK
6
CONTINUOUS
10
0.3671077165354331
20
0.3815176771653543
11
0.3670509842519685
21
0.3820937401574803
0
LINE
8
BLACK
6
CONTINUOUS
10
0.3670509842519685
20
0.3820937401574803
11
0.3670509842519685
21
0.4214638188976378
0
LINE
8
BLACK
6
CONTINUOUS
10
0.3670509842519685
20
0.4214638188976378
11
0.3671077165354331
21
0.4220398818897638
0
LINE
8
BLACK
6
CONTINUOUS
10
0.3671077165354331
20
0.4220398818897638
11
0.3675486220472441
21
0.4231042913385827
0
LINE
8
BLACK
6
CONTINUOUS
10
0.3675486220472441
20
0.4231042913385827
11
0.3683632677165354
21
0.423918937007874
0
LINE
8
BLACK
6
CONTINUOUS
10
0.3683632677165354
20
0.423918937007874
11
0.3694276771653543
21
0.424359842519685
0
LINE
8
BLACK
6
CONTINUOUS
10
0.3694276771653543
20
0.424359842519685
11
0.3705798031496063
21
0.424359842519685
0
LINE
8
BLACK
6
CONTINUOUS
10
0.3705798031496063
20
0.424359842519685
11
0.3716442125984252
21
0.423918937007874
0
LINE
8
BLACK
6
CONTINUOUS
10
2.371644212598425
20
0.423918937007874
11
2.3724588582677164
21
0.4231042913385827
0
LINE
8
BLACK
6
CONTINUOUS
10
2.3724588582677164
20
0.4231042913385827
11
2.3728997637795275
21
0.4220398818897638
0
LINE
8
BLACK
6
CONTINUOUS
10
2.3728997637795275
20
0.4220398818897638
11
2.3729564960629919
21
0.4214638188976378
0
LINE
8
BLACK
6
CONTINUOUS
10
2.3729564960629919
20
0.4214638188976378
11
2.3729564960629919
21
0.405668937007874
0
LINE
8
BLACK
6
CONTINUOUS
10
2.3729564960629919
20
0.405668937007874
11
2.3895481496062994
21
0.405668937007874
0
LINE
8
BLACK
6
CONTINUOUS
10
2.3895481496062994
20
0.405668937007874
11
2.3895481496062994
21
0.4214638188976378
0
LINE
8
BLACK
6
CONTINUOUS
10
2.3895481496062994
20
0.4214638188976378
11
2.3896048818897637
21
0.4220398818897638
0
LINE
8
BLACK
6
CONTINUOUS
10
2.3896048818897637
20
0.4220398818897638
11
2.3900457874015748
21
0.4231042913385827
0
LINE
8
BLACK
6
CONTINUOUS
10
2.3900457874015748
20
0.4231042913385827
11
2.3908604330708663
21
0.423918937007874
0
LINE
8
BLACK
6
CONTINUOUS
10
2.3908604330708663
20
0.423918937007874
11
2.3919248425196851
21
0.424359842519685
0
LINE
8
BLACK
6
CONTINUOUS
10
2.3919248425196851
20
0.424359842519685
11
2.3930769685039368
21
0.424359842519685
0
LINE
8
BLACK
6
CONTINUOUS
10
2.3930769685039368
20
0.424359842519685
11
2.3941413779527561
21
0.423918937007874
0
LINE
8
BLACK
6
CONTINUOUS
10
2.3941413779527561
20
0.423918937007874
11
2.3949560236220471
21
0.4231042913385827
0
LINE
8
BLACK
6
CONTINUOUS
10
2.3949560236220471
20
0.4231042913385827
11
2.3953969291338582
21
0.4220398818897638
0
LINE
8
BLACK
6
CONTINUOUS
10
2.3953969291338582
20
0.4220398818897638
11
2.395453661417323
21
0.4214638188976378
0
LINE
8
BLACK
6
CONTINUOUS
10
2.395453661417323
20
0.4214638188976378
11
2.395453661417323
21
0.3820937401574803
0
LINE
8
BLACK
6
CONTINUOUS
10
2.395453661417323
20
0.3820937401574803
11
2.3953969291338582
21
0.3815176771653543
0
LINE
8
BLACK
6
CONTINUOUS
10
2.3953969291338582
20
0.3815176771653543
11
2.3949560236220471
21
0.3804532677165354
0
LINE
8
BLACK
6
CONTINUOUS
10
2.3949560236220471
20
0.3804532677165354
11
2.3941413779527561
21
0.3796386220472441
0
LINE
8
BLACK
6
CONTINUOUS
10
2.3941413779527561
20
0.3796386220472441
11
2.3930769685039368
21
0.379197716535433
0
LINE
8
BLACK
6
CONTINUOUS
10
2.3930769685039368
20
0.379197716535433
11
2.3919248425196851
21
0.379197716535433
0
LINE
8
BLACK
6
CONTINUOUS
10
2.3919248425196851
20
0.379197716535433
11
2.3908604330708663
21
0.3796386220472441
0
LINE
8
BLACK
6
CONTINUOUS
10
2.3908604330708663
20
0.3796386220472441
11
2.3900457874015748
21
0.3804532677165354
0
LINE
8
BLACK
6
CONTINUOUS
10
2.3900457874015748
20
0.3804532677165354
11
2.3896048818897637
21
0.3815176771653543
0
LINE
8
BLACK
6
CONTINUOUS
10
2.3896048818897637
20
0.3815176771653543
11
2.3895481496062994
21
0.3820937401574803
0
LINE
8
BLACK
6
CONTINUOUS
10
2.3895481496062994
20
0.3820937401574803
11
2.3895481496062994
21
0.3997634251968504
0
LINE
8
BLACK
6
CONTINUOUS
10
2.3895481496062994
20
0.3997634251968504
11
2.3729564960629919
21
0.3997634251968504
0
LINE
8
BLACK
6
CONTINUOUS
10
2.3729564960629919
20
0.3997634251968504
11
2.3729564960629919
21
0.3820937401574803
0
LINE
8
BLACK
6
CONTINUOUS
10
2.3729564960629919
20
0.3820937401574803
11
2.3728997637795275
21
0.3815176771653543
0
LINE
8
BLACK
6
CONTINUOUS
10
2.3728997637795275
20
0.3815176771653543
11
2.3724588582677164
21
0.3804532677165354
0
LINE
8
BLACK
6
CONTINUOUS
10
2.3724588582677164
20
0.3804532677165354
11
2.371644212598425
21
0.3796386220472441
0
LINE
8
BLACK
6
CONTINUOUS
10
2.371644212598425
20
0.3796386220472441
11
2.3705798031496061
21
0.379197716535433
0
LINE
8
BLACK
6
CONTINUOUS
10
2.3705798031496061
20
0.379197716535433
11
2.3694276771653544
21
0.379197716535433
0
LINE
8
BLACK
6
CONTINUOUS
10
2.3694276771653544
20
0.379197716535433
11
2.3683632677165352
21
0.3796386220472441
0
LINE
8
BLACK
6
CONTINUOUS
10
2.3683632677165352
20
0.3796386220472441
11
2.3675486220472441
21
0.3804532677165354
0
LINE
8
BLACK
6
CONTINUOUS
10
2.3675486220472441
20
0.3804532677165354
11
2.3671077165354331
21
0.3815176771653543
0
LINE
8
BLACK
6
CONTINUOUS
10
2.3671077165354331
20
0.3815176771653543
11
2.3670509842519682
21
0.3820937401574803
0
LINE
8
BLACK
6
CONTINUOUS
10
2.3670509842519682
20
0.3820937401574803
11
2.3670509842519682
21
0.4214638188976378
0
LINE
8
BLACK
6
CONTINUOUS
10
2.3670509842519682
20
0.4214638188976378
11
2.3671077165354331
21
0.4220398818897638
0
LINE
8
BLACK
6
CONTINUOUS
10
2.3671077165354331
20
0.4220398818897638
11
2.3675486220472441
21
0.4231042913385827
0
LINE
8
BLACK
6
CONTINUOUS
10
2.3675486220472441
20
0.4231042913385827
11
2.3683632677165352
21
0.423918937007874
0
LINE
8
BLACK
6
CONTINUOUS
10
2.3683632677165352
20
0.423918937007874
11
2.3694276771653544
21
0.424359842519685
0
LINE
8
BLACK
6
CONTINUOUS
10
2.3694276771653544
20
0.424359842519685
11
2.3705798031496061
21
0.424359842519685
0
LINE
8
BLACK
6
CONTINUOUS
10
2.3705798031496061
20
0.424359842519685
11
2.371644212598425
21
0.423918937007874
0
LINE
8
BLACK
6
CONTINUOUS
10
2.4202099212598425
20
0.4259038188976378
11
2.4210803149606299
21
0.425148937007874
0
LINE
8
BLACK
6
CONTINUOUS
10
2.4210803149606299
20
0.425148937007874
11
2.4215955118110237
21
0.4241184645669291
0
LINE
8
BLACK
6
CONTINUOUS
10
2.4215955118110237
20
0.4241184645669291
11
2.4216772047244093
21
0.4229692519685039
0
LINE
8
BLACK
6
CONTINUOUS
10
2.4216772047244093
20
0.4229692519685039
11
2.4215488582677165
21
0.4224048031496063
0
LINE
8
BLACK
6
CONTINUOUS
10
2.4215488582677165
20
0.4224048031496063
11
2.4134705511811023
21
0.3981698818897638
0
LINE
8
BLACK
6
CONTINUOUS
10
2.4134705511811023
20
0.3981698818897638
11
2.4251687007874017
21
0.3981698818897638
0
LINE
8
BLACK
6
CONTINUOUS
10
2.4251687007874017
20
0.3981698818897638
11
2.4251687007874017
21
0.4083404724409448
0
LINE
8
BLACK
6
CONTINUOUS
10
2.4251687007874017
20
0.4083404724409448
11
2.425225433070866
21
0.4089165354330709
0
LINE
8
BLACK
6
CONTINUOUS
10
2.425225433070866
20
0.4089165354330709
11
2.4256663385826771
21
0.4099809448818897
0
LINE
8
BLACK
6
CONTINUOUS
10
2.4256663385826771
20
0.4099809448818897
11
2.4264809842519686
21
0.4107955905511811
0
LINE
8
BLACK
6
CONTINUOUS
10
2.4264809842519686
20
0.4107955905511811
11
2.4275453937007874
21
0.4112364960629921
0
LINE
8
BLACK
6
CONTINUOUS
10
2.4275453937007874
20
0.4112364960629921
11
2.4286975196850391
21
0.4112364960629921
0
LINE
8
BLACK
6
CONTINUOUS
10
2.4286975196850391
20
0.4112364960629921
11
2.4297619291338584
21
0.4107955905511811
0
LINE
8
BLACK
6
CONTINUOUS
10
2.4297619291338584
20
0.4107955905511811
11
2.4305765748031494
21
0.4099809448818897
0
LINE
8
BLACK
6
CONTINUOUS
10
2.4305765748031494
20
0.4099809448818897
11
2.4310174803149605
21
0.4089165354330709
0
LINE
8
BLACK
6
CONTINUOUS
10
2.4310174803149605
20
0.4089165354330709
11
2.4310742125984253
21
0.4083404724409448
0
LINE
8
BLACK
6
CONTINUOUS
10
2.4310742125984253
20
0.4083404724409448
11
2.4310742125984253
21
0.3981698818897638
0
LINE
8
BLACK
6
CONTINUOUS
10
2.4310742125984253
20
0.3981698818897638
11
2.4337457480314959
21
0.3981698818897638
0
LINE
8
BLACK
6
CONTINUOUS
10
2.4337457480314959
20
0.3981698818897638
11
2.4343218110236218
21
0.3981131496062992
0
LINE
8
BLACK
6
CONTINUOUS
10
2.4343218110236218
20
0.3981131496062992
11
2.435386220472441
21
0.3976722440944882
0
LINE
8
BLACK
6
CONTINUOUS
10
2.435386220472441
20
0.3976722440944882
11
2.436200866141732
21
0.3968575984251969
0
LINE
8
BLACK
6
CONTINUOUS
10
2.436200866141732
20
0.3968575984251969
11
2.4366417716535431
21
0.3957931889763779
0
LINE
8
BLACK
6
CONTINUOUS
10
2.4366417716535431
20
0.3957931889763779
11
2.4366417716535431
21
0.394641062992126
0
LINE
8
BLACK
6
CONTINUOUS
10
2.4366417716535431
20
0.394641062992126
11
2.436200866141732
21
0.3935766535433071
0
LINE
8
BLACK
6
CONTINUOUS
10
2.436200866141732
20
0.3935766535433071
11
2.435386220472441
21
0.3927620078740157
0
LINE
8
BLACK
6
CONTINUOUS
10
2.435386220472441
20
0.3927620078740157
11
2.4343218110236218
21
0.3923211023622047
0
LINE
8
BLACK
6
CONTINUOUS
10
2.4343218110236218
20
0.3923211023622047
11
2.4337457480314959
21
0.3922643700787402
0
LINE
8
BLACK
6
CONTINUOUS
10
2.4337457480314959
20
0.3922643700787402
11
2.4310742125984253
21
0.3922643700787402
0
LINE
8
BLACK
6
CONTINUOUS
10
2.4310742125984253
20
0.3922643700787402
11
2.4310742125984253
21
0.3820937401574803
0
LINE
8
BLACK
6
CONTINUOUS
10
2.4310742125984253
20
0.3820937401574803
11
2.4310174803149605
21
0.3815176771653543
0
LINE
8
BLACK
6
CONTINUOUS
10
2.4310174803149605
20
0.3815176771653543
11
2.4305765748031494
21
0.3804532677165354
0
LINE
8
BLACK
6
CONTINUOUS
10
2.4305765748031494
20
0.3804532677165354
11
2.4297619291338584
21
0.3796386220472441
0
LINE
8
BLACK
6
CONTINUOUS
10
2.4297619291338584
20
0.3796386220472441
11
2.4286975196850391
21
0.379197716535433
0
LINE
8
BLACK
6
CONTINUOUS
10
2.4286975196850391
20
0.379197716535433
11
2.4275453937007874
21
0.379197716535433
0
LINE
8
BLACK
6
CONTINUOUS
10
2.4275453937007874
20
0.379197716535433
11
2.4264809842519686
21
0.3796386220472441
0
LINE
8
BLACK
6
CONTINUOUS
10
2.4264809842519686
20
0.3796386220472441
11
2.4256663385826771
21
0.3804532677165354
0
LINE
8
BLACK
6
CONTINUOUS
10
2.4256663385826771
20
0.3804532677165354
11
2.425225433070866
21
0.3815176771653543
0
LINE
8
BLACK
6
CONTINUOUS
10
2.425225433070866
20
0.3815176771653543
11
2.4251687007874017
21
0.3820937401574803
0
LINE
8
BLACK
6
CONTINUOUS
10
2.4251687007874017
20
0.3820937401574803
11
2.4251687007874017
21
0.3922643700787402
0
LINE
8
BLACK
6
CONTINUOUS
10
2.4251687007874017
20
0.3922643700787402
11
2.4093738188976377
21
0.3922643700787402
0
LINE
8
BLACK
6
CONTINUOUS
10
2.4093738188976377
20
0.3922643700787402
11
2.4090822440944883
21
0.3922931102362205
0
LINE
8
BLACK
6
CONTINUOUS
10
2.4090822440944883
20
0.3922931102362205
11
2.409004527559055
21
0.3922875590551181
0
LINE
8
BLACK
6
CONTINUOUS
10
2.409004527559055
20
0.3922875590551181
11
2.4089483858267715
21
0.3923062992125984
0
LINE
8
BLACK
6
CONTINUOUS
10
2.4089483858267715
20
0.3923062992125984
11
2.4087977559055118
21
0.3923211023622047
0
LINE
8
BLACK
6
CONTINUOUS
10
2.4087977559055118
20
0.3923211023622047
11
2.4083604330708659
21
0.3925022440944882
0
LINE
8
BLACK
6
CONTINUOUS
10
2.4083604330708659
20
0.3925022440944882
11
2.4079114960629919
21
0.3926518897637795
0
LINE
8
BLACK
6
CONTINUOUS
10
2.4079114960629919
20
0.3926518897637795
11
2.4078312992125985
21
0.3927214566929134
0
LINE
8
BLACK
6
CONTINUOUS
10
2.4078312992125985
20
0.3927214566929134
11
2.407733346456693
21
0.3927620078740157
0
LINE
8
BLACK
6
CONTINUOUS
10
2.407733346456693
20
0.3927620078740157
11
2.4073987007874016
21
0.3930966535433071
0
LINE
8
BLACK
6
CONTINUOUS
10
2.4073987007874016
20
0.3930966535433071
11
2.4070411417322832
21
0.3934067716535433
0
LINE
8
BLACK
6
CONTINUOUS
10
2.4070411417322832
20
0.3934067716535433
11
2.4069937007874014
21
0.3935016535433071
0
LINE
8
BLACK
6
CONTINUOUS
10
2.4069937007874014
20
0.3935016535433071
11
2.4069187007874016
21
0.3935766535433071
0
LINE
8
BLACK
6
CONTINUOUS
10
2.4069187007874016
20
0.3935766535433071
11
2.4067375196850391
21
0.3940140157480315
0
LINE
8
BLACK
6
CONTINUOUS
10
2.4067375196850391
20
0.3940140157480315
11
2.4065259448818899
21
0.3944372047244095
0
LINE
8
BLACK
6
CONTINUOUS
10
2.4065259448818899
20
0.3944372047244095
11
2.4065184251968503
21
0.3945429921259843
0
LINE
8
BLACK
6
CONTINUOUS
10
2.4065184251968503
20
0.3945429921259843
11
2.4064777952755905
21
0.394641062992126
0
LINE
8
BLACK
6
CONTINUOUS
10
2.4064777952755905
20
0.394641062992126
11
2.4064777952755905
21
0.3951145669291338
0
LINE
8
BLACK
6
CONTINUOUS
10
2.4064777952755905
20
0.3951145669291338
11
2.4064442519685039
21
0.3955864173228346
0
LINE
8
BLACK
6
CONTINUOUS
10
2.4064442519685039
20
0.3955864173228346
11
2.4064777952755905
21
0.395733937007874
0
LINE
8
BLACK
6
CONTINUOUS
10
2.4064777952755905
20
0.395733937007874
11
2.4064777952755905
21
0.3957931889763779
0
LINE
8
BLACK
6
CONTINUOUS
10
2.4064777952755905
20
0.3957931889763779
11
2.4065076377952757
21
0.3958653149606299
0
LINE
8
BLACK
6
CONTINUOUS
10
2.4065076377952757
20
0.3958653149606299
11
2.4065725984251967
21
0.3961508661417323
0
LINE
8
BLACK
6
CONTINUOUS
10
2.4065725984251967
20
0.3961508661417323
11
2.4159464173228344
21
0.4242723228346457
0
LINE
8
BLACK
6
CONTINUOUS
10
2.4159464173228344
20
0.4242723228346457
11
2.4161824015748032
21
0.4248008661417323
0
LINE
8
BLACK
6
CONTINUOUS
10
2.4161824015748032
20
0.4248008661417323
11
2.4169372834645668
21
0.4256712204724409
0
LINE
8
BLACK
6
CONTINUOUS
10
2.4169372834645668
20
0.4256712204724409
11
2.4179677165354332
21
0.4261864566929134
0
LINE
8
BLACK
6
CONTINUOUS
10
2.4179677165354332
20
0.4261864566929134
11
2.4191169291338581
21
0.4262681496062992
0
LINE
8
BLACK
6
CONTINUOUS
10
2.4191169291338581
20
0.4262681496062992
11
2.4202099212598425
21
0.4259038188976378
0
LINE
8
BLACK
6
CONTINUOUS
10
0.8773476771653543
20
0.8733684645669291
11
0.8784120866141732
21
0.8729275590551181
0
LINE
8
BLACK
6
CONTINUOUS
10
0.8784120866141732
20
0.8729275590551181
11
0.8792267322834646
21
0.8721129133858267
0
LINE
8
BLACK
6
CONTINUOUS
10
0.8792267322834646
20
0.8721129133858267
11
0.8796676377952756
21
0.8710485039370078
0
LINE
8
BLACK
6
CONTINUOUS
10
0.8796676377952756
20
0.8710485039370078
11
0.8797243700787402
21
0.8704724409448819
0
LINE
8
BLACK
6
CONTINUOUS
10
0.8797243700787402
20
0.8704724409448819
11
0.8797243700787402
21
0.5704724409448819
0
LINE
8
BLACK
6
CONTINUOUS
10
0.8797243700787402
20
0.5704724409448819
11
0.8796676377952756
21
0.5698963779527559
0
LINE
8
BLACK
6
CONTINUOUS
10
0.8796676377952756
20
0.5698963779527559
11
0.8792267322834646
21
0.568831968503937
0
LINE
8
BLACK
6
CONTINUOUS
10
0.8792267322834646
20
0.568831968503937
11
0.8784120866141732
21
0.5680173228346457
0
LINE
8
BLACK
6
CONTINUOUS
10
0.8784120866141732
20
0.5680173228346457
11
0.8773476771653543
21
0.5675764173228346
0
LINE
8
BLACK
6
CONTINUOUS
10
0.8773476771653543
20
0.5675764173228346
11
0.8767716141732284
21
0.5675196850393701
0
LINE
8
BLACK
6
CONTINUOUS
10
0.8767716141732284
20
0.5675196850393701
11
0.6767716141732283
21
0.5675196850393701
0
LINE
8
BLACK
6
CONTINUOUS
10
0.6767716141732283
20
0.5675196850393701
11
0.6761955511811023
21
0.5675764173228346
0
LINE
8
BLACK
6
CONTINUOUS
10
0.6761955511811023
20
0.5675764173228346
11
0.6751311417322835
21
0.5680173228346457
0
LINE
8
BLACK
6
CONTINUOUS
10
0.6751311417322835
20
0.5680173228346457
11
0.6743164960629922
21
0.568831968503937
0
LINE
8
BLACK
6
CONTINUOUS
10
0.6743164960629922
20
0.568831968503937
11
0.6738755905511811
21
0.5698963779527559
0
LINE
8
BLACK
6
CONTINUOUS
10
0.6738755905511811
20
0.5698963779527559
11
0.6738188582677165
21
0.5704724409448819
0
LINE
8
BLACK
6
CONTINUOUS
10
0.6738188582677165
20
0.5704724409448819
11
0.6738188582677165
21
0.8704724409448819
0
LINE
8
BLACK
6
CONTINUOUS
10
0.6738188582677165
20
0.8704724409448819
11
0.6738755905511811
21
0.8710485039370078
0
LINE
8
BLACK
6
CONTINUOUS
10
0.6738755905511811
20
0.8710485039370078
11
0.6743164960629922
21
0.8721129133858267
0
LINE
8
BLACK
6
CONTINUOUS
10
0.6743164960629922
20
0.8721129133858267
11
0.6751311417322835
21
0.8729275590551181
0
LINE
8
BLACK
6
CONTINUOUS
10
0.6751311417322835
20
0.8729275590551181
11
0.6761955511811023
21
0.8733684645669291
0
LINE
8
BLACK
6
CONTINUOUS
10
0.6761955511811023
20
0.8733684645669291
11
0.6767716141732283
21
0.8734251968503937
0
LINE
8
BLACK
6
CONTINUOUS
10
0.6767716141732283
20
0.8734251968503937
11
0.8767716141732284
21
0.8734251968503937
0
LINE
8
BLACK
6
CONTINUOUS
10
0.8767716141732284
20
0.8734251968503937
11
0.8773476771653543
21
0.8733684645669291
0
LINE
8
BLACK
6
CONTINUOUS
10
0.6797243700787401
20
0.86751968503937
11
0.6797243700787401
21
0.5734251968503937
0
LINE
8
BLACK
6
CONTINUOUS
10
0.6797243700787401
20
0.5734251968503937
11
0.8738188582677165
21
0.5734251968503937
0
LINE
8
BLACK
6
CONTINUOUS
10
0.8738188582677165
20
0.5734251968503937
11
0.8738188582677165
21
0.86751968503937
0
LINE
8
BLACK
6
CONTINUOUS
10
0.8738188582677165
20
0.86751968503937
11
0.6797243700787401
21
0.86751968503937
0
LINE
8
BLACK
6
CONTINUOUS
10
1.6804972834645668
20
0.8733684645669291
11
1.6815616929133859
21
0.8729275590551181
0
LINE
8
BLACK
6
CONTINUOUS
10
1.6815616929133859
20
0.8729275590551181
11
1.6823763385826771
21
0.8721129133858267
0
LINE
8
BLACK
6
CONTINUOUS
10
1.6823763385826771
20
0.8721129133858267
11
1.6828172440944882
21
0.8710485039370078
0
LINE
8
BLACK
6
CONTINUOUS
10
1.6828172440944882
20
0.8710485039370078
11
1.6828739763779528
21
0.8704724409448819
0
LINE
8
BLACK
6
CONTINUOUS
10
1.6828739763779528
20
0.8704724409448819
11
1.6828739763779528
21
0.5704724409448819
0
LINE
8
BLACK
6
CONTINUOUS
10
1.6828739763779528
20
0.5704724409448819
11
1.6828172440944882
21
0.5698963779527559
0
LINE
8
BLACK
6
CONTINUOUS
10
1.6828172440944882
20
0.5698963779527559
11
1.6823763385826771
21
0.568831968503937
0
LINE
8
BLACK
6
CONTINUOUS
10
1.6823763385826771
20
0.568831968503937
11
1.6815616929133859
21
0.5680173228346457
0
LINE
8
BLACK
6
CONTINUOUS
10
1.6815616929133859
20
0.5680173228346457
11
1.6804972834645668
21
0.5675764173228346
0
LINE
8
BLACK
6
CONTINUOUS
10
1.6804972834645668
20
0.5675764173228346
11
1.679921220472441
21
0.5675196850393701
0
LINE
8
BLACK
6
CONTINUOUS
10
1.679921220472441
20
0.5675196850393701
11
1.479921220472441
21
0.5675196850393701
0
LINE
8
BLACK
6
CONTINUOUS
10
1.479921220472441
20
0.5675196850393701
11
1.4793451574803149
21
0.5675764173228346
0
LINE
8
BLACK
6
CONTINUOUS
10
1.4793451574803149
20
0.5675764173228346
11
1.4782807480314961
21
0.5680173228346457
0
LINE
8
BLACK
6
CONTINUOUS
10
1.4782807480314961
20
0.5680173228346457
11
1.4774661023622047
21
0.568831968503937
0
LINE
8
BLACK
6
CONTINUOUS
10
1.4774661023622047
20
0.568831968503937
11
1.4770251968503936
21
0.5698963779527559
0
LINE
8
BLACK
6
CONTINUOUS
10
1.4770251968503936
20
0.5698963779527559
11
1.4769684645669292
21
0.5704724409448819
0
LINE
8
BLACK
6
CONTINUOUS
10
1.4769684645669292
20
0.5704724409448819
11
1.4769684645669292
21
0.8704724409448819
0
LINE
8
BLACK
6
CONTINUOUS
10
1.4769684645669292
20
0.8704724409448819
11
1.4770251968503936
21
0.8710485039370078
0
LINE
8
BLACK
6
CONTINUOUS
10
1.4770251968503936
20
0.8710485039370078
11
1.4774661023622047
21
0.8721129133858267
0
LINE
8
BLACK
6
CONTINUOUS
10
1.4774661023622047
20
0.8721129133858267
11
1.4782807480314961
21
0.8729275590551181
0
LINE
8
BLACK
6
CONTINUOUS
10
1.4782807480314961
20
0.8729275590551181
11
1.4793451574803149
21
0.8733684645669291
0
LINE
8
BLACK
6
CONTINUOUS
10
1.4793451574803149
20
0.8733684645669291
11
1.479921220472441
21
0.8734251968503937
0
LINE
8
BLACK
6
CONTINUOUS
10
1.479921220472441
20
0.8734251968503937
11
1.679921220472441
21
0.8734251968503937
0
LINE
8
BLACK
6
CONTINUOUS
10
1.679921220472441
20
0.8734251968503937
11
1.6804972834645668
21
0.8733684645669291
0
LINE
8
BLACK
6
CONTINUOUS
10
1.4828739763779528
20
0.86751968503937
11
1.4828739763779528
21
0.5734251968503937
0
LINE
8
BLACK
6
CONTINUOUS
10
1.4828739763779528
20
0.5734251968503937
11
1.6769684645669292
21
0.5734251968503937
0
LINE
8
BLACK
6
CONTINUOUS
10
1.6769684645669292
20
0.5734251968503937
11
1.6769684645669292
21
0.86751968503937
0
LINE
8
BLACK
6
CONTINUOUS
10
1.6769684645669292
20
0.86751968503937
11
1.4828739763779528
21
0.86751968503937
0
LINE
8
BLACK
6
CONTINUOUS
10
0.7400468897637795
20
1.700847716535433
11
0.7794169685039369
21
1.6914738976377952
0
LINE
8
BLACK
6
CONTINUOUS
10
0.7794169685039369
20
1.6914738976377952
11
0.7796145275590551
21
1.6914058267716534
0
LINE
8
BLACK
6
CONTINUOUS
10
0.7796145275590551
20
1.6914058267716534
11
0.7796855511811024
21
1.6913963779527559
0
LINE
8
BLACK
6
CONTINUOUS
10
0.7796855511811024
20
1.6913963779527559
11
0.77974968503937
21
1.6913592519685039
0
LINE
8
BLACK
6
CONTINUOUS
10
0.77974968503937
20
1.6913592519685039
11
0.7799642125984252
21
1.6912853149606299
0
LINE
8
BLACK
6
CONTINUOUS
10
0.7799642125984252
20
1.6912853149606299
11
0.7803115748031496
21
1.691033937007874
0
LINE
8
BLACK
6
CONTINUOUS
10
0.7803115748031496
20
1.691033937007874
11
0.7806825590551181
21
1.6908191338582677
0
LINE
8
BLACK
6
CONTINUOUS
10
0.7806825590551181
20
1.6908191338582677
11
0.7807746850393701
21
1.690698779527559
0
LINE
8
BLACK
6
CONTINUOUS
10
0.7807746850393701
20
1.690698779527559
11
0.780897559055118
21
1.6906098425196849
0
LINE
8
BLACK
6
CONTINUOUS
10
0.780897559055118
20
1.6906098425196849
11
0.7811221653543307
21
1.690244842519685
0
LINE
8
BLACK
6
CONTINUOUS
10
0.7811221653543307
20
1.690244842519685
11
0.781382874015748
21
1.6899042519685039
0
LINE
8
BLACK
6
CONTINUOUS
10
0.781382874015748
20
1.6899042519685039
11
0.781421968503937
21
1.6897576771653542
0
LINE
8
BLACK
6
CONTINUOUS
10
0.781421968503937
20
1.6897576771653542
11
0.7815013385826771
21
1.6896286614173228
0
LINE
8
BLACK
6
CONTINUOUS
10
0.7815013385826771
20
1.6896286614173228
11
0.7815691338582677
21
1.6892057086614174
0
LINE
8
BLACK
6
CONTINUOUS
10
0.7815691338582677
20
1.6892057086614174
11
0.7816797244094488
21
1.6887910629921259
0
LINE
8
BLACK
6
CONTINUOUS
10
0.7816797244094488
20
1.6887910629921259
11
0.7816597244094488
21
1.688640748031496
0
LINE
8
BLACK
6
CONTINUOUS
10
0.7816597244094488
20
1.688640748031496
11
0.7816837401574803
21
1.6884910629921259
0
LINE
8
BLACK
6
CONTINUOUS
10
0.7816837401574803
20
1.6884910629921259
11
0.7815844094488189
21
1.6880739370078739
0
LINE
8
BLACK
6
CONTINUOUS
10
0.7815844094488189
20
1.6880739370078739
11
0.7815279527559055
21
1.6876489763779527
0
LINE
8
BLACK
6
CONTINUOUS
10
0.7815279527559055
20
1.6876489763779527
11
0.7814520078740157
21
1.6875178346456692
0
LINE
8
BLACK
6
CONTINUOUS
10
0.7814520078740157
20
1.6875178346456692
11
0.7814168897637795
21
1.6873702755905511
0
LINE
8
BLACK
6
CONTINUOUS
10
0.7814168897637795
20
1.6873702755905511
11
0.7811654330708662
21
1.687022874015748
0
LINE
8
BLACK
6
CONTINUOUS
10
0.7811654330708662
20
1.687022874015748
11
0.7809507086614174
21
1.6866519291338582
0
LINE
8
BLACK
6
CONTINUOUS
10
0.7809507086614174
20
1.6866519291338582
11
0.7808303149606299
21
1.6865598031496063
0
LINE
8
BLACK
6
CONTINUOUS
10
0.7808303149606299
20
1.6865598031496063
11
0.7807414173228346
21
1.6864369291338581
0
LINE
8
BLACK
6
CONTINUOUS
10
0.7807414173228346
20
1.6864369291338581
11
0.7803763385826772
21
1.6862123228346457
0
LINE
8
BLACK
6
CONTINUOUS
10
0.7803763385826772
20
1.6862123228346457
11
0.7800358661417323
21
1.685951653543307
0
LINE
8
BLACK
6
CONTINUOUS
10
0.7800358661417323
20
1.685951653543307
11
0.7798231889763779
21
1.6858719291338582
0
LINE
8
BLACK
6
CONTINUOUS
10
0.7798231889763779
20
1.6858719291338582
11
0.7797602362204724
21
1.6858331496062993
0
LINE
8
BLACK
6
CONTINUOUS
10
0.7797602362204724
20
1.6858331496062993
11
0.7796897244094488
21
1.6858218503937008
0
LINE
8
BLACK
6
CONTINUOUS
10
0.7796897244094488
20
1.6858218503937008
11
0.7794938582677166
21
1.6857483858267717
0
LINE
8
BLACK
6
CONTINUOUS
10
0.7794938582677166
20
1.6857483858267717
11
0.7620713779527559
21
1.6811024015748031
0
LINE
8
BLACK
6
CONTINUOUS
10
0.7620713779527559
20
1.6811024015748031
11
0.7794938582677166
21
1.6764564173228347
0
LINE
8
BLACK
6
CONTINUOUS
10
0.7794938582677166
20
1.6764564173228347
11
0.7796897244094488
21
1.6763829921259843
0
LINE
8
BLACK
6
CONTINUOUS
10
0.7796897244094488
20
1.6763829921259843
11
0.7797602362204724
21
1.6763716535433071
0
LINE
8
BLACK
6
CONTINUOUS
10
0.7797602362204724
20
1.6763716535433071
11
0.7798231889763779
21
1.6763329133858267
0
LINE
8
BLACK
6
CONTINUOUS
10
0.7798231889763779
20
1.6763329133858267
11
0.7800358661417323
21
1.6762531496062991
0
LINE
8
BLACK
6
CONTINUOUS
10
0.7800358661417323
20
1.6762531496062991
11
0.7803763385826772
21
1.6759925196850394
0
LINE
8
BLACK
6
CONTINUOUS
10
0.7803763385826772
20
1.6759925196850394
11
0.7807414173228346
21
1.675767874015748
0
LINE
8
BLACK
6
CONTINUOUS
10
0.7807414173228346
20
1.675767874015748
11
0.7808303149606299
21
1.6756450393700788
0
LINE
8
BLACK
6
CONTINUOUS
10
0.7808303149606299
20
1.6756450393700788
11
0.7809507086614174
21
1.6755528740157479
0
LINE
8
BLACK
6
CONTINUOUS
10
0.7809507086614174
20
1.6755528740157479
11
0.7811654330708662
21
1.6751819685039371
0
LINE
8
BLACK
6
CONTINUOUS
10
0.7811654330708662
20
1.6751819685039371
11
0.7814168897637795
21
1.674834527559055
0
LINE
8
BLACK
6
CONTINUOUS
10
0.7814168897637795
20
1.674834527559055
11
0.7814520078740157
21
1.6746870078740157
0
LINE
8
BLACK
6
CONTINUOUS
10
0.7814520078740157
20
1.6746870078740157
11
0.7815279527559055
21
1.6745558267716536
0
LINE
8
BLACK
6
CONTINUOUS
10
0.7815279527559055
20
1.6745558267716536
11
0.7815844094488189
21
1.674130905511811
0
LINE
8
BLACK
6
CONTINUOUS
10
0.7815844094488189
20
1.674130905511811
11
0.7816837401574803
21
1.6737137401574802
0
LINE
8
BLACK
6
CONTINUOUS
10
0.7816837401574803
20
1.6737137401574802
11
0.7816597244094488
21
1.6735640944881889
0
LINE
8
BLACK
6
CONTINUOUS
10
0.7816597244094488
20
1.6735640944881889
11
0.7816797244094488
21
1.6734137401574802
0
LINE
8
BLACK
6
CONTINUOUS
10
0.7816797244094488
20
1.6734137401574802
11
0.7815691338582677
21
1.6729991338582677
0
LINE
8
BLACK
6
CONTINUOUS
10
0.7815691338582677
20
1.6729991338582677
11
0.7815013385826771
21
1.6725761417322835
0
LINE
8
BLACK
6
CONTINUOUS
10
0.7815013385826771
20
1.6725761417322835
11
0.781421968503937
21
1.6724471653543307
0
LINE
8
BLACK
6
CONTINUOUS
10
0.781421968503937
20
1.6724471653543307
11
0.781382874015748
21
1.6723005511811024
0
LINE
8
BLACK
6
CONTINUOUS
10
0.781382874015748
20
1.6723005511811024
11
0.7811221653543307
21
1.6719599999999999
0
LINE
8
BLACK
6
CONTINUOUS
10
0.7811221653543307
20
1.6719599999999999
11
0.780897559055118
21
1.6715949606299212
0
LINE
8
BLACK
6
CONTINUOUS
10
0.780897559055118
20
1.6715949606299212
11
0.7807746850393701
21
1.6715060629921259
0
LINE
8
BLACK
6
CONTINUOUS
10
0.7807746850393701
20
1.6715060629921259
11
0.7806825590551181
21
1.6713856692913385
0
LINE
8
BLACK
6
CONTINUOUS
10
0.7806825590551181
20
1.6713856692913385
11
0.7803115748031496
21
1.6711709055118109
0
LINE
8
BLACK
6
CONTINUOUS
10
0.7803115748031496
20
1.6711709055118109
11
0.7799642125984252
21
1.6709194881889764
0
LINE
8
BLACK
6
CONTINUOUS
10
0.7799642125984252
20
1.6709194881889764
11
0.77974968503937
21
1.670845590551181
0
LINE
8
BLACK
6
CONTINUOUS
10
0.77974968503937
20
1.670845590551181
11
0.7796855511811024
21
1.6708084251968505
0
LINE
8
BLACK
6
CONTINUOUS
10
0.7796855511811024
20
1.6708084251968505
11
0.7796145275590551
21
1.6707990157480315
0
LINE
8
BLACK
6
CONTINUOUS
10
0.7796145275590551
20
1.6707990157480315
11
0.7794169685039369
21
1.6707309055118109
0
LINE
8
BLACK
6
CONTINUOUS
10
0.7794169685039369
20
1.6707309055118109
11
0.7400468897637795
21
1.6613570866141731
0
LINE
8
BLACK
6
CONTINUOUS
10
0.7400468897637795
20
1.6613570866141731
11
0.7394733464566929
21
1.6612788188976377
0
LINE
8
BLACK
6
CONTINUOUS
10
0.7394733464566929
20
1.6612788188976377
11
0.738335748031496
21
1.6614612204724408
0
LINE
8
BLACK
6
CONTINUOUS
10
0.738335748031496
20
1.6614612204724408
11
0.7373545669291338
21
1.6620649999999999
0
LINE
8
BLACK
6
CONTINUOUS
10
0.7373545669291338
20
1.6620649999999999
11
0.7366790944881889
21
1.6629983464566929
0
LINE
8
BLACK
6
CONTINUOUS
10
0.7366790944881889
20
1.6629983464566929
11
0.7364122440944881
21
1.6641191338582677
0
LINE
8
BLACK
6
CONTINUOUS
10
0.7364122440944881
20
1.6641191338582677
11
0.7365946456692913
21
1.6652567322834646
0
LINE
8
BLACK
6
CONTINUOUS
10
0.7365946456692913
20
1.6652567322834646
11
0.7371984251968504
21
1.6662379133858267
0
LINE
8
BLACK
6
CONTINUOUS
10
0.7371984251968504
20
1.6662379133858267
11
0.7381317716535433
21
1.6669133858267715
0
LINE
8
BLACK
6
CONTINUOUS
10
0.7381317716535433
20
1.6669133858267715
11
0.7386790157480315
21
1.667101968503937
0
LINE
8
BLACK
6
CONTINUOUS
10
0.7386790157480315
20
1.667101968503937
11
0.7666654724409449
21
1.673765433070866
0
LINE
8
BLACK
6
CONTINUOUS
10
0.7666654724409449
20
1.673765433070866
11
0.7498507086614173
21
1.6782493307086614
0
LINE
8
BLACK
6
CONTINUOUS
10
0.7498507086614173
20
1.6782493307086614
11
0.7497157480314961
21
1.6782999606299212
0
LINE
8
BLACK
6
CONTINUOUS
10
0.7497157480314961
20
1.6782999606299212
11
0.7496590551181103
21
1.6783074803149607
0
LINE
8
BLACK
6
CONTINUOUS
10
0.7496590551181103
20
1.6783074803149607
11
0.7495916929133858
21
1.6783464960629921
0
LINE
8
BLACK
6
CONTINUOUS
10
0.7495916929133858
20
1.6783464960629921
11
0.7493087401574803
21
1.6784525984251968
0
LINE
8
BLACK
6
CONTINUOUS
10
0.7493087401574803
20
1.6784525984251968
11
0.7489992913385827
21
1.6786894488188977
0
LINE
8
BLACK
6
CONTINUOUS
10
0.7489992913385827
20
1.6786894488188977
11
0.7486620078740157
21
1.6788847244094487
0
LINE
8
BLACK
6
CONTINUOUS
10
0.7486620078740157
20
1.6788847244094487
11
0.7485457086614173
21
1.6790366141732282
0
LINE
8
BLACK
6
CONTINUOUS
10
0.7485457086614173
20
1.6790366141732282
11
0.7483938582677165
21
1.679152874015748
0
LINE
8
BLACK
6
CONTINUOUS
10
0.7483938582677165
20
1.679152874015748
11
0.7481985433070866
21
1.6794901968503937
0
LINE
8
BLACK
6
CONTINUOUS
10
0.7481985433070866
20
1.6794901968503937
11
0.7479617322834645
21
1.6797996062992127
0
LINE
8
BLACK
6
CONTINUOUS
10
0.7479617322834645
20
1.6797996062992127
11
0.7479124409448819
21
1.67998437007874
0
LINE
8
BLACK
6
CONTINUOUS
10
0.7479124409448819
20
1.67998437007874
11
0.7478166141732283
21
1.6801499212598425
0
LINE
8
BLACK
6
CONTINUOUS
10
0.7478166141732283
20
1.6801499212598425
11
0.7477652362204724
21
1.6805363779527558
0
LINE
8
BLACK
6
CONTINUOUS
10
0.7477652362204724
20
1.6805363779527558
11
0.7476648818897638
21
1.6809128346456692
0
LINE
8
BLACK
6
CONTINUOUS
10
0.7476648818897638
20
1.6809128346456692
11
0.7476900393700787
21
1.6811024015748031
0
LINE
8
BLACK
6
CONTINUOUS
10
0.7476900393700787
20
1.6811024015748031
11
0.7476648818897638
21
1.6812919685039369
0
LINE
8
BLACK
6
CONTINUOUS
10
0.7476648818897638
20
1.6812919685039369
11
0.7477652362204724
21
1.6816684645669291
0
LINE
8
BLACK
6
CONTINUOUS
10
0.7477652362204724
20
1.6816684645669291
11
0.7478166141732283
21
1.6820548818897638
0
LINE
8
BLACK
6
CONTINUOUS
10
0.7478166141732283
20
1.6820548818897638
11
0.7479124409448819
21
1.6822204724409449
0
LINE
8
BLACK
6
CONTINUOUS
10
0.7479124409448819
20
1.6822204724409449
11
0.7479617322834645
21
1.6824051968503937
0
LINE
8
BLACK
6
CONTINUOUS
10
0.7479617322834645
20
1.6824051968503937
11
0.7481985433070866
21
1.6827146456692914
0
LINE
8
BLACK
6
CONTINUOUS
10
0.7481985433070866
20
1.6827146456692914
11
0.7483938582677165
21
1.6830519291338581
0
LINE
8
BLACK
6
CONTINUOUS
10
0.7483938582677165
20
1.6830519291338581
11
0.7485457086614173
21
1.6831682283464566
0
LINE
8
BLACK
6
CONTINUOUS
10
0.7485457086614173
20
1.6831682283464566
11
0.7486620078740157
21
1.6833200787401574
0
LINE
8
BLACK
6
CONTINUOUS
10
0.7486620078740157
20
1.6833200787401574
11
0.7489992913385827
21
1.6835153937007874
0
LINE
8
BLACK
6
CONTINUOUS
10
0.7489992913385827
20
1.6835153937007874
11
0.7493087401574803
21
1.6837522047244093
0
LINE
8
BLACK
6
CONTINUOUS
10
0.7493087401574803
20
1.6837522047244093
11
0.7495916929133858
21
1.683858346456693
0
LINE
8
BLACK
6
CONTINUOUS
10
0.7495916929133858
20
1.683858346456693
11
0.7496590551181103
21
1.6838973228346457
0
LINE
8
BLACK
6
CONTINUOUS
10
0.7496590551181103
20
1.6838973228346457
11
0.7497157480314961
21
1.6839048818897637
0
LINE
8
BLACK
6
CONTINUOUS
10
0.7497157480314961
20
1.6839048818897637
11
0.7498507086614173
21
1.6839554724409449
0
LINE
8
BLACK
6
CONTINUOUS
10
0.7498507086614173
20
1.6839554724409449
11
0.7666654724409449
21
1.6884394094488189
0
LINE
8
BLACK
6
CONTINUOUS
10
0.7666654724409449
20
1.6884394094488189
11
0.7386790157480315
21
1.6951028346456694
0
LINE
8
BLACK
6
CONTINUOUS
10
0.7386790157480315
20
1.6951028346456694
11
0.7381317716535433
21
1.6952914173228346
0
LINE
8
BLACK
6
CONTINUOUS
10
0.7381317716535433
20
1.6952914173228346
11
0.7371984251968504
21
1.6959668897637794
0
LINE
8
BLACK
6
CONTINUOUS
10
0.7371984251968504
20
1.6959668897637794
11
0.7365946456692913
21
1.6969480708661417
0
LINE
8
BLACK
6
CONTINUOUS
10
0.7365946456692913
20
1.6969480708661417
11
0.7364122440944881
21
1.6980856692913386
0
LINE
8
BLACK
6
CONTINUOUS
10
0.7364122440944881
20
1.6980856692913386
11
0.7366790944881889
21
1.6992064566929133
0
LINE
8
BLACK
6
CONTINUOUS
10
0.7366790944881889
20
1.6992064566929133
11
0.7373545669291338
21
1.7001398031496062
0
LINE
8
BLACK
6
CONTINUOUS
10
0.7373545669291338
20
1.7001398031496062
11
0.738335748031496
21
1.7007435826771653
0
LINE
8
BLACK
6
CONTINUOUS
10
0.738335748031496
20
1.7007435826771653
11
0.7394733464566929
21
1.7009259842519684
0
LINE
8
BLACK
6
CONTINUOUS
10
0.7394733464566929
20
1.7009259842519684
11
0.7400468897637795
21
1.700847716535433
0
LINE
8
BLACK
6
CONTINUOUS
10
0.7695072834645669
20
1.7398741338582677
11
0.7779742519685039
21
1.7378424803149606
0
LINE
8
BLACK
6
CONTINUOUS
10
0.7779742519685039
20
1.7378424803149606
11
0.7860194094488189
21
1.7345119291338582
0
LINE
8
BLACK
6
CONTINUOUS
10
0.7860194094488189
20
1.7345119291338582
11
0.7934448818897638
21
1.7299644488188977
0
LINE
8
BLACK
6
CONTINUOUS
10
0.7934448818897638
20
1.7299644488188977
11
0.8000679921259842
21
1.7243118503937007
0
LINE
8
BLACK
6
CONTINUOUS
10
0.8000679921259842
20
1.7243118503937007
11
0.8057258267716535
21
1.7176932677165353
0
LINE
8
BLACK
6
CONTINUOUS
10
0.8057258267716535
20
1.7176932677165353
11
0.8058115748031496
21
1.7174297244094487
0
LINE
8
BLACK
6
CONTINUOUS
10
0.8058115748031496
20
1.7174297244094487
11
0.8059525196850393
21
1.7172887795275591
0
LINE
8
BLACK
6
CONTINUOUS
10
0.8059525196850393
20
1.7172887795275591
11
0.8061019291338583
21
1.7165375196850394
0
LINE
8
BLACK
6
CONTINUOUS
10
0.8061019291338583
20
1.7165375196850394
11
0.8061023228346457
21
1.7165363779527558
0
LINE
8
BLACK
6
CONTINUOUS
10
0.8061023228346457
20
1.7165363779527558
11
0.8061022047244094
21
1.7165361417322835
0
LINE
8
BLACK
6
CONTINUOUS
10
0.8061022047244094
20
1.7165361417322835
11
0.8061023622047244
21
1.716535472440945
0
LINE
8
BLACK
6
CONTINUOUS
10
0.8061023622047244
20
1.716535472440945
11
0.8061023622047244
21
1.6496062992125984
0
LINE
8
BLACK
6
CONTINUOUS
10
0.8061023622047244
20
1.6496062992125984
11
0.8059525196850393
21
1.6488529921259842
0
LINE
8
BLACK
6
CONTINUOUS
10
0.8059525196850393
20
1.6488529921259842
11
0.8058451968503937
21
1.6487457086614172
0
LINE
8
BLACK
6
CONTINUOUS
10
0.8058451968503937
20
1.6487457086614172
11
0.8057945669291339
21
1.6485494488188976
0
LINE
8
BLACK
6
CONTINUOUS
10
0.8057945669291339
20
1.6485494488188976
11
0.8057945669291339
21
1.6485494881889764
0
LINE
8
BLACK
6
CONTINUOUS
10
0.8057945669291339
20
1.6485494881889764
11
0.8008563385826771
21
1.6419715354330708
0
LINE
8
BLACK
6
CONTINUOUS
10
0.8008563385826771
20
1.6419715354330708
11
0.794964842519685
21
1.6362317322834645
0
LINE
8
BLACK
6
CONTINUOUS
10
0.794964842519685
20
1.6362317322834645
11
0.7882603543307086
21
1.6314666929133859
0
LINE
8
BLACK
6
CONTINUOUS
10
0.7882603543307086
20
1.6314666929133859
11
0.7809025984251968
21
1.6277899606299213
0
LINE
8
BLACK
6
CONTINUOUS
10
0.7809025984251968
20
1.6277899606299213
11
0.7795126377952756
21
1.6273463385826772
0
LINE
8
BLACK
6
CONTINUOUS
10
0.7795126377952756
20
1.6273463385826772
11
0.7794235039370079
21
1.627146653543307
0
LINE
8
BLACK
6
CONTINUOUS
10
0.7794235039370079
20
1.627146653543307
11
0.7786686220472441
21
1.6262762992125983
0
LINE
8
BLACK
6
CONTINUOUS
10
0.7786686220472441
20
1.6262762992125983
11
0.7776381889763779
21
1.6257611023622047
0
LINE
8
BLACK
6
CONTINUOUS
10
0.7776381889763779
20
1.6257611023622047
11
0.7764889763779528
21
1.6256794094488189
0
LINE
8
BLACK
6
CONTINUOUS
10
0.7764889763779528
20
1.6256794094488189
11
0.7754132677165354
21
1.6260379921259842
0
LINE
8
BLACK
6
CONTINUOUS
10
0.7754132677165354
20
1.6260379921259842
11
0.7730667322834646
21
1.6252890157480315
0
LINE
8
BLACK
6
CONTINUOUS
10
0.7730667322834646
20
1.6252890157480315
11
0.7649394094488189
21
1.6240235039370079
0
LINE
8
BLACK
6
CONTINUOUS
10
0.7649394094488189
20
1.6240235039370079
11
0.7567140944881889
21
1.6240235039370079
0
LINE
8
BLACK
6
CONTINUOUS
10
0.7567140944881889
20
1.6240235039370079
11
0.7485867716535433
21
1.6252890551181103
0
LINE
8
BLACK
6
CONTINUOUS
10
0.7485867716535433
20
1.6252890551181103
11
0.7474363779527559
21
1.625656220472441
0
LINE
8
BLACK
6
CONTINUOUS
10
0.7474363779527559
20
1.625656220472441
11
0.7468620078740157
21
1.625656220472441
0
LINE
8
BLACK
6
CONTINUOUS
10
0.7468620078740157
20
1.625656220472441
11
0.7462859448818897
21
1.6257129527559055
0
LINE
8
BLACK
6
CONTINUOUS
10
0.7462859448818897
20
1.6257129527559055
11
0.7461879527559055
21
1.6257535433070867
0
LINE
8
BLACK
6
CONTINUOUS
10
0.7461879527559055
20
1.6257535433070867
11
0.7460820866141732
21
1.625761062992126
0
LINE
8
BLACK
6
CONTINUOUS
10
0.7460820866141732
20
1.625761062992126
11
0.7455414960629921
21
1.6259679527559054
0
LINE
8
BLACK
6
CONTINUOUS
10
0.7455414960629921
20
1.6259679527559054
11
0.743921062992126
21
1.6267781889763779
0
LINE
8
BLACK
6
CONTINUOUS
10
0.743921062992126
20
1.6267781889763779
11
0.740750905511811
21
1.6277899606299213
0
LINE
8
BLACK
6
CONTINUOUS
10
0.740750905511811
20
1.6277899606299213
11
0.7333931496062992
21
1.6314666929133859
0
LINE
8
BLACK
6
CONTINUOUS
10
0.7333931496062992
20
1.6314666929133859
11
0.7266887007874016
21
1.6362317322834645
0
LINE
8
BLACK
6
CONTINUOUS
10
0.7266887007874016
20
1.6362317322834645
11
0.7207972047244094
21
1.6419715748031496
0
LINE
8
BLACK
6
CONTINUOUS
10
0.7207972047244094
20
1.6419715748031496
11
0.7158589763779527
21
1.6485494881889764
0
LINE
8
BLACK
6
CONTINUOUS
10
0.7158589763779527
20
1.6485494881889764
11
0.7158083464566929
21
1.6487456692913385
0
LINE
8
BLACK
6
CONTINUOUS
10
0.7158083464566929
20
1.6487456692913385
11
0.7157010236220472
21
1.6488529921259842
0
LINE
8
BLACK
6
CONTINUOUS
10
0.7157010236220472
20
1.6488529921259842
11
0.7155511811023622
21
1.6496062992125984
0
LINE
8
BLACK
6
CONTINUOUS
10
0.7155511811023622
20
1.6496062992125984
11
0.7155511811023622
21
1.716535472440945
0
LINE
8
BLACK
6
CONTINUOUS
10
0.7155511811023622
20
1.716535472440945
11
0.7155512992125984
21
1.7165361417322835
0
LINE
8
BLACK
6
CONTINUOUS
10
0.7155512992125984
20
1.7165361417322835
11
0.7155512204724409
21
1.7165363779527558
0
LINE
8
BLACK
6
CONTINUOUS
10
0.7155512204724409
20
1.7165363779527558
11
0.7155515748031496
21
1.7165375196850394
0
LINE
8
BLACK
6
CONTINUOUS
10
0.7155515748031496
20
1.7165375196850394
11
0.7157010236220472
21
1.7172887795275591
0
LINE
8
BLACK
6
CONTINUOUS
10
0.7157010236220472
20
1.7172887795275591
11
0.7158419291338582
21
1.7174297244094487
0
LINE
8
BLACK
6
CONTINUOUS
10
0.7158419291338582
20
1.7174297244094487
11
0.7159277165354331
21
1.7176932677165353
0
LINE
8
BLACK
6
CONTINUOUS
10
0.7159277165354331
20
1.7176932677165353
11
0.7215855511811023
21
1.7243118503937007
0
LINE
8
BLACK
6
CONTINUOUS
10
0.7215855511811023
20
1.7243118503937007
11
0.7282086614173228
21
1.7299644488188977
0
LINE
8
BLACK
6
CONTINUOUS
10
0.7282086614173228
20
1.7299644488188977
11
0.7356341338582677
21
1.7345119291338582
0
LINE
8
BLACK
6
CONTINUOUS
10
0.7356341338582677
20
1.7345119291338582
11
0.7436792913385827
21
1.7378424803149606
0
LINE
8
BLACK
6
CONTINUOUS
10
0.7436792913385827
20
1.7378424803149606
11
0.7521462598425197
21
1.7398741338582677
0
LINE
8
BLACK
6
CONTINUOUS
10
0.7521462598425197
20
1.7398741338582677
11
0.7608267716535433
21
1.740556968503937
0
LINE
8
BLACK
6
CONTINUOUS
10
0.7608267716535433
20
1.740556968503937
11
0.7695072834645669
21
1.7398741338582677
0
LINE
8
BLACK
6
CONTINUOUS
10
0.7654839763779527
20
1.6468046456692913
11
0.7642868503937008
21
1.6456075196850393
0
LINE
8
BLACK
6
CONTINUOUS
10
0.7642868503937008
20
1.6456075196850393
11
0.7627713385826771
21
1.6425765354330708
0
LINE
8
BLACK
6
CONTINUOUS
10
0.7627713385826771
20
1.6425765354330708
11
0.7609751968503937
21
1.6353918897637796
0
LINE
8
BLACK
6
CONTINUOUS
10
0.7609751968503937
20
1.6353918897637796
11
0.76096
21
1.6353494094488188
0
LINE
8
BLACK
6
CONTINUOUS
10
0.76096
20
1.6353494094488188
11
0.7609585039370078
21
1.6353281102362205
0
LINE
8
BLACK
6
CONTINUOUS
10
0.7609585039370078
20
1.6353281102362205
11
0.7608667322834646
21
1.6350883858267715
0
LINE
8
BLACK
6
CONTINUOUS
10
0.7608667322834646
20
1.6350883858267715
11
0.7607804330708661
21
1.6348467716535433
0
LINE
8
BLACK
6
CONTINUOUS
10
0.7607804330708661
20
1.6348467716535433
11
0.7607677165354331
21
1.6348296456692912
0
LINE
8
BLACK
6
CONTINUOUS
10
0.7607677165354331
20
1.6348296456692912
11
0.7607516141732283
21
1.6347875196850394
0
LINE
8
BLACK
6
CONTINUOUS
10
0.7607516141732283
20
1.6347875196850394
11
0.7588768503937008
21
1.6310379921259841
0
LINE
8
BLACK
6
CONTINUOUS
10
0.7588768503937008
20
1.6310379921259841
11
0.758720748031496
21
1.63079
0
LINE
8
BLACK
6
CONTINUOUS
10
0.758720748031496
20
1.63079
11
0.7586909448818897
21
1.630718031496063
0
LINE
8
BLACK
6
CONTINUOUS
10
0.7586909448818897
20
1.630718031496063
11
0.7586244488188976
21
1.6306370866141733
0
LINE
8
BLACK
6
CONTINUOUS
10
0.7586244488188976
20
1.6306370866141733
11
0.7585685039370078
21
1.6305481102362205
0
LINE
8
BLACK
6
CONTINUOUS
10
0.7585685039370078
20
1.6305481102362205
11
0.7585094881889763
21
1.630496968503937
0
LINE
8
BLACK
6
CONTINUOUS
10
0.7585094881889763
20
1.630496968503937
11
0.7583237401574803
21
1.6302705905511812
0
LINE
8
BLACK
6
CONTINUOUS
10
0.7583237401574803
20
1.6302705905511812
11
0.7564489763779527
21
1.6283958267716534
0
LINE
8
BLACK
6
CONTINUOUS
10
0.7564489763779527
20
1.6283958267716534
11
0.7562225984251968
21
1.6282100787401574
0
LINE
8
BLACK
6
CONTINUOUS
10
0.7562225984251968
20
1.6282100787401574
11
0.7561714566929134
21
1.6281510629921259
0
LINE
8
BLACK
6
CONTINUOUS
10
0.7561714566929134
20
1.6281510629921259
11
0.7560824803149606
21
1.6280951181102361
0
LINE
8
BLACK
6
CONTINUOUS
10
0.7560824803149606
20
1.6280951181102361
11
0.7560015354330708
21
1.628028622047244
0
LINE
8
BLACK
6
CONTINUOUS
10
0.7560015354330708
20
1.628028622047244
11
0.7559295669291338
21
1.6279988188976378
0
LINE
8
BLACK
6
CONTINUOUS
10
0.7559295669291338
20
1.6279988188976378
11
0.7558479921259842
21
1.6279475196850393
0
LINE
8
BLACK
6
CONTINUOUS
10
0.7558479921259842
20
1.6279475196850393
11
0.7566870472440945
21
1.627805748031496
0
LINE
8
BLACK
6
CONTINUOUS
10
0.7566870472440945
20
1.627805748031496
11
0.7649664566929134
21
1.627805748031496
0
LINE
8
BLACK
6
CONTINUOUS
10
0.7649664566929134
20
1.627805748031496
11
0.7731301968503936
21
1.6291847637795276
0
LINE
8
BLACK
6
CONTINUOUS
10
0.7731301968503936
20
1.6291847637795276
11
0.7740482283464567
21
1.6295040551181101
0
LINE
8
BLACK
6
CONTINUOUS
10
0.7740482283464567
20
1.6295040551181101
11
0.7740570472440945
21
1.629542716535433
0
LINE
8
BLACK
6
CONTINUOUS
10
0.7740570472440945
20
1.629542716535433
11
0.7757802755905512
21
1.6347124015748031
0
LINE
8
BLACK
6
CONTINUOUS
10
0.7757802755905512
20
1.6347124015748031
11
0.7757802755905512
21
1.6429100393700786
0
LINE
8
BLACK
6
CONTINUOUS
10
0.7757802755905512
20
1.6429100393700786
11
0.7744315354330709
21
1.6456075196850393
0
LINE
8
BLACK
6
CONTINUOUS
10
0.7744315354330709
20
1.6456075196850393
11
0.7732343700787402
21
1.6468046456692913
0
LINE
8
BLACK
6
CONTINUOUS
10
0.7732343700787402
20
1.6468046456692913
11
0.7705368897637795
21
1.6481533858267716
0
LINE
8
BLACK
6
CONTINUOUS
10
0.7705368897637795
20
1.6481533858267716
11
0.7681814566929134
21
1.6481533858267716
0
LINE
8
BLACK
6
CONTINUOUS
10
0.7681814566929134
20
1.6481533858267716
11
0.7654839763779527
21
1.6468046456692913
0
LINE
8
BLACK
6
CONTINUOUS
10
0.7487542913385826
20
1.7353512992125983
11
0.7410362204724409
21
1.7328449212598425
0
LINE
8
BLACK
6
CONTINUOUS
10
0.7410362204724409
20
1.7328449212598425
11
0.7338049606299213
21
1.7291625590551181
0
LINE
8
BLACK
6
CONTINUOUS
10
0.7338049606299213
20
1.7291625590551181
11
0.7272384251968503
21
1.7243948818897636
0
LINE
8
BLACK
6
CONTINUOUS
10
0.7272384251968503
20
1.7243948818897636
11
0.7214980708661417
21
1.718659094488189
0
LINE
8
BLACK
6
CONTINUOUS
10
0.7214980708661417
20
1.718659094488189
11
0.7194881889763779
21
1.7158952755905512
0
LINE
8
BLACK
6
CONTINUOUS
10
0.7194881889763779
20
1.7158952755905512
11
0.7194881889763779
21
1.6501807086614173
0
LINE
8
BLACK
6
CONTINUOUS
10
0.7194881889763779
20
1.6501807086614173
11
0.7214064566929134
21
1.6471728740157481
0
LINE
8
BLACK
6
CONTINUOUS
10
0.7214064566929134
20
1.6471728740157481
11
0.7269527952755905
21
1.6410258267716535
0
LINE
8
BLACK
6
CONTINUOUS
10
0.7269527952755905
20
1.6410258267716535
11
0.7334455905511811
21
1.6358885039370079
0
LINE
8
BLACK
6
CONTINUOUS
10
0.7334455905511811
20
1.6358885039370079
11
0.7372026377952756
21
1.6338261023622047
0
LINE
8
BLACK
6
CONTINUOUS
10
0.7372026377952756
20
1.6338261023622047
11
0.7367219291338583
21
1.6347875196850394
0
LINE
8
BLACK
6
CONTINUOUS
10
0.7367219291338583
20
1.6347875196850394
11
0.7365150393700787
21
1.6353281496062992
0
LINE
8
BLACK
6
CONTINUOUS
10
0.7365150393700787
20
1.6353281496062992
11
0.7365075196850394
21
1.6354339763779526
0
LINE
8
BLACK
6
CONTINUOUS
10
0.7365075196850394
20
1.6354339763779526
11
0.7364669291338583
21
1.6355319685039369
0
LINE
8
BLACK
6
CONTINUOUS
10
0.7364669291338583
20
1.6355319685039369
11
0.7364101968503937
21
1.636108031496063
0
LINE
8
BLACK
6
CONTINUOUS
10
0.7364101968503937
20
1.636108031496063
11
0.7364101968503937
21
1.6454818503937008
0
LINE
8
BLACK
6
CONTINUOUS
10
0.7364101968503937
20
1.6454818503937008
11
0.7364388976377952
21
1.6457734251968503
0
LINE
8
BLACK
6
CONTINUOUS
10
0.7364388976377952
20
1.6457734251968503
11
0.7364333858267716
21
1.6458511417322834
0
LINE
8
BLACK
6
CONTINUOUS
10
0.7364333858267716
20
1.6458511417322834
11
0.7364566141732283
21
1.6459534251968504
0
LINE
8
BLACK
6
CONTINUOUS
10
0.7364566141732283
20
1.6459534251968504
11
0.7364669291338583
21
1.6460579133858266
0
LINE
8
BLACK
6
CONTINUOUS
10
0.7364669291338583
20
1.6460579133858266
11
0.7364967716535433
21
1.6461300393700786
0
LINE
8
BLACK
6
CONTINUOUS
10
0.7364967716535433
20
1.6461300393700786
11
0.7365617322834646
21
1.646415590551181
0
LINE
8
BLACK
6
CONTINUOUS
10
0.7365617322834646
20
1.646415590551181
11
0.7384364960629921
21
1.6520398818897637
0
LINE
8
BLACK
6
CONTINUOUS
10
0.7384364960629921
20
1.6520398818897637
11
0.7386724803149606
21
1.6525684251968504
0
LINE
8
BLACK
6
CONTINUOUS
10
0.7386724803149606
20
1.6525684251968504
11
0.7394273622047244
21
1.6534387795275589
0
LINE
8
BLACK
6
CONTINUOUS
10
0.7394273622047244
20
1.6534387795275589
11
0.7404577952755905
21
1.6539540157480315
0
LINE
8
BLACK
6
CONTINUOUS
10
0.7404577952755905
20
1.6539540157480315
11
0.7416070078740157
21
1.6540357086614172
0
LINE
8
BLACK
6
CONTINUOUS
10
0.7416070078740157
20
1.6540357086614172
11
0.7427
21
1.6536713779527559
0
LINE
8
BLACK
6
CONTINUOUS
10
0.7427
20
1.6536713779527559
11
0.7435703937007874
21
1.6529164960629921
0
LINE
8
BLACK
6
CONTINUOUS
10
0.7435703937007874
20
1.6529164960629921
11
0.7440855905511811
21
1.6518860236220472
0
LINE
8
BLACK
6
CONTINUOUS
10
0.7440855905511811
20
1.6518860236220472
11
0.744167283464567
21
1.650736811023622
0
LINE
8
BLACK
6
CONTINUOUS
10
0.744167283464567
20
1.650736811023622
11
0.744038937007874
21
1.6501723622047244
0
LINE
8
BLACK
6
CONTINUOUS
10
0.744038937007874
20
1.6501723622047244
11
0.7423157086614173
21
1.6450027165354331
0
LINE
8
BLACK
6
CONTINUOUS
10
0.7423157086614173
20
1.6450027165354331
11
0.7423157086614173
21
1.6368050787401573
0
LINE
8
BLACK
6
CONTINUOUS
10
0.7423157086614173
20
1.6368050787401573
11
0.7436644488188976
21
1.6341075984251967
0
LINE
8
BLACK
6
CONTINUOUS
10
0.7436644488188976
20
1.6341075984251967
11
0.7448615748031496
21
1.6329104724409449
0
LINE
8
BLACK
6
CONTINUOUS
10
0.7448615748031496
20
1.6329104724409449
11
0.7475590551181103
21
1.6315617322834646
0
LINE
8
BLACK
6
CONTINUOUS
10
0.7475590551181103
20
1.6315617322834646
11
0.7499144881889763
21
1.6315617322834646
0
LINE
8
BLACK
6
CONTINUOUS
10
0.7499144881889763
20
1.6315617322834646
11
0.752611968503937
21
1.6329104724409449
0
LINE
8
BLACK
6
CONTINUOUS
10
0.752611968503937
20
1.6329104724409449
11
0.753809094488189
21
1.6341075984251967
0
LINE
8
BLACK
6
CONTINUOUS
10
0.753809094488189
20
1.6341075984251967
11
0.7553245669291339
21
1.6371385826771654
0
LINE
8
BLACK
6
CONTINUOUS
10
0.7553245669291339
20
1.6371385826771654
11
0.7571207480314961
21
1.6443232283464566
0
LINE
8
BLACK
6
CONTINUOUS
10
0.7571207480314961
20
1.6443232283464566
11
0.757135905511811
21
1.6443657480314959
0
LINE
8
BLACK
6
CONTINUOUS
10
0.757135905511811
20
1.6443657480314959
11
0.7571374409448819
21
1.644386968503937
0
LINE
8
BLACK
6
CONTINUOUS
10
0.7571374409448819
20
1.644386968503937
11
0.7572290551181102
21
1.6446264173228347
0
LINE
8
BLACK
6
CONTINUOUS
10
0.7572290551181102
20
1.6446264173228347
11
0.7573155118110236
21
1.6448683464566929
0
LINE
8
BLACK
6
CONTINUOUS
10
0.7573155118110236
20
1.6448683464566929
11
0.7573281889763779
21
1.6448855118110235
0
LINE
8
BLACK
6
CONTINUOUS
10
0.7573281889763779
20
1.6448855118110235
11
0.7573443307086614
21
1.6449275984251968
0
LINE
8
BLACK
6
CONTINUOUS
10
0.7573443307086614
20
1.6449275984251968
11
0.7592190944881889
21
1.6486771259842519
0
LINE
8
BLACK
6
CONTINUOUS
10
0.7592190944881889
20
1.6486771259842519
11
0.7593751574803149
21
1.648925157480315
0
LINE
8
BLACK
6
CONTINUOUS
10
0.7593751574803149
20
1.648925157480315
11
0.759405
21
1.6489970866141732
0
LINE
8
BLACK
6
CONTINUOUS
10
0.759405
20
1.6489970866141732
11
0.7594714566929134
21
1.6490780708661417
0
LINE
8
BLACK
6
CONTINUOUS
10
0.7594714566929134
20
1.6490780708661417
11
0.7595274409448819
21
1.6491670078740157
0
LINE
8
BLACK
6
CONTINUOUS
10
0.7595274409448819
20
1.6491670078740157
11
0.7595864173228346
21
1.649218188976378
0
LINE
8
BLACK
6
CONTINUOUS
10
0.7595864173228346
20
1.649218188976378
11
0.7597722047244094
21
1.649444527559055
0
LINE
8
BLACK
6
CONTINUOUS
10
0.7597722047244094
20
1.649444527559055
11
0.761646968503937
21
1.6513192913385826
0
LINE
8
BLACK
6
CONTINUOUS
10
0.761646968503937
20
1.6513192913385826
11
0.7618733070866142
21
1.6515050787401575
0
LINE
8
BLACK
6
CONTINUOUS
10
0.7618733070866142
20
1.6515050787401575
11
0.7619244881889764
21
1.6515640551181101
0
LINE
8
BLACK
6
CONTINUOUS
10
0.7619244881889764
20
1.6515640551181101
11
0.7620134251968503
21
1.6516200393700786
0
LINE
8
BLACK
6
CONTINUOUS
10
0.7620134251968503
20
1.6516200393700786
11
0.7620944094488189
21
1.651686496062992
0
LINE
8
BLACK
6
CONTINUOUS
10
0.7620944094488189
20
1.651686496062992
11
0.7621663385826771
21
1.6517163385826772
0
LINE
8
BLACK
6
CONTINUOUS
10
0.7621663385826771
20
1.6517163385826772
11
0.7624143700787401
21
1.6518724015748032
0
LINE
8
BLACK
6
CONTINUOUS
10
0.7624143700787401
20
1.6518724015748032
11
0.7661638976377952
21
1.6537471653543308
0
LINE
8
BLACK
6
CONTINUOUS
10
0.7661638976377952
20
1.6537471653543308
11
0.7667044881889764
21
1.6539540551181102
0
LINE
8
BLACK
6
CONTINUOUS
10
0.7667044881889764
20
1.6539540551181102
11
0.7668103543307087
21
1.6539616141732283
0
LINE
8
BLACK
6
CONTINUOUS
10
0.7668103543307087
20
1.6539616141732283
11
0.7669083464566929
21
1.6540021653543306
0
LINE
8
BLACK
6
CONTINUOUS
10
0.7669083464566929
20
1.6540021653543306
11
0.7674844094488189
21
1.6540588976377952
0
LINE
8
BLACK
6
CONTINUOUS
10
0.7674844094488189
20
1.6540588976377952
11
0.771233937007874
21
1.6540588976377952
0
LINE
8
BLACK
6
CONTINUOUS
10
0.771233937007874
20
1.6540588976377952
11
0.77181
21
1.6540021653543306
0
LINE
8
BLACK
6
CONTINUOUS
10
0.77181
20
1.6540021653543306
11
0.7719079921259843
21
1.6539615748031495
0
LINE
8
BLACK
6
CONTINUOUS
10
0.7719079921259843
20
1.6539615748031495
11
0.7720138188976378
21
1.6539540551181102
0
LINE
8
BLACK
6
CONTINUOUS
10
0.7720138188976378
20
1.6539540551181102
11
0.7725544488188976
21
1.6537471653543308
0
LINE
8
BLACK
6
CONTINUOUS
10
0.7725544488188976
20
1.6537471653543308
11
0.7763039763779528
21
1.6518724015748032
0
LINE
8
BLACK
6
CONTINUOUS
10
0.7763039763779528
20
1.6518724015748032
11
0.7765518503937008
21
1.6517163779527559
0
LINE
8
BLACK
6
CONTINUOUS
10
0.7765518503937008
20
1.6517163779527559
11
0.7766238976377953
21
1.6516865354330708
0
LINE
8
BLACK
6
CONTINUOUS
10
0.7766238976377953
20
1.6516865354330708
11
0.7767049212598425
21
1.6516200393700786
0
LINE
8
BLACK
6
CONTINUOUS
10
0.7767049212598425
20
1.6516200393700786
11
0.7767938582677165
21
1.6515640551181101
0
LINE
8
BLACK
6
CONTINUOUS
10
0.7767938582677165
20
1.6515640551181101
11
0.776845
21
1.6515050787401575
0
LINE
8
BLACK
6
CONTINUOUS
10
0.776845
20
1.6515050787401575
11
0.7770713385826772
21
1.6513193307086613
0
LINE
8
BLACK
6
CONTINUOUS
10
0.7770713385826772
20
1.6513193307086613
11
0.7789461417322835
21
1.6494445669291338
0
LINE
8
BLACK
6
CONTINUOUS
10
0.7789461417322835
20
1.6494445669291338
11
0.7791318897637796
21
1.6492182283464567
0
LINE
8
BLACK
6
CONTINUOUS
10
0.7791318897637796
20
1.6492182283464567
11
0.7791909448818898
21
1.6491670078740157
0
LINE
8
BLACK
6
CONTINUOUS
10
0.7791909448818898
20
1.6491670078740157
11
0.7792469291338583
21
1.6490780708661417
0
LINE
8
BLACK
6
CONTINUOUS
10
0.7792469291338583
20
1.6490780708661417
11
0.7793133858267717
21
1.6489970866141732
0
LINE
8
BLACK
6
CONTINUOUS
10
0.7793133858267717
20
1.6489970866141732
11
0.7793431889763779
21
1.648925157480315
0
LINE
8
BLACK
6
CONTINUOUS
10
0.7793431889763779
20
1.648925157480315
11
0.7794992913385826
21
1.6486771259842519
0
LINE
8
BLACK
6
CONTINUOUS
10
0.7794992913385826
20
1.6486771259842519
11
0.7813740551181102
21
1.6449275984251968
0
LINE
8
BLACK
6
CONTINUOUS
10
0.7813740551181102
20
1.6449275984251968
11
0.7815809448818898
21
1.6443870078740157
0
LINE
8
BLACK
6
CONTINUOUS
10
0.7815809448818898
20
1.6443870078740157
11
0.7815884645669291
21
1.6442811417322833
0
LINE
8
BLACK
6
CONTINUOUS
10
0.7815884645669291
20
1.6442811417322833
11
0.7816290551181102
21
1.6441831496062991
0
LINE
8
BLACK
6
CONTINUOUS
10
0.7816290551181102
20
1.6441831496062991
11
0.7816857874015748
21
1.6436070866141732
0
LINE
8
BLACK
6
CONTINUOUS
10
0.7816857874015748
20
1.6436070866141732
11
0.7816857874015748
21
1.6342332677165354
0
LINE
8
BLACK
6
CONTINUOUS
10
0.7816857874015748
20
1.6342332677165354
11
0.7816570472440945
21
1.6339416929133859
0
LINE
8
BLACK
6
CONTINUOUS
10
0.7816570472440945
20
1.6339416929133859
11
0.7816625984251968
21
1.633863937007874
0
LINE
8
BLACK
6
CONTINUOUS
10
0.7816625984251968
20
1.633863937007874
11
0.7816393307086614
21
1.6337616929133858
0
LINE
8
BLACK
6
CONTINUOUS
10
0.7816393307086614
20
1.6337616929133858
11
0.7816290551181102
21
1.6336572047244093
0
LINE
8
BLACK
6
CONTINUOUS
10
0.7816290551181102
20
1.6336572047244093
11
0.7815991732283465
21
1.6335851574803149
0
LINE
8
BLACK
6
CONTINUOUS
10
0.7815991732283465
20
1.6335851574803149
11
0.7815342519685039
21
1.6332994881889764
0
LINE
8
BLACK
6
CONTINUOUS
10
0.7815342519685039
20
1.6332994881889764
11
0.7810958661417323
21
1.6319843700787402
0
LINE
8
BLACK
6
CONTINUOUS
10
0.7810958661417323
20
1.6319843700787402
11
0.7882079527559055
21
1.6358884645669292
0
LINE
8
BLACK
6
CONTINUOUS
10
0.7882079527559055
20
1.6358884645669292
11
0.7947007086614173
21
1.6410258267716535
0
LINE
8
BLACK
6
CONTINUOUS
10
0.7947007086614173
20
1.6410258267716535
11
0.8002470866141732
21
1.6471728740157481
0
LINE
8
BLACK
6
CONTINUOUS
10
0.8002470866141732
20
1.6471728740157481
11
0.8021653543307087
21
1.6501807480314961
0
LINE
8
BLACK
6
CONTINUOUS
10
0.8021653543307087
20
1.6501807480314961
11
0.8021653543307087
21
1.7158952755905512
0
LINE
8
BLACK
6
CONTINUOUS
10
0.8021653543307087
20
1.7158952755905512
11
0.8001554724409449
21
1.718659094488189
0
LINE
8
BLACK
6
CONTINUOUS
10
0.8001554724409449
20
1.718659094488189
11
0.7944151181102362
21
1.7243948818897636
0
LINE
8
BLACK
6
CONTINUOUS
10
0.7944151181102362
20
1.7243948818897636
11
0.7878485826771653
21
1.7291625590551181
0
LINE
8
BLACK
6
CONTINUOUS
10
0.7878485826771653
20
1.7291625590551181
11
0.7816857874015748
21
1.7323008661417323
0
LINE
8
BLACK
6
CONTINUOUS
10
0.7816857874015748
20
1.7323008661417323
11
0.7816857874015748
21
1.7110986614173227
0
LINE
8
BLACK
6
CONTINUOUS
10
0.7816857874015748
20
1.7110986614173227
11
0.7816290551181102
21
1.7105225984251968
0
LINE
8
BLACK
6
CONTINUOUS
10
0.7816290551181102
20
1.7105225984251968
11
0.7811881496062992
21
1.709458188976378
0
LINE
8
BLACK
6
CONTINUOUS
10
0.7811881496062992
20
1.709458188976378
11
0.7803735039370079
21
1.7086435433070866
0
LINE
8
BLACK
6
CONTINUOUS
10
0.7803735039370079
20
1.7086435433070866
11
0.779309094488189
21
1.7082026377952755
0
LINE
8
BLACK
6
CONTINUOUS
10
0.779309094488189
20
1.7082026377952755
11
0.778156968503937
21
1.7082026377952755
0
LINE
8
BLACK
6
CONTINUOUS
10
0.778156968503937
20
1.7082026377952755
11
0.7770925590551181
21
1.7086435433070866
0
LINE
8
BLACK
6
CONTINUOUS
10
0.7770925590551181
20
1.7086435433070866
11
0.7762779133858267
21
1.709458188976378
0
LINE
8
BLACK
6
CONTINUOUS
10
0.7762779133858267
20
1.709458188976378
11
0.7758370078740158
21
1.7105225984251968
0
LINE
8
BLACK
6
CONTINUOUS
10
0.7758370078740158
20
1.7105225984251968
11
0.7757802755905512
21
1.7110986614173227
0
LINE
8
BLACK
6
CONTINUOUS
10
0.7757802755905512
20
1.7110986614173227
11
0.7757802755905512
21
1.7193944881889764
0
LINE
8
BLACK
6
CONTINUOUS
10
0.7757802755905512
20
1.7193944881889764
11
0.7483662992125985
21
1.7193944881889764
0
LINE
8
BLACK
6
CONTINUOUS
10
0.7483662992125985
20
1.7193944881889764
11
0.7508246850393701
21
1.7169361023622047
0
LINE
8
BLACK
6
CONTINUOUS
10
0.7508246850393701
20
1.7169361023622047
11
0.7510105118110236
21
1.7167097244094487
0
LINE
8
BLACK
6
CONTINUOUS
10
0.7510105118110236
20
1.7167097244094487
11
0.7510694488188976
21
1.7166585826771654
0
LINE
8
BLACK
6
CONTINUOUS
10
0.7510694488188976
20
1.7166585826771654
11
0.75112531496063
21
1.7165698425196849
0
LINE
8
BLACK
6
CONTINUOUS
10
0.75112531496063
20
1.7165698425196849
11
0.7511919291338582
21
1.7164886614173227
0
LINE
8
BLACK
6
CONTINUOUS
10
0.7511919291338582
20
1.7164886614173227
11
0.7512217716535433
21
1.7164165354330709
0
LINE
8
BLACK
6
CONTINUOUS
10
0.7512217716535433
20
1.7164165354330709
11
0.7513777952755906
21
1.7161687007874016
0
LINE
8
BLACK
6
CONTINUOUS
10
0.7513777952755906
20
1.7161687007874016
11
0.7532525590551181
21
1.7124191732283465
0
LINE
8
BLACK
6
CONTINUOUS
10
0.7532525590551181
20
1.7124191732283465
11
0.7534594488188976
21
1.7118785826771654
0
LINE
8
BLACK
6
CONTINUOUS
10
0.7534594488188976
20
1.7118785826771654
11
0.7535411023622047
21
1.71072937007874
0
LINE
8
BLACK
6
CONTINUOUS
10
0.7535411023622047
20
1.71072937007874
11
0.7531767716535432
21
1.7096363779527559
0
LINE
8
BLACK
6
CONTINUOUS
10
0.7531767716535432
20
1.7096363779527559
11
0.7524219291338583
21
1.7087660236220472
0
LINE
8
BLACK
6
CONTINUOUS
10
0.7524219291338583
20
1.7087660236220472
11
0.7513914173228347
21
1.7082507480314961
0
LINE
8
BLACK
6
CONTINUOUS
10
0.7513914173228347
20
1.7082507480314961
11
0.7502422047244094
21
1.7081690944881889
0
LINE
8
BLACK
6
CONTINUOUS
10
0.7502422047244094
20
1.7081690944881889
11
0.7491492519685039
21
1.7085334251968503
0
LINE
8
BLACK
6
CONTINUOUS
10
0.7491492519685039
20
1.7085334251968503
11
0.7482788582677166
21
1.7092882677165353
0
LINE
8
BLACK
6
CONTINUOUS
10
0.7482788582677166
20
1.7092882677165353
11
0.7479705118110236
21
1.7097781496062991
0
LINE
8
BLACK
6
CONTINUOUS
10
0.7479705118110236
20
1.7097781496062991
11
0.7463100393700787
21
1.713099094488189
0
LINE
8
BLACK
6
CONTINUOUS
10
0.7463100393700787
20
1.713099094488189
11
0.743106062992126
21
1.7163030708661418
0
LINE
8
BLACK
6
CONTINUOUS
10
0.743106062992126
20
1.7163030708661418
11
0.7377250393700787
21
1.7198903937007874
0
LINE
8
BLACK
6
CONTINUOUS
10
0.7377250393700787
20
1.7198903937007874
11
0.7377233464566929
21
1.7198917716535433
0
LINE
8
BLACK
6
CONTINUOUS
10
0.7377233464566929
20
1.7198917716535433
11
0.7377224803149606
21
1.7198921259842519
0
LINE
8
BLACK
6
CONTINUOUS
10
0.7377224803149606
20
1.7198921259842519
11
0.7377204330708661
21
1.7198941732283464
0
LINE
8
BLACK
6
CONTINUOUS
10
0.7377204330708661
20
1.7198941732283464
11
0.7372772047244094
21
1.7202571653543306
0
LINE
8
BLACK
6
CONTINUOUS
10
0.7372772047244094
20
1.7202571653543306
11
0.7371145275590552
21
1.7205000787401574
0
LINE
8
BLACK
6
CONTINUOUS
10
0.7371145275590552
20
1.7205000787401574
11
0.7369078346456692
21
1.7207067716535434
0
LINE
8
BLACK
6
CONTINUOUS
10
0.7369078346456692
20
1.7207067716535434
11
0.7367970866141732
21
1.7209740944881888
0
LINE
8
BLACK
6
CONTINUOUS
10
0.7367970866141732
20
1.7209740944881888
11
0.7366361417322834
21
1.7212144488188976
0
LINE
8
BLACK
6
CONTINUOUS
10
0.7366361417322834
20
1.7212144488188976
11
0.736578779527559
21
1.7215011023622047
0
LINE
8
BLACK
6
CONTINUOUS
10
0.736578779527559
20
1.7215011023622047
11
0.7364669291338583
21
1.7217711811023622
0
LINE
8
BLACK
6
CONTINUOUS
10
0.7364669291338583
20
1.7217711811023622
11
0.7364669291338583
21
1.7220605118110235
0
LINE
8
BLACK
6
CONTINUOUS
10
0.7364669291338583
20
1.7220605118110235
11
0.7364101968503937
21
1.7223441338582677
0
LINE
8
BLACK
6
CONTINUOUS
10
0.7364101968503937
20
1.7223441338582677
11
0.7364669291338583
21
1.7226309448818897
0
LINE
8
BLACK
6
CONTINUOUS
10
0.7364669291338583
20
1.7226309448818897
11
0.7364669291338583
21
1.7229233070866141
0
LINE
8
BLACK
6
CONTINUOUS
10
0.7364669291338583
20
1.7229233070866141
11
0.7365776377952755
21
1.7231905905511811
0
LINE
8
BLACK
6
CONTINUOUS
10
0.7365776377952755
20
1.7231905905511811
11
0.736633779527559
21
1.72347437007874
0
LINE
8
BLACK
6
CONTINUOUS
10
0.736633779527559
20
1.72347437007874
11
0.7367959448818897
21
1.7237176377952756
0
LINE
8
BLACK
6
CONTINUOUS
10
0.7367959448818897
20
1.7237176377952756
11
0.7369078346456692
21
1.7239877165354329
0
LINE
8
BLACK
6
CONTINUOUS
10
0.7369078346456692
20
1.7239877165354329
11
0.7371123622047244
21
1.7241922834645669
0
LINE
8
BLACK
6
CONTINUOUS
10
0.7371123622047244
20
1.7241922834645669
11
0.737272874015748
21
1.7244329921259842
0
LINE
8
BLACK
6
CONTINUOUS
10
0.737272874015748
20
1.7244329921259842
11
0.737515748031496
21
1.7245956692913385
0
LINE
8
BLACK
6
CONTINUOUS
10
0.737515748031496
20
1.7245956692913385
11
0.7377224803149606
21
1.7248023622047244
0
LINE
8
BLACK
6
CONTINUOUS
10
0.7377224803149606
20
1.7248023622047244
11
0.7379897637795275
21
1.7249131102362205
0
LINE
8
BLACK
6
CONTINUOUS
10
0.7379897637795275
20
1.7249131102362205
11
0.738230157480315
21
1.7250740551181103
0
LINE
8
BLACK
6
CONTINUOUS
10
0.738230157480315
20
1.7250740551181103
11
0.7385167716535432
21
1.7251314173228347
0
LINE
8
BLACK
6
CONTINUOUS
10
0.7385167716535432
20
1.7251314173228347
11
0.7387868897637795
21
1.7252432677165355
0
LINE
8
BLACK
6
CONTINUOUS
10
0.7387868897637795
20
1.7252432677165355
11
0.7393568110236221
21
1.7252994094488188
0
LINE
8
BLACK
6
CONTINUOUS
10
0.7393568110236221
20
1.7252994094488188
11
0.739359842519685
21
1.7253000000000001
0
LINE
8
BLACK
6
CONTINUOUS
10
0.739359842519685
20
1.7253000000000001
11
0.7393608661417322
21
1.7252998031496063
0
LINE
8
BLACK
6
CONTINUOUS
10
0.7393608661417322
20
1.7252998031496063
11
0.7393629527559055
21
1.7253000000000001
0
LINE
8
BLACK
6
CONTINUOUS
10
0.7393629527559055
20
1.7253000000000001
11
0.7757802755905512
21
1.7253000000000001
0
LINE
8
BLACK
6
CONTINUOUS
10
0.7757802755905512
20
1.7253000000000001
11
0.7757802755905512
21
1.7335958267716536
0
LINE
8
BLACK
6
CONTINUOUS
10
0.7757802755905512
20
1.7335958267716536
11
0.7758370078740158
21
1.7341718897637795
0
LINE
8
BLACK
6
CONTINUOUS
10
0.7758370078740158
20
1.7341718897637795
11
0.7759192913385826
21
1.734370590551181
0
LINE
8
BLACK
6
CONTINUOUS
10
0.7759192913385826
20
1.734370590551181
11
0.772899251968504
21
1.7353512992125983
0
LINE
8
BLACK
6
CONTINUOUS
10
0.772899251968504
20
1.7353512992125983
11
0.7648842125984252
21
1.7366201181102361
0
LINE
8
BLACK
6
CONTINUOUS
10
0.7648842125984252
20
1.7366201181102361
11
0.7567693307086614
21
1.7366201181102361
0
LINE
8
BLACK
6
CONTINUOUS
10
0.7567693307086614
20
1.7366201181102361
11
0.7487542913385826
21
1.7353512992125983
0
LINE
8
BLACK
6
CONTINUOUS
10
0.8245722047244094
20
1.7655981889763779
11
0.825637559055118
21
1.7645328346456692
0
LINE
8
BLACK
6
CONTINUOUS
10
0.825637559055118
20
1.7645328346456692
11
0.8257874015748031
21
1.7637795275590551
0
LINE
8
BLACK
6
CONTINUOUS
10
0.8257874015748031
20
1.7637795275590551
11
0.8257874015748031
21
1.5984251968503937
0
LINE
8
BLACK
6
CONTINUOUS
10
0.8257874015748031
20
1.5984251968503937
11
0.825637559055118
21
1.5976718897637794
0
LINE
8
BLACK
6
CONTINUOUS
10
0.825637559055118
20
1.5976718897637794
11
0.8245722047244094
21
1.5966065354330707
0
LINE
8
BLACK
6
CONTINUOUS
10
0.8245722047244094
20
1.5966065354330707
11
0.8238188976377953
21
1.5964566929133859
0
LINE
8
BLACK
6
CONTINUOUS
10
0.8238188976377953
20
1.5964566929133859
11
0.6978346456692913
21
1.5964566929133859
0
LINE
8
BLACK
6
CONTINUOUS
10
0.6978346456692913
20
1.5964566929133859
11
0.6970813385826772
21
1.5966065354330707
0
LINE
8
BLACK
6
CONTINUOUS
10
0.6970813385826772
20
1.5966065354330707
11
0.6960159842519685
21
1.5976718897637794
0
LINE
8
BLACK
6
CONTINUOUS
10
0.6960159842519685
20
1.5976718897637794
11
0.6958661417322834
21
1.5984251968503937
0
LINE
8
BLACK
6
CONTINUOUS
10
0.6958661417322834
20
1.5984251968503937
11
0.6958661417322834
21
1.7637795275590551
0
LINE
8
BLACK
6
CONTINUOUS
10
0.6958661417322834
20
1.7637795275590551
11
0.6960159842519685
21
1.7645328346456692
0
LINE
8
BLACK
6
CONTINUOUS
10
0.6960159842519685
20
1.7645328346456692
11
0.6970813385826772
21
1.7655981889763779
0
LINE
8
BLACK
6
CONTINUOUS
10
0.6970813385826772
20
1.7655981889763779
11
0.6978346456692913
21
1.765748031496063
0
LINE
8
BLACK
6
CONTINUOUS
10
0.6978346456692913
20
1.765748031496063
11
0.8238188976377953
21
1.765748031496063
0
LINE
8
BLACK
6
CONTINUOUS
10
0.8238188976377953
20
1.765748031496063
11
0.8245722047244094
21
1.7655981889763779
0
LINE
8
BLACK
6
CONTINUOUS
10
0.6998031496062992
20
1.6003937007874016
11
0.7127673228346456
21
1.6003937007874016
0
LINE
8
BLACK
6
CONTINUOUS
10
0.7127673228346456
20
1.6003937007874016
11
0.6998031496062992
21
1.6133578740157479
0
LINE
8
BLACK
6
CONTINUOUS
10
0.6998031496062992
20
1.6133578740157479
11
0.6998031496062992
21
1.6003937007874016
0
LINE
8
BLACK
6
CONTINUOUS
10
0.7183350393700787
20
1.7618110236220472
11
0.6998031496062992
21
1.7432791338582676
0
LINE
8
BLACK
6
CONTINUOUS
10
0.6998031496062992
20
1.7432791338582676
11
0.6998031496062992
21
1.618925590551181
0
LINE
8
BLACK
6
CONTINUOUS
10
0.6998031496062992
20
1.618925590551181
11
0.7183350393700787
21
1.6003937007874016
0
LINE
8
BLACK
6
CONTINUOUS
10
0.7183350393700787
20
1.6003937007874016
11
0.8033185039370079
21
1.6003937007874016
0
LINE
8
BLACK
6
CONTINUOUS
10
0.8033185039370079
20
1.6003937007874016
11
0.8218503937007874
21
1.618925590551181
0
LINE
8
BLACK
6
CONTINUOUS
10
0.8218503937007874
20
1.618925590551181
11
0.8218503937007874
21
1.7432791338582676
0
LINE
8
BLACK
6
CONTINUOUS
10
0.8218503937007874
20
1.7432791338582676
11
0.8033185039370079
21
1.7618110236220472
0
LINE
8
BLACK
6
CONTINUOUS
10
0.8033185039370079
20
1.7618110236220472
11
0.7183350393700787
21
1.7618110236220472
0
LINE
8
BLACK
6
CONTINUOUS
10
0.808886220472441
20
1.6003937007874016
11
0.8218503937007874
21
1.6003937007874016
0
LINE
8
BLACK
6
CONTINUOUS
10
0.8218503937007874
20
1.6003937007874016
11
0.8218503937007874
21
1.6133578740157479
0
LINE
8
BLACK
6
CONTINUOUS
10
0.8218503937007874
20
1.6133578740157479
11
0.808886220472441
21
1.6003937007874016
0
LINE
8
BLACK
6
CONTINUOUS
10
0.6998031496062992
20
1.7618110236220472
11
0.6998031496062992
21
1.7488468503937007
0
LINE
8
BLACK
6
CONTINUOUS
10
0.6998031496062992
20
1.7488468503937007
11
0.7127673228346456
21
1.7618110236220472
0
LINE
8
BLACK
6
CONTINUOUS
10
0.7127673228346456
20
1.7618110236220472
11
0.6998031496062992
21
1.7618110236220472
0
LINE
8
BLACK
6
CONTINUOUS
10
0.808886220472441
20
1.7618110236220472
11
0.8218503937007874
21
1.7488468503937007
0
LINE
8
BLACK
6
CONTINUOUS
10
0.8218503937007874
20
1.7488468503937007
11
0.8218503937007874
21
1.7618110236220472
0
LINE
8
BLACK
6
CONTINUOUS
10
0.8218503937007874
20
1.7618110236220472
11
0.808886220472441
21
1.7618110236220472
0
LINE
8
BLACK
6
CONTINUOUS
10
2.1464665748031497
20
1.9332072440944881
11
2.1475309842519685
21
1.9327663385826772
0
LINE
8
BLACK
6
CONTINUOUS
10
2.1475309842519685
20
1.9327663385826772
11
2.14834562992126
21
1.9319516929133858
0
LINE
8
BLACK
6
CONTINUOUS
10
2.14834562992126
20
1.9319516929133858
11
2.1487865354330706
21
1.930887283464567
0
LINE
8
BLACK
6
CONTINUOUS
10
2.1487865354330706
20
1.930887283464567
11
2.1487865354330706
21
1.929735157480315
0
LINE
8
BLACK
6
CONTINUOUS
10
2.1487865354330706
20
1.929735157480315
11
2.14834562992126
21
1.928670748031496
0
LINE
8
BLACK
6
CONTINUOUS
10
2.14834562992126
20
1.928670748031496
11
2.1475309842519685
21
1.9278561023622047
0
LINE
8
BLACK
6
CONTINUOUS
10
2.1475309842519685
20
1.9278561023622047
11
2.1464665748031497
21
1.9274151968503936
0
LINE
8
BLACK
6
CONTINUOUS
10
2.1464665748031497
20
1.9274151968503936
11
2.1458905118110234
21
1.9273584645669291
0
LINE
8
BLACK
6
CONTINUOUS
10
2.1458905118110234
20
1.9273584645669291
11
2.1302406692913385
21
1.9273584645669291
0
LINE
8
BLACK
6
CONTINUOUS
10
2.1302406692913385
20
1.9273584645669291
11
2.1278885826771652
21
1.9250064173228345
0
LINE
8
BLACK
6
CONTINUOUS
10
2.1278885826771652
20
1.9250064173228345
11
2.1476621653543306
21
1.9101762598425196
0
LINE
8
BLACK
6
CONTINUOUS
10
2.1476621653543306
20
1.9101762598425196
11
2.1480889763779527
21
1.9097852362204724
0
LINE
8
BLACK
6
CONTINUOUS
10
2.1480889763779527
20
1.9097852362204724
11
2.1486759842519683
21
1.9087938582677164
0
LINE
8
BLACK
6
CONTINUOUS
10
2.1486759842519683
20
1.9087938582677164
11
2.1488388976377952
21
1.9076533464566929
0
LINE
8
BLACK
6
CONTINUOUS
10
2.1488388976377952
20
1.9076533464566929
11
2.1485529921259841
21
1.9065372834645669
0
LINE
8
BLACK
6
CONTINUOUS
10
2.1485529921259841
20
1.9065372834645669
11
2.1478616929133856
21
1.9056155905511811
0
LINE
8
BLACK
6
CONTINUOUS
10
2.1478616929133856
20
1.9056155905511811
11
2.1468703149606299
21
1.9050286220472441
0
LINE
8
BLACK
6
CONTINUOUS
10
2.1468703149606299
20
1.9050286220472441
11
2.1457298425196849
21
1.9048656692913386
0
LINE
8
BLACK
6
CONTINUOUS
10
2.1457298425196849
20
1.9048656692913386
11
2.1446137401574803
21
1.9051515748031496
0
LINE
8
BLACK
6
CONTINUOUS
10
2.1446137401574803
20
1.9051515748031496
11
2.1441188582677166
21
1.9054518503937008
0
LINE
8
BLACK
6
CONTINUOUS
10
2.1441188582677166
20
1.9054518503937008
11
2.1236703543307085
21
1.9207881889763778
0
LINE
8
BLACK
6
CONTINUOUS
10
2.1236703543307085
20
1.9207881889763778
11
2.1086083464566929
21
1.9057261417322835
0
LINE
8
BLACK
6
CONTINUOUS
10
2.1086083464566929
20
1.9057261417322835
11
2.1081609055118111
21
1.9053589370078741
0
LINE
8
BLACK
6
CONTINUOUS
10
2.1081609055118111
20
1.9053589370078741
11
2.1070964566929131
21
1.904918031496063
0
LINE
8
BLACK
6
CONTINUOUS
10
2.1070964566929131
20
1.904918031496063
11
2.1059444094488189
21
1.904918031496063
0
LINE
8
BLACK
6
CONTINUOUS
10
2.1059444094488189
20
1.904918031496063
11
2.1048799606299213
21
1.9053589370078741
0
LINE
8
BLACK
6
CONTINUOUS
10
2.1048799606299213
20
1.9053589370078741
11
2.1040653149606299
21
1.9061735826771653
0
LINE
8
BLACK
6
CONTINUOUS
10
2.1040653149606299
20
1.9061735826771653
11
2.1036244094488188
21
1.9072380314960629
0
LINE
8
BLACK
6
CONTINUOUS
10
2.1036244094488188
20
1.9072380314960629
11
2.1036244094488188
21
1.9083900787401575
0
LINE
8
BLACK
6
CONTINUOUS
10
2.1036244094488188
20
1.9083900787401575
11
2.1040653149606299
21
1.9094545275590551
0
LINE
8
BLACK
6
CONTINUOUS
10
2.1040653149606299
20
1.9094545275590551
11
2.1044325196850395
21
1.9099019685039369
0
LINE
8
BLACK
6
CONTINUOUS
10
2.1044325196850395
20
1.9099019685039369
11
2.1218890157480312
21
1.9273584645669291
0
LINE
8
BLACK
6
CONTINUOUS
10
2.1218890157480312
20
1.9273584645669291
11
2.106520433070866
21
1.9273584645669291
0
LINE
8
BLACK
6
CONTINUOUS
10
2.106520433070866
20
1.9273584645669291
11
2.1059443700787401
21
1.9274151968503936
0
LINE
8
BLACK
6
CONTINUOUS
10
2.1059443700787401
20
1.9274151968503936
11
2.1048799606299213
21
1.9278561023622047
0
LINE
8
BLACK
6
CONTINUOUS
10
2.1048799606299213
20
1.9278561023622047
11
2.1040653149606299
21
1.928670748031496
0
LINE
8
BLACK
6
CONTINUOUS
10
2.1040653149606299
20
1.928670748031496
11
2.1036244094488188
21
1.929735157480315
0
LINE
8
BLACK
6
CONTINUOUS
10
2.1036244094488188
20
1.929735157480315
11
2.1036244094488188
21
1.930887283464567
0
LINE
8
BLACK
6
CONTINUOUS
10
2.1036244094488188
20
1.930887283464567
11
2.1040653149606299
21
1.9319516929133858
0
LINE
8
BLACK
6
CONTINUOUS
10
2.1040653149606299
20
1.9319516929133858
11
2.1048799606299213
21
1.9327663385826772
0
LINE
8
BLACK
6
CONTINUOUS
10
2.1048799606299213
20
1.9327663385826772
11
2.1059443700787401
21
1.9332072440944881
0
LINE
8
BLACK
6
CONTINUOUS
10
2.1059443700787401
20
1.9332072440944881
11
2.106520433070866
21
1.9332639763779527
0
LINE
8
BLACK
6
CONTINUOUS
10
2.106520433070866
20
1.9332639763779527
11
2.1458905118110234
21
1.9332639763779527
0
LINE
8
BLACK
6
CONTINUOUS
10
2.1458905118110234
20
1.9332639763779527
11
2.1464665748031497
21
1.9332072440944881
0
LINE
8
BLACK
6
CONTINUOUS
10
0.420906062992126
20
2.0243598425196851
11
0.4211984645669291
21
2.0243598425196851
0
LINE
8
BLACK
6
CONTINUOUS
10
0.4211984645669291
20
2.0243598425196851
11
0.4214657086614173
21
2.0242491338582678
0
LINE
8
BLACK
6
CONTINUOUS
10
0.4214657086614173
20
2.0242491338582678
11
0.4217495275590551
21
2.0241929921259842
0
LINE
8
BLACK
6
CONTINUOUS
10
0.4217495275590551
20
2.0241929921259842
11
0.4219927952755905
21
2.0240308267716536
0
LINE
8
BLACK
6
CONTINUOUS
10
0.4219927952755905
20
2.0240308267716536
11
0.422262874015748
21
2.0239189370078741
0
LINE
8
BLACK
6
CONTINUOUS
10
0.422262874015748
20
2.0239189370078741
11
0.4224673228346457
21
2.0237144881889764
0
LINE
8
BLACK
6
CONTINUOUS
10
0.4224673228346457
20
2.0237144881889764
11
0.4227081496062992
21
2.0235539370078741
0
LINE
8
BLACK
6
CONTINUOUS
10
0.4227081496062992
20
2.0235539370078741
11
0.4228708661417322
21
2.0233109448818896
0
LINE
8
BLACK
6
CONTINUOUS
10
0.4228708661417322
20
2.0233109448818896
11
0.4230775196850394
21
2.0231042913385826
0
LINE
8
BLACK
6
CONTINUOUS
10
0.4230775196850394
20
2.0231042913385826
11
0.4231881889763779
21
2.0228370866141732
0
LINE
8
BLACK
6
CONTINUOUS
10
0.4231881889763779
20
2.0228370866141732
11
0.4233492125984252
21
2.0225966535433071
0
LINE
8
BLACK
6
CONTINUOUS
10
0.4233492125984252
20
2.0225966535433071
11
0.4234065354330708
21
2.0223100000000001
0
LINE
8
BLACK
6
CONTINUOUS
10
0.4234065354330708
20
2.0223100000000001
11
0.4235184251968504
21
2.0220398818897638
0
LINE
8
BLACK
6
CONTINUOUS
10
0.4235184251968504
20
2.0220398818897638
11
0.4235745275590551
21
2.0214699606299211
0
LINE
8
BLACK
6
CONTINUOUS
10
0.4235745275590551
20
2.0214699606299211
11
0.4235751574803149
21
2.0214669291338581
0
LINE
8
BLACK
6
CONTINUOUS
10
0.4235751574803149
20
2.0214669291338581
11
0.4235749212598425
21
2.0214659055118109
0
LINE
8
BLACK
6
CONTINUOUS
10
0.4235749212598425
20
2.0214659055118109
11
0.4235751574803149
21
2.0214638188976379
0
LINE
8
BLACK
6
CONTINUOUS
10
0.4235751574803149
20
2.0214638188976379
11
0.4235751574803149
21
1.9850464960629921
0
LINE
8
BLACK
6
CONTINUOUS
10
0.4235751574803149
20
1.9850464960629921
11
0.4318709842519685
21
1.9850464960629921
0
LINE
8
BLACK
6
CONTINUOUS
10
0.4318709842519685
20
1.9850464960629921
11
0.4324470472440945
21
1.9849897637795275
0
LINE
8
BLACK
6
CONTINUOUS
10
0.4324470472440945
20
1.9849897637795275
11
0.4335114566929134
21
1.9845488582677164
0
LINE
8
BLACK
6
CONTINUOUS
10
0.4335114566929134
20
1.9845488582677164
11
0.4343261023622047
21
1.9837342125984252
0
LINE
8
BLACK
6
CONTINUOUS
10
0.4343261023622047
20
1.9837342125984252
11
0.4347670078740157
21
1.9826698031496062
0
LINE
8
BLACK
6
CONTINUOUS
10
0.4347670078740157
20
1.9826698031496062
11
0.4347670078740157
21
1.9815176771653542
0
LINE
8
BLACK
6
CONTINUOUS
10
0.4347670078740157
20
1.9815176771653542
11
0.4343261023622047
21
1.9804532677165354
0
LINE
8
BLACK
6
CONTINUOUS
10
0.4343261023622047
20
1.9804532677165354
11
0.4335114566929134
21
1.9796386220472439
0
LINE
8
BLACK
6
CONTINUOUS
10
0.4335114566929134
20
1.9796386220472439
11
0.4324470472440945
21
1.9791977165354331
0
LINE
8
BLACK
6
CONTINUOUS
10
0.4324470472440945
20
1.9791977165354331
11
0.4318709842519685
21
1.9791409842519685
0
LINE
8
BLACK
6
CONTINUOUS
10
0.4318709842519685
20
1.9791409842519685
11
0.4093738188976378
21
1.9791409842519685
0
LINE
8
BLACK
6
CONTINUOUS
10
0.4093738188976378
20
1.9791409842519685
11
0.4087977559055118
21
1.9791977165354331
0
LINE
8
BLACK
6
CONTINUOUS
10
0.4087977559055118
20
1.9791977165354331
11
0.4077333464566929
21
1.9796386220472439
0
LINE
8
BLACK
6
CONTINUOUS
10
0.4077333464566929
20
1.9796386220472439
11
0.4069187007874016
21
1.9804532677165354
0
LINE
8
BLACK
6
CONTINUOUS
10
0.4069187007874016
20
1.9804532677165354
11
0.4064777952755905
21
1.9815176771653542
0
LINE
8
BLACK
6
CONTINUOUS
10
0.4064777952755905
20
1.9815176771653542
11
0.4064777952755905
21
1.9826698031496062
0
LINE
8
BLACK
6
CONTINUOUS
10
0.4064777952755905
20
1.9826698031496062
11
0.4069187007874016
21
1.9837342125984252
0
LINE
8
BLACK
6
CONTINUOUS
10
0.4069187007874016
20
1.9837342125984252
11
0.4077333464566929
21
1.9845488582677164
0
LINE
8
BLACK
6
CONTINUOUS
10
0.4077333464566929
20
1.9845488582677164
11
0.4087977559055118
21
1.9849897637795275
0
LINE
8
BLACK
6
CONTINUOUS
10
0.4087977559055118
20
1.9849897637795275
11
0.4093738188976378
21
1.9850464960629921
0
LINE
8
BLACK
6
CONTINUOUS
10
0.4093738188976378
20
1.9850464960629921
11
0.4176696456692913
21
1.9850464960629921
0
LINE
8
BLACK
6
CONTINUOUS
10
0.4176696456692913
20
1.9850464960629921
11
0.4176696456692913
21
2.0124604724409449
0
LINE
8
BLACK
6
CONTINUOUS
10
0.4176696456692913
20
2.0124604724409449
11
0.4152112598425197
21
2.0100020866141732
0
LINE
8
BLACK
6
CONTINUOUS
10
0.4152112598425197
20
2.0100020866141732
11
0.4149848818897638
21
2.0098163385826773
0
LINE
8
BLACK
6
CONTINUOUS
10
0.4149848818897638
20
2.0098163385826773
11
0.4149337401574803
21
2.0097573228346457
0
LINE
8
BLACK
6
CONTINUOUS
10
0.4149337401574803
20
2.0097573228346457
11
0.4148447637795276
21
2.0097013779527559
0
LINE
8
BLACK
6
CONTINUOUS
10
0.4148447637795276
20
2.0097013779527559
11
0.4147638188976378
21
2.0096348818897636
0
LINE
8
BLACK
6
CONTINUOUS
10
0.4147638188976378
20
2.0096348818897636
11
0.4146918503937008
21
2.0096050787401576
0
LINE
8
BLACK
6
CONTINUOUS
10
0.4146918503937008
20
2.0096050787401576
11
0.4144438582677165
21
2.0094489763779526
0
LINE
8
BLACK
6
CONTINUOUS
10
0.4144438582677165
20
2.0094489763779526
11
0.4106943307086614
21
2.0075742125984251
0
LINE
8
BLACK
6
CONTINUOUS
10
0.4106943307086614
20
2.0075742125984251
11
0.4101537007874015
21
2.0073673228346456
0
LINE
8
BLACK
6
CONTINUOUS
10
0.4101537007874015
20
2.0073673228346456
11
0.4090044881889764
21
2.0072856692913383
0
LINE
8
BLACK
6
CONTINUOUS
10
0.4090044881889764
20
2.0072856692913383
11
0.4079115354330708
21
2.0076499999999999
0
LINE
8
BLACK
6
CONTINUOUS
10
0.4079115354330708
20
2.0076499999999999
11
0.4070411417322835
21
2.0084048425196852
0
LINE
8
BLACK
6
CONTINUOUS
10
0.4070411417322835
20
2.0084048425196852
11
0.406525905511811
21
2.0094353543307086
0
LINE
8
BLACK
6
CONTINUOUS
10
0.406525905511811
20
2.0094353543307086
11
0.4064442519685039
21
2.010584566929134
0
LINE
8
BLACK
6
CONTINUOUS
10
0.4064442519685039
20
2.010584566929134
11
0.4068085826771654
21
2.0116775196850392
0
LINE
8
BLACK
6
CONTINUOUS
10
0.4068085826771654
20
2.0116775196850392
11
0.4075634251968504
21
2.0125479133858266
0
LINE
8
BLACK
6
CONTINUOUS
10
0.4075634251968504
20
2.0125479133858266
11
0.4080533070866141
21
2.0128562598425197
0
LINE
8
BLACK
6
CONTINUOUS
10
0.4080533070866141
20
2.0128562598425197
11
0.4113742519685039
21
2.0145167322834645
0
LINE
8
BLACK
6
CONTINUOUS
10
0.4113742519685039
20
2.0145167322834645
11
0.4145781496062992
21
2.0177206299212598
0
LINE
8
BLACK
6
CONTINUOUS
10
0.4145781496062992
20
2.0177206299212598
11
0.4181655511811024
21
2.0231017322834646
0
LINE
8
BLACK
6
CONTINUOUS
10
0.4181655511811024
20
2.0231017322834646
11
0.4181668897637795
21
2.0231034251968505
0
LINE
8
BLACK
6
CONTINUOUS
10
0.4181668897637795
20
2.0231034251968505
11
0.4181672834645669
21
2.0231042913385826
0
LINE
8
BLACK
6
CONTINUOUS
10
0.4181672834645669
20
2.0231042913385826
11
0.4181692913385827
21
2.0231063385826773
0
LINE
8
BLACK
6
CONTINUOUS
10
0.4181692913385827
20
2.0231063385826773
11
0.4185323228346456
21
2.0235495669291339
0
LINE
8
BLACK
6
CONTINUOUS
10
0.4185323228346456
20
2.0235495669291339
11
0.4187751968503937
21
2.0237122440944884
0
LINE
8
BLACK
6
CONTINUOUS
10
0.4187751968503937
20
2.0237122440944884
11
0.4189819291338582
21
2.0239189370078741
0
LINE
8
BLACK
6
CONTINUOUS
10
0.4189819291338582
20
2.0239189370078741
11
0.4192492125984252
21
2.0240296850393702
0
LINE
8
BLACK
6
CONTINUOUS
10
0.4192492125984252
20
2.0240296850393702
11
0.4194896062992126
21
2.02419062992126
0
LINE
8
BLACK
6
CONTINUOUS
10
0.4194896062992126
20
2.02419062992126
11
0.419776220472441
21
2.0242479921259844
0
LINE
8
BLACK
6
CONTINUOUS
10
0.419776220472441
20
2.0242479921259844
11
0.4200463385826771
21
2.0243598425196851
0
LINE
8
BLACK
6
CONTINUOUS
10
0.4200463385826771
20
2.0243598425196851
11
0.4203356299212598
21
2.0243598425196851
0
LINE
8
BLACK
6
CONTINUOUS
10
0.4203356299212598
20
2.0243598425196851
11
0.4206192913385827
21
2.0244165748031495
0
LINE
8
BLACK
6
CONTINUOUS
10
0.4206192913385827
20
2.0244165748031495
11
0.420906062992126
21
2.0243598425196851
0
LINE
8
BLACK
6
CONTINUOUS
10
2.424947992125984
20
2.0243598425196851
11
2.4250459842519683
21
2.024319251968504
0
LINE
8
BLACK
6
CONTINUOUS
10
2.4250459842519683
20
2.024319251968504
11
2.4251518110236221
21
2.0243117322834645
0
LINE
8
BLACK
6
CONTINUOUS
10
2.4251518110236221
20
2.0243117322834645
11
2.4256924409448817
21
2.024104842519685
0
LINE
8
BLACK
6
CONTINUOUS
10
2.4256924409448817
20
2.024104842519685
11
2.4294419685039368
21
2.0222300787401575
0
LINE
8
BLACK
6
CONTINUOUS
10
2.4294419685039368
20
2.0222300787401575
11
2.4296899606299212
21
2.0220740157480313
0
LINE
8
BLACK
6
CONTINUOUS
10
2.4296899606299212
20
2.0220740157480313
11
2.4297619291338584
21
2.0220441732283465
0
LINE
8
BLACK
6
CONTINUOUS
10
2.4297619291338584
20
2.0220441732283465
11
2.4298428740157481
21
2.0219777165354329
0
LINE
8
BLACK
6
CONTINUOUS
10
2.4298428740157481
20
2.0219777165354329
11
2.4299318503937006
21
2.0219217322834644
0
LINE
8
BLACK
6
CONTINUOUS
10
2.4299318503937006
20
2.0219217322834644
11
2.4299829921259843
21
2.0218627559055116
0
LINE
8
BLACK
6
CONTINUOUS
10
2.4299829921259843
20
2.0218627559055116
11
2.4302093700787402
21
2.0216769685039369
0
LINE
8
BLACK
6
CONTINUOUS
10
2.4302093700787402
20
2.0216769685039369
11
2.4320841338582677
21
2.0198022047244093
0
LINE
8
BLACK
6
CONTINUOUS
10
2.4320841338582677
20
2.0198022047244093
11
2.4322698818897637
21
2.0195758661417322
0
LINE
8
BLACK
6
CONTINUOUS
10
2.4322698818897637
20
2.0195758661417322
11
2.4323288976377953
21
2.0195246850393702
0
LINE
8
BLACK
6
CONTINUOUS
10
2.4323288976377953
20
2.0195246850393702
11
2.432384842519685
21
2.0194357480314959
0
LINE
8
BLACK
6
CONTINUOUS
10
2.432384842519685
20
2.0194357480314959
11
2.4324513385826769
21
2.0193547637795275
0
LINE
8
BLACK
6
CONTINUOUS
10
2.4324513385826769
20
2.0193547637795275
11
2.4324811417322834
21
2.019282834645669
0
LINE
8
BLACK
6
CONTINUOUS
10
2.4324811417322834
20
2.019282834645669
11
2.4326372440944883
21
2.0190348031496064
0
LINE
8
BLACK
6
CONTINUOUS
10
2.4326372440944883
20
2.0190348031496064
11
2.4345120078740159
21
2.0152852755905513
0
LINE
8
BLACK
6
CONTINUOUS
10
2.4345120078740159
20
2.0152852755905513
11
2.4347188976377954
21
2.01474468503937
0
LINE
8
BLACK
6
CONTINUOUS
10
2.4347188976377954
20
2.01474468503937
11
2.4347264173228345
21
2.0146388188976379
0
LINE
8
BLACK
6
CONTINUOUS
10
2.4347264173228345
20
2.0146388188976379
11
2.4347670078740156
21
2.0145408267716536
0
LINE
8
BLACK
6
CONTINUOUS
10
2.4347670078740156
20
2.0145408267716536
11
2.4348237401574804
21
2.0139647637795277
0
LINE
8
BLACK
6
CONTINUOUS
10
2.4348237401574804
20
2.0139647637795277
11
2.4348237401574804
21
2.0102152362204726
0
LINE
8
BLACK
6
CONTINUOUS
10
2.4348237401574804
20
2.0102152362204726
11
2.4347949999999998
21
2.0099236614173228
0
LINE
8
BLACK
6
CONTINUOUS
10
2.4347949999999998
20
2.0099236614173228
11
2.4348005511811022
21
2.0098459055118112
0
LINE
8
BLACK
6
CONTINUOUS
10
2.4348005511811022
20
2.0098459055118112
11
2.4347772834645669
21
2.009743661417323
0
LINE
8
BLACK
6
CONTINUOUS
10
2.4347772834645669
20
2.009743661417323
11
2.4347670078740156
21
2.0096391732283463
0
LINE
8
BLACK
6
CONTINUOUS
10
2.4347670078740156
20
2.0096391732283463
11
2.4347371259842521
21
2.009567125984252
0
LINE
8
BLACK
6
CONTINUOUS
10
2.4347371259842521
20
2.009567125984252
11
2.4346722047244094
21
2.0092814566929134
0
LINE
8
BLACK
6
CONTINUOUS
10
2.4346722047244094
20
2.0092814566929134
11
2.4327974409448818
21
2.0036572047244094
0
LINE
8
BLACK
6
CONTINUOUS
10
2.4327974409448818
20
2.0036572047244094
11
2.4325614566929135
21
2.0031286220472442
0
LINE
8
BLACK
6
CONTINUOUS
10
2.4325614566929135
20
2.0031286220472442
11
2.4324919685039368
21
2.0030485433070866
0
LINE
8
BLACK
6
CONTINUOUS
10
2.4324919685039368
20
2.0030485433070866
11
2.4324513779527557
21
2.0029504724409448
0
LINE
8
BLACK
6
CONTINUOUS
10
2.4324513779527557
20
2.0029504724409448
11
2.4320841338582677
21
2.002503031496063
0
LINE
8
BLACK
6
CONTINUOUS
10
2.4320841338582677
20
2.002503031496063
11
2.4146276377952756
21
1.9850464960629921
0
LINE
8
BLACK
6
CONTINUOUS
10
2.4146276377952756
20
1.9850464960629921
11
2.4318709842519683
21
1.9850464960629921
0
LINE
8
BLACK
6
CONTINUOUS
10
2.4318709842519683
20
1.9850464960629921
11
2.4324470472440942
21
1.9849897637795275
0
LINE
8
BLACK
6
CONTINUOUS
10
2.4324470472440942
20
1.9849897637795275
11
2.4335114566929135
21
1.9845488582677164
0
LINE
8
BLACK
6
CONTINUOUS
10
2.4335114566929135
20
1.9845488582677164
11
2.4343261023622045
21
1.9837342125984252
0
LINE
8
BLACK
6
CONTINUOUS
10
2.4343261023622045
20
1.9837342125984252
11
2.4347670078740156
21
1.9826698031496062
0
LINE
8
BLACK
6
CONTINUOUS
10
2.4347670078740156
20
1.9826698031496062
11
2.4347670078740156
21
1.9815176771653542
0
LINE
8
BLACK
6
CONTINUOUS
10
2.4347670078740156
20
1.9815176771653542
11
2.4343261023622045
21
1.9804532677165354
0
LINE
8
BLACK
6
CONTINUOUS
10
2.4343261023622045
20
1.9804532677165354
11
2.4335114566929135
21
1.9796386220472439
0
LINE
8
BLACK
6
CONTINUOUS
10
2.4335114566929135
20
1.9796386220472439
11
2.4324470472440942
21
1.9791977165354331
0
LINE
8
BLACK
6
CONTINUOUS
10
2.4324470472440942
20
1.9791977165354331
11
2.4318709842519683
21
1.9791409842519685
0
LINE
8
BLACK
6
CONTINUOUS
10
2.4318709842519683
20
1.9791409842519685
11
2.4074990551181101
21
1.9791409842519685
0
LINE
8
BLACK
6
CONTINUOUS
10
2.4074990551181101
20
1.9791409842519685
11
2.4069229921259843
21
1.9791977165354331
0
LINE
8
BLACK
6
CONTINUOUS
10
2.4069229921259843
20
1.9791977165354331
11
2.4058585826771655
21
1.9796386220472439
0
LINE
8
BLACK
6
CONTINUOUS
10
2.4058585826771655
20
1.9796386220472439
11
2.405043937007874
21
1.9804532677165354
0
LINE
8
BLACK
6
CONTINUOUS
10
2.405043937007874
20
1.9804532677165354
11
2.4046030314960629
21
1.9815176771653542
0
LINE
8
BLACK
6
CONTINUOUS
10
2.4046030314960629
20
1.9815176771653542
11
2.4046030314960629
21
1.9826698031496062
0
LINE
8
BLACK
6
CONTINUOUS
10
2.4046030314960629
20
1.9826698031496062
11
2.405043937007874
21
1.9837342125984252
0
LINE
8
BLACK
6
CONTINUOUS
10
2.405043937007874
20
1.9837342125984252
11
2.4054111417322832
21
1.984181653543307
0
LINE
8
BLACK
6
CONTINUOUS
10
2.4054111417322832
20
1.984181653543307
11
2.4274153937007874
21
2.0061859842519683
0
LINE
8
BLACK
6
CONTINUOUS
10
2.4274153937007874
20
2.0061859842519683
11
2.4289182283464568
21
2.0106943700787401
0
LINE
8
BLACK
6
CONTINUOUS
10
2.4289182283464568
20
2.0106943700787401
11
2.4289182283464568
21
2.0132677165354331
0
LINE
8
BLACK
6
CONTINUOUS
10
2.4289182283464568
20
2.0132677165354331
11
2.4275694881889764
21
2.0159651968503938
0
LINE
8
BLACK
6
CONTINUOUS
10
2.4275694881889764
20
2.0159651968503938
11
2.4263723622047242
21
2.0171623228346456
0
LINE
8
BLACK
6
CONTINUOUS
10
2.4263723622047242
20
2.0171623228346456
11
2.4236748818897635
21
2.0185110629921259
0
LINE
8
BLACK
6
CONTINUOUS
10
2.4236748818897635
20
2.0185110629921259
11
2.4156951574803149
21
2.0185110629921259
0
LINE
8
BLACK
6
CONTINUOUS
10
2.4156951574803149
20
2.0185110629921259
11
2.4129976771653543
21
2.0171623228346456
0
LINE
8
BLACK
6
CONTINUOUS
10
2.4129976771653543
20
2.0171623228346456
11
2.4114617322834646
21
2.0156263779527559
0
LINE
8
BLACK
6
CONTINUOUS
10
2.4114617322834646
20
2.0156263779527559
11
2.4110142913385828
21
2.0152591732283462
0
LINE
8
BLACK
6
CONTINUOUS
10
2.4110142913385828
20
2.0152591732283462
11
2.4099498425196848
21
2.0148182677165356
0
LINE
8
BLACK
6
CONTINUOUS
10
2.4099498425196848
20
2.0148182677165356
11
2.4087977952755906
21
2.0148182677165356
0
LINE
8
BLACK
6
CONTINUOUS
10
2.4087977952755906
20
2.0148182677165356
11
2.407733346456693
21
2.0152591732283462
0
LINE
8
BLACK
6
CONTINUOUS
10
2.407733346456693
20
2.0152591732283462
11
2.4069187007874016
21
2.0160738188976377
0
LINE
8
BLACK
6
CONTINUOUS
10
2.4069187007874016
20
2.0160738188976377
11
2.4064777952755905
21
2.0171382677165353
0
LINE
8
BLACK
6
CONTINUOUS
10
2.4064777952755905
20
2.0171382677165353
11
2.4064777952755905
21
2.0182903149606299
0
LINE
8
BLACK
6
CONTINUOUS
10
2.4064777952755905
20
2.0182903149606299
11
2.4069187007874016
21
2.0193547637795275
0
LINE
8
BLACK
6
CONTINUOUS
10
2.4069187007874016
20
2.0193547637795275
11
2.4072859055118108
21
2.0198022047244093
0
LINE
8
BLACK
6
CONTINUOUS
10
2.4072859055118108
20
2.0198022047244093
11
2.4091606692913383
21
2.0216769685039369
0
LINE
8
BLACK
6
CONTINUOUS
10
2.4091606692913383
20
2.0216769685039369
11
2.4093870078740158
21
2.0218627559055116
0
LINE
8
BLACK
6
CONTINUOUS
10
2.4093870078740158
20
2.0218627559055116
11
2.4094381889763778
21
2.0219217322834644
0
LINE
8
BLACK
6
CONTINUOUS
10
2.4094381889763778
20
2.0219217322834644
11
2.4095271259842521
21
2.0219777165354329
0
LINE
8
BLACK
6
CONTINUOUS
10
2.4095271259842521
20
2.0219777165354329
11
2.4096081102362206
21
2.0220441732283465
0
LINE
8
BLACK
6
CONTINUOUS
10
2.4096081102362206
20
2.0220441732283465
11
2.4096800393700786
21
2.0220740157480313
0
LINE
8
BLACK
6
CONTINUOUS
10
2.4096800393700786
20
2.0220740157480313
11
2.4099280708661417
21
2.0222300787401575
0
LINE
8
BLACK
6
CONTINUOUS
10
2.4099280708661417
20
2.0222300787401575
11
2.4136775984251968
21
2.024104842519685
0
LINE
8
BLACK
6
CONTINUOUS
10
2.4136775984251968
20
2.024104842519685
11
2.4142181889763781
21
2.0243117322834645
0
LINE
8
BLACK
6
CONTINUOUS
10
2.4142181889763781
20
2.0243117322834645
11
2.4143240551181102
21
2.0243192913385828
0
LINE
8
BLACK
6
CONTINUOUS
10
2.4143240551181102
20
2.0243192913385828
11
2.4144220472440945
21
2.0243598425196851
0
LINE
8
BLACK
6
CONTINUOUS
10
2.4144220472440945
20
2.0243598425196851
11
2.4149981102362204
21
2.0244165748031495
0
LINE
8
BLACK
6
CONTINUOUS
10
2.4149981102362204
20
2.0244165748031495
11
2.4243719291338581
21
2.0244165748031495
0
LINE
8
BLACK
6
CONTINUOUS
10
2.4243719291338581
20
2.0244165748031495
11
2.424947992125984
21
2.0243598425196851
0
LINE
8
BLACK
6
CONTINUOUS
10
0.3716442125984252
20
2.0239189370078741
11
0.3724588582677165
21
2.0231042913385826
0
LINE
8
BLACK
6
CONTINUOUS
10
0.3724588582677165
20
2.0231042913385826
11
0.3728997637795275
21
2.0220398818897638
0
LINE
8
BLACK
6
CONTINUOUS
10
0.3728997637795275
20
2.0220398818897638
11
0.3729564960629921
21
2.0214638188976379
0
LINE
8
BLACK
6
CONTINUOUS
10
0.3729564960629921
20
2.0214638188976379
11
0.3729564960629921
21
2.005668937007874
0
LINE
8
BLACK
6
CONTINUOUS
10
0.3729564960629921
20
2.005668937007874
11
0.3895481496062992
21
2.005668937007874
0
LINE
8
BLACK
6
CONTINUOUS
10
0.3895481496062992
20
2.005668937007874
11
0.3895481496062992
21
2.0214638188976379
0
LINE
8
BLACK
6
CONTINUOUS
10
0.3895481496062992
20
2.0214638188976379
11
0.3896048818897638
21
2.0220398818897638
0
LINE
8
BLACK
6
CONTINUOUS
10
0.3896048818897638
20
2.0220398818897638
11
0.3900457874015748
21
2.0231042913385826
0
LINE
8
BLACK
6
CONTINUOUS
10
0.3900457874015748
20
2.0231042913385826
11
0.3908604330708662
21
2.0239189370078741
0
LINE
8
BLACK
6
CONTINUOUS
10
0.3908604330708662
20
2.0239189370078741
11
0.391924842519685
21
2.0243598425196851
0
LINE
8
BLACK
6
CONTINUOUS
10
0.391924842519685
20
2.0243598425196851
11
0.393076968503937
21
2.0243598425196851
0
LINE
8
BLACK
6
CONTINUOUS
10
0.393076968503937
20
2.0243598425196851
11
0.3941413779527559
21
2.0239189370078741
0
LINE
8
BLACK
6
CONTINUOUS
10
0.3941413779527559
20
2.0239189370078741
11
0.3949560236220472
21
2.0231042913385826
0
LINE
8
BLACK
6
CONTINUOUS
10
0.3949560236220472
20
2.0231042913385826
11
0.3953969291338583
21
2.0220398818897638
0
LINE
8
BLACK
6
CONTINUOUS
10
0.3953969291338583
20
2.0220398818897638
11
0.3954536614173228
21
2.0214638188976379
0
LINE
8
BLACK
6
CONTINUOUS
10
0.3954536614173228
20
2.0214638188976379
11
0.3954536614173228
21
1.9820937401574803
0
LINE
8
BLACK
6
CONTINUOUS
10
0.3954536614173228
20
1.9820937401574803
11
0.3953969291338583
21
1.9815176771653542
0
LINE
8
BLACK
6
CONTINUOUS
10
0.3953969291338583
20
1.9815176771653542
11
0.3949560236220472
21
1.9804532677165354
0
LINE
8
BLACK
6
CONTINUOUS
10
0.3949560236220472
20
1.9804532677165354
11
0.3941413779527559
21
1.9796386220472439
0
LINE
8
BLACK
6
CONTINUOUS
10
0.3941413779527559
20
1.9796386220472439
11
0.393076968503937
21
1.9791977165354331
0
LINE
8
BLACK
6
CONTINUOUS
10
0.393076968503937
20
1.9791977165354331
11
0.391924842519685
21
1.9791977165354331
0
LINE
8
BLACK
6
CONTINUOUS
10
0.391924842519685
20
1.9791977165354331
11
0.3908604330708662
21
1.9796386220472439
0
LINE
8
BLACK
6
CONTINUOUS
10
0.3908604330708662
20
1.9796386220472439
11
0.3900457874015748
21
1.9804532677165354
0
LINE
8
BLACK
6
CONTINUOUS
10
0.3900457874015748
20
1.9804532677165354
11
0.3896048818897638
21
1.9815176771653542
0
LINE
8
BLACK
6
CONTINUOUS
10
0.3896048818897638
20
1.9815176771653542
11
0.3895481496062992
21
1.9820937401574803
0
LINE
8
BLACK
6
CONTINUOUS
10
0.3895481496062992
20
1.9820937401574803
11
0.3895481496062992
21
1.9997634251968504
0
LINE
8
BLACK
6
CONTINUOUS
10
0.3895481496062992
20
1.9997634251968504
11
0.3729564960629921
21
1.9997634251968504
0
LINE
8
BLACK
6
CONTINUOUS
10
0.3729564960629921
20
1.9997634251968504
11
0.3729564960629921
21
1.9820937401574803
0
LINE
8
BLACK
6
CONTINUOUS
10
0.3729564960629921
20
1.9820937401574803
11
0.3728997637795275
21
1.9815176771653542
0
LINE
8
BLACK
6
CONTINUOUS
10
0.3728997637795275
20
1.9815176771653542
11
0.3724588582677165
21
1.9804532677165354
0
LINE
8
BLACK
6
CONTINUOUS
10
0.3724588582677165
20
1.9804532677165354
11
0.3716442125984252
21
1.9796386220472439
0
LINE
8
BLACK
6
CONTINUOUS
10
0.3716442125984252
20
1.9796386220472439
11
0.3705798031496063
21
1.9791977165354331
0
LINE
8
BLACK
6
CONTINUOUS
10
0.3705798031496063
20
1.9791977165354331
11
0.3694276771653543
21
1.9791977165354331
0
LINE
8
BLACK
6
CONTINUOUS
10
0.3694276771653543
20
1.9791977165354331
11
0.3683632677165354
21
1.9796386220472439
0
LINE
8
BLACK
6
CONTINUOUS
10
0.3683632677165354
20
1.9796386220472439
11
0.3675486220472441
21
1.9804532677165354
0
LINE
8
BLACK
6
CONTINUOUS
10
0.3675486220472441
20
1.9804532677165354
11
0.3671077165354331
21
1.9815176771653542
0
LINE
8
BLACK
6
CONTINUOUS
10
0.3671077165354331
20
1.9815176771653542
11
0.3670509842519685
21
1.9820937401574803
0
LINE
8
BLACK
6
CONTINUOUS
10
0.3670509842519685
20
1.9820937401574803
11
0.3670509842519685
21
2.0214638188976379
0
LINE
8
BLACK
6
CONTINUOUS
10
0.3670509842519685
20
2.0214638188976379
11
0.3671077165354331
21
2.0220398818897638
0
LINE
8
BLACK
6
CONTINUOUS
10
0.3671077165354331
20
2.0220398818897638
11
0.3675486220472441
21
2.0231042913385826
0
LINE
8
BLACK
6
CONTINUOUS
10
0.3675486220472441
20
2.0231042913385826
11
0.3683632677165354
21
2.0239189370078741
0
LINE
8
BLACK
6
CONTINUOUS
10
0.3683632677165354
20
2.0239189370078741
11
0.3694276771653543
21
2.0243598425196851
0
LINE
8
BLACK
6
CONTINUOUS
10
0.3694276771653543
20
2.0243598425196851
11
0.3705798031496063
21
2.0243598425196851
0
LINE
8
BLACK
6
CONTINUOUS
10
0.3705798031496063
20
2.0243598425196851
11
0.3716442125984252
21
2.0239189370078741
0
LINE
8
BLACK
6
CONTINUOUS
10
2.371644212598425
20
2.0239189370078741
11
2.3724588582677164
21
2.0231042913385826
0
LINE
8
BLACK
6
CONTINUOUS
10
2.3724588582677164
20
2.0231042913385826
11
2.3728997637795275
21
2.0220398818897638
0
LINE
8
BLACK
6
CONTINUOUS
10
2.3728997637795275
20
2.0220398818897638
11
2.3729564960629919
21
2.0214638188976379
0
LINE
8
BLACK
6
CONTINUOUS
10
2.3729564960629919
20
2.0214638188976379
11
2.3729564960629919
21
2.005668937007874
0
LINE
8
BLACK
6
CONTINUOUS
10
2.3729564960629919
20
2.005668937007874
11
2.3895481496062994
21
2.005668937007874
0
LINE
8
BLACK
6
CONTINUOUS
10
2.3895481496062994
20
2.005668937007874
11
2.3895481496062994
21
2.0214638188976379
0
LINE
8
BLACK
6
CONTINUOUS
10
2.3895481496062994
20
2.0214638188976379
11
2.3896048818897637
21
2.0220398818897638
0
LINE
8
BLACK
6
CONTINUOUS
10
2.3896048818897637
20
2.0220398818897638
11
2.3900457874015748
21
2.0231042913385826
0
LINE
8
BLACK
6
CONTINUOUS
10
2.3900457874015748
20
2.0231042913385826
11
2.3908604330708663
21
2.0239189370078741
0
LINE
8
BLACK
6
CONTINUOUS
10
2.3908604330708663
20
2.0239189370078741
11
2.3919248425196851
21
2.0243598425196851
0
LINE
8
BLACK
6
CONTINUOUS
10
2.3919248425196851
20
2.0243598425196851
11
2.3930769685039368
21
2.0243598425196851
0
LINE
8
BLACK
6
CONTINUOUS
10
2.3930769685039368
20
2.0243598425196851
11
2.3941413779527561
21
2.0239189370078741
0
LINE
8
BLACK
6
CONTINUOUS
10
2.3941413779527561
20
2.0239189370078741
11
2.3949560236220471
21
2.0231042913385826
0
LINE
8
BLACK
6
CONTINUOUS
10
2.3949560236220471
20
2.0231042913385826
11
2.3953969291338582
21
2.0220398818897638
0
LINE
8
BLACK
6
CONTINUOUS
10
2.3953969291338582
20
2.0220398818897638
11
2.395453661417323
21
2.0214638188976379
0
LINE
8
BLACK
6
CONTINUOUS
10
2.395453661417323
20
2.0214638188976379
11
2.395453661417323
21
1.9820937401574803
0
LINE
8
BLACK
6
CONTINUOUS
10
2.395453661417323
20
1.9820937401574803
11
2.3953969291338582
21
1.9815176771653542
0
LINE
8
BLACK
6
CONTINUOUS
10
2.3953969291338582
20
1.9815176771653542
11
2.3949560236220471
21
1.9804532677165354
0
LINE
8
BLACK
6
CONTINUOUS
10
2.3949560236220471
20
1.9804532677165354
11
2.3941413779527561
21
1.9796386220472439
0
LINE
8
BLACK
6
CONTINUOUS
10
2.3941413779527561
20
1.9796386220472439
11
2.3930769685039368
21
1.9791977165354331
0
LINE
8
BLACK
6
CONTINUOUS
10
2.3930769685039368
20
1.9791977165354331
11
2.3919248425196851
21
1.9791977165354331
0
LINE
8
BLACK
6
CONTINUOUS
10
2.3919248425196851
20
1.9791977165354331
11
2.3908604330708663
21
1.9796386220472439
0
LINE
8
BLACK
6
CONTINUOUS
10
2.3908604330708663
20
1.9796386220472439
11
2.3900457874015748
21
1.9804532677165354
0
LINE
8
BLACK
6
CONTINUOUS
10
2.3900457874015748
20
1.9804532677165354
11
2.3896048818897637
21
1.9815176771653542
0
LINE
8
BLACK
6
CONTINUOUS
10
2.3896048818897637
20
1.9815176771653542
11
2.3895481496062994
21
1.9820937401574803
0
LINE
8
BLACK
6
CONTINUOUS
10
2.3895481496062994
20
1.9820937401574803
11
2.3895481496062994
21
1.9997634251968504
0
LINE
8
BLACK
6
CONTINUOUS
10
2.3895481496062994
20
1.9997634251968504
11
2.3729564960629919
21
1.9997634251968504
0
LINE
8
BLACK
6
CONTINUOUS
10
2.3729564960629919
20
1.9997634251968504
11
2.3729564960629919
21
1.9820937401574803
0
LINE
8
BLACK
6
CONTINUOUS
10
2.3729564960629919
20
1.9820937401574803
11
2.3728997637795275
21
1.9815176771653542
0
LINE
8
BLACK
6
CONTINUOUS
10
2.3728997637795275
20
1.9815176771653542
11
2.3724588582677164
21
1.9804532677165354
0
LINE
8
BLACK
6
CONTINUOUS
10
2.3724588582677164
20
1.9804532677165354
11
2.371644212598425
21
1.9796386220472439
0
LINE
8
BLACK
6
CONTINUOUS
10
2.371644212598425
20
1.9796386220472439
11
2.3705798031496061
21
1.9791977165354331
0
LINE
8
BLACK
6
CONTINUOUS
10
2.3705798031496061
20
1.9791977165354331
11
2.3694276771653544
21
1.9791977165354331
0
LINE
8
BLACK
6
CONTINUOUS
10
2.3694276771653544
20
1.9791977165354331
11
2.3683632677165352
21
1.9796386220472439
0
LINE
8
BLACK
6
CONTINUOUS
10
2.3683632677165352
20
1.9796386220472439
11
2.3675486220472441
21
1.9804532677165354
0
LINE
8
BLACK
6
CONTINUOUS
10
2.3675486220472441
20
1.9804532677165354
11
2.3671077165354331
21
1.9815176771653542
0
LINE
8
BLACK
6
CONTINUOUS
10
2.3671077165354331
20
1.9815176771653542
11
2.3670509842519682
21
1.9820937401574803
0
LINE
8
BLACK
6
CONTINUOUS
10
2.3670509842519682
20
1.9820937401574803
11
2.3670509842519682
21
2.0214638188976379
0
LINE
8
BLACK
6
CONTINUOUS
10
2.3670509842519682
20
2.0214638188976379
11
2.3671077165354331
21
2.0220398818897638
0
LINE
8
BLACK
6
CONTINUOUS
10
2.3671077165354331
20
2.0220398818897638
11
2.3675486220472441
21
2.0231042913385826
0
LINE
8
BLACK
6
CONTINUOUS
10
2.3675486220472441
20
2.0231042913385826
11
2.3683632677165352
21
2.0239189370078741
0
LINE
8
BLACK
6
CONTINUOUS
10
2.3683632677165352
20
2.0239189370078741
11
2.3694276771653544
21
2.0243598425196851
0
LINE
8
BLACK
6
CONTINUOUS
10
2.3694276771653544
20
2.0243598425196851
11
2.3705798031496061
21
2.0243598425196851
0
LINE
8
BLACK
6
CONTINUOUS
10
2.3705798031496061
20
2.0243598425196851
11
2.371644212598425
21
2.0239189370078741
0
LINE
8
BLACK
6
CONTINUOUS
10
0.6585358267716536
20
2.0948484251968504
11
0.6590307086614173
21
2.0945481889763777
0
LINE
8
BLACK
6
CONTINUOUS
10
0.6590307086614173
20
2.0945481889763777
11
0.6794791732283464
21
2.0792118897637795
0
LINE
8
BLACK
6
CONTINUOUS
10
0.6794791732283464
20
2.0792118897637795
11
0.6945412204724409
21
2.094273897637795
0
LINE
8
BLACK
6
CONTINUOUS
10
0.6945412204724409
20
2.094273897637795
11
0.6949886614173229
21
2.0946411023622047
0
LINE
8
BLACK
6
CONTINUOUS
10
0.6949886614173229
20
2.0946411023622047
11
0.6960530708661418
21
2.0950820078740158
0
LINE
8
BLACK
6
CONTINUOUS
10
0.6960530708661418
20
2.0950820078740158
11
0.697205157480315
21
2.0950820078740158
0
LINE
8
BLACK
6
CONTINUOUS
10
0.697205157480315
20
2.0950820078740158
11
0.6982696062992125
21
2.0946411023622047
0
LINE
8
BLACK
6
CONTINUOUS
10
0.6982696062992125
20
2.0946411023622047
11
0.6990842519685039
21
2.0938264566929132
0
LINE
8
BLACK
6
CONTINUOUS
10
0.6990842519685039
20
2.0938264566929132
11
0.699525157480315
21
2.0927620078740157
0
LINE
8
BLACK
6
CONTINUOUS
10
0.699525157480315
20
2.0927620078740157
11
0.699525157480315
21
2.0916099212598427
0
LINE
8
BLACK
6
CONTINUOUS
10
0.699525157480315
20
2.0916099212598427
11
0.6990842519685039
21
2.0905455118110234
0
LINE
8
BLACK
6
CONTINUOUS
10
0.6990842519685039
20
2.0905455118110234
11
0.6987170472440944
21
2.0900980708661416
0
LINE
8
BLACK
6
CONTINUOUS
10
0.6987170472440944
20
2.0900980708661416
11
0.6812605511811023
21
2.0726415748031495
0
LINE
8
BLACK
6
CONTINUOUS
10
0.6812605511811023
20
2.0726415748031495
11
0.6966291338582677
21
2.0726415748031495
0
LINE
8
BLACK
6
CONTINUOUS
10
0.6966291338582677
20
2.0726415748031495
11
0.6972051968503937
21
2.0725848425196851
0
LINE
8
BLACK
6
CONTINUOUS
10
0.6972051968503937
20
2.0725848425196851
11
0.6982696062992125
21
2.072143937007874
0
LINE
8
BLACK
6
CONTINUOUS
10
0.6982696062992125
20
2.072143937007874
11
0.6990842519685039
21
2.0713292913385826
0
LINE
8
BLACK
6
CONTINUOUS
10
0.6990842519685039
20
2.0713292913385826
11
0.699525157480315
21
2.0702648818897638
0
LINE
8
BLACK
6
CONTINUOUS
10
0.699525157480315
20
2.0702648818897638
11
0.699525157480315
21
2.0691127559055116
0
LINE
8
BLACK
6
CONTINUOUS
10
0.699525157480315
20
2.0691127559055116
11
0.6990842519685039
21
2.0680483464566928
0
LINE
8
BLACK
6
CONTINUOUS
10
0.6990842519685039
20
2.0680483464566928
11
0.6982696062992125
21
2.0672337007874013
0
LINE
8
BLACK
6
CONTINUOUS
10
0.6982696062992125
20
2.0672337007874013
11
0.6972051968503937
21
2.0667927952755907
0
LINE
8
BLACK
6
CONTINUOUS
10
0.6972051968503937
20
2.0667927952755907
11
0.6966291338582677
21
2.0667360629921259
0
LINE
8
BLACK
6
CONTINUOUS
10
0.6966291338582677
20
2.0667360629921259
11
0.6572590551181102
21
2.0667360629921259
0
LINE
8
BLACK
6
CONTINUOUS
10
0.6572590551181102
20
2.0667360629921259
11
0.6566829921259842
21
2.0667927952755907
0
LINE
8
BLACK
6
CONTINUOUS
10
0.6566829921259842
20
2.0667927952755907
11
0.6556185826771653
21
2.0672337007874013
0
LINE
8
BLACK
6
CONTINUOUS
10
0.6556185826771653
20
2.0672337007874013
11
0.654803937007874
21
2.0680483464566928
0
LINE
8
BLACK
6
CONTINUOUS
10
0.654803937007874
20
2.0680483464566928
11
0.654363031496063
21
2.0691127559055116
0
LINE
8
BLACK
6
CONTINUOUS
10
0.654363031496063
20
2.0691127559055116
11
0.654363031496063
21
2.0702648818897638
0
LINE
8
BLACK
6
CONTINUOUS
10
0.654363031496063
20
2.0702648818897638
11
0.654803937007874
21
2.0713292913385826
0
LINE
8
BLACK
6
CONTINUOUS
10
0.654803937007874
20
2.0713292913385826
11
0.6556185826771653
21
2.072143937007874
0
LINE
8
BLACK
6
CONTINUOUS
10
0.6556185826771653
20
2.072143937007874
11
0.6566829921259842
21
2.0725848425196851
0
LINE
8
BLACK
6
CONTINUOUS
10
0.6566829921259842
20
2.0725848425196851
11
0.6572590551181102
21
2.0726415748031495
0
LINE
8
BLACK
6
CONTINUOUS
10
0.6572590551181102
20
2.0726415748031495
11
0.6729088976377953
21
2.0726415748031495
0
LINE
8
BLACK
6
CONTINUOUS
10
0.6729088976377953
20
2.0726415748031495
11
0.6752609448818897
21
2.0749936614173228
0
LINE
8
BLACK
6
CONTINUOUS
10
0.6752609448818897
20
2.0749936614173228
11
0.6554874015748031
21
2.0898237795275589
0
LINE
8
BLACK
6
CONTINUOUS
10
0.6554874015748031
20
2.0898237795275589
11
0.655060590551181
21
2.0902148031496064
0
LINE
8
BLACK
6
CONTINUOUS
10
0.655060590551181
20
2.0902148031496064
11
0.6544736220472441
21
2.0912061811023621
0
LINE
8
BLACK
6
CONTINUOUS
10
0.6544736220472441
20
2.0912061811023621
11
0.6543106692913385
21
2.0923466929133858
0
LINE
8
BLACK
6
CONTINUOUS
10
0.6543106692913385
20
2.0923466929133858
11
0.6545966141732283
21
2.0934627559055117
0
LINE
8
BLACK
6
CONTINUOUS
10
0.6545966141732283
20
2.0934627559055117
11
0.6552878740157481
21
2.0943844488188974
0
LINE
8
BLACK
6
CONTINUOUS
10
0.6552878740157481
20
2.0943844488188974
11
0.6562792519685039
21
2.0949714173228347
0
LINE
8
BLACK
6
CONTINUOUS
10
0.6562792519685039
20
2.0949714173228347
11
0.6574197637795276
21
2.0951343700787399
0
LINE
8
BLACK
6
CONTINUOUS
10
0.6574197637795276
20
2.0951343700787399
11
0.6585358267716536
21
2.0948484251968504
0
CIRCLE
8
BLACK
10
2.3055118110236221
20
0.4
40
0.0068897637795276
0
CIRCLE
8
BLACK
10
2.3331867716535433
20
0.4668132283464567
40
0.0068897637795276
0
CIRCLE
8
BLACK
10
2.3331867716535433
20
0.3331867716535433
40
0.0068897637795276
0
CIRCLE
8
BLACK
10
2.3999999999999999
20
0.4944881889763779
40
0.0068897637795276
0
CIRCLE
8
BLACK
10
2.3999999999999999
20
0.4
40
0.0068897637795276
0
CIRCLE
8
BLACK
10
2.3999999999999999
20
0.305511811023622
40
0.0068897637795276
0
CIRCLE
8
BLACK
10
2.4668132283464566
20
0.4668132283464567
40
0.0068897637795276
0
CIRCLE
8
BLACK
10
2.4668132283464566
20
0.3331867716535433
40
0.0068897637795276
0
CIRCLE
8
BLACK
10
2.4944881889763777
20
0.4
40
0.0068897637795276
0
CIRCLE
8
BLACK
10
1.6299212204724409
20
0.6204724409448819
40
0.0068897637795276
0
CIRCLE
8
BLACK
10
1.5299212204724408
20
0.6204724409448819
40
0.0068897637795276
0
CIRCLE
8
BLACK
10
1.6299212598425197
20
0.7204724409448818
40
0.0068897637795276
0
CIRCLE
8
BLACK
10
1.5299211811023621
20
0.7204724409448818
40
0.0068897637795276
0
CIRCLE
8
BLACK
10
1.6299212204724409
20
0.8204724409448819
40
0.0068897637795276
0
CIRCLE
8
BLACK
10
1.5299212204724408
20
0.8204724409448819
40
0.0068897637795276
0
CIRCLE
8
BLACK
10
0.8267716141732283
20
0.6204724409448819
40
0.0068897637795276
0
CIRCLE
8
BLACK
10
0.7267716141732283
20
0.6204724409448819
40
0.0068897637795276
0
CIRCLE
8
BLACK
10
0.8267716535433071
20
0.7204724409448818
40
0.0068897637795276
0
CIRCLE
8
BLACK
10
0.7267715748031496
20
0.7204724409448818
40
0.0068897637795276
0
CIRCLE
8
BLACK
10
0.8267716141732283
20
0.8204724409448819
40
0.0068897637795276
0
CIRCLE
8
BLACK
10
0.7267716141732283
20
0.8204724409448819
40
0.0068897637795276
0
CIRCLE
8
BLACK
10
0.305511811023622
20
0.4
40
0.0068897637795276
0
CIRCLE
8
BLACK
10
0.3331867716535433
20
0.4668132283464567
40
0.0068897637795276
0
CIRCLE
8
BLACK
10
0.3331867716535433
20
0.3331867716535433
40
0.0068897637795276
0
CIRCLE
8
BLACK
10
0.4
20
0.4944881889763779
40
0.0068897637795276
0
CIRCLE
8
BLACK
10
0.4
20
0.4
40
0.0068897637795276
0
CIRCLE
8
BLACK
10
0.4
20
0.305511811023622
40
0.0068897637795276
0
CIRCLE
8
BLACK
10
0.4668132283464567
20
0.4668132283464567
40
0.0068897637795276
0
CIRCLE
8
BLACK
10
0.4668132283464567
20
0.3331867716535433
40
0.0068897637795276
0
CIRCLE
8
BLACK
10
0.4944881889763779
20
0.4
40
0.0068897637795276
0
CIRCLE
8
BLACK
10
0.305511811023622
20
2.
40
0.0068897637795276
0
CIRCLE
8
BLACK
10
0.3331867716535433
20
2.0668132283464566
40
0.0068897637795276
0
CIRCLE
8
BLACK
10
0.3331867716535433
20
1.9331867716535434
40
0.0068897637795276
0
CIRCLE
8
BLACK
10
0.4
20
2.0944881889763778
40
0.0068897637795276
0
CIRCLE
8
BLACK
10
0.4
20
2.
40
0.0068897637795276
0
CIRCLE
8
BLACK
10
0.4
20
1.905511811023622
40
0.0068897637795276
0
CIRCLE
8
BLACK
10
0.4668132283464567
20
2.0668132283464566
40
0.0068897637795276
0
CIRCLE
8
BLACK
10
0.4668132283464567
20
1.9331867716535434
40
0.0068897637795276
0
CIRCLE
8
BLACK
10
0.4944881889763779
20
2.
40
0.0068897637795276
0
CIRCLE
8
BLACK
10
1.7283464566929134
20
0.4318897637795275
40
0.0068897637795276
0
CIRCLE
8
BLACK
10
1.7283464566929134
20
0.3318897637795276
40
0.0068897637795276
0
CIRCLE
8
BLACK
10
1.6283464566929133
20
0.4318897637795275
40
0.0068897637795276
0
CIRCLE
8
BLACK
10
1.6283464566929133
20
0.3318897637795276
40
0.0068897637795276
0
CIRCLE
8
BLACK
10
1.5283464566929132
20
0.4318897637795275
40
0.0068897637795276
0
CIRCLE
8
BLACK
10
1.5283464566929132
20
0.3318897637795276
40
0.0068897637795276
0
CIRCLE
8
BLACK
10
1.4283464566929134
20
0.4318898031496063
40
0.0068897637795276
0
CIRCLE
8
BLACK
10
1.4283464566929134
20
0.3318897244094488
40
0.0068897637795276
0
CIRCLE
8
BLACK
10
1.3283464566929133
20
0.4318897637795275
40
0.0068897637795276
0
CIRCLE
8
BLACK
10
1.3283464566929133
20
0.3318897637795276
40
0.0068897637795276
0
CIRCLE
8
BLACK
10
1.2283464566929134
20
0.4318897637795275
40
0.0068897637795276
0
CIRCLE
8
BLACK
10
1.2283464566929134
20
0.3318897637795276
40
0.0068897637795276
0
CIRCLE
8
BLACK
10
1.1283464566929133
20
0.4318897637795275
40
0.0068897637795276
0
CIRCLE
8
BLACK
10
1.1283464566929133
20
0.3318897637795276
40
0.0068897637795276
0
CIRCLE
8
BLACK
10
1.0283464566929135
20
0.4318897637795275
40
0.0068897637795276
0
CIRCLE
8
BLACK
10
1.0283464566929135
20
0.3318897637795276
40
0.0068897637795276
0
CIRCLE
8
BLACK
10
0.9283464566929134
20
0.4318898031496063
40
0.0068897637795276
0
CIRCLE
8
BLACK
10
0.9283464566929134
20
0.3318897244094488
40
0.0068897637795276
0
CIRCLE
8
BLACK
10
0.8283464566929134
20
0.4318897637795275
40
0.0068897637795276
0
CIRCLE
8
BLACK
10
0.8283464566929134
20
0.3318897637795276
40
0.0068897637795276
0
CIRCLE
8
BLACK
10
0.7283464566929134
20
0.4318897637795275
40
0.0068897637795276
0
CIRCLE
8
BLACK
10
0.7283464566929134
20
0.3318897637795276
40
0.0068897637795276
0
CIRCLE
8
BLACK
10
0.6283464566929133
20
0.4318897637795275
40
0.0068897637795276
0
CIRCLE
8
BLACK
10
0.6283464566929133
20
0.3318897637795276
40
0.0068897637795276
0
CIRCLE
8
BLACK
10
0.4188976377952756
20
0.6535433070866141
40
0.0068897637795276
0
CIRCLE
8
BLACK
10
0.3188976377952756
20
0.6535433070866141
40
0.0068897637795276
0
CIRCLE
8
BLACK
10
0.4188976377952756
20
0.7535433070866142
40
0.0068897637795276
0
CIRCLE
8
BLACK
10
0.3188976377952756
20
0.7535433070866142
40
0.0068897637795276
0
CIRCLE
8
BLACK
10
0.4188976377952756
20
0.8535433070866142
40
0.0068897637795276
0
CIRCLE
8
BLACK
10
0.3188976377952756
20
0.8535433070866142
40
0.0068897637795276
0
CIRCLE
8
BLACK
10
0.4188976771653543
20
0.9535433070866142
40
0.0068897637795276
0
CIRCLE
8
BLACK
10
0.3188975984251968
20
0.9535433070866142
40
0.0068897637795276
0
CIRCLE
8
BLACK
10
0.4188976377952756
20
1.0535433070866143
40
0.0068897637795276
0
CIRCLE
8
BLACK
10
0.3188976377952756
20
1.0535433070866143
40
0.0068897637795276
0
CIRCLE
8
BLACK
10
0.4188976377952756
20
1.1535433070866141
40
0.0068897637795276
0
CIRCLE
8
BLACK
10
0.3188976377952756
20
1.1535433070866141
40
0.0068897637795276
0
CIRCLE
8
BLACK
10
0.4188976377952756
20
1.2535433070866142
40
0.0068897637795276
0
CIRCLE
8
BLACK
10
0.3188976377952756
20
1.2535433070866142
40
0.0068897637795276
0
CIRCLE
8
BLACK
10
0.4188976377952756
20
1.3535433070866141
40
0.0068897637795276
0
CIRCLE
8
BLACK
10
0.3188976377952756
20
1.3535433070866141
40
0.0068897637795276
0
CIRCLE
8
BLACK
10
0.4188976771653543
20
1.4535433070866142
40
0.0068897637795276
0
CIRCLE
8
BLACK
10
0.3188975984251968
20
1.4535433070866142
40
0.0068897637795276
0
CIRCLE
8
BLACK
10
0.4188976377952756
20
1.553543307086614
40
0.0068897637795276
0
CIRCLE
8
BLACK
10
0.3188976377952756
20
1.553543307086614
40
0.0068897637795276
0
CIRCLE
8
BLACK
10
0.4188976377952756
20
1.6535433070866141
40
0.0068897637795276
0
CIRCLE
8
BLACK
10
0.3188976377952756
20
1.6535433070866141
40
0.0068897637795276
0
CIRCLE
8
BLACK
10
0.4188976377952756
20
1.7535433070866142
40
0.0068897637795276
0
CIRCLE
8
BLACK
10
0.3188976377952756
20
1.7535433070866142
40
0.0068897637795276
0
CIRCLE
8
BLACK
10
2.3622047244094486
20
1.7488188976377952
40
0.0068897637795276
0
CIRCLE
8
BLACK
10
2.4622047244094487
20
1.7488188976377952
40
0.0068897637795276
0
CIRCLE
8
BLACK
10
2.3622047244094486
20
1.6488188976377953
40
0.0068897637795276
0
CIRCLE
8
BLACK
10
2.4622047244094487
20
1.6488188976377953
40
0.0068897637795276
0
CIRCLE
8
BLACK
10
2.3622047244094486
20
1.5488188976377952
40
0.0068897637795276
0
CIRCLE
8
BLACK
10
2.4622047244094487
20
1.5488188976377952
40
0.0068897637795276
0
CIRCLE
8
BLACK
10
2.3622047244094486
20
1.4488188976377951
40
0.0068897637795276
0
CIRCLE
8
BLACK
10
2.4622047244094487
20
1.4488188976377951
40
0.0068897637795276
0
CIRCLE
8
BLACK
10
2.3622047244094486
20
1.3488188976377953
40
0.0068897637795276
0
CIRCLE
8
BLACK
10
2.4622047244094487
20
1.3488188976377953
40
0.0068897637795276
0
CIRCLE
8
BLACK
10
2.3622047244094486
20
1.2488188976377952
40
0.0068897637795276
0
CIRCLE
8
BLACK
10
2.4622047244094487
20
1.2488188976377952
40
0.0068897637795276
0
CIRCLE
8
BLACK
10
2.3622047244094486
20
1.1488188976377953
40
0.0068897637795276
0
CIRCLE
8
BLACK
10
2.4622047244094487
20
1.1488188976377953
40
0.0068897637795276
0
CIRCLE
8
BLACK
10
2.3622047244094486
20
1.0488188976377952
40
0.0068897637795276
0
CIRCLE
8
BLACK
10
2.4622047244094487
20
1.0488188976377952
40
0.0068897637795276
0
CIRCLE
8
BLACK
10
2.3622047244094486
20
0.9488188976377953
40
0.0068897637795276
0
CIRCLE
8
BLACK
10
2.4622047244094487
20
0.9488188976377953
40
0.0068897637795276
0
CIRCLE
8
BLACK
10
2.3622047244094486
20
0.8488188976377953
40
0.0068897637795276
0
CIRCLE
8
BLACK
10
2.4622047244094487
20
0.8488188976377953
40
0.0068897637795276
0
CIRCLE
8
BLACK
10
2.3622047244094486
20
0.7488188976377953
40
0.0068897637795276
0
CIRCLE
8
BLACK
10
2.4622047244094487
20
0.7488188976377953
40
0.0068897637795276
0
CIRCLE
8
BLACK
10
2.3622047244094486
20
0.6488188976377952
40
0.0068897637795276
0
CIRCLE
8
BLACK
10
2.4622047244094487
20
0.6488188976377952
40
0.0068897637795276
0
CIRCLE
8
BLACK
10
2.1535432677165356
20
0.8944881889763779
40
0.0068897637795276
0
CIRCLE
8
BLACK
10
2.0535432677165355
20
0.8944881889763779
40
0.0068897637795276
0
CIRCLE
8
BLACK
10
2.1535432677165356
20
0.9944881889763779
40
0.0068897637795276
0
CIRCLE
8
BLACK
10
2.0535432677165355
20
0.9944881889763779
40
0.0068897637795276
0
CIRCLE
8
BLACK
10
2.1535433070866143
20
1.094488188976378
40
0.0068897637795276
0
CIRCLE
8
BLACK
10
2.0535432283464568
20
1.094488188976378
40
0.0068897637795276
0
CIRCLE
8
BLACK
10
2.1535432677165356
20
1.1944881889763779
40
0.0068897637795276
0
CIRCLE
8
BLACK
10
2.0535432677165355
20
1.1944881889763779
40
0.0068897637795276
0
CIRCLE
8
BLACK
10
2.1535432677165356
20
1.294488188976378
40
0.0068897637795276
0
CIRCLE
8
BLACK
10
2.0535432677165355
20
1.294488188976378
40
0.0068897637795276
0
CIRCLE
8
BLACK
10
2.3055118110236221
20
2.
40
0.0068897637795276
0
CIRCLE
8
BLACK
10
2.3331867716535433
20
2.0668132283464566
40
0.0068897637795276
0
CIRCLE
8
BLACK
10
2.3331867716535433
20
1.9331867716535434
40
0.0068897637795276
0
CIRCLE
8
BLACK
10
2.3999999999999999
20
2.0944881889763778
40
0.0068897637795276
0
CIRCLE
8
BLACK
10
2.3999999999999999
20
2.
40
0.0068897637795276
0
CIRCLE
8
BLACK
10
2.3999999999999999
20
1.905511811023622
40
0.0068897637795276
0
CIRCLE
8
BLACK
10
2.4668132283464566
20
2.0668132283464566
40
0.0068897637795276
0
CIRCLE
8
BLACK
10
2.4668132283464566
20
1.9331867716535434
40
0.0068897637795276
0
CIRCLE
8
BLACK
10
2.4944881889763777
20
2.
40
0.0068897637795276
0
CIRCLE
8
BLACK
10
2.1456692913385824
20
0.4724409448818898
40
0.0068897637795276
0
CIRCLE
8
BLACK
10
1.918110157480315
20
0.4724409448818898
40
0.0068897637795276
0
LINE
8
BLACK
6
CONTINUOUS
10
2.1902585039370077
20
0.3448487401574803
11
2.1910564960629921
21
0.347826968503937
0
LINE
8
BLACK
6
CONTINUOUS
10
2.1910564960629921
20
0.347826968503937
11
2.1925981496062992
21
0.3504971653543307
0
LINE
8
BLACK
6
CONTINUOUS
10
2.1925981496062992
20
0.3504971653543307
11
2.1947783858267718
21
0.3526774015748032
0
LINE
8
BLACK
6
CONTINUOUS
10
2.1947783858267718
20
0.3526774015748032
11
2.1974485826771653
21
0.3542190551181102
0
LINE
8
BLACK
6
CONTINUOUS
10
2.1974485826771653
20
0.3542190551181102
11
2.2004268110236218
21
0.3550170472440945
0
LINE
8
BLACK
6
CONTINUOUS
10
2.2004268110236218
20
0.3550170472440945
11
2.2035101181102363
21
0.3550170472440945
0
LINE
8
BLACK
6
CONTINUOUS
10
2.2035101181102363
20
0.3550170472440945
11
2.2064883464566929
21
0.3542190551181102
0
LINE
8
BLACK
6
CONTINUOUS
10
2.2064883464566929
20
0.3542190551181102
11
2.2091585433070864
21
0.3526774015748032
0
LINE
8
BLACK
6
CONTINUOUS
10
2.2091585433070864
20
0.3526774015748032
11
2.211338779527559
21
0.3504971653543307
0
LINE
8
BLACK
6
CONTINUOUS
10
2.211338779527559
20
0.3504971653543307
11
2.212880433070866
21
0.347826968503937
0
LINE
8
BLACK
6
CONTINUOUS
10
2.212880433070866
20
0.347826968503937
11
2.2136784251968504
21
0.3448487401574803
0
LINE
8
BLACK
6
CONTINUOUS
10
2.2136784251968504
20
0.3448487401574803
11
2.2137794881889765
21
0.3433070866141732
0
LINE
8
BLACK
6
CONTINUOUS
10
2.2137794881889765
20
0.3433070866141732
11
2.2137794881889765
21
0.3118110236220472
0
LINE
8
BLACK
6
CONTINUOUS
10
2.2137794881889765
20
0.3118110236220472
11
2.2136784251968504
21
0.3102693700787402
0
LINE
8
BLACK
6
CONTINUOUS
10
2.2136784251968504
20
0.3102693700787402
11
2.212880433070866
21
0.3072911417322834
0
LINE
8
BLACK
6
CONTINUOUS
10
2.212880433070866
20
0.3072911417322834
11
2.211338779527559
21
0.3046209448818897
0
LINE
8
BLACK
6
CONTINUOUS
10
2.211338779527559
20
0.3046209448818897
11
2.2091585433070864
21
0.3024407086614173
0
LINE
8
BLACK
6
CONTINUOUS
10
2.2091585433070864
20
0.3024407086614173
11
2.2064883464566929
21
0.3008990551181102
0
LINE
8
BLACK
6
CONTINUOUS
10
2.2064883464566929
20
0.3008990551181102
11
2.2035101181102363
21
0.300101062992126
0
LINE
8
BLACK
6
CONTINUOUS
10
2.2035101181102363
20
0.300101062992126
11
2.2004268110236218
21
0.300101062992126
0
LINE
8
BLACK
6
CONTINUOUS
10
2.2004268110236218
20
0.300101062992126
11
2.1974485826771653
21
0.3008990551181102
0
LINE
8
BLACK
6
CONTINUOUS
10
2.1974485826771653
20
0.3008990551181102
11
2.1947783858267718
21
0.3024407086614173
0
LINE
8
BLACK
6
CONTINUOUS
10
2.1947783858267718
20
0.3024407086614173
11
2.1925981496062992
21
0.3046209448818897
0
LINE
8
BLACK
6
CONTINUOUS
10
2.1925981496062992
20
0.3046209448818897
11
2.1910564960629921
21
0.3072911417322834
0
LINE
8
BLACK
6
CONTINUOUS
10
2.1910564960629921
20
0.3072911417322834
11
2.1902585039370077
21
0.3102693700787402
0
LINE
8
BLACK
6
CONTINUOUS
10
2.1902585039370077
20
0.3102693700787402
11
2.1901574409448816
21
0.3118110236220472
0
LINE
8
BLACK
6
CONTINUOUS
10
2.1901574409448816
20
0.3118110236220472
11
2.1901574409448816
21
0.3433070866141732
0
LINE
8
BLACK
6
CONTINUOUS
10
2.1901574409448816
20
0.3433070866141732
11
2.1902585039370077
21
0.3448487401574803
0
LINE
8
BLACK
6
CONTINUOUS
10
1.8501010236220472
20
0.3448487401574803
11
1.8508990157480314
21
0.347826968503937
0
LINE
8
BLACK
6
CONTINUOUS
10
1.8508990157480314
20
0.347826968503937
11
1.8524406692913384
21
0.3504971653543307
0
LINE
8
BLACK
6
CONTINUOUS
10
1.8524406692913384
20
0.3504971653543307
11
1.854620905511811
21
0.3526774015748032
0
LINE
8
BLACK
6
CONTINUOUS
10
1.854620905511811
20
0.3526774015748032
11
1.8572911023622047
21
0.3542190551181102
0
LINE
8
BLACK
6
CONTINUOUS
10
1.8572911023622047
20
0.3542190551181102
11
1.8602693307086613
21
0.3550170472440945
0
LINE
8
BLACK
6
CONTINUOUS
10
1.8602693307086613
20
0.3550170472440945
11
1.8633526377952756
21
0.3550170472440945
0
LINE
8
BLACK
6
CONTINUOUS
10
1.8633526377952756
20
0.3550170472440945
11
1.8663308661417322
21
0.3542190551181102
0
LINE
8
BLACK
6
CONTINUOUS
10
1.8663308661417322
20
0.3542190551181102
11
1.8690010629921259
21
0.3526774015748032
0
LINE
8
BLACK
6
CONTINUOUS
10
1.8690010629921259
20
0.3526774015748032
11
1.8711812992125985
21
0.3504971653543307
0
LINE
8
BLACK
6
CONTINUOUS
10
1.8711812992125985
20
0.3504971653543307
11
1.8727229527559055
21
0.347826968503937
0
LINE
8
BLACK
6
CONTINUOUS
10
1.8727229527559055
20
0.347826968503937
11
1.8735209448818897
21
0.3448487401574803
0
LINE
8
BLACK
6
CONTINUOUS
10
1.8735209448818897
20
0.3448487401574803
11
1.8736220078740158
21
0.3433070866141732
0
LINE
8
BLACK
6
CONTINUOUS
10
1.8736220078740158
20
0.3433070866141732
11
1.8736220078740158
21
0.3118110236220472
0
LINE
8
BLACK
6
CONTINUOUS
10
1.8736220078740158
20
0.3118110236220472
11
1.8735209448818897
21
0.3102693700787402
0
LINE
8
BLACK
6
CONTINUOUS
10
1.8735209448818897
20
0.3102693700787402
11
1.8727229527559055
21
0.3072911417322834
0
LINE
8
BLACK
6
CONTINUOUS
10
1.8727229527559055
20
0.3072911417322834
11
1.8711812992125985
21
0.3046209448818897
0
LINE
8
BLACK
6
CONTINUOUS
10
1.8711812992125985
20
0.3046209448818897
11
1.8690010629921259
21
0.3024407086614173
0
LINE
8
BLACK
6
CONTINUOUS
10
1.8690010629921259
20
0.3024407086614173
11
1.8663308661417322
21
0.3008990551181102
0
LINE
8
BLACK
6
CONTINUOUS
10
1.8663308661417322
20
0.3008990551181102
11
1.8633526377952756
21
0.300101062992126
0
LINE
8
BLACK
6
CONTINUOUS
10
1.8633526377952756
20
0.300101062992126
11
1.8602693307086613
21
0.300101062992126
0
LINE
8
BLACK
6
CONTINUOUS
10
1.8602693307086613
20
0.300101062992126
11
1.8572911023622047
21
0.3008990551181102
0
LINE
8
BLACK
6
CONTINUOUS
10
1.8572911023622047
20
0.3008990551181102
11
1.854620905511811
21
0.3024407086614173
0
LINE
8
BLACK
6
CONTINUOUS
10
1.854620905511811
20
0.3024407086614173
11
1.8524406692913384
21
0.3046209448818897
0
LINE
8
BLACK
6
CONTINUOUS
10
1.8524406692913384
20
0.3046209448818897
11
1.8508990157480314
21
0.3072911417322834
0
LINE
8
BLACK
6
CONTINUOUS
10
1.8508990157480314
20
0.3072911417322834
11
1.8501010236220472
21
0.3102693700787402
0
LINE
8
BLACK
6
CONTINUOUS
10
1.8501010236220472
20
0.3102693700787402
11
1.8499999606299211
21
0.3118110236220472
0
LINE
8
BLACK
6
CONTINUOUS
10
1.8499999606299211
20
0.3118110236220472
11
1.8499999606299211
21
0.3433070866141732
0
LINE
8
BLACK
6
CONTINUOUS
10
1.8499999606299211
20
0.3433070866141732
11
1.8501010236220472
21
0.3448487401574803
0
LINE
8
BLACK
6
CONTINUOUS
10
2.1902585039370077
20
0.5153211811023622
11
2.1910564960629921
21
0.5182994094488189
0
LINE
8
BLACK
6
CONTINUOUS
10
2.1910564960629921
20
0.5182994094488189
11
2.1925981496062992
21
0.5209696062992126
0
LINE
8
BLACK
6
CONTINUOUS
10
2.1925981496062992
20
0.5209696062992126
11
2.1947783858267718
21
0.523149842519685
0
LINE
8
BLACK
6
CONTINUOUS
10
2.1947783858267718
20
0.523149842519685
11
2.1974485826771653
21
0.5246914960629921
0
LINE
8
BLACK
6
CONTINUOUS
10
2.1974485826771653
20
0.5246914960629921
11
2.2004268110236218
21
0.5254894881889763
0
LINE
8
BLACK
6
CONTINUOUS
10
2.2004268110236218
20
0.5254894881889763
11
2.2035101181102363
21
0.5254894881889763
0
LINE
8
BLACK
6
CONTINUOUS
10
2.2035101181102363
20
0.5254894881889763
11
2.2064883464566929
21
0.5246914960629921
0
LINE
8
BLACK
6
CONTINUOUS
10
2.2064883464566929
20
0.5246914960629921
11
2.2091585433070864
21
0.523149842519685
0
LINE
8
BLACK
6
CONTINUOUS
10
2.2091585433070864
20
0.523149842519685
11
2.211338779527559
21
0.5209696062992126
0
LINE
8
BLACK
6
CONTINUOUS
10
2.211338779527559
20
0.5209696062992126
11
2.212880433070866
21
0.5182994094488189
0
LINE
8
BLACK
6
CONTINUOUS
10
2.212880433070866
20
0.5182994094488189
11
2.2136784251968504
21
0.5153211811023622
0
LINE
8
BLACK
6
CONTINUOUS
10
2.2136784251968504
20
0.5153211811023622
11
2.2137794881889765
21
0.5137795275590551
0
LINE
8
BLACK
6
CONTINUOUS
10
2.2137794881889765
20
0.5137795275590551
11
2.2137794881889765
21
0.4704724409448819
0
LINE
8
BLACK
6
CONTINUOUS
10
2.2137794881889765
20
0.4704724409448819
11
2.2136784251968504
21
0.4689307874015748
0
LINE
8
BLACK
6
CONTINUOUS
10
2.2136784251968504
20
0.4689307874015748
11
2.212880433070866
21
0.4659525590551181
0
LINE
8
BLACK
6
CONTINUOUS
10
2.212880433070866
20
0.4659525590551181
11
2.211338779527559
21
0.4632823622047244
0
LINE
8
BLACK
6
CONTINUOUS
10
2.211338779527559
20
0.4632823622047244
11
2.2091585433070864
21
0.4611021259842519
0
LINE
8
BLACK
6
CONTINUOUS
10
2.2091585433070864
20
0.4611021259842519
11
2.2064883464566929
21
0.4595604724409449
0
LINE
8
BLACK
6
CONTINUOUS
10
2.2064883464566929
20
0.4595604724409449
11
2.2035101181102363
21
0.4587624803149606
0
LINE
8
BLACK
6
CONTINUOUS
10
2.2035101181102363
20
0.4587624803149606
11
2.2004268110236218
21
0.4587624803149606
0
LINE
8
BLACK
6
CONTINUOUS
10
2.2004268110236218
20
0.4587624803149606
11
2.1974485826771653
21
0.4595604724409449
0
LINE
8
BLACK
6
CONTINUOUS
10
2.1974485826771653
20
0.4595604724409449
11
2.1947783858267718
21
0.4611021259842519
0
LINE
8
BLACK
6
CONTINUOUS
10
2.1947783858267718
20
0.4611021259842519
11
2.1925981496062992
21
0.4632823622047244
0
LINE
8
BLACK
6
CONTINUOUS
10
2.1925981496062992
20
0.4632823622047244
11
2.1910564960629921
21
0.4659525590551181
0
LINE
8
BLACK
6
CONTINUOUS
10
2.1910564960629921
20
0.4659525590551181
11
2.1902585039370077
21
0.4689307874015748
0
LINE
8
BLACK
6
CONTINUOUS
10
2.1902585039370077
20
0.4689307874015748
11
2.1901574409448816
21
0.4704724409448819
0
LINE
8
BLACK
6
CONTINUOUS
10
2.1901574409448816
20
0.4704724409448819
11
2.1901574409448816
21
0.5137795275590551
0
LINE
8
BLACK
6
CONTINUOUS
10
2.1901574409448816
20
0.5137795275590551
11
2.1902585039370077
21
0.5153211811023622
0
LINE
8
BLACK
6
CONTINUOUS
10
1.8501010236220472
20
0.5153211811023622
11
1.8508990157480314
21
0.5182994094488189
0
LINE
8
BLACK
6
CONTINUOUS
10
1.8508990157480314
20
0.5182994094488189
11
1.8524406692913384
21
0.5209696062992126
0
LINE
8
BLACK
6
CONTINUOUS
10
1.8524406692913384
20
0.5209696062992126
11
1.854620905511811
21
0.523149842519685
0
LINE
8
BLACK
6
CONTINUOUS
10
1.854620905511811
20
0.523149842519685
11
1.8572911023622047
21
0.5246914960629921
0
LINE
8
BLACK
6
CONTINUOUS
10
1.8572911023622047
20
0.5246914960629921
11
1.8602693307086613
21
0.5254894881889763
0
LINE
8
BLACK
6
CONTINUOUS
10
1.8602693307086613
20
0.5254894881889763
11
1.8633526377952756
21
0.5254894881889763
0
LINE
8
BLACK
6
CONTINUOUS
10
1.8633526377952756
20
0.5254894881889763
11
1.8663308661417322
21
0.5246914960629921
0
LINE
8
BLACK
6
CONTINUOUS
10
1.8663308661417322
20
0.5246914960629921
11
1.8690010629921259
21
0.523149842519685
0
LINE
8
BLACK
6
CONTINUOUS
10
1.8690010629921259
20
0.523149842519685
11
1.8711812992125985
21
0.5209696062992126
0
LINE
8
BLACK
6
CONTINUOUS
10
1.8711812992125985
20
0.5209696062992126
11
1.8727229527559055
21
0.5182994094488189
0
LINE
8
BLACK
6
CONTINUOUS
10
1.8727229527559055
20
0.5182994094488189
11
1.8735209448818897
21
0.5153211811023622
0
LINE
8
BLACK
6
CONTINUOUS
10
1.8735209448818897
20
0.5153211811023622
11
1.8736220078740158
21
0.5137795275590551
0
LINE
8
BLACK
6
CONTINUOUS
10
1.8736220078740158
20
0.5137795275590551
11
1.8736220078740158
21
0.4704724409448819
0
LINE
8
BLACK
6
CONTINUOUS
10
1.8736220078740158
20
0.4704724409448819
11
1.8735209448818897
21
0.4689307874015748
0
LINE
8
BLACK
6
CONTINUOUS
10
1.8735209448818897
20
0.4689307874015748
11
1.8727229527559055
21
0.4659525590551181
0
LINE
8
BLACK
6
CONTINUOUS
10
1.8727229527559055
20
0.4659525590551181
11
1.8711812992125985
21
0.4632823622047244
0
LINE
8
BLACK
6
CONTINUOUS
10
1.8711812992125985
20
0.4632823622047244
11
1.8690010629921259
21
0.4611021259842519
0
LINE
8
BLACK
6
CONTINUOUS
10
1.8690010629921259
20
0.4611021259842519
11
1.8663308661417322
21
0.4595604724409449
0
LINE
8
BLACK
6
CONTINUOUS
10
1.8663308661417322
20
0.4595604724409449
11
1.8633526377952756
21
0.4587624803149606
0
LINE
8
BLACK
6
CONTINUOUS
10
1.8633526377952756
20
0.4587624803149606
11
1.8602693307086613
21
0.4587624803149606
0
LINE
8
BLACK
6
CONTINUOUS
10
1.8602693307086613
20
0.4587624803149606
11
1.8572911023622047
21
0.4595604724409449
0
LINE
8
BLACK
6
CONTINUOUS
10
1.8572911023622047
20
0.4595604724409449
11
1.854620905511811
21
0.4611021259842519
0
LINE
8
BLACK
6
CONTINUOUS
10
1.854620905511811
20
0.4611021259842519
11
1.8524406692913384
21
0.4632823622047244
0
LINE
8
BLACK
6
CONTINUOUS
10
1.8524406692913384
20
0.4632823622047244
11
1.8508990157480314
21
0.4659525590551181
0
LINE
8
BLACK
6
CONTINUOUS
10
1.8508990157480314
20
0.4659525590551181
11
1.8501010236220472
21
0.4689307874015748
0
LINE
8
BLACK
6
CONTINUOUS
10
1.8501010236220472
20
0.4689307874015748
11
1.8499999606299211
21
0.4704724409448819
0
LINE
8
BLACK
6
CONTINUOUS
10
1.8499999606299211
20
0.4704724409448819
11
1.8499999606299211
21
0.5137795275590551
0
LINE
8
BLACK
6
CONTINUOUS
10
1.8499999606299211
20
0.5137795275590551
11
1.8501010236220472
21
0.5153211811023622
0
LINE
8
BLACK
6
CONTINUOUS
10
0.6906738582677165
20
2.0372214566929134
11
0.6978649606299212
21
2.0357910629921259
0
LINE
8
BLACK
6
CONTINUOUS
10
0.6978649606299212
20
2.0357910629921259
11
0.7046388582677166
21
2.0329852362204726
0
LINE
8
BLACK
6
CONTINUOUS
10
0.7046388582677166
20
2.0329852362204726
11
0.7107351968503937
21
2.0289118110236219
0
LINE
8
BLACK
6
CONTINUOUS
10
0.7107351968503937
20
2.0289118110236219
11
0.7159196850393701
21
2.0237273228346457
0
LINE
8
BLACK
6
CONTINUOUS
10
0.7159196850393701
20
2.0237273228346457
11
0.7199931102362205
21
2.0176309842519684
0
LINE
8
BLACK
6
CONTINUOUS
10
0.7199931102362205
20
2.0176309842519684
11
0.722798937007874
21
2.0108570866141733
0
LINE
8
BLACK
6
CONTINUOUS
10
0.722798937007874
20
2.0108570866141733
11
0.7242293307086614
21
2.0036659842519686
0
LINE
8
BLACK
6
CONTINUOUS
10
0.7242293307086614
20
2.0036659842519686
11
0.7242293307086614
21
1.9963340157480314
0
LINE
8
BLACK
6
CONTINUOUS
10
0.7242293307086614
20
1.9963340157480314
11
0.722798937007874
21
1.9891429133858267
0
LINE
8
BLACK
6
CONTINUOUS
10
0.722798937007874
20
1.9891429133858267
11
0.7199931102362205
21
1.9823690157480314
0
LINE
8
BLACK
6
CONTINUOUS
10
0.7199931102362205
20
1.9823690157480314
11
0.7159196850393701
21
1.9762726771653543
0
LINE
8
BLACK
6
CONTINUOUS
10
0.7159196850393701
20
1.9762726771653543
11
0.7107351968503937
21
1.9710881889763778
0
LINE
8
BLACK
6
CONTINUOUS
10
0.7107351968503937
20
1.9710881889763778
11
0.7046388582677166
21
1.9670147637795274
0
LINE
8
BLACK
6
CONTINUOUS
10
0.7046388582677166
20
1.9670147637795274
11
0.6978649606299212
21
1.9642089370078739
0
LINE
8
BLACK
6
CONTINUOUS
10
0.6978649606299212
20
1.9642089370078739
11
0.6906738582677165
21
1.9627785433070866
0
LINE
8
BLACK
6
CONTINUOUS
10
0.6906738582677165
20
1.9627785433070866
11
0.687007874015748
21
1.9625984251968502
0
LINE
8
BLACK
6
CONTINUOUS
10
0.687007874015748
20
1.9625984251968502
11
0.6673228346456693
21
1.9625984251968502
0
LINE
8
BLACK
6
CONTINUOUS
10
0.6673228346456693
20
1.9625984251968502
11
0.6636568503937008
21
1.9627785433070866
0
LINE
8
BLACK
6
CONTINUOUS
10
0.6636568503937008
20
1.9627785433070866
11
0.656465748031496
21
1.9642089370078739
0
LINE
8
BLACK
6
CONTINUOUS
10
0.656465748031496
20
1.9642089370078739
11
0.6496918503937008
21
1.9670147637795274
0
LINE
8
BLACK
6
CONTINUOUS
10
0.6496918503937008
20
1.9670147637795274
11
0.6435955118110236
21
1.9710881889763778
0
LINE
8
BLACK
6
CONTINUOUS
10
0.6435955118110236
20
1.9710881889763778
11
0.6384110236220473
21
1.9762726771653543
0
LINE
8
BLACK
6
CONTINUOUS
10
0.6384110236220473
20
1.9762726771653543
11
0.6343375984251969
21
1.9823690157480314
0
LINE
8
BLACK
6
CONTINUOUS
10
0.6343375984251969
20
1.9823690157480314
11
0.6315317716535432
21
1.9891429133858267
0
LINE
8
BLACK
6
CONTINUOUS
10
0.6315317716535432
20
1.9891429133858267
11
0.6301013779527559
21
1.9963340157480314
0
LINE
8
BLACK
6
CONTINUOUS
10
0.6301013779527559
20
1.9963340157480314
11
0.6301013779527559
21
2.0036659842519686
0
LINE
8
BLACK
6
CONTINUOUS
10
0.6301013779527559
20
2.0036659842519686
11
0.6315317716535432
21
2.0108570866141733
0
LINE
8
BLACK
6
CONTINUOUS
10
0.6315317716535432
20
2.0108570866141733
11
0.6343375984251969
21
2.0176309842519684
0
LINE
8
BLACK
6
CONTINUOUS
10
0.6343375984251969
20
2.0176309842519684
11
0.6384110236220473
21
2.0237273228346457
0
LINE
8
BLACK
6
CONTINUOUS
10
0.6384110236220473
20
2.0237273228346457
11
0.6435955118110236
21
2.0289118110236219
0
LINE
8
BLACK
6
CONTINUOUS
10
0.6435955118110236
20
2.0289118110236219
11
0.6496918503937008
21
2.0329852362204726
0
LINE
8
BLACK
6
CONTINUOUS
10
0.6496918503937008
20
2.0329852362204726
11
0.656465748031496
21
2.0357910629921259
0
LINE
8
BLACK
6
CONTINUOUS
10
0.656465748031496
20
2.0357910629921259
11
0.6636568503937008
21
2.0372214566929134
0
LINE
8
BLACK
6
CONTINUOUS
10
0.6636568503937008
20
2.0372214566929134
11
0.6673228346456693
21
2.0374015748031495
0
LINE
8
BLACK
6
CONTINUOUS
10
0.6673228346456693
20
2.0374015748031495
11
0.687007874015748
21
2.0374015748031495
0
LINE
8
BLACK
6
CONTINUOUS
10
0.687007874015748
20
2.0374015748031495
11
0.6906738582677165
21
2.0372214566929134
0
LINE
8
BLACK
6
CONTINUOUS
10
2.1394927559055117
20
2.0372214566929134
11
2.1466838582677163
21
2.0357910629921259
0
LINE
8
BLACK
6
CONTINUOUS
10
2.1466838582677163
20
2.0357910629921259
11
2.1534577559055119
21
2.0329852362204726
0
LINE
8
BLACK
6
CONTINUOUS
10
2.1534577559055119
20
2.0329852362204726
11
2.1595540944881888
21
2.0289118110236219
0
LINE
8
BLACK
6
CONTINUOUS
10
2.1595540944881888
20
2.0289118110236219
11
2.1647385826771655
21
2.0237273228346457
0
LINE
8
BLACK
6
CONTINUOUS
10
2.1647385826771655
20
2.0237273228346457
11
2.1688120078740156
21
2.0176309842519684
0
LINE
8
BLACK
6
CONTINUOUS
10
2.1688120078740156
20
2.0176309842519684
11
2.1716178346456694
21
2.0108570866141733
0
LINE
8
BLACK
6
CONTINUOUS
10
2.1716178346456694
20
2.0108570866141733
11
2.1730482283464565
21
2.0036659842519686
0
LINE
8
BLACK
6
CONTINUOUS
10
2.1730482283464565
20
2.0036659842519686
11
2.1730482283464565
21
1.9963340157480314
0
LINE
8
BLACK
6
CONTINUOUS
10
2.1730482283464565
20
1.9963340157480314
11
2.1716178346456694
21
1.9891429133858267
0
LINE
8
BLACK
6
CONTINUOUS
10
2.1716178346456694
20
1.9891429133858267
11
2.1688120078740156
21
1.9823690157480314
0
LINE
8
BLACK
6
CONTINUOUS
10
2.1688120078740156
20
1.9823690157480314
11
2.1647385826771655
21
1.9762726771653543
0
LINE
8
BLACK
6
CONTINUOUS
10
2.1647385826771655
20
1.9762726771653543
11
2.1595540944881888
21
1.9710881889763778
0
LINE
8
BLACK
6
CONTINUOUS
10
2.1595540944881888
20
1.9710881889763778
11
2.1534577559055119
21
1.9670147637795274
0
LINE
8
BLACK
6
CONTINUOUS
10
2.1534577559055119
20
1.9670147637795274
11
2.1466838582677163
21
1.9642089370078739
0
LINE
8
BLACK
6
CONTINUOUS
10
2.1466838582677163
20
1.9642089370078739
11
2.1394927559055117
21
1.9627785433070866
0
LINE
8
BLACK
6
CONTINUOUS
10
2.1394927559055117
20
1.9627785433070866
11
2.1358267716535431
21
1.9625984251968502
0
LINE
8
BLACK
6
CONTINUOUS
10
2.1358267716535431
20
1.9625984251968502
11
2.1161417322834644
21
1.9625984251968502
0
LINE
8
BLACK
6
CONTINUOUS
10
2.1161417322834644
20
1.9625984251968502
11
2.1124757480314962
21
1.9627785433070866
0
LINE
8
BLACK
6
CONTINUOUS
10
2.1124757480314962
20
1.9627785433070866
11
2.1052846456692911
21
1.9642089370078739
0
LINE
8
BLACK
6
CONTINUOUS
10
2.1052846456692911
20
1.9642089370078739
11
2.098510748031496
21
1.9670147637795274
0
LINE
8
BLACK
6
CONTINUOUS
10
2.098510748031496
20
1.9670147637795274
11
2.0924144094488191
21
1.9710881889763778
0
LINE
8
BLACK
6
CONTINUOUS
10
2.0924144094488191
20
1.9710881889763778
11
2.0872299212598424
21
1.9762726771653543
0
LINE
8
BLACK
6
CONTINUOUS
10
2.0872299212598424
20
1.9762726771653543
11
2.0831564960629922
21
1.9823690157480314
0
LINE
8
BLACK
6
CONTINUOUS
10
2.0831564960629922
20
1.9823690157480314
11
2.0803506692913385
21
1.9891429133858267
0
LINE
8
BLACK
6
CONTINUOUS
10
2.0803506692913385
20
1.9891429133858267
11
2.0789202755905509
21
1.9963340157480314
0
LINE
8
BLACK
6
CONTINUOUS
10
2.0789202755905509
20
1.9963340157480314
11
2.0789202755905509
21
2.0036659842519686
0
LINE
8
BLACK
6
CONTINUOUS
10
2.0789202755905509
20
2.0036659842519686
11
2.0803506692913385
21
2.0108570866141733
0
LINE
8
BLACK
6
CONTINUOUS
10
2.0803506692913385
20
2.0108570866141733
11
2.0831564960629922
21
2.0176309842519684
0
LINE
8
BLACK
6
CONTINUOUS
10
2.0831564960629922
20
2.0176309842519684
11
2.0872299212598424
21
2.0237273228346457
0
LINE
8
BLACK
6
CONTINUOUS
10
2.0872299212598424
20
2.0237273228346457
11
2.0924144094488191
21
2.0289118110236219
0
LINE
8
BLACK
6
CONTINUOUS
10
2.0924144094488191
20
2.0289118110236219
11
2.098510748031496
21
2.0329852362204726
0
LINE
8
BLACK
6
CONTINUOUS
10
2.098510748031496
20
2.0329852362204726
11
2.1052846456692911
21
2.0357910629921259
0
LINE
8
BLACK
6
CONTINUOUS
10
2.1052846456692911
20
2.0357910629921259
11
2.1124757480314962
21
2.0372214566929134
0
LINE
8
BLACK
6
CONTINUOUS
10
2.1124757480314962
20
2.0372214566929134
11
2.1161417322834644
21
2.0374015748031495
0
LINE
8
BLACK
6
CONTINUOUS
10
2.1161417322834644
20
2.0374015748031495
11
2.1358267716535431
21
2.0374015748031495
0
LINE
8
BLACK
6
CONTINUOUS
10
2.1358267716535431
20
2.0374015748031495
11
2.1394927559055117
21
2.0372214566929134
0
CIRCLE
8
BLACK
10
2.3055118110236221
20
0.4
40
0.0068897637795276
0
CIRCLE
8
BLACK
10
2.3331867716535433
20
0.4668132283464567
40
0.0068897637795276
0
CIRCLE
8
BLACK
10
2.3331867716535433
20
0.3331867716535433
40
0.0068897637795276
0
CIRCLE
8
BLACK
10
2.3999999999999999
20
0.4944881889763779
40
0.0068897637795276
0
CIRCLE
8
BLACK
10
2.3999999999999999
20
0.4
40
0.0068897637795276
0
CIRCLE
8
BLACK
10
2.3999999999999999
20
0.305511811023622
40
0.0068897637795276
0
CIRCLE
8
BLACK
10
2.4668132283464566
20
0.4668132283464567
40
0.0068897637795276
0
CIRCLE
8
BLACK
10
2.4668132283464566
20
0.3331867716535433
40
0.0068897637795276
0
CIRCLE
8
BLACK
10
2.4944881889763777
20
0.4
40
0.0068897637795276
0
CIRCLE
8
BLACK
10
1.6299212204724409
20
0.6204724409448819
40
0.0068897637795276
0
CIRCLE
8
BLACK
10
1.5299212204724408
20
0.6204724409448819
40
0.0068897637795276
0
CIRCLE
8
BLACK
10
1.6299212598425197
20
0.7204724409448818
40
0.0068897637795276
0
CIRCLE
8
BLACK
10
1.5299211811023621
20
0.7204724409448818
40
0.0068897637795276
0
CIRCLE
8
BLACK
10
1.6299212204724409
20
0.8204724409448819
40
0.0068897637795276
0
CIRCLE
8
BLACK
10
1.5299212204724408
20
0.8204724409448819
40
0.0068897637795276
0
CIRCLE
8
BLACK
10
0.8267716141732283
20
0.6204724409448819
40
0.0068897637795276
0
CIRCLE
8
BLACK
10
0.7267716141732283
20
0.6204724409448819
40
0.0068897637795276
0
CIRCLE
8
BLACK
10
0.8267716535433071
20
0.7204724409448818
40
0.0068897637795276
0
CIRCLE
8
BLACK
10
0.7267715748031496
20
0.7204724409448818
40
0.0068897637795276
0
CIRCLE
8
BLACK
10
0.8267716141732283
20
0.8204724409448819
40
0.0068897637795276
0
CIRCLE
8
BLACK
10
0.7267716141732283
20
0.8204724409448819
40
0.0068897637795276
0
CIRCLE
8
BLACK
10
0.305511811023622
20
0.4
40
0.0068897637795276
0
CIRCLE
8
BLACK
10
0.3331867716535433
20
0.4668132283464567
40
0.0068897637795276
0
CIRCLE
8
BLACK
10
0.3331867716535433
20
0.3331867716535433
40
0.0068897637795276
0
CIRCLE
8
BLACK
10
0.4
20
0.4944881889763779
40
0.0068897637795276
0
CIRCLE
8
BLACK
10
0.4
20
0.4
40
0.0068897637795276
0
CIRCLE
8
BLACK
10
0.4
20
0.305511811023622
40
0.0068897637795276
0
CIRCLE
8
BLACK
10
0.4668132283464567
20
0.4668132283464567
40
0.0068897637795276
0
CIRCLE
8
BLACK
10
0.4668132283464567
20
0.3331867716535433
40
0.0068897637795276
0
CIRCLE
8
BLACK
10
0.4944881889763779
20
0.4
40
0.0068897637795276
0
CIRCLE
8
BLACK
10
0.305511811023622
20
2.
40
0.0068897637795276
0
CIRCLE
8
BLACK
10
0.3331867716535433
20
2.0668132283464566
40
0.0068897637795276
0
CIRCLE
8
BLACK
10
0.3331867716535433
20
1.9331867716535434
40
0.0068897637795276
0
CIRCLE
8
BLACK
10
0.4
20
2.0944881889763778
40
0.0068897637795276
0
CIRCLE
8
BLACK
10
0.4
20
2.
40
0.0068897637795276
0
CIRCLE
8
BLACK
10
0.4
20
1.905511811023622
40
0.0068897637795276
0
CIRCLE
8
BLACK
10
0.4668132283464567
20
2.0668132283464566
40
0.0068897637795276
0
CIRCLE
8
BLACK
10
0.4668132283464567
20
1.9331867716535434
40
0.0068897637795276
0
CIRCLE
8
BLACK
10
0.4944881889763779
20
2.
40
0.0068897637795276
0
CIRCLE
8
BLACK
10
1.7283464566929134
20
0.4318897637795275
40
0.0068897637795276
0
CIRCLE
8
BLACK
10
1.7283464566929134
20
0.3318897637795276
40
0.0068897637795276
0
CIRCLE
8
BLACK
10
1.6283464566929133
20
0.4318897637795275
40
0.0068897637795276
0
CIRCLE
8
BLACK
10
1.6283464566929133
20
0.3318897637795276
40
0.0068897637795276
0
CIRCLE
8
BLACK
10
1.5283464566929132
20
0.4318897637795275
40
0.0068897637795276
0
CIRCLE
8
BLACK
10
1.5283464566929132
20
0.3318897637795276
40
0.0068897637795276
0
CIRCLE
8
BLACK
10
1.4283464566929134
20
0.4318898031496063
40
0.0068897637795276
0
CIRCLE
8
BLACK
10
1.4283464566929134
20
0.3318897244094488
40
0.0068897637795276
0
CIRCLE
8
BLACK
10
1.3283464566929133
20
0.4318897637795275
40
0.0068897637795276
0
CIRCLE
8
BLACK
10
1.3283464566929133
20
0.3318897637795276
40
0.0068897637795276
0
CIRCLE
8
BLACK
10
1.2283464566929134
20
0.4318897637795275
40
0.0068897637795276
0
CIRCLE
8
BLACK
10
1.2283464566929134
20
0.3318897637795276
40
0.0068897637795276
0
CIRCLE
8
BLACK
10
1.1283464566929133
20
0.4318897637795275
40
0.0068897637795276
0
CIRCLE
8
BLACK
10
1.1283464566929133
20
0.3318897637795276
40
0.0068897637795276
0
CIRCLE
8
BLACK
10
1.0283464566929135
20
0.4318897637795275
40
0.0068897637795276
0
CIRCLE
8
BLACK
10
1.0283464566929135
20
0.3318897637795276
40
0.0068897637795276
0
CIRCLE
8
BLACK
10
0.9283464566929134
20
0.4318898031496063
40
0.0068897637795276
0
CIRCLE
8
BLACK
10
0.9283464566929134
20
0.3318897244094488
40
0.0068897637795276
0
CIRCLE
8
BLACK
10
0.8283464566929134
20
0.4318897637795275
40
0.0068897637795276
0
CIRCLE
8
BLACK
10
0.8283464566929134
20
0.3318897637795276
40
0.0068897637795276
0
CIRCLE
8
BLACK
10
0.7283464566929134
20
0.4318897637795275
40
0.0068897637795276
0
CIRCLE
8
BLACK
10
0.7283464566929134
20
0.3318897637795276
40
0.0068897637795276
0
CIRCLE
8
BLACK
10
0.6283464566929133
20
0.4318897637795275
40
0.0068897637795276
0
CIRCLE
8
BLACK
10
0.6283464566929133
20
0.3318897637795276
40
0.0068897637795276
0
CIRCLE
8
BLACK
10
0.4188976377952756
20
0.6535433070866141
40
0.0068897637795276
0
CIRCLE
8
BLACK
10
0.3188976377952756
20
0.6535433070866141
40
0.0068897637795276
0
CIRCLE
8
BLACK
10
0.4188976377952756
20
0.7535433070866142
40
0.0068897637795276
0
CIRCLE
8
BLACK
10
0.3188976377952756
20
0.7535433070866142
40
0.0068897637795276
0
CIRCLE
8
BLACK
10
0.4188976377952756
20
0.8535433070866142
40
0.0068897637795276
0
CIRCLE
8
BLACK
10
0.3188976377952756
20
0.8535433070866142
40
0.0068897637795276
0
CIRCLE
8
BLACK
10
0.4188976771653543
20
0.9535433070866142
40
0.0068897637795276
0
CIRCLE
8
BLACK
10
0.3188975984251968
20
0.9535433070866142
40
0.0068897637795276
0
CIRCLE
8
BLACK
10
0.4188976377952756
20
1.0535433070866143
40
0.0068897637795276
0
CIRCLE
8
BLACK
10
0.3188976377952756
20
1.0535433070866143
40
0.0068897637795276
0
CIRCLE
8
BLACK
10
0.4188976377952756
20
1.1535433070866141
40
0.0068897637795276
0
CIRCLE
8
BLACK
10
0.3188976377952756
20
1.1535433070866141
40
0.0068897637795276
0
CIRCLE
8
BLACK
10
0.4188976377952756
20
1.2535433070866142
40
0.0068897637795276
0
CIRCLE
8
BLACK
10
0.3188976377952756
20
1.2535433070866142
40
0.0068897637795276
0
CIRCLE
8
BLACK
10
0.4188976377952756
20
1.3535433070866141
40
0.0068897637795276
0
CIRCLE
8
BLACK
10
0.3188976377952756
20
1.3535433070866141
40
0.0068897637795276
0
CIRCLE
8
BLACK
10
0.4188976771653543
20
1.4535433070866142
40
0.0068897637795276
0
CIRCLE
8
BLACK
10
0.3188975984251968
20
1.4535433070866142
40
0.0068897637795276
0
CIRCLE
8
BLACK
10
0.4188976377952756
20
1.553543307086614
40
0.0068897637795276
0
CIRCLE
8
BLACK
10
0.3188976377952756
20
1.553543307086614
40
0.0068897637795276
0
CIRCLE
8
BLACK
10
0.4188976377952756
20
1.6535433070866141
40
0.0068897637795276
0
CIRCLE
8
BLACK
10
0.3188976377952756
20
1.6535433070866141
40
0.0068897637795276
0
CIRCLE
8
BLACK
10
0.4188976377952756
20
1.7535433070866142
40
0.0068897637795276
0
CIRCLE
8
BLACK
10
0.3188976377952756
20
1.7535433070866142
40
0.0068897637795276
0
CIRCLE
8
BLACK
10
2.3622047244094486
20
1.7488188976377952
40
0.0068897637795276
0
CIRCLE
8
BLACK
10
2.4622047244094487
20
1.7488188976377952
40
0.0068897637795276
0
CIRCLE
8
BLACK
10
2.3622047244094486
20
1.6488188976377953
40
0.0068897637795276
0
CIRCLE
8
BLACK
10
2.4622047244094487
20
1.6488188976377953
40
0.0068897637795276
0
CIRCLE
8
BLACK
10
2.3622047244094486
20
1.5488188976377952
40
0.0068897637795276
0
CIRCLE
8
BLACK
10
2.4622047244094487
20
1.5488188976377952
40
0.0068897637795276
0
CIRCLE
8
BLACK
10
2.3622047244094486
20
1.4488188976377951
40
0.0068897637795276
0
CIRCLE
8
BLACK
10
2.4622047244094487
20
1.4488188976377951
40
0.0068897637795276
0
CIRCLE
8
BLACK
10
2.3622047244094486
20
1.3488188976377953
40
0.0068897637795276
0
CIRCLE
8
BLACK
10
2.4622047244094487
20
1.3488188976377953
40
0.0068897637795276
0
CIRCLE
8
BLACK
10
2.3622047244094486
20
1.2488188976377952
40
0.0068897637795276
0
CIRCLE
8
BLACK
10
2.4622047244094487
20
1.2488188976377952
40
0.0068897637795276
0
CIRCLE
8
BLACK
10
2.3622047244094486
20
1.1488188976377953
40
0.0068897637795276
0
CIRCLE
8
BLACK
10
2.4622047244094487
20
1.1488188976377953
40
0.0068897637795276
0
CIRCLE
8
BLACK
10
2.3622047244094486
20
1.0488188976377952
40
0.0068897637795276
0
CIRCLE
8
BLACK
10
2.4622047244094487
20
1.0488188976377952
40
0.0068897637795276
0
CIRCLE
8
BLACK
10
2.3622047244094486
20
0.9488188976377953
40
0.0068897637795276
0
CIRCLE
8
BLACK
10
2.4622047244094487
20
0.9488188976377953
40
0.0068897637795276
0
CIRCLE
8
BLACK
10
2.3622047244094486
20
0.8488188976377953
40
0.0068897637795276
0
CIRCLE
8
BLACK
10
2.4622047244094487
20
0.8488188976377953
40
0.0068897637795276
0
CIRCLE
8
BLACK
10
2.3622047244094486
20
0.7488188976377953
40
0.0068897637795276
0
CIRCLE
8
BLACK
10
2.4622047244094487
20
0.7488188976377953
40
0.0068897637795276
0
CIRCLE
8
BLACK
10
2.3622047244094486
20
0.6488188976377952
40
0.0068897637795276
0
CIRCLE
8
BLACK
10
2.4622047244094487
20
0.6488188976377952
40
0.0068897637795276
0
CIRCLE
8
BLACK
10
2.1535432677165356
20
0.8944881889763779
40
0.0068897637795276
0
CIRCLE
8
BLACK
10
2.0535432677165355
20
0.8944881889763779
40
0.0068897637795276
0
CIRCLE
8
BLACK
10
2.1535432677165356
20
0.9944881889763779
40
0.0068897637795276
0
CIRCLE
8
BLACK
10
2.0535432677165355
20
0.9944881889763779
40
0.0068897637795276
0
CIRCLE
8
BLACK
10
2.1535433070866143
20
1.094488188976378
40
0.0068897637795276
0
CIRCLE
8
BLACK
10
2.0535432283464568
20
1.094488188976378
40
0.0068897637795276
0
CIRCLE
8
BLACK
10
2.1535432677165356
20
1.1944881889763779
40
0.0068897637795276
0
CIRCLE
8
BLACK
10
2.0535432677165355
20
1.1944881889763779
40
0.0068897637795276
0
CIRCLE
8
BLACK
10
2.1535432677165356
20
1.294488188976378
40
0.0068897637795276
0
CIRCLE
8
BLACK
10
2.0535432677165355
20
1.294488188976378
40
0.0068897637795276
0
CIRCLE
8
BLACK
10
2.3055118110236221
20
2.
40
0.0068897637795276
0
CIRCLE
8
BLACK
10
2.3331867716535433
20
2.0668132283464566
40
0.0068897637795276
0
CIRCLE
8
BLACK
10
2.3331867716535433
20
1.9331867716535434
40
0.0068897637795276
0
CIRCLE
8
BLACK
10
2.3999999999999999
20
2.0944881889763778
40
0.0068897637795276
0
CIRCLE
8
BLACK
10
2.3999999999999999
20
2.
40
0.0068897637795276
0
CIRCLE
8
BLACK
10
2.3999999999999999
20
1.905511811023622
40
0.0068897637795276
0
CIRCLE
8
BLACK
10
2.4668132283464566
20
2.0668132283464566
40
0.0068897637795276
0
CIRCLE
8
BLACK
10
2.4668132283464566
20
1.9331867716535434
40
0.0068897637795276
0
CIRCLE
8
BLACK
10
2.4944881889763777
20
2.
40
0.0068897637795276
0
CIRCLE
8
BLACK
10
2.1456692913385824
20
0.4724409448818898
40
0.0068897637795276
0
CIRCLE
8
BLACK
10
1.918110157480315
20
0.4724409448818898
40
0.0068897637795276
0
LINE
8
BLACK
6
CONTINUOUS
10
2.2137794881889765
20
0.3118110236220472
11
2.2137794881889765
21
0.3433070866141732
0
ARC
8
BLACK
10
2.2019684645669293
20
0.3433070866141732
40
0.0118110236220472
50
0.00000000
51
180.00000000
0
LINE
8
BLACK
6
CONTINUOUS
10
2.1901574409448816
20
0.3433070866141732
11
2.1901574409448816
21
0.3118110236220472
0
ARC
8
BLACK
10
2.2019684645669293
20
0.3118110236220472
40
0.0118110236220472
50
180.00000000
51
360.00000000
0
LINE
8
BLACK
6
CONTINUOUS
10
1.8736220078740158
20
0.3118110236220472
11
1.8736220078740158
21
0.3433070866141732
0
ARC
8
BLACK
10
1.8618109842519686
20
0.3433070866141732
40
0.0118110236220472
50
0.00000000
51
180.00000000
0
LINE
8
BLACK
6
CONTINUOUS
10
1.8499999606299211
20
0.3433070866141732
11
1.8499999606299211
21
0.3118110236220472
0
ARC
8
BLACK
10
1.8618109842519686
20
0.3118110236220472
40
0.0118110236220472
50
180.00000000
51
360.00000000
0
LINE
8
BLACK
6
CONTINUOUS
10
2.2137794881889765
20
0.4704724409448819
11
2.2137794881889765
21
0.5137795275590551
0
ARC
8
BLACK
10
2.2019684645669293
20
0.5137795275590551
40
0.0118110236220472
50
0.00000000
51
180.00000000
0
LINE
8
BLACK
6
CONTINUOUS
10
2.1901574409448816
20
0.5137795275590551
11
2.1901574409448816
21
0.4704724409448819
0
ARC
8
BLACK
10
2.2019684645669293
20
0.4704724409448819
40
0.0118110236220472
50
180.00000000
51
360.00000000
0
LINE
8
BLACK
6
CONTINUOUS
10
1.8736220078740158
20
0.4704724409448819
11
1.8736220078740158
21
0.5137795275590551
0
ARC
8
BLACK
10
1.8618109842519686
20
0.5137795275590551
40
0.0118110236220472
50
0.00000000
51
180.00000000
0
LINE
8
BLACK
6
CONTINUOUS
10
1.8499999606299211
20
0.5137795275590551
11
1.8499999606299211
21
0.4704724409448819
0
ARC
8
BLACK
10
1.8618109842519686
20
0.4704724409448819
40
0.0118110236220472
50
180.00000000
51
360.00000000
0
LINE
8
BLACK
6
CONTINUOUS
10
0.6673228346456693
20
1.962598464566929
11
0.687007874015748
21
1.962598464566929
0
ARC
8
BLACK
10
0.687007874015748
20
2.
40
0.0374015354330709
50
-90.00000000
51
90.00000000
0
LINE
8
BLACK
6
CONTINUOUS
10
0.687007874015748
20
2.0374015354330708
11
0.6673228346456693
21
2.0374015354330708
0
ARC
8
BLACK
10
0.6673228346456693
20
2.
40
0.0374015354330709
50
90.00000000
51
270.00000000
0
LINE
8
BLACK
6
CONTINUOUS
10
2.1358267716535431
20
2.0374015354330708
11
2.1161417322834644
21
2.0374015354330708
0
ARC
8
BLACK
10
2.1161417322834644
20
2.
40
0.0374015354330709
50
90.00000000
51
270.00000000
0
LINE
8
BLACK
6
CONTINUOUS
10
2.1161417322834644
20
1.962598464566929
11
2.1358267716535431
21
1.962598464566929
0
ARC
8
BLACK
10
2.1358267716535431
20
2.
40
0.0374015354330709
50
270.00000000
51
450.00000000
  0
ENDSEC
  0
EOF
