  0
SECTION
  2
HEADER
  9
$ANGBASE
  50
0.0
  9
$ANGDIR
  70
1
  9
$MEASUREMENT
  70
0
  0
ENDSEC
  0
SECTION
  2
TABLES
  0
TABLE
  2
LTYPE
  70
4
  0
LTYPE
  5
40F
  2
CONTINUOUS
  70
0
  3
Solid line
  72
65
  73
0
  40
0.0
  0
LTYPE
  5
410
  2
DASHDOT
 70
0
  3
Dash Dot ____ _ ____ _
 72
65
 73
4
 40
2.0
 49
1.25
 49
-0.25
 49
0.25
 49
-0.25
  0
LTYPE
  5
411
  2
DASHED
 70
0
  3
Dashed __ __ __ __ __
 72
65
 73
2
 40
0.75
 49
0.5
 49
-0.25
  0
LTYPE
  5
43B
  2
DOTTED
 70
0
  3
Dotted .  .  .  .
 72
65
 73
2
 40
0.2
 49
0.0
 49
-0.2
  0
ENDTAB
  0
TABLE
  2
STYLE
  70
4
  0
STYLE
  2
KICAD
  70
0
  40
0
  41
1
  42
1
  50
0
  71
0
  3
isocp.shx
  0
STYLE
  2
KICADB
  70
0
  40
0
  41
1
  42
1
  50
0
  71
0
  3
isocp.shx
  0
STYLE
  2
KICADI
  70
0
  40
0
  41
1
  42
1
  50
15
  71
0
  3
isocp.shx
  0
STYLE
  2
KICADBI
  70
0
  40
0
  41
1
  42
1
  50
15
  71
0
  3
isocp.shx
  0
ENDTAB
  0
TABLE
  2
LAYER
  70
1
  0
LAYER
  2
BLACK
  70
0
  62
7
  6
CONTINUOUS
  0
ENDTAB
  0
ENDSEC
  0
SECTION
  2
ENTITIES
0
CIRCLE
8
BLACK
10
2.3055118110236221
20
0.4
40
0.0068897637795276
0
CIRCLE
8
BLACK
10
2.3331867716535433
20
0.4668132283464567
40
0.0068897637795276
0
CIRCLE
8
BLACK
10
2.3331867716535433
20
0.3331867716535433
40
0.0068897637795276
0
CIRCLE
8
BLACK
10
2.3999999999999999
20
0.4944881889763779
40
0.0068897637795276
0
CIRCLE
8
BLACK
10
2.3999999999999999
20
0.4
40
0.0068897637795276
0
CIRCLE
8
BLACK
10
2.3999999999999999
20
0.305511811023622
40
0.0068897637795276
0
CIRCLE
8
BLACK
10
2.4668132283464566
20
0.4668132283464567
40
0.0068897637795276
0
CIRCLE
8
BLACK
10
2.4668132283464566
20
0.3331867716535433
40
0.0068897637795276
0
CIRCLE
8
BLACK
10
2.4944881889763777
20
0.4
40
0.0068897637795276
0
CIRCLE
8
BLACK
10
1.6299212204724409
20
0.6204724409448819
40
0.0068897637795276
0
CIRCLE
8
BLACK
10
1.5299212204724408
20
0.6204724409448819
40
0.0068897637795276
0
CIRCLE
8
BLACK
10
1.6299212598425197
20
0.7204724409448818
40
0.0068897637795276
0
CIRCLE
8
BLACK
10
1.5299211811023621
20
0.7204724409448818
40
0.0068897637795276
0
CIRCLE
8
BLACK
10
1.6299212204724409
20
0.8204724409448819
40
0.0068897637795276
0
CIRCLE
8
BLACK
10
1.5299212204724408
20
0.8204724409448819
40
0.0068897637795276
0
CIRCLE
8
BLACK
10
0.8267716141732283
20
0.6204724409448819
40
0.0068897637795276
0
CIRCLE
8
BLACK
10
0.7267716141732283
20
0.6204724409448819
40
0.0068897637795276
0
CIRCLE
8
BLACK
10
0.8267716535433071
20
0.7204724409448818
40
0.0068897637795276
0
CIRCLE
8
BLACK
10
0.7267715748031496
20
0.7204724409448818
40
0.0068897637795276
0
CIRCLE
8
BLACK
10
0.8267716141732283
20
0.8204724409448819
40
0.0068897637795276
0
CIRCLE
8
BLACK
10
0.7267716141732283
20
0.8204724409448819
40
0.0068897637795276
0
CIRCLE
8
BLACK
10
0.305511811023622
20
0.4
40
0.0068897637795276
0
CIRCLE
8
BLACK
10
0.3331867716535433
20
0.4668132283464567
40
0.0068897637795276
0
CIRCLE
8
BLACK
10
0.3331867716535433
20
0.3331867716535433
40
0.0068897637795276
0
CIRCLE
8
BLACK
10
0.4
20
0.4944881889763779
40
0.0068897637795276
0
CIRCLE
8
BLACK
10
0.4
20
0.4
40
0.0068897637795276
0
CIRCLE
8
BLACK
10
0.4
20
0.305511811023622
40
0.0068897637795276
0
CIRCLE
8
BLACK
10
0.4668132283464567
20
0.4668132283464567
40
0.0068897637795276
0
CIRCLE
8
BLACK
10
0.4668132283464567
20
0.3331867716535433
40
0.0068897637795276
0
CIRCLE
8
BLACK
10
0.4944881889763779
20
0.4
40
0.0068897637795276
0
CIRCLE
8
BLACK
10
0.305511811023622
20
2.
40
0.0068897637795276
0
CIRCLE
8
BLACK
10
0.3331867716535433
20
2.0668132283464566
40
0.0068897637795276
0
CIRCLE
8
BLACK
10
0.3331867716535433
20
1.9331867716535434
40
0.0068897637795276
0
CIRCLE
8
BLACK
10
0.4
20
2.0944881889763778
40
0.0068897637795276
0
CIRCLE
8
BLACK
10
0.4
20
2.
40
0.0068897637795276
0
CIRCLE
8
BLACK
10
0.4
20
1.905511811023622
40
0.0068897637795276
0
CIRCLE
8
BLACK
10
0.4668132283464567
20
2.0668132283464566
40
0.0068897637795276
0
CIRCLE
8
BLACK
10
0.4668132283464567
20
1.9331867716535434
40
0.0068897637795276
0
CIRCLE
8
BLACK
10
0.4944881889763779
20
2.
40
0.0068897637795276
0
CIRCLE
8
BLACK
10
1.7283464566929134
20
0.4318897637795275
40
0.0068897637795276
0
CIRCLE
8
BLACK
10
1.7283464566929134
20
0.3318897637795276
40
0.0068897637795276
0
CIRCLE
8
BLACK
10
1.6283464566929133
20
0.4318897637795275
40
0.0068897637795276
0
CIRCLE
8
BLACK
10
1.6283464566929133
20
0.3318897637795276
40
0.0068897637795276
0
CIRCLE
8
BLACK
10
1.5283464566929132
20
0.4318897637795275
40
0.0068897637795276
0
CIRCLE
8
BLACK
10
1.5283464566929132
20
0.3318897637795276
40
0.0068897637795276
0
CIRCLE
8
BLACK
10
1.4283464566929134
20
0.4318898031496063
40
0.0068897637795276
0
CIRCLE
8
BLACK
10
1.4283464566929134
20
0.3318897244094488
40
0.0068897637795276
0
CIRCLE
8
BLACK
10
1.3283464566929133
20
0.4318897637795275
40
0.0068897637795276
0
CIRCLE
8
BLACK
10
1.3283464566929133
20
0.3318897637795276
40
0.0068897637795276
0
CIRCLE
8
BLACK
10
1.2283464566929134
20
0.4318897637795275
40
0.0068897637795276
0
CIRCLE
8
BLACK
10
1.2283464566929134
20
0.3318897637795276
40
0.0068897637795276
0
CIRCLE
8
BLACK
10
1.1283464566929133
20
0.4318897637795275
40
0.0068897637795276
0
CIRCLE
8
BLACK
10
1.1283464566929133
20
0.3318897637795276
40
0.0068897637795276
0
CIRCLE
8
BLACK
10
1.0283464566929135
20
0.4318897637795275
40
0.0068897637795276
0
CIRCLE
8
BLACK
10
1.0283464566929135
20
0.3318897637795276
40
0.0068897637795276
0
CIRCLE
8
BLACK
10
0.9283464566929134
20
0.4318898031496063
40
0.0068897637795276
0
CIRCLE
8
BLACK
10
0.9283464566929134
20
0.3318897244094488
40
0.0068897637795276
0
CIRCLE
8
BLACK
10
0.8283464566929134
20
0.4318897637795275
40
0.0068897637795276
0
CIRCLE
8
BLACK
10
0.8283464566929134
20
0.3318897637795276
40
0.0068897637795276
0
CIRCLE
8
BLACK
10
0.7283464566929134
20
0.4318897637795275
40
0.0068897637795276
0
CIRCLE
8
BLACK
10
0.7283464566929134
20
0.3318897637795276
40
0.0068897637795276
0
CIRCLE
8
BLACK
10
0.6283464566929133
20
0.4318897637795275
40
0.0068897637795276
0
CIRCLE
8
BLACK
10
0.6283464566929133
20
0.3318897637795276
40
0.0068897637795276
0
CIRCLE
8
BLACK
10
0.4188976377952756
20
0.6535433070866141
40
0.0068897637795276
0
CIRCLE
8
BLACK
10
0.3188976377952756
20
0.6535433070866141
40
0.0068897637795276
0
CIRCLE
8
BLACK
10
0.4188976377952756
20
0.7535433070866142
40
0.0068897637795276
0
CIRCLE
8
BLACK
10
0.3188976377952756
20
0.7535433070866142
40
0.0068897637795276
0
CIRCLE
8
BLACK
10
0.4188976377952756
20
0.8535433070866142
40
0.0068897637795276
0
CIRCLE
8
BLACK
10
0.3188976377952756
20
0.8535433070866142
40
0.0068897637795276
0
CIRCLE
8
BLACK
10
0.4188976771653543
20
0.9535433070866142
40
0.0068897637795276
0
CIRCLE
8
BLACK
10
0.3188975984251968
20
0.9535433070866142
40
0.0068897637795276
0
CIRCLE
8
BLACK
10
0.4188976377952756
20
1.0535433070866143
40
0.0068897637795276
0
CIRCLE
8
BLACK
10
0.3188976377952756
20
1.0535433070866143
40
0.0068897637795276
0
CIRCLE
8
BLACK
10
0.4188976377952756
20
1.1535433070866141
40
0.0068897637795276
0
CIRCLE
8
BLACK
10
0.3188976377952756
20
1.1535433070866141
40
0.0068897637795276
0
CIRCLE
8
BLACK
10
0.4188976377952756
20
1.2535433070866142
40
0.0068897637795276
0
CIRCLE
8
BLACK
10
0.3188976377952756
20
1.2535433070866142
40
0.0068897637795276
0
CIRCLE
8
BLACK
10
0.4188976377952756
20
1.3535433070866141
40
0.0068897637795276
0
CIRCLE
8
BLACK
10
0.3188976377952756
20
1.3535433070866141
40
0.0068897637795276
0
CIRCLE
8
BLACK
10
0.4188976771653543
20
1.4535433070866142
40
0.0068897637795276
0
CIRCLE
8
BLACK
10
0.3188975984251968
20
1.4535433070866142
40
0.0068897637795276
0
CIRCLE
8
BLACK
10
0.4188976377952756
20
1.553543307086614
40
0.0068897637795276
0
CIRCLE
8
BLACK
10
0.3188976377952756
20
1.553543307086614
40
0.0068897637795276
0
CIRCLE
8
BLACK
10
0.4188976377952756
20
1.6535433070866141
40
0.0068897637795276
0
CIRCLE
8
BLACK
10
0.3188976377952756
20
1.6535433070866141
40
0.0068897637795276
0
CIRCLE
8
BLACK
10
0.4188976377952756
20
1.7535433070866142
40
0.0068897637795276
0
CIRCLE
8
BLACK
10
0.3188976377952756
20
1.7535433070866142
40
0.0068897637795276
0
CIRCLE
8
BLACK
10
2.3622047244094486
20
1.7488188976377952
40
0.0068897637795276
0
CIRCLE
8
BLACK
10
2.4622047244094487
20
1.7488188976377952
40
0.0068897637795276
0
CIRCLE
8
BLACK
10
2.3622047244094486
20
1.6488188976377953
40
0.0068897637795276
0
CIRCLE
8
BLACK
10
2.4622047244094487
20
1.6488188976377953
40
0.0068897637795276
0
CIRCLE
8
BLACK
10
2.3622047244094486
20
1.5488188976377952
40
0.0068897637795276
0
CIRCLE
8
BLACK
10
2.4622047244094487
20
1.5488188976377952
40
0.0068897637795276
0
CIRCLE
8
BLACK
10
2.3622047244094486
20
1.4488188976377951
40
0.0068897637795276
0
CIRCLE
8
BLACK
10
2.4622047244094487
20
1.4488188976377951
40
0.0068897637795276
0
CIRCLE
8
BLACK
10
2.3622047244094486
20
1.3488188976377953
40
0.0068897637795276
0
CIRCLE
8
BLACK
10
2.4622047244094487
20
1.3488188976377953
40
0.0068897637795276
0
CIRCLE
8
BLACK
10
2.3622047244094486
20
1.2488188976377952
40
0.0068897637795276
0
CIRCLE
8
BLACK
10
2.4622047244094487
20
1.2488188976377952
40
0.0068897637795276
0
CIRCLE
8
BLACK
10
2.3622047244094486
20
1.1488188976377953
40
0.0068897637795276
0
CIRCLE
8
BLACK
10
2.4622047244094487
20
1.1488188976377953
40
0.0068897637795276
0
CIRCLE
8
BLACK
10
2.3622047244094486
20
1.0488188976377952
40
0.0068897637795276
0
CIRCLE
8
BLACK
10
2.4622047244094487
20
1.0488188976377952
40
0.0068897637795276
0
CIRCLE
8
BLACK
10
2.3622047244094486
20
0.9488188976377953
40
0.0068897637795276
0
CIRCLE
8
BLACK
10
2.4622047244094487
20
0.9488188976377953
40
0.0068897637795276
0
CIRCLE
8
BLACK
10
2.3622047244094486
20
0.8488188976377953
40
0.0068897637795276
0
CIRCLE
8
BLACK
10
2.4622047244094487
20
0.8488188976377953
40
0.0068897637795276
0
CIRCLE
8
BLACK
10
2.3622047244094486
20
0.7488188976377953
40
0.0068897637795276
0
CIRCLE
8
BLACK
10
2.4622047244094487
20
0.7488188976377953
40
0.0068897637795276
0
CIRCLE
8
BLACK
10
2.3622047244094486
20
0.6488188976377952
40
0.0068897637795276
0
CIRCLE
8
BLACK
10
2.4622047244094487
20
0.6488188976377952
40
0.0068897637795276
0
CIRCLE
8
BLACK
10
2.1535432677165356
20
0.8944881889763779
40
0.0068897637795276
0
CIRCLE
8
BLACK
10
2.0535432677165355
20
0.8944881889763779
40
0.0068897637795276
0
CIRCLE
8
BLACK
10
2.1535432677165356
20
0.9944881889763779
40
0.0068897637795276
0
CIRCLE
8
BLACK
10
2.0535432677165355
20
0.9944881889763779
40
0.0068897637795276
0
CIRCLE
8
BLACK
10
2.1535433070866143
20
1.094488188976378
40
0.0068897637795276
0
CIRCLE
8
BLACK
10
2.0535432283464568
20
1.094488188976378
40
0.0068897637795276
0
CIRCLE
8
BLACK
10
2.1535432677165356
20
1.1944881889763779
40
0.0068897637795276
0
CIRCLE
8
BLACK
10
2.0535432677165355
20
1.1944881889763779
40
0.0068897637795276
0
CIRCLE
8
BLACK
10
2.1535432677165356
20
1.294488188976378
40
0.0068897637795276
0
CIRCLE
8
BLACK
10
2.0535432677165355
20
1.294488188976378
40
0.0068897637795276
0
CIRCLE
8
BLACK
10
2.3055118110236221
20
2.
40
0.0068897637795276
0
CIRCLE
8
BLACK
10
2.3331867716535433
20
2.0668132283464566
40
0.0068897637795276
0
CIRCLE
8
BLACK
10
2.3331867716535433
20
1.9331867716535434
40
0.0068897637795276
0
CIRCLE
8
BLACK
10
2.3999999999999999
20
2.0944881889763778
40
0.0068897637795276
0
CIRCLE
8
BLACK
10
2.3999999999999999
20
2.
40
0.0068897637795276
0
CIRCLE
8
BLACK
10
2.3999999999999999
20
1.905511811023622
40
0.0068897637795276
0
CIRCLE
8
BLACK
10
2.4668132283464566
20
2.0668132283464566
40
0.0068897637795276
0
CIRCLE
8
BLACK
10
2.4668132283464566
20
1.9331867716535434
40
0.0068897637795276
0
CIRCLE
8
BLACK
10
2.4944881889763777
20
2.
40
0.0068897637795276
0
CIRCLE
8
BLACK
10
2.1456692913385824
20
0.4724409448818898
40
0.0068897637795276
0
CIRCLE
8
BLACK
10
1.918110157480315
20
0.4724409448818898
40
0.0068897637795276
0
LINE
8
BLACK
6
CONTINUOUS
10
2.1902585039370077
20
0.3448487401574803
11
2.1910564960629921
21
0.347826968503937
0
LINE
8
BLACK
6
CONTINUOUS
10
2.1910564960629921
20
0.347826968503937
11
2.1925981496062992
21
0.3504971653543307
0
LINE
8
BLACK
6
CONTINUOUS
10
2.1925981496062992
20
0.3504971653543307
11
2.1947783858267718
21
0.3526774015748032
0
LINE
8
BLACK
6
CONTINUOUS
10
2.1947783858267718
20
0.3526774015748032
11
2.1974485826771653
21
0.3542190551181102
0
LINE
8
BLACK
6
CONTINUOUS
10
2.1974485826771653
20
0.3542190551181102
11
2.2004268110236218
21
0.3550170472440945
0
LINE
8
BLACK
6
CONTINUOUS
10
2.2004268110236218
20
0.3550170472440945
11
2.2035101181102363
21
0.3550170472440945
0
LINE
8
BLACK
6
CONTINUOUS
10
2.2035101181102363
20
0.3550170472440945
11
2.2064883464566929
21
0.3542190551181102
0
LINE
8
BLACK
6
CONTINUOUS
10
2.2064883464566929
20
0.3542190551181102
11
2.2091585433070864
21
0.3526774015748032
0
LINE
8
BLACK
6
CONTINUOUS
10
2.2091585433070864
20
0.3526774015748032
11
2.211338779527559
21
0.3504971653543307
0
LINE
8
BLACK
6
CONTINUOUS
10
2.211338779527559
20
0.3504971653543307
11
2.212880433070866
21
0.347826968503937
0
LINE
8
BLACK
6
CONTINUOUS
10
2.212880433070866
20
0.347826968503937
11
2.2136784251968504
21
0.3448487401574803
0
LINE
8
BLACK
6
CONTINUOUS
10
2.2136784251968504
20
0.3448487401574803
11
2.2137794881889765
21
0.3433070866141732
0
LINE
8
BLACK
6
CONTINUOUS
10
2.2137794881889765
20
0.3433070866141732
11
2.2137794881889765
21
0.3118110236220472
0
LINE
8
BLACK
6
CONTINUOUS
10
2.2137794881889765
20
0.3118110236220472
11
2.2136784251968504
21
0.3102693700787402
0
LINE
8
BLACK
6
CONTINUOUS
10
2.2136784251968504
20
0.3102693700787402
11
2.212880433070866
21
0.3072911417322834
0
LINE
8
BLACK
6
CONTINUOUS
10
2.212880433070866
20
0.3072911417322834
11
2.211338779527559
21
0.3046209448818897
0
LINE
8
BLACK
6
CONTINUOUS
10
2.211338779527559
20
0.3046209448818897
11
2.2091585433070864
21
0.3024407086614173
0
LINE
8
BLACK
6
CONTINUOUS
10
2.2091585433070864
20
0.3024407086614173
11
2.2064883464566929
21
0.3008990551181102
0
LINE
8
BLACK
6
CONTINUOUS
10
2.2064883464566929
20
0.3008990551181102
11
2.2035101181102363
21
0.300101062992126
0
LINE
8
BLACK
6
CONTINUOUS
10
2.2035101181102363
20
0.300101062992126
11
2.2004268110236218
21
0.300101062992126
0
LINE
8
BLACK
6
CONTINUOUS
10
2.2004268110236218
20
0.300101062992126
11
2.1974485826771653
21
0.3008990551181102
0
LINE
8
BLACK
6
CONTINUOUS
10
2.1974485826771653
20
0.3008990551181102
11
2.1947783858267718
21
0.3024407086614173
0
LINE
8
BLACK
6
CONTINUOUS
10
2.1947783858267718
20
0.3024407086614173
11
2.1925981496062992
21
0.3046209448818897
0
LINE
8
BLACK
6
CONTINUOUS
10
2.1925981496062992
20
0.3046209448818897
11
2.1910564960629921
21
0.3072911417322834
0
LINE
8
BLACK
6
CONTINUOUS
10
2.1910564960629921
20
0.3072911417322834
11
2.1902585039370077
21
0.3102693700787402
0
LINE
8
BLACK
6
CONTINUOUS
10
2.1902585039370077
20
0.3102693700787402
11
2.1901574409448816
21
0.3118110236220472
0
LINE
8
BLACK
6
CONTINUOUS
10
2.1901574409448816
20
0.3118110236220472
11
2.1901574409448816
21
0.3433070866141732
0
LINE
8
BLACK
6
CONTINUOUS
10
2.1901574409448816
20
0.3433070866141732
11
2.1902585039370077
21
0.3448487401574803
0
LINE
8
BLACK
6
CONTINUOUS
10
1.8501010236220472
20
0.3448487401574803
11
1.8508990157480314
21
0.347826968503937
0
LINE
8
BLACK
6
CONTINUOUS
10
1.8508990157480314
20
0.347826968503937
11
1.8524406692913384
21
0.3504971653543307
0
LINE
8
BLACK
6
CONTINUOUS
10
1.8524406692913384
20
0.3504971653543307
11
1.854620905511811
21
0.3526774015748032
0
LINE
8
BLACK
6
CONTINUOUS
10
1.854620905511811
20
0.3526774015748032
11
1.8572911023622047
21
0.3542190551181102
0
LINE
8
BLACK
6
CONTINUOUS
10
1.8572911023622047
20
0.3542190551181102
11
1.8602693307086613
21
0.3550170472440945
0
LINE
8
BLACK
6
CONTINUOUS
10
1.8602693307086613
20
0.3550170472440945
11
1.8633526377952756
21
0.3550170472440945
0
LINE
8
BLACK
6
CONTINUOUS
10
1.8633526377952756
20
0.3550170472440945
11
1.8663308661417322
21
0.3542190551181102
0
LINE
8
BLACK
6
CONTINUOUS
10
1.8663308661417322
20
0.3542190551181102
11
1.8690010629921259
21
0.3526774015748032
0
LINE
8
BLACK
6
CONTINUOUS
10
1.8690010629921259
20
0.3526774015748032
11
1.8711812992125985
21
0.3504971653543307
0
LINE
8
BLACK
6
CONTINUOUS
10
1.8711812992125985
20
0.3504971653543307
11
1.8727229527559055
21
0.347826968503937
0
LINE
8
BLACK
6
CONTINUOUS
10
1.8727229527559055
20
0.347826968503937
11
1.8735209448818897
21
0.3448487401574803
0
LINE
8
BLACK
6
CONTINUOUS
10
1.8735209448818897
20
0.3448487401574803
11
1.8736220078740158
21
0.3433070866141732
0
LINE
8
BLACK
6
CONTINUOUS
10
1.8736220078740158
20
0.3433070866141732
11
1.8736220078740158
21
0.3118110236220472
0
LINE
8
BLACK
6
CONTINUOUS
10
1.8736220078740158
20
0.3118110236220472
11
1.8735209448818897
21
0.3102693700787402
0
LINE
8
BLACK
6
CONTINUOUS
10
1.8735209448818897
20
0.3102693700787402
11
1.8727229527559055
21
0.3072911417322834
0
LINE
8
BLACK
6
CONTINUOUS
10
1.8727229527559055
20
0.3072911417322834
11
1.8711812992125985
21
0.3046209448818897
0
LINE
8
BLACK
6
CONTINUOUS
10
1.8711812992125985
20
0.3046209448818897
11
1.8690010629921259
21
0.3024407086614173
0
LINE
8
BLACK
6
CONTINUOUS
10
1.8690010629921259
20
0.3024407086614173
11
1.8663308661417322
21
0.3008990551181102
0
LINE
8
BLACK
6
CONTINUOUS
10
1.8663308661417322
20
0.3008990551181102
11
1.8633526377952756
21
0.300101062992126
0
LINE
8
BLACK
6
CONTINUOUS
10
1.8633526377952756
20
0.300101062992126
11
1.8602693307086613
21
0.300101062992126
0
LINE
8
BLACK
6
CONTINUOUS
10
1.8602693307086613
20
0.300101062992126
11
1.8572911023622047
21
0.3008990551181102
0
LINE
8
BLACK
6
CONTINUOUS
10
1.8572911023622047
20
0.3008990551181102
11
1.854620905511811
21
0.3024407086614173
0
LINE
8
BLACK
6
CONTINUOUS
10
1.854620905511811
20
0.3024407086614173
11
1.8524406692913384
21
0.3046209448818897
0
LINE
8
BLACK
6
CONTINUOUS
10
1.8524406692913384
20
0.3046209448818897
11
1.8508990157480314
21
0.3072911417322834
0
LINE
8
BLACK
6
CONTINUOUS
10
1.8508990157480314
20
0.3072911417322834
11
1.8501010236220472
21
0.3102693700787402
0
LINE
8
BLACK
6
CONTINUOUS
10
1.8501010236220472
20
0.3102693700787402
11
1.8499999606299211
21
0.3118110236220472
0
LINE
8
BLACK
6
CONTINUOUS
10
1.8499999606299211
20
0.3118110236220472
11
1.8499999606299211
21
0.3433070866141732
0
LINE
8
BLACK
6
CONTINUOUS
10
1.8499999606299211
20
0.3433070866141732
11
1.8501010236220472
21
0.3448487401574803
0
LINE
8
BLACK
6
CONTINUOUS
10
2.1902585039370077
20
0.5153211811023622
11
2.1910564960629921
21
0.5182994094488189
0
LINE
8
BLACK
6
CONTINUOUS
10
2.1910564960629921
20
0.5182994094488189
11
2.1925981496062992
21
0.5209696062992126
0
LINE
8
BLACK
6
CONTINUOUS
10
2.1925981496062992
20
0.5209696062992126
11
2.1947783858267718
21
0.523149842519685
0
LINE
8
BLACK
6
CONTINUOUS
10
2.1947783858267718
20
0.523149842519685
11
2.1974485826771653
21
0.5246914960629921
0
LINE
8
BLACK
6
CONTINUOUS
10
2.1974485826771653
20
0.5246914960629921
11
2.2004268110236218
21
0.5254894881889763
0
LINE
8
BLACK
6
CONTINUOUS
10
2.2004268110236218
20
0.5254894881889763
11
2.2035101181102363
21
0.5254894881889763
0
LINE
8
BLACK
6
CONTINUOUS
10
2.2035101181102363
20
0.5254894881889763
11
2.2064883464566929
21
0.5246914960629921
0
LINE
8
BLACK
6
CONTINUOUS
10
2.2064883464566929
20
0.5246914960629921
11
2.2091585433070864
21
0.523149842519685
0
LINE
8
BLACK
6
CONTINUOUS
10
2.2091585433070864
20
0.523149842519685
11
2.211338779527559
21
0.5209696062992126
0
LINE
8
BLACK
6
CONTINUOUS
10
2.211338779527559
20
0.5209696062992126
11
2.212880433070866
21
0.5182994094488189
0
LINE
8
BLACK
6
CONTINUOUS
10
2.212880433070866
20
0.5182994094488189
11
2.2136784251968504
21
0.5153211811023622
0
LINE
8
BLACK
6
CONTINUOUS
10
2.2136784251968504
20
0.5153211811023622
11
2.2137794881889765
21
0.5137795275590551
0
LINE
8
BLACK
6
CONTINUOUS
10
2.2137794881889765
20
0.5137795275590551
11
2.2137794881889765
21
0.4704724409448819
0
LINE
8
BLACK
6
CONTINUOUS
10
2.2137794881889765
20
0.4704724409448819
11
2.2136784251968504
21
0.4689307874015748
0
LINE
8
BLACK
6
CONTINUOUS
10
2.2136784251968504
20
0.4689307874015748
11
2.212880433070866
21
0.4659525590551181
0
LINE
8
BLACK
6
CONTINUOUS
10
2.212880433070866
20
0.4659525590551181
11
2.211338779527559
21
0.4632823622047244
0
LINE
8
BLACK
6
CONTINUOUS
10
2.211338779527559
20
0.4632823622047244
11
2.2091585433070864
21
0.4611021259842519
0
LINE
8
BLACK
6
CONTINUOUS
10
2.2091585433070864
20
0.4611021259842519
11
2.2064883464566929
21
0.4595604724409449
0
LINE
8
BLACK
6
CONTINUOUS
10
2.2064883464566929
20
0.4595604724409449
11
2.2035101181102363
21
0.4587624803149606
0
LINE
8
BLACK
6
CONTINUOUS
10
2.2035101181102363
20
0.4587624803149606
11
2.2004268110236218
21
0.4587624803149606
0
LINE
8
BLACK
6
CONTINUOUS
10
2.2004268110236218
20
0.4587624803149606
11
2.1974485826771653
21
0.4595604724409449
0
LINE
8
BLACK
6
CONTINUOUS
10
2.1974485826771653
20
0.4595604724409449
11
2.1947783858267718
21
0.4611021259842519
0
LINE
8
BLACK
6
CONTINUOUS
10
2.1947783858267718
20
0.4611021259842519
11
2.1925981496062992
21
0.4632823622047244
0
LINE
8
BLACK
6
CONTINUOUS
10
2.1925981496062992
20
0.4632823622047244
11
2.1910564960629921
21
0.4659525590551181
0
LINE
8
BLACK
6
CONTINUOUS
10
2.1910564960629921
20
0.4659525590551181
11
2.1902585039370077
21
0.4689307874015748
0
LINE
8
BLACK
6
CONTINUOUS
10
2.1902585039370077
20
0.4689307874015748
11
2.1901574409448816
21
0.4704724409448819
0
LINE
8
BLACK
6
CONTINUOUS
10
2.1901574409448816
20
0.4704724409448819
11
2.1901574409448816
21
0.5137795275590551
0
LINE
8
BLACK
6
CONTINUOUS
10
2.1901574409448816
20
0.5137795275590551
11
2.1902585039370077
21
0.5153211811023622
0
LINE
8
BLACK
6
CONTINUOUS
10
1.8501010236220472
20
0.5153211811023622
11
1.8508990157480314
21
0.5182994094488189
0
LINE
8
BLACK
6
CONTINUOUS
10
1.8508990157480314
20
0.5182994094488189
11
1.8524406692913384
21
0.5209696062992126
0
LINE
8
BLACK
6
CONTINUOUS
10
1.8524406692913384
20
0.5209696062992126
11
1.854620905511811
21
0.523149842519685
0
LINE
8
BLACK
6
CONTINUOUS
10
1.854620905511811
20
0.523149842519685
11
1.8572911023622047
21
0.5246914960629921
0
LINE
8
BLACK
6
CONTINUOUS
10
1.8572911023622047
20
0.5246914960629921
11
1.8602693307086613
21
0.5254894881889763
0
LINE
8
BLACK
6
CONTINUOUS
10
1.8602693307086613
20
0.5254894881889763
11
1.8633526377952756
21
0.5254894881889763
0
LINE
8
BLACK
6
CONTINUOUS
10
1.8633526377952756
20
0.5254894881889763
11
1.8663308661417322
21
0.5246914960629921
0
LINE
8
BLACK
6
CONTINUOUS
10
1.8663308661417322
20
0.5246914960629921
11
1.8690010629921259
21
0.523149842519685
0
LINE
8
BLACK
6
CONTINUOUS
10
1.8690010629921259
20
0.523149842519685
11
1.8711812992125985
21
0.5209696062992126
0
LINE
8
BLACK
6
CONTINUOUS
10
1.8711812992125985
20
0.5209696062992126
11
1.8727229527559055
21
0.5182994094488189
0
LINE
8
BLACK
6
CONTINUOUS
10
1.8727229527559055
20
0.5182994094488189
11
1.8735209448818897
21
0.5153211811023622
0
LINE
8
BLACK
6
CONTINUOUS
10
1.8735209448818897
20
0.5153211811023622
11
1.8736220078740158
21
0.5137795275590551
0
LINE
8
BLACK
6
CONTINUOUS
10
1.8736220078740158
20
0.5137795275590551
11
1.8736220078740158
21
0.4704724409448819
0
LINE
8
BLACK
6
CONTINUOUS
10
1.8736220078740158
20
0.4704724409448819
11
1.8735209448818897
21
0.4689307874015748
0
LINE
8
BLACK
6
CONTINUOUS
10
1.8735209448818897
20
0.4689307874015748
11
1.8727229527559055
21
0.4659525590551181
0
LINE
8
BLACK
6
CONTINUOUS
10
1.8727229527559055
20
0.4659525590551181
11
1.8711812992125985
21
0.4632823622047244
0
LINE
8
BLACK
6
CONTINUOUS
10
1.8711812992125985
20
0.4632823622047244
11
1.8690010629921259
21
0.4611021259842519
0
LINE
8
BLACK
6
CONTINUOUS
10
1.8690010629921259
20
0.4611021259842519
11
1.8663308661417322
21
0.4595604724409449
0
LINE
8
BLACK
6
CONTINUOUS
10
1.8663308661417322
20
0.4595604724409449
11
1.8633526377952756
21
0.4587624803149606
0
LINE
8
BLACK
6
CONTINUOUS
10
1.8633526377952756
20
0.4587624803149606
11
1.8602693307086613
21
0.4587624803149606
0
LINE
8
BLACK
6
CONTINUOUS
10
1.8602693307086613
20
0.4587624803149606
11
1.8572911023622047
21
0.4595604724409449
0
LINE
8
BLACK
6
CONTINUOUS
10
1.8572911023622047
20
0.4595604724409449
11
1.854620905511811
21
0.4611021259842519
0
LINE
8
BLACK
6
CONTINUOUS
10
1.854620905511811
20
0.4611021259842519
11
1.8524406692913384
21
0.4632823622047244
0
LINE
8
BLACK
6
CONTINUOUS
10
1.8524406692913384
20
0.4632823622047244
11
1.8508990157480314
21
0.4659525590551181
0
LINE
8
BLACK
6
CONTINUOUS
10
1.8508990157480314
20
0.4659525590551181
11
1.8501010236220472
21
0.4689307874015748
0
LINE
8
BLACK
6
CONTINUOUS
10
1.8501010236220472
20
0.4689307874015748
11
1.8499999606299211
21
0.4704724409448819
0
LINE
8
BLACK
6
CONTINUOUS
10
1.8499999606299211
20
0.4704724409448819
11
1.8499999606299211
21
0.5137795275590551
0
LINE
8
BLACK
6
CONTINUOUS
10
1.8499999606299211
20
0.5137795275590551
11
1.8501010236220472
21
0.5153211811023622
0
LINE
8
BLACK
6
CONTINUOUS
10
0.6906738582677165
20
2.0372214566929134
11
0.6978649606299212
21
2.0357910629921259
0
LINE
8
BLACK
6
CONTINUOUS
10
0.6978649606299212
20
2.0357910629921259
11
0.7046388582677166
21
2.0329852362204726
0
LINE
8
BLACK
6
CONTINUOUS
10
0.7046388582677166
20
2.0329852362204726
11
0.7107351968503937
21
2.0289118110236219
0
LINE
8
BLACK
6
CONTINUOUS
10
0.7107351968503937
20
2.0289118110236219
11
0.7159196850393701
21
2.0237273228346457
0
LINE
8
BLACK
6
CONTINUOUS
10
0.7159196850393701
20
2.0237273228346457
11
0.7199931102362205
21
2.0176309842519684
0
LINE
8
BLACK
6
CONTINUOUS
10
0.7199931102362205
20
2.0176309842519684
11
0.722798937007874
21
2.0108570866141733
0
LINE
8
BLACK
6
CONTINUOUS
10
0.722798937007874
20
2.0108570866141733
11
0.7242293307086614
21
2.0036659842519686
0
LINE
8
BLACK
6
CONTINUOUS
10
0.7242293307086614
20
2.0036659842519686
11
0.7242293307086614
21
1.9963340157480314
0
LINE
8
BLACK
6
CONTINUOUS
10
0.7242293307086614
20
1.9963340157480314
11
0.722798937007874
21
1.9891429133858267
0
LINE
8
BLACK
6
CONTINUOUS
10
0.722798937007874
20
1.9891429133858267
11
0.7199931102362205
21
1.9823690157480314
0
LINE
8
BLACK
6
CONTINUOUS
10
0.7199931102362205
20
1.9823690157480314
11
0.7159196850393701
21
1.9762726771653543
0
LINE
8
BLACK
6
CONTINUOUS
10
0.7159196850393701
20
1.9762726771653543
11
0.7107351968503937
21
1.9710881889763778
0
LINE
8
BLACK
6
CONTINUOUS
10
0.7107351968503937
20
1.9710881889763778
11
0.7046388582677166
21
1.9670147637795274
0
LINE
8
BLACK
6
CONTINUOUS
10
0.7046388582677166
20
1.9670147637795274
11
0.6978649606299212
21
1.9642089370078739
0
LINE
8
BLACK
6
CONTINUOUS
10
0.6978649606299212
20
1.9642089370078739
11
0.6906738582677165
21
1.9627785433070866
0
LINE
8
BLACK
6
CONTINUOUS
10
0.6906738582677165
20
1.9627785433070866
11
0.687007874015748
21
1.9625984251968502
0
LINE
8
BLACK
6
CONTINUOUS
10
0.687007874015748
20
1.9625984251968502
11
0.6673228346456693
21
1.9625984251968502
0
LINE
8
BLACK
6
CONTINUOUS
10
0.6673228346456693
20
1.9625984251968502
11
0.6636568503937008
21
1.9627785433070866
0
LINE
8
BLACK
6
CONTINUOUS
10
0.6636568503937008
20
1.9627785433070866
11
0.656465748031496
21
1.9642089370078739
0
LINE
8
BLACK
6
CONTINUOUS
10
0.656465748031496
20
1.9642089370078739
11
0.6496918503937008
21
1.9670147637795274
0
LINE
8
BLACK
6
CONTINUOUS
10
0.6496918503937008
20
1.9670147637795274
11
0.6435955118110236
21
1.9710881889763778
0
LINE
8
BLACK
6
CONTINUOUS
10
0.6435955118110236
20
1.9710881889763778
11
0.6384110236220473
21
1.9762726771653543
0
LINE
8
BLACK
6
CONTINUOUS
10
0.6384110236220473
20
1.9762726771653543
11
0.6343375984251969
21
1.9823690157480314
0
LINE
8
BLACK
6
CONTINUOUS
10
0.6343375984251969
20
1.9823690157480314
11
0.6315317716535432
21
1.9891429133858267
0
LINE
8
BLACK
6
CONTINUOUS
10
0.6315317716535432
20
1.9891429133858267
11
0.6301013779527559
21
1.9963340157480314
0
LINE
8
BLACK
6
CONTINUOUS
10
0.6301013779527559
20
1.9963340157480314
11
0.6301013779527559
21
2.0036659842519686
0
LINE
8
BLACK
6
CONTINUOUS
10
0.6301013779527559
20
2.0036659842519686
11
0.6315317716535432
21
2.0108570866141733
0
LINE
8
BLACK
6
CONTINUOUS
10
0.6315317716535432
20
2.0108570866141733
11
0.6343375984251969
21
2.0176309842519684
0
LINE
8
BLACK
6
CONTINUOUS
10
0.6343375984251969
20
2.0176309842519684
11
0.6384110236220473
21
2.0237273228346457
0
LINE
8
BLACK
6
CONTINUOUS
10
0.6384110236220473
20
2.0237273228346457
11
0.6435955118110236
21
2.0289118110236219
0
LINE
8
BLACK
6
CONTINUOUS
10
0.6435955118110236
20
2.0289118110236219
11
0.6496918503937008
21
2.0329852362204726
0
LINE
8
BLACK
6
CONTINUOUS
10
0.6496918503937008
20
2.0329852362204726
11
0.656465748031496
21
2.0357910629921259
0
LINE
8
BLACK
6
CONTINUOUS
10
0.656465748031496
20
2.0357910629921259
11
0.6636568503937008
21
2.0372214566929134
0
LINE
8
BLACK
6
CONTINUOUS
10
0.6636568503937008
20
2.0372214566929134
11
0.6673228346456693
21
2.0374015748031495
0
LINE
8
BLACK
6
CONTINUOUS
10
0.6673228346456693
20
2.0374015748031495
11
0.687007874015748
21
2.0374015748031495
0
LINE
8
BLACK
6
CONTINUOUS
10
0.687007874015748
20
2.0374015748031495
11
0.6906738582677165
21
2.0372214566929134
0
LINE
8
BLACK
6
CONTINUOUS
10
2.1394927559055117
20
2.0372214566929134
11
2.1466838582677163
21
2.0357910629921259
0
LINE
8
BLACK
6
CONTINUOUS
10
2.1466838582677163
20
2.0357910629921259
11
2.1534577559055119
21
2.0329852362204726
0
LINE
8
BLACK
6
CONTINUOUS
10
2.1534577559055119
20
2.0329852362204726
11
2.1595540944881888
21
2.0289118110236219
0
LINE
8
BLACK
6
CONTINUOUS
10
2.1595540944881888
20
2.0289118110236219
11
2.1647385826771655
21
2.0237273228346457
0
LINE
8
BLACK
6
CONTINUOUS
10
2.1647385826771655
20
2.0237273228346457
11
2.1688120078740156
21
2.0176309842519684
0
LINE
8
BLACK
6
CONTINUOUS
10
2.1688120078740156
20
2.0176309842519684
11
2.1716178346456694
21
2.0108570866141733
0
LINE
8
BLACK
6
CONTINUOUS
10
2.1716178346456694
20
2.0108570866141733
11
2.1730482283464565
21
2.0036659842519686
0
LINE
8
BLACK
6
CONTINUOUS
10
2.1730482283464565
20
2.0036659842519686
11
2.1730482283464565
21
1.9963340157480314
0
LINE
8
BLACK
6
CONTINUOUS
10
2.1730482283464565
20
1.9963340157480314
11
2.1716178346456694
21
1.9891429133858267
0
LINE
8
BLACK
6
CONTINUOUS
10
2.1716178346456694
20
1.9891429133858267
11
2.1688120078740156
21
1.9823690157480314
0
LINE
8
BLACK
6
CONTINUOUS
10
2.1688120078740156
20
1.9823690157480314
11
2.1647385826771655
21
1.9762726771653543
0
LINE
8
BLACK
6
CONTINUOUS
10
2.1647385826771655
20
1.9762726771653543
11
2.1595540944881888
21
1.9710881889763778
0
LINE
8
BLACK
6
CONTINUOUS
10
2.1595540944881888
20
1.9710881889763778
11
2.1534577559055119
21
1.9670147637795274
0
LINE
8
BLACK
6
CONTINUOUS
10
2.1534577559055119
20
1.9670147637795274
11
2.1466838582677163
21
1.9642089370078739
0
LINE
8
BLACK
6
CONTINUOUS
10
2.1466838582677163
20
1.9642089370078739
11
2.1394927559055117
21
1.9627785433070866
0
LINE
8
BLACK
6
CONTINUOUS
10
2.1394927559055117
20
1.9627785433070866
11
2.1358267716535431
21
1.9625984251968502
0
LINE
8
BLACK
6
CONTINUOUS
10
2.1358267716535431
20
1.9625984251968502
11
2.1161417322834644
21
1.9625984251968502
0
LINE
8
BLACK
6
CONTINUOUS
10
2.1161417322834644
20
1.9625984251968502
11
2.1124757480314962
21
1.9627785433070866
0
LINE
8
BLACK
6
CONTINUOUS
10
2.1124757480314962
20
1.9627785433070866
11
2.1052846456692911
21
1.9642089370078739
0
LINE
8
BLACK
6
CONTINUOUS
10
2.1052846456692911
20
1.9642089370078739
11
2.098510748031496
21
1.9670147637795274
0
LINE
8
BLACK
6
CONTINUOUS
10
2.098510748031496
20
1.9670147637795274
11
2.0924144094488191
21
1.9710881889763778
0
LINE
8
BLACK
6
CONTINUOUS
10
2.0924144094488191
20
1.9710881889763778
11
2.0872299212598424
21
1.9762726771653543
0
LINE
8
BLACK
6
CONTINUOUS
10
2.0872299212598424
20
1.9762726771653543
11
2.0831564960629922
21
1.9823690157480314
0
LINE
8
BLACK
6
CONTINUOUS
10
2.0831564960629922
20
1.9823690157480314
11
2.0803506692913385
21
1.9891429133858267
0
LINE
8
BLACK
6
CONTINUOUS
10
2.0803506692913385
20
1.9891429133858267
11
2.0789202755905509
21
1.9963340157480314
0
LINE
8
BLACK
6
CONTINUOUS
10
2.0789202755905509
20
1.9963340157480314
11
2.0789202755905509
21
2.0036659842519686
0
LINE
8
BLACK
6
CONTINUOUS
10
2.0789202755905509
20
2.0036659842519686
11
2.0803506692913385
21
2.0108570866141733
0
LINE
8
BLACK
6
CONTINUOUS
10
2.0803506692913385
20
2.0108570866141733
11
2.0831564960629922
21
2.0176309842519684
0
LINE
8
BLACK
6
CONTINUOUS
10
2.0831564960629922
20
2.0176309842519684
11
2.0872299212598424
21
2.0237273228346457
0
LINE
8
BLACK
6
CONTINUOUS
10
2.0872299212598424
20
2.0237273228346457
11
2.0924144094488191
21
2.0289118110236219
0
LINE
8
BLACK
6
CONTINUOUS
10
2.0924144094488191
20
2.0289118110236219
11
2.098510748031496
21
2.0329852362204726
0
LINE
8
BLACK
6
CONTINUOUS
10
2.098510748031496
20
2.0329852362204726
11
2.1052846456692911
21
2.0357910629921259
0
LINE
8
BLACK
6
CONTINUOUS
10
2.1052846456692911
20
2.0357910629921259
11
2.1124757480314962
21
2.0372214566929134
0
LINE
8
BLACK
6
CONTINUOUS
10
2.1124757480314962
20
2.0372214566929134
11
2.1161417322834644
21
2.0374015748031495
0
LINE
8
BLACK
6
CONTINUOUS
10
2.1161417322834644
20
2.0374015748031495
11
2.1358267716535431
21
2.0374015748031495
0
LINE
8
BLACK
6
CONTINUOUS
10
2.1358267716535431
20
2.0374015748031495
11
2.1394927559055117
21
2.0372214566929134
0
CIRCLE
8
BLACK
10
2.3055118110236221
20
0.4
40
0.0068897637795276
0
CIRCLE
8
BLACK
10
2.3331867716535433
20
0.4668132283464567
40
0.0068897637795276
0
CIRCLE
8
BLACK
10
2.3331867716535433
20
0.3331867716535433
40
0.0068897637795276
0
CIRCLE
8
BLACK
10
2.3999999999999999
20
0.4944881889763779
40
0.0068897637795276
0
CIRCLE
8
BLACK
10
2.3999999999999999
20
0.4
40
0.0068897637795276
0
CIRCLE
8
BLACK
10
2.3999999999999999
20
0.305511811023622
40
0.0068897637795276
0
CIRCLE
8
BLACK
10
2.4668132283464566
20
0.4668132283464567
40
0.0068897637795276
0
CIRCLE
8
BLACK
10
2.4668132283464566
20
0.3331867716535433
40
0.0068897637795276
0
CIRCLE
8
BLACK
10
2.4944881889763777
20
0.4
40
0.0068897637795276
0
CIRCLE
8
BLACK
10
1.6299212204724409
20
0.6204724409448819
40
0.0068897637795276
0
CIRCLE
8
BLACK
10
1.5299212204724408
20
0.6204724409448819
40
0.0068897637795276
0
CIRCLE
8
BLACK
10
1.6299212598425197
20
0.7204724409448818
40
0.0068897637795276
0
CIRCLE
8
BLACK
10
1.5299211811023621
20
0.7204724409448818
40
0.0068897637795276
0
CIRCLE
8
BLACK
10
1.6299212204724409
20
0.8204724409448819
40
0.0068897637795276
0
CIRCLE
8
BLACK
10
1.5299212204724408
20
0.8204724409448819
40
0.0068897637795276
0
CIRCLE
8
BLACK
10
0.8267716141732283
20
0.6204724409448819
40
0.0068897637795276
0
CIRCLE
8
BLACK
10
0.7267716141732283
20
0.6204724409448819
40
0.0068897637795276
0
CIRCLE
8
BLACK
10
0.8267716535433071
20
0.7204724409448818
40
0.0068897637795276
0
CIRCLE
8
BLACK
10
0.7267715748031496
20
0.7204724409448818
40
0.0068897637795276
0
CIRCLE
8
BLACK
10
0.8267716141732283
20
0.8204724409448819
40
0.0068897637795276
0
CIRCLE
8
BLACK
10
0.7267716141732283
20
0.8204724409448819
40
0.0068897637795276
0
CIRCLE
8
BLACK
10
0.305511811023622
20
0.4
40
0.0068897637795276
0
CIRCLE
8
BLACK
10
0.3331867716535433
20
0.4668132283464567
40
0.0068897637795276
0
CIRCLE
8
BLACK
10
0.3331867716535433
20
0.3331867716535433
40
0.0068897637795276
0
CIRCLE
8
BLACK
10
0.4
20
0.4944881889763779
40
0.0068897637795276
0
CIRCLE
8
BLACK
10
0.4
20
0.4
40
0.0068897637795276
0
CIRCLE
8
BLACK
10
0.4
20
0.305511811023622
40
0.0068897637795276
0
CIRCLE
8
BLACK
10
0.4668132283464567
20
0.4668132283464567
40
0.0068897637795276
0
CIRCLE
8
BLACK
10
0.4668132283464567
20
0.3331867716535433
40
0.0068897637795276
0
CIRCLE
8
BLACK
10
0.4944881889763779
20
0.4
40
0.0068897637795276
0
CIRCLE
8
BLACK
10
0.305511811023622
20
2.
40
0.0068897637795276
0
CIRCLE
8
BLACK
10
0.3331867716535433
20
2.0668132283464566
40
0.0068897637795276
0
CIRCLE
8
BLACK
10
0.3331867716535433
20
1.9331867716535434
40
0.0068897637795276
0
CIRCLE
8
BLACK
10
0.4
20
2.0944881889763778
40
0.0068897637795276
0
CIRCLE
8
BLACK
10
0.4
20
2.
40
0.0068897637795276
0
CIRCLE
8
BLACK
10
0.4
20
1.905511811023622
40
0.0068897637795276
0
CIRCLE
8
BLACK
10
0.4668132283464567
20
2.0668132283464566
40
0.0068897637795276
0
CIRCLE
8
BLACK
10
0.4668132283464567
20
1.9331867716535434
40
0.0068897637795276
0
CIRCLE
8
BLACK
10
0.4944881889763779
20
2.
40
0.0068897637795276
0
CIRCLE
8
BLACK
10
1.7283464566929134
20
0.4318897637795275
40
0.0068897637795276
0
CIRCLE
8
BLACK
10
1.7283464566929134
20
0.3318897637795276
40
0.0068897637795276
0
CIRCLE
8
BLACK
10
1.6283464566929133
20
0.4318897637795275
40
0.0068897637795276
0
CIRCLE
8
BLACK
10
1.6283464566929133
20
0.3318897637795276
40
0.0068897637795276
0
CIRCLE
8
BLACK
10
1.5283464566929132
20
0.4318897637795275
40
0.0068897637795276
0
CIRCLE
8
BLACK
10
1.5283464566929132
20
0.3318897637795276
40
0.0068897637795276
0
CIRCLE
8
BLACK
10
1.4283464566929134
20
0.4318898031496063
40
0.0068897637795276
0
CIRCLE
8
BLACK
10
1.4283464566929134
20
0.3318897244094488
40
0.0068897637795276
0
CIRCLE
8
BLACK
10
1.3283464566929133
20
0.4318897637795275
40
0.0068897637795276
0
CIRCLE
8
BLACK
10
1.3283464566929133
20
0.3318897637795276
40
0.0068897637795276
0
CIRCLE
8
BLACK
10
1.2283464566929134
20
0.4318897637795275
40
0.0068897637795276
0
CIRCLE
8
BLACK
10
1.2283464566929134
20
0.3318897637795276
40
0.0068897637795276
0
CIRCLE
8
BLACK
10
1.1283464566929133
20
0.4318897637795275
40
0.0068897637795276
0
CIRCLE
8
BLACK
10
1.1283464566929133
20
0.3318897637795276
40
0.0068897637795276
0
CIRCLE
8
BLACK
10
1.0283464566929135
20
0.4318897637795275
40
0.0068897637795276
0
CIRCLE
8
BLACK
10
1.0283464566929135
20
0.3318897637795276
40
0.0068897637795276
0
CIRCLE
8
BLACK
10
0.9283464566929134
20
0.4318898031496063
40
0.0068897637795276
0
CIRCLE
8
BLACK
10
0.9283464566929134
20
0.3318897244094488
40
0.0068897637795276
0
CIRCLE
8
BLACK
10
0.8283464566929134
20
0.4318897637795275
40
0.0068897637795276
0
CIRCLE
8
BLACK
10
0.8283464566929134
20
0.3318897637795276
40
0.0068897637795276
0
CIRCLE
8
BLACK
10
0.7283464566929134
20
0.4318897637795275
40
0.0068897637795276
0
CIRCLE
8
BLACK
10
0.7283464566929134
20
0.3318897637795276
40
0.0068897637795276
0
CIRCLE
8
BLACK
10
0.6283464566929133
20
0.4318897637795275
40
0.0068897637795276
0
CIRCLE
8
BLACK
10
0.6283464566929133
20
0.3318897637795276
40
0.0068897637795276
0
CIRCLE
8
BLACK
10
0.4188976377952756
20
0.6535433070866141
40
0.0068897637795276
0
CIRCLE
8
BLACK
10
0.3188976377952756
20
0.6535433070866141
40
0.0068897637795276
0
CIRCLE
8
BLACK
10
0.4188976377952756
20
0.7535433070866142
40
0.0068897637795276
0
CIRCLE
8
BLACK
10
0.3188976377952756
20
0.7535433070866142
40
0.0068897637795276
0
CIRCLE
8
BLACK
10
0.4188976377952756
20
0.8535433070866142
40
0.0068897637795276
0
CIRCLE
8
BLACK
10
0.3188976377952756
20
0.8535433070866142
40
0.0068897637795276
0
CIRCLE
8
BLACK
10
0.4188976771653543
20
0.9535433070866142
40
0.0068897637795276
0
CIRCLE
8
BLACK
10
0.3188975984251968
20
0.9535433070866142
40
0.0068897637795276
0
CIRCLE
8
BLACK
10
0.4188976377952756
20
1.0535433070866143
40
0.0068897637795276
0
CIRCLE
8
BLACK
10
0.3188976377952756
20
1.0535433070866143
40
0.0068897637795276
0
CIRCLE
8
BLACK
10
0.4188976377952756
20
1.1535433070866141
40
0.0068897637795276
0
CIRCLE
8
BLACK
10
0.3188976377952756
20
1.1535433070866141
40
0.0068897637795276
0
CIRCLE
8
BLACK
10
0.4188976377952756
20
1.2535433070866142
40
0.0068897637795276
0
CIRCLE
8
BLACK
10
0.3188976377952756
20
1.2535433070866142
40
0.0068897637795276
0
CIRCLE
8
BLACK
10
0.4188976377952756
20
1.3535433070866141
40
0.0068897637795276
0
CIRCLE
8
BLACK
10
0.3188976377952756
20
1.3535433070866141
40
0.0068897637795276
0
CIRCLE
8
BLACK
10
0.4188976771653543
20
1.4535433070866142
40
0.0068897637795276
0
CIRCLE
8
BLACK
10
0.3188975984251968
20
1.4535433070866142
40
0.0068897637795276
0
CIRCLE
8
BLACK
10
0.4188976377952756
20
1.553543307086614
40
0.0068897637795276
0
CIRCLE
8
BLACK
10
0.3188976377952756
20
1.553543307086614
40
0.0068897637795276
0
CIRCLE
8
BLACK
10
0.4188976377952756
20
1.6535433070866141
40
0.0068897637795276
0
CIRCLE
8
BLACK
10
0.3188976377952756
20
1.6535433070866141
40
0.0068897637795276
0
CIRCLE
8
BLACK
10
0.4188976377952756
20
1.7535433070866142
40
0.0068897637795276
0
CIRCLE
8
BLACK
10
0.3188976377952756
20
1.7535433070866142
40
0.0068897637795276
0
CIRCLE
8
BLACK
10
2.3622047244094486
20
1.7488188976377952
40
0.0068897637795276
0
CIRCLE
8
BLACK
10
2.4622047244094487
20
1.7488188976377952
40
0.0068897637795276
0
CIRCLE
8
BLACK
10
2.3622047244094486
20
1.6488188976377953
40
0.0068897637795276
0
CIRCLE
8
BLACK
10
2.4622047244094487
20
1.6488188976377953
40
0.0068897637795276
0
CIRCLE
8
BLACK
10
2.3622047244094486
20
1.5488188976377952
40
0.0068897637795276
0
CIRCLE
8
BLACK
10
2.4622047244094487
20
1.5488188976377952
40
0.0068897637795276
0
CIRCLE
8
BLACK
10
2.3622047244094486
20
1.4488188976377951
40
0.0068897637795276
0
CIRCLE
8
BLACK
10
2.4622047244094487
20
1.4488188976377951
40
0.0068897637795276
0
CIRCLE
8
BLACK
10
2.3622047244094486
20
1.3488188976377953
40
0.0068897637795276
0
CIRCLE
8
BLACK
10
2.4622047244094487
20
1.3488188976377953
40
0.0068897637795276
0
CIRCLE
8
BLACK
10
2.3622047244094486
20
1.2488188976377952
40
0.0068897637795276
0
CIRCLE
8
BLACK
10
2.4622047244094487
20
1.2488188976377952
40
0.0068897637795276
0
CIRCLE
8
BLACK
10
2.3622047244094486
20
1.1488188976377953
40
0.0068897637795276
0
CIRCLE
8
BLACK
10
2.4622047244094487
20
1.1488188976377953
40
0.0068897637795276
0
CIRCLE
8
BLACK
10
2.3622047244094486
20
1.0488188976377952
40
0.0068897637795276
0
CIRCLE
8
BLACK
10
2.4622047244094487
20
1.0488188976377952
40
0.0068897637795276
0
CIRCLE
8
BLACK
10
2.3622047244094486
20
0.9488188976377953
40
0.0068897637795276
0
CIRCLE
8
BLACK
10
2.4622047244094487
20
0.9488188976377953
40
0.0068897637795276
0
CIRCLE
8
BLACK
10
2.3622047244094486
20
0.8488188976377953
40
0.0068897637795276
0
CIRCLE
8
BLACK
10
2.4622047244094487
20
0.8488188976377953
40
0.0068897637795276
0
CIRCLE
8
BLACK
10
2.3622047244094486
20
0.7488188976377953
40
0.0068897637795276
0
CIRCLE
8
BLACK
10
2.4622047244094487
20
0.7488188976377953
40
0.0068897637795276
0
CIRCLE
8
BLACK
10
2.3622047244094486
20
0.6488188976377952
40
0.0068897637795276
0
CIRCLE
8
BLACK
10
2.4622047244094487
20
0.6488188976377952
40
0.0068897637795276
0
CIRCLE
8
BLACK
10
2.1535432677165356
20
0.8944881889763779
40
0.0068897637795276
0
CIRCLE
8
BLACK
10
2.0535432677165355
20
0.8944881889763779
40
0.0068897637795276
0
CIRCLE
8
BLACK
10
2.1535432677165356
20
0.9944881889763779
40
0.0068897637795276
0
CIRCLE
8
BLACK
10
2.0535432677165355
20
0.9944881889763779
40
0.0068897637795276
0
CIRCLE
8
BLACK
10
2.1535433070866143
20
1.094488188976378
40
0.0068897637795276
0
CIRCLE
8
BLACK
10
2.0535432283464568
20
1.094488188976378
40
0.0068897637795276
0
CIRCLE
8
BLACK
10
2.1535432677165356
20
1.1944881889763779
40
0.0068897637795276
0
CIRCLE
8
BLACK
10
2.0535432677165355
20
1.1944881889763779
40
0.0068897637795276
0
CIRCLE
8
BLACK
10
2.1535432677165356
20
1.294488188976378
40
0.0068897637795276
0
CIRCLE
8
BLACK
10
2.0535432677165355
20
1.294488188976378
40
0.0068897637795276
0
CIRCLE
8
BLACK
10
2.3055118110236221
20
2.
40
0.0068897637795276
0
CIRCLE
8
BLACK
10
2.3331867716535433
20
2.0668132283464566
40
0.0068897637795276
0
CIRCLE
8
BLACK
10
2.3331867716535433
20
1.9331867716535434
40
0.0068897637795276
0
CIRCLE
8
BLACK
10
2.3999999999999999
20
2.0944881889763778
40
0.0068897637795276
0
CIRCLE
8
BLACK
10
2.3999999999999999
20
2.
40
0.0068897637795276
0
CIRCLE
8
BLACK
10
2.3999999999999999
20
1.905511811023622
40
0.0068897637795276
0
CIRCLE
8
BLACK
10
2.4668132283464566
20
2.0668132283464566
40
0.0068897637795276
0
CIRCLE
8
BLACK
10
2.4668132283464566
20
1.9331867716535434
40
0.0068897637795276
0
CIRCLE
8
BLACK
10
2.4944881889763777
20
2.
40
0.0068897637795276
0
CIRCLE
8
BLACK
10
2.1456692913385824
20
0.4724409448818898
40
0.0068897637795276
0
CIRCLE
8
BLACK
10
1.918110157480315
20
0.4724409448818898
40
0.0068897637795276
0
LINE
8
BLACK
6
CONTINUOUS
10
2.2137794881889765
20
0.3118110236220472
11
2.2137794881889765
21
0.3433070866141732
0
ARC
8
BLACK
10
2.2019684645669293
20
0.3433070866141732
40
0.0118110236220472
50
0.00000000
51
180.00000000
0
LINE
8
BLACK
6
CONTINUOUS
10
2.1901574409448816
20
0.3433070866141732
11
2.1901574409448816
21
0.3118110236220472
0
ARC
8
BLACK
10
2.2019684645669293
20
0.3118110236220472
40
0.0118110236220472
50
180.00000000
51
360.00000000
0
LINE
8
BLACK
6
CONTINUOUS
10
1.8736220078740158
20
0.3118110236220472
11
1.8736220078740158
21
0.3433070866141732
0
ARC
8
BLACK
10
1.8618109842519686
20
0.3433070866141732
40
0.0118110236220472
50
0.00000000
51
180.00000000
0
LINE
8
BLACK
6
CONTINUOUS
10
1.8499999606299211
20
0.3433070866141732
11
1.8499999606299211
21
0.3118110236220472
0
ARC
8
BLACK
10
1.8618109842519686
20
0.3118110236220472
40
0.0118110236220472
50
180.00000000
51
360.00000000
0
LINE
8
BLACK
6
CONTINUOUS
10
2.2137794881889765
20
0.4704724409448819
11
2.2137794881889765
21
0.5137795275590551
0
ARC
8
BLACK
10
2.2019684645669293
20
0.5137795275590551
40
0.0118110236220472
50
0.00000000
51
180.00000000
0
LINE
8
BLACK
6
CONTINUOUS
10
2.1901574409448816
20
0.5137795275590551
11
2.1901574409448816
21
0.4704724409448819
0
ARC
8
BLACK
10
2.2019684645669293
20
0.4704724409448819
40
0.0118110236220472
50
180.00000000
51
360.00000000
0
LINE
8
BLACK
6
CONTINUOUS
10
1.8736220078740158
20
0.4704724409448819
11
1.8736220078740158
21
0.5137795275590551
0
ARC
8
BLACK
10
1.8618109842519686
20
0.5137795275590551
40
0.0118110236220472
50
0.00000000
51
180.00000000
0
LINE
8
BLACK
6
CONTINUOUS
10
1.8499999606299211
20
0.5137795275590551
11
1.8499999606299211
21
0.4704724409448819
0
ARC
8
BLACK
10
1.8618109842519686
20
0.4704724409448819
40
0.0118110236220472
50
180.00000000
51
360.00000000
0
LINE
8
BLACK
6
CONTINUOUS
10
0.6673228346456693
20
1.962598464566929
11
0.687007874015748
21
1.962598464566929
0
ARC
8
BLACK
10
0.687007874015748
20
2.
40
0.0374015354330709
50
-90.00000000
51
90.00000000
0
LINE
8
BLACK
6
CONTINUOUS
10
0.687007874015748
20
2.0374015354330708
11
0.6673228346456693
21
2.0374015354330708
0
ARC
8
BLACK
10
0.6673228346456693
20
2.
40
0.0374015354330709
50
90.00000000
51
270.00000000
0
LINE
8
BLACK
6
CONTINUOUS
10
2.1161417322834644
20
1.962598464566929
11
2.1358267716535431
21
1.962598464566929
0
ARC
8
BLACK
10
2.1358267716535431
20
2.
40
0.0374015354330709
50
-90.00000000
51
90.00000000
0
LINE
8
BLACK
6
CONTINUOUS
10
2.1358267716535431
20
2.0374015354330708
11
2.1161417322834644
21
2.0374015354330708
0
ARC
8
BLACK
10
2.1161417322834644
20
2.
40
0.0374015354330709
50
90.00000000
51
270.00000000
  0
ENDSEC
  0
EOF
