  0
SECTION
  2
HEADER
  9
$ANGBASE
  50
0.0
  9
$ANGDIR
  70
1
  9
$MEASUREMENT
  70
0
  0
ENDSEC
  0
SECTION
  2
TABLES
  0
TABLE
  2
LTYPE
  70
4
  0
LTYPE
  5
40F
  2
CONTINUOUS
  70
0
  3
Solid line
  72
65
  73
0
  40
0.0
  0
LTYPE
  5
410
  2
DASHDOT
 70
0
  3
Dash Dot ____ _ ____ _
 72
65
 73
4
 40
2.0
 49
1.25
 49
-0.25
 49
0.25
 49
-0.25
  0
LTYPE
  5
411
  2
DASHED
 70
0
  3
Dashed __ __ __ __ __
 72
65
 73
2
 40
0.75
 49
0.5
 49
-0.25
  0
LTYPE
  5
43B
  2
DOTTED
 70
0
  3
Dotted .  .  .  .
 72
65
 73
2
 40
0.2
 49
0.0
 49
-0.2
  0
ENDTAB
  0
TABLE
  2
STYLE
  70
4
  0
STYLE
  2
KICAD
  70
0
  40
0
  41
1
  42
1
  50
0
  71
0
  3
isocp.shx
  0
STYLE
  2
KICADB
  70
0
  40
0
  41
1
  42
1
  50
0
  71
0
  3
isocp.shx
  0
STYLE
  2
KICADI
  70
0
  40
0
  41
1
  42
1
  50
15
  71
0
  3
isocp.shx
  0
STYLE
  2
KICADBI
  70
0
  40
0
  41
1
  42
1
  50
15
  71
0
  3
isocp.shx
  0
ENDTAB
  0
TABLE
  2
LAYER
  70
1
  0
LAYER
  2
BLACK
  70
0
  62
7
  6
CONTINUOUS
  0
ENDTAB
  0
ENDSEC
  0
SECTION
  2
ENTITIES
0
LINE
8
BLACK
6
CONTINUOUS
10
0.4189189763779527
20
0.5275414566929134
11
0.4313291338582677
21
0.5250729133858267
0
LINE
8
BLACK
6
CONTINUOUS
10
0.4313291338582677
20
0.5250729133858267
11
0.4434375590551181
21
0.5213998818897637
0
LINE
8
BLACK
6
CONTINUOUS
10
0.4434375590551181
20
0.5213998818897637
11
0.4551276771653543
21
0.5165576771653543
0
LINE
8
BLACK
6
CONTINUOUS
10
0.4551276771653543
20
0.5165576771653543
11
0.4662868503937008
21
0.5105929527559055
0
LINE
8
BLACK
6
CONTINUOUS
10
0.4662868503937008
20
0.5105929527559055
11
0.4768076771653543
21
0.503563188976378
0
LINE
8
BLACK
6
CONTINUOUS
10
0.4768076771653543
20
0.503563188976378
11
0.4865888188976378
21
0.4955360236220472
0
LINE
8
BLACK
6
CONTINUOUS
10
0.4865888188976378
20
0.4955360236220472
11
0.4955360236220472
21
0.4865888188976378
0
LINE
8
BLACK
6
CONTINUOUS
10
0.4955360236220472
20
0.4865888188976378
11
0.503563188976378
21
0.4768076771653543
0
LINE
8
BLACK
6
CONTINUOUS
10
0.503563188976378
20
0.4768076771653543
11
0.5105929527559055
21
0.4662868503937008
0
LINE
8
BLACK
6
CONTINUOUS
10
0.5105929527559055
20
0.4662868503937008
11
0.5165576771653543
21
0.4551276771653543
0
LINE
8
BLACK
6
CONTINUOUS
10
0.5165576771653543
20
0.4551276771653543
11
0.5213998818897637
21
0.4434375590551181
0
LINE
8
BLACK
6
CONTINUOUS
10
0.5213998818897637
20
0.4434375590551181
11
0.5250729133858267
21
0.4313291338582677
0
LINE
8
BLACK
6
CONTINUOUS
10
0.5250729133858267
20
0.4313291338582677
11
0.5275414566929134
21
0.4189189763779527
0
LINE
8
BLACK
6
CONTINUOUS
10
0.5275414566929134
20
0.4189189763779527
11
0.5287816929133858
21
0.4063266535433071
0
LINE
8
BLACK
6
CONTINUOUS
10
0.5287816929133858
20
0.4063266535433071
11
0.5287816929133858
21
0.3936733464566929
0
LINE
8
BLACK
6
CONTINUOUS
10
0.5287816929133858
20
0.3936733464566929
11
0.5275414566929134
21
0.3810810236220472
0
LINE
8
BLACK
6
CONTINUOUS
10
0.5275414566929134
20
0.3810810236220472
11
0.5250729133858267
21
0.3686708661417323
0
LINE
8
BLACK
6
CONTINUOUS
10
0.5250729133858267
20
0.3686708661417323
11
0.5213998818897637
21
0.3565624409448819
0
LINE
8
BLACK
6
CONTINUOUS
10
0.5213998818897637
20
0.3565624409448819
11
0.5165576771653543
21
0.3448723228346456
0
LINE
8
BLACK
6
CONTINUOUS
10
0.5165576771653543
20
0.3448723228346456
11
0.5105929527559055
21
0.3337131496062992
0
LINE
8
BLACK
6
CONTINUOUS
10
0.5105929527559055
20
0.3337131496062992
11
0.503563188976378
21
0.3231923228346457
0
LINE
8
BLACK
6
CONTINUOUS
10
0.503563188976378
20
0.3231923228346457
11
0.4955360236220472
21
0.3134111811023622
0
LINE
8
BLACK
6
CONTINUOUS
10
0.4955360236220472
20
0.3134111811023622
11
0.4865888188976378
21
0.3044639763779527
0
LINE
8
BLACK
6
CONTINUOUS
10
0.4865888188976378
20
0.3044639763779527
11
0.4768076771653543
21
0.296436811023622
0
LINE
8
BLACK
6
CONTINUOUS
10
0.4768076771653543
20
0.296436811023622
11
0.4662868503937008
21
0.2894070472440945
0
LINE
8
BLACK
6
CONTINUOUS
10
0.4662868503937008
20
0.2894070472440945
11
0.4551276771653543
21
0.2834423228346457
0
LINE
8
BLACK
6
CONTINUOUS
10
0.4551276771653543
20
0.2834423228346457
11
0.4434375590551181
21
0.2786001181102362
0
LINE
8
BLACK
6
CONTINUOUS
10
0.4434375590551181
20
0.2786001181102362
11
0.4313291338582677
21
0.2749270866141732
0
LINE
8
BLACK
6
CONTINUOUS
10
0.4313291338582677
20
0.2749270866141732
11
0.4189189763779527
21
0.2724585433070866
0
LINE
8
BLACK
6
CONTINUOUS
10
0.4189189763779527
20
0.2724585433070866
11
0.4063266535433071
21
0.2712183070866142
0
LINE
8
BLACK
6
CONTINUOUS
10
0.4063266535433071
20
0.2712183070866142
11
0.3936733464566929
21
0.2712183070866142
0
LINE
8
BLACK
6
CONTINUOUS
10
0.3936733464566929
20
0.2712183070866142
11
0.3810810236220472
21
0.2724585433070866
0
LINE
8
BLACK
6
CONTINUOUS
10
0.3810810236220472
20
0.2724585433070866
11
0.3686708661417323
21
0.2749270866141732
0
LINE
8
BLACK
6
CONTINUOUS
10
0.3686708661417323
20
0.2749270866141732
11
0.3565624409448819
21
0.2786001181102362
0
LINE
8
BLACK
6
CONTINUOUS
10
0.3565624409448819
20
0.2786001181102362
11
0.3448723228346456
21
0.2834423228346457
0
LINE
8
BLACK
6
CONTINUOUS
10
0.3448723228346456
20
0.2834423228346457
11
0.3337131496062992
21
0.2894070472440945
0
LINE
8
BLACK
6
CONTINUOUS
10
0.3337131496062992
20
0.2894070472440945
11
0.3231923228346457
21
0.296436811023622
0
LINE
8
BLACK
6
CONTINUOUS
10
0.3231923228346457
20
0.296436811023622
11
0.3134111811023622
21
0.3044639763779527
0
LINE
8
BLACK
6
CONTINUOUS
10
0.3134111811023622
20
0.3044639763779527
11
0.3044639763779527
21
0.3134111811023622
0
LINE
8
BLACK
6
CONTINUOUS
10
0.3044639763779527
20
0.3134111811023622
11
0.296436811023622
21
0.3231923228346457
0
LINE
8
BLACK
6
CONTINUOUS
10
0.296436811023622
20
0.3231923228346457
11
0.2894070472440945
21
0.3337131496062992
0
LINE
8
BLACK
6
CONTINUOUS
10
0.2894070472440945
20
0.3337131496062992
11
0.2834423228346457
21
0.3448723228346456
0
LINE
8
BLACK
6
CONTINUOUS
10
0.2834423228346457
20
0.3448723228346456
11
0.2786001181102362
21
0.3565624409448819
0
LINE
8
BLACK
6
CONTINUOUS
10
0.2786001181102362
20
0.3565624409448819
11
0.2749270866141732
21
0.3686708661417323
0
LINE
8
BLACK
6
CONTINUOUS
10
0.2749270866141732
20
0.3686708661417323
11
0.2724585433070866
21
0.3810810236220472
0
LINE
8
BLACK
6
CONTINUOUS
10
0.2724585433070866
20
0.3810810236220472
11
0.2712183070866142
21
0.3936733464566929
0
LINE
8
BLACK
6
CONTINUOUS
10
0.2712183070866142
20
0.3936733464566929
11
0.2712183070866142
21
0.4063266535433071
0
LINE
8
BLACK
6
CONTINUOUS
10
0.2712183070866142
20
0.4063266535433071
11
0.2712757086614173
21
0.4069092913385827
0
LINE
8
BLACK
6
CONTINUOUS
10
0.2712757086614173
20
0.4069092913385827
11
0.2724585433070866
21
0.4189189763779527
0
LINE
8
BLACK
6
CONTINUOUS
10
0.2724585433070866
20
0.4189189763779527
11
0.2749270866141732
21
0.4313291338582677
0
LINE
8
BLACK
6
CONTINUOUS
10
0.2749270866141732
20
0.4313291338582677
11
0.2786001181102362
21
0.4434375590551181
0
LINE
8
BLACK
6
CONTINUOUS
10
0.2786001181102362
20
0.4434375590551181
11
0.2834423228346457
21
0.4551276771653543
0
LINE
8
BLACK
6
CONTINUOUS
10
0.2834423228346457
20
0.4551276771653543
11
0.2894070472440945
21
0.4662868503937008
0
LINE
8
BLACK
6
CONTINUOUS
10
0.2894070472440945
20
0.4662868503937008
11
0.296436811023622
21
0.4768076771653543
0
LINE
8
BLACK
6
CONTINUOUS
10
0.296436811023622
20
0.4768076771653543
11
0.3044639763779527
21
0.4865888188976378
0
LINE
8
BLACK
6
CONTINUOUS
10
0.3044639763779527
20
0.4865888188976378
11
0.3134111811023622
21
0.4955360236220472
0
LINE
8
BLACK
6
CONTINUOUS
10
0.3134111811023622
20
0.4955360236220472
11
0.3231923228346457
21
0.503563188976378
0
LINE
8
BLACK
6
CONTINUOUS
10
0.3231923228346457
20
0.503563188976378
11
0.3337131496062992
21
0.5105929527559055
0
LINE
8
BLACK
6
CONTINUOUS
10
0.3337131496062992
20
0.5105929527559055
11
0.3448723228346456
21
0.5165576771653543
0
LINE
8
BLACK
6
CONTINUOUS
10
0.3448723228346456
20
0.5165576771653543
11
0.3565624409448819
21
0.5213998818897637
0
LINE
8
BLACK
6
CONTINUOUS
10
0.3565624409448819
20
0.5213998818897637
11
0.3686708661417323
21
0.5250729133858267
0
LINE
8
BLACK
6
CONTINUOUS
10
0.3686708661417323
20
0.5250729133858267
11
0.3810810236220472
21
0.5275414566929134
0
LINE
8
BLACK
6
CONTINUOUS
10
0.3810810236220472
20
0.5275414566929134
11
0.3936733464566929
21
0.5287816929133858
0
LINE
8
BLACK
6
CONTINUOUS
10
0.3936733464566929
20
0.5287816929133858
11
0.4063266535433071
21
0.5287816929133858
0
LINE
8
BLACK
6
CONTINUOUS
10
0.4063266535433071
20
0.5287816929133858
11
0.4189189763779527
21
0.5275414566929134
0
LINE
8
BLACK
6
CONTINUOUS
10
0.2769685039370079
20
0.3930907086614173
11
0.2785157086614173
21
0.3793589763779527
0
LINE
8
BLACK
6
CONTINUOUS
10
0.2785157086614173
20
0.3793589763779527
11
0.2815906299212598
21
0.3658868503937008
0
LINE
8
BLACK
6
CONTINUOUS
10
0.2815906299212598
20
0.3658868503937008
11
0.2861546062992126
21
0.3528437007874016
0
LINE
8
BLACK
6
CONTINUOUS
10
0.2861546062992126
20
0.3528437007874016
11
0.2921502755905512
21
0.3403935826771654
0
LINE
8
BLACK
6
CONTINUOUS
10
0.2921502755905512
20
0.3403935826771654
11
0.2995022047244094
21
0.328693031496063
0
LINE
8
BLACK
6
CONTINUOUS
10
0.2995022047244094
20
0.328693031496063
11
0.3081179921259842
21
0.3178892125984252
0
LINE
8
BLACK
6
CONTINUOUS
10
0.3081179921259842
20
0.3178892125984252
11
0.3178892125984252
21
0.3081179921259842
0
LINE
8
BLACK
6
CONTINUOUS
10
0.3178892125984252
20
0.3081179921259842
11
0.328693031496063
21
0.2995022047244094
0
LINE
8
BLACK
6
CONTINUOUS
10
0.328693031496063
20
0.2995022047244094
11
0.3403935826771654
21
0.2921502755905512
0
LINE
8
BLACK
6
CONTINUOUS
10
0.3403935826771654
20
0.2921502755905512
11
0.3528437007874016
21
0.2861546062992126
0
LINE
8
BLACK
6
CONTINUOUS
10
0.3528437007874016
20
0.2861546062992126
11
0.3658868503937008
21
0.2815906299212598
0
LINE
8
BLACK
6
CONTINUOUS
10
0.3658868503937008
20
0.2815906299212598
11
0.3793589763779527
21
0.2785157086614173
0
LINE
8
BLACK
6
CONTINUOUS
10
0.3793589763779527
20
0.2785157086614173
11
0.3930907086614173
21
0.2769685039370079
0
LINE
8
BLACK
6
CONTINUOUS
10
0.3930907086614173
20
0.2769685039370079
11
0.4069092913385827
21
0.2769685039370079
0
LINE
8
BLACK
6
CONTINUOUS
10
0.4069092913385827
20
0.2769685039370079
11
0.4206410236220472
21
0.2785157086614173
0
LINE
8
BLACK
6
CONTINUOUS
10
0.4206410236220472
20
0.2785157086614173
11
0.4341131496062992
21
0.2815906299212598
0
LINE
8
BLACK
6
CONTINUOUS
10
0.4341131496062992
20
0.2815906299212598
11
0.4471562992125984
21
0.2861546062992126
0
LINE
8
BLACK
6
CONTINUOUS
10
0.4471562992125984
20
0.2861546062992126
11
0.4596064173228346
21
0.2921502755905512
0
LINE
8
BLACK
6
CONTINUOUS
10
0.4596064173228346
20
0.2921502755905512
11
0.471306968503937
21
0.2995022047244094
0
LINE
8
BLACK
6
CONTINUOUS
10
0.471306968503937
20
0.2995022047244094
11
0.4821107874015748
21
0.3081179921259842
0
LINE
8
BLACK
6
CONTINUOUS
10
0.4821107874015748
20
0.3081179921259842
11
0.4918820078740158
21
0.3178892125984252
0
LINE
8
BLACK
6
CONTINUOUS
10
0.4918820078740158
20
0.3178892125984252
11
0.5004977952755906
21
0.328693031496063
0
LINE
8
BLACK
6
CONTINUOUS
10
0.5004977952755906
20
0.328693031496063
11
0.5078497244094488
21
0.3403935826771654
0
LINE
8
BLACK
6
CONTINUOUS
10
0.5078497244094488
20
0.3403935826771654
11
0.5138453937007874
21
0.3528437007874016
0
LINE
8
BLACK
6
CONTINUOUS
10
0.5138453937007874
20
0.3528437007874016
11
0.5184093700787401
21
0.3658868503937008
0
LINE
8
BLACK
6
CONTINUOUS
10
0.5184093700787401
20
0.3658868503937008
11
0.5214842913385827
21
0.3793589763779527
0
LINE
8
BLACK
6
CONTINUOUS
10
0.5214842913385827
20
0.3793589763779527
11
0.5230314960629922
21
0.3930907086614173
0
LINE
8
BLACK
6
CONTINUOUS
10
0.5230314960629922
20
0.3930907086614173
11
0.5230314960629922
21
0.4069092913385827
0
LINE
8
BLACK
6
CONTINUOUS
10
0.5230314960629922
20
0.4069092913385827
11
0.5214842913385827
21
0.4206410236220472
0
LINE
8
BLACK
6
CONTINUOUS
10
0.5214842913385827
20
0.4206410236220472
11
0.5184093700787401
21
0.4341131496062992
0
LINE
8
BLACK
6
CONTINUOUS
10
0.5184093700787401
20
0.4341131496062992
11
0.5138453937007874
21
0.4471562992125984
0
LINE
8
BLACK
6
CONTINUOUS
10
0.5138453937007874
20
0.4471562992125984
11
0.5078497244094488
21
0.4596064173228346
0
LINE
8
BLACK
6
CONTINUOUS
10
0.5078497244094488
20
0.4596064173228346
11
0.5004977952755906
21
0.471306968503937
0
LINE
8
BLACK
6
CONTINUOUS
10
0.5004977952755906
20
0.471306968503937
11
0.4918820078740158
21
0.4821107874015748
0
LINE
8
BLACK
6
CONTINUOUS
10
0.4918820078740158
20
0.4821107874015748
11
0.4821107874015748
21
0.4918820078740158
0
LINE
8
BLACK
6
CONTINUOUS
10
0.4821107874015748
20
0.4918820078740158
11
0.471306968503937
21
0.5004977952755906
0
LINE
8
BLACK
6
CONTINUOUS
10
0.471306968503937
20
0.5004977952755906
11
0.4596064173228346
21
0.5078497244094488
0
LINE
8
BLACK
6
CONTINUOUS
10
0.4596064173228346
20
0.5078497244094488
11
0.4471562992125984
21
0.5138453937007874
0
LINE
8
BLACK
6
CONTINUOUS
10
0.4471562992125984
20
0.5138453937007874
11
0.4341131496062992
21
0.5184093700787401
0
LINE
8
BLACK
6
CONTINUOUS
10
0.4341131496062992
20
0.5184093700787401
11
0.4206410236220472
21
0.5214842913385827
0
LINE
8
BLACK
6
CONTINUOUS
10
0.4206410236220472
20
0.5214842913385827
11
0.4069092913385827
21
0.5230314960629922
0
LINE
8
BLACK
6
CONTINUOUS
10
0.4069092913385827
20
0.5230314960629922
11
0.3930907086614173
21
0.5230314960629922
0
LINE
8
BLACK
6
CONTINUOUS
10
0.3930907086614173
20
0.5230314960629922
11
0.3793589763779527
21
0.5214842913385827
0
LINE
8
BLACK
6
CONTINUOUS
10
0.3793589763779527
20
0.5214842913385827
11
0.3658868503937008
21
0.5184093700787401
0
LINE
8
BLACK
6
CONTINUOUS
10
0.3658868503937008
20
0.5184093700787401
11
0.3528437007874016
21
0.5138453937007874
0
LINE
8
BLACK
6
CONTINUOUS
10
0.3528437007874016
20
0.5138453937007874
11
0.3403935826771654
21
0.5078497244094488
0
LINE
8
BLACK
6
CONTINUOUS
10
0.3403935826771654
20
0.5078497244094488
11
0.328693031496063
21
0.5004977952755906
0
LINE
8
BLACK
6
CONTINUOUS
10
0.328693031496063
20
0.5004977952755906
11
0.3178892125984252
21
0.4918820078740158
0
LINE
8
BLACK
6
CONTINUOUS
10
0.3178892125984252
20
0.4918820078740158
11
0.3081179921259842
21
0.4821107874015748
0
LINE
8
BLACK
6
CONTINUOUS
10
0.3081179921259842
20
0.4821107874015748
11
0.2995022047244094
21
0.471306968503937
0
LINE
8
BLACK
6
CONTINUOUS
10
0.2995022047244094
20
0.471306968503937
11
0.2921502755905512
21
0.4596064173228346
0
LINE
8
BLACK
6
CONTINUOUS
10
0.2921502755905512
20
0.4596064173228346
11
0.2861546062992126
21
0.4471562992125984
0
LINE
8
BLACK
6
CONTINUOUS
10
0.2861546062992126
20
0.4471562992125984
11
0.2815906299212598
21
0.4341131496062992
0
LINE
8
BLACK
6
CONTINUOUS
10
0.2815906299212598
20
0.4341131496062992
11
0.2785157086614173
21
0.4206410236220472
0
LINE
8
BLACK
6
CONTINUOUS
10
0.2785157086614173
20
0.4206410236220472
11
0.2769685039370079
21
0.4069092913385827
0
LINE
8
BLACK
6
CONTINUOUS
10
0.2769685039370079
20
0.4069092913385827
11
0.2769685039370079
21
0.3930907086614173
0
LINE
8
BLACK
6
CONTINUOUS
10
2.4189189763779528
20
0.5275414566929134
11
2.4313291338582679
21
0.5250729133858267
0
LINE
8
BLACK
6
CONTINUOUS
10
2.4313291338582679
20
0.5250729133858267
11
2.4434375590551181
21
0.5213998818897637
0
LINE
8
BLACK
6
CONTINUOUS
10
2.4434375590551181
20
0.5213998818897637
11
2.4551276771653541
21
0.5165576771653543
0
LINE
8
BLACK
6
CONTINUOUS
10
2.4551276771653541
20
0.5165576771653543
11
2.4662868503937005
21
0.5105929527559055
0
LINE
8
BLACK
6
CONTINUOUS
10
2.4662868503937005
20
0.5105929527559055
11
2.4768076771653544
21
0.503563188976378
0
LINE
8
BLACK
6
CONTINUOUS
10
2.4768076771653544
20
0.503563188976378
11
2.4865888188976379
21
0.4955360236220472
0
LINE
8
BLACK
6
CONTINUOUS
10
2.4865888188976379
20
0.4955360236220472
11
2.4955360236220474
21
0.4865888188976378
0
LINE
8
BLACK
6
CONTINUOUS
10
2.4955360236220474
20
0.4865888188976378
11
2.5035631889763779
21
0.4768076771653543
0
LINE
8
BLACK
6
CONTINUOUS
10
2.5035631889763779
20
0.4768076771653543
11
2.5105929527559057
21
0.4662868503937008
0
LINE
8
BLACK
6
CONTINUOUS
10
2.5105929527559057
20
0.4662868503937008
11
2.5165576771653542
21
0.4551276771653543
0
LINE
8
BLACK
6
CONTINUOUS
10
2.5165576771653542
20
0.4551276771653543
11
2.5213998818897636
21
0.4434375590551181
0
LINE
8
BLACK
6
CONTINUOUS
10
2.5213998818897636
20
0.4434375590551181
11
2.5250729133858267
21
0.4313291338582677
0
LINE
8
BLACK
6
CONTINUOUS
10
2.5250729133858267
20
0.4313291338582677
11
2.5275414566929135
21
0.4189189763779527
0
LINE
8
BLACK
6
CONTINUOUS
10
2.5275414566929135
20
0.4189189763779527
11
2.5287816929133857
21
0.4063266535433071
0
LINE
8
BLACK
6
CONTINUOUS
10
2.5287816929133857
20
0.4063266535433071
11
2.5287816929133857
21
0.3936733464566929
0
LINE
8
BLACK
6
CONTINUOUS
10
2.5287816929133857
20
0.3936733464566929
11
2.5275414566929135
21
0.3810810236220472
0
LINE
8
BLACK
6
CONTINUOUS
10
2.5275414566929135
20
0.3810810236220472
11
2.5250729133858267
21
0.3686708661417323
0
LINE
8
BLACK
6
CONTINUOUS
10
2.5250729133858267
20
0.3686708661417323
11
2.5213998818897636
21
0.3565624409448819
0
LINE
8
BLACK
6
CONTINUOUS
10
2.5213998818897636
20
0.3565624409448819
11
2.5165576771653542
21
0.3448723228346456
0
LINE
8
BLACK
6
CONTINUOUS
10
2.5165576771653542
20
0.3448723228346456
11
2.5105929527559057
21
0.3337131496062992
0
LINE
8
BLACK
6
CONTINUOUS
10
2.5105929527559057
20
0.3337131496062992
11
2.5035631889763779
21
0.3231923228346457
0
LINE
8
BLACK
6
CONTINUOUS
10
2.5035631889763779
20
0.3231923228346457
11
2.4955360236220474
21
0.3134111811023622
0
LINE
8
BLACK
6
CONTINUOUS
10
2.4955360236220474
20
0.3134111811023622
11
2.4865888188976379
21
0.3044639763779527
0
LINE
8
BLACK
6
CONTINUOUS
10
2.4865888188976379
20
0.3044639763779527
11
2.4768076771653544
21
0.296436811023622
0
LINE
8
BLACK
6
CONTINUOUS
10
2.4768076771653544
20
0.296436811023622
11
2.4662868503937005
21
0.2894070472440945
0
LINE
8
BLACK
6
CONTINUOUS
10
2.4662868503937005
20
0.2894070472440945
11
2.4551276771653541
21
0.2834423228346457
0
LINE
8
BLACK
6
CONTINUOUS
10
2.4551276771653541
20
0.2834423228346457
11
2.4434375590551181
21
0.2786001181102362
0
LINE
8
BLACK
6
CONTINUOUS
10
2.4434375590551181
20
0.2786001181102362
11
2.4313291338582679
21
0.2749270866141732
0
LINE
8
BLACK
6
CONTINUOUS
10
2.4313291338582679
20
0.2749270866141732
11
2.4189189763779528
21
0.2724585433070866
0
LINE
8
BLACK
6
CONTINUOUS
10
2.4189189763779528
20
0.2724585433070866
11
2.406326653543307
21
0.2712183070866142
0
LINE
8
BLACK
6
CONTINUOUS
10
2.406326653543307
20
0.2712183070866142
11
2.3936733464566928
21
0.2712183070866142
0
LINE
8
BLACK
6
CONTINUOUS
10
2.3936733464566928
20
0.2712183070866142
11
2.381081023622047
21
0.2724585433070866
0
LINE
8
BLACK
6
CONTINUOUS
10
2.381081023622047
20
0.2724585433070866
11
2.3686708661417324
21
0.2749270866141732
0
LINE
8
BLACK
6
CONTINUOUS
10
2.3686708661417324
20
0.2749270866141732
11
2.3565624409448818
21
0.2786001181102362
0
LINE
8
BLACK
6
CONTINUOUS
10
2.3565624409448818
20
0.2786001181102362
11
2.3448723228346458
21
0.2834423228346457
0
LINE
8
BLACK
6
CONTINUOUS
10
2.3448723228346458
20
0.2834423228346457
11
2.3337131496062993
21
0.2894070472440945
0
LINE
8
BLACK
6
CONTINUOUS
10
2.3337131496062993
20
0.2894070472440945
11
2.3231923228346458
21
0.296436811023622
0
LINE
8
BLACK
6
CONTINUOUS
10
2.3231923228346458
20
0.296436811023622
11
2.3134111811023623
21
0.3044639763779527
0
LINE
8
BLACK
6
CONTINUOUS
10
2.3134111811023623
20
0.3044639763779527
11
2.3044639763779529
21
0.3134111811023622
0
LINE
8
BLACK
6
CONTINUOUS
10
2.3044639763779529
20
0.3134111811023622
11
2.296436811023622
21
0.3231923228346457
0
LINE
8
BLACK
6
CONTINUOUS
10
2.296436811023622
20
0.3231923228346457
11
2.2894070472440946
21
0.3337131496062992
0
LINE
8
BLACK
6
CONTINUOUS
10
2.2894070472440946
20
0.3337131496062992
11
2.2834423228346457
21
0.3448723228346456
0
LINE
8
BLACK
6
CONTINUOUS
10
2.2834423228346457
20
0.3448723228346456
11
2.2786001181102362
21
0.3565624409448819
0
LINE
8
BLACK
6
CONTINUOUS
10
2.2786001181102362
20
0.3565624409448819
11
2.2749270866141731
21
0.3686708661417323
0
LINE
8
BLACK
6
CONTINUOUS
10
2.2749270866141731
20
0.3686708661417323
11
2.2724585433070867
21
0.3810810236220472
0
LINE
8
BLACK
6
CONTINUOUS
10
2.2724585433070867
20
0.3810810236220472
11
2.2712183070866141
21
0.3936733464566929
0
LINE
8
BLACK
6
CONTINUOUS
10
2.2712183070866141
20
0.3936733464566929
11
2.2712183070866141
21
0.4063266535433071
0
LINE
8
BLACK
6
CONTINUOUS
10
2.2712183070866141
20
0.4063266535433071
11
2.2712757086614173
21
0.4069092913385827
0
LINE
8
BLACK
6
CONTINUOUS
10
2.2712757086614173
20
0.4069092913385827
11
2.2724585433070867
21
0.4189189763779527
0
LINE
8
BLACK
6
CONTINUOUS
10
2.2724585433070867
20
0.4189189763779527
11
2.2749270866141731
21
0.4313291338582677
0
LINE
8
BLACK
6
CONTINUOUS
10
2.2749270866141731
20
0.4313291338582677
11
2.2786001181102362
21
0.4434375590551181
0
LINE
8
BLACK
6
CONTINUOUS
10
2.2786001181102362
20
0.4434375590551181
11
2.2834423228346457
21
0.4551276771653543
0
LINE
8
BLACK
6
CONTINUOUS
10
2.2834423228346457
20
0.4551276771653543
11
2.2894070472440946
21
0.4662868503937008
0
LINE
8
BLACK
6
CONTINUOUS
10
2.2894070472440946
20
0.4662868503937008
11
2.296436811023622
21
0.4768076771653543
0
LINE
8
BLACK
6
CONTINUOUS
10
2.296436811023622
20
0.4768076771653543
11
2.3044639763779529
21
0.4865888188976378
0
LINE
8
BLACK
6
CONTINUOUS
10
2.3044639763779529
20
0.4865888188976378
11
2.3134111811023623
21
0.4955360236220472
0
LINE
8
BLACK
6
CONTINUOUS
10
2.3134111811023623
20
0.4955360236220472
11
2.3231923228346458
21
0.503563188976378
0
LINE
8
BLACK
6
CONTINUOUS
10
2.3231923228346458
20
0.503563188976378
11
2.3337131496062993
21
0.5105929527559055
0
LINE
8
BLACK
6
CONTINUOUS
10
2.3337131496062993
20
0.5105929527559055
11
2.3448723228346458
21
0.5165576771653543
0
LINE
8
BLACK
6
CONTINUOUS
10
2.3448723228346458
20
0.5165576771653543
11
2.3565624409448818
21
0.5213998818897637
0
LINE
8
BLACK
6
CONTINUOUS
10
2.3565624409448818
20
0.5213998818897637
11
2.3686708661417324
21
0.5250729133858267
0
LINE
8
BLACK
6
CONTINUOUS
10
2.3686708661417324
20
0.5250729133858267
11
2.381081023622047
21
0.5275414566929134
0
LINE
8
BLACK
6
CONTINUOUS
10
2.381081023622047
20
0.5275414566929134
11
2.3936733464566928
21
0.5287816929133858
0
LINE
8
BLACK
6
CONTINUOUS
10
2.3936733464566928
20
0.5287816929133858
11
2.406326653543307
21
0.5287816929133858
0
LINE
8
BLACK
6
CONTINUOUS
10
2.406326653543307
20
0.5287816929133858
11
2.4189189763779528
21
0.5275414566929134
0
LINE
8
BLACK
6
CONTINUOUS
10
2.2769685039370078
20
0.3930907086614173
11
2.2785157086614172
21
0.3793589763779527
0
LINE
8
BLACK
6
CONTINUOUS
10
2.2785157086614172
20
0.3793589763779527
11
2.2815906299212596
21
0.3658868503937008
0
LINE
8
BLACK
6
CONTINUOUS
10
2.2815906299212596
20
0.3658868503937008
11
2.2861546062992124
21
0.3528437007874016
0
LINE
8
BLACK
6
CONTINUOUS
10
2.2861546062992124
20
0.3528437007874016
11
2.2921502755905512
21
0.3403935826771654
0
LINE
8
BLACK
6
CONTINUOUS
10
2.2921502755905512
20
0.3403935826771654
11
2.2995022047244094
21
0.328693031496063
0
LINE
8
BLACK
6
CONTINUOUS
10
2.2995022047244094
20
0.328693031496063
11
2.3081179921259842
21
0.3178892125984252
0
LINE
8
BLACK
6
CONTINUOUS
10
2.3081179921259842
20
0.3178892125984252
11
2.3178892125984252
21
0.3081179921259842
0
LINE
8
BLACK
6
CONTINUOUS
10
2.3178892125984252
20
0.3081179921259842
11
2.328693031496063
21
0.2995022047244094
0
LINE
8
BLACK
6
CONTINUOUS
10
2.328693031496063
20
0.2995022047244094
11
2.3403935826771654
21
0.2921502755905512
0
LINE
8
BLACK
6
CONTINUOUS
10
2.3403935826771654
20
0.2921502755905512
11
2.3528437007874015
21
0.2861546062992126
0
LINE
8
BLACK
6
CONTINUOUS
10
2.3528437007874015
20
0.2861546062992126
11
2.3658868503937009
21
0.2815906299212598
0
LINE
8
BLACK
6
CONTINUOUS
10
2.3658868503937009
20
0.2815906299212598
11
2.3793589763779526
21
0.2785157086614173
0
LINE
8
BLACK
6
CONTINUOUS
10
2.3793589763779526
20
0.2785157086614173
11
2.3930907086614175
21
0.2769685039370079
0
LINE
8
BLACK
6
CONTINUOUS
10
2.3930907086614175
20
0.2769685039370079
11
2.4069092913385828
21
0.2769685039370079
0
LINE
8
BLACK
6
CONTINUOUS
10
2.4069092913385828
20
0.2769685039370079
11
2.4206410236220472
21
0.2785157086614173
0
LINE
8
BLACK
6
CONTINUOUS
10
2.4206410236220472
20
0.2785157086614173
11
2.4341131496062993
21
0.2815906299212598
0
LINE
8
BLACK
6
CONTINUOUS
10
2.4341131496062993
20
0.2815906299212598
11
2.4471562992125984
21
0.2861546062992126
0
LINE
8
BLACK
6
CONTINUOUS
10
2.4471562992125984
20
0.2861546062992126
11
2.4596064173228345
21
0.2921502755905512
0
LINE
8
BLACK
6
CONTINUOUS
10
2.4596064173228345
20
0.2921502755905512
11
2.4713069685039368
21
0.2995022047244094
0
LINE
8
BLACK
6
CONTINUOUS
10
2.4713069685039368
20
0.2995022047244094
11
2.4821107874015746
21
0.3081179921259842
0
LINE
8
BLACK
6
CONTINUOUS
10
2.4821107874015746
20
0.3081179921259842
11
2.4918820078740156
21
0.3178892125984252
0
LINE
8
BLACK
6
CONTINUOUS
10
2.4918820078740156
20
0.3178892125984252
11
2.5004977952755905
21
0.328693031496063
0
LINE
8
BLACK
6
CONTINUOUS
10
2.5004977952755905
20
0.328693031496063
11
2.5078497244094486
21
0.3403935826771654
0
LINE
8
BLACK
6
CONTINUOUS
10
2.5078497244094486
20
0.3403935826771654
11
2.5138453937007874
21
0.3528437007874016
0
LINE
8
BLACK
6
CONTINUOUS
10
2.5138453937007874
20
0.3528437007874016
11
2.5184093700787402
21
0.3658868503937008
0
LINE
8
BLACK
6
CONTINUOUS
10
2.5184093700787402
20
0.3658868503937008
11
2.5214842913385827
21
0.3793589763779527
0
LINE
8
BLACK
6
CONTINUOUS
10
2.5214842913385827
20
0.3793589763779527
11
2.523031496062992
21
0.3930907086614173
0
LINE
8
BLACK
6
CONTINUOUS
10
2.523031496062992
20
0.3930907086614173
11
2.523031496062992
21
0.4069092913385827
0
LINE
8
BLACK
6
CONTINUOUS
10
2.523031496062992
20
0.4069092913385827
11
2.5214842913385827
21
0.4206410236220472
0
LINE
8
BLACK
6
CONTINUOUS
10
2.5214842913385827
20
0.4206410236220472
11
2.5184093700787402
21
0.4341131496062992
0
LINE
8
BLACK
6
CONTINUOUS
10
2.5184093700787402
20
0.4341131496062992
11
2.5138453937007874
21
0.4471562992125984
0
LINE
8
BLACK
6
CONTINUOUS
10
2.5138453937007874
20
0.4471562992125984
11
2.5078497244094486
21
0.4596064173228346
0
LINE
8
BLACK
6
CONTINUOUS
10
2.5078497244094486
20
0.4596064173228346
11
2.5004977952755905
21
0.471306968503937
0
LINE
8
BLACK
6
CONTINUOUS
10
2.5004977952755905
20
0.471306968503937
11
2.4918820078740156
21
0.4821107874015748
0
LINE
8
BLACK
6
CONTINUOUS
10
2.4918820078740156
20
0.4821107874015748
11
2.4821107874015746
21
0.4918820078740158
0
LINE
8
BLACK
6
CONTINUOUS
10
2.4821107874015746
20
0.4918820078740158
11
2.4713069685039368
21
0.5004977952755906
0
LINE
8
BLACK
6
CONTINUOUS
10
2.4713069685039368
20
0.5004977952755906
11
2.4596064173228345
21
0.5078497244094488
0
LINE
8
BLACK
6
CONTINUOUS
10
2.4596064173228345
20
0.5078497244094488
11
2.4471562992125984
21
0.5138453937007874
0
LINE
8
BLACK
6
CONTINUOUS
10
2.4471562992125984
20
0.5138453937007874
11
2.4341131496062993
21
0.5184093700787401
0
LINE
8
BLACK
6
CONTINUOUS
10
2.4341131496062993
20
0.5184093700787401
11
2.4206410236220472
21
0.5214842913385827
0
LINE
8
BLACK
6
CONTINUOUS
10
2.4206410236220472
20
0.5214842913385827
11
2.4069092913385828
21
0.5230314960629922
0
LINE
8
BLACK
6
CONTINUOUS
10
2.4069092913385828
20
0.5230314960629922
11
2.3930907086614175
21
0.5230314960629922
0
LINE
8
BLACK
6
CONTINUOUS
10
2.3930907086614175
20
0.5230314960629922
11
2.3793589763779526
21
0.5214842913385827
0
LINE
8
BLACK
6
CONTINUOUS
10
2.3793589763779526
20
0.5214842913385827
11
2.3658868503937009
21
0.5184093700787401
0
LINE
8
BLACK
6
CONTINUOUS
10
2.3658868503937009
20
0.5184093700787401
11
2.3528437007874015
21
0.5138453937007874
0
LINE
8
BLACK
6
CONTINUOUS
10
2.3528437007874015
20
0.5138453937007874
11
2.3403935826771654
21
0.5078497244094488
0
LINE
8
BLACK
6
CONTINUOUS
10
2.3403935826771654
20
0.5078497244094488
11
2.328693031496063
21
0.5004977952755906
0
LINE
8
BLACK
6
CONTINUOUS
10
2.328693031496063
20
0.5004977952755906
11
2.3178892125984252
21
0.4918820078740158
0
LINE
8
BLACK
6
CONTINUOUS
10
2.3178892125984252
20
0.4918820078740158
11
2.3081179921259842
21
0.4821107874015748
0
LINE
8
BLACK
6
CONTINUOUS
10
2.3081179921259842
20
0.4821107874015748
11
2.2995022047244094
21
0.471306968503937
0
LINE
8
BLACK
6
CONTINUOUS
10
2.2995022047244094
20
0.471306968503937
11
2.2921502755905512
21
0.4596064173228346
0
LINE
8
BLACK
6
CONTINUOUS
10
2.2921502755905512
20
0.4596064173228346
11
2.2861546062992124
21
0.4471562992125984
0
LINE
8
BLACK
6
CONTINUOUS
10
2.2861546062992124
20
0.4471562992125984
11
2.2815906299212596
21
0.4341131496062992
0
LINE
8
BLACK
6
CONTINUOUS
10
2.2815906299212596
20
0.4341131496062992
11
2.2785157086614172
21
0.4206410236220472
0
LINE
8
BLACK
6
CONTINUOUS
10
2.2785157086614172
20
0.4206410236220472
11
2.2769685039370078
21
0.4069092913385827
0
LINE
8
BLACK
6
CONTINUOUS
10
2.2769685039370078
20
0.4069092913385827
11
2.2769685039370078
21
0.3930907086614173
0
LINE
8
BLACK
6
CONTINUOUS
10
0.4189189763779527
20
2.1275414566929132
11
0.4313291338582677
21
2.1250729133858268
0
LINE
8
BLACK
6
CONTINUOUS
10
0.4313291338582677
20
2.1250729133858268
11
0.4434375590551181
21
2.1213998818897637
0
LINE
8
BLACK
6
CONTINUOUS
10
0.4434375590551181
20
2.1213998818897637
11
0.4551276771653543
21
2.1165576771653543
0
LINE
8
BLACK
6
CONTINUOUS
10
0.4551276771653543
20
2.1165576771653543
11
0.4662868503937008
21
2.1105929527559053
0
LINE
8
BLACK
6
CONTINUOUS
10
0.4662868503937008
20
2.1105929527559053
11
0.4768076771653543
21
2.103563188976378
0
LINE
8
BLACK
6
CONTINUOUS
10
0.4768076771653543
20
2.103563188976378
11
0.4865888188976378
21
2.0955360236220471
0
LINE
8
BLACK
6
CONTINUOUS
10
0.4865888188976378
20
2.0955360236220471
11
0.4955360236220472
21
2.0865888188976376
0
LINE
8
BLACK
6
CONTINUOUS
10
0.4955360236220472
20
2.0865888188976376
11
0.503563188976378
21
2.0768076771653541
0
LINE
8
BLACK
6
CONTINUOUS
10
0.503563188976378
20
2.0768076771653541
11
0.5105929527559055
21
2.0662868503937006
0
LINE
8
BLACK
6
CONTINUOUS
10
0.5105929527559055
20
2.0662868503937006
11
0.5165576771653543
21
2.0551276771653542
0
LINE
8
BLACK
6
CONTINUOUS
10
0.5165576771653543
20
2.0551276771653542
11
0.5213998818897637
21
2.0434375590551181
0
LINE
8
BLACK
6
CONTINUOUS
10
0.5213998818897637
20
2.0434375590551181
11
0.5250729133858267
21
2.0313291338582675
0
LINE
8
BLACK
6
CONTINUOUS
10
0.5250729133858267
20
2.0313291338582675
11
0.5275414566929134
21
2.0189189763779529
0
LINE
8
BLACK
6
CONTINUOUS
10
0.5275414566929134
20
2.0189189763779529
11
0.5287816929133858
21
2.0063266535433071
0
LINE
8
BLACK
6
CONTINUOUS
10
0.5287816929133858
20
2.0063266535433071
11
0.5287816929133858
21
1.9936733464566929
0
LINE
8
BLACK
6
CONTINUOUS
10
0.5287816929133858
20
1.9936733464566929
11
0.5275414566929134
21
1.9810810236220473
0
LINE
8
BLACK
6
CONTINUOUS
10
0.5275414566929134
20
1.9810810236220473
11
0.5250729133858267
21
1.9686708661417323
0
LINE
8
BLACK
6
CONTINUOUS
10
0.5250729133858267
20
1.9686708661417323
11
0.5213998818897637
21
1.9565624409448819
0
LINE
8
BLACK
6
CONTINUOUS
10
0.5213998818897637
20
1.9565624409448819
11
0.5165576771653543
21
1.9448723228346456
0
LINE
8
BLACK
6
CONTINUOUS
10
0.5165576771653543
20
1.9448723228346456
11
0.5105929527559055
21
1.9337131496062991
0
LINE
8
BLACK
6
CONTINUOUS
10
0.5105929527559055
20
1.9337131496062991
11
0.503563188976378
21
1.9231923228346457
0
LINE
8
BLACK
6
CONTINUOUS
10
0.503563188976378
20
1.9231923228346457
11
0.4955360236220472
21
1.9134111811023622
0
LINE
8
BLACK
6
CONTINUOUS
10
0.4955360236220472
20
1.9134111811023622
11
0.4865888188976378
21
1.9044639763779527
0
LINE
8
BLACK
6
CONTINUOUS
10
0.4865888188976378
20
1.9044639763779527
11
0.4768076771653543
21
1.896436811023622
0
LINE
8
BLACK
6
CONTINUOUS
10
0.4768076771653543
20
1.896436811023622
11
0.4662868503937008
21
1.8894070472440945
0
LINE
8
BLACK
6
CONTINUOUS
10
0.4662868503937008
20
1.8894070472440945
11
0.4551276771653543
21
1.8834423228346455
0
LINE
8
BLACK
6
CONTINUOUS
10
0.4551276771653543
20
1.8834423228346455
11
0.4434375590551181
21
1.8786001181102361
0
LINE
8
BLACK
6
CONTINUOUS
10
0.4434375590551181
20
1.8786001181102361
11
0.4313291338582677
21
1.8749270866141732
0
LINE
8
BLACK
6
CONTINUOUS
10
0.4313291338582677
20
1.8749270866141732
11
0.4189189763779527
21
1.8724585433070866
0
LINE
8
BLACK
6
CONTINUOUS
10
0.4189189763779527
20
1.8724585433070866
11
0.4063266535433071
21
1.8712183070866142
0
LINE
8
BLACK
6
CONTINUOUS
10
0.4063266535433071
20
1.8712183070866142
11
0.3936733464566929
21
1.8712183070866142
0
LINE
8
BLACK
6
CONTINUOUS
10
0.3936733464566929
20
1.8712183070866142
11
0.3810810236220472
21
1.8724585433070866
0
LINE
8
BLACK
6
CONTINUOUS
10
0.3810810236220472
20
1.8724585433070866
11
0.3686708661417323
21
1.8749270866141732
0
LINE
8
BLACK
6
CONTINUOUS
10
0.3686708661417323
20
1.8749270866141732
11
0.3565624409448819
21
1.8786001181102361
0
LINE
8
BLACK
6
CONTINUOUS
10
0.3565624409448819
20
1.8786001181102361
11
0.3448723228346456
21
1.8834423228346455
0
LINE
8
BLACK
6
CONTINUOUS
10
0.3448723228346456
20
1.8834423228346455
11
0.3337131496062992
21
1.8894070472440945
0
LINE
8
BLACK
6
CONTINUOUS
10
0.3337131496062992
20
1.8894070472440945
11
0.3231923228346457
21
1.896436811023622
0
LINE
8
BLACK
6
CONTINUOUS
10
0.3231923228346457
20
1.896436811023622
11
0.3134111811023622
21
1.9044639763779527
0
LINE
8
BLACK
6
CONTINUOUS
10
0.3134111811023622
20
1.9044639763779527
11
0.3044639763779527
21
1.9134111811023622
0
LINE
8
BLACK
6
CONTINUOUS
10
0.3044639763779527
20
1.9134111811023622
11
0.296436811023622
21
1.9231923228346457
0
LINE
8
BLACK
6
CONTINUOUS
10
0.296436811023622
20
1.9231923228346457
11
0.2894070472440945
21
1.9337131496062991
0
LINE
8
BLACK
6
CONTINUOUS
10
0.2894070472440945
20
1.9337131496062991
11
0.2834423228346457
21
1.9448723228346456
0
LINE
8
BLACK
6
CONTINUOUS
10
0.2834423228346457
20
1.9448723228346456
11
0.2786001181102362
21
1.9565624409448819
0
LINE
8
BLACK
6
CONTINUOUS
10
0.2786001181102362
20
1.9565624409448819
11
0.2749270866141732
21
1.9686708661417323
0
LINE
8
BLACK
6
CONTINUOUS
10
0.2749270866141732
20
1.9686708661417323
11
0.2724585433070866
21
1.9810810236220473
0
LINE
8
BLACK
6
CONTINUOUS
10
0.2724585433070866
20
1.9810810236220473
11
0.2712183070866142
21
1.9936733464566929
0
LINE
8
BLACK
6
CONTINUOUS
10
0.2712183070866142
20
1.9936733464566929
11
0.2712183070866142
21
2.0063266535433071
0
LINE
8
BLACK
6
CONTINUOUS
10
0.2712183070866142
20
2.0063266535433071
11
0.2712757086614173
21
2.0069092913385824
0
LINE
8
BLACK
6
CONTINUOUS
10
0.2712757086614173
20
2.0069092913385824
11
0.2724585433070866
21
2.0189189763779529
0
LINE
8
BLACK
6
CONTINUOUS
10
0.2724585433070866
20
2.0189189763779529
11
0.2749270866141732
21
2.0313291338582675
0
LINE
8
BLACK
6
CONTINUOUS
10
0.2749270866141732
20
2.0313291338582675
11
0.2786001181102362
21
2.0434375590551181
0
LINE
8
BLACK
6
CONTINUOUS
10
0.2786001181102362
20
2.0434375590551181
11
0.2834423228346457
21
2.0551276771653542
0
LINE
8
BLACK
6
CONTINUOUS
10
0.2834423228346457
20
2.0551276771653542
11
0.2894070472440945
21
2.0662868503937006
0
LINE
8
BLACK
6
CONTINUOUS
10
0.2894070472440945
20
2.0662868503937006
11
0.296436811023622
21
2.0768076771653541
0
LINE
8
BLACK
6
CONTINUOUS
10
0.296436811023622
20
2.0768076771653541
11
0.3044639763779527
21
2.0865888188976376
0
LINE
8
BLACK
6
CONTINUOUS
10
0.3044639763779527
20
2.0865888188976376
11
0.3134111811023622
21
2.0955360236220471
0
LINE
8
BLACK
6
CONTINUOUS
10
0.3134111811023622
20
2.0955360236220471
11
0.3231923228346457
21
2.103563188976378
0
LINE
8
BLACK
6
CONTINUOUS
10
0.3231923228346457
20
2.103563188976378
11
0.3337131496062992
21
2.1105929527559053
0
LINE
8
BLACK
6
CONTINUOUS
10
0.3337131496062992
20
2.1105929527559053
11
0.3448723228346456
21
2.1165576771653543
0
LINE
8
BLACK
6
CONTINUOUS
10
0.3448723228346456
20
2.1165576771653543
11
0.3565624409448819
21
2.1213998818897637
0
LINE
8
BLACK
6
CONTINUOUS
10
0.3565624409448819
20
2.1213998818897637
11
0.3686708661417323
21
2.1250729133858268
0
LINE
8
BLACK
6
CONTINUOUS
10
0.3686708661417323
20
2.1250729133858268
11
0.3810810236220472
21
2.1275414566929132
0
LINE
8
BLACK
6
CONTINUOUS
10
0.3810810236220472
20
2.1275414566929132
11
0.3936733464566929
21
2.1287816929133858
0
LINE
8
BLACK
6
CONTINUOUS
10
0.3936733464566929
20
2.1287816929133858
11
0.4063266535433071
21
2.1287816929133858
0
LINE
8
BLACK
6
CONTINUOUS
10
0.4063266535433071
20
2.1287816929133858
11
0.4189189763779527
21
2.1275414566929132
0
LINE
8
BLACK
6
CONTINUOUS
10
0.2769685039370079
20
1.9930907086614174
11
0.2785157086614173
21
1.9793589763779527
0
LINE
8
BLACK
6
CONTINUOUS
10
0.2785157086614173
20
1.9793589763779527
11
0.2815906299212598
21
1.9658868503937008
0
LINE
8
BLACK
6
CONTINUOUS
10
0.2815906299212598
20
1.9658868503937008
11
0.2861546062992126
21
1.9528437007874015
0
LINE
8
BLACK
6
CONTINUOUS
10
0.2861546062992126
20
1.9528437007874015
11
0.2921502755905512
21
1.9403935826771652
0
LINE
8
BLACK
6
CONTINUOUS
10
0.2921502755905512
20
1.9403935826771652
11
0.2995022047244094
21
1.9286930314960629
0
LINE
8
BLACK
6
CONTINUOUS
10
0.2995022047244094
20
1.9286930314960629
11
0.3081179921259842
21
1.9178892125984253
0
LINE
8
BLACK
6
CONTINUOUS
10
0.3081179921259842
20
1.9178892125984253
11
0.3178892125984252
21
1.9081179921259843
0
LINE
8
BLACK
6
CONTINUOUS
10
0.3178892125984252
20
1.9081179921259843
11
0.328693031496063
21
1.8995022047244094
0
LINE
8
BLACK
6
CONTINUOUS
10
0.328693031496063
20
1.8995022047244094
11
0.3403935826771654
21
1.892150275590551
0
LINE
8
BLACK
6
CONTINUOUS
10
0.3403935826771654
20
1.892150275590551
11
0.3528437007874016
21
1.8861546062992125
0
LINE
8
BLACK
6
CONTINUOUS
10
0.3528437007874016
20
1.8861546062992125
11
0.3658868503937008
21
1.8815906299212597
0
LINE
8
BLACK
6
CONTINUOUS
10
0.3658868503937008
20
1.8815906299212597
11
0.3793589763779527
21
1.8785157086614173
0
LINE
8
BLACK
6
CONTINUOUS
10
0.3793589763779527
20
1.8785157086614173
11
0.3930907086614173
21
1.8769685039370079
0
LINE
8
BLACK
6
CONTINUOUS
10
0.3930907086614173
20
1.8769685039370079
11
0.4069092913385827
21
1.8769685039370079
0
LINE
8
BLACK
6
CONTINUOUS
10
0.4069092913385827
20
1.8769685039370079
11
0.4206410236220472
21
1.8785157086614173
0
LINE
8
BLACK
6
CONTINUOUS
10
0.4206410236220472
20
1.8785157086614173
11
0.4341131496062992
21
1.8815906299212597
0
LINE
8
BLACK
6
CONTINUOUS
10
0.4341131496062992
20
1.8815906299212597
11
0.4471562992125984
21
1.8861546062992125
0
LINE
8
BLACK
6
CONTINUOUS
10
0.4471562992125984
20
1.8861546062992125
11
0.4596064173228346
21
1.892150275590551
0
LINE
8
BLACK
6
CONTINUOUS
10
0.4596064173228346
20
1.892150275590551
11
0.471306968503937
21
1.8995022047244094
0
LINE
8
BLACK
6
CONTINUOUS
10
0.471306968503937
20
1.8995022047244094
11
0.4821107874015748
21
1.9081179921259843
0
LINE
8
BLACK
6
CONTINUOUS
10
0.4821107874015748
20
1.9081179921259843
11
0.4918820078740158
21
1.9178892125984253
0
LINE
8
BLACK
6
CONTINUOUS
10
0.4918820078740158
20
1.9178892125984253
11
0.5004977952755906
21
1.9286930314960629
0
LINE
8
BLACK
6
CONTINUOUS
10
0.5004977952755906
20
1.9286930314960629
11
0.5078497244094488
21
1.9403935826771652
0
LINE
8
BLACK
6
CONTINUOUS
10
0.5078497244094488
20
1.9403935826771652
11
0.5138453937007874
21
1.9528437007874015
0
LINE
8
BLACK
6
CONTINUOUS
10
0.5138453937007874
20
1.9528437007874015
11
0.5184093700787401
21
1.9658868503937008
0
LINE
8
BLACK
6
CONTINUOUS
10
0.5184093700787401
20
1.9658868503937008
11
0.5214842913385827
21
1.9793589763779527
0
LINE
8
BLACK
6
CONTINUOUS
10
0.5214842913385827
20
1.9793589763779527
11
0.5230314960629922
21
1.9930907086614174
0
LINE
8
BLACK
6
CONTINUOUS
10
0.5230314960629922
20
1.9930907086614174
11
0.5230314960629922
21
2.0069092913385824
0
LINE
8
BLACK
6
CONTINUOUS
10
0.5230314960629922
20
2.0069092913385824
11
0.5214842913385827
21
2.0206410236220473
0
LINE
8
BLACK
6
CONTINUOUS
10
0.5214842913385827
20
2.0206410236220473
11
0.5184093700787401
21
2.034113149606299
0
LINE
8
BLACK
6
CONTINUOUS
10
0.5184093700787401
20
2.034113149606299
11
0.5138453937007874
21
2.0471562992125985
0
LINE
8
BLACK
6
CONTINUOUS
10
0.5138453937007874
20
2.0471562992125985
11
0.5078497244094488
21
2.0596064173228346
0
LINE
8
BLACK
6
CONTINUOUS
10
0.5078497244094488
20
2.0596064173228346
11
0.5004977952755906
21
2.0713069685039369
0
LINE
8
BLACK
6
CONTINUOUS
10
0.5004977952755906
20
2.0713069685039369
11
0.4918820078740158
21
2.0821107874015747
0
LINE
8
BLACK
6
CONTINUOUS
10
0.4918820078740158
20
2.0821107874015747
11
0.4821107874015748
21
2.0918820078740157
0
LINE
8
BLACK
6
CONTINUOUS
10
0.4821107874015748
20
2.0918820078740157
11
0.471306968503937
21
2.1004977952755906
0
LINE
8
BLACK
6
CONTINUOUS
10
0.471306968503937
20
2.1004977952755906
11
0.4596064173228346
21
2.1078497244094487
0
LINE
8
BLACK
6
CONTINUOUS
10
0.4596064173228346
20
2.1078497244094487
11
0.4471562992125984
21
2.1138453937007875
0
LINE
8
BLACK
6
CONTINUOUS
10
0.4471562992125984
20
2.1138453937007875
11
0.4341131496062992
21
2.1184093700787403
0
LINE
8
BLACK
6
CONTINUOUS
10
0.4341131496062992
20
2.1184093700787403
11
0.4206410236220472
21
2.1214842913385827
0
LINE
8
BLACK
6
CONTINUOUS
10
0.4206410236220472
20
2.1214842913385827
11
0.4069092913385827
21
2.1230314960629921
0
LINE
8
BLACK
6
CONTINUOUS
10
0.4069092913385827
20
2.1230314960629921
11
0.3930907086614173
21
2.1230314960629921
0
LINE
8
BLACK
6
CONTINUOUS
10
0.3930907086614173
20
2.1230314960629921
11
0.3793589763779527
21
2.1214842913385827
0
LINE
8
BLACK
6
CONTINUOUS
10
0.3793589763779527
20
2.1214842913385827
11
0.3658868503937008
21
2.1184093700787403
0
LINE
8
BLACK
6
CONTINUOUS
10
0.3658868503937008
20
2.1184093700787403
11
0.3528437007874016
21
2.1138453937007875
0
LINE
8
BLACK
6
CONTINUOUS
10
0.3528437007874016
20
2.1138453937007875
11
0.3403935826771654
21
2.1078497244094487
0
LINE
8
BLACK
6
CONTINUOUS
10
0.3403935826771654
20
2.1078497244094487
11
0.328693031496063
21
2.1004977952755906
0
LINE
8
BLACK
6
CONTINUOUS
10
0.328693031496063
20
2.1004977952755906
11
0.3178892125984252
21
2.0918820078740157
0
LINE
8
BLACK
6
CONTINUOUS
10
0.3178892125984252
20
2.0918820078740157
11
0.3081179921259842
21
2.0821107874015747
0
LINE
8
BLACK
6
CONTINUOUS
10
0.3081179921259842
20
2.0821107874015747
11
0.2995022047244094
21
2.0713069685039369
0
LINE
8
BLACK
6
CONTINUOUS
10
0.2995022047244094
20
2.0713069685039369
11
0.2921502755905512
21
2.0596064173228346
0
LINE
8
BLACK
6
CONTINUOUS
10
0.2921502755905512
20
2.0596064173228346
11
0.2861546062992126
21
2.0471562992125985
0
LINE
8
BLACK
6
CONTINUOUS
10
0.2861546062992126
20
2.0471562992125985
11
0.2815906299212598
21
2.034113149606299
0
LINE
8
BLACK
6
CONTINUOUS
10
0.2815906299212598
20
2.034113149606299
11
0.2785157086614173
21
2.0206410236220473
0
LINE
8
BLACK
6
CONTINUOUS
10
0.2785157086614173
20
2.0206410236220473
11
0.2769685039370079
21
2.0069092913385824
0
LINE
8
BLACK
6
CONTINUOUS
10
0.2769685039370079
20
2.0069092913385824
11
0.2769685039370079
21
1.9930907086614174
0
LINE
8
BLACK
6
CONTINUOUS
10
2.4189189763779528
20
2.1275414566929132
11
2.4313291338582679
21
2.1250729133858268
0
LINE
8
BLACK
6
CONTINUOUS
10
2.4313291338582679
20
2.1250729133858268
11
2.4434375590551181
21
2.1213998818897637
0
LINE
8
BLACK
6
CONTINUOUS
10
2.4434375590551181
20
2.1213998818897637
11
2.4551276771653541
21
2.1165576771653543
0
LINE
8
BLACK
6
CONTINUOUS
10
2.4551276771653541
20
2.1165576771653543
11
2.4662868503937005
21
2.1105929527559053
0
LINE
8
BLACK
6
CONTINUOUS
10
2.4662868503937005
20
2.1105929527559053
11
2.4768076771653544
21
2.103563188976378
0
LINE
8
BLACK
6
CONTINUOUS
10
2.4768076771653544
20
2.103563188976378
11
2.4865888188976379
21
2.0955360236220471
0
LINE
8
BLACK
6
CONTINUOUS
10
2.4865888188976379
20
2.0955360236220471
11
2.4955360236220474
21
2.0865888188976376
0
LINE
8
BLACK
6
CONTINUOUS
10
2.4955360236220474
20
2.0865888188976376
11
2.5035631889763779
21
2.0768076771653541
0
LINE
8
BLACK
6
CONTINUOUS
10
2.5035631889763779
20
2.0768076771653541
11
2.5105929527559057
21
2.0662868503937006
0
LINE
8
BLACK
6
CONTINUOUS
10
2.5105929527559057
20
2.0662868503937006
11
2.5165576771653542
21
2.0551276771653542
0
LINE
8
BLACK
6
CONTINUOUS
10
2.5165576771653542
20
2.0551276771653542
11
2.5213998818897636
21
2.0434375590551181
0
LINE
8
BLACK
6
CONTINUOUS
10
2.5213998818897636
20
2.0434375590551181
11
2.5250729133858267
21
2.0313291338582675
0
LINE
8
BLACK
6
CONTINUOUS
10
2.5250729133858267
20
2.0313291338582675
11
2.5275414566929135
21
2.0189189763779529
0
LINE
8
BLACK
6
CONTINUOUS
10
2.5275414566929135
20
2.0189189763779529
11
2.5287816929133857
21
2.0063266535433071
0
LINE
8
BLACK
6
CONTINUOUS
10
2.5287816929133857
20
2.0063266535433071
11
2.5287816929133857
21
1.9936733464566929
0
LINE
8
BLACK
6
CONTINUOUS
10
2.5287816929133857
20
1.9936733464566929
11
2.5275414566929135
21
1.9810810236220473
0
LINE
8
BLACK
6
CONTINUOUS
10
2.5275414566929135
20
1.9810810236220473
11
2.5250729133858267
21
1.9686708661417323
0
LINE
8
BLACK
6
CONTINUOUS
10
2.5250729133858267
20
1.9686708661417323
11
2.5213998818897636
21
1.9565624409448819
0
LINE
8
BLACK
6
CONTINUOUS
10
2.5213998818897636
20
1.9565624409448819
11
2.5165576771653542
21
1.9448723228346456
0
LINE
8
BLACK
6
CONTINUOUS
10
2.5165576771653542
20
1.9448723228346456
11
2.5105929527559057
21
1.9337131496062991
0
LINE
8
BLACK
6
CONTINUOUS
10
2.5105929527559057
20
1.9337131496062991
11
2.5035631889763779
21
1.9231923228346457
0
LINE
8
BLACK
6
CONTINUOUS
10
2.5035631889763779
20
1.9231923228346457
11
2.4955360236220474
21
1.9134111811023622
0
LINE
8
BLACK
6
CONTINUOUS
10
2.4955360236220474
20
1.9134111811023622
11
2.4865888188976379
21
1.9044639763779527
0
LINE
8
BLACK
6
CONTINUOUS
10
2.4865888188976379
20
1.9044639763779527
11
2.4768076771653544
21
1.896436811023622
0
LINE
8
BLACK
6
CONTINUOUS
10
2.4768076771653544
20
1.896436811023622
11
2.4662868503937005
21
1.8894070472440945
0
LINE
8
BLACK
6
CONTINUOUS
10
2.4662868503937005
20
1.8894070472440945
11
2.4551276771653541
21
1.8834423228346455
0
LINE
8
BLACK
6
CONTINUOUS
10
2.4551276771653541
20
1.8834423228346455
11
2.4434375590551181
21
1.8786001181102361
0
LINE
8
BLACK
6
CONTINUOUS
10
2.4434375590551181
20
1.8786001181102361
11
2.4313291338582679
21
1.8749270866141732
0
LINE
8
BLACK
6
CONTINUOUS
10
2.4313291338582679
20
1.8749270866141732
11
2.4189189763779528
21
1.8724585433070866
0
LINE
8
BLACK
6
CONTINUOUS
10
2.4189189763779528
20
1.8724585433070866
11
2.406326653543307
21
1.8712183070866142
0
LINE
8
BLACK
6
CONTINUOUS
10
2.406326653543307
20
1.8712183070866142
11
2.3936733464566928
21
1.8712183070866142
0
LINE
8
BLACK
6
CONTINUOUS
10
2.3936733464566928
20
1.8712183070866142
11
2.381081023622047
21
1.8724585433070866
0
LINE
8
BLACK
6
CONTINUOUS
10
2.381081023622047
20
1.8724585433070866
11
2.3686708661417324
21
1.8749270866141732
0
LINE
8
BLACK
6
CONTINUOUS
10
2.3686708661417324
20
1.8749270866141732
11
2.3565624409448818
21
1.8786001181102361
0
LINE
8
BLACK
6
CONTINUOUS
10
2.3565624409448818
20
1.8786001181102361
11
2.3448723228346458
21
1.8834423228346455
0
LINE
8
BLACK
6
CONTINUOUS
10
2.3448723228346458
20
1.8834423228346455
11
2.3337131496062993
21
1.8894070472440945
0
LINE
8
BLACK
6
CONTINUOUS
10
2.3337131496062993
20
1.8894070472440945
11
2.3231923228346458
21
1.896436811023622
0
LINE
8
BLACK
6
CONTINUOUS
10
2.3231923228346458
20
1.896436811023622
11
2.3134111811023623
21
1.9044639763779527
0
LINE
8
BLACK
6
CONTINUOUS
10
2.3134111811023623
20
1.9044639763779527
11
2.3044639763779529
21
1.9134111811023622
0
LINE
8
BLACK
6
CONTINUOUS
10
2.3044639763779529
20
1.9134111811023622
11
2.296436811023622
21
1.9231923228346457
0
LINE
8
BLACK
6
CONTINUOUS
10
2.296436811023622
20
1.9231923228346457
11
2.2894070472440946
21
1.9337131496062991
0
LINE
8
BLACK
6
CONTINUOUS
10
2.2894070472440946
20
1.9337131496062991
11
2.2834423228346457
21
1.9448723228346456
0
LINE
8
BLACK
6
CONTINUOUS
10
2.2834423228346457
20
1.9448723228346456
11
2.2786001181102362
21
1.9565624409448819
0
LINE
8
BLACK
6
CONTINUOUS
10
2.2786001181102362
20
1.9565624409448819
11
2.2749270866141731
21
1.9686708661417323
0
LINE
8
BLACK
6
CONTINUOUS
10
2.2749270866141731
20
1.9686708661417323
11
2.2724585433070867
21
1.9810810236220473
0
LINE
8
BLACK
6
CONTINUOUS
10
2.2724585433070867
20
1.9810810236220473
11
2.2712183070866141
21
1.9936733464566929
0
LINE
8
BLACK
6
CONTINUOUS
10
2.2712183070866141
20
1.9936733464566929
11
2.2712183070866141
21
2.0063266535433071
0
LINE
8
BLACK
6
CONTINUOUS
10
2.2712183070866141
20
2.0063266535433071
11
2.2712757086614173
21
2.0069092913385824
0
LINE
8
BLACK
6
CONTINUOUS
10
2.2712757086614173
20
2.0069092913385824
11
2.2724585433070867
21
2.0189189763779529
0
LINE
8
BLACK
6
CONTINUOUS
10
2.2724585433070867
20
2.0189189763779529
11
2.2749270866141731
21
2.0313291338582675
0
LINE
8
BLACK
6
CONTINUOUS
10
2.2749270866141731
20
2.0313291338582675
11
2.2786001181102362
21
2.0434375590551181
0
LINE
8
BLACK
6
CONTINUOUS
10
2.2786001181102362
20
2.0434375590551181
11
2.2834423228346457
21
2.0551276771653542
0
LINE
8
BLACK
6
CONTINUOUS
10
2.2834423228346457
20
2.0551276771653542
11
2.2894070472440946
21
2.0662868503937006
0
LINE
8
BLACK
6
CONTINUOUS
10
2.2894070472440946
20
2.0662868503937006
11
2.296436811023622
21
2.0768076771653541
0
LINE
8
BLACK
6
CONTINUOUS
10
2.296436811023622
20
2.0768076771653541
11
2.3044639763779529
21
2.0865888188976376
0
LINE
8
BLACK
6
CONTINUOUS
10
2.3044639763779529
20
2.0865888188976376
11
2.3134111811023623
21
2.0955360236220471
0
LINE
8
BLACK
6
CONTINUOUS
10
2.3134111811023623
20
2.0955360236220471
11
2.3231923228346458
21
2.103563188976378
0
LINE
8
BLACK
6
CONTINUOUS
10
2.3231923228346458
20
2.103563188976378
11
2.3337131496062993
21
2.1105929527559053
0
LINE
8
BLACK
6
CONTINUOUS
10
2.3337131496062993
20
2.1105929527559053
11
2.3448723228346458
21
2.1165576771653543
0
LINE
8
BLACK
6
CONTINUOUS
10
2.3448723228346458
20
2.1165576771653543
11
2.3565624409448818
21
2.1213998818897637
0
LINE
8
BLACK
6
CONTINUOUS
10
2.3565624409448818
20
2.1213998818897637
11
2.3686708661417324
21
2.1250729133858268
0
LINE
8
BLACK
6
CONTINUOUS
10
2.3686708661417324
20
2.1250729133858268
11
2.381081023622047
21
2.1275414566929132
0
LINE
8
BLACK
6
CONTINUOUS
10
2.381081023622047
20
2.1275414566929132
11
2.3936733464566928
21
2.1287816929133858
0
LINE
8
BLACK
6
CONTINUOUS
10
2.3936733464566928
20
2.1287816929133858
11
2.406326653543307
21
2.1287816929133858
0
LINE
8
BLACK
6
CONTINUOUS
10
2.406326653543307
20
2.1287816929133858
11
2.4189189763779528
21
2.1275414566929132
0
LINE
8
BLACK
6
CONTINUOUS
10
2.2769685039370078
20
1.9930907086614174
11
2.2785157086614172
21
1.9793589763779527
0
LINE
8
BLACK
6
CONTINUOUS
10
2.2785157086614172
20
1.9793589763779527
11
2.2815906299212596
21
1.9658868503937008
0
LINE
8
BLACK
6
CONTINUOUS
10
2.2815906299212596
20
1.9658868503937008
11
2.2861546062992124
21
1.9528437007874015
0
LINE
8
BLACK
6
CONTINUOUS
10
2.2861546062992124
20
1.9528437007874015
11
2.2921502755905512
21
1.9403935826771652
0
LINE
8
BLACK
6
CONTINUOUS
10
2.2921502755905512
20
1.9403935826771652
11
2.2995022047244094
21
1.9286930314960629
0
LINE
8
BLACK
6
CONTINUOUS
10
2.2995022047244094
20
1.9286930314960629
11
2.3081179921259842
21
1.9178892125984253
0
LINE
8
BLACK
6
CONTINUOUS
10
2.3081179921259842
20
1.9178892125984253
11
2.3178892125984252
21
1.9081179921259843
0
LINE
8
BLACK
6
CONTINUOUS
10
2.3178892125984252
20
1.9081179921259843
11
2.328693031496063
21
1.8995022047244094
0
LINE
8
BLACK
6
CONTINUOUS
10
2.328693031496063
20
1.8995022047244094
11
2.3403935826771654
21
1.892150275590551
0
LINE
8
BLACK
6
CONTINUOUS
10
2.3403935826771654
20
1.892150275590551
11
2.3528437007874015
21
1.8861546062992125
0
LINE
8
BLACK
6
CONTINUOUS
10
2.3528437007874015
20
1.8861546062992125
11
2.3658868503937009
21
1.8815906299212597
0
LINE
8
BLACK
6
CONTINUOUS
10
2.3658868503937009
20
1.8815906299212597
11
2.3793589763779526
21
1.8785157086614173
0
LINE
8
BLACK
6
CONTINUOUS
10
2.3793589763779526
20
1.8785157086614173
11
2.3930907086614175
21
1.8769685039370079
0
LINE
8
BLACK
6
CONTINUOUS
10
2.3930907086614175
20
1.8769685039370079
11
2.4069092913385828
21
1.8769685039370079
0
LINE
8
BLACK
6
CONTINUOUS
10
2.4069092913385828
20
1.8769685039370079
11
2.4206410236220472
21
1.8785157086614173
0
LINE
8
BLACK
6
CONTINUOUS
10
2.4206410236220472
20
1.8785157086614173
11
2.4341131496062993
21
1.8815906299212597
0
LINE
8
BLACK
6
CONTINUOUS
10
2.4341131496062993
20
1.8815906299212597
11
2.4471562992125984
21
1.8861546062992125
0
LINE
8
BLACK
6
CONTINUOUS
10
2.4471562992125984
20
1.8861546062992125
11
2.4596064173228345
21
1.892150275590551
0
LINE
8
BLACK
6
CONTINUOUS
10
2.4596064173228345
20
1.892150275590551
11
2.4713069685039368
21
1.8995022047244094
0
LINE
8
BLACK
6
CONTINUOUS
10
2.4713069685039368
20
1.8995022047244094
11
2.4821107874015746
21
1.9081179921259843
0
LINE
8
BLACK
6
CONTINUOUS
10
2.4821107874015746
20
1.9081179921259843
11
2.4918820078740156
21
1.9178892125984253
0
LINE
8
BLACK
6
CONTINUOUS
10
2.4918820078740156
20
1.9178892125984253
11
2.5004977952755905
21
1.9286930314960629
0
LINE
8
BLACK
6
CONTINUOUS
10
2.5004977952755905
20
1.9286930314960629
11
2.5078497244094486
21
1.9403935826771652
0
LINE
8
BLACK
6
CONTINUOUS
10
2.5078497244094486
20
1.9403935826771652
11
2.5138453937007874
21
1.9528437007874015
0
LINE
8
BLACK
6
CONTINUOUS
10
2.5138453937007874
20
1.9528437007874015
11
2.5184093700787402
21
1.9658868503937008
0
LINE
8
BLACK
6
CONTINUOUS
10
2.5184093700787402
20
1.9658868503937008
11
2.5214842913385827
21
1.9793589763779527
0
LINE
8
BLACK
6
CONTINUOUS
10
2.5214842913385827
20
1.9793589763779527
11
2.523031496062992
21
1.9930907086614174
0
LINE
8
BLACK
6
CONTINUOUS
10
2.523031496062992
20
1.9930907086614174
11
2.523031496062992
21
2.0069092913385824
0
LINE
8
BLACK
6
CONTINUOUS
10
2.523031496062992
20
2.0069092913385824
11
2.5214842913385827
21
2.0206410236220473
0
LINE
8
BLACK
6
CONTINUOUS
10
2.5214842913385827
20
2.0206410236220473
11
2.5184093700787402
21
2.034113149606299
0
LINE
8
BLACK
6
CONTINUOUS
10
2.5184093700787402
20
2.034113149606299
11
2.5138453937007874
21
2.0471562992125985
0
LINE
8
BLACK
6
CONTINUOUS
10
2.5138453937007874
20
2.0471562992125985
11
2.5078497244094486
21
2.0596064173228346
0
LINE
8
BLACK
6
CONTINUOUS
10
2.5078497244094486
20
2.0596064173228346
11
2.5004977952755905
21
2.0713069685039369
0
LINE
8
BLACK
6
CONTINUOUS
10
2.5004977952755905
20
2.0713069685039369
11
2.4918820078740156
21
2.0821107874015747
0
LINE
8
BLACK
6
CONTINUOUS
10
2.4918820078740156
20
2.0821107874015747
11
2.4821107874015746
21
2.0918820078740157
0
LINE
8
BLACK
6
CONTINUOUS
10
2.4821107874015746
20
2.0918820078740157
11
2.4713069685039368
21
2.1004977952755906
0
LINE
8
BLACK
6
CONTINUOUS
10
2.4713069685039368
20
2.1004977952755906
11
2.4596064173228345
21
2.1078497244094487
0
LINE
8
BLACK
6
CONTINUOUS
10
2.4596064173228345
20
2.1078497244094487
11
2.4471562992125984
21
2.1138453937007875
0
LINE
8
BLACK
6
CONTINUOUS
10
2.4471562992125984
20
2.1138453937007875
11
2.4341131496062993
21
2.1184093700787403
0
LINE
8
BLACK
6
CONTINUOUS
10
2.4341131496062993
20
2.1184093700787403
11
2.4206410236220472
21
2.1214842913385827
0
LINE
8
BLACK
6
CONTINUOUS
10
2.4206410236220472
20
2.1214842913385827
11
2.4069092913385828
21
2.1230314960629921
0
LINE
8
BLACK
6
CONTINUOUS
10
2.4069092913385828
20
2.1230314960629921
11
2.3930907086614175
21
2.1230314960629921
0
LINE
8
BLACK
6
CONTINUOUS
10
2.3930907086614175
20
2.1230314960629921
11
2.3793589763779526
21
2.1214842913385827
0
LINE
8
BLACK
6
CONTINUOUS
10
2.3793589763779526
20
2.1214842913385827
11
2.3658868503937009
21
2.1184093700787403
0
LINE
8
BLACK
6
CONTINUOUS
10
2.3658868503937009
20
2.1184093700787403
11
2.3528437007874015
21
2.1138453937007875
0
LINE
8
BLACK
6
CONTINUOUS
10
2.3528437007874015
20
2.1138453937007875
11
2.3403935826771654
21
2.1078497244094487
0
LINE
8
BLACK
6
CONTINUOUS
10
2.3403935826771654
20
2.1078497244094487
11
2.328693031496063
21
2.1004977952755906
0
LINE
8
BLACK
6
CONTINUOUS
10
2.328693031496063
20
2.1004977952755906
11
2.3178892125984252
21
2.0918820078740157
0
LINE
8
BLACK
6
CONTINUOUS
10
2.3178892125984252
20
2.0918820078740157
11
2.3081179921259842
21
2.0821107874015747
0
LINE
8
BLACK
6
CONTINUOUS
10
2.3081179921259842
20
2.0821107874015747
11
2.2995022047244094
21
2.0713069685039369
0
LINE
8
BLACK
6
CONTINUOUS
10
2.2995022047244094
20
2.0713069685039369
11
2.2921502755905512
21
2.0596064173228346
0
LINE
8
BLACK
6
CONTINUOUS
10
2.2921502755905512
20
2.0596064173228346
11
2.2861546062992124
21
2.0471562992125985
0
LINE
8
BLACK
6
CONTINUOUS
10
2.2861546062992124
20
2.0471562992125985
11
2.2815906299212596
21
2.034113149606299
0
LINE
8
BLACK
6
CONTINUOUS
10
2.2815906299212596
20
2.034113149606299
11
2.2785157086614172
21
2.0206410236220473
0
LINE
8
BLACK
6
CONTINUOUS
10
2.2785157086614172
20
2.0206410236220473
11
2.2769685039370078
21
2.0069092913385824
0
LINE
8
BLACK
6
CONTINUOUS
10
2.2769685039370078
20
2.0069092913385824
11
2.2769685039370078
21
1.9930907086614174
0
CIRCLE
8
BLACK
10
2.3055118110236221
20
0.4
40
0.0068897637795276
0
CIRCLE
8
BLACK
10
2.3331867716535433
20
0.4668132283464567
40
0.0068897637795276
0
CIRCLE
8
BLACK
10
2.3331867716535433
20
0.3331867716535433
40
0.0068897637795276
0
CIRCLE
8
BLACK
10
2.3999999999999999
20
0.4944881889763779
40
0.0068897637795276
0
CIRCLE
8
BLACK
10
2.3999999999999999
20
0.4
40
0.0068897637795276
0
CIRCLE
8
BLACK
10
2.3999999999999999
20
0.305511811023622
40
0.0068897637795276
0
CIRCLE
8
BLACK
10
2.4668132283464566
20
0.4668132283464567
40
0.0068897637795276
0
CIRCLE
8
BLACK
10
2.4668132283464566
20
0.3331867716535433
40
0.0068897637795276
0
CIRCLE
8
BLACK
10
2.4944881889763777
20
0.4
40
0.0068897637795276
0
CIRCLE
8
BLACK
10
3.192913346456693
20
0.2897637795275591
40
0.0068897637795276
0
CIRCLE
8
BLACK
10
3.0929133464566929
20
0.2897637795275591
40
0.0068897637795276
0
CIRCLE
8
BLACK
10
3.1929133858267718
20
0.389763779527559
40
0.0068897637795276
0
CIRCLE
8
BLACK
10
3.0929133070866142
20
0.389763779527559
40
0.0068897637795276
0
CIRCLE
8
BLACK
10
3.192913346456693
20
0.4897637795275591
40
0.0068897637795276
0
CIRCLE
8
BLACK
10
3.0929133464566929
20
0.4897637795275591
40
0.0068897637795276
0
CIRCLE
8
BLACK
10
-0.5275590944881889
20
0.7070866141732284
40
0.0068897637795276
0
CIRCLE
8
BLACK
10
-0.6275590944881889
20
0.7070866141732284
40
0.0068897637795276
0
CIRCLE
8
BLACK
10
-0.5275590551181102
20
0.8070866141732284
40
0.0068897637795276
0
CIRCLE
8
BLACK
10
-0.6275591338582677
20
0.8070866141732284
40
0.0068897637795276
0
CIRCLE
8
BLACK
10
-0.5275590944881889
20
0.9070866141732283
40
0.0068897637795276
0
CIRCLE
8
BLACK
10
-0.6275590944881889
20
0.9070866141732283
40
0.0068897637795276
0
CIRCLE
8
BLACK
10
0.305511811023622
20
0.4
40
0.0068897637795276
0
CIRCLE
8
BLACK
10
0.3331867716535433
20
0.4668132283464567
40
0.0068897637795276
0
CIRCLE
8
BLACK
10
0.3331867716535433
20
0.3331867716535433
40
0.0068897637795276
0
CIRCLE
8
BLACK
10
0.4
20
0.4944881889763779
40
0.0068897637795276
0
CIRCLE
8
BLACK
10
0.4
20
0.4
40
0.0068897637795276
0
CIRCLE
8
BLACK
10
0.4
20
0.305511811023622
40
0.0068897637795276
0
CIRCLE
8
BLACK
10
0.4668132283464567
20
0.4668132283464567
40
0.0068897637795276
0
CIRCLE
8
BLACK
10
0.4668132283464567
20
0.3331867716535433
40
0.0068897637795276
0
CIRCLE
8
BLACK
10
0.4944881889763779
20
0.4
40
0.0068897637795276
0
CIRCLE
8
BLACK
10
0.305511811023622
20
2.
40
0.0068897637795276
0
CIRCLE
8
BLACK
10
0.3331867716535433
20
2.0668132283464566
40
0.0068897637795276
0
CIRCLE
8
BLACK
10
0.3331867716535433
20
1.9331867716535434
40
0.0068897637795276
0
CIRCLE
8
BLACK
10
0.4
20
2.0944881889763778
40
0.0068897637795276
0
CIRCLE
8
BLACK
10
0.4
20
2.
40
0.0068897637795276
0
CIRCLE
8
BLACK
10
0.4
20
1.905511811023622
40
0.0068897637795276
0
CIRCLE
8
BLACK
10
0.4668132283464567
20
2.0668132283464566
40
0.0068897637795276
0
CIRCLE
8
BLACK
10
0.4668132283464567
20
1.9331867716535434
40
0.0068897637795276
0
CIRCLE
8
BLACK
10
0.4944881889763779
20
2.
40
0.0068897637795276
0
CIRCLE
8
BLACK
10
4.0885826771653546
20
1.3421259842519684
40
0.0068897637795276
0
CIRCLE
8
BLACK
10
4.1885826771653543
20
1.3421259842519684
40
0.0068897637795276
0
CIRCLE
8
BLACK
10
4.0885826771653546
20
1.2421259842519685
40
0.0068897637795276
0
CIRCLE
8
BLACK
10
4.1885826771653543
20
1.2421259842519685
40
0.0068897637795276
0
CIRCLE
8
BLACK
10
4.0885826771653546
20
1.1421259842519684
40
0.0068897637795276
0
CIRCLE
8
BLACK
10
4.1885826771653543
20
1.1421259842519684
40
0.0068897637795276
0
CIRCLE
8
BLACK
10
0.6283464566929133
20
0.3645669291338582
40
0.0068897637795276
0
CIRCLE
8
BLACK
10
0.6283464566929133
20
0.4645669291338583
40
0.0068897637795276
0
CIRCLE
8
BLACK
10
0.7283464566929134
20
0.3645669291338582
40
0.0068897637795276
0
CIRCLE
8
BLACK
10
0.7283464566929134
20
0.4645669291338583
40
0.0068897637795276
0
CIRCLE
8
BLACK
10
0.8283464566929134
20
0.3645669291338582
40
0.0068897637795276
0
CIRCLE
8
BLACK
10
0.8283464566929134
20
0.4645669291338583
40
0.0068897637795276
0
CIRCLE
8
BLACK
10
0.9283464566929134
20
0.3645668897637795
40
0.0068897637795276
0
CIRCLE
8
BLACK
10
0.9283464566929134
20
0.464566968503937
40
0.0068897637795276
0
CIRCLE
8
BLACK
10
1.0283464566929135
20
0.3645669291338582
40
0.0068897637795276
0
CIRCLE
8
BLACK
10
1.0283464566929135
20
0.4645669291338583
40
0.0068897637795276
0
CIRCLE
8
BLACK
10
1.1283464566929133
20
0.3645669291338582
40
0.0068897637795276
0
CIRCLE
8
BLACK
10
1.1283464566929133
20
0.4645669291338583
40
0.0068897637795276
0
CIRCLE
8
BLACK
10
1.2283464566929134
20
0.3645669291338582
40
0.0068897637795276
0
CIRCLE
8
BLACK
10
1.2283464566929134
20
0.4645669291338583
40
0.0068897637795276
0
CIRCLE
8
BLACK
10
1.3283464566929133
20
0.3645669291338582
40
0.0068897637795276
0
CIRCLE
8
BLACK
10
1.3283464566929133
20
0.4645669291338583
40
0.0068897637795276
0
CIRCLE
8
BLACK
10
1.4283464566929134
20
0.3645668897637795
40
0.0068897637795276
0
CIRCLE
8
BLACK
10
1.4283464566929134
20
0.464566968503937
40
0.0068897637795276
0
CIRCLE
8
BLACK
10
1.5283464566929132
20
0.3645669291338582
40
0.0068897637795276
0
CIRCLE
8
BLACK
10
1.5283464566929132
20
0.4645669291338583
40
0.0068897637795276
0
CIRCLE
8
BLACK
10
1.6283464566929133
20
0.3645669291338582
40
0.0068897637795276
0
CIRCLE
8
BLACK
10
1.6283464566929133
20
0.4645669291338583
40
0.0068897637795276
0
CIRCLE
8
BLACK
10
1.7283464566929134
20
0.3645669291338582
40
0.0068897637795276
0
CIRCLE
8
BLACK
10
1.7283464566929134
20
0.4645669291338583
40
0.0068897637795276
0
CIRCLE
8
BLACK
10
0.4188976377952756
20
0.6535433070866141
40
0.0068897637795276
0
CIRCLE
8
BLACK
10
0.3188976377952756
20
0.6535433070866141
40
0.0068897637795276
0
CIRCLE
8
BLACK
10
0.4188976377952756
20
0.7535433070866142
40
0.0068897637795276
0
CIRCLE
8
BLACK
10
0.3188976377952756
20
0.7535433070866142
40
0.0068897637795276
0
CIRCLE
8
BLACK
10
0.4188976377952756
20
0.8535433070866142
40
0.0068897637795276
0
CIRCLE
8
BLACK
10
0.3188976377952756
20
0.8535433070866142
40
0.0068897637795276
0
CIRCLE
8
BLACK
10
0.4188976771653543
20
0.9535433070866142
40
0.0068897637795276
0
CIRCLE
8
BLACK
10
0.3188975984251968
20
0.9535433070866142
40
0.0068897637795276
0
CIRCLE
8
BLACK
10
0.4188976377952756
20
1.0535433070866143
40
0.0068897637795276
0
CIRCLE
8
BLACK
10
0.3188976377952756
20
1.0535433070866143
40
0.0068897637795276
0
CIRCLE
8
BLACK
10
0.4188976377952756
20
1.1535433070866141
40
0.0068897637795276
0
CIRCLE
8
BLACK
10
0.3188976377952756
20
1.1535433070866141
40
0.0068897637795276
0
CIRCLE
8
BLACK
10
0.4188976377952756
20
1.2535433070866142
40
0.0068897637795276
0
CIRCLE
8
BLACK
10
0.3188976377952756
20
1.2535433070866142
40
0.0068897637795276
0
CIRCLE
8
BLACK
10
0.4188976377952756
20
1.3535433070866141
40
0.0068897637795276
0
CIRCLE
8
BLACK
10
0.3188976377952756
20
1.3535433070866141
40
0.0068897637795276
0
CIRCLE
8
BLACK
10
0.4188976771653543
20
1.4535433070866142
40
0.0068897637795276
0
CIRCLE
8
BLACK
10
0.3188975984251968
20
1.4535433070866142
40
0.0068897637795276
0
CIRCLE
8
BLACK
10
0.4188976377952756
20
1.553543307086614
40
0.0068897637795276
0
CIRCLE
8
BLACK
10
0.3188976377952756
20
1.553543307086614
40
0.0068897637795276
0
CIRCLE
8
BLACK
10
0.4188976377952756
20
1.6535433070866141
40
0.0068897637795276
0
CIRCLE
8
BLACK
10
0.3188976377952756
20
1.6535433070866141
40
0.0068897637795276
0
CIRCLE
8
BLACK
10
0.4188976377952756
20
1.7535433070866142
40
0.0068897637795276
0
CIRCLE
8
BLACK
10
0.3188976377952756
20
1.7535433070866142
40
0.0068897637795276
0
CIRCLE
8
BLACK
10
2.3622047244094486
20
1.7488188976377952
40
0.0068897637795276
0
CIRCLE
8
BLACK
10
2.4622047244094487
20
1.7488188976377952
40
0.0068897637795276
0
CIRCLE
8
BLACK
10
2.3622047244094486
20
1.6488188976377953
40
0.0068897637795276
0
CIRCLE
8
BLACK
10
2.4622047244094487
20
1.6488188976377953
40
0.0068897637795276
0
CIRCLE
8
BLACK
10
2.3622047244094486
20
1.5488188976377952
40
0.0068897637795276
0
CIRCLE
8
BLACK
10
2.4622047244094487
20
1.5488188976377952
40
0.0068897637795276
0
CIRCLE
8
BLACK
10
2.3622047244094486
20
1.4488188976377951
40
0.0068897637795276
0
CIRCLE
8
BLACK
10
2.4622047244094487
20
1.4488188976377951
40
0.0068897637795276
0
CIRCLE
8
BLACK
10
2.3622047244094486
20
1.3488188976377953
40
0.0068897637795276
0
CIRCLE
8
BLACK
10
2.4622047244094487
20
1.3488188976377953
40
0.0068897637795276
0
CIRCLE
8
BLACK
10
2.3622047244094486
20
1.2488188976377952
40
0.0068897637795276
0
CIRCLE
8
BLACK
10
2.4622047244094487
20
1.2488188976377952
40
0.0068897637795276
0
CIRCLE
8
BLACK
10
2.3622047244094486
20
1.1488188976377953
40
0.0068897637795276
0
CIRCLE
8
BLACK
10
2.4622047244094487
20
1.1488188976377953
40
0.0068897637795276
0
CIRCLE
8
BLACK
10
2.3622047244094486
20
1.0488188976377952
40
0.0068897637795276
0
CIRCLE
8
BLACK
10
2.4622047244094487
20
1.0488188976377952
40
0.0068897637795276
0
CIRCLE
8
BLACK
10
2.3622047244094486
20
0.9488188976377953
40
0.0068897637795276
0
CIRCLE
8
BLACK
10
2.4622047244094487
20
0.9488188976377953
40
0.0068897637795276
0
CIRCLE
8
BLACK
10
2.3622047244094486
20
0.8488188976377953
40
0.0068897637795276
0
CIRCLE
8
BLACK
10
2.4622047244094487
20
0.8488188976377953
40
0.0068897637795276
0
CIRCLE
8
BLACK
10
2.3622047244094486
20
0.7488188976377953
40
0.0068897637795276
0
CIRCLE
8
BLACK
10
2.4622047244094487
20
0.7488188976377953
40
0.0068897637795276
0
CIRCLE
8
BLACK
10
2.3622047244094486
20
0.6488188976377952
40
0.0068897637795276
0
CIRCLE
8
BLACK
10
2.4622047244094487
20
0.6488188976377952
40
0.0068897637795276
0
CIRCLE
8
BLACK
10
2.1535432677165356
20
0.8944881889763779
40
0.0068897637795276
0
CIRCLE
8
BLACK
10
2.0535432677165355
20
0.8944881889763779
40
0.0068897637795276
0
CIRCLE
8
BLACK
10
2.1535432677165356
20
0.9944881889763779
40
0.0068897637795276
0
CIRCLE
8
BLACK
10
2.0535432677165355
20
0.9944881889763779
40
0.0068897637795276
0
CIRCLE
8
BLACK
10
2.1535433070866143
20
1.094488188976378
40
0.0068897637795276
0
CIRCLE
8
BLACK
10
2.0535432283464568
20
1.094488188976378
40
0.0068897637795276
0
CIRCLE
8
BLACK
10
2.1535432677165356
20
1.1944881889763779
40
0.0068897637795276
0
CIRCLE
8
BLACK
10
2.0535432677165355
20
1.1944881889763779
40
0.0068897637795276
0
CIRCLE
8
BLACK
10
2.1535432677165356
20
1.294488188976378
40
0.0068897637795276
0
CIRCLE
8
BLACK
10
2.0535432677165355
20
1.294488188976378
40
0.0068897637795276
0
CIRCLE
8
BLACK
10
2.3055118110236221
20
2.
40
0.0068897637795276
0
CIRCLE
8
BLACK
10
2.3331867716535433
20
2.0668132283464566
40
0.0068897637795276
0
CIRCLE
8
BLACK
10
2.3331867716535433
20
1.9331867716535434
40
0.0068897637795276
0
CIRCLE
8
BLACK
10
2.3999999999999999
20
2.0944881889763778
40
0.0068897637795276
0
CIRCLE
8
BLACK
10
2.3999999999999999
20
2.
40
0.0068897637795276
0
CIRCLE
8
BLACK
10
2.3999999999999999
20
1.905511811023622
40
0.0068897637795276
0
CIRCLE
8
BLACK
10
2.4668132283464566
20
2.0668132283464566
40
0.0068897637795276
0
CIRCLE
8
BLACK
10
2.4668132283464566
20
1.9331867716535434
40
0.0068897637795276
0
CIRCLE
8
BLACK
10
2.4944881889763777
20
2.
40
0.0068897637795276
0
CIRCLE
8
BLACK
10
2.1456692913385824
20
0.4724409448818898
40
0.0068897637795276
0
CIRCLE
8
BLACK
10
1.918110157480315
20
0.4724409448818898
40
0.0068897637795276
0
LINE
8
BLACK
6
CONTINUOUS
10
2.1902585039370077
20
0.3448487401574803
11
2.1910564960629921
21
0.347826968503937
0
LINE
8
BLACK
6
CONTINUOUS
10
2.1910564960629921
20
0.347826968503937
11
2.1925981496062992
21
0.3504971653543307
0
LINE
8
BLACK
6
CONTINUOUS
10
2.1925981496062992
20
0.3504971653543307
11
2.1947783858267718
21
0.3526774015748032
0
LINE
8
BLACK
6
CONTINUOUS
10
2.1947783858267718
20
0.3526774015748032
11
2.1974485826771653
21
0.3542190551181102
0
LINE
8
BLACK
6
CONTINUOUS
10
2.1974485826771653
20
0.3542190551181102
11
2.2004268110236218
21
0.3550170472440945
0
LINE
8
BLACK
6
CONTINUOUS
10
2.2004268110236218
20
0.3550170472440945
11
2.2035101181102363
21
0.3550170472440945
0
LINE
8
BLACK
6
CONTINUOUS
10
2.2035101181102363
20
0.3550170472440945
11
2.2064883464566929
21
0.3542190551181102
0
LINE
8
BLACK
6
CONTINUOUS
10
2.2064883464566929
20
0.3542190551181102
11
2.2091585433070864
21
0.3526774015748032
0
LINE
8
BLACK
6
CONTINUOUS
10
2.2091585433070864
20
0.3526774015748032
11
2.211338779527559
21
0.3504971653543307
0
LINE
8
BLACK
6
CONTINUOUS
10
2.211338779527559
20
0.3504971653543307
11
2.212880433070866
21
0.347826968503937
0
LINE
8
BLACK
6
CONTINUOUS
10
2.212880433070866
20
0.347826968503937
11
2.2136784251968504
21
0.3448487401574803
0
LINE
8
BLACK
6
CONTINUOUS
10
2.2136784251968504
20
0.3448487401574803
11
2.2137794881889765
21
0.3433070866141732
0
LINE
8
BLACK
6
CONTINUOUS
10
2.2137794881889765
20
0.3433070866141732
11
2.2137794881889765
21
0.3118110236220472
0
LINE
8
BLACK
6
CONTINUOUS
10
2.2137794881889765
20
0.3118110236220472
11
2.2136784251968504
21
0.3102693700787402
0
LINE
8
BLACK
6
CONTINUOUS
10
2.2136784251968504
20
0.3102693700787402
11
2.212880433070866
21
0.3072911417322834
0
LINE
8
BLACK
6
CONTINUOUS
10
2.212880433070866
20
0.3072911417322834
11
2.211338779527559
21
0.3046209448818897
0
LINE
8
BLACK
6
CONTINUOUS
10
2.211338779527559
20
0.3046209448818897
11
2.2091585433070864
21
0.3024407086614173
0
LINE
8
BLACK
6
CONTINUOUS
10
2.2091585433070864
20
0.3024407086614173
11
2.2064883464566929
21
0.3008990551181102
0
LINE
8
BLACK
6
CONTINUOUS
10
2.2064883464566929
20
0.3008990551181102
11
2.2035101181102363
21
0.300101062992126
0
LINE
8
BLACK
6
CONTINUOUS
10
2.2035101181102363
20
0.300101062992126
11
2.2004268110236218
21
0.300101062992126
0
LINE
8
BLACK
6
CONTINUOUS
10
2.2004268110236218
20
0.300101062992126
11
2.1974485826771653
21
0.3008990551181102
0
LINE
8
BLACK
6
CONTINUOUS
10
2.1974485826771653
20
0.3008990551181102
11
2.1947783858267718
21
0.3024407086614173
0
LINE
8
BLACK
6
CONTINUOUS
10
2.1947783858267718
20
0.3024407086614173
11
2.1925981496062992
21
0.3046209448818897
0
LINE
8
BLACK
6
CONTINUOUS
10
2.1925981496062992
20
0.3046209448818897
11
2.1910564960629921
21
0.3072911417322834
0
LINE
8
BLACK
6
CONTINUOUS
10
2.1910564960629921
20
0.3072911417322834
11
2.1902585039370077
21
0.3102693700787402
0
LINE
8
BLACK
6
CONTINUOUS
10
2.1902585039370077
20
0.3102693700787402
11
2.1901574409448816
21
0.3118110236220472
0
LINE
8
BLACK
6
CONTINUOUS
10
2.1901574409448816
20
0.3118110236220472
11
2.1901574409448816
21
0.3433070866141732
0
LINE
8
BLACK
6
CONTINUOUS
10
2.1901574409448816
20
0.3433070866141732
11
2.1902585039370077
21
0.3448487401574803
0
LINE
8
BLACK
6
CONTINUOUS
10
1.8501010236220472
20
0.3448487401574803
11
1.8508990157480314
21
0.347826968503937
0
LINE
8
BLACK
6
CONTINUOUS
10
1.8508990157480314
20
0.347826968503937
11
1.8524406692913384
21
0.3504971653543307
0
LINE
8
BLACK
6
CONTINUOUS
10
1.8524406692913384
20
0.3504971653543307
11
1.854620905511811
21
0.3526774015748032
0
LINE
8
BLACK
6
CONTINUOUS
10
1.854620905511811
20
0.3526774015748032
11
1.8572911023622047
21
0.3542190551181102
0
LINE
8
BLACK
6
CONTINUOUS
10
1.8572911023622047
20
0.3542190551181102
11
1.8602693307086613
21
0.3550170472440945
0
LINE
8
BLACK
6
CONTINUOUS
10
1.8602693307086613
20
0.3550170472440945
11
1.8633526377952756
21
0.3550170472440945
0
LINE
8
BLACK
6
CONTINUOUS
10
1.8633526377952756
20
0.3550170472440945
11
1.8663308661417322
21
0.3542190551181102
0
LINE
8
BLACK
6
CONTINUOUS
10
1.8663308661417322
20
0.3542190551181102
11
1.8690010629921259
21
0.3526774015748032
0
LINE
8
BLACK
6
CONTINUOUS
10
1.8690010629921259
20
0.3526774015748032
11
1.8711812992125985
21
0.3504971653543307
0
LINE
8
BLACK
6
CONTINUOUS
10
1.8711812992125985
20
0.3504971653543307
11
1.8727229527559055
21
0.347826968503937
0
LINE
8
BLACK
6
CONTINUOUS
10
1.8727229527559055
20
0.347826968503937
11
1.8735209448818897
21
0.3448487401574803
0
LINE
8
BLACK
6
CONTINUOUS
10
1.8735209448818897
20
0.3448487401574803
11
1.8736220078740158
21
0.3433070866141732
0
LINE
8
BLACK
6
CONTINUOUS
10
1.8736220078740158
20
0.3433070866141732
11
1.8736220078740158
21
0.3118110236220472
0
LINE
8
BLACK
6
CONTINUOUS
10
1.8736220078740158
20
0.3118110236220472
11
1.8735209448818897
21
0.3102693700787402
0
LINE
8
BLACK
6
CONTINUOUS
10
1.8735209448818897
20
0.3102693700787402
11
1.8727229527559055
21
0.3072911417322834
0
LINE
8
BLACK
6
CONTINUOUS
10
1.8727229527559055
20
0.3072911417322834
11
1.8711812992125985
21
0.3046209448818897
0
LINE
8
BLACK
6
CONTINUOUS
10
1.8711812992125985
20
0.3046209448818897
11
1.8690010629921259
21
0.3024407086614173
0
LINE
8
BLACK
6
CONTINUOUS
10
1.8690010629921259
20
0.3024407086614173
11
1.8663308661417322
21
0.3008990551181102
0
LINE
8
BLACK
6
CONTINUOUS
10
1.8663308661417322
20
0.3008990551181102
11
1.8633526377952756
21
0.300101062992126
0
LINE
8
BLACK
6
CONTINUOUS
10
1.8633526377952756
20
0.300101062992126
11
1.8602693307086613
21
0.300101062992126
0
LINE
8
BLACK
6
CONTINUOUS
10
1.8602693307086613
20
0.300101062992126
11
1.8572911023622047
21
0.3008990551181102
0
LINE
8
BLACK
6
CONTINUOUS
10
1.8572911023622047
20
0.3008990551181102
11
1.854620905511811
21
0.3024407086614173
0
LINE
8
BLACK
6
CONTINUOUS
10
1.854620905511811
20
0.3024407086614173
11
1.8524406692913384
21
0.3046209448818897
0
LINE
8
BLACK
6
CONTINUOUS
10
1.8524406692913384
20
0.3046209448818897
11
1.8508990157480314
21
0.3072911417322834
0
LINE
8
BLACK
6
CONTINUOUS
10
1.8508990157480314
20
0.3072911417322834
11
1.8501010236220472
21
0.3102693700787402
0
LINE
8
BLACK
6
CONTINUOUS
10
1.8501010236220472
20
0.3102693700787402
11
1.8499999606299211
21
0.3118110236220472
0
LINE
8
BLACK
6
CONTINUOUS
10
1.8499999606299211
20
0.3118110236220472
11
1.8499999606299211
21
0.3433070866141732
0
LINE
8
BLACK
6
CONTINUOUS
10
1.8499999606299211
20
0.3433070866141732
11
1.8501010236220472
21
0.3448487401574803
0
LINE
8
BLACK
6
CONTINUOUS
10
2.1902585039370077
20
0.5153211811023622
11
2.1910564960629921
21
0.5182994094488189
0
LINE
8
BLACK
6
CONTINUOUS
10
2.1910564960629921
20
0.5182994094488189
11
2.1925981496062992
21
0.5209696062992126
0
LINE
8
BLACK
6
CONTINUOUS
10
2.1925981496062992
20
0.5209696062992126
11
2.1947783858267718
21
0.523149842519685
0
LINE
8
BLACK
6
CONTINUOUS
10
2.1947783858267718
20
0.523149842519685
11
2.1974485826771653
21
0.5246914960629921
0
LINE
8
BLACK
6
CONTINUOUS
10
2.1974485826771653
20
0.5246914960629921
11
2.2004268110236218
21
0.5254894881889763
0
LINE
8
BLACK
6
CONTINUOUS
10
2.2004268110236218
20
0.5254894881889763
11
2.2035101181102363
21
0.5254894881889763
0
LINE
8
BLACK
6
CONTINUOUS
10
2.2035101181102363
20
0.5254894881889763
11
2.2064883464566929
21
0.5246914960629921
0
LINE
8
BLACK
6
CONTINUOUS
10
2.2064883464566929
20
0.5246914960629921
11
2.2091585433070864
21
0.523149842519685
0
LINE
8
BLACK
6
CONTINUOUS
10
2.2091585433070864
20
0.523149842519685
11
2.211338779527559
21
0.5209696062992126
0
LINE
8
BLACK
6
CONTINUOUS
10
2.211338779527559
20
0.5209696062992126
11
2.212880433070866
21
0.5182994094488189
0
LINE
8
BLACK
6
CONTINUOUS
10
2.212880433070866
20
0.5182994094488189
11
2.2136784251968504
21
0.5153211811023622
0
LINE
8
BLACK
6
CONTINUOUS
10
2.2136784251968504
20
0.5153211811023622
11
2.2137794881889765
21
0.5137795275590551
0
LINE
8
BLACK
6
CONTINUOUS
10
2.2137794881889765
20
0.5137795275590551
11
2.2137794881889765
21
0.4704724409448819
0
LINE
8
BLACK
6
CONTINUOUS
10
2.2137794881889765
20
0.4704724409448819
11
2.2136784251968504
21
0.4689307874015748
0
LINE
8
BLACK
6
CONTINUOUS
10
2.2136784251968504
20
0.4689307874015748
11
2.212880433070866
21
0.4659525590551181
0
LINE
8
BLACK
6
CONTINUOUS
10
2.212880433070866
20
0.4659525590551181
11
2.211338779527559
21
0.4632823622047244
0
LINE
8
BLACK
6
CONTINUOUS
10
2.211338779527559
20
0.4632823622047244
11
2.2091585433070864
21
0.4611021259842519
0
LINE
8
BLACK
6
CONTINUOUS
10
2.2091585433070864
20
0.4611021259842519
11
2.2064883464566929
21
0.4595604724409449
0
LINE
8
BLACK
6
CONTINUOUS
10
2.2064883464566929
20
0.4595604724409449
11
2.2035101181102363
21
0.4587624803149606
0
LINE
8
BLACK
6
CONTINUOUS
10
2.2035101181102363
20
0.4587624803149606
11
2.2004268110236218
21
0.4587624803149606
0
LINE
8
BLACK
6
CONTINUOUS
10
2.2004268110236218
20
0.4587624803149606
11
2.1974485826771653
21
0.4595604724409449
0
LINE
8
BLACK
6
CONTINUOUS
10
2.1974485826771653
20
0.4595604724409449
11
2.1947783858267718
21
0.4611021259842519
0
LINE
8
BLACK
6
CONTINUOUS
10
2.1947783858267718
20
0.4611021259842519
11
2.1925981496062992
21
0.4632823622047244
0
LINE
8
BLACK
6
CONTINUOUS
10
2.1925981496062992
20
0.4632823622047244
11
2.1910564960629921
21
0.4659525590551181
0
LINE
8
BLACK
6
CONTINUOUS
10
2.1910564960629921
20
0.4659525590551181
11
2.1902585039370077
21
0.4689307874015748
0
LINE
8
BLACK
6
CONTINUOUS
10
2.1902585039370077
20
0.4689307874015748
11
2.1901574409448816
21
0.4704724409448819
0
LINE
8
BLACK
6
CONTINUOUS
10
2.1901574409448816
20
0.4704724409448819
11
2.1901574409448816
21
0.5137795275590551
0
LINE
8
BLACK
6
CONTINUOUS
10
2.1901574409448816
20
0.5137795275590551
11
2.1902585039370077
21
0.5153211811023622
0
LINE
8
BLACK
6
CONTINUOUS
10
1.8501010236220472
20
0.5153211811023622
11
1.8508990157480314
21
0.5182994094488189
0
LINE
8
BLACK
6
CONTINUOUS
10
1.8508990157480314
20
0.5182994094488189
11
1.8524406692913384
21
0.5209696062992126
0
LINE
8
BLACK
6
CONTINUOUS
10
1.8524406692913384
20
0.5209696062992126
11
1.854620905511811
21
0.523149842519685
0
LINE
8
BLACK
6
CONTINUOUS
10
1.854620905511811
20
0.523149842519685
11
1.8572911023622047
21
0.5246914960629921
0
LINE
8
BLACK
6
CONTINUOUS
10
1.8572911023622047
20
0.5246914960629921
11
1.8602693307086613
21
0.5254894881889763
0
LINE
8
BLACK
6
CONTINUOUS
10
1.8602693307086613
20
0.5254894881889763
11
1.8633526377952756
21
0.5254894881889763
0
LINE
8
BLACK
6
CONTINUOUS
10
1.8633526377952756
20
0.5254894881889763
11
1.8663308661417322
21
0.5246914960629921
0
LINE
8
BLACK
6
CONTINUOUS
10
1.8663308661417322
20
0.5246914960629921
11
1.8690010629921259
21
0.523149842519685
0
LINE
8
BLACK
6
CONTINUOUS
10
1.8690010629921259
20
0.523149842519685
11
1.8711812992125985
21
0.5209696062992126
0
LINE
8
BLACK
6
CONTINUOUS
10
1.8711812992125985
20
0.5209696062992126
11
1.8727229527559055
21
0.5182994094488189
0
LINE
8
BLACK
6
CONTINUOUS
10
1.8727229527559055
20
0.5182994094488189
11
1.8735209448818897
21
0.5153211811023622
0
LINE
8
BLACK
6
CONTINUOUS
10
1.8735209448818897
20
0.5153211811023622
11
1.8736220078740158
21
0.5137795275590551
0
LINE
8
BLACK
6
CONTINUOUS
10
1.8736220078740158
20
0.5137795275590551
11
1.8736220078740158
21
0.4704724409448819
0
LINE
8
BLACK
6
CONTINUOUS
10
1.8736220078740158
20
0.4704724409448819
11
1.8735209448818897
21
0.4689307874015748
0
LINE
8
BLACK
6
CONTINUOUS
10
1.8735209448818897
20
0.4689307874015748
11
1.8727229527559055
21
0.4659525590551181
0
LINE
8
BLACK
6
CONTINUOUS
10
1.8727229527559055
20
0.4659525590551181
11
1.8711812992125985
21
0.4632823622047244
0
LINE
8
BLACK
6
CONTINUOUS
10
1.8711812992125985
20
0.4632823622047244
11
1.8690010629921259
21
0.4611021259842519
0
LINE
8
BLACK
6
CONTINUOUS
10
1.8690010629921259
20
0.4611021259842519
11
1.8663308661417322
21
0.4595604724409449
0
LINE
8
BLACK
6
CONTINUOUS
10
1.8663308661417322
20
0.4595604724409449
11
1.8633526377952756
21
0.4587624803149606
0
LINE
8
BLACK
6
CONTINUOUS
10
1.8633526377952756
20
0.4587624803149606
11
1.8602693307086613
21
0.4587624803149606
0
LINE
8
BLACK
6
CONTINUOUS
10
1.8602693307086613
20
0.4587624803149606
11
1.8572911023622047
21
0.4595604724409449
0
LINE
8
BLACK
6
CONTINUOUS
10
1.8572911023622047
20
0.4595604724409449
11
1.854620905511811
21
0.4611021259842519
0
LINE
8
BLACK
6
CONTINUOUS
10
1.854620905511811
20
0.4611021259842519
11
1.8524406692913384
21
0.4632823622047244
0
LINE
8
BLACK
6
CONTINUOUS
10
1.8524406692913384
20
0.4632823622047244
11
1.8508990157480314
21
0.4659525590551181
0
LINE
8
BLACK
6
CONTINUOUS
10
1.8508990157480314
20
0.4659525590551181
11
1.8501010236220472
21
0.4689307874015748
0
LINE
8
BLACK
6
CONTINUOUS
10
1.8501010236220472
20
0.4689307874015748
11
1.8499999606299211
21
0.4704724409448819
0
LINE
8
BLACK
6
CONTINUOUS
10
1.8499999606299211
20
0.4704724409448819
11
1.8499999606299211
21
0.5137795275590551
0
LINE
8
BLACK
6
CONTINUOUS
10
1.8499999606299211
20
0.5137795275590551
11
1.8501010236220472
21
0.5153211811023622
0
LINE
8
BLACK
6
CONTINUOUS
10
0.8249832283464567
20
2.0804376377952756
11
0.8264136220472441
21
2.0876287401574802
0
LINE
8
BLACK
6
CONTINUOUS
10
0.8264136220472441
20
2.0876287401574802
11
0.8292194488188976
21
2.0944026377952754
0
LINE
8
BLACK
6
CONTINUOUS
10
0.8292194488188976
20
2.0944026377952754
11
0.833292874015748
21
2.1004989763779527
0
LINE
8
BLACK
6
CONTINUOUS
10
0.833292874015748
20
2.1004989763779527
11
0.8384773622047244
21
2.1056834645669289
0
LINE
8
BLACK
6
CONTINUOUS
10
0.8384773622047244
20
2.1056834645669289
11
0.8445737007874016
21
2.1097568897637795
0
LINE
8
BLACK
6
CONTINUOUS
10
0.8445737007874016
20
2.1097568897637795
11
0.8513475984251968
21
2.1125627165354328
0
LINE
8
BLACK
6
CONTINUOUS
10
0.8513475984251968
20
2.1125627165354328
11
0.8585387007874016
21
2.1139931102362204
0
LINE
8
BLACK
6
CONTINUOUS
10
0.8585387007874016
20
2.1139931102362204
11
0.8658706692913386
21
2.1139931102362204
0
LINE
8
BLACK
6
CONTINUOUS
10
0.8658706692913386
20
2.1139931102362204
11
0.8730617716535433
21
2.1125627165354328
0
LINE
8
BLACK
6
CONTINUOUS
10
0.8730617716535433
20
2.1125627165354328
11
0.8798356692913386
21
2.1097568897637795
0
LINE
8
BLACK
6
CONTINUOUS
10
0.8798356692913386
20
2.1097568897637795
11
0.8859320078740157
21
2.1056834645669289
0
LINE
8
BLACK
6
CONTINUOUS
10
0.8859320078740157
20
2.1056834645669289
11
0.8911164960629921
21
2.1004989763779527
0
LINE
8
BLACK
6
CONTINUOUS
10
0.8911164960629921
20
2.1004989763779527
11
0.8951899212598425
21
2.0944026377952754
0
LINE
8
BLACK
6
CONTINUOUS
10
0.8951899212598425
20
2.0944026377952754
11
0.8979957480314961
21
2.0876287401574802
0
LINE
8
BLACK
6
CONTINUOUS
10
0.8979957480314961
20
2.0876287401574802
11
0.8994261417322834
21
2.0804376377952756
0
LINE
8
BLACK
6
CONTINUOUS
10
0.8994261417322834
20
2.0804376377952756
11
0.8996062598425196
21
2.076771653543307
0
LINE
8
BLACK
6
CONTINUOUS
10
0.8996062598425196
20
2.076771653543307
11
0.8996062598425196
21
2.0570866141732282
0
LINE
8
BLACK
6
CONTINUOUS
10
0.8996062598425196
20
2.0570866141732282
11
0.8994261417322834
21
2.0534206299212596
0
LINE
8
BLACK
6
CONTINUOUS
10
0.8994261417322834
20
2.0534206299212596
11
0.8979957480314961
21
2.046229527559055
0
LINE
8
BLACK
6
CONTINUOUS
10
0.8979957480314961
20
2.046229527559055
11
0.8951899212598425
21
2.0394556299212598
0
LINE
8
BLACK
6
CONTINUOUS
10
0.8951899212598425
20
2.0394556299212598
11
0.8911164960629921
21
2.0333592913385825
0
LINE
8
BLACK
6
CONTINUOUS
10
0.8911164960629921
20
2.0333592913385825
11
0.8859320078740157
21
2.0281748031496063
0
LINE
8
BLACK
6
CONTINUOUS
10
0.8859320078740157
20
2.0281748031496063
11
0.8798356692913386
21
2.0241013779527557
0
LINE
8
BLACK
6
CONTINUOUS
10
0.8798356692913386
20
2.0241013779527557
11
0.8730617716535433
21
2.0212955511811024
0
LINE
8
BLACK
6
CONTINUOUS
10
0.8730617716535433
20
2.0212955511811024
11
0.8658706692913386
21
2.0198651574803148
0
LINE
8
BLACK
6
CONTINUOUS
10
0.8658706692913386
20
2.0198651574803148
11
0.8585387007874016
21
2.0198651574803148
0
LINE
8
BLACK
6
CONTINUOUS
10
0.8585387007874016
20
2.0198651574803148
11
0.8513475984251968
21
2.0212955511811024
0
LINE
8
BLACK
6
CONTINUOUS
10
0.8513475984251968
20
2.0212955511811024
11
0.8445737007874016
21
2.0241013779527557
0
LINE
8
BLACK
6
CONTINUOUS
10
0.8445737007874016
20
2.0241013779527557
11
0.8384773622047244
21
2.0281748031496063
0
LINE
8
BLACK
6
CONTINUOUS
10
0.8384773622047244
20
2.0281748031496063
11
0.833292874015748
21
2.0333592913385825
0
LINE
8
BLACK
6
CONTINUOUS
10
0.833292874015748
20
2.0333592913385825
11
0.8292194488188976
21
2.0394556299212598
0
LINE
8
BLACK
6
CONTINUOUS
10
0.8292194488188976
20
2.0394556299212598
11
0.8264136220472441
21
2.046229527559055
0
LINE
8
BLACK
6
CONTINUOUS
10
0.8264136220472441
20
2.046229527559055
11
0.8249832283464567
21
2.0534206299212596
0
LINE
8
BLACK
6
CONTINUOUS
10
0.8249832283464567
20
2.0534206299212596
11
0.8248031102362204
21
2.0570866141732282
0
LINE
8
BLACK
6
CONTINUOUS
10
0.8248031102362204
20
2.0570866141732282
11
0.8248031102362204
21
2.076771653543307
0
LINE
8
BLACK
6
CONTINUOUS
10
0.8248031102362204
20
2.076771653543307
11
0.8249832283464567
21
2.0804376377952756
0
LINE
8
BLACK
6
CONTINUOUS
10
0.7029359842519685
20
2.9662644094488186
11
0.7043663779527559
21
2.9734555118110237
0
LINE
8
BLACK
6
CONTINUOUS
10
0.7043663779527559
20
2.9734555118110237
11
0.7071722047244094
21
2.9802294094488189
0
LINE
8
BLACK
6
CONTINUOUS
10
0.7071722047244094
20
2.9802294094488189
11
0.7112456299212598
21
2.9863257480314962
0
LINE
8
BLACK
6
CONTINUOUS
10
0.7112456299212598
20
2.9863257480314962
11
0.7164301181102362
21
2.9915102362204724
0
LINE
8
BLACK
6
CONTINUOUS
10
0.7164301181102362
20
2.9915102362204724
11
0.7225264566929134
21
2.9955836614173226
0
LINE
8
BLACK
6
CONTINUOUS
10
0.7225264566929134
20
2.9955836614173226
11
0.7293003543307086
21
2.9983894881889763
0
LINE
8
BLACK
6
CONTINUOUS
10
0.7293003543307086
20
2.9983894881889763
11
0.7364914566929134
21
2.9998198818897639
0
LINE
8
BLACK
6
CONTINUOUS
10
0.7364914566929134
20
2.9998198818897639
11
0.7438234251968504
21
2.9998198818897639
0
LINE
8
BLACK
6
CONTINUOUS
10
0.7438234251968504
20
2.9998198818897639
11
0.7510145275590551
21
2.9983894881889763
0
LINE
8
BLACK
6
CONTINUOUS
10
0.7510145275590551
20
2.9983894881889763
11
0.7577884251968504
21
2.9955836614173226
0
LINE
8
BLACK
6
CONTINUOUS
10
0.7577884251968504
20
2.9955836614173226
11
0.7638847637795275
21
2.9915102362204724
0
LINE
8
BLACK
6
CONTINUOUS
10
0.7638847637795275
20
2.9915102362204724
11
0.769069251968504
21
2.9863257480314962
0
LINE
8
BLACK
6
CONTINUOUS
10
0.769069251968504
20
2.9863257480314962
11
0.7731426771653543
21
2.9802294094488189
0
LINE
8
BLACK
6
CONTINUOUS
10
0.7731426771653543
20
2.9802294094488189
11
0.7759485039370079
21
2.9734555118110237
0
LINE
8
BLACK
6
CONTINUOUS
10
0.7759485039370079
20
2.9734555118110237
11
0.7773788976377952
21
2.9662644094488186
0
LINE
8
BLACK
6
CONTINUOUS
10
0.7773788976377952
20
2.9662644094488186
11
0.7775590157480314
21
2.9625984251968505
0
LINE
8
BLACK
6
CONTINUOUS
10
0.7775590157480314
20
2.9625984251968505
11
0.7775590157480314
21
2.9429133858267718
0
LINE
8
BLACK
6
CONTINUOUS
10
0.7775590157480314
20
2.9429133858267718
11
0.7773788976377952
21
2.9392474015748031
0
LINE
8
BLACK
6
CONTINUOUS
10
0.7773788976377952
20
2.9392474015748031
11
0.7759485039370079
21
2.9320562992125985
0
LINE
8
BLACK
6
CONTINUOUS
10
0.7759485039370079
20
2.9320562992125985
11
0.7731426771653543
21
2.9252824015748029
0
LINE
8
BLACK
6
CONTINUOUS
10
0.7731426771653543
20
2.9252824015748029
11
0.769069251968504
21
2.919186062992126
0
LINE
8
BLACK
6
CONTINUOUS
10
0.769069251968504
20
2.919186062992126
11
0.7638847637795275
21
2.9140015748031494
0
LINE
8
BLACK
6
CONTINUOUS
10
0.7638847637795275
20
2.9140015748031494
11
0.7577884251968504
21
2.9099281496062992
0
LINE
8
BLACK
6
CONTINUOUS
10
0.7577884251968504
20
2.9099281496062992
11
0.7510145275590551
21
2.9071223228346454
0
LINE
8
BLACK
6
CONTINUOUS
10
0.7510145275590551
20
2.9071223228346454
11
0.7438234251968504
21
2.9056919291338583
0
LINE
8
BLACK
6
CONTINUOUS
10
0.7438234251968504
20
2.9056919291338583
11
0.7364914566929134
21
2.9056919291338583
0
LINE
8
BLACK
6
CONTINUOUS
10
0.7364914566929134
20
2.9056919291338583
11
0.7293003543307086
21
2.9071223228346454
0
LINE
8
BLACK
6
CONTINUOUS
10
0.7293003543307086
20
2.9071223228346454
11
0.7225264566929134
21
2.9099281496062992
0
LINE
8
BLACK
6
CONTINUOUS
10
0.7225264566929134
20
2.9099281496062992
11
0.7164301181102362
21
2.9140015748031494
0
LINE
8
BLACK
6
CONTINUOUS
10
0.7164301181102362
20
2.9140015748031494
11
0.7112456299212598
21
2.919186062992126
0
LINE
8
BLACK
6
CONTINUOUS
10
0.7112456299212598
20
2.919186062992126
11
0.7071722047244094
21
2.9252824015748029
0
LINE
8
BLACK
6
CONTINUOUS
10
0.7071722047244094
20
2.9252824015748029
11
0.7043663779527559
21
2.9320562992125985
0
LINE
8
BLACK
6
CONTINUOUS
10
0.7043663779527559
20
2.9320562992125985
11
0.7029359842519685
21
2.9392474015748031
0
LINE
8
BLACK
6
CONTINUOUS
10
0.7029359842519685
20
2.9392474015748031
11
0.7027558661417322
21
2.9429133858267718
0
LINE
8
BLACK
6
CONTINUOUS
10
0.7027558661417322
20
2.9429133858267718
11
0.7027558661417322
21
2.9625984251968505
0
LINE
8
BLACK
6
CONTINUOUS
10
0.7027558661417322
20
2.9625984251968505
11
0.7029359842519685
21
2.9662644094488186
0
CIRCLE
8
BLACK
10
2.3055118110236221
20
0.4
40
0.0068897637795276
0
CIRCLE
8
BLACK
10
2.3331867716535433
20
0.4668132283464567
40
0.0068897637795276
0
CIRCLE
8
BLACK
10
2.3331867716535433
20
0.3331867716535433
40
0.0068897637795276
0
CIRCLE
8
BLACK
10
2.3999999999999999
20
0.4944881889763779
40
0.0068897637795276
0
CIRCLE
8
BLACK
10
2.3999999999999999
20
0.4
40
0.0068897637795276
0
CIRCLE
8
BLACK
10
2.3999999999999999
20
0.305511811023622
40
0.0068897637795276
0
CIRCLE
8
BLACK
10
2.4668132283464566
20
0.4668132283464567
40
0.0068897637795276
0
CIRCLE
8
BLACK
10
2.4668132283464566
20
0.3331867716535433
40
0.0068897637795276
0
CIRCLE
8
BLACK
10
2.4944881889763777
20
0.4
40
0.0068897637795276
0
CIRCLE
8
BLACK
10
3.192913346456693
20
0.2897637795275591
40
0.0068897637795276
0
CIRCLE
8
BLACK
10
3.0929133464566929
20
0.2897637795275591
40
0.0068897637795276
0
CIRCLE
8
BLACK
10
3.1929133858267718
20
0.389763779527559
40
0.0068897637795276
0
CIRCLE
8
BLACK
10
3.0929133070866142
20
0.389763779527559
40
0.0068897637795276
0
CIRCLE
8
BLACK
10
3.192913346456693
20
0.4897637795275591
40
0.0068897637795276
0
CIRCLE
8
BLACK
10
3.0929133464566929
20
0.4897637795275591
40
0.0068897637795276
0
CIRCLE
8
BLACK
10
-0.5275590944881889
20
0.7070866141732284
40
0.0068897637795276
0
CIRCLE
8
BLACK
10
-0.6275590944881889
20
0.7070866141732284
40
0.0068897637795276
0
CIRCLE
8
BLACK
10
-0.5275590551181102
20
0.8070866141732284
40
0.0068897637795276
0
CIRCLE
8
BLACK
10
-0.6275591338582677
20
0.8070866141732284
40
0.0068897637795276
0
CIRCLE
8
BLACK
10
-0.5275590944881889
20
0.9070866141732283
40
0.0068897637795276
0
CIRCLE
8
BLACK
10
-0.6275590944881889
20
0.9070866141732283
40
0.0068897637795276
0
CIRCLE
8
BLACK
10
0.305511811023622
20
0.4
40
0.0068897637795276
0
CIRCLE
8
BLACK
10
0.3331867716535433
20
0.4668132283464567
40
0.0068897637795276
0
CIRCLE
8
BLACK
10
0.3331867716535433
20
0.3331867716535433
40
0.0068897637795276
0
CIRCLE
8
BLACK
10
0.4
20
0.4944881889763779
40
0.0068897637795276
0
CIRCLE
8
BLACK
10
0.4
20
0.4
40
0.0068897637795276
0
CIRCLE
8
BLACK
10
0.4
20
0.305511811023622
40
0.0068897637795276
0
CIRCLE
8
BLACK
10
0.4668132283464567
20
0.4668132283464567
40
0.0068897637795276
0
CIRCLE
8
BLACK
10
0.4668132283464567
20
0.3331867716535433
40
0.0068897637795276
0
CIRCLE
8
BLACK
10
0.4944881889763779
20
0.4
40
0.0068897637795276
0
CIRCLE
8
BLACK
10
0.305511811023622
20
2.
40
0.0068897637795276
0
CIRCLE
8
BLACK
10
0.3331867716535433
20
2.0668132283464566
40
0.0068897637795276
0
CIRCLE
8
BLACK
10
0.3331867716535433
20
1.9331867716535434
40
0.0068897637795276
0
CIRCLE
8
BLACK
10
0.4
20
2.0944881889763778
40
0.0068897637795276
0
CIRCLE
8
BLACK
10
0.4
20
2.
40
0.0068897637795276
0
CIRCLE
8
BLACK
10
0.4
20
1.905511811023622
40
0.0068897637795276
0
CIRCLE
8
BLACK
10
0.4668132283464567
20
2.0668132283464566
40
0.0068897637795276
0
CIRCLE
8
BLACK
10
0.4668132283464567
20
1.9331867716535434
40
0.0068897637795276
0
CIRCLE
8
BLACK
10
0.4944881889763779
20
2.
40
0.0068897637795276
0
CIRCLE
8
BLACK
10
4.0885826771653546
20
1.3421259842519684
40
0.0068897637795276
0
CIRCLE
8
BLACK
10
4.1885826771653543
20
1.3421259842519684
40
0.0068897637795276
0
CIRCLE
8
BLACK
10
4.0885826771653546
20
1.2421259842519685
40
0.0068897637795276
0
CIRCLE
8
BLACK
10
4.1885826771653543
20
1.2421259842519685
40
0.0068897637795276
0
CIRCLE
8
BLACK
10
4.0885826771653546
20
1.1421259842519684
40
0.0068897637795276
0
CIRCLE
8
BLACK
10
4.1885826771653543
20
1.1421259842519684
40
0.0068897637795276
0
CIRCLE
8
BLACK
10
0.6283464566929133
20
0.3645669291338582
40
0.0068897637795276
0
CIRCLE
8
BLACK
10
0.6283464566929133
20
0.4645669291338583
40
0.0068897637795276
0
CIRCLE
8
BLACK
10
0.7283464566929134
20
0.3645669291338582
40
0.0068897637795276
0
CIRCLE
8
BLACK
10
0.7283464566929134
20
0.4645669291338583
40
0.0068897637795276
0
CIRCLE
8
BLACK
10
0.8283464566929134
20
0.3645669291338582
40
0.0068897637795276
0
CIRCLE
8
BLACK
10
0.8283464566929134
20
0.4645669291338583
40
0.0068897637795276
0
CIRCLE
8
BLACK
10
0.9283464566929134
20
0.3645668897637795
40
0.0068897637795276
0
CIRCLE
8
BLACK
10
0.9283464566929134
20
0.464566968503937
40
0.0068897637795276
0
CIRCLE
8
BLACK
10
1.0283464566929135
20
0.3645669291338582
40
0.0068897637795276
0
CIRCLE
8
BLACK
10
1.0283464566929135
20
0.4645669291338583
40
0.0068897637795276
0
CIRCLE
8
BLACK
10
1.1283464566929133
20
0.3645669291338582
40
0.0068897637795276
0
CIRCLE
8
BLACK
10
1.1283464566929133
20
0.4645669291338583
40
0.0068897637795276
0
CIRCLE
8
BLACK
10
1.2283464566929134
20
0.3645669291338582
40
0.0068897637795276
0
CIRCLE
8
BLACK
10
1.2283464566929134
20
0.4645669291338583
40
0.0068897637795276
0
CIRCLE
8
BLACK
10
1.3283464566929133
20
0.3645669291338582
40
0.0068897637795276
0
CIRCLE
8
BLACK
10
1.3283464566929133
20
0.4645669291338583
40
0.0068897637795276
0
CIRCLE
8
BLACK
10
1.4283464566929134
20
0.3645668897637795
40
0.0068897637795276
0
CIRCLE
8
BLACK
10
1.4283464566929134
20
0.464566968503937
40
0.0068897637795276
0
CIRCLE
8
BLACK
10
1.5283464566929132
20
0.3645669291338582
40
0.0068897637795276
0
CIRCLE
8
BLACK
10
1.5283464566929132
20
0.4645669291338583
40
0.0068897637795276
0
CIRCLE
8
BLACK
10
1.6283464566929133
20
0.3645669291338582
40
0.0068897637795276
0
CIRCLE
8
BLACK
10
1.6283464566929133
20
0.4645669291338583
40
0.0068897637795276
0
CIRCLE
8
BLACK
10
1.7283464566929134
20
0.3645669291338582
40
0.0068897637795276
0
CIRCLE
8
BLACK
10
1.7283464566929134
20
0.4645669291338583
40
0.0068897637795276
0
CIRCLE
8
BLACK
10
0.4188976377952756
20
0.6535433070866141
40
0.0068897637795276
0
CIRCLE
8
BLACK
10
0.3188976377952756
20
0.6535433070866141
40
0.0068897637795276
0
CIRCLE
8
BLACK
10
0.4188976377952756
20
0.7535433070866142
40
0.0068897637795276
0
CIRCLE
8
BLACK
10
0.3188976377952756
20
0.7535433070866142
40
0.0068897637795276
0
CIRCLE
8
BLACK
10
0.4188976377952756
20
0.8535433070866142
40
0.0068897637795276
0
CIRCLE
8
BLACK
10
0.3188976377952756
20
0.8535433070866142
40
0.0068897637795276
0
CIRCLE
8
BLACK
10
0.4188976771653543
20
0.9535433070866142
40
0.0068897637795276
0
CIRCLE
8
BLACK
10
0.3188975984251968
20
0.9535433070866142
40
0.0068897637795276
0
CIRCLE
8
BLACK
10
0.4188976377952756
20
1.0535433070866143
40
0.0068897637795276
0
CIRCLE
8
BLACK
10
0.3188976377952756
20
1.0535433070866143
40
0.0068897637795276
0
CIRCLE
8
BLACK
10
0.4188976377952756
20
1.1535433070866141
40
0.0068897637795276
0
CIRCLE
8
BLACK
10
0.3188976377952756
20
1.1535433070866141
40
0.0068897637795276
0
CIRCLE
8
BLACK
10
0.4188976377952756
20
1.2535433070866142
40
0.0068897637795276
0
CIRCLE
8
BLACK
10
0.3188976377952756
20
1.2535433070866142
40
0.0068897637795276
0
CIRCLE
8
BLACK
10
0.4188976377952756
20
1.3535433070866141
40
0.0068897637795276
0
CIRCLE
8
BLACK
10
0.3188976377952756
20
1.3535433070866141
40
0.0068897637795276
0
CIRCLE
8
BLACK
10
0.4188976771653543
20
1.4535433070866142
40
0.0068897637795276
0
CIRCLE
8
BLACK
10
0.3188975984251968
20
1.4535433070866142
40
0.0068897637795276
0
CIRCLE
8
BLACK
10
0.4188976377952756
20
1.553543307086614
40
0.0068897637795276
0
CIRCLE
8
BLACK
10
0.3188976377952756
20
1.553543307086614
40
0.0068897637795276
0
CIRCLE
8
BLACK
10
0.4188976377952756
20
1.6535433070866141
40
0.0068897637795276
0
CIRCLE
8
BLACK
10
0.3188976377952756
20
1.6535433070866141
40
0.0068897637795276
0
CIRCLE
8
BLACK
10
0.4188976377952756
20
1.7535433070866142
40
0.0068897637795276
0
CIRCLE
8
BLACK
10
0.3188976377952756
20
1.7535433070866142
40
0.0068897637795276
0
CIRCLE
8
BLACK
10
2.3622047244094486
20
1.7488188976377952
40
0.0068897637795276
0
CIRCLE
8
BLACK
10
2.4622047244094487
20
1.7488188976377952
40
0.0068897637795276
0
CIRCLE
8
BLACK
10
2.3622047244094486
20
1.6488188976377953
40
0.0068897637795276
0
CIRCLE
8
BLACK
10
2.4622047244094487
20
1.6488188976377953
40
0.0068897637795276
0
CIRCLE
8
BLACK
10
2.3622047244094486
20
1.5488188976377952
40
0.0068897637795276
0
CIRCLE
8
BLACK
10
2.4622047244094487
20
1.5488188976377952
40
0.0068897637795276
0
CIRCLE
8
BLACK
10
2.3622047244094486
20
1.4488188976377951
40
0.0068897637795276
0
CIRCLE
8
BLACK
10
2.4622047244094487
20
1.4488188976377951
40
0.0068897637795276
0
CIRCLE
8
BLACK
10
2.3622047244094486
20
1.3488188976377953
40
0.0068897637795276
0
CIRCLE
8
BLACK
10
2.4622047244094487
20
1.3488188976377953
40
0.0068897637795276
0
CIRCLE
8
BLACK
10
2.3622047244094486
20
1.2488188976377952
40
0.0068897637795276
0
CIRCLE
8
BLACK
10
2.4622047244094487
20
1.2488188976377952
40
0.0068897637795276
0
CIRCLE
8
BLACK
10
2.3622047244094486
20
1.1488188976377953
40
0.0068897637795276
0
CIRCLE
8
BLACK
10
2.4622047244094487
20
1.1488188976377953
40
0.0068897637795276
0
CIRCLE
8
BLACK
10
2.3622047244094486
20
1.0488188976377952
40
0.0068897637795276
0
CIRCLE
8
BLACK
10
2.4622047244094487
20
1.0488188976377952
40
0.0068897637795276
0
CIRCLE
8
BLACK
10
2.3622047244094486
20
0.9488188976377953
40
0.0068897637795276
0
CIRCLE
8
BLACK
10
2.4622047244094487
20
0.9488188976377953
40
0.0068897637795276
0
CIRCLE
8
BLACK
10
2.3622047244094486
20
0.8488188976377953
40
0.0068897637795276
0
CIRCLE
8
BLACK
10
2.4622047244094487
20
0.8488188976377953
40
0.0068897637795276
0
CIRCLE
8
BLACK
10
2.3622047244094486
20
0.7488188976377953
40
0.0068897637795276
0
CIRCLE
8
BLACK
10
2.4622047244094487
20
0.7488188976377953
40
0.0068897637795276
0
CIRCLE
8
BLACK
10
2.3622047244094486
20
0.6488188976377952
40
0.0068897637795276
0
CIRCLE
8
BLACK
10
2.4622047244094487
20
0.6488188976377952
40
0.0068897637795276
0
CIRCLE
8
BLACK
10
2.1535432677165356
20
0.8944881889763779
40
0.0068897637795276
0
CIRCLE
8
BLACK
10
2.0535432677165355
20
0.8944881889763779
40
0.0068897637795276
0
CIRCLE
8
BLACK
10
2.1535432677165356
20
0.9944881889763779
40
0.0068897637795276
0
CIRCLE
8
BLACK
10
2.0535432677165355
20
0.9944881889763779
40
0.0068897637795276
0
CIRCLE
8
BLACK
10
2.1535433070866143
20
1.094488188976378
40
0.0068897637795276
0
CIRCLE
8
BLACK
10
2.0535432283464568
20
1.094488188976378
40
0.0068897637795276
0
CIRCLE
8
BLACK
10
2.1535432677165356
20
1.1944881889763779
40
0.0068897637795276
0
CIRCLE
8
BLACK
10
2.0535432677165355
20
1.1944881889763779
40
0.0068897637795276
0
CIRCLE
8
BLACK
10
2.1535432677165356
20
1.294488188976378
40
0.0068897637795276
0
CIRCLE
8
BLACK
10
2.0535432677165355
20
1.294488188976378
40
0.0068897637795276
0
CIRCLE
8
BLACK
10
2.3055118110236221
20
2.
40
0.0068897637795276
0
CIRCLE
8
BLACK
10
2.3331867716535433
20
2.0668132283464566
40
0.0068897637795276
0
CIRCLE
8
BLACK
10
2.3331867716535433
20
1.9331867716535434
40
0.0068897637795276
0
CIRCLE
8
BLACK
10
2.3999999999999999
20
2.0944881889763778
40
0.0068897637795276
0
CIRCLE
8
BLACK
10
2.3999999999999999
20
2.
40
0.0068897637795276
0
CIRCLE
8
BLACK
10
2.3999999999999999
20
1.905511811023622
40
0.0068897637795276
0
CIRCLE
8
BLACK
10
2.4668132283464566
20
2.0668132283464566
40
0.0068897637795276
0
CIRCLE
8
BLACK
10
2.4668132283464566
20
1.9331867716535434
40
0.0068897637795276
0
CIRCLE
8
BLACK
10
2.4944881889763777
20
2.
40
0.0068897637795276
0
CIRCLE
8
BLACK
10
2.1456692913385824
20
0.4724409448818898
40
0.0068897637795276
0
CIRCLE
8
BLACK
10
1.918110157480315
20
0.4724409448818898
40
0.0068897637795276
0
LINE
8
BLACK
6
CONTINUOUS
10
2.2137794881889765
20
0.3118110236220472
11
2.2137794881889765
21
0.3433070866141732
0
ARC
8
BLACK
10
2.2019684645669293
20
0.3433070866141732
40
0.0118110236220472
50
0.00000000
51
180.00000000
0
LINE
8
BLACK
6
CONTINUOUS
10
2.1901574409448816
20
0.3433070866141732
11
2.1901574409448816
21
0.3118110236220472
0
ARC
8
BLACK
10
2.2019684645669293
20
0.3118110236220472
40
0.0118110236220472
50
180.00000000
51
360.00000000
0
LINE
8
BLACK
6
CONTINUOUS
10
1.8736220078740158
20
0.3118110236220472
11
1.8736220078740158
21
0.3433070866141732
0
ARC
8
BLACK
10
1.8618109842519686
20
0.3433070866141732
40
0.0118110236220472
50
0.00000000
51
180.00000000
0
LINE
8
BLACK
6
CONTINUOUS
10
1.8499999606299211
20
0.3433070866141732
11
1.8499999606299211
21
0.3118110236220472
0
ARC
8
BLACK
10
1.8618109842519686
20
0.3118110236220472
40
0.0118110236220472
50
180.00000000
51
360.00000000
0
LINE
8
BLACK
6
CONTINUOUS
10
2.2137794881889765
20
0.4704724409448819
11
2.2137794881889765
21
0.5137795275590551
0
ARC
8
BLACK
10
2.2019684645669293
20
0.5137795275590551
40
0.0118110236220472
50
0.00000000
51
180.00000000
0
LINE
8
BLACK
6
CONTINUOUS
10
2.1901574409448816
20
0.5137795275590551
11
2.1901574409448816
21
0.4704724409448819
0
ARC
8
BLACK
10
2.2019684645669293
20
0.4704724409448819
40
0.0118110236220472
50
180.00000000
51
360.00000000
0
LINE
8
BLACK
6
CONTINUOUS
10
1.8736220078740158
20
0.4704724409448819
11
1.8736220078740158
21
0.5137795275590551
0
ARC
8
BLACK
10
1.8618109842519686
20
0.5137795275590551
40
0.0118110236220472
50
0.00000000
51
180.00000000
0
LINE
8
BLACK
6
CONTINUOUS
10
1.8499999606299211
20
0.5137795275590551
11
1.8499999606299211
21
0.4704724409448819
0
ARC
8
BLACK
10
1.8618109842519686
20
0.4704724409448819
40
0.0118110236220472
50
180.00000000
51
360.00000000
0
LINE
8
BLACK
6
CONTINUOUS
10
0.8996062204724409
20
2.0570866141732282
11
0.8996062204724409
21
2.076771653543307
0
ARC
8
BLACK
10
0.8622046850393701
20
2.076771653543307
40
0.0374015354330709
50
0.00000000
51
180.00000000
0
LINE
8
BLACK
6
CONTINUOUS
10
0.8248031496062992
20
2.076771653543307
11
0.8248031496062992
21
2.0570866141732282
0
ARC
8
BLACK
10
0.8622046850393701
20
2.0570866141732282
40
0.0374015354330709
50
180.00000000
51
360.00000000
0
LINE
8
BLACK
6
CONTINUOUS
10
0.7775589763779528
20
2.9429133858267718
11
0.7775589763779528
21
2.9625984251968505
0
ARC
8
BLACK
10
0.7401574409448819
20
2.9625984251968505
40
0.0374015354330709
50
0.00000000
51
180.00000000
0
LINE
8
BLACK
6
CONTINUOUS
10
0.702755905511811
20
2.9625984251968505
11
0.702755905511811
21
2.9429133858267718
0
ARC
8
BLACK
10
0.7401574409448819
20
2.9429133858267718
40
0.0374015354330709
50
180.00000000
51
360.00000000
  0
ENDSEC
  0
EOF
