  0
SECTION
  2
HEADER
  9
$ANGBASE
  50
0.0
  9
$ANGDIR
  70
1
  9
$MEASUREMENT
  70
0
  0
ENDSEC
  0
SECTION
  2
TABLES
  0
TABLE
  2
LTYPE
  70
4
  0
LTYPE
  5
40F
  2
CONTINUOUS
  70
0
  3
Solid line
  72
65
  73
0
  40
0.0
  0
LTYPE
  5
410
  2
DASHDOT
 70
0
  3
Dash Dot ____ _ ____ _
 72
65
 73
4
 40
2.0
 49
1.25
 49
-0.25
 49
0.25
 49
-0.25
  0
LTYPE
  5
411
  2
DASHED
 70
0
  3
Dashed __ __ __ __ __
 72
65
 73
2
 40
0.75
 49
0.5
 49
-0.25
  0
LTYPE
  5
43B
  2
DOTTED
 70
0
  3
Dotted .  .  .  .
 72
65
 73
2
 40
0.2
 49
0.0
 49
-0.2
  0
ENDTAB
  0
TABLE
  2
STYLE
  70
4
  0
STYLE
  2
KICAD
  70
0
  40
0
  41
1
  42
1
  50
0
  71
0
  3
isocp.shx
  0
STYLE
  2
KICADB
  70
0
  40
0
  41
1
  42
1
  50
0
  71
0
  3
isocp.shx
  0
STYLE
  2
KICADI
  70
0
  40
0
  41
1
  42
1
  50
15
  71
0
  3
isocp.shx
  0
STYLE
  2
KICADBI
  70
0
  40
0
  41
1
  42
1
  50
15
  71
0
  3
isocp.shx
  0
ENDTAB
  0
TABLE
  2
LAYER
  70
1
  0
LAYER
  2
BLACK
  70
0
  62
7
  6
CONTINUOUS
  0
ENDTAB
  0
ENDSEC
  0
SECTION
  2
ENTITIES
0
LINE
8
BLACK
6
CONTINUOUS
10
1.917716496062992
20
0.4921259842519685
11
1.8940944488188975
21
0.4921259842519685
0
LINE
8
BLACK
6
CONTINUOUS
10
1.8940944488188975
20
0.4921259842519685
11
1.8940944488188975
21
0.5374015748031495
0
LINE
8
BLACK
6
CONTINUOUS
10
1.8940944488188975
20
0.5374015748031495
11
1.917716496062992
21
0.5374015748031495
0
LINE
8
BLACK
6
CONTINUOUS
10
1.917716496062992
20
0.5374015748031495
11
1.917716496062992
21
0.4921259842519685
0
LINE
8
BLACK
6
CONTINUOUS
10
1.9492125590551181
20
0.4921259842519685
11
1.9255905118110235
21
0.4921259842519685
0
LINE
8
BLACK
6
CONTINUOUS
10
1.9255905118110235
20
0.4921259842519685
11
1.9255905118110235
21
0.5374015748031495
0
LINE
8
BLACK
6
CONTINUOUS
10
1.9255905118110235
20
0.5374015748031495
11
1.9492125590551181
21
0.5374015748031495
0
LINE
8
BLACK
6
CONTINUOUS
10
1.9492125590551181
20
0.5374015748031495
11
1.9492125590551181
21
0.4921259842519685
0
LINE
8
BLACK
6
CONTINUOUS
10
1.9688975984251968
20
0.4921259842519685
11
1.9570865748031496
21
0.4921259842519685
0
LINE
8
BLACK
6
CONTINUOUS
10
1.9570865748031496
20
0.4921259842519685
11
1.9570865748031496
21
0.5374015748031495
0
LINE
8
BLACK
6
CONTINUOUS
10
1.9570865748031496
20
0.5374015748031495
11
1.9688975984251968
21
0.5374015748031495
0
LINE
8
BLACK
6
CONTINUOUS
10
1.9688975984251968
20
0.5374015748031495
11
1.9688975984251968
21
0.4921259842519685
0
LINE
8
BLACK
6
CONTINUOUS
10
1.9885826377952756
20
0.4921259842519685
11
1.9767716141732283
21
0.4921259842519685
0
LINE
8
BLACK
6
CONTINUOUS
10
1.9767716141732283
20
0.4921259842519685
11
1.9767716141732283
21
0.5374015748031495
0
LINE
8
BLACK
6
CONTINUOUS
10
1.9767716141732283
20
0.5374015748031495
11
1.9885826377952756
21
0.5374015748031495
0
LINE
8
BLACK
6
CONTINUOUS
10
1.9885826377952756
20
0.5374015748031495
11
1.9885826377952756
21
0.4921259842519685
0
LINE
8
BLACK
6
CONTINUOUS
10
2.0082676771653545
20
0.4921259842519685
11
1.996456653543307
21
0.4921259842519685
0
LINE
8
BLACK
6
CONTINUOUS
10
1.996456653543307
20
0.4921259842519685
11
1.996456653543307
21
0.5374015748031495
0
LINE
8
BLACK
6
CONTINUOUS
10
1.996456653543307
20
0.5374015748031495
11
2.0082676771653545
21
0.5374015748031495
0
LINE
8
BLACK
6
CONTINUOUS
10
2.0082676771653545
20
0.5374015748031495
11
2.0082676771653545
21
0.4921259842519685
0
LINE
8
BLACK
6
CONTINUOUS
10
2.0279527165354332
20
0.4921259842519685
11
2.016141692913386
21
0.4921259842519685
0
LINE
8
BLACK
6
CONTINUOUS
10
2.016141692913386
20
0.4921259842519685
11
2.016141692913386
21
0.5374015748031495
0
LINE
8
BLACK
6
CONTINUOUS
10
2.016141692913386
20
0.5374015748031495
11
2.0279527165354332
21
0.5374015748031495
0
LINE
8
BLACK
6
CONTINUOUS
10
2.0279527165354332
20
0.5374015748031495
11
2.0279527165354332
21
0.4921259842519685
0
LINE
8
BLACK
6
CONTINUOUS
10
2.0476377559055119
20
0.4921259842519685
11
2.0358267322834647
21
0.4921259842519685
0
LINE
8
BLACK
6
CONTINUOUS
10
2.0358267322834647
20
0.4921259842519685
11
2.0358267322834647
21
0.5374015748031495
0
LINE
8
BLACK
6
CONTINUOUS
10
2.0358267322834647
20
0.5374015748031495
11
2.0476377559055119
21
0.5374015748031495
0
LINE
8
BLACK
6
CONTINUOUS
10
2.0476377559055119
20
0.5374015748031495
11
2.0476377559055119
21
0.4921259842519685
0
LINE
8
BLACK
6
CONTINUOUS
10
2.0673227952755906
20
0.4921259842519685
11
2.0555117716535434
21
0.4921259842519685
0
LINE
8
BLACK
6
CONTINUOUS
10
2.0555117716535434
20
0.4921259842519685
11
2.0555117716535434
21
0.5374015748031495
0
LINE
8
BLACK
6
CONTINUOUS
10
2.0555117716535434
20
0.5374015748031495
11
2.0673227952755906
21
0.5374015748031495
0
LINE
8
BLACK
6
CONTINUOUS
10
2.0673227952755906
20
0.5374015748031495
11
2.0673227952755906
21
0.4921259842519685
0
LINE
8
BLACK
6
CONTINUOUS
10
2.0870078346456693
20
0.4921259842519685
11
2.0751968110236221
21
0.4921259842519685
0
LINE
8
BLACK
6
CONTINUOUS
10
2.0751968110236221
20
0.4921259842519685
11
2.0751968110236221
21
0.5374015748031495
0
LINE
8
BLACK
6
CONTINUOUS
10
2.0751968110236221
20
0.5374015748031495
11
2.0870078346456693
21
0.5374015748031495
0
LINE
8
BLACK
6
CONTINUOUS
10
2.0870078346456693
20
0.5374015748031495
11
2.0870078346456693
21
0.4921259842519685
0
LINE
8
BLACK
6
CONTINUOUS
10
2.106692874015748
20
0.4921259842519685
11
2.0948818503937008
21
0.4921259842519685
0
LINE
8
BLACK
6
CONTINUOUS
10
2.0948818503937008
20
0.4921259842519685
11
2.0948818503937008
21
0.5374015748031495
0
LINE
8
BLACK
6
CONTINUOUS
10
2.0948818503937008
20
0.5374015748031495
11
2.106692874015748
21
0.5374015748031495
0
LINE
8
BLACK
6
CONTINUOUS
10
2.106692874015748
20
0.5374015748031495
11
2.106692874015748
21
0.4921259842519685
0
LINE
8
BLACK
6
CONTINUOUS
10
2.1381889370078739
20
0.4921259842519685
11
2.1145668897637795
21
0.4921259842519685
0
LINE
8
BLACK
6
CONTINUOUS
10
2.1145668897637795
20
0.4921259842519685
11
2.1145668897637795
21
0.5374015748031495
0
LINE
8
BLACK
6
CONTINUOUS
10
2.1145668897637795
20
0.5374015748031495
11
2.1381889370078739
21
0.5374015748031495
0
LINE
8
BLACK
6
CONTINUOUS
10
2.1381889370078739
20
0.5374015748031495
11
2.1381889370078739
21
0.4921259842519685
0
LINE
8
BLACK
6
CONTINUOUS
10
2.1696849999999999
20
0.4921259842519685
11
2.1460629527559054
21
0.4921259842519685
0
LINE
8
BLACK
6
CONTINUOUS
10
2.1460629527559054
20
0.4921259842519685
11
2.1460629527559054
21
0.5374015748031495
0
LINE
8
BLACK
6
CONTINUOUS
10
2.1460629527559054
20
0.5374015748031495
11
2.1696849999999999
21
0.5374015748031495
0
LINE
8
BLACK
6
CONTINUOUS
10
2.1696849999999999
20
0.5374015748031495
11
2.1696849999999999
21
0.4921259842519685
0
LINE
8
BLACK
6
CONTINUOUS
10
1.1711878346456692
20
0.625038188976378
11
1.1743809842519686
21
0.6229046062992126
0
LINE
8
BLACK
6
CONTINUOUS
10
1.1743809842519686
20
0.6229046062992126
11
1.1765145669291339
21
0.6197114566929134
0
LINE
8
BLACK
6
CONTINUOUS
10
1.1765145669291339
20
0.6197114566929134
11
1.1772637795275591
21
0.6159448818897638
0
LINE
8
BLACK
6
CONTINUOUS
10
1.1772637795275591
20
0.6159448818897638
11
1.1772637795275591
21
0.5785433070866142
0
LINE
8
BLACK
6
CONTINUOUS
10
1.1772637795275591
20
0.5785433070866142
11
1.1765145669291339
21
0.5747767322834646
0
LINE
8
BLACK
6
CONTINUOUS
10
1.1765145669291339
20
0.5747767322834646
11
1.1743809842519686
21
0.5715835826771654
0
LINE
8
BLACK
6
CONTINUOUS
10
1.1743809842519686
20
0.5715835826771654
11
1.1711878346456692
21
0.56945
0
LINE
8
BLACK
6
CONTINUOUS
10
1.1711878346456692
20
0.56945
11
1.1674212598425198
21
0.5687007874015748
0
LINE
8
BLACK
6
CONTINUOUS
10
1.1674212598425198
20
0.5687007874015748
11
1.1477362204724408
21
0.5687007874015748
0
LINE
8
BLACK
6
CONTINUOUS
10
1.1477362204724408
20
0.5687007874015748
11
1.1439696456692914
21
0.56945
0
LINE
8
BLACK
6
CONTINUOUS
10
1.1439696456692914
20
0.56945
11
1.140776496062992
21
0.5715835826771654
0
LINE
8
BLACK
6
CONTINUOUS
10
1.140776496062992
20
0.5715835826771654
11
1.1386429133858267
21
0.5747767322834646
0
LINE
8
BLACK
6
CONTINUOUS
10
1.1386429133858267
20
0.5747767322834646
11
1.1378937007874015
21
0.5785433070866142
0
LINE
8
BLACK
6
CONTINUOUS
10
1.1378937007874015
20
0.5785433070866142
11
1.1378937007874015
21
0.6159448818897638
0
LINE
8
BLACK
6
CONTINUOUS
10
1.1378937007874015
20
0.6159448818897638
11
1.1386429133858267
21
0.6197114566929134
0
LINE
8
BLACK
6
CONTINUOUS
10
1.1386429133858267
20
0.6197114566929134
11
1.140776496062992
21
0.6229046062992126
0
LINE
8
BLACK
6
CONTINUOUS
10
1.140776496062992
20
0.6229046062992126
11
1.1439696456692914
21
0.625038188976378
0
LINE
8
BLACK
6
CONTINUOUS
10
1.1439696456692914
20
0.625038188976378
11
1.1477362204724408
21
0.6257874015748032
0
LINE
8
BLACK
6
CONTINUOUS
10
1.1477362204724408
20
0.6257874015748032
11
1.1674212598425198
21
0.6257874015748032
0
LINE
8
BLACK
6
CONTINUOUS
10
1.1674212598425198
20
0.6257874015748032
11
1.1711878346456692
21
0.625038188976378
0
LINE
8
BLACK
6
CONTINUOUS
10
1.245990905511811
20
0.625038188976378
11
1.2491840551181101
21
0.6229046062992126
0
LINE
8
BLACK
6
CONTINUOUS
10
1.2491840551181101
20
0.6229046062992126
11
1.2513176377952755
21
0.6197114566929134
0
LINE
8
BLACK
6
CONTINUOUS
10
1.2513176377952755
20
0.6197114566929134
11
1.2520668503937007
21
0.6159448818897638
0
LINE
8
BLACK
6
CONTINUOUS
10
1.2520668503937007
20
0.6159448818897638
11
1.2520668503937007
21
0.5785433070866142
0
LINE
8
BLACK
6
CONTINUOUS
10
1.2520668503937007
20
0.5785433070866142
11
1.2513176377952755
21
0.5747767322834646
0
LINE
8
BLACK
6
CONTINUOUS
10
1.2513176377952755
20
0.5747767322834646
11
1.2491840551181101
21
0.5715835826771654
0
LINE
8
BLACK
6
CONTINUOUS
10
1.2491840551181101
20
0.5715835826771654
11
1.245990905511811
21
0.56945
0
LINE
8
BLACK
6
CONTINUOUS
10
1.245990905511811
20
0.56945
11
1.2422243307086613
21
0.5687007874015748
0
LINE
8
BLACK
6
CONTINUOUS
10
1.2422243307086613
20
0.5687007874015748
11
1.2225392913385826
21
0.5687007874015748
0
LINE
8
BLACK
6
CONTINUOUS
10
1.2225392913385826
20
0.5687007874015748
11
1.218772716535433
21
0.56945
0
LINE
8
BLACK
6
CONTINUOUS
10
1.218772716535433
20
0.56945
11
1.2155795669291338
21
0.5715835826771654
0
LINE
8
BLACK
6
CONTINUOUS
10
1.2155795669291338
20
0.5715835826771654
11
1.2134459842519685
21
0.5747767322834646
0
LINE
8
BLACK
6
CONTINUOUS
10
1.2134459842519685
20
0.5747767322834646
11
1.2126967716535433
21
0.5785433070866142
0
LINE
8
BLACK
6
CONTINUOUS
10
1.2126967716535433
20
0.5785433070866142
11
1.2126967716535433
21
0.6159448818897638
0
LINE
8
BLACK
6
CONTINUOUS
10
1.2126967716535433
20
0.6159448818897638
11
1.2134459842519685
21
0.6197114566929134
0
LINE
8
BLACK
6
CONTINUOUS
10
1.2134459842519685
20
0.6197114566929134
11
1.2155795669291338
21
0.6229046062992126
0
LINE
8
BLACK
6
CONTINUOUS
10
1.2155795669291338
20
0.6229046062992126
11
1.218772716535433
21
0.625038188976378
0
LINE
8
BLACK
6
CONTINUOUS
10
1.218772716535433
20
0.625038188976378
11
1.2225392913385826
21
0.6257874015748032
0
LINE
8
BLACK
6
CONTINUOUS
10
1.2225392913385826
20
0.6257874015748032
11
1.2422243307086613
21
0.6257874015748032
0
LINE
8
BLACK
6
CONTINUOUS
10
1.2422243307086613
20
0.6257874015748032
11
1.245990905511811
21
0.625038188976378
0
LINE
8
BLACK
6
CONTINUOUS
10
1.171187874015748
20
0.7435421653543307
11
1.1743810236220473
21
0.7414085826771654
0
LINE
8
BLACK
6
CONTINUOUS
10
1.1743810236220473
20
0.7414085826771654
11
1.1765146062992127
21
0.7382154330708661
0
LINE
8
BLACK
6
CONTINUOUS
10
1.1765146062992127
20
0.7382154330708661
11
1.1772638188976379
21
0.7344488582677166
0
LINE
8
BLACK
6
CONTINUOUS
10
1.1772638188976379
20
0.7344488582677166
11
1.1772638188976379
21
0.6970472834645669
0
LINE
8
BLACK
6
CONTINUOUS
10
1.1772638188976379
20
0.6970472834645669
11
1.1765146062992127
21
0.6932807086614173
0
LINE
8
BLACK
6
CONTINUOUS
10
1.1765146062992127
20
0.6932807086614173
11
1.1743810236220473
21
0.6900875590551181
0
LINE
8
BLACK
6
CONTINUOUS
10
1.1743810236220473
20
0.6900875590551181
11
1.171187874015748
21
0.6879539763779527
0
LINE
8
BLACK
6
CONTINUOUS
10
1.171187874015748
20
0.6879539763779527
11
1.1674212992125983
21
0.6872047637795275
0
LINE
8
BLACK
6
CONTINUOUS
10
1.1674212992125983
20
0.6872047637795275
11
1.1477362598425196
21
0.6872047637795275
0
LINE
8
BLACK
6
CONTINUOUS
10
1.1477362598425196
20
0.6872047637795275
11
1.1439696850393701
21
0.6879539763779527
0
LINE
8
BLACK
6
CONTINUOUS
10
1.1439696850393701
20
0.6879539763779527
11
1.1407765354330708
21
0.6900875590551181
0
LINE
8
BLACK
6
CONTINUOUS
10
1.1407765354330708
20
0.6900875590551181
11
1.1386429527559054
21
0.6932807086614173
0
LINE
8
BLACK
6
CONTINUOUS
10
1.1386429527559054
20
0.6932807086614173
11
1.1378937401574802
21
0.6970472834645669
0
LINE
8
BLACK
6
CONTINUOUS
10
1.1378937401574802
20
0.6970472834645669
11
1.1378937401574802
21
0.7344488582677166
0
LINE
8
BLACK
6
CONTINUOUS
10
1.1378937401574802
20
0.7344488582677166
11
1.1386429527559054
21
0.7382154330708661
0
LINE
8
BLACK
6
CONTINUOUS
10
1.1386429527559054
20
0.7382154330708661
11
1.1407765354330708
21
0.7414085826771654
0
LINE
8
BLACK
6
CONTINUOUS
10
1.1407765354330708
20
0.7414085826771654
11
1.1439696850393701
21
0.7435421653543307
0
LINE
8
BLACK
6
CONTINUOUS
10
1.1439696850393701
20
0.7435421653543307
11
1.1477362598425196
21
0.7442913779527559
0
LINE
8
BLACK
6
CONTINUOUS
10
1.1477362598425196
20
0.7442913779527559
11
1.1674212992125983
21
0.7442913779527559
0
LINE
8
BLACK
6
CONTINUOUS
10
1.1674212992125983
20
0.7442913779527559
11
1.171187874015748
21
0.7435421653543307
0
LINE
8
BLACK
6
CONTINUOUS
10
1.2459909448818898
20
0.7435421653543307
11
1.2491840944881889
21
0.7414085826771654
0
LINE
8
BLACK
6
CONTINUOUS
10
1.2491840944881889
20
0.7414085826771654
11
1.2513176771653542
21
0.7382154330708661
0
LINE
8
BLACK
6
CONTINUOUS
10
1.2513176771653542
20
0.7382154330708661
11
1.2520668897637794
21
0.7344488582677166
0
LINE
8
BLACK
6
CONTINUOUS
10
1.2520668897637794
20
0.7344488582677166
11
1.2520668897637794
21
0.6970472834645669
0
LINE
8
BLACK
6
CONTINUOUS
10
1.2520668897637794
20
0.6970472834645669
11
1.2513176771653542
21
0.6932807086614173
0
LINE
8
BLACK
6
CONTINUOUS
10
1.2513176771653542
20
0.6932807086614173
11
1.2491840944881889
21
0.6900875590551181
0
LINE
8
BLACK
6
CONTINUOUS
10
1.2491840944881889
20
0.6900875590551181
11
1.2459909448818898
21
0.6879539763779527
0
LINE
8
BLACK
6
CONTINUOUS
10
1.2459909448818898
20
0.6879539763779527
11
1.2422243700787401
21
0.6872047637795275
0
LINE
8
BLACK
6
CONTINUOUS
10
1.2422243700787401
20
0.6872047637795275
11
1.2225393307086614
21
0.6872047637795275
0
LINE
8
BLACK
6
CONTINUOUS
10
1.2225393307086614
20
0.6872047637795275
11
1.2187727559055117
21
0.6879539763779527
0
LINE
8
BLACK
6
CONTINUOUS
10
1.2187727559055117
20
0.6879539763779527
11
1.2155796062992126
21
0.6900875590551181
0
LINE
8
BLACK
6
CONTINUOUS
10
1.2155796062992126
20
0.6900875590551181
11
1.2134460236220472
21
0.6932807086614173
0
LINE
8
BLACK
6
CONTINUOUS
10
1.2134460236220472
20
0.6932807086614173
11
1.212696811023622
21
0.6970472834645669
0
LINE
8
BLACK
6
CONTINUOUS
10
1.212696811023622
20
0.6970472834645669
11
1.212696811023622
21
0.7344488582677166
0
LINE
8
BLACK
6
CONTINUOUS
10
1.212696811023622
20
0.7344488582677166
11
1.2134460236220472
21
0.7382154330708661
0
LINE
8
BLACK
6
CONTINUOUS
10
1.2134460236220472
20
0.7382154330708661
11
1.2155796062992126
21
0.7414085826771654
0
LINE
8
BLACK
6
CONTINUOUS
10
1.2155796062992126
20
0.7414085826771654
11
1.2187727559055117
21
0.7435421653543307
0
LINE
8
BLACK
6
CONTINUOUS
10
1.2187727559055117
20
0.7435421653543307
11
1.2225393307086614
21
0.7442913779527559
0
LINE
8
BLACK
6
CONTINUOUS
10
1.2225393307086614
20
0.7442913779527559
11
1.2422243700787401
21
0.7442913779527559
0
LINE
8
BLACK
6
CONTINUOUS
10
1.2422243700787401
20
0.7442913779527559
11
1.2459909448818898
21
0.7435421653543307
0
LINE
8
BLACK
6
CONTINUOUS
10
1.0898425590551182
20
0.8123783464566929
11
1.0942088188976378
21
0.8102438188976377
0
LINE
8
BLACK
6
CONTINUOUS
10
1.0942088188976378
20
0.8102438188976377
11
1.0976453937007873
21
0.8068072440944881
0
LINE
8
BLACK
6
CONTINUOUS
10
1.0976453937007873
20
0.8068072440944881
11
1.0997799212598425
21
0.8024409842519685
0
LINE
8
BLACK
6
CONTINUOUS
10
1.0997799212598425
20
0.8024409842519685
11
1.1003937007874016
21
0.7982283464566929
0
LINE
8
BLACK
6
CONTINUOUS
10
1.1003937007874016
20
0.7982283464566929
11
1.1003937007874016
21
0.7687007874015748
0
LINE
8
BLACK
6
CONTINUOUS
10
1.1003937007874016
20
0.7687007874015748
11
1.0997799212598425
21
0.7644881496062992
0
LINE
8
BLACK
6
CONTINUOUS
10
1.0997799212598425
20
0.7644881496062992
11
1.0976453937007873
21
0.7601218897637795
0
LINE
8
BLACK
6
CONTINUOUS
10
1.0976453937007873
20
0.7601218897637795
11
1.0942088188976378
21
0.7566853149606299
0
LINE
8
BLACK
6
CONTINUOUS
10
1.0942088188976378
20
0.7566853149606299
11
1.0898425590551182
21
0.7545507874015748
0
LINE
8
BLACK
6
CONTINUOUS
10
1.0898425590551182
20
0.7545507874015748
11
1.0856299212598426
21
0.7539370078740157
0
LINE
8
BLACK
6
CONTINUOUS
10
1.0856299212598426
20
0.7539370078740157
11
1.0364173228346456
21
0.7539370078740157
0
LINE
8
BLACK
6
CONTINUOUS
10
1.0364173228346456
20
0.7539370078740157
11
1.03220468503937
21
0.7545507874015748
0
LINE
8
BLACK
6
CONTINUOUS
10
1.03220468503937
20
0.7545507874015748
11
1.0278384251968504
21
0.7566853149606299
0
LINE
8
BLACK
6
CONTINUOUS
10
1.0278384251968504
20
0.7566853149606299
11
1.0244018503937007
21
0.7601218897637795
0
LINE
8
BLACK
6
CONTINUOUS
10
1.0244018503937007
20
0.7601218897637795
11
1.0222673228346457
21
0.7644881496062992
0
LINE
8
BLACK
6
CONTINUOUS
10
1.0222673228346457
20
0.7644881496062992
11
1.0216535433070866
21
0.7687007874015748
0
LINE
8
BLACK
6
CONTINUOUS
10
1.0216535433070866
20
0.7687007874015748
11
1.0216535433070866
21
0.7982283464566929
0
LINE
8
BLACK
6
CONTINUOUS
10
1.0216535433070866
20
0.7982283464566929
11
1.0222673228346457
21
0.8024409842519685
0
LINE
8
BLACK
6
CONTINUOUS
10
1.0222673228346457
20
0.8024409842519685
11
1.0244018503937007
21
0.8068072440944881
0
LINE
8
BLACK
6
CONTINUOUS
10
1.0244018503937007
20
0.8068072440944881
11
1.0278384251968504
21
0.8102438188976377
0
LINE
8
BLACK
6
CONTINUOUS
10
1.0278384251968504
20
0.8102438188976377
11
1.03220468503937
21
0.8123783464566929
0
LINE
8
BLACK
6
CONTINUOUS
10
1.03220468503937
20
0.8123783464566929
11
1.0364173228346456
21
0.812992125984252
0
LINE
8
BLACK
6
CONTINUOUS
10
1.0364173228346456
20
0.812992125984252
11
1.0856299212598426
21
0.812992125984252
0
LINE
8
BLACK
6
CONTINUOUS
10
1.0856299212598426
20
0.812992125984252
11
1.0898425590551182
21
0.8123783464566929
0
LINE
8
BLACK
6
CONTINUOUS
10
0.8368615748031496
20
0.9483690157480315
11
0.8421112204724409
21
0.9464109842519685
0
LINE
8
BLACK
6
CONTINUOUS
10
0.8421112204724409
20
0.9464109842519685
11
0.8465966141732283
21
0.9430532677165354
0
LINE
8
BLACK
6
CONTINUOUS
10
0.8465966141732283
20
0.9430532677165354
11
0.8499543307086614
21
0.938567874015748
0
LINE
8
BLACK
6
CONTINUOUS
10
0.8499543307086614
20
0.938567874015748
11
0.8519123622047244
21
0.9333182283464567
0
LINE
8
BLACK
6
CONTINUOUS
10
0.8519123622047244
20
0.9333182283464567
11
0.8523622440944881
21
0.9291338582677166
0
LINE
8
BLACK
6
CONTINUOUS
10
0.8523622440944881
20
0.9291338582677166
11
0.8523622440944881
21
0.8188976377952756
0
LINE
8
BLACK
6
CONTINUOUS
10
0.8523622440944881
20
0.8188976377952756
11
0.8519123622047244
21
0.8147132677165354
0
LINE
8
BLACK
6
CONTINUOUS
10
0.8519123622047244
20
0.8147132677165354
11
0.8499543307086614
21
0.8094636220472441
0
LINE
8
BLACK
6
CONTINUOUS
10
0.8499543307086614
20
0.8094636220472441
11
0.8465966141732283
21
0.8049782283464567
0
LINE
8
BLACK
6
CONTINUOUS
10
0.8465966141732283
20
0.8049782283464567
11
0.8421112204724409
21
0.8016205118110236
0
LINE
8
BLACK
6
CONTINUOUS
10
0.8421112204724409
20
0.8016205118110236
11
0.8368615748031496
21
0.7996624803149606
0
LINE
8
BLACK
6
CONTINUOUS
10
0.8368615748031496
20
0.7996624803149606
11
0.8326772047244094
21
0.7992125984251969
0
LINE
8
BLACK
6
CONTINUOUS
10
0.8326772047244094
20
0.7992125984251969
11
0.7933071259842519
21
0.7992125984251969
0
LINE
8
BLACK
6
CONTINUOUS
10
0.7933071259842519
20
0.7992125984251969
11
0.7891227559055118
21
0.7996624803149606
0
LINE
8
BLACK
6
CONTINUOUS
10
0.7891227559055118
20
0.7996624803149606
11
0.7838731102362204
21
0.8016205118110236
0
LINE
8
BLACK
6
CONTINUOUS
10
0.7838731102362204
20
0.8016205118110236
11
0.779387716535433
21
0.8049782283464567
0
LINE
8
BLACK
6
CONTINUOUS
10
0.779387716535433
20
0.8049782283464567
11
0.77603
21
0.8094636220472441
0
LINE
8
BLACK
6
CONTINUOUS
10
0.77603
20
0.8094636220472441
11
0.774071968503937
21
0.8147132677165354
0
LINE
8
BLACK
6
CONTINUOUS
10
0.774071968503937
20
0.8147132677165354
11
0.7736220866141732
21
0.8188976377952756
0
LINE
8
BLACK
6
CONTINUOUS
10
0.7736220866141732
20
0.8188976377952756
11
0.7736220866141732
21
0.9291338582677166
0
LINE
8
BLACK
6
CONTINUOUS
10
0.7736220866141732
20
0.9291338582677166
11
0.774071968503937
21
0.9333182283464567
0
LINE
8
BLACK
6
CONTINUOUS
10
0.774071968503937
20
0.9333182283464567
11
0.77603
21
0.938567874015748
0
LINE
8
BLACK
6
CONTINUOUS
10
0.77603
20
0.938567874015748
11
0.779387716535433
21
0.9430532677165354
0
LINE
8
BLACK
6
CONTINUOUS
10
0.779387716535433
20
0.9430532677165354
11
0.7838731102362204
21
0.9464109842519685
0
LINE
8
BLACK
6
CONTINUOUS
10
0.7838731102362204
20
0.9464109842519685
11
0.7891227559055118
21
0.9483690157480315
0
LINE
8
BLACK
6
CONTINUOUS
10
0.7891227559055118
20
0.9483690157480315
11
0.7933071259842519
21
0.9488188976377953
0
LINE
8
BLACK
6
CONTINUOUS
10
0.7933071259842519
20
0.9488188976377953
11
0.8326772047244094
21
0.9488188976377953
0
LINE
8
BLACK
6
CONTINUOUS
10
0.8326772047244094
20
0.9488188976377953
11
0.8368615748031496
21
0.9483690157480315
0
LINE
8
BLACK
6
CONTINUOUS
10
1.1711877952755905
20
0.8620460629921259
11
1.1743809448818898
21
0.8599124803149606
0
LINE
8
BLACK
6
CONTINUOUS
10
1.1743809448818898
20
0.8599124803149606
11
1.1765145275590552
21
0.8567193307086614
0
LINE
8
BLACK
6
CONTINUOUS
10
1.1765145275590552
20
0.8567193307086614
11
1.1772637401574804
21
0.8529527559055118
0
LINE
8
BLACK
6
CONTINUOUS
10
1.1772637401574804
20
0.8529527559055118
11
1.1772637401574804
21
0.8155511811023621
0
LINE
8
BLACK
6
CONTINUOUS
10
1.1772637401574804
20
0.8155511811023621
11
1.1765145275590552
21
0.8117846062992126
0
LINE
8
BLACK
6
CONTINUOUS
10
1.1765145275590552
20
0.8117846062992126
11
1.1743809448818898
21
0.8085914566929133
0
LINE
8
BLACK
6
CONTINUOUS
10
1.1743809448818898
20
0.8085914566929133
11
1.1711877952755905
21
0.806457874015748
0
LINE
8
BLACK
6
CONTINUOUS
10
1.1711877952755905
20
0.806457874015748
11
1.167421220472441
21
0.8057086614173228
0
LINE
8
BLACK
6
CONTINUOUS
10
1.167421220472441
20
0.8057086614173228
11
1.1477361811023621
21
0.8057086614173228
0
LINE
8
BLACK
6
CONTINUOUS
10
1.1477361811023621
20
0.8057086614173228
11
1.1439696062992126
21
0.806457874015748
0
LINE
8
BLACK
6
CONTINUOUS
10
1.1439696062992126
20
0.806457874015748
11
1.1407764566929133
21
0.8085914566929133
0
LINE
8
BLACK
6
CONTINUOUS
10
1.1407764566929133
20
0.8085914566929133
11
1.1386428740157479
21
0.8117846062992126
0
LINE
8
BLACK
6
CONTINUOUS
10
1.1386428740157479
20
0.8117846062992126
11
1.1378936614173227
21
0.8155511811023621
0
LINE
8
BLACK
6
CONTINUOUS
10
1.1378936614173227
20
0.8155511811023621
11
1.1378936614173227
21
0.8529527559055118
0
LINE
8
BLACK
6
CONTINUOUS
10
1.1378936614173227
20
0.8529527559055118
11
1.1386428740157479
21
0.8567193307086614
0
LINE
8
BLACK
6
CONTINUOUS
10
1.1386428740157479
20
0.8567193307086614
11
1.1407764566929133
21
0.8599124803149606
0
LINE
8
BLACK
6
CONTINUOUS
10
1.1407764566929133
20
0.8599124803149606
11
1.1439696062992126
21
0.8620460629921259
0
LINE
8
BLACK
6
CONTINUOUS
10
1.1439696062992126
20
0.8620460629921259
11
1.1477361811023621
21
0.8627952755905511
0
LINE
8
BLACK
6
CONTINUOUS
10
1.1477361811023621
20
0.8627952755905511
11
1.167421220472441
21
0.8627952755905511
0
LINE
8
BLACK
6
CONTINUOUS
10
1.167421220472441
20
0.8627952755905511
11
1.1711877952755905
21
0.8620460629921259
0
LINE
8
BLACK
6
CONTINUOUS
10
1.2459908661417323
20
0.8620460629921259
11
1.2491840157480314
21
0.8599124803149606
0
LINE
8
BLACK
6
CONTINUOUS
10
1.2491840157480314
20
0.8599124803149606
11
1.2513175984251967
21
0.8567193307086614
0
LINE
8
BLACK
6
CONTINUOUS
10
1.2513175984251967
20
0.8567193307086614
11
1.2520668110236219
21
0.8529527559055118
0
LINE
8
BLACK
6
CONTINUOUS
10
1.2520668110236219
20
0.8529527559055118
11
1.2520668110236219
21
0.8155511811023621
0
LINE
8
BLACK
6
CONTINUOUS
10
1.2520668110236219
20
0.8155511811023621
11
1.2513175984251967
21
0.8117846062992126
0
LINE
8
BLACK
6
CONTINUOUS
10
1.2513175984251967
20
0.8117846062992126
11
1.2491840157480314
21
0.8085914566929133
0
LINE
8
BLACK
6
CONTINUOUS
10
1.2491840157480314
20
0.8085914566929133
11
1.2459908661417323
21
0.806457874015748
0
LINE
8
BLACK
6
CONTINUOUS
10
1.2459908661417323
20
0.806457874015748
11
1.2422242913385826
21
0.8057086614173228
0
LINE
8
BLACK
6
CONTINUOUS
10
1.2422242913385826
20
0.8057086614173228
11
1.2225392519685039
21
0.8057086614173228
0
LINE
8
BLACK
6
CONTINUOUS
10
1.2225392519685039
20
0.8057086614173228
11
1.2187726771653542
21
0.806457874015748
0
LINE
8
BLACK
6
CONTINUOUS
10
1.2187726771653542
20
0.806457874015748
11
1.2155795275590551
21
0.8085914566929133
0
LINE
8
BLACK
6
CONTINUOUS
10
1.2155795275590551
20
0.8085914566929133
11
1.2134459448818897
21
0.8117846062992126
0
LINE
8
BLACK
6
CONTINUOUS
10
1.2134459448818897
20
0.8117846062992126
11
1.2126967322834645
21
0.8155511811023621
0
LINE
8
BLACK
6
CONTINUOUS
10
1.2126967322834645
20
0.8155511811023621
11
1.2126967322834645
21
0.8529527559055118
0
LINE
8
BLACK
6
CONTINUOUS
10
1.2126967322834645
20
0.8529527559055118
11
1.2134459448818897
21
0.8567193307086614
0
LINE
8
BLACK
6
CONTINUOUS
10
1.2134459448818897
20
0.8567193307086614
11
1.2155795275590551
21
0.8599124803149606
0
LINE
8
BLACK
6
CONTINUOUS
10
1.2155795275590551
20
0.8599124803149606
11
1.2187726771653542
21
0.8620460629921259
0
LINE
8
BLACK
6
CONTINUOUS
10
1.2187726771653542
20
0.8620460629921259
11
1.2225392519685039
21
0.8627952755905511
0
LINE
8
BLACK
6
CONTINUOUS
10
1.2225392519685039
20
0.8627952755905511
11
1.2422242913385826
21
0.8627952755905511
0
LINE
8
BLACK
6
CONTINUOUS
10
1.2422242913385826
20
0.8627952755905511
11
1.2459908661417323
21
0.8620460629921259
0
LINE
8
BLACK
6
CONTINUOUS
10
1.0898425196850394
20
0.9029295275590551
11
1.094208779527559
21
0.900795
0
LINE
8
BLACK
6
CONTINUOUS
10
1.094208779527559
20
0.900795
11
1.0976453543307085
21
0.8973584251968504
0
LINE
8
BLACK
6
CONTINUOUS
10
1.0976453543307085
20
0.8973584251968504
11
1.0997798818897637
21
0.8929921653543307
0
LINE
8
BLACK
6
CONTINUOUS
10
1.0997798818897637
20
0.8929921653543307
11
1.1003936614173229
21
0.8887795275590551
0
LINE
8
BLACK
6
CONTINUOUS
10
1.1003936614173229
20
0.8887795275590551
11
1.1003936614173229
21
0.859251968503937
0
LINE
8
BLACK
6
CONTINUOUS
10
1.1003936614173229
20
0.859251968503937
11
1.0997798818897637
21
0.8550393307086614
0
LINE
8
BLACK
6
CONTINUOUS
10
1.0997798818897637
20
0.8550393307086614
11
1.0976453543307085
21
0.8506730708661417
0
LINE
8
BLACK
6
CONTINUOUS
10
1.0976453543307085
20
0.8506730708661417
11
1.094208779527559
21
0.8472364960629921
0
LINE
8
BLACK
6
CONTINUOUS
10
1.094208779527559
20
0.8472364960629921
11
1.0898425196850394
21
0.845101968503937
0
LINE
8
BLACK
6
CONTINUOUS
10
1.0898425196850394
20
0.845101968503937
11
1.0856298818897638
21
0.8444881889763779
0
LINE
8
BLACK
6
CONTINUOUS
10
1.0856298818897638
20
0.8444881889763779
11
1.0364172834645669
21
0.8444881889763779
0
LINE
8
BLACK
6
CONTINUOUS
10
1.0364172834645669
20
0.8444881889763779
11
1.0322046456692913
21
0.845101968503937
0
LINE
8
BLACK
6
CONTINUOUS
10
1.0322046456692913
20
0.845101968503937
11
1.0278383858267717
21
0.8472364960629921
0
LINE
8
BLACK
6
CONTINUOUS
10
1.0278383858267717
20
0.8472364960629921
11
1.0244018110236219
21
0.8506730708661417
0
LINE
8
BLACK
6
CONTINUOUS
10
1.0244018110236219
20
0.8506730708661417
11
1.022267283464567
21
0.8550393307086614
0
LINE
8
BLACK
6
CONTINUOUS
10
1.022267283464567
20
0.8550393307086614
11
1.0216535039370078
21
0.859251968503937
0
LINE
8
BLACK
6
CONTINUOUS
10
1.0216535039370078
20
0.859251968503937
11
1.0216535039370078
21
0.8887795275590551
0
LINE
8
BLACK
6
CONTINUOUS
10
1.0216535039370078
20
0.8887795275590551
11
1.022267283464567
21
0.8929921653543307
0
LINE
8
BLACK
6
CONTINUOUS
10
1.022267283464567
20
0.8929921653543307
11
1.0244018110236219
21
0.8973584251968504
0
LINE
8
BLACK
6
CONTINUOUS
10
1.0244018110236219
20
0.8973584251968504
11
1.0278383858267717
21
0.900795
0
LINE
8
BLACK
6
CONTINUOUS
10
1.0278383858267717
20
0.900795
11
1.0322046456692913
21
0.9029295275590551
0
LINE
8
BLACK
6
CONTINUOUS
10
1.0322046456692913
20
0.9029295275590551
11
1.0364172834645669
21
0.9035433070866141
0
LINE
8
BLACK
6
CONTINUOUS
10
1.0364172834645669
20
0.9035433070866141
11
1.0856298818897638
21
0.9035433070866141
0
LINE
8
BLACK
6
CONTINUOUS
10
1.0856298818897638
20
0.9035433070866141
11
1.0898425196850394
21
0.9029295275590551
0
LINE
8
BLACK
6
CONTINUOUS
10
2.7834645669291338
20
0.8710629921259843
11
2.7421259842519685
21
0.8710629921259843
0
LINE
8
BLACK
6
CONTINUOUS
10
2.7421259842519685
20
0.8710629921259843
11
2.7421259842519685
21
0.8966535433070866
0
LINE
8
BLACK
6
CONTINUOUS
10
2.7421259842519685
20
0.8966535433070866
11
2.7834645669291338
21
0.8966535433070866
0
LINE
8
BLACK
6
CONTINUOUS
10
2.7834645669291338
20
0.8966535433070866
11
2.7834645669291338
21
0.8710629921259843
0
LINE
8
BLACK
6
CONTINUOUS
10
2.9458661417322833
20
0.8710629921259843
11
2.9045275590551181
21
0.8710629921259843
0
LINE
8
BLACK
6
CONTINUOUS
10
2.9045275590551181
20
0.8710629921259843
11
2.9045275590551181
21
0.8966535433070866
0
LINE
8
BLACK
6
CONTINUOUS
10
2.9045275590551181
20
0.8966535433070866
11
2.9458661417322833
21
0.8966535433070866
0
LINE
8
BLACK
6
CONTINUOUS
10
2.9458661417322833
20
0.8966535433070866
11
2.9458661417322833
21
0.8710629921259843
0
LINE
8
BLACK
6
CONTINUOUS
10
1.1711877952755905
20
0.9805499606299213
11
1.1743809448818898
21
0.9784163779527559
0
LINE
8
BLACK
6
CONTINUOUS
10
1.1743809448818898
20
0.9784163779527559
11
1.1765145275590552
21
0.9752232283464567
0
LINE
8
BLACK
6
CONTINUOUS
10
1.1765145275590552
20
0.9752232283464567
11
1.1772637401574804
21
0.971456653543307
0
LINE
8
BLACK
6
CONTINUOUS
10
1.1772637401574804
20
0.971456653543307
11
1.1772637401574804
21
0.9340550787401575
0
LINE
8
BLACK
6
CONTINUOUS
10
1.1772637401574804
20
0.9340550787401575
11
1.1765145275590552
21
0.9302885039370079
0
LINE
8
BLACK
6
CONTINUOUS
10
1.1765145275590552
20
0.9302885039370079
11
1.1743809448818898
21
0.9270953543307087
0
LINE
8
BLACK
6
CONTINUOUS
10
1.1743809448818898
20
0.9270953543307087
11
1.1711877952755905
21
0.9249617716535433
0
LINE
8
BLACK
6
CONTINUOUS
10
1.1711877952755905
20
0.9249617716535433
11
1.167421220472441
21
0.9242125590551181
0
LINE
8
BLACK
6
CONTINUOUS
10
1.167421220472441
20
0.9242125590551181
11
1.1477361811023621
21
0.9242125590551181
0
LINE
8
BLACK
6
CONTINUOUS
10
1.1477361811023621
20
0.9242125590551181
11
1.1439696062992126
21
0.9249617716535433
0
LINE
8
BLACK
6
CONTINUOUS
10
1.1439696062992126
20
0.9249617716535433
11
1.1407764566929133
21
0.9270953543307087
0
LINE
8
BLACK
6
CONTINUOUS
10
1.1407764566929133
20
0.9270953543307087
11
1.1386428740157479
21
0.9302885039370079
0
LINE
8
BLACK
6
CONTINUOUS
10
1.1386428740157479
20
0.9302885039370079
11
1.1378936614173227
21
0.9340550787401575
0
LINE
8
BLACK
6
CONTINUOUS
10
1.1378936614173227
20
0.9340550787401575
11
1.1378936614173227
21
0.971456653543307
0
LINE
8
BLACK
6
CONTINUOUS
10
1.1378936614173227
20
0.971456653543307
11
1.1386428740157479
21
0.9752232283464567
0
LINE
8
BLACK
6
CONTINUOUS
10
1.1386428740157479
20
0.9752232283464567
11
1.1407764566929133
21
0.9784163779527559
0
LINE
8
BLACK
6
CONTINUOUS
10
1.1407764566929133
20
0.9784163779527559
11
1.1439696062992126
21
0.9805499606299213
0
LINE
8
BLACK
6
CONTINUOUS
10
1.1439696062992126
20
0.9805499606299213
11
1.1477361811023621
21
0.9812991732283465
0
LINE
8
BLACK
6
CONTINUOUS
10
1.1477361811023621
20
0.9812991732283465
11
1.167421220472441
21
0.9812991732283465
0
LINE
8
BLACK
6
CONTINUOUS
10
1.167421220472441
20
0.9812991732283465
11
1.1711877952755905
21
0.9805499606299213
0
LINE
8
BLACK
6
CONTINUOUS
10
1.2459908661417323
20
0.9805499606299213
11
1.2491840157480314
21
0.9784163779527559
0
LINE
8
BLACK
6
CONTINUOUS
10
1.2491840157480314
20
0.9784163779527559
11
1.2513175984251967
21
0.9752232283464567
0
LINE
8
BLACK
6
CONTINUOUS
10
1.2513175984251967
20
0.9752232283464567
11
1.2520668110236219
21
0.971456653543307
0
LINE
8
BLACK
6
CONTINUOUS
10
1.2520668110236219
20
0.971456653543307
11
1.2520668110236219
21
0.9340550787401575
0
LINE
8
BLACK
6
CONTINUOUS
10
1.2520668110236219
20
0.9340550787401575
11
1.2513175984251967
21
0.9302885039370079
0
LINE
8
BLACK
6
CONTINUOUS
10
1.2513175984251967
20
0.9302885039370079
11
1.2491840157480314
21
0.9270953543307087
0
LINE
8
BLACK
6
CONTINUOUS
10
1.2491840157480314
20
0.9270953543307087
11
1.2459908661417323
21
0.9249617716535433
0
LINE
8
BLACK
6
CONTINUOUS
10
1.2459908661417323
20
0.9249617716535433
11
1.2422242913385826
21
0.9242125590551181
0
LINE
8
BLACK
6
CONTINUOUS
10
1.2422242913385826
20
0.9242125590551181
11
1.2225392519685039
21
0.9242125590551181
0
LINE
8
BLACK
6
CONTINUOUS
10
1.2225392519685039
20
0.9242125590551181
11
1.2187726771653542
21
0.9249617716535433
0
LINE
8
BLACK
6
CONTINUOUS
10
1.2187726771653542
20
0.9249617716535433
11
1.2155795275590551
21
0.9270953543307087
0
LINE
8
BLACK
6
CONTINUOUS
10
1.2155795275590551
20
0.9270953543307087
11
1.2134459448818897
21
0.9302885039370079
0
LINE
8
BLACK
6
CONTINUOUS
10
1.2134459448818897
20
0.9302885039370079
11
1.2126967322834645
21
0.9340550787401575
0
LINE
8
BLACK
6
CONTINUOUS
10
1.2126967322834645
20
0.9340550787401575
11
1.2126967322834645
21
0.971456653543307
0
LINE
8
BLACK
6
CONTINUOUS
10
1.2126967322834645
20
0.971456653543307
11
1.2134459448818897
21
0.9752232283464567
0
LINE
8
BLACK
6
CONTINUOUS
10
1.2134459448818897
20
0.9752232283464567
11
1.2155795275590551
21
0.9784163779527559
0
LINE
8
BLACK
6
CONTINUOUS
10
1.2155795275590551
20
0.9784163779527559
11
1.2187726771653542
21
0.9805499606299213
0
LINE
8
BLACK
6
CONTINUOUS
10
1.2187726771653542
20
0.9805499606299213
11
1.2225392519685039
21
0.9812991732283465
0
LINE
8
BLACK
6
CONTINUOUS
10
1.2225392519685039
20
0.9812991732283465
11
1.2422242913385826
21
0.9812991732283465
0
LINE
8
BLACK
6
CONTINUOUS
10
1.2422242913385826
20
0.9812991732283465
11
1.2459908661417323
21
0.9805499606299213
0
LINE
8
BLACK
6
CONTINUOUS
10
1.0898425590551182
20
0.9934807086614174
11
1.0942088188976378
21
0.9913461811023622
0
LINE
8
BLACK
6
CONTINUOUS
10
1.0942088188976378
20
0.9913461811023622
11
1.0976453937007873
21
0.9879096062992125
0
LINE
8
BLACK
6
CONTINUOUS
10
1.0976453937007873
20
0.9879096062992125
11
1.0997799212598425
21
0.9835433464566929
0
LINE
8
BLACK
6
CONTINUOUS
10
1.0997799212598425
20
0.9835433464566929
11
1.1003937007874016
21
0.9793307086614172
0
LINE
8
BLACK
6
CONTINUOUS
10
1.1003937007874016
20
0.9793307086614172
11
1.1003937007874016
21
0.9498031496062992
0
LINE
8
BLACK
6
CONTINUOUS
10
1.1003937007874016
20
0.9498031496062992
11
1.0997799212598425
21
0.9455905118110236
0
LINE
8
BLACK
6
CONTINUOUS
10
1.0997799212598425
20
0.9455905118110236
11
1.0976453937007873
21
0.9412242519685039
0
LINE
8
BLACK
6
CONTINUOUS
10
1.0976453937007873
20
0.9412242519685039
11
1.0942088188976378
21
0.9377876771653543
0
LINE
8
BLACK
6
CONTINUOUS
10
1.0942088188976378
20
0.9377876771653543
11
1.0898425590551182
21
0.9356531496062992
0
LINE
8
BLACK
6
CONTINUOUS
10
1.0898425590551182
20
0.9356531496062992
11
1.0856299212598426
21
0.9350393700787402
0
LINE
8
BLACK
6
CONTINUOUS
10
1.0856299212598426
20
0.9350393700787402
11
1.0364173228346456
21
0.9350393700787402
0
LINE
8
BLACK
6
CONTINUOUS
10
1.0364173228346456
20
0.9350393700787402
11
1.03220468503937
21
0.9356531496062992
0
LINE
8
BLACK
6
CONTINUOUS
10
1.03220468503937
20
0.9356531496062992
11
1.0278384251968504
21
0.9377876771653543
0
LINE
8
BLACK
6
CONTINUOUS
10
1.0278384251968504
20
0.9377876771653543
11
1.0244018503937007
21
0.9412242519685039
0
LINE
8
BLACK
6
CONTINUOUS
10
1.0244018503937007
20
0.9412242519685039
11
1.0222673228346457
21
0.9455905118110236
0
LINE
8
BLACK
6
CONTINUOUS
10
1.0222673228346457
20
0.9455905118110236
11
1.0216535433070866
21
0.9498031496062992
0
LINE
8
BLACK
6
CONTINUOUS
10
1.0216535433070866
20
0.9498031496062992
11
1.0216535433070866
21
0.9793307086614172
0
LINE
8
BLACK
6
CONTINUOUS
10
1.0216535433070866
20
0.9793307086614172
11
1.0222673228346457
21
0.9835433464566929
0
LINE
8
BLACK
6
CONTINUOUS
10
1.0222673228346457
20
0.9835433464566929
11
1.0244018503937007
21
0.9879096062992125
0
LINE
8
BLACK
6
CONTINUOUS
10
1.0244018503937007
20
0.9879096062992125
11
1.0278384251968504
21
0.9913461811023622
0
LINE
8
BLACK
6
CONTINUOUS
10
1.0278384251968504
20
0.9913461811023622
11
1.03220468503937
21
0.9934807086614174
0
LINE
8
BLACK
6
CONTINUOUS
10
1.03220468503937
20
0.9934807086614174
11
1.0364173228346456
21
0.9940944881889764
0
LINE
8
BLACK
6
CONTINUOUS
10
1.0364173228346456
20
0.9940944881889764
11
1.0856299212598426
21
0.9940944881889764
0
LINE
8
BLACK
6
CONTINUOUS
10
1.0856299212598426
20
0.9940944881889764
11
1.0898425590551182
21
0.9934807086614174
0
LINE
8
BLACK
6
CONTINUOUS
10
2.7824803149606296
20
0.9557086614173228
11
2.7411417322834644
21
0.9557086614173228
0
LINE
8
BLACK
6
CONTINUOUS
10
2.7411417322834644
20
0.9557086614173228
11
2.7411417322834644
21
0.9812992125984251
0
LINE
8
BLACK
6
CONTINUOUS
10
2.7411417322834644
20
0.9812992125984251
11
2.7824803149606296
21
0.9812992125984251
0
LINE
8
BLACK
6
CONTINUOUS
10
2.7824803149606296
20
0.9812992125984251
11
2.7824803149606296
21
0.9557086614173228
0
LINE
8
BLACK
6
CONTINUOUS
10
2.9458661417322833
20
0.9557086614173228
11
2.9045275590551181
21
0.9557086614173228
0
LINE
8
BLACK
6
CONTINUOUS
10
2.9045275590551181
20
0.9557086614173228
11
2.9045275590551181
21
0.9812992125984251
0
LINE
8
BLACK
6
CONTINUOUS
10
2.9045275590551181
20
0.9812992125984251
11
2.9458661417322833
21
0.9812992125984251
0
LINE
8
BLACK
6
CONTINUOUS
10
2.9458661417322833
20
0.9812992125984251
11
2.9458661417322833
21
0.9557086614173228
0
LINE
8
BLACK
6
CONTINUOUS
10
1.5357246062992125
20
1.0571292125984251
11
1.5376404724409449
21
1.0558490551181101
0
LINE
8
BLACK
6
CONTINUOUS
10
1.5376404724409449
20
1.0558490551181101
11
1.5389206299212599
21
1.0539331889763779
0
LINE
8
BLACK
6
CONTINUOUS
10
1.5389206299212599
20
1.0539331889763779
11
1.5393701574803149
21
1.0516732283464567
0
LINE
8
BLACK
6
CONTINUOUS
10
1.5393701574803149
20
1.0516732283464567
11
1.5393701574803149
21
1.0113188976377951
0
LINE
8
BLACK
6
CONTINUOUS
10
1.5393701574803149
20
1.0113188976377951
11
1.5389206299212599
21
1.009058937007874
0
LINE
8
BLACK
6
CONTINUOUS
10
1.5389206299212599
20
1.009058937007874
11
1.5376404724409449
21
1.0071430708661417
0
LINE
8
BLACK
6
CONTINUOUS
10
1.5376404724409449
20
1.0071430708661417
11
1.5357246062992125
21
1.0058629133858268
0
LINE
8
BLACK
6
CONTINUOUS
10
1.5357246062992125
20
1.0058629133858268
11
1.5334646456692913
21
1.0054133858267715
0
LINE
8
BLACK
6
CONTINUOUS
10
1.5334646456692913
20
1.0054133858267715
11
1.5216536220472441
21
1.0054133858267715
0
LINE
8
BLACK
6
CONTINUOUS
10
1.5216536220472441
20
1.0054133858267715
11
1.5193936614173229
21
1.0058629133858268
0
LINE
8
BLACK
6
CONTINUOUS
10
1.5193936614173229
20
1.0058629133858268
11
1.5174777952755905
21
1.0071430708661417
0
LINE
8
BLACK
6
CONTINUOUS
10
1.5174777952755905
20
1.0071430708661417
11
1.5161976377952755
21
1.009058937007874
0
LINE
8
BLACK
6
CONTINUOUS
10
1.5161976377952755
20
1.009058937007874
11
1.5157481102362205
21
1.0113188976377951
0
LINE
8
BLACK
6
CONTINUOUS
10
1.5157481102362205
20
1.0113188976377951
11
1.5157481102362205
21
1.0516732283464567
0
LINE
8
BLACK
6
CONTINUOUS
10
1.5157481102362205
20
1.0516732283464567
11
1.5161976377952755
21
1.0539331889763779
0
LINE
8
BLACK
6
CONTINUOUS
10
1.5161976377952755
20
1.0539331889763779
11
1.5174777952755905
21
1.0558490551181101
0
LINE
8
BLACK
6
CONTINUOUS
10
1.5174777952755905
20
1.0558490551181101
11
1.5193936614173229
21
1.0571292125984251
0
LINE
8
BLACK
6
CONTINUOUS
10
1.5193936614173229
20
1.0571292125984251
11
1.5216536220472441
21
1.0575787401574803
0
LINE
8
BLACK
6
CONTINUOUS
10
1.5216536220472441
20
1.0575787401574803
11
1.5334646456692913
21
1.0575787401574803
0
LINE
8
BLACK
6
CONTINUOUS
10
1.5334646456692913
20
1.0575787401574803
11
1.5357246062992125
21
1.0571292125984251
0
LINE
8
BLACK
6
CONTINUOUS
10
1.5731261417322835
20
1.0571292125984251
11
1.5750420078740157
21
1.0558490551181101
0
LINE
8
BLACK
6
CONTINUOUS
10
1.5750420078740157
20
1.0558490551181101
11
1.5763221653543307
21
1.0539331889763779
0
LINE
8
BLACK
6
CONTINUOUS
10
1.5763221653543307
20
1.0539331889763779
11
1.5767716929133857
21
1.0516732283464567
0
LINE
8
BLACK
6
CONTINUOUS
10
1.5767716929133857
20
1.0516732283464567
11
1.5767716929133857
21
1.0113188976377951
0
LINE
8
BLACK
6
CONTINUOUS
10
1.5767716929133857
20
1.0113188976377951
11
1.5763221653543307
21
1.009058937007874
0
LINE
8
BLACK
6
CONTINUOUS
10
1.5763221653543307
20
1.009058937007874
11
1.5750420078740157
21
1.0071430708661417
0
LINE
8
BLACK
6
CONTINUOUS
10
1.5750420078740157
20
1.0071430708661417
11
1.5731261417322835
21
1.0058629133858268
0
LINE
8
BLACK
6
CONTINUOUS
10
1.5731261417322835
20
1.0058629133858268
11
1.5708661811023621
21
1.0054133858267715
0
LINE
8
BLACK
6
CONTINUOUS
10
1.5708661811023621
20
1.0054133858267715
11
1.5590551574803149
21
1.0054133858267715
0
LINE
8
BLACK
6
CONTINUOUS
10
1.5590551574803149
20
1.0054133858267715
11
1.5567951968503937
21
1.0058629133858268
0
LINE
8
BLACK
6
CONTINUOUS
10
1.5567951968503937
20
1.0058629133858268
11
1.5548793307086615
21
1.0071430708661417
0
LINE
8
BLACK
6
CONTINUOUS
10
1.5548793307086615
20
1.0071430708661417
11
1.5535991732283465
21
1.009058937007874
0
LINE
8
BLACK
6
CONTINUOUS
10
1.5535991732283465
20
1.009058937007874
11
1.5531496456692913
21
1.0113188976377951
0
LINE
8
BLACK
6
CONTINUOUS
10
1.5531496456692913
20
1.0113188976377951
11
1.5531496456692913
21
1.0516732283464567
0
LINE
8
BLACK
6
CONTINUOUS
10
1.5531496456692913
20
1.0516732283464567
11
1.5535991732283465
21
1.0539331889763779
0
LINE
8
BLACK
6
CONTINUOUS
10
1.5535991732283465
20
1.0539331889763779
11
1.5548793307086615
21
1.0558490551181101
0
LINE
8
BLACK
6
CONTINUOUS
10
1.5548793307086615
20
1.0558490551181101
11
1.5567951968503937
21
1.0571292125984251
0
LINE
8
BLACK
6
CONTINUOUS
10
1.5567951968503937
20
1.0571292125984251
11
1.5590551574803149
21
1.0575787401574803
0
LINE
8
BLACK
6
CONTINUOUS
10
1.5590551574803149
20
1.0575787401574803
11
1.5708661811023621
21
1.0575787401574803
0
LINE
8
BLACK
6
CONTINUOUS
10
1.5708661811023621
20
1.0575787401574803
11
1.5731261417322835
21
1.0571292125984251
0
LINE
8
BLACK
6
CONTINUOUS
10
1.6105276771653543
20
1.0571292125984251
11
1.6124435433070865
21
1.0558490551181101
0
LINE
8
BLACK
6
CONTINUOUS
10
1.6124435433070865
20
1.0558490551181101
11
1.6137237007874015
21
1.0539331889763779
0
LINE
8
BLACK
6
CONTINUOUS
10
1.6137237007874015
20
1.0539331889763779
11
1.6141732283464567
21
1.0516732283464567
0
LINE
8
BLACK
6
CONTINUOUS
10
1.6141732283464567
20
1.0516732283464567
11
1.6141732283464567
21
1.0113188976377951
0
LINE
8
BLACK
6
CONTINUOUS
10
1.6141732283464567
20
1.0113188976377951
11
1.6137237007874015
21
1.009058937007874
0
LINE
8
BLACK
6
CONTINUOUS
10
1.6137237007874015
20
1.009058937007874
11
1.6124435433070865
21
1.0071430708661417
0
LINE
8
BLACK
6
CONTINUOUS
10
1.6124435433070865
20
1.0071430708661417
11
1.6105276771653543
21
1.0058629133858268
0
LINE
8
BLACK
6
CONTINUOUS
10
1.6105276771653543
20
1.0058629133858268
11
1.6082677165354331
21
1.0054133858267715
0
LINE
8
BLACK
6
CONTINUOUS
10
1.6082677165354331
20
1.0054133858267715
11
1.5964566929133859
21
1.0054133858267715
0
LINE
8
BLACK
6
CONTINUOUS
10
1.5964566929133859
20
1.0054133858267715
11
1.5941967322834645
21
1.0058629133858268
0
LINE
8
BLACK
6
CONTINUOUS
10
1.5941967322834645
20
1.0058629133858268
11
1.5922808661417323
21
1.0071430708661417
0
LINE
8
BLACK
6
CONTINUOUS
10
1.5922808661417323
20
1.0071430708661417
11
1.5910007086614173
21
1.009058937007874
0
LINE
8
BLACK
6
CONTINUOUS
10
1.5910007086614173
20
1.009058937007874
11
1.5905511811023623
21
1.0113188976377951
0
LINE
8
BLACK
6
CONTINUOUS
10
1.5905511811023623
20
1.0113188976377951
11
1.5905511811023623
21
1.0516732283464567
0
LINE
8
BLACK
6
CONTINUOUS
10
1.5905511811023623
20
1.0516732283464567
11
1.5910007086614173
21
1.0539331889763779
0
LINE
8
BLACK
6
CONTINUOUS
10
1.5910007086614173
20
1.0539331889763779
11
1.5922808661417323
21
1.0558490551181101
0
LINE
8
BLACK
6
CONTINUOUS
10
1.5922808661417323
20
1.0558490551181101
11
1.5941967322834645
21
1.0571292125984251
0
LINE
8
BLACK
6
CONTINUOUS
10
1.5941967322834645
20
1.0571292125984251
11
1.5964566929133859
21
1.0575787401574803
0
LINE
8
BLACK
6
CONTINUOUS
10
1.5964566929133859
20
1.0575787401574803
11
1.6082677165354331
21
1.0575787401574803
0
LINE
8
BLACK
6
CONTINUOUS
10
1.6082677165354331
20
1.0575787401574803
11
1.6105276771653543
21
1.0571292125984251
0
LINE
8
BLACK
6
CONTINUOUS
10
1.5357246062992125
20
1.1466961417322834
11
1.5376404724409449
21
1.1454159842519684
0
LINE
8
BLACK
6
CONTINUOUS
10
1.5376404724409449
20
1.1454159842519684
11
1.5389206299212599
21
1.1435001181102362
0
LINE
8
BLACK
6
CONTINUOUS
10
1.5389206299212599
20
1.1435001181102362
11
1.5393701574803149
21
1.141240157480315
0
LINE
8
BLACK
6
CONTINUOUS
10
1.5393701574803149
20
1.141240157480315
11
1.5393701574803149
21
1.1008858267716535
0
LINE
8
BLACK
6
CONTINUOUS
10
1.5393701574803149
20
1.1008858267716535
11
1.5389206299212599
21
1.0986258661417323
0
LINE
8
BLACK
6
CONTINUOUS
10
1.5389206299212599
20
1.0986258661417323
11
1.5376404724409449
21
1.0967100000000001
0
LINE
8
BLACK
6
CONTINUOUS
10
1.5376404724409449
20
1.0967100000000001
11
1.5357246062992125
21
1.0954298425196851
0
LINE
8
BLACK
6
CONTINUOUS
10
1.5357246062992125
20
1.0954298425196851
11
1.5334646456692913
21
1.0949803149606299
0
LINE
8
BLACK
6
CONTINUOUS
10
1.5334646456692913
20
1.0949803149606299
11
1.5216536220472441
21
1.0949803149606299
0
LINE
8
BLACK
6
CONTINUOUS
10
1.5216536220472441
20
1.0949803149606299
11
1.5193936614173229
21
1.0954298425196851
0
LINE
8
BLACK
6
CONTINUOUS
10
1.5193936614173229
20
1.0954298425196851
11
1.5174777952755905
21
1.0967100000000001
0
LINE
8
BLACK
6
CONTINUOUS
10
1.5174777952755905
20
1.0967100000000001
11
1.5161976377952755
21
1.0986258661417323
0
LINE
8
BLACK
6
CONTINUOUS
10
1.5161976377952755
20
1.0986258661417323
11
1.5157481102362205
21
1.1008858267716535
0
LINE
8
BLACK
6
CONTINUOUS
10
1.5157481102362205
20
1.1008858267716535
11
1.5157481102362205
21
1.141240157480315
0
LINE
8
BLACK
6
CONTINUOUS
10
1.5157481102362205
20
1.141240157480315
11
1.5161976377952755
21
1.1435001181102362
0
LINE
8
BLACK
6
CONTINUOUS
10
1.5161976377952755
20
1.1435001181102362
11
1.5174777952755905
21
1.1454159842519684
0
LINE
8
BLACK
6
CONTINUOUS
10
1.5174777952755905
20
1.1454159842519684
11
1.5193936614173229
21
1.1466961417322834
0
LINE
8
BLACK
6
CONTINUOUS
10
1.5193936614173229
20
1.1466961417322834
11
1.5216536220472441
21
1.1471456692913387
0
LINE
8
BLACK
6
CONTINUOUS
10
1.5216536220472441
20
1.1471456692913387
11
1.5334646456692913
21
1.1471456692913387
0
LINE
8
BLACK
6
CONTINUOUS
10
1.5334646456692913
20
1.1471456692913387
11
1.5357246062992125
21
1.1466961417322834
0
LINE
8
BLACK
6
CONTINUOUS
10
1.5731261417322835
20
1.1466961417322834
11
1.5750420078740157
21
1.1454159842519684
0
LINE
8
BLACK
6
CONTINUOUS
10
1.5750420078740157
20
1.1454159842519684
11
1.5763221653543307
21
1.1435001181102362
0
LINE
8
BLACK
6
CONTINUOUS
10
1.5763221653543307
20
1.1435001181102362
11
1.5767716929133857
21
1.141240157480315
0
LINE
8
BLACK
6
CONTINUOUS
10
1.5767716929133857
20
1.141240157480315
11
1.5767716929133857
21
1.1008858267716535
0
LINE
8
BLACK
6
CONTINUOUS
10
1.5767716929133857
20
1.1008858267716535
11
1.5763221653543307
21
1.0986258661417323
0
LINE
8
BLACK
6
CONTINUOUS
10
1.5763221653543307
20
1.0986258661417323
11
1.5750420078740157
21
1.0967100000000001
0
LINE
8
BLACK
6
CONTINUOUS
10
1.5750420078740157
20
1.0967100000000001
11
1.5731261417322835
21
1.0954298425196851
0
LINE
8
BLACK
6
CONTINUOUS
10
1.5731261417322835
20
1.0954298425196851
11
1.5708661811023621
21
1.0949803149606299
0
LINE
8
BLACK
6
CONTINUOUS
10
1.5708661811023621
20
1.0949803149606299
11
1.5590551574803149
21
1.0949803149606299
0
LINE
8
BLACK
6
CONTINUOUS
10
1.5590551574803149
20
1.0949803149606299
11
1.5567951968503937
21
1.0954298425196851
0
LINE
8
BLACK
6
CONTINUOUS
10
1.5567951968503937
20
1.0954298425196851
11
1.5548793307086615
21
1.0967100000000001
0
LINE
8
BLACK
6
CONTINUOUS
10
1.5548793307086615
20
1.0967100000000001
11
1.5535991732283465
21
1.0986258661417323
0
LINE
8
BLACK
6
CONTINUOUS
10
1.5535991732283465
20
1.0986258661417323
11
1.5531496456692913
21
1.1008858267716535
0
LINE
8
BLACK
6
CONTINUOUS
10
1.5531496456692913
20
1.1008858267716535
11
1.5531496456692913
21
1.141240157480315
0
LINE
8
BLACK
6
CONTINUOUS
10
1.5531496456692913
20
1.141240157480315
11
1.5535991732283465
21
1.1435001181102362
0
LINE
8
BLACK
6
CONTINUOUS
10
1.5535991732283465
20
1.1435001181102362
11
1.5548793307086615
21
1.1454159842519684
0
LINE
8
BLACK
6
CONTINUOUS
10
1.5548793307086615
20
1.1454159842519684
11
1.5567951968503937
21
1.1466961417322834
0
LINE
8
BLACK
6
CONTINUOUS
10
1.5567951968503937
20
1.1466961417322834
11
1.5590551574803149
21
1.1471456692913387
0
LINE
8
BLACK
6
CONTINUOUS
10
1.5590551574803149
20
1.1471456692913387
11
1.5708661811023621
21
1.1471456692913387
0
LINE
8
BLACK
6
CONTINUOUS
10
1.5708661811023621
20
1.1471456692913387
11
1.5731261417322835
21
1.1466961417322834
0
LINE
8
BLACK
6
CONTINUOUS
10
1.6105276771653543
20
1.1466961417322834
11
1.6124435433070865
21
1.1454159842519684
0
LINE
8
BLACK
6
CONTINUOUS
10
1.6124435433070865
20
1.1454159842519684
11
1.6137237007874015
21
1.1435001181102362
0
LINE
8
BLACK
6
CONTINUOUS
10
1.6137237007874015
20
1.1435001181102362
11
1.6141732283464567
21
1.141240157480315
0
LINE
8
BLACK
6
CONTINUOUS
10
1.6141732283464567
20
1.141240157480315
11
1.6141732283464567
21
1.1008858267716535
0
LINE
8
BLACK
6
CONTINUOUS
10
1.6141732283464567
20
1.1008858267716535
11
1.6137237007874015
21
1.0986258661417323
0
LINE
8
BLACK
6
CONTINUOUS
10
1.6137237007874015
20
1.0986258661417323
11
1.6124435433070865
21
1.0967100000000001
0
LINE
8
BLACK
6
CONTINUOUS
10
1.6124435433070865
20
1.0967100000000001
11
1.6105276771653543
21
1.0954298425196851
0
LINE
8
BLACK
6
CONTINUOUS
10
1.6105276771653543
20
1.0954298425196851
11
1.6082677165354331
21
1.0949803149606299
0
LINE
8
BLACK
6
CONTINUOUS
10
1.6082677165354331
20
1.0949803149606299
11
1.5964566929133859
21
1.0949803149606299
0
LINE
8
BLACK
6
CONTINUOUS
10
1.5964566929133859
20
1.0949803149606299
11
1.5941967322834645
21
1.0954298425196851
0
LINE
8
BLACK
6
CONTINUOUS
10
1.5941967322834645
20
1.0954298425196851
11
1.5922808661417323
21
1.0967100000000001
0
LINE
8
BLACK
6
CONTINUOUS
10
1.5922808661417323
20
1.0967100000000001
11
1.5910007086614173
21
1.0986258661417323
0
LINE
8
BLACK
6
CONTINUOUS
10
1.5910007086614173
20
1.0986258661417323
11
1.5905511811023623
21
1.1008858267716535
0
LINE
8
BLACK
6
CONTINUOUS
10
1.5905511811023623
20
1.1008858267716535
11
1.5905511811023623
21
1.141240157480315
0
LINE
8
BLACK
6
CONTINUOUS
10
1.5905511811023623
20
1.141240157480315
11
1.5910007086614173
21
1.1435001181102362
0
LINE
8
BLACK
6
CONTINUOUS
10
1.5910007086614173
20
1.1435001181102362
11
1.5922808661417323
21
1.1454159842519684
0
LINE
8
BLACK
6
CONTINUOUS
10
1.5922808661417323
20
1.1454159842519684
11
1.5941967322834645
21
1.1466961417322834
0
LINE
8
BLACK
6
CONTINUOUS
10
1.5941967322834645
20
1.1466961417322834
11
1.5964566929133859
21
1.1471456692913387
0
LINE
8
BLACK
6
CONTINUOUS
10
1.5964566929133859
20
1.1471456692913387
11
1.6082677165354331
21
1.1471456692913387
0
LINE
8
BLACK
6
CONTINUOUS
10
1.6082677165354331
20
1.1471456692913387
11
1.6105276771653543
21
1.1466961417322834
0
LINE
8
BLACK
6
CONTINUOUS
10
1.1988188976377951
20
1.3740157480314961
11
1.1673228346456692
21
1.3740157480314961
0
LINE
8
BLACK
6
CONTINUOUS
10
1.1673228346456692
20
1.3740157480314961
11
1.1673228346456692
21
1.405511811023622
0
LINE
8
BLACK
6
CONTINUOUS
10
1.1673228346456692
20
1.405511811023622
11
1.1988188976377951
21
1.405511811023622
0
LINE
8
BLACK
6
CONTINUOUS
10
1.1988188976377951
20
1.405511811023622
11
1.1988188976377951
21
1.3740157480314961
0
LINE
8
BLACK
6
CONTINUOUS
10
1.2322834645669292
20
1.3740157480314961
11
1.2165354330708662
21
1.3740157480314961
0
LINE
8
BLACK
6
CONTINUOUS
10
1.2165354330708662
20
1.3740157480314961
11
1.2165354330708662
21
1.405511811023622
0
LINE
8
BLACK
6
CONTINUOUS
10
1.2165354330708662
20
1.405511811023622
11
1.2322834645669292
21
1.405511811023622
0
LINE
8
BLACK
6
CONTINUOUS
10
1.2322834645669292
20
1.405511811023622
11
1.2322834645669292
21
1.3740157480314961
0
LINE
8
BLACK
6
CONTINUOUS
10
1.265748031496063
20
1.3740157480314961
11
1.25
21
1.3740157480314961
0
LINE
8
BLACK
6
CONTINUOUS
10
1.25
20
1.3740157480314961
11
1.25
21
1.405511811023622
0
LINE
8
BLACK
6
CONTINUOUS
10
1.25
20
1.405511811023622
11
1.265748031496063
21
1.405511811023622
0
LINE
8
BLACK
6
CONTINUOUS
10
1.265748031496063
20
1.405511811023622
11
1.265748031496063
21
1.3740157480314961
0
LINE
8
BLACK
6
CONTINUOUS
10
1.2992125984251968
20
1.3740157480314961
11
1.2834645669291338
21
1.3740157480314961
0
LINE
8
BLACK
6
CONTINUOUS
10
1.2834645669291338
20
1.3740157480314961
11
1.2834645669291338
21
1.405511811023622
0
LINE
8
BLACK
6
CONTINUOUS
10
1.2834645669291338
20
1.405511811023622
11
1.2992125984251968
21
1.405511811023622
0
LINE
8
BLACK
6
CONTINUOUS
10
1.2992125984251968
20
1.405511811023622
11
1.2992125984251968
21
1.3740157480314961
0
LINE
8
BLACK
6
CONTINUOUS
10
1.332677125984252
20
1.3740157480314961
11
1.3169290944881888
21
1.3740157480314961
0
LINE
8
BLACK
6
CONTINUOUS
10
1.3169290944881888
20
1.3740157480314961
11
1.3169290944881888
21
1.405511811023622
0
LINE
8
BLACK
6
CONTINUOUS
10
1.3169290944881888
20
1.405511811023622
11
1.332677125984252
21
1.405511811023622
0
LINE
8
BLACK
6
CONTINUOUS
10
1.332677125984252
20
1.405511811023622
11
1.332677125984252
21
1.3740157480314961
0
LINE
8
BLACK
6
CONTINUOUS
10
1.3661417322834646
20
1.3740157480314961
11
1.3503937007874016
21
1.3740157480314961
0
LINE
8
BLACK
6
CONTINUOUS
10
1.3503937007874016
20
1.3740157480314961
11
1.3503937007874016
21
1.405511811023622
0
LINE
8
BLACK
6
CONTINUOUS
10
1.3503937007874016
20
1.405511811023622
11
1.3661417322834646
21
1.405511811023622
0
LINE
8
BLACK
6
CONTINUOUS
10
1.3661417322834646
20
1.405511811023622
11
1.3661417322834646
21
1.3740157480314961
0
LINE
8
BLACK
6
CONTINUOUS
10
1.3996062992125984
20
1.3740157480314961
11
1.3838582677165354
21
1.3740157480314961
0
LINE
8
BLACK
6
CONTINUOUS
10
1.3838582677165354
20
1.3740157480314961
11
1.3838582677165354
21
1.405511811023622
0
LINE
8
BLACK
6
CONTINUOUS
10
1.3838582677165354
20
1.405511811023622
11
1.3996062992125984
21
1.405511811023622
0
LINE
8
BLACK
6
CONTINUOUS
10
1.3996062992125984
20
1.405511811023622
11
1.3996062992125984
21
1.3740157480314961
0
LINE
8
BLACK
6
CONTINUOUS
10
1.4330708661417322
20
1.3740157480314961
11
1.4173228346456692
21
1.3740157480314961
0
LINE
8
BLACK
6
CONTINUOUS
10
1.4173228346456692
20
1.3740157480314961
11
1.4173228346456692
21
1.405511811023622
0
LINE
8
BLACK
6
CONTINUOUS
10
1.4173228346456692
20
1.405511811023622
11
1.4330708661417322
21
1.405511811023622
0
LINE
8
BLACK
6
CONTINUOUS
10
1.4330708661417322
20
1.405511811023622
11
1.4330708661417322
21
1.3740157480314961
0
LINE
8
BLACK
6
CONTINUOUS
10
1.5
20
1.3740157480314961
11
1.484251968503937
21
1.3740157480314961
0
LINE
8
BLACK
6
CONTINUOUS
10
1.484251968503937
20
1.3740157480314961
11
1.484251968503937
21
1.405511811023622
0
LINE
8
BLACK
6
CONTINUOUS
10
1.484251968503937
20
1.405511811023622
11
1.5
21
1.405511811023622
0
LINE
8
BLACK
6
CONTINUOUS
10
1.5
20
1.405511811023622
11
1.5
21
1.3740157480314961
0
LINE
8
BLACK
6
CONTINUOUS
10
1.5334645669291338
20
1.3740157480314961
11
1.5177165354330708
21
1.3740157480314961
0
LINE
8
BLACK
6
CONTINUOUS
10
1.5177165354330708
20
1.3740157480314961
11
1.5177165354330708
21
1.405511811023622
0
LINE
8
BLACK
6
CONTINUOUS
10
1.5177165354330708
20
1.405511811023622
11
1.5334645669291338
21
1.405511811023622
0
LINE
8
BLACK
6
CONTINUOUS
10
1.5334645669291338
20
1.405511811023622
11
1.5334645669291338
21
1.3740157480314961
0
LINE
8
BLACK
6
CONTINUOUS
10
1.5669291338582676
20
1.3740157480314961
11
1.5511811023622046
21
1.3740157480314961
0
LINE
8
BLACK
6
CONTINUOUS
10
1.5511811023622046
20
1.3740157480314961
11
1.5511811023622046
21
1.405511811023622
0
LINE
8
BLACK
6
CONTINUOUS
10
1.5511811023622046
20
1.405511811023622
11
1.5669291338582676
21
1.405511811023622
0
LINE
8
BLACK
6
CONTINUOUS
10
1.5669291338582676
20
1.405511811023622
11
1.5669291338582676
21
1.3740157480314961
0
LINE
8
BLACK
6
CONTINUOUS
10
1.6003937401574804
20
1.3740157480314961
11
1.5846457086614172
21
1.3740157480314961
0
LINE
8
BLACK
6
CONTINUOUS
10
1.5846457086614172
20
1.3740157480314961
11
1.5846457086614172
21
1.405511811023622
0
LINE
8
BLACK
6
CONTINUOUS
10
1.5846457086614172
20
1.405511811023622
11
1.6003937401574804
21
1.405511811023622
0
LINE
8
BLACK
6
CONTINUOUS
10
1.6003937401574804
20
1.405511811023622
11
1.6003937401574804
21
1.3740157480314961
0
LINE
8
BLACK
6
CONTINUOUS
10
1.6338582677165354
20
1.3740157480314961
11
1.6181102362204725
21
1.3740157480314961
0
LINE
8
BLACK
6
CONTINUOUS
10
1.6181102362204725
20
1.3740157480314961
11
1.6181102362204725
21
1.405511811023622
0
LINE
8
BLACK
6
CONTINUOUS
10
1.6181102362204725
20
1.405511811023622
11
1.6338582677165354
21
1.405511811023622
0
LINE
8
BLACK
6
CONTINUOUS
10
1.6338582677165354
20
1.405511811023622
11
1.6338582677165354
21
1.3740157480314961
0
LINE
8
BLACK
6
CONTINUOUS
10
1.6673228346456692
20
1.3740157480314961
11
1.6515748031496063
21
1.3740157480314961
0
LINE
8
BLACK
6
CONTINUOUS
10
1.6515748031496063
20
1.3740157480314961
11
1.6515748031496063
21
1.405511811023622
0
LINE
8
BLACK
6
CONTINUOUS
10
1.6515748031496063
20
1.405511811023622
11
1.6673228346456692
21
1.405511811023622
0
LINE
8
BLACK
6
CONTINUOUS
10
1.6673228346456692
20
1.405511811023622
11
1.6673228346456692
21
1.3740157480314961
0
LINE
8
BLACK
6
CONTINUOUS
10
1.700787401574803
20
1.3740157480314961
11
1.6850393700787401
21
1.3740157480314961
0
LINE
8
BLACK
6
CONTINUOUS
10
1.6850393700787401
20
1.3740157480314961
11
1.6850393700787401
21
1.405511811023622
0
LINE
8
BLACK
6
CONTINUOUS
10
1.6850393700787401
20
1.405511811023622
11
1.700787401574803
21
1.405511811023622
0
LINE
8
BLACK
6
CONTINUOUS
10
1.700787401574803
20
1.405511811023622
11
1.700787401574803
21
1.3740157480314961
0
LINE
8
BLACK
6
CONTINUOUS
10
1.75
20
1.3740157480314961
11
1.7185039370078741
21
1.3740157480314961
0
LINE
8
BLACK
6
CONTINUOUS
10
1.7185039370078741
20
1.3740157480314961
11
1.7185039370078741
21
1.405511811023622
0
LINE
8
BLACK
6
CONTINUOUS
10
1.7185039370078741
20
1.405511811023622
11
1.75
21
1.405511811023622
0
LINE
8
BLACK
6
CONTINUOUS
10
1.75
20
1.405511811023622
11
1.75
21
1.3740157480314961
0
LINE
8
BLACK
6
CONTINUOUS
10
1.4665354330708662
20
1.3740157874015748
11
1.450787401574803
21
1.3740157874015748
0
LINE
8
BLACK
6
CONTINUOUS
10
1.450787401574803
20
1.3740157874015748
11
1.450787401574803
21
1.4055118503937007
0
LINE
8
BLACK
6
CONTINUOUS
10
1.450787401574803
20
1.4055118503937007
11
1.4665354330708662
21
1.4055118503937007
0
LINE
8
BLACK
6
CONTINUOUS
10
1.4665354330708662
20
1.4055118503937007
11
1.4665354330708662
21
1.3740157874015748
0
LINE
8
BLACK
6
CONTINUOUS
10
1.1988188976377951
20
1.4232283464566928
11
1.1673228346456692
21
1.4232283464566928
0
LINE
8
BLACK
6
CONTINUOUS
10
1.1673228346456692
20
1.4232283464566928
11
1.1673228346456692
21
1.4389763779527558
0
LINE
8
BLACK
6
CONTINUOUS
10
1.1673228346456692
20
1.4389763779527558
11
1.1988188976377951
21
1.4389763779527558
0
LINE
8
BLACK
6
CONTINUOUS
10
1.1988188976377951
20
1.4389763779527558
11
1.1988188976377951
21
1.4232283464566928
0
LINE
8
BLACK
6
CONTINUOUS
10
1.75
20
1.4232283464566928
11
1.7185039370078741
21
1.4232283464566928
0
LINE
8
BLACK
6
CONTINUOUS
10
1.7185039370078741
20
1.4232283464566928
11
1.7185039370078741
21
1.4389763779527558
0
LINE
8
BLACK
6
CONTINUOUS
10
1.7185039370078741
20
1.4389763779527558
11
1.75
21
1.4389763779527558
0
LINE
8
BLACK
6
CONTINUOUS
10
1.75
20
1.4389763779527558
11
1.75
21
1.4232283464566928
0
LINE
8
BLACK
6
CONTINUOUS
10
1.1988188976377951
20
1.4566929133858268
11
1.1673228346456692
21
1.4566929133858268
0
LINE
8
BLACK
6
CONTINUOUS
10
1.1673228346456692
20
1.4566929133858268
11
1.1673228346456692
21
1.4724409448818898
0
LINE
8
BLACK
6
CONTINUOUS
10
1.1673228346456692
20
1.4724409448818898
11
1.1988188976377951
21
1.4724409448818898
0
LINE
8
BLACK
6
CONTINUOUS
10
1.1988188976377951
20
1.4724409448818898
11
1.1988188976377951
21
1.4566929133858268
0
LINE
8
BLACK
6
CONTINUOUS
10
1.75
20
1.4566929133858268
11
1.7185039370078741
21
1.4566929133858268
0
LINE
8
BLACK
6
CONTINUOUS
10
1.7185039370078741
20
1.4566929133858268
11
1.7185039370078741
21
1.4724409448818898
0
LINE
8
BLACK
6
CONTINUOUS
10
1.7185039370078741
20
1.4724409448818898
11
1.75
21
1.4724409448818898
0
LINE
8
BLACK
6
CONTINUOUS
10
1.75
20
1.4724409448818898
11
1.75
21
1.4566929133858268
0
LINE
8
BLACK
6
CONTINUOUS
10
1.1988188976377951
20
1.4901574803149606
11
1.1673228346456692
21
1.4901574803149606
0
LINE
8
BLACK
6
CONTINUOUS
10
1.1673228346456692
20
1.4901574803149606
11
1.1673228346456692
21
1.5059055118110236
0
LINE
8
BLACK
6
CONTINUOUS
10
1.1673228346456692
20
1.5059055118110236
11
1.1988188976377951
21
1.5059055118110236
0
LINE
8
BLACK
6
CONTINUOUS
10
1.1988188976377951
20
1.5059055118110236
11
1.1988188976377951
21
1.4901574803149606
0
LINE
8
BLACK
6
CONTINUOUS
10
1.75
20
1.4901574803149606
11
1.7185039370078741
21
1.4901574803149606
0
LINE
8
BLACK
6
CONTINUOUS
10
1.7185039370078741
20
1.4901574803149606
11
1.7185039370078741
21
1.5059055118110236
0
LINE
8
BLACK
6
CONTINUOUS
10
1.7185039370078741
20
1.5059055118110236
11
1.75
21
1.5059055118110236
0
LINE
8
BLACK
6
CONTINUOUS
10
1.75
20
1.5059055118110236
11
1.75
21
1.4901574803149606
0
LINE
8
BLACK
6
CONTINUOUS
10
1.1988188976377951
20
1.5236220078740157
11
1.1673228346456692
21
1.5236220078740157
0
LINE
8
BLACK
6
CONTINUOUS
10
1.1673228346456692
20
1.5236220078740157
11
1.1673228346456692
21
1.5393700393700787
0
LINE
8
BLACK
6
CONTINUOUS
10
1.1673228346456692
20
1.5393700393700787
11
1.1988188976377951
21
1.5393700393700787
0
LINE
8
BLACK
6
CONTINUOUS
10
1.1988188976377951
20
1.5393700393700787
11
1.1988188976377951
21
1.5236220078740157
0
LINE
8
BLACK
6
CONTINUOUS
10
1.75
20
1.5236220078740157
11
1.7185039370078741
21
1.5236220078740157
0
LINE
8
BLACK
6
CONTINUOUS
10
1.7185039370078741
20
1.5236220078740157
11
1.7185039370078741
21
1.5393700393700787
0
LINE
8
BLACK
6
CONTINUOUS
10
1.7185039370078741
20
1.5393700393700787
11
1.75
21
1.5393700393700787
0
LINE
8
BLACK
6
CONTINUOUS
10
1.75
20
1.5393700393700787
11
1.75
21
1.5236220078740157
0
LINE
8
BLACK
6
CONTINUOUS
10
-1.2476113779527558
20
1.6010224409448819
11
-1.2444182283464567
21
1.5988888582677165
0
LINE
8
BLACK
6
CONTINUOUS
10
-1.2444182283464567
20
1.5988888582677165
11
-1.2422846456692913
21
1.5956957086614172
0
LINE
8
BLACK
6
CONTINUOUS
10
-1.2422846456692913
20
1.5956957086614172
11
-1.2415354330708661
21
1.5919291338582677
0
LINE
8
BLACK
6
CONTINUOUS
10
-1.2415354330708661
20
1.5919291338582677
11
-1.2415354330708661
21
1.554527559055118
0
LINE
8
BLACK
6
CONTINUOUS
10
-1.2415354330708661
20
1.554527559055118
11
-1.2422846456692913
21
1.5507609842519685
0
LINE
8
BLACK
6
CONTINUOUS
10
-1.2422846456692913
20
1.5507609842519685
11
-1.2444182283464567
21
1.5475678346456692
0
LINE
8
BLACK
6
CONTINUOUS
10
-1.2444182283464567
20
1.5475678346456692
11
-1.2476113779527558
21
1.5454342519685038
0
LINE
8
BLACK
6
CONTINUOUS
10
-1.2476113779527558
20
1.5454342519685038
11
-1.2513779527559055
21
1.5446850393700786
0
LINE
8
BLACK
6
CONTINUOUS
10
-1.2513779527559055
20
1.5446850393700786
11
-1.2710629921259842
21
1.5446850393700786
0
LINE
8
BLACK
6
CONTINUOUS
10
-1.2710629921259842
20
1.5446850393700786
11
-1.2748295669291339
21
1.5454342519685038
0
LINE
8
BLACK
6
CONTINUOUS
10
-1.2748295669291339
20
1.5454342519685038
11
-1.278022716535433
21
1.5475678346456692
0
LINE
8
BLACK
6
CONTINUOUS
10
-1.278022716535433
20
1.5475678346456692
11
-1.2801562992125983
21
1.5507609842519685
0
LINE
8
BLACK
6
CONTINUOUS
10
-1.2801562992125983
20
1.5507609842519685
11
-1.2809055118110235
21
1.554527559055118
0
LINE
8
BLACK
6
CONTINUOUS
10
-1.2809055118110235
20
1.554527559055118
11
-1.2809055118110235
21
1.5919291338582677
0
LINE
8
BLACK
6
CONTINUOUS
10
-1.2809055118110235
20
1.5919291338582677
11
-1.2801562992125983
21
1.5956957086614172
0
LINE
8
BLACK
6
CONTINUOUS
10
-1.2801562992125983
20
1.5956957086614172
11
-1.278022716535433
21
1.5988888582677165
0
LINE
8
BLACK
6
CONTINUOUS
10
-1.278022716535433
20
1.5988888582677165
11
-1.2748295669291339
21
1.6010224409448819
0
LINE
8
BLACK
6
CONTINUOUS
10
-1.2748295669291339
20
1.6010224409448819
11
-1.2710629921259842
21
1.6017716535433071
0
LINE
8
BLACK
6
CONTINUOUS
10
-1.2710629921259842
20
1.6017716535433071
11
-1.2513779527559055
21
1.6017716535433071
0
LINE
8
BLACK
6
CONTINUOUS
10
-1.2513779527559055
20
1.6017716535433071
11
-1.2476113779527558
21
1.6010224409448819
0
LINE
8
BLACK
6
CONTINUOUS
10
-1.1728083070866142
20
1.6010224409448819
11
-1.1696151574803149
21
1.5988888582677165
0
LINE
8
BLACK
6
CONTINUOUS
10
-1.1696151574803149
20
1.5988888582677165
11
-1.1674815748031495
21
1.5956957086614172
0
LINE
8
BLACK
6
CONTINUOUS
10
-1.1674815748031495
20
1.5956957086614172
11
-1.1667323622047243
21
1.5919291338582677
0
LINE
8
BLACK
6
CONTINUOUS
10
-1.1667323622047243
20
1.5919291338582677
11
-1.1667323622047243
21
1.554527559055118
0
LINE
8
BLACK
6
CONTINUOUS
10
-1.1667323622047243
20
1.554527559055118
11
-1.1674815748031495
21
1.5507609842519685
0
LINE
8
BLACK
6
CONTINUOUS
10
-1.1674815748031495
20
1.5507609842519685
11
-1.1696151574803149
21
1.5475678346456692
0
LINE
8
BLACK
6
CONTINUOUS
10
-1.1696151574803149
20
1.5475678346456692
11
-1.1728083070866142
21
1.5454342519685038
0
LINE
8
BLACK
6
CONTINUOUS
10
-1.1728083070866142
20
1.5454342519685038
11
-1.1765748818897637
21
1.5446850393700786
0
LINE
8
BLACK
6
CONTINUOUS
10
-1.1765748818897637
20
1.5446850393700786
11
-1.1962599212598426
21
1.5446850393700786
0
LINE
8
BLACK
6
CONTINUOUS
10
-1.1962599212598426
20
1.5446850393700786
11
-1.2000264960629921
21
1.5454342519685038
0
LINE
8
BLACK
6
CONTINUOUS
10
-1.2000264960629921
20
1.5454342519685038
11
-1.2032196456692914
21
1.5475678346456692
0
LINE
8
BLACK
6
CONTINUOUS
10
-1.2032196456692914
20
1.5475678346456692
11
-1.2053532283464568
21
1.5507609842519685
0
LINE
8
BLACK
6
CONTINUOUS
10
-1.2053532283464568
20
1.5507609842519685
11
-1.2061024409448819
21
1.554527559055118
0
LINE
8
BLACK
6
CONTINUOUS
10
-1.2061024409448819
20
1.554527559055118
11
-1.2061024409448819
21
1.5919291338582677
0
LINE
8
BLACK
6
CONTINUOUS
10
-1.2061024409448819
20
1.5919291338582677
11
-1.2053532283464568
21
1.5956957086614172
0
LINE
8
BLACK
6
CONTINUOUS
10
-1.2053532283464568
20
1.5956957086614172
11
-1.2032196456692914
21
1.5988888582677165
0
LINE
8
BLACK
6
CONTINUOUS
10
-1.2032196456692914
20
1.5988888582677165
11
-1.2000264960629921
21
1.6010224409448819
0
LINE
8
BLACK
6
CONTINUOUS
10
-1.2000264960629921
20
1.6010224409448819
11
-1.1962599212598426
21
1.6017716535433071
0
LINE
8
BLACK
6
CONTINUOUS
10
-1.1962599212598426
20
1.6017716535433071
11
-1.1765748818897637
21
1.6017716535433071
0
LINE
8
BLACK
6
CONTINUOUS
10
-1.1765748818897637
20
1.6017716535433071
11
-1.1728083070866142
21
1.6010224409448819
0
LINE
8
BLACK
6
CONTINUOUS
10
1.1988188976377951
20
1.5570866141732282
11
1.1673228346456692
21
1.5570866141732282
0
LINE
8
BLACK
6
CONTINUOUS
10
1.1673228346456692
20
1.5570866141732282
11
1.1673228346456692
21
1.5728346456692912
0
LINE
8
BLACK
6
CONTINUOUS
10
1.1673228346456692
20
1.5728346456692912
11
1.1988188976377951
21
1.5728346456692912
0
LINE
8
BLACK
6
CONTINUOUS
10
1.1988188976377951
20
1.5728346456692912
11
1.1988188976377951
21
1.5570866141732282
0
LINE
8
BLACK
6
CONTINUOUS
10
1.75
20
1.5570866141732282
11
1.7185039370078741
21
1.5570866141732282
0
LINE
8
BLACK
6
CONTINUOUS
10
1.7185039370078741
20
1.5570866141732282
11
1.7185039370078741
21
1.5728346456692912
0
LINE
8
BLACK
6
CONTINUOUS
10
1.7185039370078741
20
1.5728346456692912
11
1.75
21
1.5728346456692912
0
LINE
8
BLACK
6
CONTINUOUS
10
1.75
20
1.5728346456692912
11
1.75
21
1.5570866141732282
0
LINE
8
BLACK
6
CONTINUOUS
10
1.4173228346456692
20
1.576771653543307
11
1.3700787401574803
21
1.576771653543307
0
LINE
8
BLACK
6
CONTINUOUS
10
1.3700787401574803
20
1.576771653543307
11
1.3700787401574803
21
1.6240157480314961
0
LINE
8
BLACK
6
CONTINUOUS
10
1.3700787401574803
20
1.6240157480314961
11
1.4173228346456692
21
1.6240157480314961
0
LINE
8
BLACK
6
CONTINUOUS
10
1.4173228346456692
20
1.6240157480314961
11
1.4173228346456692
21
1.576771653543307
0
LINE
8
BLACK
6
CONTINUOUS
10
1.4822834645669292
20
1.576771653543307
11
1.4350393700787401
21
1.576771653543307
0
LINE
8
BLACK
6
CONTINUOUS
10
1.4350393700787401
20
1.576771653543307
11
1.4350393700787401
21
1.6240157480314961
0
LINE
8
BLACK
6
CONTINUOUS
10
1.4350393700787401
20
1.6240157480314961
11
1.4822834645669292
21
1.6240157480314961
0
LINE
8
BLACK
6
CONTINUOUS
10
1.4822834645669292
20
1.6240157480314961
11
1.4822834645669292
21
1.576771653543307
0
LINE
8
BLACK
6
CONTINUOUS
10
1.5472440944881889
20
1.576771653543307
11
1.5
21
1.576771653543307
0
LINE
8
BLACK
6
CONTINUOUS
10
1.5
20
1.576771653543307
11
1.5
21
1.6240157480314961
0
LINE
8
BLACK
6
CONTINUOUS
10
1.5
20
1.6240157480314961
11
1.5472440944881889
21
1.6240157480314961
0
LINE
8
BLACK
6
CONTINUOUS
10
1.5472440944881889
20
1.6240157480314961
11
1.5472440944881889
21
1.576771653543307
0
LINE
8
BLACK
6
CONTINUOUS
10
1.1988188976377951
20
1.5905511811023623
11
1.1673228346456692
21
1.5905511811023623
0
LINE
8
BLACK
6
CONTINUOUS
10
1.1673228346456692
20
1.5905511811023623
11
1.1673228346456692
21
1.6062992125984252
0
LINE
8
BLACK
6
CONTINUOUS
10
1.1673228346456692
20
1.6062992125984252
11
1.1988188976377951
21
1.6062992125984252
0
LINE
8
BLACK
6
CONTINUOUS
10
1.1988188976377951
20
1.6062992125984252
11
1.1988188976377951
21
1.5905511811023623
0
LINE
8
BLACK
6
CONTINUOUS
10
1.75
20
1.5905511811023623
11
1.7185039370078741
21
1.5905511811023623
0
LINE
8
BLACK
6
CONTINUOUS
10
1.7185039370078741
20
1.5905511811023623
11
1.7185039370078741
21
1.6062992125984252
0
LINE
8
BLACK
6
CONTINUOUS
10
1.7185039370078741
20
1.6062992125984252
11
1.75
21
1.6062992125984252
0
LINE
8
BLACK
6
CONTINUOUS
10
1.75
20
1.6062992125984252
11
1.75
21
1.5905511811023623
0
LINE
8
BLACK
6
CONTINUOUS
10
1.1988188976377951
20
1.6240157480314961
11
1.1673228346456692
21
1.6240157480314961
0
LINE
8
BLACK
6
CONTINUOUS
10
1.1673228346456692
20
1.6240157480314961
11
1.1673228346456692
21
1.639763779527559
0
LINE
8
BLACK
6
CONTINUOUS
10
1.1673228346456692
20
1.639763779527559
11
1.1988188976377951
21
1.639763779527559
0
LINE
8
BLACK
6
CONTINUOUS
10
1.1988188976377951
20
1.639763779527559
11
1.1988188976377951
21
1.6240157480314961
0
LINE
8
BLACK
6
CONTINUOUS
10
1.75
20
1.6240157480314961
11
1.7185039370078741
21
1.6240157480314961
0
LINE
8
BLACK
6
CONTINUOUS
10
1.7185039370078741
20
1.6240157480314961
11
1.7185039370078741
21
1.639763779527559
0
LINE
8
BLACK
6
CONTINUOUS
10
1.7185039370078741
20
1.639763779527559
11
1.75
21
1.639763779527559
0
LINE
8
BLACK
6
CONTINUOUS
10
1.75
20
1.639763779527559
11
1.75
21
1.6240157480314961
0
LINE
8
BLACK
6
CONTINUOUS
10
1.4173228346456692
20
1.6417322834645669
11
1.3700787401574803
21
1.6417322834645669
0
LINE
8
BLACK
6
CONTINUOUS
10
1.3700787401574803
20
1.6417322834645669
11
1.3700787401574803
21
1.6889763779527558
0
LINE
8
BLACK
6
CONTINUOUS
10
1.3700787401574803
20
1.6889763779527558
11
1.4173228346456692
21
1.6889763779527558
0
LINE
8
BLACK
6
CONTINUOUS
10
1.4173228346456692
20
1.6889763779527558
11
1.4173228346456692
21
1.6417322834645669
0
LINE
8
BLACK
6
CONTINUOUS
10
1.4822834645669292
20
1.6417322834645669
11
1.4350393700787401
21
1.6417322834645669
0
LINE
8
BLACK
6
CONTINUOUS
10
1.4350393700787401
20
1.6417322834645669
11
1.4350393700787401
21
1.6889763779527558
0
LINE
8
BLACK
6
CONTINUOUS
10
1.4350393700787401
20
1.6889763779527558
11
1.4822834645669292
21
1.6889763779527558
0
LINE
8
BLACK
6
CONTINUOUS
10
1.4822834645669292
20
1.6889763779527558
11
1.4822834645669292
21
1.6417322834645669
0
LINE
8
BLACK
6
CONTINUOUS
10
1.5472440944881889
20
1.6417322834645669
11
1.5
21
1.6417322834645669
0
LINE
8
BLACK
6
CONTINUOUS
10
1.5
20
1.6417322834645669
11
1.5
21
1.6889763779527558
0
LINE
8
BLACK
6
CONTINUOUS
10
1.5
20
1.6889763779527558
11
1.5472440944881889
21
1.6889763779527558
0
LINE
8
BLACK
6
CONTINUOUS
10
1.5472440944881889
20
1.6889763779527558
11
1.5472440944881889
21
1.6417322834645669
0
LINE
8
BLACK
6
CONTINUOUS
10
1.1988189370078739
20
1.6574803149606299
11
1.167322874015748
21
1.6574803149606299
0
LINE
8
BLACK
6
CONTINUOUS
10
1.167322874015748
20
1.6574803149606299
11
1.167322874015748
21
1.6732283464566928
0
LINE
8
BLACK
6
CONTINUOUS
10
1.167322874015748
20
1.6732283464566928
11
1.1988189370078739
21
1.6732283464566928
0
LINE
8
BLACK
6
CONTINUOUS
10
1.1988189370078739
20
1.6732283464566928
11
1.1988189370078739
21
1.6574803149606299
0
LINE
8
BLACK
6
CONTINUOUS
10
1.7499999606299212
20
1.6574803149606299
11
1.7185038976377953
21
1.6574803149606299
0
LINE
8
BLACK
6
CONTINUOUS
10
1.7185038976377953
20
1.6574803149606299
11
1.7185038976377953
21
1.6732283464566928
0
LINE
8
BLACK
6
CONTINUOUS
10
1.7185038976377953
20
1.6732283464566928
11
1.7499999606299212
21
1.6732283464566928
0
LINE
8
BLACK
6
CONTINUOUS
10
1.7499999606299212
20
1.6732283464566928
11
1.7499999606299212
21
1.6574803149606299
0
LINE
8
BLACK
6
CONTINUOUS
10
1.1988188976377951
20
1.6909448818897637
11
1.1673228346456692
21
1.6909448818897637
0
LINE
8
BLACK
6
CONTINUOUS
10
1.1673228346456692
20
1.6909448818897637
11
1.1673228346456692
21
1.7066929133858266
0
LINE
8
BLACK
6
CONTINUOUS
10
1.1673228346456692
20
1.7066929133858266
11
1.1988188976377951
21
1.7066929133858266
0
LINE
8
BLACK
6
CONTINUOUS
10
1.1988188976377951
20
1.7066929133858266
11
1.1988188976377951
21
1.6909448818897637
0
LINE
8
BLACK
6
CONTINUOUS
10
1.75
20
1.6909448818897637
11
1.7185039370078741
21
1.6909448818897637
0
LINE
8
BLACK
6
CONTINUOUS
10
1.7185039370078741
20
1.6909448818897637
11
1.7185039370078741
21
1.7066929133858266
0
LINE
8
BLACK
6
CONTINUOUS
10
1.7185039370078741
20
1.7066929133858266
11
1.75
21
1.7066929133858266
0
LINE
8
BLACK
6
CONTINUOUS
10
1.75
20
1.7066929133858266
11
1.75
21
1.6909448818897637
0
LINE
8
BLACK
6
CONTINUOUS
10
1.4173228346456692
20
1.7066929133858266
11
1.3700787401574803
21
1.7066929133858266
0
LINE
8
BLACK
6
CONTINUOUS
10
1.3700787401574803
20
1.7066929133858266
11
1.3700787401574803
21
1.7539370078740157
0
LINE
8
BLACK
6
CONTINUOUS
10
1.3700787401574803
20
1.7539370078740157
11
1.4173228346456692
21
1.7539370078740157
0
LINE
8
BLACK
6
CONTINUOUS
10
1.4173228346456692
20
1.7539370078740157
11
1.4173228346456692
21
1.7066929133858266
0
LINE
8
BLACK
6
CONTINUOUS
10
1.4822834645669292
20
1.7066929133858266
11
1.4350393700787401
21
1.7066929133858266
0
LINE
8
BLACK
6
CONTINUOUS
10
1.4350393700787401
20
1.7066929133858266
11
1.4350393700787401
21
1.7539370078740157
0
LINE
8
BLACK
6
CONTINUOUS
10
1.4350393700787401
20
1.7539370078740157
11
1.4822834645669292
21
1.7539370078740157
0
LINE
8
BLACK
6
CONTINUOUS
10
1.4822834645669292
20
1.7539370078740157
11
1.4822834645669292
21
1.7066929133858266
0
LINE
8
BLACK
6
CONTINUOUS
10
1.5472440944881889
20
1.7303149606299213
11
1.5472440944881889
21
1.7066929133858266
0
LINE
8
BLACK
6
CONTINUOUS
10
1.5472440944881889
20
1.7066929133858266
11
1.5
21
1.7066929133858266
0
LINE
8
BLACK
6
CONTINUOUS
10
1.5
20
1.7066929133858266
11
1.5
21
1.7539370078740157
0
LINE
8
BLACK
6
CONTINUOUS
10
1.5
20
1.7539370078740157
11
1.5236220472440944
21
1.7539370078740157
0
LINE
8
BLACK
6
CONTINUOUS
10
1.5236220472440944
20
1.7539370078740157
11
1.5472440944881889
21
1.7303149606299213
0
LINE
8
BLACK
6
CONTINUOUS
10
1.1988188976377951
20
1.7244094488188977
11
1.1673228346456692
21
1.7244094488188977
0
LINE
8
BLACK
6
CONTINUOUS
10
1.1673228346456692
20
1.7244094488188977
11
1.1673228346456692
21
1.7401574803149606
0
LINE
8
BLACK
6
CONTINUOUS
10
1.1673228346456692
20
1.7401574803149606
11
1.1988188976377951
21
1.7401574803149606
0
LINE
8
BLACK
6
CONTINUOUS
10
1.1988188976377951
20
1.7401574803149606
11
1.1988188976377951
21
1.7244094488188977
0
LINE
8
BLACK
6
CONTINUOUS
10
1.75
20
1.7244094488188977
11
1.7185039370078741
21
1.7244094488188977
0
LINE
8
BLACK
6
CONTINUOUS
10
1.7185039370078741
20
1.7244094488188977
11
1.7185039370078741
21
1.7401574803149606
0
LINE
8
BLACK
6
CONTINUOUS
10
1.7185039370078741
20
1.7401574803149606
11
1.75
21
1.7401574803149606
0
LINE
8
BLACK
6
CONTINUOUS
10
1.75
20
1.7401574803149606
11
1.75
21
1.7244094488188977
0
LINE
8
BLACK
6
CONTINUOUS
10
1.1988188976377951
20
1.7578740157480315
11
1.1673228346456692
21
1.7578740157480315
0
LINE
8
BLACK
6
CONTINUOUS
10
1.1673228346456692
20
1.7578740157480315
11
1.1673228346456692
21
1.7736220472440944
0
LINE
8
BLACK
6
CONTINUOUS
10
1.1673228346456692
20
1.7736220472440944
11
1.1988188976377951
21
1.7736220472440944
0
LINE
8
BLACK
6
CONTINUOUS
10
1.1988188976377951
20
1.7736220472440944
11
1.1988188976377951
21
1.7578740157480315
0
LINE
8
BLACK
6
CONTINUOUS
10
1.75
20
1.7578740157480315
11
1.7185039370078741
21
1.7578740157480315
0
LINE
8
BLACK
6
CONTINUOUS
10
1.7185039370078741
20
1.7578740157480315
11
1.7185039370078741
21
1.7736220472440944
0
LINE
8
BLACK
6
CONTINUOUS
10
1.7185039370078741
20
1.7736220472440944
11
1.75
21
1.7736220472440944
0
LINE
8
BLACK
6
CONTINUOUS
10
1.75
20
1.7736220472440944
11
1.75
21
1.7578740157480315
0
LINE
8
BLACK
6
CONTINUOUS
10
1.1988188976377951
20
1.791338622047244
11
1.1673228346456692
21
1.791338622047244
0
LINE
8
BLACK
6
CONTINUOUS
10
1.1673228346456692
20
1.791338622047244
11
1.1673228346456692
21
1.807086653543307
0
LINE
8
BLACK
6
CONTINUOUS
10
1.1673228346456692
20
1.807086653543307
11
1.1988188976377951
21
1.807086653543307
0
LINE
8
BLACK
6
CONTINUOUS
10
1.1988188976377951
20
1.807086653543307
11
1.1988188976377951
21
1.791338622047244
0
LINE
8
BLACK
6
CONTINUOUS
10
1.75
20
1.791338622047244
11
1.7185039370078741
21
1.791338622047244
0
LINE
8
BLACK
6
CONTINUOUS
10
1.7185039370078741
20
1.791338622047244
11
1.7185039370078741
21
1.807086653543307
0
LINE
8
BLACK
6
CONTINUOUS
10
1.7185039370078741
20
1.807086653543307
11
1.75
21
1.807086653543307
0
LINE
8
BLACK
6
CONTINUOUS
10
1.75
20
1.807086653543307
11
1.75
21
1.791338622047244
0
LINE
8
BLACK
6
CONTINUOUS
10
1.1988188976377951
20
1.8248031496062991
11
1.1673228346456692
21
1.8248031496062991
0
LINE
8
BLACK
6
CONTINUOUS
10
1.1673228346456692
20
1.8248031496062991
11
1.1673228346456692
21
1.8405511811023623
0
LINE
8
BLACK
6
CONTINUOUS
10
1.1673228346456692
20
1.8405511811023623
11
1.1988188976377951
21
1.8405511811023623
0
LINE
8
BLACK
6
CONTINUOUS
10
1.1988188976377951
20
1.8405511811023623
11
1.1988188976377951
21
1.8248031496062991
0
LINE
8
BLACK
6
CONTINUOUS
10
1.75
20
1.8248031496062991
11
1.7185039370078741
21
1.8248031496062991
0
LINE
8
BLACK
6
CONTINUOUS
10
1.7185039370078741
20
1.8248031496062991
11
1.7185039370078741
21
1.8405511811023623
0
LINE
8
BLACK
6
CONTINUOUS
10
1.7185039370078741
20
1.8405511811023623
11
1.75
21
1.8405511811023623
0
LINE
8
BLACK
6
CONTINUOUS
10
1.75
20
1.8405511811023623
11
1.75
21
1.8248031496062991
0
LINE
8
BLACK
6
CONTINUOUS
10
1.1988188976377951
20
1.8582677165354331
11
1.1673228346456692
21
1.8582677165354331
0
LINE
8
BLACK
6
CONTINUOUS
10
1.1673228346456692
20
1.8582677165354331
11
1.1673228346456692
21
1.8740157480314961
0
LINE
8
BLACK
6
CONTINUOUS
10
1.1673228346456692
20
1.8740157480314961
11
1.1988188976377951
21
1.8740157480314961
0
LINE
8
BLACK
6
CONTINUOUS
10
1.1988188976377951
20
1.8740157480314961
11
1.1988188976377951
21
1.8582677165354331
0
LINE
8
BLACK
6
CONTINUOUS
10
1.75
20
1.8582677165354331
11
1.7185039370078741
21
1.8582677165354331
0
LINE
8
BLACK
6
CONTINUOUS
10
1.7185039370078741
20
1.8582677165354331
11
1.7185039370078741
21
1.8740157480314961
0
LINE
8
BLACK
6
CONTINUOUS
10
1.7185039370078741
20
1.8740157480314961
11
1.75
21
1.8740157480314961
0
LINE
8
BLACK
6
CONTINUOUS
10
1.75
20
1.8740157480314961
11
1.75
21
1.8582677165354331
0
LINE
8
BLACK
6
CONTINUOUS
10
1.1988188976377951
20
1.8917322834645669
11
1.1673228346456692
21
1.8917322834645669
0
LINE
8
BLACK
6
CONTINUOUS
10
1.1673228346456692
20
1.8917322834645669
11
1.1673228346456692
21
1.9074803149606299
0
LINE
8
BLACK
6
CONTINUOUS
10
1.1673228346456692
20
1.9074803149606299
11
1.1988188976377951
21
1.9074803149606299
0
LINE
8
BLACK
6
CONTINUOUS
10
1.1988188976377951
20
1.9074803149606299
11
1.1988188976377951
21
1.8917322834645669
0
LINE
8
BLACK
6
CONTINUOUS
10
1.75
20
1.8917322834645669
11
1.7185039370078741
21
1.8917322834645669
0
LINE
8
BLACK
6
CONTINUOUS
10
1.7185039370078741
20
1.8917322834645669
11
1.7185039370078741
21
1.9074803149606299
0
LINE
8
BLACK
6
CONTINUOUS
10
1.7185039370078741
20
1.9074803149606299
11
1.75
21
1.9074803149606299
0
LINE
8
BLACK
6
CONTINUOUS
10
1.75
20
1.9074803149606299
11
1.75
21
1.8917322834645669
0
LINE
8
BLACK
6
CONTINUOUS
10
1.4665354330708662
20
1.9251968110236219
11
1.450787401574803
21
1.9251968110236219
0
LINE
8
BLACK
6
CONTINUOUS
10
1.450787401574803
20
1.9251968110236219
11
1.450787401574803
21
1.9566928740157481
0
LINE
8
BLACK
6
CONTINUOUS
10
1.450787401574803
20
1.9566928740157481
11
1.4665354330708662
21
1.9566928740157481
0
LINE
8
BLACK
6
CONTINUOUS
10
1.4665354330708662
20
1.9566928740157481
11
1.4665354330708662
21
1.9251968110236219
0
LINE
8
BLACK
6
CONTINUOUS
10
1.1988188976377951
20
1.9251968503937007
11
1.1673228346456692
21
1.9251968503937007
0
LINE
8
BLACK
6
CONTINUOUS
10
1.1673228346456692
20
1.9251968503937007
11
1.1673228346456692
21
1.9566929133858266
0
LINE
8
BLACK
6
CONTINUOUS
10
1.1673228346456692
20
1.9566929133858266
11
1.1988188976377951
21
1.9566929133858266
0
LINE
8
BLACK
6
CONTINUOUS
10
1.1988188976377951
20
1.9566929133858266
11
1.1988188976377951
21
1.9251968503937007
0
LINE
8
BLACK
6
CONTINUOUS
10
1.2322834645669292
20
1.9251968503937007
11
1.2165354330708662
21
1.9251968503937007
0
LINE
8
BLACK
6
CONTINUOUS
10
1.2165354330708662
20
1.9251968503937007
11
1.2165354330708662
21
1.9566929133858266
0
LINE
8
BLACK
6
CONTINUOUS
10
1.2165354330708662
20
1.9566929133858266
11
1.2322834645669292
21
1.9566929133858266
0
LINE
8
BLACK
6
CONTINUOUS
10
1.2322834645669292
20
1.9566929133858266
11
1.2322834645669292
21
1.9251968503937007
0
LINE
8
BLACK
6
CONTINUOUS
10
1.265748031496063
20
1.9251968503937007
11
1.25
21
1.9251968503937007
0
LINE
8
BLACK
6
CONTINUOUS
10
1.25
20
1.9251968503937007
11
1.25
21
1.9566929133858266
0
LINE
8
BLACK
6
CONTINUOUS
10
1.25
20
1.9566929133858266
11
1.265748031496063
21
1.9566929133858266
0
LINE
8
BLACK
6
CONTINUOUS
10
1.265748031496063
20
1.9566929133858266
11
1.265748031496063
21
1.9251968503937007
0
LINE
8
BLACK
6
CONTINUOUS
10
1.2992125984251968
20
1.9251968503937007
11
1.2834645669291338
21
1.9251968503937007
0
LINE
8
BLACK
6
CONTINUOUS
10
1.2834645669291338
20
1.9251968503937007
11
1.2834645669291338
21
1.9566929133858266
0
LINE
8
BLACK
6
CONTINUOUS
10
1.2834645669291338
20
1.9566929133858266
11
1.2992125984251968
21
1.9566929133858266
0
LINE
8
BLACK
6
CONTINUOUS
10
1.2992125984251968
20
1.9566929133858266
11
1.2992125984251968
21
1.9251968503937007
0
LINE
8
BLACK
6
CONTINUOUS
10
1.332677125984252
20
1.9251968503937007
11
1.3169290944881888
21
1.9251968503937007
0
LINE
8
BLACK
6
CONTINUOUS
10
1.3169290944881888
20
1.9251968503937007
11
1.3169290944881888
21
1.9566929133858266
0
LINE
8
BLACK
6
CONTINUOUS
10
1.3169290944881888
20
1.9566929133858266
11
1.332677125984252
21
1.9566929133858266
0
LINE
8
BLACK
6
CONTINUOUS
10
1.332677125984252
20
1.9566929133858266
11
1.332677125984252
21
1.9251968503937007
0
LINE
8
BLACK
6
CONTINUOUS
10
1.3661417322834646
20
1.9251968503937007
11
1.3503937007874016
21
1.9251968503937007
0
LINE
8
BLACK
6
CONTINUOUS
10
1.3503937007874016
20
1.9251968503937007
11
1.3503937007874016
21
1.9566929133858266
0
LINE
8
BLACK
6
CONTINUOUS
10
1.3503937007874016
20
1.9566929133858266
11
1.3661417322834646
21
1.9566929133858266
0
LINE
8
BLACK
6
CONTINUOUS
10
1.3661417322834646
20
1.9566929133858266
11
1.3661417322834646
21
1.9251968503937007
0
LINE
8
BLACK
6
CONTINUOUS
10
1.3996062992125984
20
1.9251968503937007
11
1.3838582677165354
21
1.9251968503937007
0
LINE
8
BLACK
6
CONTINUOUS
10
1.3838582677165354
20
1.9251968503937007
11
1.3838582677165354
21
1.9566929133858266
0
LINE
8
BLACK
6
CONTINUOUS
10
1.3838582677165354
20
1.9566929133858266
11
1.3996062992125984
21
1.9566929133858266
0
LINE
8
BLACK
6
CONTINUOUS
10
1.3996062992125984
20
1.9566929133858266
11
1.3996062992125984
21
1.9251968503937007
0
LINE
8
BLACK
6
CONTINUOUS
10
1.4330708661417322
20
1.9251968503937007
11
1.4173228346456692
21
1.9251968503937007
0
LINE
8
BLACK
6
CONTINUOUS
10
1.4173228346456692
20
1.9251968503937007
11
1.4173228346456692
21
1.9566929133858266
0
LINE
8
BLACK
6
CONTINUOUS
10
1.4173228346456692
20
1.9566929133858266
11
1.4330708661417322
21
1.9566929133858266
0
LINE
8
BLACK
6
CONTINUOUS
10
1.4330708661417322
20
1.9566929133858266
11
1.4330708661417322
21
1.9251968503937007
0
LINE
8
BLACK
6
CONTINUOUS
10
1.5
20
1.9251968503937007
11
1.484251968503937
21
1.9251968503937007
0
LINE
8
BLACK
6
CONTINUOUS
10
1.484251968503937
20
1.9251968503937007
11
1.484251968503937
21
1.9566929133858266
0
LINE
8
BLACK
6
CONTINUOUS
10
1.484251968503937
20
1.9566929133858266
11
1.5
21
1.9566929133858266
0
LINE
8
BLACK
6
CONTINUOUS
10
1.5
20
1.9566929133858266
11
1.5
21
1.9251968503937007
0
LINE
8
BLACK
6
CONTINUOUS
10
1.5334645669291338
20
1.9251968503937007
11
1.5177165354330708
21
1.9251968503937007
0
LINE
8
BLACK
6
CONTINUOUS
10
1.5177165354330708
20
1.9251968503937007
11
1.5177165354330708
21
1.9566929133858266
0
LINE
8
BLACK
6
CONTINUOUS
10
1.5177165354330708
20
1.9566929133858266
11
1.5334645669291338
21
1.9566929133858266
0
LINE
8
BLACK
6
CONTINUOUS
10
1.5334645669291338
20
1.9566929133858266
11
1.5334645669291338
21
1.9251968503937007
0
LINE
8
BLACK
6
CONTINUOUS
10
1.5669291338582676
20
1.9251968503937007
11
1.5511811023622046
21
1.9251968503937007
0
LINE
8
BLACK
6
CONTINUOUS
10
1.5511811023622046
20
1.9251968503937007
11
1.5511811023622046
21
1.9566929133858266
0
LINE
8
BLACK
6
CONTINUOUS
10
1.5511811023622046
20
1.9566929133858266
11
1.5669291338582676
21
1.9566929133858266
0
LINE
8
BLACK
6
CONTINUOUS
10
1.5669291338582676
20
1.9566929133858266
11
1.5669291338582676
21
1.9251968503937007
0
LINE
8
BLACK
6
CONTINUOUS
10
1.6003937401574804
20
1.9251968503937007
11
1.5846457086614172
21
1.9251968503937007
0
LINE
8
BLACK
6
CONTINUOUS
10
1.5846457086614172
20
1.9251968503937007
11
1.5846457086614172
21
1.9566929133858266
0
LINE
8
BLACK
6
CONTINUOUS
10
1.5846457086614172
20
1.9566929133858266
11
1.6003937401574804
21
1.9566929133858266
0
LINE
8
BLACK
6
CONTINUOUS
10
1.6003937401574804
20
1.9566929133858266
11
1.6003937401574804
21
1.9251968503937007
0
LINE
8
BLACK
6
CONTINUOUS
10
1.6338582677165354
20
1.9251968503937007
11
1.6181102362204725
21
1.9251968503937007
0
LINE
8
BLACK
6
CONTINUOUS
10
1.6181102362204725
20
1.9251968503937007
11
1.6181102362204725
21
1.9566929133858266
0
LINE
8
BLACK
6
CONTINUOUS
10
1.6181102362204725
20
1.9566929133858266
11
1.6338582677165354
21
1.9566929133858266
0
LINE
8
BLACK
6
CONTINUOUS
10
1.6338582677165354
20
1.9566929133858266
11
1.6338582677165354
21
1.9251968503937007
0
LINE
8
BLACK
6
CONTINUOUS
10
1.6673228346456692
20
1.9251968503937007
11
1.6515748031496063
21
1.9251968503937007
0
LINE
8
BLACK
6
CONTINUOUS
10
1.6515748031496063
20
1.9251968503937007
11
1.6515748031496063
21
1.9566929133858266
0
LINE
8
BLACK
6
CONTINUOUS
10
1.6515748031496063
20
1.9566929133858266
11
1.6673228346456692
21
1.9566929133858266
0
LINE
8
BLACK
6
CONTINUOUS
10
1.6673228346456692
20
1.9566929133858266
11
1.6673228346456692
21
1.9251968503937007
0
LINE
8
BLACK
6
CONTINUOUS
10
1.700787401574803
20
1.9251968503937007
11
1.6850393700787401
21
1.9251968503937007
0
LINE
8
BLACK
6
CONTINUOUS
10
1.6850393700787401
20
1.9251968503937007
11
1.6850393700787401
21
1.9566929133858266
0
LINE
8
BLACK
6
CONTINUOUS
10
1.6850393700787401
20
1.9566929133858266
11
1.700787401574803
21
1.9566929133858266
0
LINE
8
BLACK
6
CONTINUOUS
10
1.700787401574803
20
1.9566929133858266
11
1.700787401574803
21
1.9251968503937007
0
LINE
8
BLACK
6
CONTINUOUS
10
1.75
20
1.9251968503937007
11
1.7185039370078741
21
1.9251968503937007
0
LINE
8
BLACK
6
CONTINUOUS
10
1.7185039370078741
20
1.9251968503937007
11
1.7185039370078741
21
1.9566929133858266
0
LINE
8
BLACK
6
CONTINUOUS
10
1.7185039370078741
20
1.9566929133858266
11
1.75
21
1.9566929133858266
0
LINE
8
BLACK
6
CONTINUOUS
10
1.75
20
1.9566929133858266
11
1.75
21
1.9251968503937007
0
LINE
8
BLACK
6
CONTINUOUS
10
0.8166533858267716
20
2.0959372440944883
11
0.8188673228346457
21
2.0944579527559055
0
LINE
8
BLACK
6
CONTINUOUS
10
0.8188673228346457
20
2.0944579527559055
11
0.8203466141732283
21
2.0922440157480313
0
LINE
8
BLACK
6
CONTINUOUS
10
0.8203466141732283
20
2.0922440157480313
11
0.8208660629921259
21
2.0896325196850394
0
LINE
8
BLACK
6
CONTINUOUS
10
0.8208660629921259
20
2.0896325196850394
11
0.8208660629921259
21
2.0442257480314958
0
LINE
8
BLACK
6
CONTINUOUS
10
0.8208660629921259
20
2.0442257480314958
11
0.8203466141732283
21
2.0416142519685039
0
LINE
8
BLACK
6
CONTINUOUS
10
0.8203466141732283
20
2.0416142519685039
11
0.8188673228346457
21
2.0394003149606297
0
LINE
8
BLACK
6
CONTINUOUS
10
0.8188673228346457
20
2.0394003149606297
11
0.8166533858267716
21
2.0379210236220473
0
LINE
8
BLACK
6
CONTINUOUS
10
0.8166533858267716
20
2.0379210236220473
11
0.8140418897637796
21
2.0374015748031495
0
LINE
8
BLACK
6
CONTINUOUS
10
0.8140418897637796
20
2.0374015748031495
11
0.7765091338582677
21
2.0374015748031495
0
LINE
8
BLACK
6
CONTINUOUS
10
0.7765091338582677
20
2.0374015748031495
11
0.7738976377952755
21
2.0379210236220473
0
LINE
8
BLACK
6
CONTINUOUS
10
0.7738976377952755
20
2.0379210236220473
11
0.7716837007874016
21
2.0394003149606297
0
LINE
8
BLACK
6
CONTINUOUS
10
0.7716837007874016
20
2.0394003149606297
11
0.7702044094488188
21
2.0416142519685039
0
LINE
8
BLACK
6
CONTINUOUS
10
0.7702044094488188
20
2.0416142519685039
11
0.7696849606299212
21
2.0442257480314958
0
LINE
8
BLACK
6
CONTINUOUS
10
0.7696849606299212
20
2.0442257480314958
11
0.7696849606299212
21
2.0896325196850394
0
LINE
8
BLACK
6
CONTINUOUS
10
0.7696849606299212
20
2.0896325196850394
11
0.7702044094488188
21
2.0922440157480313
0
LINE
8
BLACK
6
CONTINUOUS
10
0.7702044094488188
20
2.0922440157480313
11
0.7716837007874016
21
2.0944579527559055
0
LINE
8
BLACK
6
CONTINUOUS
10
0.7716837007874016
20
2.0944579527559055
11
0.7738976377952755
21
2.0959372440944883
0
LINE
8
BLACK
6
CONTINUOUS
10
0.7738976377952755
20
2.0959372440944883
11
0.7765091338582677
21
2.0964566929133857
0
LINE
8
BLACK
6
CONTINUOUS
10
0.7765091338582677
20
2.0964566929133857
11
0.8140418897637796
21
2.0964566929133857
0
LINE
8
BLACK
6
CONTINUOUS
10
0.8140418897637796
20
2.0964566929133857
11
0.8166533858267716
21
2.0959372440944883
0
LINE
8
BLACK
6
CONTINUOUS
10
0.9505117322834645
20
2.0959372440944883
11
0.9527256692913385
21
2.0944579527559055
0
LINE
8
BLACK
6
CONTINUOUS
10
0.9527256692913385
20
2.0944579527559055
11
0.9542049606299212
21
2.0922440157480313
0
LINE
8
BLACK
6
CONTINUOUS
10
0.9542049606299212
20
2.0922440157480313
11
0.9547244094488189
21
2.0896325196850394
0
LINE
8
BLACK
6
CONTINUOUS
10
0.9547244094488189
20
2.0896325196850394
11
0.9547244094488189
21
2.0442257480314958
0
LINE
8
BLACK
6
CONTINUOUS
10
0.9547244094488189
20
2.0442257480314958
11
0.9542049606299212
21
2.0416142519685039
0
LINE
8
BLACK
6
CONTINUOUS
10
0.9542049606299212
20
2.0416142519685039
11
0.9527256692913385
21
2.0394003149606297
0
LINE
8
BLACK
6
CONTINUOUS
10
0.9527256692913385
20
2.0394003149606297
11
0.9505117322834645
21
2.0379210236220473
0
LINE
8
BLACK
6
CONTINUOUS
10
0.9505117322834645
20
2.0379210236220473
11
0.9479002362204724
21
2.0374015748031495
0
LINE
8
BLACK
6
CONTINUOUS
10
0.9479002362204724
20
2.0374015748031495
11
0.9103674803149606
21
2.0374015748031495
0
LINE
8
BLACK
6
CONTINUOUS
10
0.9103674803149606
20
2.0374015748031495
11
0.9077559842519685
21
2.0379210236220473
0
LINE
8
BLACK
6
CONTINUOUS
10
0.9077559842519685
20
2.0379210236220473
11
0.9055420472440945
21
2.0394003149606297
0
LINE
8
BLACK
6
CONTINUOUS
10
0.9055420472440945
20
2.0394003149606297
11
0.9040627559055118
21
2.0416142519685039
0
LINE
8
BLACK
6
CONTINUOUS
10
0.9040627559055118
20
2.0416142519685039
11
0.9035433070866141
21
2.0442257480314958
0
LINE
8
BLACK
6
CONTINUOUS
10
0.9035433070866141
20
2.0442257480314958
11
0.9035433070866141
21
2.0896325196850394
0
LINE
8
BLACK
6
CONTINUOUS
10
0.9035433070866141
20
2.0896325196850394
11
0.9040627559055118
21
2.0922440157480313
0
LINE
8
BLACK
6
CONTINUOUS
10
0.9040627559055118
20
2.0922440157480313
11
0.9055420472440945
21
2.0944579527559055
0
LINE
8
BLACK
6
CONTINUOUS
10
0.9055420472440945
20
2.0944579527559055
11
0.9077559842519685
21
2.0959372440944883
0
LINE
8
BLACK
6
CONTINUOUS
10
0.9077559842519685
20
2.0959372440944883
11
0.9103674803149606
21
2.0964566929133857
0
LINE
8
BLACK
6
CONTINUOUS
10
0.9103674803149606
20
2.0964566929133857
11
0.9479002362204724
21
2.0964566929133857
0
LINE
8
BLACK
6
CONTINUOUS
10
0.9479002362204724
20
2.0964566929133857
11
0.9505117322834645
21
2.0959372440944883
0
LINE
8
BLACK
6
CONTINUOUS
10
0.9540618503937007
20
2.3968885826771653
11
0.957255
21
2.394755
0
LINE
8
BLACK
6
CONTINUOUS
10
0.957255
20
2.394755
11
0.9593885826771653
21
2.3915618503937006
0
LINE
8
BLACK
6
CONTINUOUS
10
0.9593885826771653
20
2.3915618503937006
11
0.9601377952755905
21
2.3877952755905509
0
LINE
8
BLACK
6
CONTINUOUS
10
0.9601377952755905
20
2.3877952755905509
11
0.9601377952755905
21
2.3523622047244093
0
LINE
8
BLACK
6
CONTINUOUS
10
0.9601377952755905
20
2.3523622047244093
11
0.9593885826771653
21
2.3485956299212596
0
LINE
8
BLACK
6
CONTINUOUS
10
0.9593885826771653
20
2.3485956299212596
11
0.957255
21
2.3454024803149607
0
LINE
8
BLACK
6
CONTINUOUS
10
0.957255
20
2.3454024803149607
11
0.9540618503937007
21
2.3432688976377953
0
LINE
8
BLACK
6
CONTINUOUS
10
0.9540618503937007
20
2.3432688976377953
11
0.9502952755905512
21
2.3425196850393699
0
LINE
8
BLACK
6
CONTINUOUS
10
0.9502952755905512
20
2.3425196850393699
11
0.9296259842519685
21
2.3425196850393699
0
LINE
8
BLACK
6
CONTINUOUS
10
0.9296259842519685
20
2.3425196850393699
11
0.9258594094488188
21
2.3432688976377953
0
LINE
8
BLACK
6
CONTINUOUS
10
0.9258594094488188
20
2.3432688976377953
11
0.9226662598425197
21
2.3454024803149607
0
LINE
8
BLACK
6
CONTINUOUS
10
0.9226662598425197
20
2.3454024803149607
11
0.9205326771653544
21
2.3485956299212596
0
LINE
8
BLACK
6
CONTINUOUS
10
0.9205326771653544
20
2.3485956299212596
11
0.9197834645669292
21
2.3523622047244093
0
LINE
8
BLACK
6
CONTINUOUS
10
0.9197834645669292
20
2.3523622047244093
11
0.9197834645669292
21
2.3877952755905509
0
LINE
8
BLACK
6
CONTINUOUS
10
0.9197834645669292
20
2.3877952755905509
11
0.9205326771653544
21
2.3915618503937006
0
LINE
8
BLACK
6
CONTINUOUS
10
0.9205326771653544
20
2.3915618503937006
11
0.9226662598425197
21
2.394755
0
LINE
8
BLACK
6
CONTINUOUS
10
0.9226662598425197
20
2.394755
11
0.9258594094488188
21
2.3968885826771653
0
LINE
8
BLACK
6
CONTINUOUS
10
0.9258594094488188
20
2.3968885826771653
11
0.9296259842519685
21
2.3976377952755903
0
LINE
8
BLACK
6
CONTINUOUS
10
0.9296259842519685
20
2.3976377952755903
11
0.9502952755905512
21
2.3976377952755903
0
LINE
8
BLACK
6
CONTINUOUS
10
0.9502952755905512
20
2.3976377952755903
11
0.9540618503937007
21
2.3968885826771653
0
LINE
8
BLACK
6
CONTINUOUS
10
1.0259122440944881
20
2.3968885826771653
11
1.0291053937007875
21
2.394755
0
LINE
8
BLACK
6
CONTINUOUS
10
1.0291053937007875
20
2.394755
11
1.0312389763779528
21
2.3915618503937006
0
LINE
8
BLACK
6
CONTINUOUS
10
1.0312389763779528
20
2.3915618503937006
11
1.031988188976378
21
2.3877952755905509
0
LINE
8
BLACK
6
CONTINUOUS
10
1.031988188976378
20
2.3877952755905509
11
1.031988188976378
21
2.3523622047244093
0
LINE
8
BLACK
6
CONTINUOUS
10
1.031988188976378
20
2.3523622047244093
11
1.0312389763779528
21
2.3485956299212596
0
LINE
8
BLACK
6
CONTINUOUS
10
1.0312389763779528
20
2.3485956299212596
11
1.0291053937007875
21
2.3454024803149607
0
LINE
8
BLACK
6
CONTINUOUS
10
1.0291053937007875
20
2.3454024803149607
11
1.0259122440944881
21
2.3432688976377953
0
LINE
8
BLACK
6
CONTINUOUS
10
1.0259122440944881
20
2.3432688976377953
11
1.0221456692913387
21
2.3425196850393699
0
LINE
8
BLACK
6
CONTINUOUS
10
1.0221456692913387
20
2.3425196850393699
11
1.0014763779527558
21
2.3425196850393699
0
LINE
8
BLACK
6
CONTINUOUS
10
1.0014763779527558
20
2.3425196850393699
11
0.9977098031496062
21
2.3432688976377953
0
LINE
8
BLACK
6
CONTINUOUS
10
0.9977098031496062
20
2.3432688976377953
11
0.9945166535433071
21
2.3454024803149607
0
LINE
8
BLACK
6
CONTINUOUS
10
0.9945166535433071
20
2.3454024803149607
11
0.9923830708661417
21
2.3485956299212596
0
LINE
8
BLACK
6
CONTINUOUS
10
0.9923830708661417
20
2.3485956299212596
11
0.9916338582677166
21
2.3523622047244093
0
LINE
8
BLACK
6
CONTINUOUS
10
0.9916338582677166
20
2.3523622047244093
11
0.9916338582677166
21
2.3877952755905509
0
LINE
8
BLACK
6
CONTINUOUS
10
0.9916338582677166
20
2.3877952755905509
11
0.9923830708661417
21
2.3915618503937006
0
LINE
8
BLACK
6
CONTINUOUS
10
0.9923830708661417
20
2.3915618503937006
11
0.9945166535433071
21
2.394755
0
LINE
8
BLACK
6
CONTINUOUS
10
0.9945166535433071
20
2.394755
11
0.9977098031496062
21
2.3968885826771653
0
LINE
8
BLACK
6
CONTINUOUS
10
0.9977098031496062
20
2.3968885826771653
11
1.0014763779527558
21
2.3976377952755903
0
LINE
8
BLACK
6
CONTINUOUS
10
1.0014763779527558
20
2.3976377952755903
11
1.0221456692913387
21
2.3976377952755903
0
LINE
8
BLACK
6
CONTINUOUS
10
1.0221456692913387
20
2.3976377952755903
11
1.0259122440944881
21
2.3968885826771653
0
LINE
8
BLACK
6
CONTINUOUS
10
0.8718465748031495
20
2.4365583464566929
11
0.8737624409448819
21
2.4352781889763779
0
LINE
8
BLACK
6
CONTINUOUS
10
0.8737624409448819
20
2.4352781889763779
11
0.8750425984251968
21
2.4333623228346455
0
LINE
8
BLACK
6
CONTINUOUS
10
0.8750425984251968
20
2.4333623228346455
11
0.875492125984252
21
2.4311023622047245
0
LINE
8
BLACK
6
CONTINUOUS
10
0.875492125984252
20
2.4311023622047245
11
0.875492125984252
21
2.4192913385826773
0
LINE
8
BLACK
6
CONTINUOUS
10
0.875492125984252
20
2.4192913385826773
11
0.8750425984251968
21
2.4170313779527559
0
LINE
8
BLACK
6
CONTINUOUS
10
0.8750425984251968
20
2.4170313779527559
11
0.8737624409448819
21
2.4151155118110235
0
LINE
8
BLACK
6
CONTINUOUS
10
0.8737624409448819
20
2.4151155118110235
11
0.8718465748031495
21
2.4138353543307085
0
LINE
8
BLACK
6
CONTINUOUS
10
0.8718465748031495
20
2.4138353543307085
11
0.8695866141732284
21
2.4133858267716537
0
LINE
8
BLACK
6
CONTINUOUS
10
0.8695866141732284
20
2.4133858267716537
11
0.8233267716535433
21
2.4133858267716537
0
LINE
8
BLACK
6
CONTINUOUS
10
0.8233267716535433
20
2.4133858267716537
11
0.821066811023622
21
2.4138353543307085
0
LINE
8
BLACK
6
CONTINUOUS
10
0.821066811023622
20
2.4138353543307085
11
0.8191509448818898
21
2.4151155118110235
0
LINE
8
BLACK
6
CONTINUOUS
10
0.8191509448818898
20
2.4151155118110235
11
0.8178707874015748
21
2.4170313779527559
0
LINE
8
BLACK
6
CONTINUOUS
10
0.8178707874015748
20
2.4170313779527559
11
0.8174212598425197
21
2.4192913385826773
0
LINE
8
BLACK
6
CONTINUOUS
10
0.8174212598425197
20
2.4192913385826773
11
0.8174212598425197
21
2.4311023622047245
0
LINE
8
BLACK
6
CONTINUOUS
10
0.8174212598425197
20
2.4311023622047245
11
0.8178707874015748
21
2.4333623228346455
0
LINE
8
BLACK
6
CONTINUOUS
10
0.8178707874015748
20
2.4333623228346455
11
0.8191509448818898
21
2.4352781889763779
0
LINE
8
BLACK
6
CONTINUOUS
10
0.8191509448818898
20
2.4352781889763779
11
0.821066811023622
21
2.4365583464566929
0
LINE
8
BLACK
6
CONTINUOUS
10
0.821066811023622
20
2.4365583464566929
11
0.8233267716535433
21
2.4370078740157481
0
LINE
8
BLACK
6
CONTINUOUS
10
0.8233267716535433
20
2.4370078740157481
11
0.8695866141732284
21
2.4370078740157481
0
LINE
8
BLACK
6
CONTINUOUS
10
0.8695866141732284
20
2.4370078740157481
11
0.8718465748031495
21
2.4365583464566929
0
LINE
8
BLACK
6
CONTINUOUS
10
0.7980276377952755
20
2.4739599212598424
11
0.7999435039370079
21
2.4726797637795275
0
LINE
8
BLACK
6
CONTINUOUS
10
0.7999435039370079
20
2.4726797637795275
11
0.8012236614173228
21
2.470763897637795
0
LINE
8
BLACK
6
CONTINUOUS
10
0.8012236614173228
20
2.470763897637795
11
0.801673188976378
21
2.4685039370078741
0
LINE
8
BLACK
6
CONTINUOUS
10
0.801673188976378
20
2.4685039370078741
11
0.801673188976378
21
2.4566929133858268
0
LINE
8
BLACK
6
CONTINUOUS
10
0.801673188976378
20
2.4566929133858268
11
0.8012236614173228
21
2.4544329527559055
0
LINE
8
BLACK
6
CONTINUOUS
10
0.8012236614173228
20
2.4544329527559055
11
0.7999435039370079
21
2.452517086614173
0
LINE
8
BLACK
6
CONTINUOUS
10
0.7999435039370079
20
2.452517086614173
11
0.7980276377952755
21
2.451236929133858
0
LINE
8
BLACK
6
CONTINUOUS
10
0.7980276377952755
20
2.451236929133858
11
0.7957676771653543
21
2.4507874015748032
0
LINE
8
BLACK
6
CONTINUOUS
10
0.7957676771653543
20
2.4507874015748032
11
0.7495078346456693
21
2.4507874015748032
0
LINE
8
BLACK
6
CONTINUOUS
10
0.7495078346456693
20
2.4507874015748032
11
0.747247874015748
21
2.451236929133858
0
LINE
8
BLACK
6
CONTINUOUS
10
0.747247874015748
20
2.451236929133858
11
0.7453320078740158
21
2.452517086614173
0
LINE
8
BLACK
6
CONTINUOUS
10
0.7453320078740158
20
2.452517086614173
11
0.7440518503937008
21
2.4544329527559055
0
LINE
8
BLACK
6
CONTINUOUS
10
0.7440518503937008
20
2.4544329527559055
11
0.7436023228346457
21
2.4566929133858268
0
LINE
8
BLACK
6
CONTINUOUS
10
0.7436023228346457
20
2.4566929133858268
11
0.7436023228346457
21
2.4685039370078741
0
LINE
8
BLACK
6
CONTINUOUS
10
0.7436023228346457
20
2.4685039370078741
11
0.7440518503937008
21
2.470763897637795
0
LINE
8
BLACK
6
CONTINUOUS
10
0.7440518503937008
20
2.470763897637795
11
0.7453320078740158
21
2.4726797637795275
0
LINE
8
BLACK
6
CONTINUOUS
10
0.7453320078740158
20
2.4726797637795275
11
0.747247874015748
21
2.4739599212598424
0
LINE
8
BLACK
6
CONTINUOUS
10
0.747247874015748
20
2.4739599212598424
11
0.7495078346456693
21
2.4744094488188977
0
LINE
8
BLACK
6
CONTINUOUS
10
0.7495078346456693
20
2.4744094488188977
11
0.7957676771653543
21
2.4744094488188977
0
LINE
8
BLACK
6
CONTINUOUS
10
0.7957676771653543
20
2.4744094488188977
11
0.7980276377952755
21
2.4739599212598424
0
LINE
8
BLACK
6
CONTINUOUS
10
0.8718465748031495
20
2.511361496062992
11
0.8737624409448819
21
2.510081338582677
0
LINE
8
BLACK
6
CONTINUOUS
10
0.8737624409448819
20
2.510081338582677
11
0.8750425984251968
21
2.508165472440945
0
LINE
8
BLACK
6
CONTINUOUS
10
0.8750425984251968
20
2.508165472440945
11
0.875492125984252
21
2.5059055118110236
0
LINE
8
BLACK
6
CONTINUOUS
10
0.875492125984252
20
2.5059055118110236
11
0.875492125984252
21
2.4940944881889764
0
LINE
8
BLACK
6
CONTINUOUS
10
0.875492125984252
20
2.4940944881889764
11
0.8750425984251968
21
2.491834527559055
0
LINE
8
BLACK
6
CONTINUOUS
10
0.8750425984251968
20
2.491834527559055
11
0.8737624409448819
21
2.489918661417323
0
LINE
8
BLACK
6
CONTINUOUS
10
0.8737624409448819
20
2.489918661417323
11
0.8718465748031495
21
2.488638503937008
0
LINE
8
BLACK
6
CONTINUOUS
10
0.8718465748031495
20
2.488638503937008
11
0.8695866141732284
21
2.4881889763779528
0
LINE
8
BLACK
6
CONTINUOUS
10
0.8695866141732284
20
2.4881889763779528
11
0.8233267716535433
21
2.4881889763779528
0
LINE
8
BLACK
6
CONTINUOUS
10
0.8233267716535433
20
2.4881889763779528
11
0.821066811023622
21
2.488638503937008
0
LINE
8
BLACK
6
CONTINUOUS
10
0.821066811023622
20
2.488638503937008
11
0.8191509448818898
21
2.489918661417323
0
LINE
8
BLACK
6
CONTINUOUS
10
0.8191509448818898
20
2.489918661417323
11
0.8178707874015748
21
2.491834527559055
0
LINE
8
BLACK
6
CONTINUOUS
10
0.8178707874015748
20
2.491834527559055
11
0.8174212598425197
21
2.4940944881889764
0
LINE
8
BLACK
6
CONTINUOUS
10
0.8174212598425197
20
2.4940944881889764
11
0.8174212598425197
21
2.5059055118110236
0
LINE
8
BLACK
6
CONTINUOUS
10
0.8174212598425197
20
2.5059055118110236
11
0.8178707874015748
21
2.508165472440945
0
LINE
8
BLACK
6
CONTINUOUS
10
0.8178707874015748
20
2.508165472440945
11
0.8191509448818898
21
2.510081338582677
0
LINE
8
BLACK
6
CONTINUOUS
10
0.8191509448818898
20
2.510081338582677
11
0.821066811023622
21
2.511361496062992
0
LINE
8
BLACK
6
CONTINUOUS
10
0.821066811023622
20
2.511361496062992
11
0.8233267716535433
21
2.5118110236220472
0
LINE
8
BLACK
6
CONTINUOUS
10
0.8233267716535433
20
2.5118110236220472
11
0.8695866141732284
21
2.5118110236220472
0
LINE
8
BLACK
6
CONTINUOUS
10
0.8695866141732284
20
2.5118110236220472
11
0.8718465748031495
21
2.511361496062992
0
LINE
8
BLACK
6
CONTINUOUS
10
1.0337862598425196
20
2.5661799212598426
11
1.0369794094488189
21
2.5640463385826773
0
LINE
8
BLACK
6
CONTINUOUS
10
1.0369794094488189
20
2.5640463385826773
11
1.0391129921259843
21
2.5608531889763779
0
LINE
8
BLACK
6
CONTINUOUS
10
1.0391129921259843
20
2.5608531889763779
11
1.0398622047244095
21
2.5570866141732282
0
LINE
8
BLACK
6
CONTINUOUS
10
1.0398622047244095
20
2.5570866141732282
11
1.0398622047244095
21
2.5216535433070866
0
LINE
8
BLACK
6
CONTINUOUS
10
1.0398622047244095
20
2.5216535433070866
11
1.0391129921259843
21
2.5178869685039369
0
LINE
8
BLACK
6
CONTINUOUS
10
1.0391129921259843
20
2.5178869685039369
11
1.0369794094488189
21
2.5146938188976375
0
LINE
8
BLACK
6
CONTINUOUS
10
1.0369794094488189
20
2.5146938188976375
11
1.0337862598425196
21
2.5125602362204722
0
LINE
8
BLACK
6
CONTINUOUS
10
1.0337862598425196
20
2.5125602362204722
11
1.0300196850393701
21
2.5118110236220472
0
LINE
8
BLACK
6
CONTINUOUS
10
1.0300196850393701
20
2.5118110236220472
11
1.0093503937007873
21
2.5118110236220472
0
LINE
8
BLACK
6
CONTINUOUS
10
1.0093503937007873
20
2.5118110236220472
11
1.0055838188976378
21
2.5125602362204722
0
LINE
8
BLACK
6
CONTINUOUS
10
1.0055838188976378
20
2.5125602362204722
11
1.0023906692913385
21
2.5146938188976375
0
LINE
8
BLACK
6
CONTINUOUS
10
1.0023906692913385
20
2.5146938188976375
11
1.0002570866141731
21
2.5178869685039369
0
LINE
8
BLACK
6
CONTINUOUS
10
1.0002570866141731
20
2.5178869685039369
11
0.999507874015748
21
2.5216535433070866
0
LINE
8
BLACK
6
CONTINUOUS
10
0.999507874015748
20
2.5216535433070866
11
0.999507874015748
21
2.5570866141732282
0
LINE
8
BLACK
6
CONTINUOUS
10
0.999507874015748
20
2.5570866141732282
11
1.0002570866141731
21
2.5608531889763779
0
LINE
8
BLACK
6
CONTINUOUS
10
1.0002570866141731
20
2.5608531889763779
11
1.0023906692913385
21
2.5640463385826773
0
LINE
8
BLACK
6
CONTINUOUS
10
1.0023906692913385
20
2.5640463385826773
11
1.0055838188976378
21
2.5661799212598426
0
LINE
8
BLACK
6
CONTINUOUS
10
1.0055838188976378
20
2.5661799212598426
11
1.0093503937007873
21
2.5669291338582676
0
LINE
8
BLACK
6
CONTINUOUS
10
1.0093503937007873
20
2.5669291338582676
11
1.0300196850393701
21
2.5669291338582676
0
LINE
8
BLACK
6
CONTINUOUS
10
1.0300196850393701
20
2.5669291338582676
11
1.0337862598425196
21
2.5661799212598426
0
LINE
8
BLACK
6
CONTINUOUS
10
1.1056366535433071
20
2.5661799212598426
11
1.1088298031496062
21
2.5640463385826773
0
LINE
8
BLACK
6
CONTINUOUS
10
1.1088298031496062
20
2.5640463385826773
11
1.1109633858267716
21
2.5608531889763779
0
LINE
8
BLACK
6
CONTINUOUS
10
1.1109633858267716
20
2.5608531889763779
11
1.1117125984251968
21
2.5570866141732282
0
LINE
8
BLACK
6
CONTINUOUS
10
1.1117125984251968
20
2.5570866141732282
11
1.1117125984251968
21
2.5216535433070866
0
LINE
8
BLACK
6
CONTINUOUS
10
1.1117125984251968
20
2.5216535433070866
11
1.1109633858267716
21
2.5178869685039369
0
LINE
8
BLACK
6
CONTINUOUS
10
1.1109633858267716
20
2.5178869685039369
11
1.1088298031496062
21
2.5146938188976375
0
LINE
8
BLACK
6
CONTINUOUS
10
1.1088298031496062
20
2.5146938188976375
11
1.1056366535433071
21
2.5125602362204722
0
LINE
8
BLACK
6
CONTINUOUS
10
1.1056366535433071
20
2.5125602362204722
11
1.1018700787401574
21
2.5118110236220472
0
LINE
8
BLACK
6
CONTINUOUS
10
1.1018700787401574
20
2.5118110236220472
11
1.0812007874015748
21
2.5118110236220472
0
LINE
8
BLACK
6
CONTINUOUS
10
1.0812007874015748
20
2.5118110236220472
11
1.0774342125984251
21
2.5125602362204722
0
LINE
8
BLACK
6
CONTINUOUS
10
1.0774342125984251
20
2.5125602362204722
11
1.074241062992126
21
2.5146938188976375
0
LINE
8
BLACK
6
CONTINUOUS
10
1.074241062992126
20
2.5146938188976375
11
1.0721074803149606
21
2.5178869685039369
0
LINE
8
BLACK
6
CONTINUOUS
10
1.0721074803149606
20
2.5178869685039369
11
1.0713582677165354
21
2.5216535433070866
0
LINE
8
BLACK
6
CONTINUOUS
10
1.0713582677165354
20
2.5216535433070866
11
1.0713582677165354
21
2.5570866141732282
0
LINE
8
BLACK
6
CONTINUOUS
10
1.0713582677165354
20
2.5570866141732282
11
1.0721074803149606
21
2.5608531889763779
0
LINE
8
BLACK
6
CONTINUOUS
10
1.0721074803149606
20
2.5608531889763779
11
1.074241062992126
21
2.5640463385826773
0
LINE
8
BLACK
6
CONTINUOUS
10
1.074241062992126
20
2.5640463385826773
11
1.0774342125984251
21
2.5661799212598426
0
LINE
8
BLACK
6
CONTINUOUS
10
1.0774342125984251
20
2.5661799212598426
11
1.0812007874015748
21
2.5669291338582676
0
LINE
8
BLACK
6
CONTINUOUS
10
1.0812007874015748
20
2.5669291338582676
11
1.1018700787401574
21
2.5669291338582676
0
LINE
8
BLACK
6
CONTINUOUS
10
1.1018700787401574
20
2.5669291338582676
11
1.1056366535433071
21
2.5661799212598426
0
LINE
8
BLACK
6
CONTINUOUS
10
0.7296524015748032
20
2.6764161417322834
11
0.7328455511811024
21
2.674282559055118
0
LINE
8
BLACK
6
CONTINUOUS
10
0.7328455511811024
20
2.674282559055118
11
0.7349791338582677
21
2.6710894094488187
0
LINE
8
BLACK
6
CONTINUOUS
10
0.7349791338582677
20
2.6710894094488187
11
0.7357283464566929
21
2.6673228346456694
0
LINE
8
BLACK
6
CONTINUOUS
10
0.7357283464566929
20
2.6673228346456694
11
0.7357283464566929
21
2.6318897637795273
0
LINE
8
BLACK
6
CONTINUOUS
10
0.7357283464566929
20
2.6318897637795273
11
0.7349791338582677
21
2.6281231889763781
0
LINE
8
BLACK
6
CONTINUOUS
10
0.7349791338582677
20
2.6281231889763781
11
0.7328455511811024
21
2.6249300393700787
0
LINE
8
BLACK
6
CONTINUOUS
10
0.7328455511811024
20
2.6249300393700787
11
0.7296524015748032
21
2.6227964566929134
0
LINE
8
BLACK
6
CONTINUOUS
10
0.7296524015748032
20
2.6227964566929134
11
0.7258858267716535
21
2.622047244094488
0
LINE
8
BLACK
6
CONTINUOUS
10
0.7258858267716535
20
2.622047244094488
11
0.7052165354330708
21
2.622047244094488
0
LINE
8
BLACK
6
CONTINUOUS
10
0.7052165354330708
20
2.622047244094488
11
0.7014499606299213
21
2.6227964566929134
0
LINE
8
BLACK
6
CONTINUOUS
10
0.7014499606299213
20
2.6227964566929134
11
0.698256811023622
21
2.6249300393700787
0
LINE
8
BLACK
6
CONTINUOUS
10
0.698256811023622
20
2.6249300393700787
11
0.6961232283464567
21
2.6281231889763781
0
LINE
8
BLACK
6
CONTINUOUS
10
0.6961232283464567
20
2.6281231889763781
11
0.6953740157480315
21
2.6318897637795273
0
LINE
8
BLACK
6
CONTINUOUS
10
0.6953740157480315
20
2.6318897637795273
11
0.6953740157480315
21
2.6673228346456694
0
LINE
8
BLACK
6
CONTINUOUS
10
0.6953740157480315
20
2.6673228346456694
11
0.6961232283464567
21
2.6710894094488187
0
LINE
8
BLACK
6
CONTINUOUS
10
0.6961232283464567
20
2.6710894094488187
11
0.698256811023622
21
2.674282559055118
0
LINE
8
BLACK
6
CONTINUOUS
10
0.698256811023622
20
2.674282559055118
11
0.7014499606299213
21
2.6764161417322834
0
LINE
8
BLACK
6
CONTINUOUS
10
0.7014499606299213
20
2.6764161417322834
11
0.7052165354330708
21
2.6771653543307088
0
LINE
8
BLACK
6
CONTINUOUS
10
0.7052165354330708
20
2.6771653543307088
11
0.7258858267716535
21
2.6771653543307088
0
LINE
8
BLACK
6
CONTINUOUS
10
0.7258858267716535
20
2.6771653543307088
11
0.7296524015748032
21
2.6764161417322834
0
LINE
8
BLACK
6
CONTINUOUS
10
0.8015027952755905
20
2.6764161417322834
11
0.8046959448818898
21
2.674282559055118
0
LINE
8
BLACK
6
CONTINUOUS
10
0.8046959448818898
20
2.674282559055118
11
0.8068295275590551
21
2.6710894094488187
0
LINE
8
BLACK
6
CONTINUOUS
10
0.8068295275590551
20
2.6710894094488187
11
0.8075787401574803
21
2.6673228346456694
0
LINE
8
BLACK
6
CONTINUOUS
10
0.8075787401574803
20
2.6673228346456694
11
0.8075787401574803
21
2.6318897637795273
0
LINE
8
BLACK
6
CONTINUOUS
10
0.8075787401574803
20
2.6318897637795273
11
0.8068295275590551
21
2.6281231889763781
0
LINE
8
BLACK
6
CONTINUOUS
10
0.8068295275590551
20
2.6281231889763781
11
0.8046959448818898
21
2.6249300393700787
0
LINE
8
BLACK
6
CONTINUOUS
10
0.8046959448818898
20
2.6249300393700787
11
0.8015027952755905
21
2.6227964566929134
0
LINE
8
BLACK
6
CONTINUOUS
10
0.8015027952755905
20
2.6227964566929134
11
0.797736220472441
21
2.622047244094488
0
LINE
8
BLACK
6
CONTINUOUS
10
0.797736220472441
20
2.622047244094488
11
0.7770669291338582
21
2.622047244094488
0
LINE
8
BLACK
6
CONTINUOUS
10
0.7770669291338582
20
2.622047244094488
11
0.7733003543307087
21
2.6227964566929134
0
LINE
8
BLACK
6
CONTINUOUS
10
0.7733003543307087
20
2.6227964566929134
11
0.7701072047244094
21
2.6249300393700787
0
LINE
8
BLACK
6
CONTINUOUS
10
0.7701072047244094
20
2.6249300393700787
11
0.7679736220472441
21
2.6281231889763781
0
LINE
8
BLACK
6
CONTINUOUS
10
0.7679736220472441
20
2.6281231889763781
11
0.7672244094488189
21
2.6318897637795273
0
LINE
8
BLACK
6
CONTINUOUS
10
0.7672244094488189
20
2.6318897637795273
11
0.7672244094488189
21
2.6673228346456694
0
LINE
8
BLACK
6
CONTINUOUS
10
0.7672244094488189
20
2.6673228346456694
11
0.7679736220472441
21
2.6710894094488187
0
LINE
8
BLACK
6
CONTINUOUS
10
0.7679736220472441
20
2.6710894094488187
11
0.7701072047244094
21
2.674282559055118
0
LINE
8
BLACK
6
CONTINUOUS
10
0.7701072047244094
20
2.674282559055118
11
0.7733003543307087
21
2.6764161417322834
0
LINE
8
BLACK
6
CONTINUOUS
10
0.7733003543307087
20
2.6764161417322834
11
0.7770669291338582
21
2.6771653543307088
0
LINE
8
BLACK
6
CONTINUOUS
10
0.7770669291338582
20
2.6771653543307088
11
0.797736220472441
21
2.6771653543307088
0
LINE
8
BLACK
6
CONTINUOUS
10
0.797736220472441
20
2.6771653543307088
11
0.8015027952755905
21
2.6764161417322834
0
LINE
8
BLACK
6
CONTINUOUS
10
0.9107547637795276
20
2.6961011811023621
11
0.9139479133858267
21
2.6939675984251967
0
LINE
8
BLACK
6
CONTINUOUS
10
0.9139479133858267
20
2.6939675984251967
11
0.9160814960629921
21
2.6907744488188974
0
LINE
8
BLACK
6
CONTINUOUS
10
0.9160814960629921
20
2.6907744488188974
11
0.9168307086614172
21
2.6870078740157481
0
LINE
8
BLACK
6
CONTINUOUS
10
0.9168307086614172
20
2.6870078740157481
11
0.9168307086614172
21
2.651574803149606
0
LINE
8
BLACK
6
CONTINUOUS
10
0.9168307086614172
20
2.651574803149606
11
0.9160814960629921
21
2.6478082283464568
0
LINE
8
BLACK
6
CONTINUOUS
10
0.9160814960629921
20
2.6478082283464568
11
0.9139479133858267
21
2.6446150787401574
0
LINE
8
BLACK
6
CONTINUOUS
10
0.9139479133858267
20
2.6446150787401574
11
0.9107547637795276
21
2.6424814960629921
0
LINE
8
BLACK
6
CONTINUOUS
10
0.9107547637795276
20
2.6424814960629921
11
0.9069881889763779
21
2.6417322834645667
0
LINE
8
BLACK
6
CONTINUOUS
10
0.9069881889763779
20
2.6417322834645667
11
0.8863188976377953
21
2.6417322834645667
0
LINE
8
BLACK
6
CONTINUOUS
10
0.8863188976377953
20
2.6417322834645667
11
0.8825523228346457
21
2.6424814960629921
0
LINE
8
BLACK
6
CONTINUOUS
10
0.8825523228346457
20
2.6424814960629921
11
0.8793591732283464
21
2.6446150787401574
0
LINE
8
BLACK
6
CONTINUOUS
10
0.8793591732283464
20
2.6446150787401574
11
0.8772255905511811
21
2.6478082283464568
0
LINE
8
BLACK
6
CONTINUOUS
10
0.8772255905511811
20
2.6478082283464568
11
0.8764763779527559
21
2.651574803149606
0
LINE
8
BLACK
6
CONTINUOUS
10
0.8764763779527559
20
2.651574803149606
11
0.8764763779527559
21
2.6870078740157481
0
LINE
8
BLACK
6
CONTINUOUS
10
0.8764763779527559
20
2.6870078740157481
11
0.8772255905511811
21
2.6907744488188974
0
LINE
8
BLACK
6
CONTINUOUS
10
0.8772255905511811
20
2.6907744488188974
11
0.8793591732283464
21
2.6939675984251967
0
LINE
8
BLACK
6
CONTINUOUS
10
0.8793591732283464
20
2.6939675984251967
11
0.8825523228346457
21
2.6961011811023621
0
LINE
8
BLACK
6
CONTINUOUS
10
0.8825523228346457
20
2.6961011811023621
11
0.8863188976377953
21
2.6968503937007875
0
LINE
8
BLACK
6
CONTINUOUS
10
0.8863188976377953
20
2.6968503937007875
11
0.9069881889763779
21
2.6968503937007875
0
LINE
8
BLACK
6
CONTINUOUS
10
0.9069881889763779
20
2.6968503937007875
11
0.9107547637795276
21
2.6961011811023621
0
LINE
8
BLACK
6
CONTINUOUS
10
0.982605157480315
20
2.6961011811023621
11
0.9857983070866142
21
2.6939675984251967
0
LINE
8
BLACK
6
CONTINUOUS
10
0.9857983070866142
20
2.6939675984251967
11
0.9879318897637795
21
2.6907744488188974
0
LINE
8
BLACK
6
CONTINUOUS
10
0.9879318897637795
20
2.6907744488188974
11
0.9886811023622047
21
2.6870078740157481
0
LINE
8
BLACK
6
CONTINUOUS
10
0.9886811023622047
20
2.6870078740157481
11
0.9886811023622047
21
2.651574803149606
0
LINE
8
BLACK
6
CONTINUOUS
10
0.9886811023622047
20
2.651574803149606
11
0.9879318897637795
21
2.6478082283464568
0
LINE
8
BLACK
6
CONTINUOUS
10
0.9879318897637795
20
2.6478082283464568
11
0.9857983070866142
21
2.6446150787401574
0
LINE
8
BLACK
6
CONTINUOUS
10
0.9857983070866142
20
2.6446150787401574
11
0.982605157480315
21
2.6424814960629921
0
LINE
8
BLACK
6
CONTINUOUS
10
0.982605157480315
20
2.6424814960629921
11
0.9788385826771653
21
2.6417322834645667
0
LINE
8
BLACK
6
CONTINUOUS
10
0.9788385826771653
20
2.6417322834645667
11
0.9581692913385826
21
2.6417322834645667
0
LINE
8
BLACK
6
CONTINUOUS
10
0.9581692913385826
20
2.6417322834645667
11
0.9544027165354331
21
2.6424814960629921
0
LINE
8
BLACK
6
CONTINUOUS
10
0.9544027165354331
20
2.6424814960629921
11
0.9512095669291338
21
2.6446150787401574
0
LINE
8
BLACK
6
CONTINUOUS
10
0.9512095669291338
20
2.6446150787401574
11
0.9490759842519685
21
2.6478082283464568
0
LINE
8
BLACK
6
CONTINUOUS
10
0.9490759842519685
20
2.6478082283464568
11
0.9483267716535433
21
2.651574803149606
0
LINE
8
BLACK
6
CONTINUOUS
10
0.9483267716535433
20
2.651574803149606
11
0.9483267716535433
21
2.6870078740157481
0
LINE
8
BLACK
6
CONTINUOUS
10
0.9483267716535433
20
2.6870078740157481
11
0.9490759842519685
21
2.6907744488188974
0
LINE
8
BLACK
6
CONTINUOUS
10
0.9490759842519685
20
2.6907744488188974
11
0.9512095669291338
21
2.6939675984251967
0
LINE
8
BLACK
6
CONTINUOUS
10
0.9512095669291338
20
2.6939675984251967
11
0.9544027165354331
21
2.6961011811023621
0
LINE
8
BLACK
6
CONTINUOUS
10
0.9544027165354331
20
2.6961011811023621
11
0.9581692913385826
21
2.6968503937007875
0
LINE
8
BLACK
6
CONTINUOUS
10
0.9581692913385826
20
2.6968503937007875
11
0.9788385826771653
21
2.6968503937007875
0
LINE
8
BLACK
6
CONTINUOUS
10
0.9788385826771653
20
2.6968503937007875
11
0.982605157480315
21
2.6961011811023621
0
LINE
8
BLACK
6
CONTINUOUS
10
1.0337862598425196
20
2.7984633858267718
11
1.0369794094488189
21
2.7963298031496064
0
LINE
8
BLACK
6
CONTINUOUS
10
1.0369794094488189
20
2.7963298031496064
11
1.0391129921259843
21
2.7931366535433071
0
LINE
8
BLACK
6
CONTINUOUS
10
1.0391129921259843
20
2.7931366535433071
11
1.0398622047244095
21
2.7893700787401574
0
LINE
8
BLACK
6
CONTINUOUS
10
1.0398622047244095
20
2.7893700787401574
11
1.0398622047244095
21
2.7539370078740157
0
LINE
8
BLACK
6
CONTINUOUS
10
1.0398622047244095
20
2.7539370078740157
11
1.0391129921259843
21
2.7501704330708661
0
LINE
8
BLACK
6
CONTINUOUS
10
1.0391129921259843
20
2.7501704330708661
11
1.0369794094488189
21
2.7469772834645667
0
LINE
8
BLACK
6
CONTINUOUS
10
1.0369794094488189
20
2.7469772834645667
11
1.0337862598425196
21
2.7448437007874014
0
LINE
8
BLACK
6
CONTINUOUS
10
1.0337862598425196
20
2.7448437007874014
11
1.0300196850393701
21
2.7440944881889764
0
LINE
8
BLACK
6
CONTINUOUS
10
1.0300196850393701
20
2.7440944881889764
11
1.0093503937007873
21
2.7440944881889764
0
LINE
8
BLACK
6
CONTINUOUS
10
1.0093503937007873
20
2.7440944881889764
11
1.0055838188976378
21
2.7448437007874014
0
LINE
8
BLACK
6
CONTINUOUS
10
1.0055838188976378
20
2.7448437007874014
11
1.0023906692913385
21
2.7469772834645667
0
LINE
8
BLACK
6
CONTINUOUS
10
1.0023906692913385
20
2.7469772834645667
11
1.0002570866141731
21
2.7501704330708661
0
LINE
8
BLACK
6
CONTINUOUS
10
1.0002570866141731
20
2.7501704330708661
11
0.999507874015748
21
2.7539370078740157
0
LINE
8
BLACK
6
CONTINUOUS
10
0.999507874015748
20
2.7539370078740157
11
0.999507874015748
21
2.7893700787401574
0
LINE
8
BLACK
6
CONTINUOUS
10
0.999507874015748
20
2.7893700787401574
11
1.0002570866141731
21
2.7931366535433071
0
LINE
8
BLACK
6
CONTINUOUS
10
1.0002570866141731
20
2.7931366535433071
11
1.0023906692913385
21
2.7963298031496064
0
LINE
8
BLACK
6
CONTINUOUS
10
1.0023906692913385
20
2.7963298031496064
11
1.0055838188976378
21
2.7984633858267718
0
LINE
8
BLACK
6
CONTINUOUS
10
1.0055838188976378
20
2.7984633858267718
11
1.0093503937007873
21
2.7992125984251968
0
LINE
8
BLACK
6
CONTINUOUS
10
1.0093503937007873
20
2.7992125984251968
11
1.0300196850393701
21
2.7992125984251968
0
LINE
8
BLACK
6
CONTINUOUS
10
1.0300196850393701
20
2.7992125984251968
11
1.0337862598425196
21
2.7984633858267718
0
LINE
8
BLACK
6
CONTINUOUS
10
1.1056366535433071
20
2.7984633858267718
11
1.1088298031496062
21
2.7963298031496064
0
LINE
8
BLACK
6
CONTINUOUS
10
1.1088298031496062
20
2.7963298031496064
11
1.1109633858267716
21
2.7931366535433071
0
LINE
8
BLACK
6
CONTINUOUS
10
1.1109633858267716
20
2.7931366535433071
11
1.1117125984251968
21
2.7893700787401574
0
LINE
8
BLACK
6
CONTINUOUS
10
1.1117125984251968
20
2.7893700787401574
11
1.1117125984251968
21
2.7539370078740157
0
LINE
8
BLACK
6
CONTINUOUS
10
1.1117125984251968
20
2.7539370078740157
11
1.1109633858267716
21
2.7501704330708661
0
LINE
8
BLACK
6
CONTINUOUS
10
1.1109633858267716
20
2.7501704330708661
11
1.1088298031496062
21
2.7469772834645667
0
LINE
8
BLACK
6
CONTINUOUS
10
1.1088298031496062
20
2.7469772834645667
11
1.1056366535433071
21
2.7448437007874014
0
LINE
8
BLACK
6
CONTINUOUS
10
1.1056366535433071
20
2.7448437007874014
11
1.1018700787401574
21
2.7440944881889764
0
LINE
8
BLACK
6
CONTINUOUS
10
1.1018700787401574
20
2.7440944881889764
11
1.0812007874015748
21
2.7440944881889764
0
LINE
8
BLACK
6
CONTINUOUS
10
1.0812007874015748
20
2.7440944881889764
11
1.0774342125984251
21
2.7448437007874014
0
LINE
8
BLACK
6
CONTINUOUS
10
1.0774342125984251
20
2.7448437007874014
11
1.074241062992126
21
2.7469772834645667
0
LINE
8
BLACK
6
CONTINUOUS
10
1.074241062992126
20
2.7469772834645667
11
1.0721074803149606
21
2.7501704330708661
0
LINE
8
BLACK
6
CONTINUOUS
10
1.0721074803149606
20
2.7501704330708661
11
1.0713582677165354
21
2.7539370078740157
0
LINE
8
BLACK
6
CONTINUOUS
10
1.0713582677165354
20
2.7539370078740157
11
1.0713582677165354
21
2.7893700787401574
0
LINE
8
BLACK
6
CONTINUOUS
10
1.0713582677165354
20
2.7893700787401574
11
1.0721074803149606
21
2.7931366535433071
0
LINE
8
BLACK
6
CONTINUOUS
10
1.0721074803149606
20
2.7931366535433071
11
1.074241062992126
21
2.7963298031496064
0
LINE
8
BLACK
6
CONTINUOUS
10
1.074241062992126
20
2.7963298031496064
11
1.0774342125984251
21
2.7984633858267718
0
LINE
8
BLACK
6
CONTINUOUS
10
1.0774342125984251
20
2.7984633858267718
11
1.0812007874015748
21
2.7992125984251968
0
LINE
8
BLACK
6
CONTINUOUS
10
1.0812007874015748
20
2.7992125984251968
11
1.1018700787401574
21
2.7992125984251968
0
LINE
8
BLACK
6
CONTINUOUS
10
1.1018700787401574
20
2.7992125984251968
11
1.1056366535433071
21
2.7984633858267718
0
LINE
8
BLACK
6
CONTINUOUS
10
1.0337862598425196
20
2.9146051181102361
11
1.0369794094488189
21
2.9124715354330708
0
LINE
8
BLACK
6
CONTINUOUS
10
1.0369794094488189
20
2.9124715354330708
11
1.0391129921259843
21
2.9092783858267715
0
LINE
8
BLACK
6
CONTINUOUS
10
1.0391129921259843
20
2.9092783858267715
11
1.0398622047244095
21
2.9055118110236218
0
LINE
8
BLACK
6
CONTINUOUS
10
1.0398622047244095
20
2.9055118110236218
11
1.0398622047244095
21
2.8700787401574801
0
LINE
8
BLACK
6
CONTINUOUS
10
1.0398622047244095
20
2.8700787401574801
11
1.0391129921259843
21
2.8663121653543309
0
LINE
8
BLACK
6
CONTINUOUS
10
1.0391129921259843
20
2.8663121653543309
11
1.0369794094488189
21
2.8631190157480315
0
LINE
8
BLACK
6
CONTINUOUS
10
1.0369794094488189
20
2.8631190157480315
11
1.0337862598425196
21
2.8609854330708662
0
LINE
8
BLACK
6
CONTINUOUS
10
1.0337862598425196
20
2.8609854330708662
11
1.0300196850393701
21
2.8602362204724407
0
LINE
8
BLACK
6
CONTINUOUS
10
1.0300196850393701
20
2.8602362204724407
11
1.0093503937007873
21
2.8602362204724407
0
LINE
8
BLACK
6
CONTINUOUS
10
1.0093503937007873
20
2.8602362204724407
11
1.0055838188976378
21
2.8609854330708662
0
LINE
8
BLACK
6
CONTINUOUS
10
1.0055838188976378
20
2.8609854330708662
11
1.0023906692913385
21
2.8631190157480315
0
LINE
8
BLACK
6
CONTINUOUS
10
1.0023906692913385
20
2.8631190157480315
11
1.0002570866141731
21
2.8663121653543309
0
LINE
8
BLACK
6
CONTINUOUS
10
1.0002570866141731
20
2.8663121653543309
11
0.999507874015748
21
2.8700787401574801
0
LINE
8
BLACK
6
CONTINUOUS
10
0.999507874015748
20
2.8700787401574801
11
0.999507874015748
21
2.9055118110236218
0
LINE
8
BLACK
6
CONTINUOUS
10
0.999507874015748
20
2.9055118110236218
11
1.0002570866141731
21
2.9092783858267715
0
LINE
8
BLACK
6
CONTINUOUS
10
1.0002570866141731
20
2.9092783858267715
11
1.0023906692913385
21
2.9124715354330708
0
LINE
8
BLACK
6
CONTINUOUS
10
1.0023906692913385
20
2.9124715354330708
11
1.0055838188976378
21
2.9146051181102361
0
LINE
8
BLACK
6
CONTINUOUS
10
1.0055838188976378
20
2.9146051181102361
11
1.0093503937007873
21
2.9153543307086616
0
LINE
8
BLACK
6
CONTINUOUS
10
1.0093503937007873
20
2.9153543307086616
11
1.0300196850393701
21
2.9153543307086616
0
LINE
8
BLACK
6
CONTINUOUS
10
1.0300196850393701
20
2.9153543307086616
11
1.0337862598425196
21
2.9146051181102361
0
LINE
8
BLACK
6
CONTINUOUS
10
1.1056366535433071
20
2.9146051181102361
11
1.1088298031496062
21
2.9124715354330708
0
LINE
8
BLACK
6
CONTINUOUS
10
1.1088298031496062
20
2.9124715354330708
11
1.1109633858267716
21
2.9092783858267715
0
LINE
8
BLACK
6
CONTINUOUS
10
1.1109633858267716
20
2.9092783858267715
11
1.1117125984251968
21
2.9055118110236218
0
LINE
8
BLACK
6
CONTINUOUS
10
1.1117125984251968
20
2.9055118110236218
11
1.1117125984251968
21
2.8700787401574801
0
LINE
8
BLACK
6
CONTINUOUS
10
1.1117125984251968
20
2.8700787401574801
11
1.1109633858267716
21
2.8663121653543309
0
LINE
8
BLACK
6
CONTINUOUS
10
1.1109633858267716
20
2.8663121653543309
11
1.1088298031496062
21
2.8631190157480315
0
LINE
8
BLACK
6
CONTINUOUS
10
1.1088298031496062
20
2.8631190157480315
11
1.1056366535433071
21
2.8609854330708662
0
LINE
8
BLACK
6
CONTINUOUS
10
1.1056366535433071
20
2.8609854330708662
11
1.1018700787401574
21
2.8602362204724407
0
LINE
8
BLACK
6
CONTINUOUS
10
1.1018700787401574
20
2.8602362204724407
11
1.0812007874015748
21
2.8602362204724407
0
LINE
8
BLACK
6
CONTINUOUS
10
1.0812007874015748
20
2.8602362204724407
11
1.0774342125984251
21
2.8609854330708662
0
LINE
8
BLACK
6
CONTINUOUS
10
1.0774342125984251
20
2.8609854330708662
11
1.074241062992126
21
2.8631190157480315
0
LINE
8
BLACK
6
CONTINUOUS
10
1.074241062992126
20
2.8631190157480315
11
1.0721074803149606
21
2.8663121653543309
0
LINE
8
BLACK
6
CONTINUOUS
10
1.0721074803149606
20
2.8663121653543309
11
1.0713582677165354
21
2.8700787401574801
0
LINE
8
BLACK
6
CONTINUOUS
10
1.0713582677165354
20
2.8700787401574801
11
1.0713582677165354
21
2.9055118110236218
0
LINE
8
BLACK
6
CONTINUOUS
10
1.0713582677165354
20
2.9055118110236218
11
1.0721074803149606
21
2.9092783858267715
0
LINE
8
BLACK
6
CONTINUOUS
10
1.0721074803149606
20
2.9092783858267715
11
1.074241062992126
21
2.9124715354330708
0
LINE
8
BLACK
6
CONTINUOUS
10
1.074241062992126
20
2.9124715354330708
11
1.0774342125984251
21
2.9146051181102361
0
LINE
8
BLACK
6
CONTINUOUS
10
1.0774342125984251
20
2.9146051181102361
11
1.0812007874015748
21
2.9153543307086616
0
LINE
8
BLACK
6
CONTINUOUS
10
1.0812007874015748
20
2.9153543307086616
11
1.1018700787401574
21
2.9153543307086616
0
LINE
8
BLACK
6
CONTINUOUS
10
1.1018700787401574
20
2.9153543307086616
11
1.1056366535433071
21
2.9146051181102361
0
LINE
8
BLACK
6
CONTINUOUS
10
0.6946061417322834
20
2.9817640157480314
11
0.6968200787401575
21
2.9802847244094486
0
LINE
8
BLACK
6
CONTINUOUS
10
0.6968200787401575
20
2.9802847244094486
11
0.6982993700787401
21
2.9780707874015748
0
LINE
8
BLACK
6
CONTINUOUS
10
0.6982993700787401
20
2.9780707874015748
11
0.6988188188976378
21
2.9754592913385824
0
LINE
8
BLACK
6
CONTINUOUS
10
0.6988188188976378
20
2.9754592913385824
11
0.6988188188976378
21
2.9300525196850393
0
LINE
8
BLACK
6
CONTINUOUS
10
0.6988188188976378
20
2.9300525196850393
11
0.6982993700787401
21
2.9274410236220474
0
LINE
8
BLACK
6
CONTINUOUS
10
0.6982993700787401
20
2.9274410236220474
11
0.6968200787401575
21
2.9252270866141732
0
LINE
8
BLACK
6
CONTINUOUS
10
0.6968200787401575
20
2.9252270866141732
11
0.6946061417322834
21
2.9237477952755904
0
LINE
8
BLACK
6
CONTINUOUS
10
0.6946061417322834
20
2.9237477952755904
11
0.6919946456692914
21
2.923228346456693
0
LINE
8
BLACK
6
CONTINUOUS
10
0.6919946456692914
20
2.923228346456693
11
0.6544618897637795
21
2.923228346456693
0
LINE
8
BLACK
6
CONTINUOUS
10
0.6544618897637795
20
2.923228346456693
11
0.6518503937007873
21
2.9237477952755904
0
LINE
8
BLACK
6
CONTINUOUS
10
0.6518503937007873
20
2.9237477952755904
11
0.6496364566929134
21
2.9252270866141732
0
LINE
8
BLACK
6
CONTINUOUS
10
0.6496364566929134
20
2.9252270866141732
11
0.6481571653543307
21
2.9274410236220474
0
LINE
8
BLACK
6
CONTINUOUS
10
0.6481571653543307
20
2.9274410236220474
11
0.647637716535433
21
2.9300525196850393
0
LINE
8
BLACK
6
CONTINUOUS
10
0.647637716535433
20
2.9300525196850393
11
0.647637716535433
21
2.9754592913385824
0
LINE
8
BLACK
6
CONTINUOUS
10
0.647637716535433
20
2.9754592913385824
11
0.6481571653543307
21
2.9780707874015748
0
LINE
8
BLACK
6
CONTINUOUS
10
0.6481571653543307
20
2.9780707874015748
11
0.6496364566929134
21
2.9802847244094486
0
LINE
8
BLACK
6
CONTINUOUS
10
0.6496364566929134
20
2.9802847244094486
11
0.6518503937007873
21
2.9817640157480314
0
LINE
8
BLACK
6
CONTINUOUS
10
0.6518503937007873
20
2.9817640157480314
11
0.6544618897637795
21
2.9822834645669292
0
LINE
8
BLACK
6
CONTINUOUS
10
0.6544618897637795
20
2.9822834645669292
11
0.6919946456692914
21
2.9822834645669292
0
LINE
8
BLACK
6
CONTINUOUS
10
0.6919946456692914
20
2.9822834645669292
11
0.6946061417322834
21
2.9817640157480314
0
LINE
8
BLACK
6
CONTINUOUS
10
0.8284644881889763
20
2.9817640157480314
11
0.8306784251968504
21
2.9802847244094486
0
LINE
8
BLACK
6
CONTINUOUS
10
0.8306784251968504
20
2.9802847244094486
11
0.832157716535433
21
2.9780707874015748
0
LINE
8
BLACK
6
CONTINUOUS
10
0.832157716535433
20
2.9780707874015748
11
0.8326771653543307
21
2.9754592913385824
0
LINE
8
BLACK
6
CONTINUOUS
10
0.8326771653543307
20
2.9754592913385824
11
0.8326771653543307
21
2.9300525196850393
0
LINE
8
BLACK
6
CONTINUOUS
10
0.8326771653543307
20
2.9300525196850393
11
0.832157716535433
21
2.9274410236220474
0
LINE
8
BLACK
6
CONTINUOUS
10
0.832157716535433
20
2.9274410236220474
11
0.8306784251968504
21
2.9252270866141732
0
LINE
8
BLACK
6
CONTINUOUS
10
0.8306784251968504
20
2.9252270866141732
11
0.8284644881889763
21
2.9237477952755904
0
LINE
8
BLACK
6
CONTINUOUS
10
0.8284644881889763
20
2.9237477952755904
11
0.8258529921259843
21
2.923228346456693
0
LINE
8
BLACK
6
CONTINUOUS
10
0.8258529921259843
20
2.923228346456693
11
0.7883202362204724
21
2.923228346456693
0
LINE
8
BLACK
6
CONTINUOUS
10
0.7883202362204724
20
2.923228346456693
11
0.7857087401574803
21
2.9237477952755904
0
LINE
8
BLACK
6
CONTINUOUS
10
0.7857087401574803
20
2.9237477952755904
11
0.7834948031496063
21
2.9252270866141732
0
LINE
8
BLACK
6
CONTINUOUS
10
0.7834948031496063
20
2.9252270866141732
11
0.7820155118110236
21
2.9274410236220474
0
LINE
8
BLACK
6
CONTINUOUS
10
0.7820155118110236
20
2.9274410236220474
11
0.7814960629921259
21
2.9300525196850393
0
LINE
8
BLACK
6
CONTINUOUS
10
0.7814960629921259
20
2.9300525196850393
11
0.7814960629921259
21
2.9754592913385824
0
LINE
8
BLACK
6
CONTINUOUS
10
0.7814960629921259
20
2.9754592913385824
11
0.7820155118110236
21
2.9780707874015748
0
LINE
8
BLACK
6
CONTINUOUS
10
0.7820155118110236
20
2.9780707874015748
11
0.7834948031496063
21
2.9802847244094486
0
LINE
8
BLACK
6
CONTINUOUS
10
0.7834948031496063
20
2.9802847244094486
11
0.7857087401574803
21
2.9817640157480314
0
LINE
8
BLACK
6
CONTINUOUS
10
0.7857087401574803
20
2.9817640157480314
11
0.7883202362204724
21
2.9822834645669292
0
LINE
8
BLACK
6
CONTINUOUS
10
0.7883202362204724
20
2.9822834645669292
11
0.8258529921259843
21
2.9822834645669292
0
LINE
8
BLACK
6
CONTINUOUS
10
0.8258529921259843
20
2.9822834645669292
11
0.8284644881889763
21
2.9817640157480314
0
CIRCLE
8
BLACK
10
2.3055118110236221
20
0.4
40
0.0068897637795276
0
CIRCLE
8
BLACK
10
2.3331867716535433
20
0.4668132283464567
40
0.0068897637795276
0
CIRCLE
8
BLACK
10
2.3331867716535433
20
0.3331867716535433
40
0.0068897637795276
0
CIRCLE
8
BLACK
10
2.3999999999999999
20
0.4944881889763779
40
0.0068897637795276
0
CIRCLE
8
BLACK
10
2.3999999999999999
20
0.4
40
0.0068897637795276
0
CIRCLE
8
BLACK
10
2.3999999999999999
20
0.305511811023622
40
0.0068897637795276
0
CIRCLE
8
BLACK
10
2.4668132283464566
20
0.4668132283464567
40
0.0068897637795276
0
CIRCLE
8
BLACK
10
2.4668132283464566
20
0.3331867716535433
40
0.0068897637795276
0
CIRCLE
8
BLACK
10
2.4944881889763777
20
0.4
40
0.0068897637795276
0
CIRCLE
8
BLACK
10
3.192913346456693
20
0.2897637795275591
40
0.0068897637795276
0
CIRCLE
8
BLACK
10
3.0929133464566929
20
0.2897637795275591
40
0.0068897637795276
0
CIRCLE
8
BLACK
10
3.1929133858267718
20
0.389763779527559
40
0.0068897637795276
0
CIRCLE
8
BLACK
10
3.0929133070866142
20
0.389763779527559
40
0.0068897637795276
0
CIRCLE
8
BLACK
10
3.192913346456693
20
0.4897637795275591
40
0.0068897637795276
0
CIRCLE
8
BLACK
10
3.0929133464566929
20
0.4897637795275591
40
0.0068897637795276
0
CIRCLE
8
BLACK
10
-0.5275590944881889
20
0.7070866141732284
40
0.0068897637795276
0
CIRCLE
8
BLACK
10
-0.6275590944881889
20
0.7070866141732284
40
0.0068897637795276
0
CIRCLE
8
BLACK
10
-0.5275590551181102
20
0.8070866141732284
40
0.0068897637795276
0
CIRCLE
8
BLACK
10
-0.6275591338582677
20
0.8070866141732284
40
0.0068897637795276
0
CIRCLE
8
BLACK
10
-0.5275590944881889
20
0.9070866141732283
40
0.0068897637795276
0
CIRCLE
8
BLACK
10
-0.6275590944881889
20
0.9070866141732283
40
0.0068897637795276
0
CIRCLE
8
BLACK
10
0.305511811023622
20
0.4
40
0.0068897637795276
0
CIRCLE
8
BLACK
10
0.3331867716535433
20
0.4668132283464567
40
0.0068897637795276
0
CIRCLE
8
BLACK
10
0.3331867716535433
20
0.3331867716535433
40
0.0068897637795276
0
CIRCLE
8
BLACK
10
0.4
20
0.4944881889763779
40
0.0068897637795276
0
CIRCLE
8
BLACK
10
0.4
20
0.4
40
0.0068897637795276
0
CIRCLE
8
BLACK
10
0.4
20
0.305511811023622
40
0.0068897637795276
0
CIRCLE
8
BLACK
10
0.4668132283464567
20
0.4668132283464567
40
0.0068897637795276
0
CIRCLE
8
BLACK
10
0.4668132283464567
20
0.3331867716535433
40
0.0068897637795276
0
CIRCLE
8
BLACK
10
0.4944881889763779
20
0.4
40
0.0068897637795276
0
CIRCLE
8
BLACK
10
0.305511811023622
20
2.
40
0.0068897637795276
0
CIRCLE
8
BLACK
10
0.3331867716535433
20
2.0668132283464566
40
0.0068897637795276
0
CIRCLE
8
BLACK
10
0.3331867716535433
20
1.9331867716535434
40
0.0068897637795276
0
CIRCLE
8
BLACK
10
0.4
20
2.0944881889763778
40
0.0068897637795276
0
CIRCLE
8
BLACK
10
0.4
20
2.
40
0.0068897637795276
0
CIRCLE
8
BLACK
10
0.4
20
1.905511811023622
40
0.0068897637795276
0
CIRCLE
8
BLACK
10
0.4668132283464567
20
2.0668132283464566
40
0.0068897637795276
0
CIRCLE
8
BLACK
10
0.4668132283464567
20
1.9331867716535434
40
0.0068897637795276
0
CIRCLE
8
BLACK
10
0.4944881889763779
20
2.
40
0.0068897637795276
0
CIRCLE
8
BLACK
10
4.0885826771653546
20
1.3421259842519684
40
0.0068897637795276
0
CIRCLE
8
BLACK
10
4.1885826771653543
20
1.3421259842519684
40
0.0068897637795276
0
CIRCLE
8
BLACK
10
4.0885826771653546
20
1.2421259842519685
40
0.0068897637795276
0
CIRCLE
8
BLACK
10
4.1885826771653543
20
1.2421259842519685
40
0.0068897637795276
0
CIRCLE
8
BLACK
10
4.0885826771653546
20
1.1421259842519684
40
0.0068897637795276
0
CIRCLE
8
BLACK
10
4.1885826771653543
20
1.1421259842519684
40
0.0068897637795276
0
CIRCLE
8
BLACK
10
0.6283464566929133
20
0.3645669291338582
40
0.0068897637795276
0
CIRCLE
8
BLACK
10
0.6283464566929133
20
0.4645669291338583
40
0.0068897637795276
0
CIRCLE
8
BLACK
10
0.7283464566929134
20
0.3645669291338582
40
0.0068897637795276
0
CIRCLE
8
BLACK
10
0.7283464566929134
20
0.4645669291338583
40
0.0068897637795276
0
CIRCLE
8
BLACK
10
0.8283464566929134
20
0.3645669291338582
40
0.0068897637795276
0
CIRCLE
8
BLACK
10
0.8283464566929134
20
0.4645669291338583
40
0.0068897637795276
0
CIRCLE
8
BLACK
10
0.9283464566929134
20
0.3645668897637795
40
0.0068897637795276
0
CIRCLE
8
BLACK
10
0.9283464566929134
20
0.464566968503937
40
0.0068897637795276
0
CIRCLE
8
BLACK
10
1.0283464566929135
20
0.3645669291338582
40
0.0068897637795276
0
CIRCLE
8
BLACK
10
1.0283464566929135
20
0.4645669291338583
40
0.0068897637795276
0
CIRCLE
8
BLACK
10
1.1283464566929133
20
0.3645669291338582
40
0.0068897637795276
0
CIRCLE
8
BLACK
10
1.1283464566929133
20
0.4645669291338583
40
0.0068897637795276
0
CIRCLE
8
BLACK
10
1.2283464566929134
20
0.3645669291338582
40
0.0068897637795276
0
CIRCLE
8
BLACK
10
1.2283464566929134
20
0.4645669291338583
40
0.0068897637795276
0
CIRCLE
8
BLACK
10
1.3283464566929133
20
0.3645669291338582
40
0.0068897637795276
0
CIRCLE
8
BLACK
10
1.3283464566929133
20
0.4645669291338583
40
0.0068897637795276
0
CIRCLE
8
BLACK
10
1.4283464566929134
20
0.3645668897637795
40
0.0068897637795276
0
CIRCLE
8
BLACK
10
1.4283464566929134
20
0.464566968503937
40
0.0068897637795276
0
CIRCLE
8
BLACK
10
1.5283464566929132
20
0.3645669291338582
40
0.0068897637795276
0
CIRCLE
8
BLACK
10
1.5283464566929132
20
0.4645669291338583
40
0.0068897637795276
0
CIRCLE
8
BLACK
10
1.6283464566929133
20
0.3645669291338582
40
0.0068897637795276
0
CIRCLE
8
BLACK
10
1.6283464566929133
20
0.4645669291338583
40
0.0068897637795276
0
CIRCLE
8
BLACK
10
1.7283464566929134
20
0.3645669291338582
40
0.0068897637795276
0
CIRCLE
8
BLACK
10
1.7283464566929134
20
0.4645669291338583
40
0.0068897637795276
0
CIRCLE
8
BLACK
10
0.4188976377952756
20
0.6535433070866141
40
0.0068897637795276
0
CIRCLE
8
BLACK
10
0.3188976377952756
20
0.6535433070866141
40
0.0068897637795276
0
CIRCLE
8
BLACK
10
0.4188976377952756
20
0.7535433070866142
40
0.0068897637795276
0
CIRCLE
8
BLACK
10
0.3188976377952756
20
0.7535433070866142
40
0.0068897637795276
0
CIRCLE
8
BLACK
10
0.4188976377952756
20
0.8535433070866142
40
0.0068897637795276
0
CIRCLE
8
BLACK
10
0.3188976377952756
20
0.8535433070866142
40
0.0068897637795276
0
CIRCLE
8
BLACK
10
0.4188976771653543
20
0.9535433070866142
40
0.0068897637795276
0
CIRCLE
8
BLACK
10
0.3188975984251968
20
0.9535433070866142
40
0.0068897637795276
0
CIRCLE
8
BLACK
10
0.4188976377952756
20
1.0535433070866143
40
0.0068897637795276
0
CIRCLE
8
BLACK
10
0.3188976377952756
20
1.0535433070866143
40
0.0068897637795276
0
CIRCLE
8
BLACK
10
0.4188976377952756
20
1.1535433070866141
40
0.0068897637795276
0
CIRCLE
8
BLACK
10
0.3188976377952756
20
1.1535433070866141
40
0.0068897637795276
0
CIRCLE
8
BLACK
10
0.4188976377952756
20
1.2535433070866142
40
0.0068897637795276
0
CIRCLE
8
BLACK
10
0.3188976377952756
20
1.2535433070866142
40
0.0068897637795276
0
CIRCLE
8
BLACK
10
0.4188976377952756
20
1.3535433070866141
40
0.0068897637795276
0
CIRCLE
8
BLACK
10
0.3188976377952756
20
1.3535433070866141
40
0.0068897637795276
0
CIRCLE
8
BLACK
10
0.4188976771653543
20
1.4535433070866142
40
0.0068897637795276
0
CIRCLE
8
BLACK
10
0.3188975984251968
20
1.4535433070866142
40
0.0068897637795276
0
CIRCLE
8
BLACK
10
0.4188976377952756
20
1.553543307086614
40
0.0068897637795276
0
CIRCLE
8
BLACK
10
0.3188976377952756
20
1.553543307086614
40
0.0068897637795276
0
CIRCLE
8
BLACK
10
0.4188976377952756
20
1.6535433070866141
40
0.0068897637795276
0
CIRCLE
8
BLACK
10
0.3188976377952756
20
1.6535433070866141
40
0.0068897637795276
0
CIRCLE
8
BLACK
10
0.4188976377952756
20
1.7535433070866142
40
0.0068897637795276
0
CIRCLE
8
BLACK
10
0.3188976377952756
20
1.7535433070866142
40
0.0068897637795276
0
CIRCLE
8
BLACK
10
2.3622047244094486
20
1.7488188976377952
40
0.0068897637795276
0
CIRCLE
8
BLACK
10
2.4622047244094487
20
1.7488188976377952
40
0.0068897637795276
0
CIRCLE
8
BLACK
10
2.3622047244094486
20
1.6488188976377953
40
0.0068897637795276
0
CIRCLE
8
BLACK
10
2.4622047244094487
20
1.6488188976377953
40
0.0068897637795276
0
CIRCLE
8
BLACK
10
2.3622047244094486
20
1.5488188976377952
40
0.0068897637795276
0
CIRCLE
8
BLACK
10
2.4622047244094487
20
1.5488188976377952
40
0.0068897637795276
0
CIRCLE
8
BLACK
10
2.3622047244094486
20
1.4488188976377951
40
0.0068897637795276
0
CIRCLE
8
BLACK
10
2.4622047244094487
20
1.4488188976377951
40
0.0068897637795276
0
CIRCLE
8
BLACK
10
2.3622047244094486
20
1.3488188976377953
40
0.0068897637795276
0
CIRCLE
8
BLACK
10
2.4622047244094487
20
1.3488188976377953
40
0.0068897637795276
0
CIRCLE
8
BLACK
10
2.3622047244094486
20
1.2488188976377952
40
0.0068897637795276
0
CIRCLE
8
BLACK
10
2.4622047244094487
20
1.2488188976377952
40
0.0068897637795276
0
CIRCLE
8
BLACK
10
2.3622047244094486
20
1.1488188976377953
40
0.0068897637795276
0
CIRCLE
8
BLACK
10
2.4622047244094487
20
1.1488188976377953
40
0.0068897637795276
0
CIRCLE
8
BLACK
10
2.3622047244094486
20
1.0488188976377952
40
0.0068897637795276
0
CIRCLE
8
BLACK
10
2.4622047244094487
20
1.0488188976377952
40
0.0068897637795276
0
CIRCLE
8
BLACK
10
2.3622047244094486
20
0.9488188976377953
40
0.0068897637795276
0
CIRCLE
8
BLACK
10
2.4622047244094487
20
0.9488188976377953
40
0.0068897637795276
0
CIRCLE
8
BLACK
10
2.3622047244094486
20
0.8488188976377953
40
0.0068897637795276
0
CIRCLE
8
BLACK
10
2.4622047244094487
20
0.8488188976377953
40
0.0068897637795276
0
CIRCLE
8
BLACK
10
2.3622047244094486
20
0.7488188976377953
40
0.0068897637795276
0
CIRCLE
8
BLACK
10
2.4622047244094487
20
0.7488188976377953
40
0.0068897637795276
0
CIRCLE
8
BLACK
10
2.3622047244094486
20
0.6488188976377952
40
0.0068897637795276
0
CIRCLE
8
BLACK
10
2.4622047244094487
20
0.6488188976377952
40
0.0068897637795276
0
CIRCLE
8
BLACK
10
2.1535432677165356
20
0.8944881889763779
40
0.0068897637795276
0
CIRCLE
8
BLACK
10
2.0535432677165355
20
0.8944881889763779
40
0.0068897637795276
0
CIRCLE
8
BLACK
10
2.1535432677165356
20
0.9944881889763779
40
0.0068897637795276
0
CIRCLE
8
BLACK
10
2.0535432677165355
20
0.9944881889763779
40
0.0068897637795276
0
CIRCLE
8
BLACK
10
2.1535433070866143
20
1.094488188976378
40
0.0068897637795276
0
CIRCLE
8
BLACK
10
2.0535432283464568
20
1.094488188976378
40
0.0068897637795276
0
CIRCLE
8
BLACK
10
2.1535432677165356
20
1.1944881889763779
40
0.0068897637795276
0
CIRCLE
8
BLACK
10
2.0535432677165355
20
1.1944881889763779
40
0.0068897637795276
0
CIRCLE
8
BLACK
10
2.1535432677165356
20
1.294488188976378
40
0.0068897637795276
0
CIRCLE
8
BLACK
10
2.0535432677165355
20
1.294488188976378
40
0.0068897637795276
0
CIRCLE
8
BLACK
10
2.3055118110236221
20
2.
40
0.0068897637795276
0
CIRCLE
8
BLACK
10
2.3331867716535433
20
2.0668132283464566
40
0.0068897637795276
0
CIRCLE
8
BLACK
10
2.3331867716535433
20
1.9331867716535434
40
0.0068897637795276
0
CIRCLE
8
BLACK
10
2.3999999999999999
20
2.0944881889763778
40
0.0068897637795276
0
CIRCLE
8
BLACK
10
2.3999999999999999
20
2.
40
0.0068897637795276
0
CIRCLE
8
BLACK
10
2.3999999999999999
20
1.905511811023622
40
0.0068897637795276
0
CIRCLE
8
BLACK
10
2.4668132283464566
20
2.0668132283464566
40
0.0068897637795276
0
CIRCLE
8
BLACK
10
2.4668132283464566
20
1.9331867716535434
40
0.0068897637795276
0
CIRCLE
8
BLACK
10
2.4944881889763777
20
2.
40
0.0068897637795276
0
CIRCLE
8
BLACK
10
2.1456692913385824
20
0.4724409448818898
40
0.0068897637795276
0
CIRCLE
8
BLACK
10
1.918110157480315
20
0.4724409448818898
40
0.0068897637795276
0
LINE
8
BLACK
6
CONTINUOUS
10
2.2137794881889765
20
0.3118110236220472
11
2.2137794881889765
21
0.3433070866141732
0
ARC
8
BLACK
10
2.2019684645669293
20
0.3433070866141732
40
0.0118110236220472
50
0.00000000
51
180.00000000
0
LINE
8
BLACK
6
CONTINUOUS
10
2.1901574409448816
20
0.3433070866141732
11
2.1901574409448816
21
0.3118110236220472
0
ARC
8
BLACK
10
2.2019684645669293
20
0.3118110236220472
40
0.0118110236220472
50
180.00000000
51
360.00000000
0
LINE
8
BLACK
6
CONTINUOUS
10
1.8736220078740158
20
0.3118110236220472
11
1.8736220078740158
21
0.3433070866141732
0
ARC
8
BLACK
10
1.8618109842519686
20
0.3433070866141732
40
0.0118110236220472
50
0.00000000
51
180.00000000
0
LINE
8
BLACK
6
CONTINUOUS
10
1.8499999606299211
20
0.3433070866141732
11
1.8499999606299211
21
0.3118110236220472
0
ARC
8
BLACK
10
1.8618109842519686
20
0.3118110236220472
40
0.0118110236220472
50
180.00000000
51
360.00000000
0
LINE
8
BLACK
6
CONTINUOUS
10
2.2137794881889765
20
0.4704724409448819
11
2.2137794881889765
21
0.5137795275590551
0
ARC
8
BLACK
10
2.2019684645669293
20
0.5137795275590551
40
0.0118110236220472
50
0.00000000
51
180.00000000
0
LINE
8
BLACK
6
CONTINUOUS
10
2.1901574409448816
20
0.5137795275590551
11
2.1901574409448816
21
0.4704724409448819
0
ARC
8
BLACK
10
2.2019684645669293
20
0.4704724409448819
40
0.0118110236220472
50
180.00000000
51
360.00000000
0
LINE
8
BLACK
6
CONTINUOUS
10
1.8736220078740158
20
0.4704724409448819
11
1.8736220078740158
21
0.5137795275590551
0
ARC
8
BLACK
10
1.8618109842519686
20
0.5137795275590551
40
0.0118110236220472
50
0.00000000
51
180.00000000
0
LINE
8
BLACK
6
CONTINUOUS
10
1.8499999606299211
20
0.5137795275590551
11
1.8499999606299211
21
0.4704724409448819
0
ARC
8
BLACK
10
1.8618109842519686
20
0.4704724409448819
40
0.0118110236220472
50
180.00000000
51
360.00000000
0
LINE
8
BLACK
6
CONTINUOUS
10
0.8996062204724409
20
2.0570866141732282
11
0.8996062204724409
21
2.076771653543307
0
ARC
8
BLACK
10
0.8622046850393701
20
2.076771653543307
40
0.0374015354330709
50
0.00000000
51
180.00000000
0
LINE
8
BLACK
6
CONTINUOUS
10
0.8248031496062992
20
2.076771653543307
11
0.8248031496062992
21
2.0570866141732282
0
ARC
8
BLACK
10
0.8622046850393701
20
2.0570866141732282
40
0.0374015354330709
50
180.00000000
51
360.00000000
0
LINE
8
BLACK
6
CONTINUOUS
10
0.7775589763779528
20
2.9429133858267718
11
0.7775589763779528
21
2.9625984251968505
0
ARC
8
BLACK
10
0.7401574409448819
20
2.9625984251968505
40
0.0374015354330709
50
0.00000000
51
180.00000000
0
LINE
8
BLACK
6
CONTINUOUS
10
0.702755905511811
20
2.9625984251968505
11
0.702755905511811
21
2.9429133858267718
0
ARC
8
BLACK
10
0.7401574409448819
20
2.9429133858267718
40
0.0374015354330709
50
180.00000000
51
360.00000000
  0
ENDSEC
  0
EOF
