%TF.GenerationSoftware,KiCad,Pcbnew,9.0.6+1*%
%TF.CreationDate,2026-01-27T23:35:09+00:00*%
%TF.ProjectId,ESP32Sx01,45535033-3253-4783-9031-2e6b69636164,rev?*%
%TF.SameCoordinates,Original*%
%TF.FileFunction,Copper,L1,Top*%
%TF.FilePolarity,Positive*%
%FSLAX46Y46*%
G04 Gerber Fmt 4.6, Leading zero omitted, Abs format (unit mm)*
G04 Created by KiCad (PCBNEW 9.0.6+1) date 2026-01-27 23:35:09*
%MOMM*%
%LPD*%
G01*
G04 APERTURE LIST*
%TA.AperFunction,ComponentPad*%
%ADD10C,0.800000*%
%TD*%
%TA.AperFunction,ComponentPad*%
%ADD11C,6.400000*%
%TD*%
%TA.AperFunction,ComponentPad*%
%ADD12R,1.524000X1.524000*%
%TD*%
%TA.AperFunction,ComponentPad*%
%ADD13O,1.000000X2.000000*%
%TD*%
%TA.AperFunction,ComponentPad*%
%ADD14O,1.050000X2.100000*%
%TD*%
%TA.AperFunction,Conductor*%
%ADD15C,0.400000*%
%TD*%
G04 APERTURE END LIST*
D10*
%TO.P,H4,1,1*%
%TO.N,GND*%
X58560000Y10160000D03*
X59262944Y11857056D03*
X59262944Y8462944D03*
X60960000Y12560000D03*
D11*
X60960000Y10160000D03*
D10*
X60960000Y7760000D03*
X62657056Y11857056D03*
X62657056Y8462944D03*
X63360000Y10160000D03*
%TD*%
D12*
%TO.P,J1,1*%
%TO.N,GND*%
X81099999Y7360000D03*
%TO.P,J1,2*%
X78559999Y7360000D03*
%TO.P,J1,3*%
%TO.N,+5V*%
X81100000Y9900000D03*
%TO.P,J1,4*%
X78559998Y9900000D03*
%TO.P,J1,5*%
%TO.N,GND*%
X81099999Y12440000D03*
%TO.P,J1,6*%
X78559999Y12440000D03*
%TD*%
%TO.P,J6,1*%
%TO.N,GND*%
X-13400001Y17960000D03*
%TO.P,J6,2*%
X-15940001Y17960000D03*
%TO.P,J6,3*%
%TO.N,+3V3*%
X-13400000Y20500000D03*
%TO.P,J6,4*%
X-15940002Y20500000D03*
%TO.P,J6,5*%
%TO.N,GND*%
X-13400001Y23040000D03*
%TO.P,J6,6*%
X-15940001Y23040000D03*
%TD*%
D10*
%TO.P,H3,1,1*%
%TO.N,GND*%
X7760000Y10160000D03*
X8462944Y11857056D03*
X8462944Y8462944D03*
X10160000Y12560000D03*
D11*
X10160000Y10160000D03*
D10*
X10160000Y7760000D03*
X11857056Y11857056D03*
X11857056Y8462944D03*
X12560000Y10160000D03*
%TD*%
%TO.P,H1,1,1*%
%TO.N,GND*%
X7760000Y50800000D03*
X8462944Y52497056D03*
X8462944Y49102944D03*
X10160000Y53200000D03*
D11*
X10160000Y50800000D03*
D10*
X10160000Y48400000D03*
X11857056Y52497056D03*
X11857056Y49102944D03*
X12560000Y50800000D03*
%TD*%
D12*
%TO.P,J7,1*%
%TO.N,GND*%
X103850000Y34090000D03*
%TO.P,J7,2*%
X106390000Y34090000D03*
%TO.P,J7,3*%
%TO.N,+3V3*%
X103850000Y31550000D03*
%TO.P,J7,4*%
X106390000Y31550000D03*
%TO.P,J7,5*%
%TO.N,GND*%
X103850000Y29010000D03*
%TO.P,J7,6*%
X106390000Y29010000D03*
%TD*%
%TO.P,J4,1*%
%TO.N,Net-(J4-Pad1)*%
X15960000Y9260000D03*
%TO.P,J4,2*%
X15960000Y11800000D03*
%TO.P,J4,3*%
%TO.N,Net-(J4-Pad3)*%
X18500000Y9260000D03*
%TO.P,J4,4*%
X18500000Y11800000D03*
%TO.P,J4,5*%
%TO.N,Net-(J4-Pad5)*%
X21040000Y9260000D03*
%TO.P,J4,6*%
X21040000Y11800000D03*
%TO.P,J4,7*%
%TO.N,Net-(J4-Pad7)*%
X23580000Y9259999D03*
%TO.P,J4,8*%
X23580000Y11800001D03*
%TO.P,J4,9*%
%TO.N,Net-(J4-Pad10)*%
X26120000Y9260000D03*
%TO.P,J4,10*%
X26120000Y11800000D03*
%TO.P,J4,11*%
%TO.N,Net-(J4-Pad11)*%
X28660000Y9260000D03*
%TO.P,J4,12*%
X28660000Y11800000D03*
%TO.P,J4,13*%
%TO.N,Net-(J4-Pad13)*%
X31200000Y9260000D03*
%TO.P,J4,14*%
X31200000Y11800000D03*
%TO.P,J4,15*%
%TO.N,Net-(J4-Pad15)*%
X33740000Y9260000D03*
%TO.P,J4,16*%
X33740000Y11800000D03*
%TO.P,J4,17*%
%TO.N,Net-(J4-Pad17)*%
X36280000Y9259999D03*
%TO.P,J4,18*%
X36280000Y11800001D03*
%TO.P,J4,19*%
%TO.N,Net-(J4-Pad19)*%
X38820000Y9260000D03*
%TO.P,J4,20*%
X38820000Y11800000D03*
%TO.P,J4,21*%
%TO.N,Net-(J4-Pad21)*%
X41360000Y9260000D03*
%TO.P,J4,22*%
X41360000Y11800000D03*
%TO.P,J4,23*%
%TO.N,Net-(J4-Pad23)*%
X43900000Y9260000D03*
%TO.P,J4,24*%
X43900000Y11800000D03*
%TD*%
%TO.P,J5,1*%
%TO.N,/GPIO35*%
X10640000Y16600000D03*
%TO.P,J5,2*%
X8100000Y16600000D03*
%TO.P,J5,3*%
%TO.N,/GPIO36*%
X10640000Y19140000D03*
%TO.P,J5,4*%
X8100000Y19140000D03*
%TO.P,J5,5*%
%TO.N,/GPIO37*%
X10640000Y21680000D03*
%TO.P,J5,6*%
X8100000Y21680000D03*
%TO.P,J5,7*%
%TO.N,/GPIO38*%
X10640001Y24220000D03*
%TO.P,J5,8*%
X8099999Y24220000D03*
%TO.P,J5,9*%
%TO.N,/GPIO39*%
X10640000Y26760000D03*
%TO.P,J5,10*%
X8100000Y26760000D03*
%TO.P,J5,11*%
%TO.N,/GPIO40*%
X10640000Y29300000D03*
%TO.P,J5,12*%
X8100000Y29300000D03*
%TO.P,J5,13*%
%TO.N,/GPIO41*%
X10640000Y31840000D03*
%TO.P,J5,14*%
X8100000Y31840000D03*
%TO.P,J5,15*%
%TO.N,/GPIO42*%
X10640000Y34380000D03*
%TO.P,J5,16*%
X8100000Y34380000D03*
%TO.P,J5,17*%
%TO.N,/GPIO43*%
X10640001Y36920000D03*
%TO.P,J5,18*%
X8099999Y36920000D03*
%TO.P,J5,19*%
%TO.N,/GPIO44*%
X10640000Y39460000D03*
%TO.P,J5,20*%
X8100000Y39460000D03*
%TO.P,J5,21*%
%TO.N,/GPIO45*%
X10640000Y42000000D03*
%TO.P,J5,22*%
X8100000Y42000000D03*
%TO.P,J5,23*%
%TO.N,/GPIO46*%
X10640000Y44540000D03*
%TO.P,J5,24*%
X8100000Y44540000D03*
%TD*%
%TO.P,J3,1*%
%TO.N,/GPIO0_BOOT*%
X60000000Y44420000D03*
%TO.P,J3,2*%
X62540000Y44420000D03*
%TO.P,J3,3*%
%TO.N,/GPIO1*%
X60000000Y41880000D03*
%TO.P,J3,4*%
X62540000Y41880000D03*
%TO.P,J3,5*%
%TO.N,/GPIO2*%
X60000000Y39340000D03*
%TO.P,J3,6*%
X62540000Y39340000D03*
%TO.P,J3,7*%
%TO.N,/GPIO3*%
X60000000Y36800000D03*
%TO.P,J3,8*%
X62540000Y36800000D03*
%TO.P,J3,9*%
%TO.N,/GPIO4*%
X60000000Y34260000D03*
%TO.P,J3,10*%
X62540000Y34260000D03*
%TO.P,J3,11*%
%TO.N,/GPIO5*%
X60000000Y31720000D03*
%TO.P,J3,12*%
X62540000Y31720000D03*
%TO.P,J3,13*%
%TO.N,/GPIO6*%
X60000000Y29180000D03*
%TO.P,J3,14*%
X62540000Y29180000D03*
%TO.P,J3,15*%
%TO.N,/GPIO7*%
X60000000Y26640000D03*
%TO.P,J3,16*%
X62540000Y26640000D03*
%TO.P,J3,17*%
%TO.N,/GPIO8*%
X60000000Y24100000D03*
%TO.P,J3,18*%
X62540000Y24100000D03*
%TO.P,J3,19*%
%TO.N,/GPIO9*%
X60000000Y21560000D03*
%TO.P,J3,20*%
X62540000Y21560000D03*
%TO.P,J3,21*%
%TO.N,/CS*%
X60000000Y19020000D03*
%TO.P,J3,22*%
X62540000Y19020000D03*
%TO.P,J3,23*%
%TO.N,/GPIO11*%
X60000000Y16480000D03*
%TO.P,J3,24*%
X62540000Y16480000D03*
%TD*%
%TO.P,J8,1*%
%TO.N,GND*%
X54699999Y22720000D03*
%TO.P,J8,2*%
X52159999Y22720000D03*
%TO.P,J8,3*%
%TO.N,/GPIO9*%
X54699999Y25260000D03*
%TO.P,J8,4*%
X52159999Y25260000D03*
%TO.P,J8,5*%
%TO.N,+3V3*%
X54700000Y27800000D03*
%TO.P,J8,6*%
X52159998Y27800000D03*
%TO.P,J8,7*%
%TO.N,/GPIO8*%
X54699999Y30340000D03*
%TO.P,J8,8*%
X52159999Y30340000D03*
%TO.P,J8,9*%
%TO.N,GND*%
X54699999Y32880000D03*
%TO.P,J8,10*%
X52159999Y32880000D03*
%TD*%
D10*
%TO.P,H2,1,1*%
%TO.N,GND*%
X58560000Y50800000D03*
X59262944Y52497056D03*
X59262944Y49102944D03*
X60960000Y53200000D03*
D11*
X60960000Y50800000D03*
D10*
X60960000Y48400000D03*
X62657056Y52497056D03*
X62657056Y49102944D03*
X63360000Y50800000D03*
%TD*%
D13*
%TO.P,J2,G1,SHIELD*%
%TO.N,GND*%
X55929999Y8320000D03*
%TO.P,J2,G2,SHIELD*%
X47289999Y8320000D03*
D14*
%TO.P,J2,G3,SHIELD*%
X55929999Y12500000D03*
%TO.P,J2,G4,SHIELD*%
X47289999Y12500000D03*
%TD*%
D15*
%TO.N,/GPIO0_BOOT*%
X62540000Y44420000D02*
X60000000Y44420000D01*
%TO.N,/GPIO11*%
X60000000Y16480000D02*
X62540000Y16480000D01*
%TO.N,/GPIO1*%
X60000000Y41880000D02*
X62540000Y41880000D01*
%TO.N,/GPIO4*%
X62540000Y34260000D02*
X60000000Y34260000D01*
%TO.N,/GPIO2*%
X62540000Y39340000D02*
X60000000Y39340000D01*
%TO.N,/CS*%
X60000000Y19020000D02*
X62540000Y19020000D01*
%TD*%
M02*
