%TF.GenerationSoftware,KiCad,Pcbnew,9.0.7+1*%
%TF.CreationDate,2026-02-15T02:31:01+00:00*%
%TF.ProjectId,ESP32Sx01,45535033-3253-4783-9031-2e6b69636164,rev?*%
%TF.SameCoordinates,Original*%
%TF.FileFunction,Legend,Top*%
%TF.FilePolarity,Positive*%
%FSLAX46Y46*%
G04 Gerber Fmt 4.6, Leading zero omitted, Abs format (unit mm)*
G04 Created by KiCad (PCBNEW 9.0.7+1) date 2026-02-15 02:31:01*
%MOMM*%
%LPD*%
G01*
G04 APERTURE LIST*
%ADD10C,0.100000*%
%ADD11C,0.150000*%
%ADD12C,0.200000*%
%ADD13C,0.050000*%
%ADD14C,0.120000*%
%ADD15R,1.524000X1.524000*%
G04 APERTURE END LIST*
D10*
X34900000Y18200000D02*
X28500000Y18200000D01*
X29450000Y17450000D02*
X28550000Y18150000D01*
X28500000Y18200000D02*
X29400000Y18900000D01*
X28759523Y36850259D02*
X28759523Y38150259D01*
X28759523Y38150259D02*
X29192857Y37221687D01*
X29192857Y37221687D02*
X29626190Y38150259D01*
X29626190Y38150259D02*
X29626190Y36850259D01*
X30864285Y36850259D02*
X30245237Y36850259D01*
X30245237Y36850259D02*
X30245237Y38150259D01*
X31235714Y37221687D02*
X31854761Y37221687D01*
X31111904Y36850259D02*
X31545237Y38150259D01*
X31545237Y38150259D02*
X31978571Y36850259D01*
X32845238Y37531211D02*
X33030952Y37469306D01*
X33030952Y37469306D02*
X33092857Y37407402D01*
X33092857Y37407402D02*
X33154761Y37283592D01*
X33154761Y37283592D02*
X33154761Y37097878D01*
X33154761Y37097878D02*
X33092857Y36974068D01*
X33092857Y36974068D02*
X33030952Y36912163D01*
X33030952Y36912163D02*
X32907142Y36850259D01*
X32907142Y36850259D02*
X32411904Y36850259D01*
X32411904Y36850259D02*
X32411904Y38150259D01*
X32411904Y38150259D02*
X32845238Y38150259D01*
X32845238Y38150259D02*
X32969047Y38088354D01*
X32969047Y38088354D02*
X33030952Y38026449D01*
X33030952Y38026449D02*
X33092857Y37902640D01*
X33092857Y37902640D02*
X33092857Y37778830D01*
X33092857Y37778830D02*
X33030952Y37655021D01*
X33030952Y37655021D02*
X32969047Y37593116D01*
X32969047Y37593116D02*
X32845238Y37531211D01*
X32845238Y37531211D02*
X32411904Y37531211D01*
X33711904Y36974068D02*
X33773809Y36912163D01*
X33773809Y36912163D02*
X33711904Y36850259D01*
X33711904Y36850259D02*
X33650000Y36912163D01*
X33650000Y36912163D02*
X33711904Y36974068D01*
X33711904Y36974068D02*
X33711904Y36850259D01*
X34888095Y36912163D02*
X34764286Y36850259D01*
X34764286Y36850259D02*
X34516667Y36850259D01*
X34516667Y36850259D02*
X34392857Y36912163D01*
X34392857Y36912163D02*
X34330952Y36974068D01*
X34330952Y36974068D02*
X34269048Y37097878D01*
X34269048Y37097878D02*
X34269048Y37469306D01*
X34269048Y37469306D02*
X34330952Y37593116D01*
X34330952Y37593116D02*
X34392857Y37655021D01*
X34392857Y37655021D02*
X34516667Y37716925D01*
X34516667Y37716925D02*
X34764286Y37716925D01*
X34764286Y37716925D02*
X34888095Y37655021D01*
X35321429Y37716925D02*
X36002381Y37716925D01*
X36002381Y37716925D02*
X35321429Y36850259D01*
X35321429Y36850259D02*
X36002381Y36850259D01*
X36559524Y36912163D02*
X36559524Y36850259D01*
X36559524Y36850259D02*
X36497619Y36726449D01*
X36497619Y36726449D02*
X36435715Y36664544D01*
X38045239Y38026449D02*
X38107143Y38088354D01*
X38107143Y38088354D02*
X38230953Y38150259D01*
X38230953Y38150259D02*
X38540477Y38150259D01*
X38540477Y38150259D02*
X38664286Y38088354D01*
X38664286Y38088354D02*
X38726191Y38026449D01*
X38726191Y38026449D02*
X38788096Y37902640D01*
X38788096Y37902640D02*
X38788096Y37778830D01*
X38788096Y37778830D02*
X38726191Y37593116D01*
X38726191Y37593116D02*
X37983334Y36850259D01*
X37983334Y36850259D02*
X38788096Y36850259D01*
X39592857Y38150259D02*
X39716667Y38150259D01*
X39716667Y38150259D02*
X39840476Y38088354D01*
X39840476Y38088354D02*
X39902381Y38026449D01*
X39902381Y38026449D02*
X39964286Y37902640D01*
X39964286Y37902640D02*
X40026191Y37655021D01*
X40026191Y37655021D02*
X40026191Y37345497D01*
X40026191Y37345497D02*
X39964286Y37097878D01*
X39964286Y37097878D02*
X39902381Y36974068D01*
X39902381Y36974068D02*
X39840476Y36912163D01*
X39840476Y36912163D02*
X39716667Y36850259D01*
X39716667Y36850259D02*
X39592857Y36850259D01*
X39592857Y36850259D02*
X39469048Y36912163D01*
X39469048Y36912163D02*
X39407143Y36974068D01*
X39407143Y36974068D02*
X39345238Y37097878D01*
X39345238Y37097878D02*
X39283334Y37345497D01*
X39283334Y37345497D02*
X39283334Y37655021D01*
X39283334Y37655021D02*
X39345238Y37902640D01*
X39345238Y37902640D02*
X39407143Y38026449D01*
X39407143Y38026449D02*
X39469048Y38088354D01*
X39469048Y38088354D02*
X39592857Y38150259D01*
X40521429Y38026449D02*
X40583333Y38088354D01*
X40583333Y38088354D02*
X40707143Y38150259D01*
X40707143Y38150259D02*
X41016667Y38150259D01*
X41016667Y38150259D02*
X41140476Y38088354D01*
X41140476Y38088354D02*
X41202381Y38026449D01*
X41202381Y38026449D02*
X41264286Y37902640D01*
X41264286Y37902640D02*
X41264286Y37778830D01*
X41264286Y37778830D02*
X41202381Y37593116D01*
X41202381Y37593116D02*
X40459524Y36850259D01*
X40459524Y36850259D02*
X41264286Y36850259D01*
X42378571Y38150259D02*
X42130952Y38150259D01*
X42130952Y38150259D02*
X42007143Y38088354D01*
X42007143Y38088354D02*
X41945238Y38026449D01*
X41945238Y38026449D02*
X41821428Y37840735D01*
X41821428Y37840735D02*
X41759524Y37593116D01*
X41759524Y37593116D02*
X41759524Y37097878D01*
X41759524Y37097878D02*
X41821428Y36974068D01*
X41821428Y36974068D02*
X41883333Y36912163D01*
X41883333Y36912163D02*
X42007143Y36850259D01*
X42007143Y36850259D02*
X42254762Y36850259D01*
X42254762Y36850259D02*
X42378571Y36912163D01*
X42378571Y36912163D02*
X42440476Y36974068D01*
X42440476Y36974068D02*
X42502381Y37097878D01*
X42502381Y37097878D02*
X42502381Y37407402D01*
X42502381Y37407402D02*
X42440476Y37531211D01*
X42440476Y37531211D02*
X42378571Y37593116D01*
X42378571Y37593116D02*
X42254762Y37655021D01*
X42254762Y37655021D02*
X42007143Y37655021D01*
X42007143Y37655021D02*
X41883333Y37593116D01*
X41883333Y37593116D02*
X41821428Y37531211D01*
X41821428Y37531211D02*
X41759524Y37407402D01*
X28883334Y34757332D02*
X28883334Y35623998D01*
X28883334Y35376379D02*
X28945239Y35500189D01*
X28945239Y35500189D02*
X29007144Y35562094D01*
X29007144Y35562094D02*
X29130953Y35623998D01*
X29130953Y35623998D02*
X29254763Y35623998D01*
X29873811Y34757332D02*
X29750001Y34819236D01*
X29750001Y34819236D02*
X29688096Y34881141D01*
X29688096Y34881141D02*
X29626192Y35004951D01*
X29626192Y35004951D02*
X29626192Y35376379D01*
X29626192Y35376379D02*
X29688096Y35500189D01*
X29688096Y35500189D02*
X29750001Y35562094D01*
X29750001Y35562094D02*
X29873811Y35623998D01*
X29873811Y35623998D02*
X30059525Y35623998D01*
X30059525Y35623998D02*
X30183334Y35562094D01*
X30183334Y35562094D02*
X30245239Y35500189D01*
X30245239Y35500189D02*
X30307144Y35376379D01*
X30307144Y35376379D02*
X30307144Y35004951D01*
X30307144Y35004951D02*
X30245239Y34881141D01*
X30245239Y34881141D02*
X30183334Y34819236D01*
X30183334Y34819236D02*
X30059525Y34757332D01*
X30059525Y34757332D02*
X29873811Y34757332D01*
X30864286Y34757332D02*
X30864286Y35623998D01*
X30864286Y35500189D02*
X30926191Y35562094D01*
X30926191Y35562094D02*
X31050001Y35623998D01*
X31050001Y35623998D02*
X31235715Y35623998D01*
X31235715Y35623998D02*
X31359524Y35562094D01*
X31359524Y35562094D02*
X31421429Y35438284D01*
X31421429Y35438284D02*
X31421429Y34757332D01*
X31421429Y35438284D02*
X31483334Y35562094D01*
X31483334Y35562094D02*
X31607143Y35623998D01*
X31607143Y35623998D02*
X31792858Y35623998D01*
X31792858Y35623998D02*
X31916667Y35562094D01*
X31916667Y35562094D02*
X31978572Y35438284D01*
X31978572Y35438284D02*
X31978572Y34757332D01*
X33154762Y34757332D02*
X33154762Y35438284D01*
X33154762Y35438284D02*
X33092857Y35562094D01*
X33092857Y35562094D02*
X32969048Y35623998D01*
X32969048Y35623998D02*
X32721429Y35623998D01*
X32721429Y35623998D02*
X32597619Y35562094D01*
X33154762Y34819236D02*
X33030953Y34757332D01*
X33030953Y34757332D02*
X32721429Y34757332D01*
X32721429Y34757332D02*
X32597619Y34819236D01*
X32597619Y34819236D02*
X32535715Y34943046D01*
X32535715Y34943046D02*
X32535715Y35066856D01*
X32535715Y35066856D02*
X32597619Y35190665D01*
X32597619Y35190665D02*
X32721429Y35252570D01*
X32721429Y35252570D02*
X33030953Y35252570D01*
X33030953Y35252570D02*
X33154762Y35314475D01*
X33773809Y35623998D02*
X33773809Y34757332D01*
X33773809Y35500189D02*
X33835714Y35562094D01*
X33835714Y35562094D02*
X33959524Y35623998D01*
X33959524Y35623998D02*
X34145238Y35623998D01*
X34145238Y35623998D02*
X34269047Y35562094D01*
X34269047Y35562094D02*
X34330952Y35438284D01*
X34330952Y35438284D02*
X34330952Y34757332D01*
X34949999Y35252570D02*
X35940476Y35252570D01*
X37116666Y34757332D02*
X37116666Y36057332D01*
X37116666Y34819236D02*
X36992857Y34757332D01*
X36992857Y34757332D02*
X36745238Y34757332D01*
X36745238Y34757332D02*
X36621428Y34819236D01*
X36621428Y34819236D02*
X36559523Y34881141D01*
X36559523Y34881141D02*
X36497619Y35004951D01*
X36497619Y35004951D02*
X36497619Y35376379D01*
X36497619Y35376379D02*
X36559523Y35500189D01*
X36559523Y35500189D02*
X36621428Y35562094D01*
X36621428Y35562094D02*
X36745238Y35623998D01*
X36745238Y35623998D02*
X36992857Y35623998D01*
X36992857Y35623998D02*
X37116666Y35562094D01*
X37611904Y35623998D02*
X37921428Y34757332D01*
X37921428Y34757332D02*
X38230951Y35623998D01*
X38911904Y34757332D02*
X38788094Y34819236D01*
X38788094Y34819236D02*
X38726189Y34881141D01*
X38726189Y34881141D02*
X38664285Y35004951D01*
X38664285Y35004951D02*
X38664285Y35376379D01*
X38664285Y35376379D02*
X38726189Y35500189D01*
X38726189Y35500189D02*
X38788094Y35562094D01*
X38788094Y35562094D02*
X38911904Y35623998D01*
X38911904Y35623998D02*
X39097618Y35623998D01*
X39097618Y35623998D02*
X39221427Y35562094D01*
X39221427Y35562094D02*
X39283332Y35500189D01*
X39283332Y35500189D02*
X39345237Y35376379D01*
X39345237Y35376379D02*
X39345237Y35004951D01*
X39345237Y35004951D02*
X39283332Y34881141D01*
X39283332Y34881141D02*
X39221427Y34819236D01*
X39221427Y34819236D02*
X39097618Y34757332D01*
X39097618Y34757332D02*
X38911904Y34757332D01*
X39902379Y34757332D02*
X39902379Y35623998D01*
X39902379Y35376379D02*
X39964284Y35500189D01*
X39964284Y35500189D02*
X40026189Y35562094D01*
X40026189Y35562094D02*
X40149998Y35623998D01*
X40149998Y35623998D02*
X40273808Y35623998D01*
X41264284Y34757332D02*
X41264284Y35438284D01*
X41264284Y35438284D02*
X41202379Y35562094D01*
X41202379Y35562094D02*
X41078570Y35623998D01*
X41078570Y35623998D02*
X40830951Y35623998D01*
X40830951Y35623998D02*
X40707141Y35562094D01*
X41264284Y34819236D02*
X41140475Y34757332D01*
X41140475Y34757332D02*
X40830951Y34757332D01*
X40830951Y34757332D02*
X40707141Y34819236D01*
X40707141Y34819236D02*
X40645237Y34943046D01*
X40645237Y34943046D02*
X40645237Y35066856D01*
X40645237Y35066856D02*
X40707141Y35190665D01*
X40707141Y35190665D02*
X40830951Y35252570D01*
X40830951Y35252570D02*
X41140475Y35252570D01*
X41140475Y35252570D02*
X41264284Y35314475D01*
X41883331Y34757332D02*
X41883331Y36057332D01*
X42007141Y35252570D02*
X42378569Y34757332D01*
X42378569Y35623998D02*
X41883331Y35128760D01*
D11*
X57024173Y44941702D02*
X56895602Y45015512D01*
X56895602Y45015512D02*
X56702744Y45015512D01*
X56702744Y45015512D02*
X56509887Y44941702D01*
X56509887Y44941702D02*
X56381316Y44794083D01*
X56381316Y44794083D02*
X56317030Y44646464D01*
X56317030Y44646464D02*
X56252744Y44351226D01*
X56252744Y44351226D02*
X56252744Y44129798D01*
X56252744Y44129798D02*
X56317030Y43834560D01*
X56317030Y43834560D02*
X56381316Y43686941D01*
X56381316Y43686941D02*
X56509887Y43539321D01*
X56509887Y43539321D02*
X56702744Y43465512D01*
X56702744Y43465512D02*
X56831316Y43465512D01*
X56831316Y43465512D02*
X57024173Y43539321D01*
X57024173Y43539321D02*
X57088459Y43613131D01*
X57088459Y43613131D02*
X57088459Y44129798D01*
X57088459Y44129798D02*
X56831316Y44129798D01*
X57924173Y45015512D02*
X58052744Y45015512D01*
X58052744Y45015512D02*
X58181316Y44941702D01*
X58181316Y44941702D02*
X58245602Y44867893D01*
X58245602Y44867893D02*
X58309887Y44720274D01*
X58309887Y44720274D02*
X58374173Y44425036D01*
X58374173Y44425036D02*
X58374173Y44055988D01*
X58374173Y44055988D02*
X58309887Y43760750D01*
X58309887Y43760750D02*
X58245602Y43613131D01*
X58245602Y43613131D02*
X58181316Y43539321D01*
X58181316Y43539321D02*
X58052744Y43465512D01*
X58052744Y43465512D02*
X57924173Y43465512D01*
X57924173Y43465512D02*
X57795602Y43539321D01*
X57795602Y43539321D02*
X57731316Y43613131D01*
X57731316Y43613131D02*
X57667030Y43760750D01*
X57667030Y43760750D02*
X57602744Y44055988D01*
X57602744Y44055988D02*
X57602744Y44425036D01*
X57602744Y44425036D02*
X57667030Y44720274D01*
X57667030Y44720274D02*
X57731316Y44867893D01*
X57731316Y44867893D02*
X57795602Y44941702D01*
X57795602Y44941702D02*
X57924173Y45015512D01*
X57024173Y42446289D02*
X56895602Y42520099D01*
X56895602Y42520099D02*
X56702744Y42520099D01*
X56702744Y42520099D02*
X56509887Y42446289D01*
X56509887Y42446289D02*
X56381316Y42298670D01*
X56381316Y42298670D02*
X56317030Y42151051D01*
X56317030Y42151051D02*
X56252744Y41855813D01*
X56252744Y41855813D02*
X56252744Y41634385D01*
X56252744Y41634385D02*
X56317030Y41339147D01*
X56317030Y41339147D02*
X56381316Y41191528D01*
X56381316Y41191528D02*
X56509887Y41043908D01*
X56509887Y41043908D02*
X56702744Y40970099D01*
X56702744Y40970099D02*
X56831316Y40970099D01*
X56831316Y40970099D02*
X57024173Y41043908D01*
X57024173Y41043908D02*
X57088459Y41117718D01*
X57088459Y41117718D02*
X57088459Y41634385D01*
X57088459Y41634385D02*
X56831316Y41634385D01*
X58374173Y40970099D02*
X57602744Y40970099D01*
X57988459Y40970099D02*
X57988459Y42520099D01*
X57988459Y42520099D02*
X57859887Y42298670D01*
X57859887Y42298670D02*
X57731316Y42151051D01*
X57731316Y42151051D02*
X57602744Y42077242D01*
X57024173Y39950876D02*
X56895602Y40024686D01*
X56895602Y40024686D02*
X56702744Y40024686D01*
X56702744Y40024686D02*
X56509887Y39950876D01*
X56509887Y39950876D02*
X56381316Y39803257D01*
X56381316Y39803257D02*
X56317030Y39655638D01*
X56317030Y39655638D02*
X56252744Y39360400D01*
X56252744Y39360400D02*
X56252744Y39138972D01*
X56252744Y39138972D02*
X56317030Y38843734D01*
X56317030Y38843734D02*
X56381316Y38696115D01*
X56381316Y38696115D02*
X56509887Y38548495D01*
X56509887Y38548495D02*
X56702744Y38474686D01*
X56702744Y38474686D02*
X56831316Y38474686D01*
X56831316Y38474686D02*
X57024173Y38548495D01*
X57024173Y38548495D02*
X57088459Y38622305D01*
X57088459Y38622305D02*
X57088459Y39138972D01*
X57088459Y39138972D02*
X56831316Y39138972D01*
X57602744Y39877067D02*
X57667030Y39950876D01*
X57667030Y39950876D02*
X57795602Y40024686D01*
X57795602Y40024686D02*
X58117030Y40024686D01*
X58117030Y40024686D02*
X58245602Y39950876D01*
X58245602Y39950876D02*
X58309887Y39877067D01*
X58309887Y39877067D02*
X58374173Y39729448D01*
X58374173Y39729448D02*
X58374173Y39581829D01*
X58374173Y39581829D02*
X58309887Y39360400D01*
X58309887Y39360400D02*
X57538459Y38474686D01*
X57538459Y38474686D02*
X58374173Y38474686D01*
X57024173Y37455463D02*
X56895602Y37529273D01*
X56895602Y37529273D02*
X56702744Y37529273D01*
X56702744Y37529273D02*
X56509887Y37455463D01*
X56509887Y37455463D02*
X56381316Y37307844D01*
X56381316Y37307844D02*
X56317030Y37160225D01*
X56317030Y37160225D02*
X56252744Y36864987D01*
X56252744Y36864987D02*
X56252744Y36643559D01*
X56252744Y36643559D02*
X56317030Y36348321D01*
X56317030Y36348321D02*
X56381316Y36200702D01*
X56381316Y36200702D02*
X56509887Y36053082D01*
X56509887Y36053082D02*
X56702744Y35979273D01*
X56702744Y35979273D02*
X56831316Y35979273D01*
X56831316Y35979273D02*
X57024173Y36053082D01*
X57024173Y36053082D02*
X57088459Y36126892D01*
X57088459Y36126892D02*
X57088459Y36643559D01*
X57088459Y36643559D02*
X56831316Y36643559D01*
X57538459Y37529273D02*
X58374173Y37529273D01*
X58374173Y37529273D02*
X57924173Y36938797D01*
X57924173Y36938797D02*
X58117030Y36938797D01*
X58117030Y36938797D02*
X58245602Y36864987D01*
X58245602Y36864987D02*
X58309887Y36791178D01*
X58309887Y36791178D02*
X58374173Y36643559D01*
X58374173Y36643559D02*
X58374173Y36274511D01*
X58374173Y36274511D02*
X58309887Y36126892D01*
X58309887Y36126892D02*
X58245602Y36053082D01*
X58245602Y36053082D02*
X58117030Y35979273D01*
X58117030Y35979273D02*
X57731316Y35979273D01*
X57731316Y35979273D02*
X57602744Y36053082D01*
X57602744Y36053082D02*
X57538459Y36126892D01*
X57024173Y34960050D02*
X56895602Y35033860D01*
X56895602Y35033860D02*
X56702744Y35033860D01*
X56702744Y35033860D02*
X56509887Y34960050D01*
X56509887Y34960050D02*
X56381316Y34812431D01*
X56381316Y34812431D02*
X56317030Y34664812D01*
X56317030Y34664812D02*
X56252744Y34369574D01*
X56252744Y34369574D02*
X56252744Y34148146D01*
X56252744Y34148146D02*
X56317030Y33852908D01*
X56317030Y33852908D02*
X56381316Y33705289D01*
X56381316Y33705289D02*
X56509887Y33557669D01*
X56509887Y33557669D02*
X56702744Y33483860D01*
X56702744Y33483860D02*
X56831316Y33483860D01*
X56831316Y33483860D02*
X57024173Y33557669D01*
X57024173Y33557669D02*
X57088459Y33631479D01*
X57088459Y33631479D02*
X57088459Y34148146D01*
X57088459Y34148146D02*
X56831316Y34148146D01*
X58245602Y34517193D02*
X58245602Y33483860D01*
X57924173Y35107669D02*
X57602744Y34000527D01*
X57602744Y34000527D02*
X58438459Y34000527D01*
X57024173Y32464637D02*
X56895602Y32538447D01*
X56895602Y32538447D02*
X56702744Y32538447D01*
X56702744Y32538447D02*
X56509887Y32464637D01*
X56509887Y32464637D02*
X56381316Y32317018D01*
X56381316Y32317018D02*
X56317030Y32169399D01*
X56317030Y32169399D02*
X56252744Y31874161D01*
X56252744Y31874161D02*
X56252744Y31652733D01*
X56252744Y31652733D02*
X56317030Y31357495D01*
X56317030Y31357495D02*
X56381316Y31209876D01*
X56381316Y31209876D02*
X56509887Y31062256D01*
X56509887Y31062256D02*
X56702744Y30988447D01*
X56702744Y30988447D02*
X56831316Y30988447D01*
X56831316Y30988447D02*
X57024173Y31062256D01*
X57024173Y31062256D02*
X57088459Y31136066D01*
X57088459Y31136066D02*
X57088459Y31652733D01*
X57088459Y31652733D02*
X56831316Y31652733D01*
X58309887Y32538447D02*
X57667030Y32538447D01*
X57667030Y32538447D02*
X57602744Y31800352D01*
X57602744Y31800352D02*
X57667030Y31874161D01*
X57667030Y31874161D02*
X57795602Y31947971D01*
X57795602Y31947971D02*
X58117030Y31947971D01*
X58117030Y31947971D02*
X58245602Y31874161D01*
X58245602Y31874161D02*
X58309887Y31800352D01*
X58309887Y31800352D02*
X58374173Y31652733D01*
X58374173Y31652733D02*
X58374173Y31283685D01*
X58374173Y31283685D02*
X58309887Y31136066D01*
X58309887Y31136066D02*
X58245602Y31062256D01*
X58245602Y31062256D02*
X58117030Y30988447D01*
X58117030Y30988447D02*
X57795602Y30988447D01*
X57795602Y30988447D02*
X57667030Y31062256D01*
X57667030Y31062256D02*
X57602744Y31136066D01*
X57024173Y29969224D02*
X56895602Y30043034D01*
X56895602Y30043034D02*
X56702744Y30043034D01*
X56702744Y30043034D02*
X56509887Y29969224D01*
X56509887Y29969224D02*
X56381316Y29821605D01*
X56381316Y29821605D02*
X56317030Y29673986D01*
X56317030Y29673986D02*
X56252744Y29378748D01*
X56252744Y29378748D02*
X56252744Y29157320D01*
X56252744Y29157320D02*
X56317030Y28862082D01*
X56317030Y28862082D02*
X56381316Y28714463D01*
X56381316Y28714463D02*
X56509887Y28566843D01*
X56509887Y28566843D02*
X56702744Y28493034D01*
X56702744Y28493034D02*
X56831316Y28493034D01*
X56831316Y28493034D02*
X57024173Y28566843D01*
X57024173Y28566843D02*
X57088459Y28640653D01*
X57088459Y28640653D02*
X57088459Y29157320D01*
X57088459Y29157320D02*
X56831316Y29157320D01*
X58245602Y30043034D02*
X57988459Y30043034D01*
X57988459Y30043034D02*
X57859887Y29969224D01*
X57859887Y29969224D02*
X57795602Y29895415D01*
X57795602Y29895415D02*
X57667030Y29673986D01*
X57667030Y29673986D02*
X57602744Y29378748D01*
X57602744Y29378748D02*
X57602744Y28788272D01*
X57602744Y28788272D02*
X57667030Y28640653D01*
X57667030Y28640653D02*
X57731316Y28566843D01*
X57731316Y28566843D02*
X57859887Y28493034D01*
X57859887Y28493034D02*
X58117030Y28493034D01*
X58117030Y28493034D02*
X58245602Y28566843D01*
X58245602Y28566843D02*
X58309887Y28640653D01*
X58309887Y28640653D02*
X58374173Y28788272D01*
X58374173Y28788272D02*
X58374173Y29157320D01*
X58374173Y29157320D02*
X58309887Y29304939D01*
X58309887Y29304939D02*
X58245602Y29378748D01*
X58245602Y29378748D02*
X58117030Y29452558D01*
X58117030Y29452558D02*
X57859887Y29452558D01*
X57859887Y29452558D02*
X57731316Y29378748D01*
X57731316Y29378748D02*
X57667030Y29304939D01*
X57667030Y29304939D02*
X57602744Y29157320D01*
X57024173Y27473811D02*
X56895602Y27547621D01*
X56895602Y27547621D02*
X56702744Y27547621D01*
X56702744Y27547621D02*
X56509887Y27473811D01*
X56509887Y27473811D02*
X56381316Y27326192D01*
X56381316Y27326192D02*
X56317030Y27178573D01*
X56317030Y27178573D02*
X56252744Y26883335D01*
X56252744Y26883335D02*
X56252744Y26661907D01*
X56252744Y26661907D02*
X56317030Y26366669D01*
X56317030Y26366669D02*
X56381316Y26219050D01*
X56381316Y26219050D02*
X56509887Y26071430D01*
X56509887Y26071430D02*
X56702744Y25997621D01*
X56702744Y25997621D02*
X56831316Y25997621D01*
X56831316Y25997621D02*
X57024173Y26071430D01*
X57024173Y26071430D02*
X57088459Y26145240D01*
X57088459Y26145240D02*
X57088459Y26661907D01*
X57088459Y26661907D02*
X56831316Y26661907D01*
X57538459Y27547621D02*
X58438459Y27547621D01*
X58438459Y27547621D02*
X57859887Y25997621D01*
X57024173Y24978398D02*
X56895602Y25052208D01*
X56895602Y25052208D02*
X56702744Y25052208D01*
X56702744Y25052208D02*
X56509887Y24978398D01*
X56509887Y24978398D02*
X56381316Y24830779D01*
X56381316Y24830779D02*
X56317030Y24683160D01*
X56317030Y24683160D02*
X56252744Y24387922D01*
X56252744Y24387922D02*
X56252744Y24166494D01*
X56252744Y24166494D02*
X56317030Y23871256D01*
X56317030Y23871256D02*
X56381316Y23723637D01*
X56381316Y23723637D02*
X56509887Y23576017D01*
X56509887Y23576017D02*
X56702744Y23502208D01*
X56702744Y23502208D02*
X56831316Y23502208D01*
X56831316Y23502208D02*
X57024173Y23576017D01*
X57024173Y23576017D02*
X57088459Y23649827D01*
X57088459Y23649827D02*
X57088459Y24166494D01*
X57088459Y24166494D02*
X56831316Y24166494D01*
X57859887Y24387922D02*
X57731316Y24461732D01*
X57731316Y24461732D02*
X57667030Y24535541D01*
X57667030Y24535541D02*
X57602744Y24683160D01*
X57602744Y24683160D02*
X57602744Y24756970D01*
X57602744Y24756970D02*
X57667030Y24904589D01*
X57667030Y24904589D02*
X57731316Y24978398D01*
X57731316Y24978398D02*
X57859887Y25052208D01*
X57859887Y25052208D02*
X58117030Y25052208D01*
X58117030Y25052208D02*
X58245602Y24978398D01*
X58245602Y24978398D02*
X58309887Y24904589D01*
X58309887Y24904589D02*
X58374173Y24756970D01*
X58374173Y24756970D02*
X58374173Y24683160D01*
X58374173Y24683160D02*
X58309887Y24535541D01*
X58309887Y24535541D02*
X58245602Y24461732D01*
X58245602Y24461732D02*
X58117030Y24387922D01*
X58117030Y24387922D02*
X57859887Y24387922D01*
X57859887Y24387922D02*
X57731316Y24314113D01*
X57731316Y24314113D02*
X57667030Y24240303D01*
X57667030Y24240303D02*
X57602744Y24092684D01*
X57602744Y24092684D02*
X57602744Y23797446D01*
X57602744Y23797446D02*
X57667030Y23649827D01*
X57667030Y23649827D02*
X57731316Y23576017D01*
X57731316Y23576017D02*
X57859887Y23502208D01*
X57859887Y23502208D02*
X58117030Y23502208D01*
X58117030Y23502208D02*
X58245602Y23576017D01*
X58245602Y23576017D02*
X58309887Y23649827D01*
X58309887Y23649827D02*
X58374173Y23797446D01*
X58374173Y23797446D02*
X58374173Y24092684D01*
X58374173Y24092684D02*
X58309887Y24240303D01*
X58309887Y24240303D02*
X58245602Y24314113D01*
X58245602Y24314113D02*
X58117030Y24387922D01*
X57024173Y22482985D02*
X56895602Y22556795D01*
X56895602Y22556795D02*
X56702744Y22556795D01*
X56702744Y22556795D02*
X56509887Y22482985D01*
X56509887Y22482985D02*
X56381316Y22335366D01*
X56381316Y22335366D02*
X56317030Y22187747D01*
X56317030Y22187747D02*
X56252744Y21892509D01*
X56252744Y21892509D02*
X56252744Y21671081D01*
X56252744Y21671081D02*
X56317030Y21375843D01*
X56317030Y21375843D02*
X56381316Y21228224D01*
X56381316Y21228224D02*
X56509887Y21080604D01*
X56509887Y21080604D02*
X56702744Y21006795D01*
X56702744Y21006795D02*
X56831316Y21006795D01*
X56831316Y21006795D02*
X57024173Y21080604D01*
X57024173Y21080604D02*
X57088459Y21154414D01*
X57088459Y21154414D02*
X57088459Y21671081D01*
X57088459Y21671081D02*
X56831316Y21671081D01*
X57731316Y21006795D02*
X57988459Y21006795D01*
X57988459Y21006795D02*
X58117030Y21080604D01*
X58117030Y21080604D02*
X58181316Y21154414D01*
X58181316Y21154414D02*
X58309887Y21375843D01*
X58309887Y21375843D02*
X58374173Y21671081D01*
X58374173Y21671081D02*
X58374173Y22261557D01*
X58374173Y22261557D02*
X58309887Y22409176D01*
X58309887Y22409176D02*
X58245602Y22482985D01*
X58245602Y22482985D02*
X58117030Y22556795D01*
X58117030Y22556795D02*
X57859887Y22556795D01*
X57859887Y22556795D02*
X57731316Y22482985D01*
X57731316Y22482985D02*
X57667030Y22409176D01*
X57667030Y22409176D02*
X57602744Y22261557D01*
X57602744Y22261557D02*
X57602744Y21892509D01*
X57602744Y21892509D02*
X57667030Y21744890D01*
X57667030Y21744890D02*
X57731316Y21671081D01*
X57731316Y21671081D02*
X57859887Y21597271D01*
X57859887Y21597271D02*
X58117030Y21597271D01*
X58117030Y21597271D02*
X58245602Y21671081D01*
X58245602Y21671081D02*
X58309887Y21744890D01*
X58309887Y21744890D02*
X58374173Y21892509D01*
X55738459Y19987572D02*
X55609888Y20061382D01*
X55609888Y20061382D02*
X55417030Y20061382D01*
X55417030Y20061382D02*
X55224173Y19987572D01*
X55224173Y19987572D02*
X55095602Y19839953D01*
X55095602Y19839953D02*
X55031316Y19692334D01*
X55031316Y19692334D02*
X54967030Y19397096D01*
X54967030Y19397096D02*
X54967030Y19175668D01*
X54967030Y19175668D02*
X55031316Y18880430D01*
X55031316Y18880430D02*
X55095602Y18732811D01*
X55095602Y18732811D02*
X55224173Y18585191D01*
X55224173Y18585191D02*
X55417030Y18511382D01*
X55417030Y18511382D02*
X55545602Y18511382D01*
X55545602Y18511382D02*
X55738459Y18585191D01*
X55738459Y18585191D02*
X55802745Y18659001D01*
X55802745Y18659001D02*
X55802745Y19175668D01*
X55802745Y19175668D02*
X55545602Y19175668D01*
X57088459Y18511382D02*
X56317030Y18511382D01*
X56702745Y18511382D02*
X56702745Y20061382D01*
X56702745Y20061382D02*
X56574173Y19839953D01*
X56574173Y19839953D02*
X56445602Y19692334D01*
X56445602Y19692334D02*
X56317030Y19618525D01*
X57924173Y20061382D02*
X58052744Y20061382D01*
X58052744Y20061382D02*
X58181316Y19987572D01*
X58181316Y19987572D02*
X58245602Y19913763D01*
X58245602Y19913763D02*
X58309887Y19766144D01*
X58309887Y19766144D02*
X58374173Y19470906D01*
X58374173Y19470906D02*
X58374173Y19101858D01*
X58374173Y19101858D02*
X58309887Y18806620D01*
X58309887Y18806620D02*
X58245602Y18659001D01*
X58245602Y18659001D02*
X58181316Y18585191D01*
X58181316Y18585191D02*
X58052744Y18511382D01*
X58052744Y18511382D02*
X57924173Y18511382D01*
X57924173Y18511382D02*
X57795602Y18585191D01*
X57795602Y18585191D02*
X57731316Y18659001D01*
X57731316Y18659001D02*
X57667030Y18806620D01*
X57667030Y18806620D02*
X57602744Y19101858D01*
X57602744Y19101858D02*
X57602744Y19470906D01*
X57602744Y19470906D02*
X57667030Y19766144D01*
X57667030Y19766144D02*
X57731316Y19913763D01*
X57731316Y19913763D02*
X57795602Y19987572D01*
X57795602Y19987572D02*
X57924173Y20061382D01*
X55738459Y17492159D02*
X55609888Y17565969D01*
X55609888Y17565969D02*
X55417030Y17565969D01*
X55417030Y17565969D02*
X55224173Y17492159D01*
X55224173Y17492159D02*
X55095602Y17344540D01*
X55095602Y17344540D02*
X55031316Y17196921D01*
X55031316Y17196921D02*
X54967030Y16901683D01*
X54967030Y16901683D02*
X54967030Y16680255D01*
X54967030Y16680255D02*
X55031316Y16385017D01*
X55031316Y16385017D02*
X55095602Y16237398D01*
X55095602Y16237398D02*
X55224173Y16089778D01*
X55224173Y16089778D02*
X55417030Y16015969D01*
X55417030Y16015969D02*
X55545602Y16015969D01*
X55545602Y16015969D02*
X55738459Y16089778D01*
X55738459Y16089778D02*
X55802745Y16163588D01*
X55802745Y16163588D02*
X55802745Y16680255D01*
X55802745Y16680255D02*
X55545602Y16680255D01*
X57088459Y16015969D02*
X56317030Y16015969D01*
X56702745Y16015969D02*
X56702745Y17565969D01*
X56702745Y17565969D02*
X56574173Y17344540D01*
X56574173Y17344540D02*
X56445602Y17196921D01*
X56445602Y17196921D02*
X56317030Y17123112D01*
X58374173Y16015969D02*
X57602744Y16015969D01*
X57988459Y16015969D02*
X57988459Y17565969D01*
X57988459Y17565969D02*
X57859887Y17344540D01*
X57859887Y17344540D02*
X57731316Y17196921D01*
X57731316Y17196921D02*
X57602744Y17123112D01*
D10*
X18675312Y38727581D02*
X18341979Y39203772D01*
X18103884Y38727581D02*
X18103884Y39727581D01*
X18103884Y39727581D02*
X18484836Y39727581D01*
X18484836Y39727581D02*
X18580074Y39679962D01*
X18580074Y39679962D02*
X18627693Y39632343D01*
X18627693Y39632343D02*
X18675312Y39537105D01*
X18675312Y39537105D02*
X18675312Y39394248D01*
X18675312Y39394248D02*
X18627693Y39299010D01*
X18627693Y39299010D02*
X18580074Y39251391D01*
X18580074Y39251391D02*
X18484836Y39203772D01*
X18484836Y39203772D02*
X18103884Y39203772D01*
X19056265Y38775200D02*
X19199122Y38727581D01*
X19199122Y38727581D02*
X19437217Y38727581D01*
X19437217Y38727581D02*
X19532455Y38775200D01*
X19532455Y38775200D02*
X19580074Y38822820D01*
X19580074Y38822820D02*
X19627693Y38918058D01*
X19627693Y38918058D02*
X19627693Y39013296D01*
X19627693Y39013296D02*
X19580074Y39108534D01*
X19580074Y39108534D02*
X19532455Y39156153D01*
X19532455Y39156153D02*
X19437217Y39203772D01*
X19437217Y39203772D02*
X19246741Y39251391D01*
X19246741Y39251391D02*
X19151503Y39299010D01*
X19151503Y39299010D02*
X19103884Y39346629D01*
X19103884Y39346629D02*
X19056265Y39441867D01*
X19056265Y39441867D02*
X19056265Y39537105D01*
X19056265Y39537105D02*
X19103884Y39632343D01*
X19103884Y39632343D02*
X19151503Y39679962D01*
X19151503Y39679962D02*
X19246741Y39727581D01*
X19246741Y39727581D02*
X19484836Y39727581D01*
X19484836Y39727581D02*
X19627693Y39679962D01*
X19913408Y39727581D02*
X20484836Y39727581D01*
X20199122Y38727581D02*
X20199122Y39727581D01*
X50937217Y39151391D02*
X51080074Y39103772D01*
X51080074Y39103772D02*
X51127693Y39056153D01*
X51127693Y39056153D02*
X51175312Y38960915D01*
X51175312Y38960915D02*
X51175312Y38818058D01*
X51175312Y38818058D02*
X51127693Y38722820D01*
X51127693Y38722820D02*
X51080074Y38675200D01*
X51080074Y38675200D02*
X50984836Y38627581D01*
X50984836Y38627581D02*
X50603884Y38627581D01*
X50603884Y38627581D02*
X50603884Y39627581D01*
X50603884Y39627581D02*
X50937217Y39627581D01*
X50937217Y39627581D02*
X51032455Y39579962D01*
X51032455Y39579962D02*
X51080074Y39532343D01*
X51080074Y39532343D02*
X51127693Y39437105D01*
X51127693Y39437105D02*
X51127693Y39341867D01*
X51127693Y39341867D02*
X51080074Y39246629D01*
X51080074Y39246629D02*
X51032455Y39199010D01*
X51032455Y39199010D02*
X50937217Y39151391D01*
X50937217Y39151391D02*
X50603884Y39151391D01*
X51794360Y39627581D02*
X51984836Y39627581D01*
X51984836Y39627581D02*
X52080074Y39579962D01*
X52080074Y39579962D02*
X52175312Y39484724D01*
X52175312Y39484724D02*
X52222931Y39294248D01*
X52222931Y39294248D02*
X52222931Y38960915D01*
X52222931Y38960915D02*
X52175312Y38770439D01*
X52175312Y38770439D02*
X52080074Y38675200D01*
X52080074Y38675200D02*
X51984836Y38627581D01*
X51984836Y38627581D02*
X51794360Y38627581D01*
X51794360Y38627581D02*
X51699122Y38675200D01*
X51699122Y38675200D02*
X51603884Y38770439D01*
X51603884Y38770439D02*
X51556265Y38960915D01*
X51556265Y38960915D02*
X51556265Y39294248D01*
X51556265Y39294248D02*
X51603884Y39484724D01*
X51603884Y39484724D02*
X51699122Y39579962D01*
X51699122Y39579962D02*
X51794360Y39627581D01*
X52841979Y39627581D02*
X53032455Y39627581D01*
X53032455Y39627581D02*
X53127693Y39579962D01*
X53127693Y39579962D02*
X53222931Y39484724D01*
X53222931Y39484724D02*
X53270550Y39294248D01*
X53270550Y39294248D02*
X53270550Y38960915D01*
X53270550Y38960915D02*
X53222931Y38770439D01*
X53222931Y38770439D02*
X53127693Y38675200D01*
X53127693Y38675200D02*
X53032455Y38627581D01*
X53032455Y38627581D02*
X52841979Y38627581D01*
X52841979Y38627581D02*
X52746741Y38675200D01*
X52746741Y38675200D02*
X52651503Y38770439D01*
X52651503Y38770439D02*
X52603884Y38960915D01*
X52603884Y38960915D02*
X52603884Y39294248D01*
X52603884Y39294248D02*
X52651503Y39484724D01*
X52651503Y39484724D02*
X52746741Y39579962D01*
X52746741Y39579962D02*
X52841979Y39627581D01*
X53556265Y39627581D02*
X54127693Y39627581D01*
X53841979Y38627581D02*
X53841979Y39627581D01*
D11*
X13108459Y44991702D02*
X12979888Y45065512D01*
X12979888Y45065512D02*
X12787030Y45065512D01*
X12787030Y45065512D02*
X12594173Y44991702D01*
X12594173Y44991702D02*
X12465602Y44844083D01*
X12465602Y44844083D02*
X12401316Y44696464D01*
X12401316Y44696464D02*
X12337030Y44401226D01*
X12337030Y44401226D02*
X12337030Y44179798D01*
X12337030Y44179798D02*
X12401316Y43884560D01*
X12401316Y43884560D02*
X12465602Y43736941D01*
X12465602Y43736941D02*
X12594173Y43589321D01*
X12594173Y43589321D02*
X12787030Y43515512D01*
X12787030Y43515512D02*
X12915602Y43515512D01*
X12915602Y43515512D02*
X13108459Y43589321D01*
X13108459Y43589321D02*
X13172745Y43663131D01*
X13172745Y43663131D02*
X13172745Y44179798D01*
X13172745Y44179798D02*
X12915602Y44179798D01*
X14329888Y44548845D02*
X14329888Y43515512D01*
X14008459Y45139321D02*
X13687030Y44032179D01*
X13687030Y44032179D02*
X14522745Y44032179D01*
X15615602Y45065512D02*
X15358459Y45065512D01*
X15358459Y45065512D02*
X15229887Y44991702D01*
X15229887Y44991702D02*
X15165602Y44917893D01*
X15165602Y44917893D02*
X15037030Y44696464D01*
X15037030Y44696464D02*
X14972744Y44401226D01*
X14972744Y44401226D02*
X14972744Y43810750D01*
X14972744Y43810750D02*
X15037030Y43663131D01*
X15037030Y43663131D02*
X15101316Y43589321D01*
X15101316Y43589321D02*
X15229887Y43515512D01*
X15229887Y43515512D02*
X15487030Y43515512D01*
X15487030Y43515512D02*
X15615602Y43589321D01*
X15615602Y43589321D02*
X15679887Y43663131D01*
X15679887Y43663131D02*
X15744173Y43810750D01*
X15744173Y43810750D02*
X15744173Y44179798D01*
X15744173Y44179798D02*
X15679887Y44327417D01*
X15679887Y44327417D02*
X15615602Y44401226D01*
X15615602Y44401226D02*
X15487030Y44475036D01*
X15487030Y44475036D02*
X15229887Y44475036D01*
X15229887Y44475036D02*
X15101316Y44401226D01*
X15101316Y44401226D02*
X15037030Y44327417D01*
X15037030Y44327417D02*
X14972744Y44179798D01*
X13108459Y42496289D02*
X12979888Y42570099D01*
X12979888Y42570099D02*
X12787030Y42570099D01*
X12787030Y42570099D02*
X12594173Y42496289D01*
X12594173Y42496289D02*
X12465602Y42348670D01*
X12465602Y42348670D02*
X12401316Y42201051D01*
X12401316Y42201051D02*
X12337030Y41905813D01*
X12337030Y41905813D02*
X12337030Y41684385D01*
X12337030Y41684385D02*
X12401316Y41389147D01*
X12401316Y41389147D02*
X12465602Y41241528D01*
X12465602Y41241528D02*
X12594173Y41093908D01*
X12594173Y41093908D02*
X12787030Y41020099D01*
X12787030Y41020099D02*
X12915602Y41020099D01*
X12915602Y41020099D02*
X13108459Y41093908D01*
X13108459Y41093908D02*
X13172745Y41167718D01*
X13172745Y41167718D02*
X13172745Y41684385D01*
X13172745Y41684385D02*
X12915602Y41684385D01*
X14329888Y42053432D02*
X14329888Y41020099D01*
X14008459Y42643908D02*
X13687030Y41536766D01*
X13687030Y41536766D02*
X14522745Y41536766D01*
X15679887Y42570099D02*
X15037030Y42570099D01*
X15037030Y42570099D02*
X14972744Y41832004D01*
X14972744Y41832004D02*
X15037030Y41905813D01*
X15037030Y41905813D02*
X15165602Y41979623D01*
X15165602Y41979623D02*
X15487030Y41979623D01*
X15487030Y41979623D02*
X15615602Y41905813D01*
X15615602Y41905813D02*
X15679887Y41832004D01*
X15679887Y41832004D02*
X15744173Y41684385D01*
X15744173Y41684385D02*
X15744173Y41315337D01*
X15744173Y41315337D02*
X15679887Y41167718D01*
X15679887Y41167718D02*
X15615602Y41093908D01*
X15615602Y41093908D02*
X15487030Y41020099D01*
X15487030Y41020099D02*
X15165602Y41020099D01*
X15165602Y41020099D02*
X15037030Y41093908D01*
X15037030Y41093908D02*
X14972744Y41167718D01*
X13108459Y40000876D02*
X12979888Y40074686D01*
X12979888Y40074686D02*
X12787030Y40074686D01*
X12787030Y40074686D02*
X12594173Y40000876D01*
X12594173Y40000876D02*
X12465602Y39853257D01*
X12465602Y39853257D02*
X12401316Y39705638D01*
X12401316Y39705638D02*
X12337030Y39410400D01*
X12337030Y39410400D02*
X12337030Y39188972D01*
X12337030Y39188972D02*
X12401316Y38893734D01*
X12401316Y38893734D02*
X12465602Y38746115D01*
X12465602Y38746115D02*
X12594173Y38598495D01*
X12594173Y38598495D02*
X12787030Y38524686D01*
X12787030Y38524686D02*
X12915602Y38524686D01*
X12915602Y38524686D02*
X13108459Y38598495D01*
X13108459Y38598495D02*
X13172745Y38672305D01*
X13172745Y38672305D02*
X13172745Y39188972D01*
X13172745Y39188972D02*
X12915602Y39188972D01*
X14329888Y39558019D02*
X14329888Y38524686D01*
X14008459Y40148495D02*
X13687030Y39041353D01*
X13687030Y39041353D02*
X14522745Y39041353D01*
X15615602Y39558019D02*
X15615602Y38524686D01*
X15294173Y40148495D02*
X14972744Y39041353D01*
X14972744Y39041353D02*
X15808459Y39041353D01*
X13108459Y37505463D02*
X12979888Y37579273D01*
X12979888Y37579273D02*
X12787030Y37579273D01*
X12787030Y37579273D02*
X12594173Y37505463D01*
X12594173Y37505463D02*
X12465602Y37357844D01*
X12465602Y37357844D02*
X12401316Y37210225D01*
X12401316Y37210225D02*
X12337030Y36914987D01*
X12337030Y36914987D02*
X12337030Y36693559D01*
X12337030Y36693559D02*
X12401316Y36398321D01*
X12401316Y36398321D02*
X12465602Y36250702D01*
X12465602Y36250702D02*
X12594173Y36103082D01*
X12594173Y36103082D02*
X12787030Y36029273D01*
X12787030Y36029273D02*
X12915602Y36029273D01*
X12915602Y36029273D02*
X13108459Y36103082D01*
X13108459Y36103082D02*
X13172745Y36176892D01*
X13172745Y36176892D02*
X13172745Y36693559D01*
X13172745Y36693559D02*
X12915602Y36693559D01*
X14329888Y37062606D02*
X14329888Y36029273D01*
X14008459Y37653082D02*
X13687030Y36545940D01*
X13687030Y36545940D02*
X14522745Y36545940D01*
X14908459Y37579273D02*
X15744173Y37579273D01*
X15744173Y37579273D02*
X15294173Y36988797D01*
X15294173Y36988797D02*
X15487030Y36988797D01*
X15487030Y36988797D02*
X15615602Y36914987D01*
X15615602Y36914987D02*
X15679887Y36841178D01*
X15679887Y36841178D02*
X15744173Y36693559D01*
X15744173Y36693559D02*
X15744173Y36324511D01*
X15744173Y36324511D02*
X15679887Y36176892D01*
X15679887Y36176892D02*
X15615602Y36103082D01*
X15615602Y36103082D02*
X15487030Y36029273D01*
X15487030Y36029273D02*
X15101316Y36029273D01*
X15101316Y36029273D02*
X14972744Y36103082D01*
X14972744Y36103082D02*
X14908459Y36176892D01*
X13108459Y35010050D02*
X12979888Y35083860D01*
X12979888Y35083860D02*
X12787030Y35083860D01*
X12787030Y35083860D02*
X12594173Y35010050D01*
X12594173Y35010050D02*
X12465602Y34862431D01*
X12465602Y34862431D02*
X12401316Y34714812D01*
X12401316Y34714812D02*
X12337030Y34419574D01*
X12337030Y34419574D02*
X12337030Y34198146D01*
X12337030Y34198146D02*
X12401316Y33902908D01*
X12401316Y33902908D02*
X12465602Y33755289D01*
X12465602Y33755289D02*
X12594173Y33607669D01*
X12594173Y33607669D02*
X12787030Y33533860D01*
X12787030Y33533860D02*
X12915602Y33533860D01*
X12915602Y33533860D02*
X13108459Y33607669D01*
X13108459Y33607669D02*
X13172745Y33681479D01*
X13172745Y33681479D02*
X13172745Y34198146D01*
X13172745Y34198146D02*
X12915602Y34198146D01*
X14329888Y34567193D02*
X14329888Y33533860D01*
X14008459Y35157669D02*
X13687030Y34050527D01*
X13687030Y34050527D02*
X14522745Y34050527D01*
X14972744Y34936241D02*
X15037030Y35010050D01*
X15037030Y35010050D02*
X15165602Y35083860D01*
X15165602Y35083860D02*
X15487030Y35083860D01*
X15487030Y35083860D02*
X15615602Y35010050D01*
X15615602Y35010050D02*
X15679887Y34936241D01*
X15679887Y34936241D02*
X15744173Y34788622D01*
X15744173Y34788622D02*
X15744173Y34641003D01*
X15744173Y34641003D02*
X15679887Y34419574D01*
X15679887Y34419574D02*
X14908459Y33533860D01*
X14908459Y33533860D02*
X15744173Y33533860D01*
X13108459Y32514637D02*
X12979888Y32588447D01*
X12979888Y32588447D02*
X12787030Y32588447D01*
X12787030Y32588447D02*
X12594173Y32514637D01*
X12594173Y32514637D02*
X12465602Y32367018D01*
X12465602Y32367018D02*
X12401316Y32219399D01*
X12401316Y32219399D02*
X12337030Y31924161D01*
X12337030Y31924161D02*
X12337030Y31702733D01*
X12337030Y31702733D02*
X12401316Y31407495D01*
X12401316Y31407495D02*
X12465602Y31259876D01*
X12465602Y31259876D02*
X12594173Y31112256D01*
X12594173Y31112256D02*
X12787030Y31038447D01*
X12787030Y31038447D02*
X12915602Y31038447D01*
X12915602Y31038447D02*
X13108459Y31112256D01*
X13108459Y31112256D02*
X13172745Y31186066D01*
X13172745Y31186066D02*
X13172745Y31702733D01*
X13172745Y31702733D02*
X12915602Y31702733D01*
X14329888Y32071780D02*
X14329888Y31038447D01*
X14008459Y32662256D02*
X13687030Y31555114D01*
X13687030Y31555114D02*
X14522745Y31555114D01*
X15744173Y31038447D02*
X14972744Y31038447D01*
X15358459Y31038447D02*
X15358459Y32588447D01*
X15358459Y32588447D02*
X15229887Y32367018D01*
X15229887Y32367018D02*
X15101316Y32219399D01*
X15101316Y32219399D02*
X14972744Y32145590D01*
X13108459Y30019224D02*
X12979888Y30093034D01*
X12979888Y30093034D02*
X12787030Y30093034D01*
X12787030Y30093034D02*
X12594173Y30019224D01*
X12594173Y30019224D02*
X12465602Y29871605D01*
X12465602Y29871605D02*
X12401316Y29723986D01*
X12401316Y29723986D02*
X12337030Y29428748D01*
X12337030Y29428748D02*
X12337030Y29207320D01*
X12337030Y29207320D02*
X12401316Y28912082D01*
X12401316Y28912082D02*
X12465602Y28764463D01*
X12465602Y28764463D02*
X12594173Y28616843D01*
X12594173Y28616843D02*
X12787030Y28543034D01*
X12787030Y28543034D02*
X12915602Y28543034D01*
X12915602Y28543034D02*
X13108459Y28616843D01*
X13108459Y28616843D02*
X13172745Y28690653D01*
X13172745Y28690653D02*
X13172745Y29207320D01*
X13172745Y29207320D02*
X12915602Y29207320D01*
X14329888Y29576367D02*
X14329888Y28543034D01*
X14008459Y30166843D02*
X13687030Y29059701D01*
X13687030Y29059701D02*
X14522745Y29059701D01*
X15294173Y30093034D02*
X15422744Y30093034D01*
X15422744Y30093034D02*
X15551316Y30019224D01*
X15551316Y30019224D02*
X15615602Y29945415D01*
X15615602Y29945415D02*
X15679887Y29797796D01*
X15679887Y29797796D02*
X15744173Y29502558D01*
X15744173Y29502558D02*
X15744173Y29133510D01*
X15744173Y29133510D02*
X15679887Y28838272D01*
X15679887Y28838272D02*
X15615602Y28690653D01*
X15615602Y28690653D02*
X15551316Y28616843D01*
X15551316Y28616843D02*
X15422744Y28543034D01*
X15422744Y28543034D02*
X15294173Y28543034D01*
X15294173Y28543034D02*
X15165602Y28616843D01*
X15165602Y28616843D02*
X15101316Y28690653D01*
X15101316Y28690653D02*
X15037030Y28838272D01*
X15037030Y28838272D02*
X14972744Y29133510D01*
X14972744Y29133510D02*
X14972744Y29502558D01*
X14972744Y29502558D02*
X15037030Y29797796D01*
X15037030Y29797796D02*
X15101316Y29945415D01*
X15101316Y29945415D02*
X15165602Y30019224D01*
X15165602Y30019224D02*
X15294173Y30093034D01*
X13108459Y27523811D02*
X12979888Y27597621D01*
X12979888Y27597621D02*
X12787030Y27597621D01*
X12787030Y27597621D02*
X12594173Y27523811D01*
X12594173Y27523811D02*
X12465602Y27376192D01*
X12465602Y27376192D02*
X12401316Y27228573D01*
X12401316Y27228573D02*
X12337030Y26933335D01*
X12337030Y26933335D02*
X12337030Y26711907D01*
X12337030Y26711907D02*
X12401316Y26416669D01*
X12401316Y26416669D02*
X12465602Y26269050D01*
X12465602Y26269050D02*
X12594173Y26121430D01*
X12594173Y26121430D02*
X12787030Y26047621D01*
X12787030Y26047621D02*
X12915602Y26047621D01*
X12915602Y26047621D02*
X13108459Y26121430D01*
X13108459Y26121430D02*
X13172745Y26195240D01*
X13172745Y26195240D02*
X13172745Y26711907D01*
X13172745Y26711907D02*
X12915602Y26711907D01*
X13622745Y27597621D02*
X14458459Y27597621D01*
X14458459Y27597621D02*
X14008459Y27007145D01*
X14008459Y27007145D02*
X14201316Y27007145D01*
X14201316Y27007145D02*
X14329888Y26933335D01*
X14329888Y26933335D02*
X14394173Y26859526D01*
X14394173Y26859526D02*
X14458459Y26711907D01*
X14458459Y26711907D02*
X14458459Y26342859D01*
X14458459Y26342859D02*
X14394173Y26195240D01*
X14394173Y26195240D02*
X14329888Y26121430D01*
X14329888Y26121430D02*
X14201316Y26047621D01*
X14201316Y26047621D02*
X13815602Y26047621D01*
X13815602Y26047621D02*
X13687030Y26121430D01*
X13687030Y26121430D02*
X13622745Y26195240D01*
X15101316Y26047621D02*
X15358459Y26047621D01*
X15358459Y26047621D02*
X15487030Y26121430D01*
X15487030Y26121430D02*
X15551316Y26195240D01*
X15551316Y26195240D02*
X15679887Y26416669D01*
X15679887Y26416669D02*
X15744173Y26711907D01*
X15744173Y26711907D02*
X15744173Y27302383D01*
X15744173Y27302383D02*
X15679887Y27450002D01*
X15679887Y27450002D02*
X15615602Y27523811D01*
X15615602Y27523811D02*
X15487030Y27597621D01*
X15487030Y27597621D02*
X15229887Y27597621D01*
X15229887Y27597621D02*
X15101316Y27523811D01*
X15101316Y27523811D02*
X15037030Y27450002D01*
X15037030Y27450002D02*
X14972744Y27302383D01*
X14972744Y27302383D02*
X14972744Y26933335D01*
X14972744Y26933335D02*
X15037030Y26785716D01*
X15037030Y26785716D02*
X15101316Y26711907D01*
X15101316Y26711907D02*
X15229887Y26638097D01*
X15229887Y26638097D02*
X15487030Y26638097D01*
X15487030Y26638097D02*
X15615602Y26711907D01*
X15615602Y26711907D02*
X15679887Y26785716D01*
X15679887Y26785716D02*
X15744173Y26933335D01*
X13108459Y25028398D02*
X12979888Y25102208D01*
X12979888Y25102208D02*
X12787030Y25102208D01*
X12787030Y25102208D02*
X12594173Y25028398D01*
X12594173Y25028398D02*
X12465602Y24880779D01*
X12465602Y24880779D02*
X12401316Y24733160D01*
X12401316Y24733160D02*
X12337030Y24437922D01*
X12337030Y24437922D02*
X12337030Y24216494D01*
X12337030Y24216494D02*
X12401316Y23921256D01*
X12401316Y23921256D02*
X12465602Y23773637D01*
X12465602Y23773637D02*
X12594173Y23626017D01*
X12594173Y23626017D02*
X12787030Y23552208D01*
X12787030Y23552208D02*
X12915602Y23552208D01*
X12915602Y23552208D02*
X13108459Y23626017D01*
X13108459Y23626017D02*
X13172745Y23699827D01*
X13172745Y23699827D02*
X13172745Y24216494D01*
X13172745Y24216494D02*
X12915602Y24216494D01*
X13622745Y25102208D02*
X14458459Y25102208D01*
X14458459Y25102208D02*
X14008459Y24511732D01*
X14008459Y24511732D02*
X14201316Y24511732D01*
X14201316Y24511732D02*
X14329888Y24437922D01*
X14329888Y24437922D02*
X14394173Y24364113D01*
X14394173Y24364113D02*
X14458459Y24216494D01*
X14458459Y24216494D02*
X14458459Y23847446D01*
X14458459Y23847446D02*
X14394173Y23699827D01*
X14394173Y23699827D02*
X14329888Y23626017D01*
X14329888Y23626017D02*
X14201316Y23552208D01*
X14201316Y23552208D02*
X13815602Y23552208D01*
X13815602Y23552208D02*
X13687030Y23626017D01*
X13687030Y23626017D02*
X13622745Y23699827D01*
X15229887Y24437922D02*
X15101316Y24511732D01*
X15101316Y24511732D02*
X15037030Y24585541D01*
X15037030Y24585541D02*
X14972744Y24733160D01*
X14972744Y24733160D02*
X14972744Y24806970D01*
X14972744Y24806970D02*
X15037030Y24954589D01*
X15037030Y24954589D02*
X15101316Y25028398D01*
X15101316Y25028398D02*
X15229887Y25102208D01*
X15229887Y25102208D02*
X15487030Y25102208D01*
X15487030Y25102208D02*
X15615602Y25028398D01*
X15615602Y25028398D02*
X15679887Y24954589D01*
X15679887Y24954589D02*
X15744173Y24806970D01*
X15744173Y24806970D02*
X15744173Y24733160D01*
X15744173Y24733160D02*
X15679887Y24585541D01*
X15679887Y24585541D02*
X15615602Y24511732D01*
X15615602Y24511732D02*
X15487030Y24437922D01*
X15487030Y24437922D02*
X15229887Y24437922D01*
X15229887Y24437922D02*
X15101316Y24364113D01*
X15101316Y24364113D02*
X15037030Y24290303D01*
X15037030Y24290303D02*
X14972744Y24142684D01*
X14972744Y24142684D02*
X14972744Y23847446D01*
X14972744Y23847446D02*
X15037030Y23699827D01*
X15037030Y23699827D02*
X15101316Y23626017D01*
X15101316Y23626017D02*
X15229887Y23552208D01*
X15229887Y23552208D02*
X15487030Y23552208D01*
X15487030Y23552208D02*
X15615602Y23626017D01*
X15615602Y23626017D02*
X15679887Y23699827D01*
X15679887Y23699827D02*
X15744173Y23847446D01*
X15744173Y23847446D02*
X15744173Y24142684D01*
X15744173Y24142684D02*
X15679887Y24290303D01*
X15679887Y24290303D02*
X15615602Y24364113D01*
X15615602Y24364113D02*
X15487030Y24437922D01*
X12915601Y22532985D02*
X12787030Y22606795D01*
X12787030Y22606795D02*
X12594172Y22606795D01*
X12594172Y22606795D02*
X12401315Y22532985D01*
X12401315Y22532985D02*
X12272744Y22385366D01*
X12272744Y22385366D02*
X12208458Y22237747D01*
X12208458Y22237747D02*
X12144172Y21942509D01*
X12144172Y21942509D02*
X12144172Y21721081D01*
X12144172Y21721081D02*
X12208458Y21425843D01*
X12208458Y21425843D02*
X12272744Y21278224D01*
X12272744Y21278224D02*
X12401315Y21130604D01*
X12401315Y21130604D02*
X12594172Y21056795D01*
X12594172Y21056795D02*
X12722744Y21056795D01*
X12722744Y21056795D02*
X12915601Y21130604D01*
X12915601Y21130604D02*
X12979887Y21204414D01*
X12979887Y21204414D02*
X12979887Y21721081D01*
X12979887Y21721081D02*
X12722744Y21721081D01*
X13558458Y21056795D02*
X13558458Y22606795D01*
X13558458Y22606795D02*
X14329887Y21056795D01*
X14329887Y21056795D02*
X14329887Y22606795D01*
X14972744Y21056795D02*
X14972744Y22606795D01*
X14972744Y22606795D02*
X15294173Y22606795D01*
X15294173Y22606795D02*
X15487030Y22532985D01*
X15487030Y22532985D02*
X15615601Y22385366D01*
X15615601Y22385366D02*
X15679887Y22237747D01*
X15679887Y22237747D02*
X15744173Y21942509D01*
X15744173Y21942509D02*
X15744173Y21721081D01*
X15744173Y21721081D02*
X15679887Y21425843D01*
X15679887Y21425843D02*
X15615601Y21278224D01*
X15615601Y21278224D02*
X15487030Y21130604D01*
X15487030Y21130604D02*
X15294173Y21056795D01*
X15294173Y21056795D02*
X14972744Y21056795D01*
X12594174Y20111382D02*
X13429888Y20111382D01*
X13429888Y20111382D02*
X12979888Y19520906D01*
X12979888Y19520906D02*
X13172745Y19520906D01*
X13172745Y19520906D02*
X13301317Y19447096D01*
X13301317Y19447096D02*
X13365602Y19373287D01*
X13365602Y19373287D02*
X13429888Y19225668D01*
X13429888Y19225668D02*
X13429888Y18856620D01*
X13429888Y18856620D02*
X13365602Y18709001D01*
X13365602Y18709001D02*
X13301317Y18635191D01*
X13301317Y18635191D02*
X13172745Y18561382D01*
X13172745Y18561382D02*
X12787031Y18561382D01*
X12787031Y18561382D02*
X12658459Y18635191D01*
X12658459Y18635191D02*
X12594174Y18709001D01*
X13879888Y19594715D02*
X14201316Y18561382D01*
X14201316Y18561382D02*
X14522745Y19594715D01*
X14908459Y20111382D02*
X15744173Y20111382D01*
X15744173Y20111382D02*
X15294173Y19520906D01*
X15294173Y19520906D02*
X15487030Y19520906D01*
X15487030Y19520906D02*
X15615602Y19447096D01*
X15615602Y19447096D02*
X15679887Y19373287D01*
X15679887Y19373287D02*
X15744173Y19225668D01*
X15744173Y19225668D02*
X15744173Y18856620D01*
X15744173Y18856620D02*
X15679887Y18709001D01*
X15679887Y18709001D02*
X15615602Y18635191D01*
X15615602Y18635191D02*
X15487030Y18561382D01*
X15487030Y18561382D02*
X15101316Y18561382D01*
X15101316Y18561382D02*
X14972744Y18635191D01*
X14972744Y18635191D02*
X14908459Y18709001D01*
X12915601Y17542159D02*
X12787030Y17615969D01*
X12787030Y17615969D02*
X12594172Y17615969D01*
X12594172Y17615969D02*
X12401315Y17542159D01*
X12401315Y17542159D02*
X12272744Y17394540D01*
X12272744Y17394540D02*
X12208458Y17246921D01*
X12208458Y17246921D02*
X12144172Y16951683D01*
X12144172Y16951683D02*
X12144172Y16730255D01*
X12144172Y16730255D02*
X12208458Y16435017D01*
X12208458Y16435017D02*
X12272744Y16287398D01*
X12272744Y16287398D02*
X12401315Y16139778D01*
X12401315Y16139778D02*
X12594172Y16065969D01*
X12594172Y16065969D02*
X12722744Y16065969D01*
X12722744Y16065969D02*
X12915601Y16139778D01*
X12915601Y16139778D02*
X12979887Y16213588D01*
X12979887Y16213588D02*
X12979887Y16730255D01*
X12979887Y16730255D02*
X12722744Y16730255D01*
X13558458Y16065969D02*
X13558458Y17615969D01*
X13558458Y17615969D02*
X14329887Y16065969D01*
X14329887Y16065969D02*
X14329887Y17615969D01*
X14972744Y16065969D02*
X14972744Y17615969D01*
X14972744Y17615969D02*
X15294173Y17615969D01*
X15294173Y17615969D02*
X15487030Y17542159D01*
X15487030Y17542159D02*
X15615601Y17394540D01*
X15615601Y17394540D02*
X15679887Y17246921D01*
X15679887Y17246921D02*
X15744173Y16951683D01*
X15744173Y16951683D02*
X15744173Y16730255D01*
X15744173Y16730255D02*
X15679887Y16435017D01*
X15679887Y16435017D02*
X15615601Y16287398D01*
X15615601Y16287398D02*
X15487030Y16139778D01*
X15487030Y16139778D02*
X15294173Y16065969D01*
X15294173Y16065969D02*
X14972744Y16065969D01*
D10*
X50438095Y7242581D02*
X50438095Y6433058D01*
X50438095Y6433058D02*
X50485714Y6337820D01*
X50485714Y6337820D02*
X50533333Y6290200D01*
X50533333Y6290200D02*
X50628571Y6242581D01*
X50628571Y6242581D02*
X50819047Y6242581D01*
X50819047Y6242581D02*
X50914285Y6290200D01*
X50914285Y6290200D02*
X50961904Y6337820D01*
X50961904Y6337820D02*
X51009523Y6433058D01*
X51009523Y6433058D02*
X51009523Y7242581D01*
X51438095Y6290200D02*
X51580952Y6242581D01*
X51580952Y6242581D02*
X51819047Y6242581D01*
X51819047Y6242581D02*
X51914285Y6290200D01*
X51914285Y6290200D02*
X51961904Y6337820D01*
X51961904Y6337820D02*
X52009523Y6433058D01*
X52009523Y6433058D02*
X52009523Y6528296D01*
X52009523Y6528296D02*
X51961904Y6623534D01*
X51961904Y6623534D02*
X51914285Y6671153D01*
X51914285Y6671153D02*
X51819047Y6718772D01*
X51819047Y6718772D02*
X51628571Y6766391D01*
X51628571Y6766391D02*
X51533333Y6814010D01*
X51533333Y6814010D02*
X51485714Y6861629D01*
X51485714Y6861629D02*
X51438095Y6956867D01*
X51438095Y6956867D02*
X51438095Y7052105D01*
X51438095Y7052105D02*
X51485714Y7147343D01*
X51485714Y7147343D02*
X51533333Y7194962D01*
X51533333Y7194962D02*
X51628571Y7242581D01*
X51628571Y7242581D02*
X51866666Y7242581D01*
X51866666Y7242581D02*
X52009523Y7194962D01*
X52771428Y6766391D02*
X52914285Y6718772D01*
X52914285Y6718772D02*
X52961904Y6671153D01*
X52961904Y6671153D02*
X53009523Y6575915D01*
X53009523Y6575915D02*
X53009523Y6433058D01*
X53009523Y6433058D02*
X52961904Y6337820D01*
X52961904Y6337820D02*
X52914285Y6290200D01*
X52914285Y6290200D02*
X52819047Y6242581D01*
X52819047Y6242581D02*
X52438095Y6242581D01*
X52438095Y6242581D02*
X52438095Y7242581D01*
X52438095Y7242581D02*
X52771428Y7242581D01*
X52771428Y7242581D02*
X52866666Y7194962D01*
X52866666Y7194962D02*
X52914285Y7147343D01*
X52914285Y7147343D02*
X52961904Y7052105D01*
X52961904Y7052105D02*
X52961904Y6956867D01*
X52961904Y6956867D02*
X52914285Y6861629D01*
X52914285Y6861629D02*
X52866666Y6814010D01*
X52866666Y6814010D02*
X52771428Y6766391D01*
X52771428Y6766391D02*
X52438095Y6766391D01*
D11*
X47705600Y33557757D02*
X47577029Y33631567D01*
X47577029Y33631567D02*
X47384171Y33631567D01*
X47384171Y33631567D02*
X47191314Y33557757D01*
X47191314Y33557757D02*
X47062743Y33410138D01*
X47062743Y33410138D02*
X46998457Y33262519D01*
X46998457Y33262519D02*
X46934171Y32967281D01*
X46934171Y32967281D02*
X46934171Y32745853D01*
X46934171Y32745853D02*
X46998457Y32450615D01*
X46998457Y32450615D02*
X47062743Y32302996D01*
X47062743Y32302996D02*
X47191314Y32155376D01*
X47191314Y32155376D02*
X47384171Y32081567D01*
X47384171Y32081567D02*
X47512743Y32081567D01*
X47512743Y32081567D02*
X47705600Y32155376D01*
X47705600Y32155376D02*
X47769886Y32229186D01*
X47769886Y32229186D02*
X47769886Y32745853D01*
X47769886Y32745853D02*
X47512743Y32745853D01*
X48348457Y32081567D02*
X48348457Y33631567D01*
X48348457Y33631567D02*
X49119886Y32081567D01*
X49119886Y32081567D02*
X49119886Y33631567D01*
X49762743Y32081567D02*
X49762743Y33631567D01*
X49762743Y33631567D02*
X50084172Y33631567D01*
X50084172Y33631567D02*
X50277029Y33557757D01*
X50277029Y33557757D02*
X50405600Y33410138D01*
X50405600Y33410138D02*
X50469886Y33262519D01*
X50469886Y33262519D02*
X50534172Y32967281D01*
X50534172Y32967281D02*
X50534172Y32745853D01*
X50534172Y32745853D02*
X50469886Y32450615D01*
X50469886Y32450615D02*
X50405600Y32302996D01*
X50405600Y32302996D02*
X50277029Y32155376D01*
X50277029Y32155376D02*
X50084172Y32081567D01*
X50084172Y32081567D02*
X49762743Y32081567D01*
X43591315Y29659963D02*
X43784173Y29586154D01*
X43784173Y29586154D02*
X44105601Y29586154D01*
X44105601Y29586154D02*
X44234173Y29659963D01*
X44234173Y29659963D02*
X44298458Y29733773D01*
X44298458Y29733773D02*
X44362744Y29881392D01*
X44362744Y29881392D02*
X44362744Y30029011D01*
X44362744Y30029011D02*
X44298458Y30176630D01*
X44298458Y30176630D02*
X44234173Y30250440D01*
X44234173Y30250440D02*
X44105601Y30324249D01*
X44105601Y30324249D02*
X43848458Y30398059D01*
X43848458Y30398059D02*
X43719887Y30471868D01*
X43719887Y30471868D02*
X43655601Y30545678D01*
X43655601Y30545678D02*
X43591315Y30693297D01*
X43591315Y30693297D02*
X43591315Y30840916D01*
X43591315Y30840916D02*
X43655601Y30988535D01*
X43655601Y30988535D02*
X43719887Y31062344D01*
X43719887Y31062344D02*
X43848458Y31136154D01*
X43848458Y31136154D02*
X44169887Y31136154D01*
X44169887Y31136154D02*
X44362744Y31062344D01*
X44941315Y29586154D02*
X44941315Y31136154D01*
X44941315Y31136154D02*
X45262744Y31136154D01*
X45262744Y31136154D02*
X45455601Y31062344D01*
X45455601Y31062344D02*
X45584172Y30914725D01*
X45584172Y30914725D02*
X45648458Y30767106D01*
X45648458Y30767106D02*
X45712744Y30471868D01*
X45712744Y30471868D02*
X45712744Y30250440D01*
X45712744Y30250440D02*
X45648458Y29955202D01*
X45648458Y29955202D02*
X45584172Y29807583D01*
X45584172Y29807583D02*
X45455601Y29659963D01*
X45455601Y29659963D02*
X45262744Y29586154D01*
X45262744Y29586154D02*
X44941315Y29586154D01*
X46227029Y30029011D02*
X46869887Y30029011D01*
X46098458Y29586154D02*
X46548458Y31136154D01*
X46548458Y31136154D02*
X46998458Y29586154D01*
X49184172Y31062344D02*
X49055601Y31136154D01*
X49055601Y31136154D02*
X48862743Y31136154D01*
X48862743Y31136154D02*
X48669886Y31062344D01*
X48669886Y31062344D02*
X48541315Y30914725D01*
X48541315Y30914725D02*
X48477029Y30767106D01*
X48477029Y30767106D02*
X48412743Y30471868D01*
X48412743Y30471868D02*
X48412743Y30250440D01*
X48412743Y30250440D02*
X48477029Y29955202D01*
X48477029Y29955202D02*
X48541315Y29807583D01*
X48541315Y29807583D02*
X48669886Y29659963D01*
X48669886Y29659963D02*
X48862743Y29586154D01*
X48862743Y29586154D02*
X48991315Y29586154D01*
X48991315Y29586154D02*
X49184172Y29659963D01*
X49184172Y29659963D02*
X49248458Y29733773D01*
X49248458Y29733773D02*
X49248458Y30250440D01*
X49248458Y30250440D02*
X48991315Y30250440D01*
X50019886Y30471868D02*
X49891315Y30545678D01*
X49891315Y30545678D02*
X49827029Y30619487D01*
X49827029Y30619487D02*
X49762743Y30767106D01*
X49762743Y30767106D02*
X49762743Y30840916D01*
X49762743Y30840916D02*
X49827029Y30988535D01*
X49827029Y30988535D02*
X49891315Y31062344D01*
X49891315Y31062344D02*
X50019886Y31136154D01*
X50019886Y31136154D02*
X50277029Y31136154D01*
X50277029Y31136154D02*
X50405601Y31062344D01*
X50405601Y31062344D02*
X50469886Y30988535D01*
X50469886Y30988535D02*
X50534172Y30840916D01*
X50534172Y30840916D02*
X50534172Y30767106D01*
X50534172Y30767106D02*
X50469886Y30619487D01*
X50469886Y30619487D02*
X50405601Y30545678D01*
X50405601Y30545678D02*
X50277029Y30471868D01*
X50277029Y30471868D02*
X50019886Y30471868D01*
X50019886Y30471868D02*
X49891315Y30398059D01*
X49891315Y30398059D02*
X49827029Y30324249D01*
X49827029Y30324249D02*
X49762743Y30176630D01*
X49762743Y30176630D02*
X49762743Y29881392D01*
X49762743Y29881392D02*
X49827029Y29733773D01*
X49827029Y29733773D02*
X49891315Y29659963D01*
X49891315Y29659963D02*
X50019886Y29586154D01*
X50019886Y29586154D02*
X50277029Y29586154D01*
X50277029Y29586154D02*
X50405601Y29659963D01*
X50405601Y29659963D02*
X50469886Y29733773D01*
X50469886Y29733773D02*
X50534172Y29881392D01*
X50534172Y29881392D02*
X50534172Y30176630D01*
X50534172Y30176630D02*
X50469886Y30324249D01*
X50469886Y30324249D02*
X50405601Y30398059D01*
X50405601Y30398059D02*
X50277029Y30471868D01*
X47384173Y28640741D02*
X48219887Y28640741D01*
X48219887Y28640741D02*
X47769887Y28050265D01*
X47769887Y28050265D02*
X47962744Y28050265D01*
X47962744Y28050265D02*
X48091316Y27976455D01*
X48091316Y27976455D02*
X48155601Y27902646D01*
X48155601Y27902646D02*
X48219887Y27755027D01*
X48219887Y27755027D02*
X48219887Y27385979D01*
X48219887Y27385979D02*
X48155601Y27238360D01*
X48155601Y27238360D02*
X48091316Y27164550D01*
X48091316Y27164550D02*
X47962744Y27090741D01*
X47962744Y27090741D02*
X47577030Y27090741D01*
X47577030Y27090741D02*
X47448458Y27164550D01*
X47448458Y27164550D02*
X47384173Y27238360D01*
X48669887Y28124074D02*
X48991315Y27090741D01*
X48991315Y27090741D02*
X49312744Y28124074D01*
X49698458Y28640741D02*
X50534172Y28640741D01*
X50534172Y28640741D02*
X50084172Y28050265D01*
X50084172Y28050265D02*
X50277029Y28050265D01*
X50277029Y28050265D02*
X50405601Y27976455D01*
X50405601Y27976455D02*
X50469886Y27902646D01*
X50469886Y27902646D02*
X50534172Y27755027D01*
X50534172Y27755027D02*
X50534172Y27385979D01*
X50534172Y27385979D02*
X50469886Y27238360D01*
X50469886Y27238360D02*
X50405601Y27164550D01*
X50405601Y27164550D02*
X50277029Y27090741D01*
X50277029Y27090741D02*
X49891315Y27090741D01*
X49891315Y27090741D02*
X49762743Y27164550D01*
X49762743Y27164550D02*
X49698458Y27238360D01*
X43655601Y24669137D02*
X43848459Y24595328D01*
X43848459Y24595328D02*
X44169887Y24595328D01*
X44169887Y24595328D02*
X44298459Y24669137D01*
X44298459Y24669137D02*
X44362744Y24742947D01*
X44362744Y24742947D02*
X44427030Y24890566D01*
X44427030Y24890566D02*
X44427030Y25038185D01*
X44427030Y25038185D02*
X44362744Y25185804D01*
X44362744Y25185804D02*
X44298459Y25259614D01*
X44298459Y25259614D02*
X44169887Y25333423D01*
X44169887Y25333423D02*
X43912744Y25407233D01*
X43912744Y25407233D02*
X43784173Y25481042D01*
X43784173Y25481042D02*
X43719887Y25554852D01*
X43719887Y25554852D02*
X43655601Y25702471D01*
X43655601Y25702471D02*
X43655601Y25850090D01*
X43655601Y25850090D02*
X43719887Y25997709D01*
X43719887Y25997709D02*
X43784173Y26071518D01*
X43784173Y26071518D02*
X43912744Y26145328D01*
X43912744Y26145328D02*
X44234173Y26145328D01*
X44234173Y26145328D02*
X44427030Y26071518D01*
X45777030Y24742947D02*
X45712744Y24669137D01*
X45712744Y24669137D02*
X45519887Y24595328D01*
X45519887Y24595328D02*
X45391315Y24595328D01*
X45391315Y24595328D02*
X45198458Y24669137D01*
X45198458Y24669137D02*
X45069887Y24816757D01*
X45069887Y24816757D02*
X45005601Y24964376D01*
X45005601Y24964376D02*
X44941315Y25259614D01*
X44941315Y25259614D02*
X44941315Y25481042D01*
X44941315Y25481042D02*
X45005601Y25776280D01*
X45005601Y25776280D02*
X45069887Y25923899D01*
X45069887Y25923899D02*
X45198458Y26071518D01*
X45198458Y26071518D02*
X45391315Y26145328D01*
X45391315Y26145328D02*
X45519887Y26145328D01*
X45519887Y26145328D02*
X45712744Y26071518D01*
X45712744Y26071518D02*
X45777030Y25997709D01*
X46998458Y24595328D02*
X46355601Y24595328D01*
X46355601Y24595328D02*
X46355601Y26145328D01*
X49184172Y26071518D02*
X49055601Y26145328D01*
X49055601Y26145328D02*
X48862743Y26145328D01*
X48862743Y26145328D02*
X48669886Y26071518D01*
X48669886Y26071518D02*
X48541315Y25923899D01*
X48541315Y25923899D02*
X48477029Y25776280D01*
X48477029Y25776280D02*
X48412743Y25481042D01*
X48412743Y25481042D02*
X48412743Y25259614D01*
X48412743Y25259614D02*
X48477029Y24964376D01*
X48477029Y24964376D02*
X48541315Y24816757D01*
X48541315Y24816757D02*
X48669886Y24669137D01*
X48669886Y24669137D02*
X48862743Y24595328D01*
X48862743Y24595328D02*
X48991315Y24595328D01*
X48991315Y24595328D02*
X49184172Y24669137D01*
X49184172Y24669137D02*
X49248458Y24742947D01*
X49248458Y24742947D02*
X49248458Y25259614D01*
X49248458Y25259614D02*
X48991315Y25259614D01*
X49891315Y24595328D02*
X50148458Y24595328D01*
X50148458Y24595328D02*
X50277029Y24669137D01*
X50277029Y24669137D02*
X50341315Y24742947D01*
X50341315Y24742947D02*
X50469886Y24964376D01*
X50469886Y24964376D02*
X50534172Y25259614D01*
X50534172Y25259614D02*
X50534172Y25850090D01*
X50534172Y25850090D02*
X50469886Y25997709D01*
X50469886Y25997709D02*
X50405601Y26071518D01*
X50405601Y26071518D02*
X50277029Y26145328D01*
X50277029Y26145328D02*
X50019886Y26145328D01*
X50019886Y26145328D02*
X49891315Y26071518D01*
X49891315Y26071518D02*
X49827029Y25997709D01*
X49827029Y25997709D02*
X49762743Y25850090D01*
X49762743Y25850090D02*
X49762743Y25481042D01*
X49762743Y25481042D02*
X49827029Y25333423D01*
X49827029Y25333423D02*
X49891315Y25259614D01*
X49891315Y25259614D02*
X50019886Y25185804D01*
X50019886Y25185804D02*
X50277029Y25185804D01*
X50277029Y25185804D02*
X50405601Y25259614D01*
X50405601Y25259614D02*
X50469886Y25333423D01*
X50469886Y25333423D02*
X50534172Y25481042D01*
X47705600Y23576105D02*
X47577029Y23649915D01*
X47577029Y23649915D02*
X47384171Y23649915D01*
X47384171Y23649915D02*
X47191314Y23576105D01*
X47191314Y23576105D02*
X47062743Y23428486D01*
X47062743Y23428486D02*
X46998457Y23280867D01*
X46998457Y23280867D02*
X46934171Y22985629D01*
X46934171Y22985629D02*
X46934171Y22764201D01*
X46934171Y22764201D02*
X46998457Y22468963D01*
X46998457Y22468963D02*
X47062743Y22321344D01*
X47062743Y22321344D02*
X47191314Y22173724D01*
X47191314Y22173724D02*
X47384171Y22099915D01*
X47384171Y22099915D02*
X47512743Y22099915D01*
X47512743Y22099915D02*
X47705600Y22173724D01*
X47705600Y22173724D02*
X47769886Y22247534D01*
X47769886Y22247534D02*
X47769886Y22764201D01*
X47769886Y22764201D02*
X47512743Y22764201D01*
X48348457Y22099915D02*
X48348457Y23649915D01*
X48348457Y23649915D02*
X49119886Y22099915D01*
X49119886Y22099915D02*
X49119886Y23649915D01*
X49762743Y22099915D02*
X49762743Y23649915D01*
X49762743Y23649915D02*
X50084172Y23649915D01*
X50084172Y23649915D02*
X50277029Y23576105D01*
X50277029Y23576105D02*
X50405600Y23428486D01*
X50405600Y23428486D02*
X50469886Y23280867D01*
X50469886Y23280867D02*
X50534172Y22985629D01*
X50534172Y22985629D02*
X50534172Y22764201D01*
X50534172Y22764201D02*
X50469886Y22468963D01*
X50469886Y22468963D02*
X50405600Y22321344D01*
X50405600Y22321344D02*
X50277029Y22173724D01*
X50277029Y22173724D02*
X50084172Y22099915D01*
X50084172Y22099915D02*
X49762743Y22099915D01*
X16294012Y12636780D02*
X16294012Y13398684D01*
X17829901Y12541542D02*
X17829901Y13160589D01*
X17829901Y13160589D02*
X18420377Y12827256D01*
X18420377Y12827256D02*
X18420377Y12970113D01*
X18420377Y12970113D02*
X18494187Y13065351D01*
X18494187Y13065351D02*
X18567996Y13112970D01*
X18567996Y13112970D02*
X18715615Y13160589D01*
X18715615Y13160589D02*
X19084663Y13160589D01*
X19084663Y13160589D02*
X19232282Y13112970D01*
X19232282Y13112970D02*
X19306092Y13065351D01*
X19306092Y13065351D02*
X19379901Y12970113D01*
X19379901Y12970113D02*
X19379901Y12684399D01*
X19379901Y12684399D02*
X19306092Y12589161D01*
X19306092Y12589161D02*
X19232282Y12541542D01*
X18346568Y13493923D02*
X19379901Y13732018D01*
X19379901Y13732018D02*
X18346568Y13970113D01*
X17829901Y14255828D02*
X17829901Y14874875D01*
X17829901Y14874875D02*
X18420377Y14541542D01*
X18420377Y14541542D02*
X18420377Y14684399D01*
X18420377Y14684399D02*
X18494187Y14779637D01*
X18494187Y14779637D02*
X18567996Y14827256D01*
X18567996Y14827256D02*
X18715615Y14874875D01*
X18715615Y14874875D02*
X19084663Y14874875D01*
X19084663Y14874875D02*
X19232282Y14827256D01*
X19232282Y14827256D02*
X19306092Y14779637D01*
X19306092Y14779637D02*
X19379901Y14684399D01*
X19379901Y14684399D02*
X19379901Y14398685D01*
X19379901Y14398685D02*
X19306092Y14303447D01*
X19306092Y14303447D02*
X19232282Y14255828D01*
X21284838Y12636780D02*
X21284838Y13398684D01*
X22894537Y13160589D02*
X22820727Y13065351D01*
X22820727Y13065351D02*
X22820727Y12922494D01*
X22820727Y12922494D02*
X22894537Y12779637D01*
X22894537Y12779637D02*
X23042156Y12684399D01*
X23042156Y12684399D02*
X23189775Y12636780D01*
X23189775Y12636780D02*
X23485013Y12589161D01*
X23485013Y12589161D02*
X23706441Y12589161D01*
X23706441Y12589161D02*
X24001679Y12636780D01*
X24001679Y12636780D02*
X24149298Y12684399D01*
X24149298Y12684399D02*
X24296918Y12779637D01*
X24296918Y12779637D02*
X24370727Y12922494D01*
X24370727Y12922494D02*
X24370727Y13017732D01*
X24370727Y13017732D02*
X24296918Y13160589D01*
X24296918Y13160589D02*
X24223108Y13208208D01*
X24223108Y13208208D02*
X23706441Y13208208D01*
X23706441Y13208208D02*
X23706441Y13017732D01*
X23337394Y14065351D02*
X24370727Y14065351D01*
X22746918Y13827256D02*
X23854060Y13589161D01*
X23854060Y13589161D02*
X23854060Y14208208D01*
X23485013Y14732018D02*
X23411203Y14636780D01*
X23411203Y14636780D02*
X23337394Y14589161D01*
X23337394Y14589161D02*
X23189775Y14541542D01*
X23189775Y14541542D02*
X23115965Y14541542D01*
X23115965Y14541542D02*
X22968346Y14589161D01*
X22968346Y14589161D02*
X22894537Y14636780D01*
X22894537Y14636780D02*
X22820727Y14732018D01*
X22820727Y14732018D02*
X22820727Y14922494D01*
X22820727Y14922494D02*
X22894537Y15017732D01*
X22894537Y15017732D02*
X22968346Y15065351D01*
X22968346Y15065351D02*
X23115965Y15112970D01*
X23115965Y15112970D02*
X23189775Y15112970D01*
X23189775Y15112970D02*
X23337394Y15065351D01*
X23337394Y15065351D02*
X23411203Y15017732D01*
X23411203Y15017732D02*
X23485013Y14922494D01*
X23485013Y14922494D02*
X23485013Y14732018D01*
X23485013Y14732018D02*
X23558822Y14636780D01*
X23558822Y14636780D02*
X23632632Y14589161D01*
X23632632Y14589161D02*
X23780251Y14541542D01*
X23780251Y14541542D02*
X24075489Y14541542D01*
X24075489Y14541542D02*
X24223108Y14589161D01*
X24223108Y14589161D02*
X24296918Y14636780D01*
X24296918Y14636780D02*
X24370727Y14732018D01*
X24370727Y14732018D02*
X24370727Y14922494D01*
X24370727Y14922494D02*
X24296918Y15017732D01*
X24296918Y15017732D02*
X24223108Y15065351D01*
X24223108Y15065351D02*
X24075489Y15112970D01*
X24075489Y15112970D02*
X23780251Y15112970D01*
X23780251Y15112970D02*
X23632632Y15065351D01*
X23632632Y15065351D02*
X23558822Y15017732D01*
X23558822Y15017732D02*
X23485013Y14922494D01*
X25389950Y13160589D02*
X25316140Y13065351D01*
X25316140Y13065351D02*
X25316140Y12922494D01*
X25316140Y12922494D02*
X25389950Y12779637D01*
X25389950Y12779637D02*
X25537569Y12684399D01*
X25537569Y12684399D02*
X25685188Y12636780D01*
X25685188Y12636780D02*
X25980426Y12589161D01*
X25980426Y12589161D02*
X26201854Y12589161D01*
X26201854Y12589161D02*
X26497092Y12636780D01*
X26497092Y12636780D02*
X26644711Y12684399D01*
X26644711Y12684399D02*
X26792331Y12779637D01*
X26792331Y12779637D02*
X26866140Y12922494D01*
X26866140Y12922494D02*
X26866140Y13017732D01*
X26866140Y13017732D02*
X26792331Y13160589D01*
X26792331Y13160589D02*
X26718521Y13208208D01*
X26718521Y13208208D02*
X26201854Y13208208D01*
X26201854Y13208208D02*
X26201854Y13017732D01*
X25832807Y14065351D02*
X26866140Y14065351D01*
X25242331Y13827256D02*
X26349473Y13589161D01*
X26349473Y13589161D02*
X26349473Y14208208D01*
X25316140Y14493923D02*
X25316140Y15160589D01*
X25316140Y15160589D02*
X26866140Y14732018D01*
X27885363Y13160589D02*
X27811553Y13065351D01*
X27811553Y13065351D02*
X27811553Y12922494D01*
X27811553Y12922494D02*
X27885363Y12779637D01*
X27885363Y12779637D02*
X28032982Y12684399D01*
X28032982Y12684399D02*
X28180601Y12636780D01*
X28180601Y12636780D02*
X28475839Y12589161D01*
X28475839Y12589161D02*
X28697267Y12589161D01*
X28697267Y12589161D02*
X28992505Y12636780D01*
X28992505Y12636780D02*
X29140124Y12684399D01*
X29140124Y12684399D02*
X29287744Y12779637D01*
X29287744Y12779637D02*
X29361553Y12922494D01*
X29361553Y12922494D02*
X29361553Y13017732D01*
X29361553Y13017732D02*
X29287744Y13160589D01*
X29287744Y13160589D02*
X29213934Y13208208D01*
X29213934Y13208208D02*
X28697267Y13208208D01*
X28697267Y13208208D02*
X28697267Y13017732D01*
X27959172Y13589161D02*
X27885363Y13636780D01*
X27885363Y13636780D02*
X27811553Y13732018D01*
X27811553Y13732018D02*
X27811553Y13970113D01*
X27811553Y13970113D02*
X27885363Y14065351D01*
X27885363Y14065351D02*
X27959172Y14112970D01*
X27959172Y14112970D02*
X28106791Y14160589D01*
X28106791Y14160589D02*
X28254410Y14160589D01*
X28254410Y14160589D02*
X28475839Y14112970D01*
X28475839Y14112970D02*
X29361553Y13541542D01*
X29361553Y13541542D02*
X29361553Y14160589D01*
X29361553Y15112970D02*
X29361553Y14541542D01*
X29361553Y14827256D02*
X27811553Y14827256D01*
X27811553Y14827256D02*
X28032982Y14732018D01*
X28032982Y14732018D02*
X28180601Y14636780D01*
X28180601Y14636780D02*
X28254410Y14541542D01*
X30380776Y13160589D02*
X30306966Y13065351D01*
X30306966Y13065351D02*
X30306966Y12922494D01*
X30306966Y12922494D02*
X30380776Y12779637D01*
X30380776Y12779637D02*
X30528395Y12684399D01*
X30528395Y12684399D02*
X30676014Y12636780D01*
X30676014Y12636780D02*
X30971252Y12589161D01*
X30971252Y12589161D02*
X31192680Y12589161D01*
X31192680Y12589161D02*
X31487918Y12636780D01*
X31487918Y12636780D02*
X31635537Y12684399D01*
X31635537Y12684399D02*
X31783157Y12779637D01*
X31783157Y12779637D02*
X31856966Y12922494D01*
X31856966Y12922494D02*
X31856966Y13017732D01*
X31856966Y13017732D02*
X31783157Y13160589D01*
X31783157Y13160589D02*
X31709347Y13208208D01*
X31709347Y13208208D02*
X31192680Y13208208D01*
X31192680Y13208208D02*
X31192680Y13017732D01*
X31856966Y14160589D02*
X31856966Y13589161D01*
X31856966Y13874875D02*
X30306966Y13874875D01*
X30306966Y13874875D02*
X30528395Y13779637D01*
X30528395Y13779637D02*
X30676014Y13684399D01*
X30676014Y13684399D02*
X30749823Y13589161D01*
X30971252Y14732018D02*
X30897442Y14636780D01*
X30897442Y14636780D02*
X30823633Y14589161D01*
X30823633Y14589161D02*
X30676014Y14541542D01*
X30676014Y14541542D02*
X30602204Y14541542D01*
X30602204Y14541542D02*
X30454585Y14589161D01*
X30454585Y14589161D02*
X30380776Y14636780D01*
X30380776Y14636780D02*
X30306966Y14732018D01*
X30306966Y14732018D02*
X30306966Y14922494D01*
X30306966Y14922494D02*
X30380776Y15017732D01*
X30380776Y15017732D02*
X30454585Y15065351D01*
X30454585Y15065351D02*
X30602204Y15112970D01*
X30602204Y15112970D02*
X30676014Y15112970D01*
X30676014Y15112970D02*
X30823633Y15065351D01*
X30823633Y15065351D02*
X30897442Y15017732D01*
X30897442Y15017732D02*
X30971252Y14922494D01*
X30971252Y14922494D02*
X30971252Y14732018D01*
X30971252Y14732018D02*
X31045061Y14636780D01*
X31045061Y14636780D02*
X31118871Y14589161D01*
X31118871Y14589161D02*
X31266490Y14541542D01*
X31266490Y14541542D02*
X31561728Y14541542D01*
X31561728Y14541542D02*
X31709347Y14589161D01*
X31709347Y14589161D02*
X31783157Y14636780D01*
X31783157Y14636780D02*
X31856966Y14732018D01*
X31856966Y14732018D02*
X31856966Y14922494D01*
X31856966Y14922494D02*
X31783157Y15017732D01*
X31783157Y15017732D02*
X31709347Y15065351D01*
X31709347Y15065351D02*
X31561728Y15112970D01*
X31561728Y15112970D02*
X31266490Y15112970D01*
X31266490Y15112970D02*
X31118871Y15065351D01*
X31118871Y15065351D02*
X31045061Y15017732D01*
X31045061Y15017732D02*
X30971252Y14922494D01*
X32876189Y13160589D02*
X32802379Y13065351D01*
X32802379Y13065351D02*
X32802379Y12922494D01*
X32802379Y12922494D02*
X32876189Y12779637D01*
X32876189Y12779637D02*
X33023808Y12684399D01*
X33023808Y12684399D02*
X33171427Y12636780D01*
X33171427Y12636780D02*
X33466665Y12589161D01*
X33466665Y12589161D02*
X33688093Y12589161D01*
X33688093Y12589161D02*
X33983331Y12636780D01*
X33983331Y12636780D02*
X34130950Y12684399D01*
X34130950Y12684399D02*
X34278570Y12779637D01*
X34278570Y12779637D02*
X34352379Y12922494D01*
X34352379Y12922494D02*
X34352379Y13017732D01*
X34352379Y13017732D02*
X34278570Y13160589D01*
X34278570Y13160589D02*
X34204760Y13208208D01*
X34204760Y13208208D02*
X33688093Y13208208D01*
X33688093Y13208208D02*
X33688093Y13017732D01*
X34352379Y14160589D02*
X34352379Y13589161D01*
X34352379Y13874875D02*
X32802379Y13874875D01*
X32802379Y13874875D02*
X33023808Y13779637D01*
X33023808Y13779637D02*
X33171427Y13684399D01*
X33171427Y13684399D02*
X33245236Y13589161D01*
X32802379Y14493923D02*
X32802379Y15160589D01*
X32802379Y15160589D02*
X34352379Y14732018D01*
X35371602Y13160589D02*
X35297792Y13065351D01*
X35297792Y13065351D02*
X35297792Y12922494D01*
X35297792Y12922494D02*
X35371602Y12779637D01*
X35371602Y12779637D02*
X35519221Y12684399D01*
X35519221Y12684399D02*
X35666840Y12636780D01*
X35666840Y12636780D02*
X35962078Y12589161D01*
X35962078Y12589161D02*
X36183506Y12589161D01*
X36183506Y12589161D02*
X36478744Y12636780D01*
X36478744Y12636780D02*
X36626363Y12684399D01*
X36626363Y12684399D02*
X36773983Y12779637D01*
X36773983Y12779637D02*
X36847792Y12922494D01*
X36847792Y12922494D02*
X36847792Y13017732D01*
X36847792Y13017732D02*
X36773983Y13160589D01*
X36773983Y13160589D02*
X36700173Y13208208D01*
X36700173Y13208208D02*
X36183506Y13208208D01*
X36183506Y13208208D02*
X36183506Y13017732D01*
X36847792Y14160589D02*
X36847792Y13589161D01*
X36847792Y13874875D02*
X35297792Y13874875D01*
X35297792Y13874875D02*
X35519221Y13779637D01*
X35519221Y13779637D02*
X35666840Y13684399D01*
X35666840Y13684399D02*
X35740649Y13589161D01*
X35814459Y15017732D02*
X36847792Y15017732D01*
X35223983Y14779637D02*
X36331125Y14541542D01*
X36331125Y14541542D02*
X36331125Y15160589D01*
X39343205Y13160589D02*
X39343205Y12589161D01*
X39343205Y12874875D02*
X37793205Y12874875D01*
X37793205Y12874875D02*
X38014634Y12779637D01*
X38014634Y12779637D02*
X38162253Y12684399D01*
X38162253Y12684399D02*
X38236062Y12589161D01*
X37793205Y13493923D02*
X37793205Y14112970D01*
X37793205Y14112970D02*
X38383681Y13779637D01*
X38383681Y13779637D02*
X38383681Y13922494D01*
X38383681Y13922494D02*
X38457491Y14017732D01*
X38457491Y14017732D02*
X38531300Y14065351D01*
X38531300Y14065351D02*
X38678919Y14112970D01*
X38678919Y14112970D02*
X39047967Y14112970D01*
X39047967Y14112970D02*
X39195586Y14065351D01*
X39195586Y14065351D02*
X39269396Y14017732D01*
X39269396Y14017732D02*
X39343205Y13922494D01*
X39343205Y13922494D02*
X39343205Y13636780D01*
X39343205Y13636780D02*
X39269396Y13541542D01*
X39269396Y13541542D02*
X39195586Y13493923D01*
X41838618Y13160589D02*
X41838618Y12589161D01*
X41838618Y12874875D02*
X40288618Y12874875D01*
X40288618Y12874875D02*
X40510047Y12779637D01*
X40510047Y12779637D02*
X40657666Y12684399D01*
X40657666Y12684399D02*
X40731475Y12589161D01*
X40436237Y13541542D02*
X40362428Y13589161D01*
X40362428Y13589161D02*
X40288618Y13684399D01*
X40288618Y13684399D02*
X40288618Y13922494D01*
X40288618Y13922494D02*
X40362428Y14017732D01*
X40362428Y14017732D02*
X40436237Y14065351D01*
X40436237Y14065351D02*
X40583856Y14112970D01*
X40583856Y14112970D02*
X40731475Y14112970D01*
X40731475Y14112970D02*
X40952904Y14065351D01*
X40952904Y14065351D02*
X41838618Y13493923D01*
X41838618Y13493923D02*
X41838618Y14112970D01*
X43743555Y12636780D02*
X43743555Y13398684D01*
X15024874Y6311134D02*
X15748684Y6311134D01*
X17648684Y6311134D02*
X18372494Y6311134D01*
X18010589Y5930181D02*
X18010589Y6692086D01*
X20272494Y6311134D02*
X20996304Y6311134D01*
X23303447Y6596848D02*
X23303447Y5930181D01*
X23077256Y6977800D02*
X22851066Y6263515D01*
X22851066Y6263515D02*
X23439161Y6263515D01*
X23936780Y6501610D02*
X23846304Y6549229D01*
X23846304Y6549229D02*
X23801066Y6596848D01*
X23801066Y6596848D02*
X23755828Y6692086D01*
X23755828Y6692086D02*
X23755828Y6739705D01*
X23755828Y6739705D02*
X23801066Y6834943D01*
X23801066Y6834943D02*
X23846304Y6882562D01*
X23846304Y6882562D02*
X23936780Y6930181D01*
X23936780Y6930181D02*
X24117733Y6930181D01*
X24117733Y6930181D02*
X24208209Y6882562D01*
X24208209Y6882562D02*
X24253447Y6834943D01*
X24253447Y6834943D02*
X24298685Y6739705D01*
X24298685Y6739705D02*
X24298685Y6692086D01*
X24298685Y6692086D02*
X24253447Y6596848D01*
X24253447Y6596848D02*
X24208209Y6549229D01*
X24208209Y6549229D02*
X24117733Y6501610D01*
X24117733Y6501610D02*
X23936780Y6501610D01*
X23936780Y6501610D02*
X23846304Y6453991D01*
X23846304Y6453991D02*
X23801066Y6406372D01*
X23801066Y6406372D02*
X23755828Y6311134D01*
X23755828Y6311134D02*
X23755828Y6120658D01*
X23755828Y6120658D02*
X23801066Y6025420D01*
X23801066Y6025420D02*
X23846304Y5977800D01*
X23846304Y5977800D02*
X23936780Y5930181D01*
X23936780Y5930181D02*
X24117733Y5930181D01*
X24117733Y5930181D02*
X24208209Y5977800D01*
X24208209Y5977800D02*
X24253447Y6025420D01*
X24253447Y6025420D02*
X24298685Y6120658D01*
X24298685Y6120658D02*
X24298685Y6311134D01*
X24298685Y6311134D02*
X24253447Y6406372D01*
X24253447Y6406372D02*
X24208209Y6453991D01*
X24208209Y6453991D02*
X24117733Y6501610D01*
X25836781Y6596848D02*
X25836781Y5930181D01*
X25610590Y6977800D02*
X25384400Y6263515D01*
X25384400Y6263515D02*
X25972495Y6263515D01*
X26243924Y6930181D02*
X26877257Y6930181D01*
X26877257Y6930181D02*
X26470114Y5930181D01*
X27917734Y6834943D02*
X27962972Y6882562D01*
X27962972Y6882562D02*
X28053448Y6930181D01*
X28053448Y6930181D02*
X28279639Y6930181D01*
X28279639Y6930181D02*
X28370115Y6882562D01*
X28370115Y6882562D02*
X28415353Y6834943D01*
X28415353Y6834943D02*
X28460591Y6739705D01*
X28460591Y6739705D02*
X28460591Y6644467D01*
X28460591Y6644467D02*
X28415353Y6501610D01*
X28415353Y6501610D02*
X27872496Y5930181D01*
X27872496Y5930181D02*
X28460591Y5930181D01*
X29365353Y5930181D02*
X28822496Y5930181D01*
X29093924Y5930181D02*
X29093924Y6930181D01*
X29093924Y6930181D02*
X29003448Y6787324D01*
X29003448Y6787324D02*
X28912972Y6692086D01*
X28912972Y6692086D02*
X28822496Y6644467D01*
X30993925Y5930181D02*
X30451068Y5930181D01*
X30722496Y5930181D02*
X30722496Y6930181D01*
X30722496Y6930181D02*
X30632020Y6787324D01*
X30632020Y6787324D02*
X30541544Y6692086D01*
X30541544Y6692086D02*
X30451068Y6644467D01*
X31536782Y6501610D02*
X31446306Y6549229D01*
X31446306Y6549229D02*
X31401068Y6596848D01*
X31401068Y6596848D02*
X31355830Y6692086D01*
X31355830Y6692086D02*
X31355830Y6739705D01*
X31355830Y6739705D02*
X31401068Y6834943D01*
X31401068Y6834943D02*
X31446306Y6882562D01*
X31446306Y6882562D02*
X31536782Y6930181D01*
X31536782Y6930181D02*
X31717735Y6930181D01*
X31717735Y6930181D02*
X31808211Y6882562D01*
X31808211Y6882562D02*
X31853449Y6834943D01*
X31853449Y6834943D02*
X31898687Y6739705D01*
X31898687Y6739705D02*
X31898687Y6692086D01*
X31898687Y6692086D02*
X31853449Y6596848D01*
X31853449Y6596848D02*
X31808211Y6549229D01*
X31808211Y6549229D02*
X31717735Y6501610D01*
X31717735Y6501610D02*
X31536782Y6501610D01*
X31536782Y6501610D02*
X31446306Y6453991D01*
X31446306Y6453991D02*
X31401068Y6406372D01*
X31401068Y6406372D02*
X31355830Y6311134D01*
X31355830Y6311134D02*
X31355830Y6120658D01*
X31355830Y6120658D02*
X31401068Y6025420D01*
X31401068Y6025420D02*
X31446306Y5977800D01*
X31446306Y5977800D02*
X31536782Y5930181D01*
X31536782Y5930181D02*
X31717735Y5930181D01*
X31717735Y5930181D02*
X31808211Y5977800D01*
X31808211Y5977800D02*
X31853449Y6025420D01*
X31853449Y6025420D02*
X31898687Y6120658D01*
X31898687Y6120658D02*
X31898687Y6311134D01*
X31898687Y6311134D02*
X31853449Y6406372D01*
X31853449Y6406372D02*
X31808211Y6453991D01*
X31808211Y6453991D02*
X31717735Y6501610D01*
X33527259Y5930181D02*
X32984402Y5930181D01*
X33255830Y5930181D02*
X33255830Y6930181D01*
X33255830Y6930181D02*
X33165354Y6787324D01*
X33165354Y6787324D02*
X33074878Y6692086D01*
X33074878Y6692086D02*
X32984402Y6644467D01*
X33843926Y6930181D02*
X34477259Y6930181D01*
X34477259Y6930181D02*
X34070116Y5930181D01*
X36060593Y5930181D02*
X35517736Y5930181D01*
X35789164Y5930181D02*
X35789164Y6930181D01*
X35789164Y6930181D02*
X35698688Y6787324D01*
X35698688Y6787324D02*
X35608212Y6692086D01*
X35608212Y6692086D02*
X35517736Y6644467D01*
X36874879Y6596848D02*
X36874879Y5930181D01*
X36648688Y6977800D02*
X36422498Y6263515D01*
X36422498Y6263515D02*
X37010593Y6263515D01*
X38593927Y5930181D02*
X38051070Y5930181D01*
X38322498Y5930181D02*
X38322498Y6930181D01*
X38322498Y6930181D02*
X38232022Y6787324D01*
X38232022Y6787324D02*
X38141546Y6692086D01*
X38141546Y6692086D02*
X38051070Y6644467D01*
X38910594Y6930181D02*
X39498689Y6930181D01*
X39498689Y6930181D02*
X39182022Y6549229D01*
X39182022Y6549229D02*
X39317737Y6549229D01*
X39317737Y6549229D02*
X39408213Y6501610D01*
X39408213Y6501610D02*
X39453451Y6453991D01*
X39453451Y6453991D02*
X39498689Y6358753D01*
X39498689Y6358753D02*
X39498689Y6120658D01*
X39498689Y6120658D02*
X39453451Y6025420D01*
X39453451Y6025420D02*
X39408213Y5977800D01*
X39408213Y5977800D02*
X39317737Y5930181D01*
X39317737Y5930181D02*
X39046308Y5930181D01*
X39046308Y5930181D02*
X38955832Y5977800D01*
X38955832Y5977800D02*
X38910594Y6025420D01*
X41127261Y5930181D02*
X40584404Y5930181D01*
X40855832Y5930181D02*
X40855832Y6930181D01*
X40855832Y6930181D02*
X40765356Y6787324D01*
X40765356Y6787324D02*
X40674880Y6692086D01*
X40674880Y6692086D02*
X40584404Y6644467D01*
X41489166Y6834943D02*
X41534404Y6882562D01*
X41534404Y6882562D02*
X41624880Y6930181D01*
X41624880Y6930181D02*
X41851071Y6930181D01*
X41851071Y6930181D02*
X41941547Y6882562D01*
X41941547Y6882562D02*
X41986785Y6834943D01*
X41986785Y6834943D02*
X42032023Y6739705D01*
X42032023Y6739705D02*
X42032023Y6644467D01*
X42032023Y6644467D02*
X41986785Y6501610D01*
X41986785Y6501610D02*
X41443928Y5930181D01*
X41443928Y5930181D02*
X42032023Y5930181D01*
X43886786Y6311134D02*
X44610596Y6311134D01*
D10*
X52603884Y48327581D02*
X52603884Y49327581D01*
X52603884Y49327581D02*
X52984836Y49327581D01*
X52984836Y49327581D02*
X53080074Y49279962D01*
X53080074Y49279962D02*
X53127693Y49232343D01*
X53127693Y49232343D02*
X53175312Y49137105D01*
X53175312Y49137105D02*
X53175312Y48994248D01*
X53175312Y48994248D02*
X53127693Y48899010D01*
X53127693Y48899010D02*
X53080074Y48851391D01*
X53080074Y48851391D02*
X52984836Y48803772D01*
X52984836Y48803772D02*
X52603884Y48803772D01*
X53508646Y49327581D02*
X53746741Y48327581D01*
X53746741Y48327581D02*
X53937217Y49041867D01*
X53937217Y49041867D02*
X54127693Y48327581D01*
X54127693Y48327581D02*
X54365789Y49327581D01*
X55318169Y48327581D02*
X54984836Y48803772D01*
X54746741Y48327581D02*
X54746741Y49327581D01*
X54746741Y49327581D02*
X55127693Y49327581D01*
X55127693Y49327581D02*
X55222931Y49279962D01*
X55222931Y49279962D02*
X55270550Y49232343D01*
X55270550Y49232343D02*
X55318169Y49137105D01*
X55318169Y49137105D02*
X55318169Y48994248D01*
X55318169Y48994248D02*
X55270550Y48899010D01*
X55270550Y48899010D02*
X55222931Y48851391D01*
X55222931Y48851391D02*
X55127693Y48803772D01*
X55127693Y48803772D02*
X54746741Y48803772D01*
X15903884Y49427581D02*
X15903884Y48618058D01*
X15903884Y48618058D02*
X15951503Y48522820D01*
X15951503Y48522820D02*
X15999122Y48475200D01*
X15999122Y48475200D02*
X16094360Y48427581D01*
X16094360Y48427581D02*
X16284836Y48427581D01*
X16284836Y48427581D02*
X16380074Y48475200D01*
X16380074Y48475200D02*
X16427693Y48522820D01*
X16427693Y48522820D02*
X16475312Y48618058D01*
X16475312Y48618058D02*
X16475312Y49427581D01*
X16903884Y48475200D02*
X17046741Y48427581D01*
X17046741Y48427581D02*
X17284836Y48427581D01*
X17284836Y48427581D02*
X17380074Y48475200D01*
X17380074Y48475200D02*
X17427693Y48522820D01*
X17427693Y48522820D02*
X17475312Y48618058D01*
X17475312Y48618058D02*
X17475312Y48713296D01*
X17475312Y48713296D02*
X17427693Y48808534D01*
X17427693Y48808534D02*
X17380074Y48856153D01*
X17380074Y48856153D02*
X17284836Y48903772D01*
X17284836Y48903772D02*
X17094360Y48951391D01*
X17094360Y48951391D02*
X16999122Y48999010D01*
X16999122Y48999010D02*
X16951503Y49046629D01*
X16951503Y49046629D02*
X16903884Y49141867D01*
X16903884Y49141867D02*
X16903884Y49237105D01*
X16903884Y49237105D02*
X16951503Y49332343D01*
X16951503Y49332343D02*
X16999122Y49379962D01*
X16999122Y49379962D02*
X17094360Y49427581D01*
X17094360Y49427581D02*
X17332455Y49427581D01*
X17332455Y49427581D02*
X17475312Y49379962D01*
X18475312Y48427581D02*
X18141979Y48903772D01*
X17903884Y48427581D02*
X17903884Y49427581D01*
X17903884Y49427581D02*
X18284836Y49427581D01*
X18284836Y49427581D02*
X18380074Y49379962D01*
X18380074Y49379962D02*
X18427693Y49332343D01*
X18427693Y49332343D02*
X18475312Y49237105D01*
X18475312Y49237105D02*
X18475312Y49094248D01*
X18475312Y49094248D02*
X18427693Y48999010D01*
X18427693Y48999010D02*
X18380074Y48951391D01*
X18380074Y48951391D02*
X18284836Y48903772D01*
X18284836Y48903772D02*
X17903884Y48903772D01*
D11*
X6296847Y44767983D02*
X5630180Y44767983D01*
X6677800Y44994174D02*
X5963514Y45220364D01*
X5963514Y45220364D02*
X5963514Y44632269D01*
X6630180Y43863221D02*
X6630180Y44044174D01*
X6630180Y44044174D02*
X6582561Y44134650D01*
X6582561Y44134650D02*
X6534942Y44179888D01*
X6534942Y44179888D02*
X6392085Y44270364D01*
X6392085Y44270364D02*
X6201609Y44315602D01*
X6201609Y44315602D02*
X5820657Y44315602D01*
X5820657Y44315602D02*
X5725419Y44270364D01*
X5725419Y44270364D02*
X5677800Y44225126D01*
X5677800Y44225126D02*
X5630180Y44134650D01*
X5630180Y44134650D02*
X5630180Y43953697D01*
X5630180Y43953697D02*
X5677800Y43863221D01*
X5677800Y43863221D02*
X5725419Y43817983D01*
X5725419Y43817983D02*
X5820657Y43772745D01*
X5820657Y43772745D02*
X6058752Y43772745D01*
X6058752Y43772745D02*
X6153990Y43817983D01*
X6153990Y43817983D02*
X6201609Y43863221D01*
X6201609Y43863221D02*
X6249228Y43953697D01*
X6249228Y43953697D02*
X6249228Y44134650D01*
X6249228Y44134650D02*
X6201609Y44225126D01*
X6201609Y44225126D02*
X6153990Y44270364D01*
X6153990Y44270364D02*
X6058752Y44315602D01*
X6296847Y42234649D02*
X5630180Y42234649D01*
X6677800Y42460840D02*
X5963514Y42687030D01*
X5963514Y42687030D02*
X5963514Y42098935D01*
X6630180Y41284649D02*
X6630180Y41737030D01*
X6630180Y41737030D02*
X6153990Y41782268D01*
X6153990Y41782268D02*
X6201609Y41737030D01*
X6201609Y41737030D02*
X6249228Y41646554D01*
X6249228Y41646554D02*
X6249228Y41420363D01*
X6249228Y41420363D02*
X6201609Y41329887D01*
X6201609Y41329887D02*
X6153990Y41284649D01*
X6153990Y41284649D02*
X6058752Y41239411D01*
X6058752Y41239411D02*
X5820657Y41239411D01*
X5820657Y41239411D02*
X5725419Y41284649D01*
X5725419Y41284649D02*
X5677800Y41329887D01*
X5677800Y41329887D02*
X5630180Y41420363D01*
X5630180Y41420363D02*
X5630180Y41646554D01*
X5630180Y41646554D02*
X5677800Y41737030D01*
X5677800Y41737030D02*
X5725419Y41782268D01*
X6296847Y39701315D02*
X5630180Y39701315D01*
X6677800Y39927506D02*
X5963514Y40153696D01*
X5963514Y40153696D02*
X5963514Y39565601D01*
X6296847Y38796553D02*
X5630180Y38796553D01*
X6677800Y39022744D02*
X5963514Y39248934D01*
X5963514Y39248934D02*
X5963514Y38660839D01*
X6296847Y37167981D02*
X5630180Y37167981D01*
X6677800Y37394172D02*
X5963514Y37620362D01*
X5963514Y37620362D02*
X5963514Y37032267D01*
X6630180Y36760838D02*
X6630180Y36172743D01*
X6630180Y36172743D02*
X6249228Y36489410D01*
X6249228Y36489410D02*
X6249228Y36353695D01*
X6249228Y36353695D02*
X6201609Y36263219D01*
X6201609Y36263219D02*
X6153990Y36217981D01*
X6153990Y36217981D02*
X6058752Y36172743D01*
X6058752Y36172743D02*
X5820657Y36172743D01*
X5820657Y36172743D02*
X5725419Y36217981D01*
X5725419Y36217981D02*
X5677800Y36263219D01*
X5677800Y36263219D02*
X5630180Y36353695D01*
X5630180Y36353695D02*
X5630180Y36625124D01*
X5630180Y36625124D02*
X5677800Y36715600D01*
X5677800Y36715600D02*
X5725419Y36760838D01*
X6296847Y34634647D02*
X5630180Y34634647D01*
X6677800Y34860838D02*
X5963514Y35087028D01*
X5963514Y35087028D02*
X5963514Y34498933D01*
X6534942Y34182266D02*
X6582561Y34137028D01*
X6582561Y34137028D02*
X6630180Y34046552D01*
X6630180Y34046552D02*
X6630180Y33820361D01*
X6630180Y33820361D02*
X6582561Y33729885D01*
X6582561Y33729885D02*
X6534942Y33684647D01*
X6534942Y33684647D02*
X6439704Y33639409D01*
X6439704Y33639409D02*
X6344466Y33639409D01*
X6344466Y33639409D02*
X6201609Y33684647D01*
X6201609Y33684647D02*
X5630180Y34227504D01*
X5630180Y34227504D02*
X5630180Y33639409D01*
X6296847Y32101313D02*
X5630180Y32101313D01*
X6677800Y32327504D02*
X5963514Y32553694D01*
X5963514Y32553694D02*
X5963514Y31965599D01*
X5630180Y31106075D02*
X5630180Y31648932D01*
X5630180Y31377504D02*
X6630180Y31377504D01*
X6630180Y31377504D02*
X6487323Y31467980D01*
X6487323Y31467980D02*
X6392085Y31558456D01*
X6392085Y31558456D02*
X6344466Y31648932D01*
X6296847Y29567979D02*
X5630180Y29567979D01*
X6677800Y29794170D02*
X5963514Y30020360D01*
X5963514Y30020360D02*
X5963514Y29432265D01*
X6630180Y28889408D02*
X6630180Y28798931D01*
X6630180Y28798931D02*
X6582561Y28708455D01*
X6582561Y28708455D02*
X6534942Y28663217D01*
X6534942Y28663217D02*
X6439704Y28617979D01*
X6439704Y28617979D02*
X6249228Y28572741D01*
X6249228Y28572741D02*
X6011133Y28572741D01*
X6011133Y28572741D02*
X5820657Y28617979D01*
X5820657Y28617979D02*
X5725419Y28663217D01*
X5725419Y28663217D02*
X5677800Y28708455D01*
X5677800Y28708455D02*
X5630180Y28798931D01*
X5630180Y28798931D02*
X5630180Y28889408D01*
X5630180Y28889408D02*
X5677800Y28979884D01*
X5677800Y28979884D02*
X5725419Y29025122D01*
X5725419Y29025122D02*
X5820657Y29070360D01*
X5820657Y29070360D02*
X6011133Y29115598D01*
X6011133Y29115598D02*
X6249228Y29115598D01*
X6249228Y29115598D02*
X6439704Y29070360D01*
X6439704Y29070360D02*
X6534942Y29025122D01*
X6534942Y29025122D02*
X6582561Y28979884D01*
X6582561Y28979884D02*
X6630180Y28889408D01*
X6630180Y27532264D02*
X6630180Y26944169D01*
X6630180Y26944169D02*
X6249228Y27260836D01*
X6249228Y27260836D02*
X6249228Y27125121D01*
X6249228Y27125121D02*
X6201609Y27034645D01*
X6201609Y27034645D02*
X6153990Y26989407D01*
X6153990Y26989407D02*
X6058752Y26944169D01*
X6058752Y26944169D02*
X5820657Y26944169D01*
X5820657Y26944169D02*
X5725419Y26989407D01*
X5725419Y26989407D02*
X5677800Y27034645D01*
X5677800Y27034645D02*
X5630180Y27125121D01*
X5630180Y27125121D02*
X5630180Y27396550D01*
X5630180Y27396550D02*
X5677800Y27487026D01*
X5677800Y27487026D02*
X5725419Y27532264D01*
X5630180Y26491788D02*
X5630180Y26310836D01*
X5630180Y26310836D02*
X5677800Y26220359D01*
X5677800Y26220359D02*
X5725419Y26175121D01*
X5725419Y26175121D02*
X5868276Y26084645D01*
X5868276Y26084645D02*
X6058752Y26039407D01*
X6058752Y26039407D02*
X6439704Y26039407D01*
X6439704Y26039407D02*
X6534942Y26084645D01*
X6534942Y26084645D02*
X6582561Y26129883D01*
X6582561Y26129883D02*
X6630180Y26220359D01*
X6630180Y26220359D02*
X6630180Y26401312D01*
X6630180Y26401312D02*
X6582561Y26491788D01*
X6582561Y26491788D02*
X6534942Y26537026D01*
X6534942Y26537026D02*
X6439704Y26582264D01*
X6439704Y26582264D02*
X6201609Y26582264D01*
X6201609Y26582264D02*
X6106371Y26537026D01*
X6106371Y26537026D02*
X6058752Y26491788D01*
X6058752Y26491788D02*
X6011133Y26401312D01*
X6011133Y26401312D02*
X6011133Y26220359D01*
X6011133Y26220359D02*
X6058752Y26129883D01*
X6058752Y26129883D02*
X6106371Y26084645D01*
X6106371Y26084645D02*
X6201609Y26039407D01*
X6630180Y24998930D02*
X6630180Y24410835D01*
X6630180Y24410835D02*
X6249228Y24727502D01*
X6249228Y24727502D02*
X6249228Y24591787D01*
X6249228Y24591787D02*
X6201609Y24501311D01*
X6201609Y24501311D02*
X6153990Y24456073D01*
X6153990Y24456073D02*
X6058752Y24410835D01*
X6058752Y24410835D02*
X5820657Y24410835D01*
X5820657Y24410835D02*
X5725419Y24456073D01*
X5725419Y24456073D02*
X5677800Y24501311D01*
X5677800Y24501311D02*
X5630180Y24591787D01*
X5630180Y24591787D02*
X5630180Y24863216D01*
X5630180Y24863216D02*
X5677800Y24953692D01*
X5677800Y24953692D02*
X5725419Y24998930D01*
X6201609Y23867978D02*
X6249228Y23958454D01*
X6249228Y23958454D02*
X6296847Y24003692D01*
X6296847Y24003692D02*
X6392085Y24048930D01*
X6392085Y24048930D02*
X6439704Y24048930D01*
X6439704Y24048930D02*
X6534942Y24003692D01*
X6534942Y24003692D02*
X6582561Y23958454D01*
X6582561Y23958454D02*
X6630180Y23867978D01*
X6630180Y23867978D02*
X6630180Y23687025D01*
X6630180Y23687025D02*
X6582561Y23596549D01*
X6582561Y23596549D02*
X6534942Y23551311D01*
X6534942Y23551311D02*
X6439704Y23506073D01*
X6439704Y23506073D02*
X6392085Y23506073D01*
X6392085Y23506073D02*
X6296847Y23551311D01*
X6296847Y23551311D02*
X6249228Y23596549D01*
X6249228Y23596549D02*
X6201609Y23687025D01*
X6201609Y23687025D02*
X6201609Y23867978D01*
X6201609Y23867978D02*
X6153990Y23958454D01*
X6153990Y23958454D02*
X6106371Y24003692D01*
X6106371Y24003692D02*
X6011133Y24048930D01*
X6011133Y24048930D02*
X5820657Y24048930D01*
X5820657Y24048930D02*
X5725419Y24003692D01*
X5725419Y24003692D02*
X5677800Y23958454D01*
X5677800Y23958454D02*
X5630180Y23867978D01*
X5630180Y23867978D02*
X5630180Y23687025D01*
X5630180Y23687025D02*
X5677800Y23596549D01*
X5677800Y23596549D02*
X5725419Y23551311D01*
X5725419Y23551311D02*
X5820657Y23506073D01*
X5820657Y23506073D02*
X6011133Y23506073D01*
X6011133Y23506073D02*
X6106371Y23551311D01*
X6106371Y23551311D02*
X6153990Y23596549D01*
X6153990Y23596549D02*
X6201609Y23687025D01*
X6011133Y21651310D02*
X6011133Y20927500D01*
X6011133Y19027500D02*
X6011133Y18303690D01*
X5630180Y18665595D02*
X6392085Y18665595D01*
X6011133Y16403690D02*
X6011133Y15679880D01*
X43759159Y21562344D02*
X43635349Y21636154D01*
X43635349Y21636154D02*
X43449635Y21636154D01*
X43449635Y21636154D02*
X43263921Y21562344D01*
X43263921Y21562344D02*
X43140111Y21414725D01*
X43140111Y21414725D02*
X43078206Y21267106D01*
X43078206Y21267106D02*
X43016302Y20971868D01*
X43016302Y20971868D02*
X43016302Y20750440D01*
X43016302Y20750440D02*
X43078206Y20455202D01*
X43078206Y20455202D02*
X43140111Y20307583D01*
X43140111Y20307583D02*
X43263921Y20159963D01*
X43263921Y20159963D02*
X43449635Y20086154D01*
X43449635Y20086154D02*
X43573444Y20086154D01*
X43573444Y20086154D02*
X43759159Y20159963D01*
X43759159Y20159963D02*
X43821063Y20233773D01*
X43821063Y20233773D02*
X43821063Y20750440D01*
X43821063Y20750440D02*
X43573444Y20750440D01*
X44378206Y20086154D02*
X44378206Y21636154D01*
X44378206Y21636154D02*
X45121063Y20086154D01*
X45121063Y20086154D02*
X45121063Y21636154D01*
X45740111Y20086154D02*
X45740111Y21636154D01*
X45740111Y21636154D02*
X46049635Y21636154D01*
X46049635Y21636154D02*
X46235349Y21562344D01*
X46235349Y21562344D02*
X46359159Y21414725D01*
X46359159Y21414725D02*
X46421064Y21267106D01*
X46421064Y21267106D02*
X46482968Y20971868D01*
X46482968Y20971868D02*
X46482968Y20750440D01*
X46482968Y20750440D02*
X46421064Y20455202D01*
X46421064Y20455202D02*
X46359159Y20307583D01*
X46359159Y20307583D02*
X46235349Y20159963D01*
X46235349Y20159963D02*
X46049635Y20086154D01*
X46049635Y20086154D02*
X45740111Y20086154D01*
X43697254Y19140741D02*
X43078206Y19140741D01*
X43078206Y19140741D02*
X43016302Y18402646D01*
X43016302Y18402646D02*
X43078206Y18476455D01*
X43078206Y18476455D02*
X43202016Y18550265D01*
X43202016Y18550265D02*
X43511540Y18550265D01*
X43511540Y18550265D02*
X43635349Y18476455D01*
X43635349Y18476455D02*
X43697254Y18402646D01*
X43697254Y18402646D02*
X43759159Y18255027D01*
X43759159Y18255027D02*
X43759159Y17885979D01*
X43759159Y17885979D02*
X43697254Y17738360D01*
X43697254Y17738360D02*
X43635349Y17664550D01*
X43635349Y17664550D02*
X43511540Y17590741D01*
X43511540Y17590741D02*
X43202016Y17590741D01*
X43202016Y17590741D02*
X43078206Y17664550D01*
X43078206Y17664550D02*
X43016302Y17738360D01*
X44130587Y19140741D02*
X44563920Y17590741D01*
X44563920Y17590741D02*
X44997254Y19140741D01*
X45802016Y17000265D02*
X45740111Y17074074D01*
X45740111Y17074074D02*
X45616302Y17295503D01*
X45616302Y17295503D02*
X45554397Y17443122D01*
X45554397Y17443122D02*
X45492492Y17664550D01*
X45492492Y17664550D02*
X45430587Y18033598D01*
X45430587Y18033598D02*
X45430587Y18328836D01*
X45430587Y18328836D02*
X45492492Y18697884D01*
X45492492Y18697884D02*
X45554397Y18919312D01*
X45554397Y18919312D02*
X45616302Y19066931D01*
X45616302Y19066931D02*
X45740111Y19288360D01*
X45740111Y19288360D02*
X45802016Y19362170D01*
X46297254Y17590741D02*
X46297254Y18624074D01*
X46297254Y19140741D02*
X46235350Y19066931D01*
X46235350Y19066931D02*
X46297254Y18993122D01*
X46297254Y18993122D02*
X46359159Y19066931D01*
X46359159Y19066931D02*
X46297254Y19140741D01*
X46297254Y19140741D02*
X46297254Y18993122D01*
X46916302Y18624074D02*
X46916302Y17590741D01*
X46916302Y18476455D02*
X46978207Y18550265D01*
X46978207Y18550265D02*
X47102017Y18624074D01*
X47102017Y18624074D02*
X47287731Y18624074D01*
X47287731Y18624074D02*
X47411540Y18550265D01*
X47411540Y18550265D02*
X47473445Y18402646D01*
X47473445Y18402646D02*
X47473445Y17590741D01*
X47968683Y17000265D02*
X48030588Y17074074D01*
X48030588Y17074074D02*
X48154397Y17295503D01*
X48154397Y17295503D02*
X48216302Y17443122D01*
X48216302Y17443122D02*
X48278207Y17664550D01*
X48278207Y17664550D02*
X48340111Y18033598D01*
X48340111Y18033598D02*
X48340111Y18328836D01*
X48340111Y18328836D02*
X48278207Y18697884D01*
X48278207Y18697884D02*
X48216302Y18919312D01*
X48216302Y18919312D02*
X48154397Y19066931D01*
X48154397Y19066931D02*
X48030588Y19288360D01*
X48030588Y19288360D02*
X47968683Y19362170D01*
X43759159Y16571518D02*
X43635349Y16645328D01*
X43635349Y16645328D02*
X43449635Y16645328D01*
X43449635Y16645328D02*
X43263921Y16571518D01*
X43263921Y16571518D02*
X43140111Y16423899D01*
X43140111Y16423899D02*
X43078206Y16276280D01*
X43078206Y16276280D02*
X43016302Y15981042D01*
X43016302Y15981042D02*
X43016302Y15759614D01*
X43016302Y15759614D02*
X43078206Y15464376D01*
X43078206Y15464376D02*
X43140111Y15316757D01*
X43140111Y15316757D02*
X43263921Y15169137D01*
X43263921Y15169137D02*
X43449635Y15095328D01*
X43449635Y15095328D02*
X43573444Y15095328D01*
X43573444Y15095328D02*
X43759159Y15169137D01*
X43759159Y15169137D02*
X43821063Y15242947D01*
X43821063Y15242947D02*
X43821063Y15759614D01*
X43821063Y15759614D02*
X43573444Y15759614D01*
X44378206Y15095328D02*
X44378206Y16645328D01*
X44378206Y16645328D02*
X45121063Y15095328D01*
X45121063Y15095328D02*
X45121063Y16645328D01*
X45740111Y15095328D02*
X45740111Y16645328D01*
X45740111Y16645328D02*
X46049635Y16645328D01*
X46049635Y16645328D02*
X46235349Y16571518D01*
X46235349Y16571518D02*
X46359159Y16423899D01*
X46359159Y16423899D02*
X46421064Y16276280D01*
X46421064Y16276280D02*
X46482968Y15981042D01*
X46482968Y15981042D02*
X46482968Y15759614D01*
X46482968Y15759614D02*
X46421064Y15464376D01*
X46421064Y15464376D02*
X46359159Y15316757D01*
X46359159Y15316757D02*
X46235349Y15169137D01*
X46235349Y15169137D02*
X46049635Y15095328D01*
X46049635Y15095328D02*
X45740111Y15095328D01*
X23397254Y21447389D02*
X23268683Y21514056D01*
X23268683Y21514056D02*
X23075825Y21514056D01*
X23075825Y21514056D02*
X22882968Y21447389D01*
X22882968Y21447389D02*
X22754397Y21314056D01*
X22754397Y21314056D02*
X22690111Y21180722D01*
X22690111Y21180722D02*
X22625825Y20914056D01*
X22625825Y20914056D02*
X22625825Y20714056D01*
X22625825Y20714056D02*
X22690111Y20447389D01*
X22690111Y20447389D02*
X22754397Y20314056D01*
X22754397Y20314056D02*
X22882968Y20180722D01*
X22882968Y20180722D02*
X23075825Y20114056D01*
X23075825Y20114056D02*
X23204397Y20114056D01*
X23204397Y20114056D02*
X23397254Y20180722D01*
X23397254Y20180722D02*
X23461540Y20247389D01*
X23461540Y20247389D02*
X23461540Y20714056D01*
X23461540Y20714056D02*
X23204397Y20714056D01*
X24040111Y20114056D02*
X24040111Y21514056D01*
X24040111Y21514056D02*
X24811540Y20114056D01*
X24811540Y20114056D02*
X24811540Y21514056D01*
X25454397Y20114056D02*
X25454397Y21514056D01*
X25454397Y21514056D02*
X25775826Y21514056D01*
X25775826Y21514056D02*
X25968683Y21447389D01*
X25968683Y21447389D02*
X26097254Y21314056D01*
X26097254Y21314056D02*
X26161540Y21180722D01*
X26161540Y21180722D02*
X26225826Y20914056D01*
X26225826Y20914056D02*
X26225826Y20714056D01*
X26225826Y20714056D02*
X26161540Y20447389D01*
X26161540Y20447389D02*
X26097254Y20314056D01*
X26097254Y20314056D02*
X25968683Y20180722D01*
X25968683Y20180722D02*
X25775826Y20114056D01*
X25775826Y20114056D02*
X25454397Y20114056D01*
X22561540Y19260134D02*
X23397254Y19260134D01*
X23397254Y19260134D02*
X22947254Y18726800D01*
X22947254Y18726800D02*
X23140111Y18726800D01*
X23140111Y18726800D02*
X23268683Y18660134D01*
X23268683Y18660134D02*
X23332968Y18593467D01*
X23332968Y18593467D02*
X23397254Y18460134D01*
X23397254Y18460134D02*
X23397254Y18126800D01*
X23397254Y18126800D02*
X23332968Y17993467D01*
X23332968Y17993467D02*
X23268683Y17926800D01*
X23268683Y17926800D02*
X23140111Y17860134D01*
X23140111Y17860134D02*
X22754397Y17860134D01*
X22754397Y17860134D02*
X22625825Y17926800D01*
X22625825Y17926800D02*
X22561540Y17993467D01*
X23847254Y18793467D02*
X24168682Y17860134D01*
X24168682Y17860134D02*
X24490111Y18793467D01*
X24875825Y19260134D02*
X25711539Y19260134D01*
X25711539Y19260134D02*
X25261539Y18726800D01*
X25261539Y18726800D02*
X25454396Y18726800D01*
X25454396Y18726800D02*
X25582968Y18660134D01*
X25582968Y18660134D02*
X25647253Y18593467D01*
X25647253Y18593467D02*
X25711539Y18460134D01*
X25711539Y18460134D02*
X25711539Y18126800D01*
X25711539Y18126800D02*
X25647253Y17993467D01*
X25647253Y17993467D02*
X25582968Y17926800D01*
X25582968Y17926800D02*
X25454396Y17860134D01*
X25454396Y17860134D02*
X25068682Y17860134D01*
X25068682Y17860134D02*
X24940110Y17926800D01*
X24940110Y17926800D02*
X24875825Y17993467D01*
X23397254Y16939545D02*
X23268683Y17006212D01*
X23268683Y17006212D02*
X23075825Y17006212D01*
X23075825Y17006212D02*
X22882968Y16939545D01*
X22882968Y16939545D02*
X22754397Y16806212D01*
X22754397Y16806212D02*
X22690111Y16672878D01*
X22690111Y16672878D02*
X22625825Y16406212D01*
X22625825Y16406212D02*
X22625825Y16206212D01*
X22625825Y16206212D02*
X22690111Y15939545D01*
X22690111Y15939545D02*
X22754397Y15806212D01*
X22754397Y15806212D02*
X22882968Y15672878D01*
X22882968Y15672878D02*
X23075825Y15606212D01*
X23075825Y15606212D02*
X23204397Y15606212D01*
X23204397Y15606212D02*
X23397254Y15672878D01*
X23397254Y15672878D02*
X23461540Y15739545D01*
X23461540Y15739545D02*
X23461540Y16206212D01*
X23461540Y16206212D02*
X23204397Y16206212D01*
X24040111Y15606212D02*
X24040111Y17006212D01*
X24040111Y17006212D02*
X24811540Y15606212D01*
X24811540Y15606212D02*
X24811540Y17006212D01*
X25454397Y15606212D02*
X25454397Y17006212D01*
X25454397Y17006212D02*
X25775826Y17006212D01*
X25775826Y17006212D02*
X25968683Y16939545D01*
X25968683Y16939545D02*
X26097254Y16806212D01*
X26097254Y16806212D02*
X26161540Y16672878D01*
X26161540Y16672878D02*
X26225826Y16406212D01*
X26225826Y16406212D02*
X26225826Y16206212D01*
X26225826Y16206212D02*
X26161540Y15939545D01*
X26161540Y15939545D02*
X26097254Y15806212D01*
X26097254Y15806212D02*
X25968683Y15672878D01*
X25968683Y15672878D02*
X25775826Y15606212D01*
X25775826Y15606212D02*
X25454397Y15606212D01*
X65169819Y16198684D02*
X65169819Y15598684D01*
X65169819Y15898684D02*
X64169819Y15898684D01*
X64169819Y15898684D02*
X64312676Y15798684D01*
X64312676Y15798684D02*
X64407914Y15698684D01*
X64407914Y15698684D02*
X64455533Y15598684D01*
X65169819Y17198684D02*
X65169819Y16598684D01*
X65169819Y16898684D02*
X64169819Y16898684D01*
X64169819Y16898684D02*
X64312676Y16798684D01*
X64312676Y16798684D02*
X64407914Y16698684D01*
X64407914Y16698684D02*
X64455533Y16598684D01*
X65169819Y18998684D02*
X65169819Y18398684D01*
X65169819Y18698684D02*
X64169819Y18698684D01*
X64169819Y18698684D02*
X64312676Y18598684D01*
X64312676Y18598684D02*
X64407914Y18498684D01*
X64407914Y18498684D02*
X64455533Y18398684D01*
X64169819Y19648684D02*
X64169819Y19748684D01*
X64169819Y19748684D02*
X64217438Y19848684D01*
X64217438Y19848684D02*
X64265057Y19898684D01*
X64265057Y19898684D02*
X64360295Y19948684D01*
X64360295Y19948684D02*
X64550771Y19998684D01*
X64550771Y19998684D02*
X64788866Y19998684D01*
X64788866Y19998684D02*
X64979342Y19948684D01*
X64979342Y19948684D02*
X65074580Y19898684D01*
X65074580Y19898684D02*
X65122200Y19848684D01*
X65122200Y19848684D02*
X65169819Y19748684D01*
X65169819Y19748684D02*
X65169819Y19648684D01*
X65169819Y19648684D02*
X65122200Y19548684D01*
X65122200Y19548684D02*
X65074580Y19498684D01*
X65074580Y19498684D02*
X64979342Y19448684D01*
X64979342Y19448684D02*
X64788866Y19398684D01*
X64788866Y19398684D02*
X64550771Y19398684D01*
X64550771Y19398684D02*
X64360295Y19448684D01*
X64360295Y19448684D02*
X64265057Y19498684D01*
X64265057Y19498684D02*
X64217438Y19548684D01*
X64217438Y19548684D02*
X64169819Y19648684D01*
X65169819Y21298684D02*
X65169819Y21498684D01*
X65169819Y21498684D02*
X65122200Y21598684D01*
X65122200Y21598684D02*
X65074580Y21648684D01*
X65074580Y21648684D02*
X64931723Y21748684D01*
X64931723Y21748684D02*
X64741247Y21798684D01*
X64741247Y21798684D02*
X64360295Y21798684D01*
X64360295Y21798684D02*
X64265057Y21748684D01*
X64265057Y21748684D02*
X64217438Y21698684D01*
X64217438Y21698684D02*
X64169819Y21598684D01*
X64169819Y21598684D02*
X64169819Y21398684D01*
X64169819Y21398684D02*
X64217438Y21298684D01*
X64217438Y21298684D02*
X64265057Y21248684D01*
X64265057Y21248684D02*
X64360295Y21198684D01*
X64360295Y21198684D02*
X64598390Y21198684D01*
X64598390Y21198684D02*
X64693628Y21248684D01*
X64693628Y21248684D02*
X64741247Y21298684D01*
X64741247Y21298684D02*
X64788866Y21398684D01*
X64788866Y21398684D02*
X64788866Y21598684D01*
X64788866Y21598684D02*
X64741247Y21698684D01*
X64741247Y21698684D02*
X64693628Y21748684D01*
X64693628Y21748684D02*
X64598390Y21798684D01*
X64598390Y23998684D02*
X64550771Y23898684D01*
X64550771Y23898684D02*
X64503152Y23848684D01*
X64503152Y23848684D02*
X64407914Y23798684D01*
X64407914Y23798684D02*
X64360295Y23798684D01*
X64360295Y23798684D02*
X64265057Y23848684D01*
X64265057Y23848684D02*
X64217438Y23898684D01*
X64217438Y23898684D02*
X64169819Y23998684D01*
X64169819Y23998684D02*
X64169819Y24198684D01*
X64169819Y24198684D02*
X64217438Y24298684D01*
X64217438Y24298684D02*
X64265057Y24348684D01*
X64265057Y24348684D02*
X64360295Y24398684D01*
X64360295Y24398684D02*
X64407914Y24398684D01*
X64407914Y24398684D02*
X64503152Y24348684D01*
X64503152Y24348684D02*
X64550771Y24298684D01*
X64550771Y24298684D02*
X64598390Y24198684D01*
X64598390Y24198684D02*
X64598390Y23998684D01*
X64598390Y23998684D02*
X64646009Y23898684D01*
X64646009Y23898684D02*
X64693628Y23848684D01*
X64693628Y23848684D02*
X64788866Y23798684D01*
X64788866Y23798684D02*
X64979342Y23798684D01*
X64979342Y23798684D02*
X65074580Y23848684D01*
X65074580Y23848684D02*
X65122200Y23898684D01*
X65122200Y23898684D02*
X65169819Y23998684D01*
X65169819Y23998684D02*
X65169819Y24198684D01*
X65169819Y24198684D02*
X65122200Y24298684D01*
X65122200Y24298684D02*
X65074580Y24348684D01*
X65074580Y24348684D02*
X64979342Y24398684D01*
X64979342Y24398684D02*
X64788866Y24398684D01*
X64788866Y24398684D02*
X64693628Y24348684D01*
X64693628Y24348684D02*
X64646009Y24298684D01*
X64646009Y24298684D02*
X64598390Y24198684D01*
X64169819Y26348684D02*
X64169819Y27048684D01*
X64169819Y27048684D02*
X65169819Y26598684D01*
X64169819Y29498684D02*
X64169819Y29298684D01*
X64169819Y29298684D02*
X64217438Y29198684D01*
X64217438Y29198684D02*
X64265057Y29148684D01*
X64265057Y29148684D02*
X64407914Y29048684D01*
X64407914Y29048684D02*
X64598390Y28998684D01*
X64598390Y28998684D02*
X64979342Y28998684D01*
X64979342Y28998684D02*
X65074580Y29048684D01*
X65074580Y29048684D02*
X65122200Y29098684D01*
X65122200Y29098684D02*
X65169819Y29198684D01*
X65169819Y29198684D02*
X65169819Y29398684D01*
X65169819Y29398684D02*
X65122200Y29498684D01*
X65122200Y29498684D02*
X65074580Y29548684D01*
X65074580Y29548684D02*
X64979342Y29598684D01*
X64979342Y29598684D02*
X64741247Y29598684D01*
X64741247Y29598684D02*
X64646009Y29548684D01*
X64646009Y29548684D02*
X64598390Y29498684D01*
X64598390Y29498684D02*
X64550771Y29398684D01*
X64550771Y29398684D02*
X64550771Y29198684D01*
X64550771Y29198684D02*
X64598390Y29098684D01*
X64598390Y29098684D02*
X64646009Y29048684D01*
X64646009Y29048684D02*
X64741247Y28998684D01*
X64169819Y32148684D02*
X64169819Y31648684D01*
X64169819Y31648684D02*
X64646009Y31598684D01*
X64646009Y31598684D02*
X64598390Y31648684D01*
X64598390Y31648684D02*
X64550771Y31748684D01*
X64550771Y31748684D02*
X64550771Y31998684D01*
X64550771Y31998684D02*
X64598390Y32098684D01*
X64598390Y32098684D02*
X64646009Y32148684D01*
X64646009Y32148684D02*
X64741247Y32198684D01*
X64741247Y32198684D02*
X64979342Y32198684D01*
X64979342Y32198684D02*
X65074580Y32148684D01*
X65074580Y32148684D02*
X65122200Y32098684D01*
X65122200Y32098684D02*
X65169819Y31998684D01*
X65169819Y31998684D02*
X65169819Y31748684D01*
X65169819Y31748684D02*
X65122200Y31648684D01*
X65122200Y31648684D02*
X65074580Y31598684D01*
X64503152Y34698684D02*
X65169819Y34698684D01*
X64122200Y34448684D02*
X64836485Y34198684D01*
X64836485Y34198684D02*
X64836485Y34848684D01*
X64169819Y36748684D02*
X64169819Y37398684D01*
X64169819Y37398684D02*
X64550771Y37048684D01*
X64550771Y37048684D02*
X64550771Y37198684D01*
X64550771Y37198684D02*
X64598390Y37298684D01*
X64598390Y37298684D02*
X64646009Y37348684D01*
X64646009Y37348684D02*
X64741247Y37398684D01*
X64741247Y37398684D02*
X64979342Y37398684D01*
X64979342Y37398684D02*
X65074580Y37348684D01*
X65074580Y37348684D02*
X65122200Y37298684D01*
X65122200Y37298684D02*
X65169819Y37198684D01*
X65169819Y37198684D02*
X65169819Y36898684D01*
X65169819Y36898684D02*
X65122200Y36798684D01*
X65122200Y36798684D02*
X65074580Y36748684D01*
X64265057Y39398684D02*
X64217438Y39448684D01*
X64217438Y39448684D02*
X64169819Y39548684D01*
X64169819Y39548684D02*
X64169819Y39798684D01*
X64169819Y39798684D02*
X64217438Y39898684D01*
X64217438Y39898684D02*
X64265057Y39948684D01*
X64265057Y39948684D02*
X64360295Y39998684D01*
X64360295Y39998684D02*
X64455533Y39998684D01*
X64455533Y39998684D02*
X64598390Y39948684D01*
X64598390Y39948684D02*
X65169819Y39348684D01*
X65169819Y39348684D02*
X65169819Y39998684D01*
X65169819Y42598684D02*
X65169819Y41998684D01*
X65169819Y42298684D02*
X64169819Y42298684D01*
X64169819Y42298684D02*
X64312676Y42198684D01*
X64312676Y42198684D02*
X64407914Y42098684D01*
X64407914Y42098684D02*
X64455533Y41998684D01*
X64169819Y44848684D02*
X64169819Y44948684D01*
X64169819Y44948684D02*
X64217438Y45048684D01*
X64217438Y45048684D02*
X64265057Y45098684D01*
X64265057Y45098684D02*
X64360295Y45148684D01*
X64360295Y45148684D02*
X64550771Y45198684D01*
X64550771Y45198684D02*
X64788866Y45198684D01*
X64788866Y45198684D02*
X64979342Y45148684D01*
X64979342Y45148684D02*
X65074580Y45098684D01*
X65074580Y45098684D02*
X65122200Y45048684D01*
X65122200Y45048684D02*
X65169819Y44948684D01*
X65169819Y44948684D02*
X65169819Y44848684D01*
X65169819Y44848684D02*
X65122200Y44748684D01*
X65122200Y44748684D02*
X65074580Y44698684D01*
X65074580Y44698684D02*
X64979342Y44648684D01*
X64979342Y44648684D02*
X64788866Y44598684D01*
X64788866Y44598684D02*
X64550771Y44598684D01*
X64550771Y44598684D02*
X64360295Y44648684D01*
X64360295Y44648684D02*
X64265057Y44698684D01*
X64265057Y44698684D02*
X64217438Y44748684D01*
X64217438Y44748684D02*
X64169819Y44848684D01*
D12*
X26690475Y44442725D02*
X27357142Y44442725D01*
X27642856Y43395106D02*
X26690475Y43395106D01*
X26690475Y43395106D02*
X26690475Y45395106D01*
X26690475Y45395106D02*
X27642856Y45395106D01*
X28404761Y43490344D02*
X28690475Y43395106D01*
X28690475Y43395106D02*
X29166666Y43395106D01*
X29166666Y43395106D02*
X29357142Y43490344D01*
X29357142Y43490344D02*
X29452380Y43585583D01*
X29452380Y43585583D02*
X29547618Y43776059D01*
X29547618Y43776059D02*
X29547618Y43966535D01*
X29547618Y43966535D02*
X29452380Y44157011D01*
X29452380Y44157011D02*
X29357142Y44252249D01*
X29357142Y44252249D02*
X29166666Y44347487D01*
X29166666Y44347487D02*
X28785713Y44442725D01*
X28785713Y44442725D02*
X28595237Y44537964D01*
X28595237Y44537964D02*
X28499999Y44633202D01*
X28499999Y44633202D02*
X28404761Y44823678D01*
X28404761Y44823678D02*
X28404761Y45014154D01*
X28404761Y45014154D02*
X28499999Y45204630D01*
X28499999Y45204630D02*
X28595237Y45299868D01*
X28595237Y45299868D02*
X28785713Y45395106D01*
X28785713Y45395106D02*
X29261904Y45395106D01*
X29261904Y45395106D02*
X29547618Y45299868D01*
X30404761Y43395106D02*
X30404761Y45395106D01*
X30404761Y45395106D02*
X31166666Y45395106D01*
X31166666Y45395106D02*
X31357142Y45299868D01*
X31357142Y45299868D02*
X31452380Y45204630D01*
X31452380Y45204630D02*
X31547618Y45014154D01*
X31547618Y45014154D02*
X31547618Y44728440D01*
X31547618Y44728440D02*
X31452380Y44537964D01*
X31452380Y44537964D02*
X31357142Y44442725D01*
X31357142Y44442725D02*
X31166666Y44347487D01*
X31166666Y44347487D02*
X30404761Y44347487D01*
X32214285Y45395106D02*
X33452380Y45395106D01*
X33452380Y45395106D02*
X32785713Y44633202D01*
X32785713Y44633202D02*
X33071428Y44633202D01*
X33071428Y44633202D02*
X33261904Y44537964D01*
X33261904Y44537964D02*
X33357142Y44442725D01*
X33357142Y44442725D02*
X33452380Y44252249D01*
X33452380Y44252249D02*
X33452380Y43776059D01*
X33452380Y43776059D02*
X33357142Y43585583D01*
X33357142Y43585583D02*
X33261904Y43490344D01*
X33261904Y43490344D02*
X33071428Y43395106D01*
X33071428Y43395106D02*
X32499999Y43395106D01*
X32499999Y43395106D02*
X32309523Y43490344D01*
X32309523Y43490344D02*
X32214285Y43585583D01*
X34214285Y45204630D02*
X34309523Y45299868D01*
X34309523Y45299868D02*
X34499999Y45395106D01*
X34499999Y45395106D02*
X34976190Y45395106D01*
X34976190Y45395106D02*
X35166666Y45299868D01*
X35166666Y45299868D02*
X35261904Y45204630D01*
X35261904Y45204630D02*
X35357142Y45014154D01*
X35357142Y45014154D02*
X35357142Y44823678D01*
X35357142Y44823678D02*
X35261904Y44537964D01*
X35261904Y44537964D02*
X34119047Y43395106D01*
X34119047Y43395106D02*
X35357142Y43395106D01*
X36119047Y43490344D02*
X36404761Y43395106D01*
X36404761Y43395106D02*
X36880952Y43395106D01*
X36880952Y43395106D02*
X37071428Y43490344D01*
X37071428Y43490344D02*
X37166666Y43585583D01*
X37166666Y43585583D02*
X37261904Y43776059D01*
X37261904Y43776059D02*
X37261904Y43966535D01*
X37261904Y43966535D02*
X37166666Y44157011D01*
X37166666Y44157011D02*
X37071428Y44252249D01*
X37071428Y44252249D02*
X36880952Y44347487D01*
X36880952Y44347487D02*
X36499999Y44442725D01*
X36499999Y44442725D02*
X36309523Y44537964D01*
X36309523Y44537964D02*
X36214285Y44633202D01*
X36214285Y44633202D02*
X36119047Y44823678D01*
X36119047Y44823678D02*
X36119047Y45014154D01*
X36119047Y45014154D02*
X36214285Y45204630D01*
X36214285Y45204630D02*
X36309523Y45299868D01*
X36309523Y45299868D02*
X36499999Y45395106D01*
X36499999Y45395106D02*
X36976190Y45395106D01*
X36976190Y45395106D02*
X37261904Y45299868D01*
X37928571Y43395106D02*
X38976190Y44728440D01*
X37928571Y44728440D02*
X38976190Y43395106D01*
X40119047Y45395106D02*
X40309524Y45395106D01*
X40309524Y45395106D02*
X40500000Y45299868D01*
X40500000Y45299868D02*
X40595238Y45204630D01*
X40595238Y45204630D02*
X40690476Y45014154D01*
X40690476Y45014154D02*
X40785714Y44633202D01*
X40785714Y44633202D02*
X40785714Y44157011D01*
X40785714Y44157011D02*
X40690476Y43776059D01*
X40690476Y43776059D02*
X40595238Y43585583D01*
X40595238Y43585583D02*
X40500000Y43490344D01*
X40500000Y43490344D02*
X40309524Y43395106D01*
X40309524Y43395106D02*
X40119047Y43395106D01*
X40119047Y43395106D02*
X39928571Y43490344D01*
X39928571Y43490344D02*
X39833333Y43585583D01*
X39833333Y43585583D02*
X39738095Y43776059D01*
X39738095Y43776059D02*
X39642857Y44157011D01*
X39642857Y44157011D02*
X39642857Y44633202D01*
X39642857Y44633202D02*
X39738095Y45014154D01*
X39738095Y45014154D02*
X39833333Y45204630D01*
X39833333Y45204630D02*
X39928571Y45299868D01*
X39928571Y45299868D02*
X40119047Y45395106D01*
X42690476Y43395106D02*
X41547619Y43395106D01*
X42119047Y43395106D02*
X42119047Y45395106D01*
X42119047Y45395106D02*
X41928571Y45109392D01*
X41928571Y45109392D02*
X41738095Y44918916D01*
X41738095Y44918916D02*
X41547619Y44823678D01*
X43452381Y43966535D02*
X44404762Y43966535D01*
X43261905Y43395106D02*
X43928571Y45395106D01*
X43928571Y45395106D02*
X44595238Y43395106D01*
X32166666Y40175218D02*
X32166666Y42175218D01*
X32166666Y42175218D02*
X32833333Y40746647D01*
X32833333Y40746647D02*
X33499999Y42175218D01*
X33499999Y42175218D02*
X33499999Y40175218D01*
X35404761Y40175218D02*
X34452380Y40175218D01*
X34452380Y40175218D02*
X34452380Y42175218D01*
X35976190Y40746647D02*
X36928571Y40746647D01*
X35785714Y40175218D02*
X36452380Y42175218D01*
X36452380Y42175218D02*
X37119047Y40175218D01*
X38452381Y41222837D02*
X38738095Y41127599D01*
X38738095Y41127599D02*
X38833333Y41032361D01*
X38833333Y41032361D02*
X38928571Y40841885D01*
X38928571Y40841885D02*
X38928571Y40556171D01*
X38928571Y40556171D02*
X38833333Y40365695D01*
X38833333Y40365695D02*
X38738095Y40270456D01*
X38738095Y40270456D02*
X38547619Y40175218D01*
X38547619Y40175218D02*
X37785714Y40175218D01*
X37785714Y40175218D02*
X37785714Y42175218D01*
X37785714Y42175218D02*
X38452381Y42175218D01*
X38452381Y42175218D02*
X38642857Y42079980D01*
X38642857Y42079980D02*
X38738095Y41984742D01*
X38738095Y41984742D02*
X38833333Y41794266D01*
X38833333Y41794266D02*
X38833333Y41603790D01*
X38833333Y41603790D02*
X38738095Y41413314D01*
X38738095Y41413314D02*
X38642857Y41318076D01*
X38642857Y41318076D02*
X38452381Y41222837D01*
X38452381Y41222837D02*
X37785714Y41222837D01*
D11*
X60338095Y9645181D02*
X60338095Y10645181D01*
X60338095Y10168991D02*
X60909523Y10168991D01*
X60909523Y9645181D02*
X60909523Y10645181D01*
X61814285Y10311848D02*
X61814285Y9645181D01*
X61576190Y10692800D02*
X61338095Y9978515D01*
X61338095Y9978515D02*
X61957142Y9978515D01*
X9238095Y9745181D02*
X9238095Y10745181D01*
X9238095Y10268991D02*
X9809523Y10268991D01*
X9809523Y9745181D02*
X9809523Y10745181D01*
X10190476Y10745181D02*
X10809523Y10745181D01*
X10809523Y10745181D02*
X10476190Y10364229D01*
X10476190Y10364229D02*
X10619047Y10364229D01*
X10619047Y10364229D02*
X10714285Y10316610D01*
X10714285Y10316610D02*
X10761904Y10268991D01*
X10761904Y10268991D02*
X10809523Y10173753D01*
X10809523Y10173753D02*
X10809523Y9935658D01*
X10809523Y9935658D02*
X10761904Y9840420D01*
X10761904Y9840420D02*
X10714285Y9792800D01*
X10714285Y9792800D02*
X10619047Y9745181D01*
X10619047Y9745181D02*
X10333333Y9745181D01*
X10333333Y9745181D02*
X10238095Y9792800D01*
X10238095Y9792800D02*
X10190476Y9840420D01*
X9338095Y50645181D02*
X9338095Y51645181D01*
X9338095Y51168991D02*
X9909523Y51168991D01*
X9909523Y50645181D02*
X9909523Y51645181D01*
X10909523Y50645181D02*
X10338095Y50645181D01*
X10623809Y50645181D02*
X10623809Y51645181D01*
X10623809Y51645181D02*
X10528571Y51502324D01*
X10528571Y51502324D02*
X10433333Y51407086D01*
X10433333Y51407086D02*
X10338095Y51359467D01*
X52707200Y41366668D02*
X52754819Y41509525D01*
X52754819Y41509525D02*
X52754819Y41747620D01*
X52754819Y41747620D02*
X52707200Y41842858D01*
X52707200Y41842858D02*
X52659580Y41890477D01*
X52659580Y41890477D02*
X52564342Y41938096D01*
X52564342Y41938096D02*
X52469104Y41938096D01*
X52469104Y41938096D02*
X52373866Y41890477D01*
X52373866Y41890477D02*
X52326247Y41842858D01*
X52326247Y41842858D02*
X52278628Y41747620D01*
X52278628Y41747620D02*
X52231009Y41557144D01*
X52231009Y41557144D02*
X52183390Y41461906D01*
X52183390Y41461906D02*
X52135771Y41414287D01*
X52135771Y41414287D02*
X52040533Y41366668D01*
X52040533Y41366668D02*
X51945295Y41366668D01*
X51945295Y41366668D02*
X51850057Y41414287D01*
X51850057Y41414287D02*
X51802438Y41461906D01*
X51802438Y41461906D02*
X51754819Y41557144D01*
X51754819Y41557144D02*
X51754819Y41795239D01*
X51754819Y41795239D02*
X51802438Y41938096D01*
X51754819Y42271430D02*
X52754819Y42509525D01*
X52754819Y42509525D02*
X52040533Y42700001D01*
X52040533Y42700001D02*
X52754819Y42890477D01*
X52754819Y42890477D02*
X51754819Y43128572D01*
X51850057Y43461906D02*
X51802438Y43509525D01*
X51802438Y43509525D02*
X51754819Y43604763D01*
X51754819Y43604763D02*
X51754819Y43842858D01*
X51754819Y43842858D02*
X51802438Y43938096D01*
X51802438Y43938096D02*
X51850057Y43985715D01*
X51850057Y43985715D02*
X51945295Y44033334D01*
X51945295Y44033334D02*
X52040533Y44033334D01*
X52040533Y44033334D02*
X52183390Y43985715D01*
X52183390Y43985715D02*
X52754819Y43414287D01*
X52754819Y43414287D02*
X52754819Y44033334D01*
D13*
X44128709Y11212858D02*
X44128709Y10927144D01*
X44128709Y11070001D02*
X43628709Y11070001D01*
X43628709Y11070001D02*
X43700138Y11022382D01*
X43700138Y11022382D02*
X43747757Y10974763D01*
X43747757Y10974763D02*
X43771566Y10927144D01*
X10942857Y16371291D02*
X10657143Y16371291D01*
X10800000Y16371291D02*
X10800000Y16871291D01*
X10800000Y16871291D02*
X10752381Y16799862D01*
X10752381Y16799862D02*
X10704762Y16752243D01*
X10704762Y16752243D02*
X10657143Y16728434D01*
X60142857Y44371291D02*
X59857143Y44371291D01*
X60000000Y44371291D02*
X60000000Y44871291D01*
X60000000Y44871291D02*
X59952381Y44799862D01*
X59952381Y44799862D02*
X59904762Y44752243D01*
X59904762Y44752243D02*
X59857143Y44728434D01*
D11*
X60238095Y50545181D02*
X60238095Y51545181D01*
X60238095Y51068991D02*
X60809523Y51068991D01*
X60809523Y50545181D02*
X60809523Y51545181D01*
X61238095Y51449943D02*
X61285714Y51497562D01*
X61285714Y51497562D02*
X61380952Y51545181D01*
X61380952Y51545181D02*
X61619047Y51545181D01*
X61619047Y51545181D02*
X61714285Y51497562D01*
X61714285Y51497562D02*
X61761904Y51449943D01*
X61761904Y51449943D02*
X61809523Y51354705D01*
X61809523Y51354705D02*
X61809523Y51259467D01*
X61809523Y51259467D02*
X61761904Y51116610D01*
X61761904Y51116610D02*
X61190476Y50545181D01*
X61190476Y50545181D02*
X61809523Y50545181D01*
X19732200Y41366668D02*
X19779819Y41509525D01*
X19779819Y41509525D02*
X19779819Y41747620D01*
X19779819Y41747620D02*
X19732200Y41842858D01*
X19732200Y41842858D02*
X19684580Y41890477D01*
X19684580Y41890477D02*
X19589342Y41938096D01*
X19589342Y41938096D02*
X19494104Y41938096D01*
X19494104Y41938096D02*
X19398866Y41890477D01*
X19398866Y41890477D02*
X19351247Y41842858D01*
X19351247Y41842858D02*
X19303628Y41747620D01*
X19303628Y41747620D02*
X19256009Y41557144D01*
X19256009Y41557144D02*
X19208390Y41461906D01*
X19208390Y41461906D02*
X19160771Y41414287D01*
X19160771Y41414287D02*
X19065533Y41366668D01*
X19065533Y41366668D02*
X18970295Y41366668D01*
X18970295Y41366668D02*
X18875057Y41414287D01*
X18875057Y41414287D02*
X18827438Y41461906D01*
X18827438Y41461906D02*
X18779819Y41557144D01*
X18779819Y41557144D02*
X18779819Y41795239D01*
X18779819Y41795239D02*
X18827438Y41938096D01*
X18779819Y42271430D02*
X19779819Y42509525D01*
X19779819Y42509525D02*
X19065533Y42700001D01*
X19065533Y42700001D02*
X19779819Y42890477D01*
X19779819Y42890477D02*
X18779819Y43128572D01*
X19779819Y44033334D02*
X19779819Y43461906D01*
X19779819Y43747620D02*
X18779819Y43747620D01*
X18779819Y43747620D02*
X18922676Y43652382D01*
X18922676Y43652382D02*
X19017914Y43557144D01*
X19017914Y43557144D02*
X19065533Y43461906D01*
%TO.C,J1*%
X37589999Y22110000D02*
X42669999Y22110000D01*
X37589999Y14490000D02*
X37589999Y22110000D01*
X42669999Y22110000D02*
X42669999Y14490000D01*
X42669999Y14490000D02*
X37589999Y14490000D01*
%TO.C,J6*%
X17189999Y22110000D02*
X22269999Y22110000D01*
X17189999Y14490000D02*
X17189999Y22110000D01*
X22269999Y22110000D02*
X22269999Y14490000D01*
X22269999Y14490000D02*
X17189999Y14490000D01*
D14*
%TO.C,SW2*%
X50550000Y44900000D02*
X50550000Y40500000D01*
X52350000Y44900000D02*
X52250000Y44900000D01*
X52350000Y40500000D02*
X52250000Y40500000D01*
X54050000Y40500000D02*
X54050000Y44900000D01*
D11*
%TO.C,J4*%
X14690000Y12240000D02*
X45170000Y12240000D01*
X14690000Y7160000D02*
X14690000Y12240000D01*
X45170000Y12240000D02*
X45170000Y7160000D01*
X45170000Y7160000D02*
X14690000Y7160000D01*
%TO.C,J5*%
X6830000Y45810000D02*
X11910000Y45810000D01*
X6830000Y15330000D02*
X6830000Y45810000D01*
X11910000Y45810000D02*
X11910000Y15330000D01*
X11910000Y15330000D02*
X6830000Y15330000D01*
%TO.C,J3*%
X58730000Y45690000D02*
X63810000Y45690000D01*
X58730000Y15210000D02*
X58730000Y45690000D01*
X63810000Y45690000D02*
X63810000Y15210000D01*
X63810000Y15210000D02*
X58730000Y15210000D01*
%TO.C,J7*%
X50889999Y34150000D02*
X55969999Y34150000D01*
X50889999Y21450000D02*
X50889999Y34150000D01*
X55969999Y34150000D02*
X55969999Y21450000D01*
X55969999Y21450000D02*
X50889999Y21450000D01*
D14*
%TO.C,SW1*%
X17575000Y44900000D02*
X17575000Y40500000D01*
X19275000Y44900000D02*
X19375000Y44900000D01*
X19275000Y40500000D02*
X19375000Y40500000D01*
X21075000Y40500000D02*
X21075000Y44900000D01*
%TD*%
D15*
%TO.C,J4*%
X43900000Y10970000D03*
X43900000Y8430000D03*
X41360000Y10970000D03*
X41360000Y8430000D03*
X38820000Y10970000D03*
X38820000Y8430000D03*
X36280000Y10970001D03*
X36280000Y8429999D03*
X33740000Y10970000D03*
X33740000Y8430000D03*
X31200000Y10970000D03*
X31200000Y8430000D03*
X28660000Y10970000D03*
X28660000Y8430000D03*
X26120000Y10970000D03*
X26120000Y8430000D03*
X23580000Y10970001D03*
X23580000Y8429999D03*
X21040000Y10970000D03*
X21040000Y8430000D03*
X18500000Y10970000D03*
X18500000Y8430000D03*
X15960000Y10970000D03*
X15960000Y8430000D03*
%TD*%
%TO.C,J5*%
X10640000Y16600000D03*
X8100000Y16600000D03*
X10640000Y19140000D03*
X8100000Y19140000D03*
X10640000Y21680000D03*
X8100000Y21680000D03*
X10640001Y24220000D03*
X8099999Y24220000D03*
X10640000Y26760000D03*
X8100000Y26760000D03*
X10640000Y29300000D03*
X8100000Y29300000D03*
X10640000Y31840000D03*
X8100000Y31840000D03*
X10640000Y34380000D03*
X8100000Y34380000D03*
X10640001Y36920000D03*
X8099999Y36920000D03*
X10640000Y39460000D03*
X8100000Y39460000D03*
X10640000Y42000000D03*
X8100000Y42000000D03*
X10640000Y44540000D03*
X8100000Y44540000D03*
%TD*%
%TO.C,J3*%
X60000000Y44420000D03*
X62540000Y44420000D03*
X60000000Y41880000D03*
X62540000Y41880000D03*
X60000000Y39340000D03*
X62540000Y39340000D03*
X60000000Y36800000D03*
X62540000Y36800000D03*
X60000000Y34260000D03*
X62540000Y34260000D03*
X60000000Y31720000D03*
X62540000Y31720000D03*
X60000000Y29180000D03*
X62540000Y29180000D03*
X60000000Y26640000D03*
X62540000Y26640000D03*
X60000000Y24100000D03*
X62540000Y24100000D03*
X60000000Y21560000D03*
X62540000Y21560000D03*
X60000000Y19020000D03*
X62540000Y19020000D03*
X60000000Y16480000D03*
X62540000Y16480000D03*
%TD*%
M02*
