M48
; DRILL file {KiCad 9.0.7+1} date 2026-02-15T00:07:05+0000
; FORMAT={3:3/ absolute / metric / suppress leading zeros}
; #@! TF.CreationDate,2026-02-15T00:07:05+00:00
; #@! TF.GenerationSoftware,Kicad,Pcbnew,9.0.7+1
; #@! TF.FileFunction,Plated,1,2,PTH
FMAT,2
METRIC,TZ
; #@! TA.AperFunction,Plated,PTH,ViaDrill
T1C0.300
; #@! TA.AperFunction,Plated,PTH,ComponentDrill
T2C0.500
; #@! TA.AperFunction,Plated,PTH,ComponentDrill
T3C0.600
; #@! TA.AperFunction,Plated,PTH,ComponentDrill
T4C0.889
; #@! TA.AperFunction,Plated,PTH,ComponentDrill
T5C3.200
%
G90
G05
T1
X7800Y47100
X11700Y46700
X13600Y53800
X14400Y15300
X16100Y47700
X18100Y49100
X19200Y51200
X20300Y52700
X20400Y46800
X21688Y47400
X22500Y48700
X23600Y23400
X24500Y26300
X25800Y49000
X26100Y28600
X26500Y45800
X27100Y36000
X27300Y33600
X27400Y31000
X29700Y40200
X29800Y36700
X29800Y33400
X30000Y47700
X30000Y45800
X30000Y43500
X31100Y41100
X31200Y39200
X32900Y33500
X33700Y38100
X33900Y44800
X33900Y33600
X34000Y40000
X35850Y36250
X35900Y24100
X36000Y47700
X36600Y34000
X36600Y31300
X37100Y37500
X37500Y36200
X38900Y39500
X39300Y45000
X39808Y36187
X40100Y46500
X40500Y37700
X40660Y35900
X41100Y47800
X41100Y42400
X41500Y37300
X45000Y31100
X45600Y25500
X46300Y49100
X46400Y21400
X46576Y18076
X46900Y17200
X49200Y14400
X49800Y26200
X49900Y51600
X50200Y17800
X50600Y35500
X51200Y16800
X51600Y37600
X51600Y15400
X53400Y45700
X53500Y46700
X54000Y14400
X55400Y41800
X55900Y17500
X56200Y50500
X56700Y52400
X56900Y42900
T2
X7760Y50800
X7760Y10160
X8463Y52497
X8463Y49103
X8463Y11857
X8463Y8463
X10160Y53200
X10160Y48400
X10160Y12560
X10160Y7760
X11857Y52497
X11857Y49103
X11857Y11857
X11857Y8463
X12560Y50800
X12560Y10160
X58560Y50800
X58560Y10160
X59263Y52497
X59263Y49103
X59263Y11857
X59263Y8463
X60960Y53200
X60960Y48400
X60960Y12560
X60960Y7760
X62657Y52497
X62657Y49103
X62657Y11857
X62657Y8463
X63360Y50800
X63360Y10160
T4
X8100Y36920
X8100Y24220
X8100Y44540
X8100Y42000
X8100Y39460
X8100Y34380
X8100Y31840
X8100Y29300
X8100Y26760
X8100Y21680
X8100Y19140
X8100Y16600
X10640Y44540
X10640Y42000
X10640Y39460
X10640Y34380
X10640Y31840
X10640Y29300
X10640Y26760
X10640Y21680
X10640Y19140
X10640Y16600
X10640Y36920
X10640Y24220
X15960Y10970
X15960Y8430
X18460Y18300
X18460Y20840
X18460Y15760
X18500Y10970
X18500Y8430
X21000Y20840
X21000Y15760
X21000Y18300
X21040Y10970
X21040Y8430
X23580Y10970
X23580Y8430
X26120Y10970
X26120Y8430
X28660Y10970
X28660Y8430
X31200Y10970
X31200Y8430
X33740Y10970
X33740Y8430
X36280Y10970
X36280Y8430
X38820Y10970
X38820Y8430
X38860Y18300
X38860Y20840
X38860Y15760
X41360Y10970
X41360Y8430
X41400Y20840
X41400Y15760
X41400Y18300
X43900Y10970
X43900Y8430
X52160Y27800
X52160Y32880
X52160Y30340
X52160Y25260
X52160Y22720
X54700Y32880
X54700Y30340
X54700Y25260
X54700Y22720
X54700Y27800
X60000Y44420
X60000Y41880
X60000Y39340
X60000Y36800
X60000Y34260
X60000Y31720
X60000Y29180
X60000Y26640
X60000Y24100
X60000Y21560
X60000Y19020
X60000Y16480
X62540Y44420
X62540Y41880
X62540Y39340
X62540Y36800
X62540Y34260
X62540Y31720
X62540Y29180
X62540Y26640
X62540Y24100
X62540Y21560
X62540Y19020
X62540Y16480
T5
X10160Y50800
X10160Y10160
X60960Y50800
X60960Y10160
T3
G00X47290Y11950
M15
G01X47290Y13050
M16
G05
G00X47290Y7920
M15
G01X47290Y8720
M16
G05
G00X55930Y11950
M15
G01X55930Y13050
M16
G05
G00X55930Y7920
M15
G01X55930Y8720
M16
G05
M30
