M48
; DRILL file {KiCad 9.0.6+1} date 2026-01-27T23:35:09+0000
; FORMAT={3:3/ absolute / metric / suppress leading zeros}
; #@! TF.CreationDate,2026-01-27T23:35:09+00:00
; #@! TF.GenerationSoftware,Kicad,Pcbnew,9.0.6+1
; #@! TF.FileFunction,Plated,1,2,PTH
FMAT,2
METRIC,TZ
; #@! TA.AperFunction,Plated,PTH,ComponentDrill
T1C0.500
; #@! TA.AperFunction,Plated,PTH,ComponentDrill
T2C0.600
; #@! TA.AperFunction,Plated,PTH,ComponentDrill
T3C0.889
; #@! TA.AperFunction,Plated,PTH,ComponentDrill
T4C3.200
%
G90
G05
T1
X7760Y50800
X7760Y10160
X8463Y52497
X8463Y49103
X8463Y11857
X8463Y8463
X10160Y53200
X10160Y48400
X10160Y12560
X10160Y7760
X11857Y52497
X11857Y49103
X11857Y11857
X11857Y8463
X12560Y50800
X12560Y10160
X58560Y50800
X58560Y10160
X59263Y52497
X59263Y49103
X59263Y11857
X59263Y8463
X60960Y53200
X60960Y48400
X60960Y12560
X60960Y7760
X62657Y52497
X62657Y49103
X62657Y11857
X62657Y8463
X63360Y50800
X63360Y10160
T3
X-15940Y20500
X-15940Y23040
X-15940Y17960
X-13400Y23040
X-13400Y17960
X-13400Y20500
X8100Y36920
X8100Y24220
X8100Y44540
X8100Y42000
X8100Y39460
X8100Y34380
X8100Y31840
X8100Y29300
X8100Y26760
X8100Y21680
X8100Y19140
X8100Y16600
X10640Y44540
X10640Y42000
X10640Y39460
X10640Y34380
X10640Y31840
X10640Y29300
X10640Y26760
X10640Y21680
X10640Y19140
X10640Y16600
X10640Y36920
X10640Y24220
X15960Y11800
X15960Y9260
X18500Y11800
X18500Y9260
X21040Y11800
X21040Y9260
X23580Y11800
X23580Y9260
X26120Y11800
X26120Y9260
X28660Y11800
X28660Y9260
X31200Y11800
X31200Y9260
X33740Y11800
X33740Y9260
X36280Y11800
X36280Y9260
X38820Y11800
X38820Y9260
X41360Y11800
X41360Y9260
X43900Y11800
X43900Y9260
X52160Y27800
X52160Y32880
X52160Y30340
X52160Y25260
X52160Y22720
X54700Y32880
X54700Y30340
X54700Y25260
X54700Y22720
X54700Y27800
X60000Y44420
X60000Y41880
X60000Y39340
X60000Y36800
X60000Y34260
X60000Y31720
X60000Y29180
X60000Y26640
X60000Y24100
X60000Y21560
X60000Y19020
X60000Y16480
X62540Y44420
X62540Y41880
X62540Y39340
X62540Y36800
X62540Y34260
X62540Y31720
X62540Y29180
X62540Y26640
X62540Y24100
X62540Y21560
X62540Y19020
X62540Y16480
X78560Y9900
X78560Y12440
X78560Y7360
X81100Y12440
X81100Y7360
X81100Y9900
X103850Y34090
X103850Y31550
X103850Y29010
X106390Y34090
X106390Y31550
X106390Y29010
T4
X10160Y50800
X10160Y10160
X60960Y50800
X60960Y10160
T2
G00X47290Y11950
M15
G01X47290Y13050
M16
G05
G00X47290Y7920
M15
G01X47290Y8720
M16
G05
G00X55930Y11950
M15
G01X55930Y13050
M16
G05
G00X55930Y7920
M15
G01X55930Y8720
M16
G05
M30
