%TF.GenerationSoftware,KiCad,Pcbnew,9.0.7+1*%
%TF.CreationDate,2026-02-15T00:07:05+00:00*%
%TF.ProjectId,ESP32Sx01,45535033-3253-4783-9031-2e6b69636164,rev?*%
%TF.SameCoordinates,Original*%
%TF.FileFunction,Legend,Bot*%
%TF.FilePolarity,Positive*%
%FSLAX46Y46*%
G04 Gerber Fmt 4.6, Leading zero omitted, Abs format (unit mm)*
G04 Created by KiCad (PCBNEW 9.0.7+1) date 2026-02-15 00:07:05*
%MOMM*%
%LPD*%
G01*
G04 APERTURE LIST*
%ADD10C,0.150000*%
%ADD11C,0.120000*%
%ADD12C,0.200000*%
G04 APERTURE END LIST*
D10*
X51854819Y51066667D02*
X51378628Y51400000D01*
X51854819Y51638095D02*
X50854819Y51638095D01*
X50854819Y51638095D02*
X50854819Y51257143D01*
X50854819Y51257143D02*
X50902438Y51161905D01*
X50902438Y51161905D02*
X50950057Y51114286D01*
X50950057Y51114286D02*
X51045295Y51066667D01*
X51045295Y51066667D02*
X51188152Y51066667D01*
X51188152Y51066667D02*
X51283390Y51114286D01*
X51283390Y51114286D02*
X51331009Y51161905D01*
X51331009Y51161905D02*
X51378628Y51257143D01*
X51378628Y51257143D02*
X51378628Y51638095D01*
X50854819Y50161905D02*
X50854819Y50638095D01*
X50854819Y50638095D02*
X51331009Y50685714D01*
X51331009Y50685714D02*
X51283390Y50638095D01*
X51283390Y50638095D02*
X51235771Y50542857D01*
X51235771Y50542857D02*
X51235771Y50304762D01*
X51235771Y50304762D02*
X51283390Y50209524D01*
X51283390Y50209524D02*
X51331009Y50161905D01*
X51331009Y50161905D02*
X51426247Y50114286D01*
X51426247Y50114286D02*
X51664342Y50114286D01*
X51664342Y50114286D02*
X51759580Y50161905D01*
X51759580Y50161905D02*
X51807200Y50209524D01*
X51807200Y50209524D02*
X51854819Y50304762D01*
X51854819Y50304762D02*
X51854819Y50542857D01*
X51854819Y50542857D02*
X51807200Y50638095D01*
X51807200Y50638095D02*
X51759580Y50685714D01*
X14966666Y53545181D02*
X15299999Y54021372D01*
X15538094Y53545181D02*
X15538094Y54545181D01*
X15538094Y54545181D02*
X15157142Y54545181D01*
X15157142Y54545181D02*
X15061904Y54497562D01*
X15061904Y54497562D02*
X15014285Y54449943D01*
X15014285Y54449943D02*
X14966666Y54354705D01*
X14966666Y54354705D02*
X14966666Y54211848D01*
X14966666Y54211848D02*
X15014285Y54116610D01*
X15014285Y54116610D02*
X15061904Y54068991D01*
X15061904Y54068991D02*
X15157142Y54021372D01*
X15157142Y54021372D02*
X15538094Y54021372D01*
X14633332Y54545181D02*
X13966666Y54545181D01*
X13966666Y54545181D02*
X14395237Y53545181D01*
X25566666Y47140420D02*
X25614285Y47092800D01*
X25614285Y47092800D02*
X25757142Y47045181D01*
X25757142Y47045181D02*
X25852380Y47045181D01*
X25852380Y47045181D02*
X25995237Y47092800D01*
X25995237Y47092800D02*
X26090475Y47188039D01*
X26090475Y47188039D02*
X26138094Y47283277D01*
X26138094Y47283277D02*
X26185713Y47473753D01*
X26185713Y47473753D02*
X26185713Y47616610D01*
X26185713Y47616610D02*
X26138094Y47807086D01*
X26138094Y47807086D02*
X26090475Y47902324D01*
X26090475Y47902324D02*
X25995237Y47997562D01*
X25995237Y47997562D02*
X25852380Y48045181D01*
X25852380Y48045181D02*
X25757142Y48045181D01*
X25757142Y48045181D02*
X25614285Y47997562D01*
X25614285Y47997562D02*
X25566666Y47949943D01*
X24709523Y48045181D02*
X24899999Y48045181D01*
X24899999Y48045181D02*
X24995237Y47997562D01*
X24995237Y47997562D02*
X25042856Y47949943D01*
X25042856Y47949943D02*
X25138094Y47807086D01*
X25138094Y47807086D02*
X25185713Y47616610D01*
X25185713Y47616610D02*
X25185713Y47235658D01*
X25185713Y47235658D02*
X25138094Y47140420D01*
X25138094Y47140420D02*
X25090475Y47092800D01*
X25090475Y47092800D02*
X24995237Y47045181D01*
X24995237Y47045181D02*
X24804761Y47045181D01*
X24804761Y47045181D02*
X24709523Y47092800D01*
X24709523Y47092800D02*
X24661904Y47140420D01*
X24661904Y47140420D02*
X24614285Y47235658D01*
X24614285Y47235658D02*
X24614285Y47473753D01*
X24614285Y47473753D02*
X24661904Y47568991D01*
X24661904Y47568991D02*
X24709523Y47616610D01*
X24709523Y47616610D02*
X24804761Y47664229D01*
X24804761Y47664229D02*
X24995237Y47664229D01*
X24995237Y47664229D02*
X25090475Y47616610D01*
X25090475Y47616610D02*
X25138094Y47568991D01*
X25138094Y47568991D02*
X25185713Y47473753D01*
X18966666Y45245181D02*
X19299999Y45721372D01*
X19538094Y45245181D02*
X19538094Y46245181D01*
X19538094Y46245181D02*
X19157142Y46245181D01*
X19157142Y46245181D02*
X19061904Y46197562D01*
X19061904Y46197562D02*
X19014285Y46149943D01*
X19014285Y46149943D02*
X18966666Y46054705D01*
X18966666Y46054705D02*
X18966666Y45911848D01*
X18966666Y45911848D02*
X19014285Y45816610D01*
X19014285Y45816610D02*
X19061904Y45768991D01*
X19061904Y45768991D02*
X19157142Y45721372D01*
X19157142Y45721372D02*
X19538094Y45721372D01*
X18109523Y46245181D02*
X18299999Y46245181D01*
X18299999Y46245181D02*
X18395237Y46197562D01*
X18395237Y46197562D02*
X18442856Y46149943D01*
X18442856Y46149943D02*
X18538094Y46007086D01*
X18538094Y46007086D02*
X18585713Y45816610D01*
X18585713Y45816610D02*
X18585713Y45435658D01*
X18585713Y45435658D02*
X18538094Y45340420D01*
X18538094Y45340420D02*
X18490475Y45292800D01*
X18490475Y45292800D02*
X18395237Y45245181D01*
X18395237Y45245181D02*
X18204761Y45245181D01*
X18204761Y45245181D02*
X18109523Y45292800D01*
X18109523Y45292800D02*
X18061904Y45340420D01*
X18061904Y45340420D02*
X18014285Y45435658D01*
X18014285Y45435658D02*
X18014285Y45673753D01*
X18014285Y45673753D02*
X18061904Y45768991D01*
X18061904Y45768991D02*
X18109523Y45816610D01*
X18109523Y45816610D02*
X18204761Y45864229D01*
X18204761Y45864229D02*
X18395237Y45864229D01*
X18395237Y45864229D02*
X18490475Y45816610D01*
X18490475Y45816610D02*
X18538094Y45768991D01*
X18538094Y45768991D02*
X18585713Y45673753D01*
X46466666Y44040420D02*
X46514285Y43992800D01*
X46514285Y43992800D02*
X46657142Y43945181D01*
X46657142Y43945181D02*
X46752380Y43945181D01*
X46752380Y43945181D02*
X46895237Y43992800D01*
X46895237Y43992800D02*
X46990475Y44088039D01*
X46990475Y44088039D02*
X47038094Y44183277D01*
X47038094Y44183277D02*
X47085713Y44373753D01*
X47085713Y44373753D02*
X47085713Y44516610D01*
X47085713Y44516610D02*
X47038094Y44707086D01*
X47038094Y44707086D02*
X46990475Y44802324D01*
X46990475Y44802324D02*
X46895237Y44897562D01*
X46895237Y44897562D02*
X46752380Y44945181D01*
X46752380Y44945181D02*
X46657142Y44945181D01*
X46657142Y44945181D02*
X46514285Y44897562D01*
X46514285Y44897562D02*
X46466666Y44849943D01*
X46133332Y44945181D02*
X45466666Y44945181D01*
X45466666Y44945181D02*
X45895237Y43945181D01*
X14354818Y17638096D02*
X13354818Y17638096D01*
X13354818Y17638096D02*
X13354818Y17400001D01*
X13354818Y17400001D02*
X13402437Y17257144D01*
X13402437Y17257144D02*
X13497675Y17161906D01*
X13497675Y17161906D02*
X13592913Y17114287D01*
X13592913Y17114287D02*
X13783389Y17066668D01*
X13783389Y17066668D02*
X13926246Y17066668D01*
X13926246Y17066668D02*
X14116722Y17114287D01*
X14116722Y17114287D02*
X14211960Y17161906D01*
X14211960Y17161906D02*
X14307199Y17257144D01*
X14307199Y17257144D02*
X14354818Y17400001D01*
X14354818Y17400001D02*
X14354818Y17638096D01*
X13450056Y16685715D02*
X13402437Y16638096D01*
X13402437Y16638096D02*
X13354818Y16542858D01*
X13354818Y16542858D02*
X13354818Y16304763D01*
X13354818Y16304763D02*
X13402437Y16209525D01*
X13402437Y16209525D02*
X13450056Y16161906D01*
X13450056Y16161906D02*
X13545294Y16114287D01*
X13545294Y16114287D02*
X13640532Y16114287D01*
X13640532Y16114287D02*
X13783389Y16161906D01*
X13783389Y16161906D02*
X14354818Y16733334D01*
X14354818Y16733334D02*
X14354818Y16114287D01*
X30911904Y23445182D02*
X30911904Y22635659D01*
X30911904Y22635659D02*
X30864285Y22540421D01*
X30864285Y22540421D02*
X30816666Y22492801D01*
X30816666Y22492801D02*
X30721428Y22445182D01*
X30721428Y22445182D02*
X30530952Y22445182D01*
X30530952Y22445182D02*
X30435714Y22492801D01*
X30435714Y22492801D02*
X30388095Y22540421D01*
X30388095Y22540421D02*
X30340476Y22635659D01*
X30340476Y22635659D02*
X30340476Y23445182D01*
X29340476Y22445182D02*
X29911904Y22445182D01*
X29626190Y22445182D02*
X29626190Y23445182D01*
X29626190Y23445182D02*
X29721428Y23302325D01*
X29721428Y23302325D02*
X29816666Y23207087D01*
X29816666Y23207087D02*
X29911904Y23159468D01*
X36066666Y21840420D02*
X36114285Y21792800D01*
X36114285Y21792800D02*
X36257142Y21745181D01*
X36257142Y21745181D02*
X36352380Y21745181D01*
X36352380Y21745181D02*
X36495237Y21792800D01*
X36495237Y21792800D02*
X36590475Y21888039D01*
X36590475Y21888039D02*
X36638094Y21983277D01*
X36638094Y21983277D02*
X36685713Y22173753D01*
X36685713Y22173753D02*
X36685713Y22316610D01*
X36685713Y22316610D02*
X36638094Y22507086D01*
X36638094Y22507086D02*
X36590475Y22602324D01*
X36590475Y22602324D02*
X36495237Y22697562D01*
X36495237Y22697562D02*
X36352380Y22745181D01*
X36352380Y22745181D02*
X36257142Y22745181D01*
X36257142Y22745181D02*
X36114285Y22697562D01*
X36114285Y22697562D02*
X36066666Y22649943D01*
X35685713Y22649943D02*
X35638094Y22697562D01*
X35638094Y22697562D02*
X35542856Y22745181D01*
X35542856Y22745181D02*
X35304761Y22745181D01*
X35304761Y22745181D02*
X35209523Y22697562D01*
X35209523Y22697562D02*
X35161904Y22649943D01*
X35161904Y22649943D02*
X35114285Y22554705D01*
X35114285Y22554705D02*
X35114285Y22459467D01*
X35114285Y22459467D02*
X35161904Y22316610D01*
X35161904Y22316610D02*
X35733332Y21745181D01*
X35733332Y21745181D02*
X35114285Y21745181D01*
X24859580Y20066667D02*
X24907200Y20114286D01*
X24907200Y20114286D02*
X24954819Y20257143D01*
X24954819Y20257143D02*
X24954819Y20352381D01*
X24954819Y20352381D02*
X24907200Y20495238D01*
X24907200Y20495238D02*
X24811961Y20590476D01*
X24811961Y20590476D02*
X24716723Y20638095D01*
X24716723Y20638095D02*
X24526247Y20685714D01*
X24526247Y20685714D02*
X24383390Y20685714D01*
X24383390Y20685714D02*
X24192914Y20638095D01*
X24192914Y20638095D02*
X24097676Y20590476D01*
X24097676Y20590476D02*
X24002438Y20495238D01*
X24002438Y20495238D02*
X23954819Y20352381D01*
X23954819Y20352381D02*
X23954819Y20257143D01*
X23954819Y20257143D02*
X24002438Y20114286D01*
X24002438Y20114286D02*
X24050057Y20066667D01*
X23954819Y19733333D02*
X23954819Y19114286D01*
X23954819Y19114286D02*
X24335771Y19447619D01*
X24335771Y19447619D02*
X24335771Y19304762D01*
X24335771Y19304762D02*
X24383390Y19209524D01*
X24383390Y19209524D02*
X24431009Y19161905D01*
X24431009Y19161905D02*
X24526247Y19114286D01*
X24526247Y19114286D02*
X24764342Y19114286D01*
X24764342Y19114286D02*
X24859580Y19161905D01*
X24859580Y19161905D02*
X24907200Y19209524D01*
X24907200Y19209524D02*
X24954819Y19304762D01*
X24954819Y19304762D02*
X24954819Y19590476D01*
X24954819Y19590476D02*
X24907200Y19685714D01*
X24907200Y19685714D02*
X24859580Y19733333D01*
X36066666Y13840420D02*
X36114285Y13792800D01*
X36114285Y13792800D02*
X36257142Y13745181D01*
X36257142Y13745181D02*
X36352380Y13745181D01*
X36352380Y13745181D02*
X36495237Y13792800D01*
X36495237Y13792800D02*
X36590475Y13888039D01*
X36590475Y13888039D02*
X36638094Y13983277D01*
X36638094Y13983277D02*
X36685713Y14173753D01*
X36685713Y14173753D02*
X36685713Y14316610D01*
X36685713Y14316610D02*
X36638094Y14507086D01*
X36638094Y14507086D02*
X36590475Y14602324D01*
X36590475Y14602324D02*
X36495237Y14697562D01*
X36495237Y14697562D02*
X36352380Y14745181D01*
X36352380Y14745181D02*
X36257142Y14745181D01*
X36257142Y14745181D02*
X36114285Y14697562D01*
X36114285Y14697562D02*
X36066666Y14649943D01*
X35114285Y13745181D02*
X35685713Y13745181D01*
X35399999Y13745181D02*
X35399999Y14745181D01*
X35399999Y14745181D02*
X35495237Y14602324D01*
X35495237Y14602324D02*
X35590475Y14507086D01*
X35590475Y14507086D02*
X35685713Y14459467D01*
X34966666Y32540420D02*
X35014285Y32492800D01*
X35014285Y32492800D02*
X35157142Y32445181D01*
X35157142Y32445181D02*
X35252380Y32445181D01*
X35252380Y32445181D02*
X35395237Y32492800D01*
X35395237Y32492800D02*
X35490475Y32588039D01*
X35490475Y32588039D02*
X35538094Y32683277D01*
X35538094Y32683277D02*
X35585713Y32873753D01*
X35585713Y32873753D02*
X35585713Y33016610D01*
X35585713Y33016610D02*
X35538094Y33207086D01*
X35538094Y33207086D02*
X35490475Y33302324D01*
X35490475Y33302324D02*
X35395237Y33397562D01*
X35395237Y33397562D02*
X35252380Y33445181D01*
X35252380Y33445181D02*
X35157142Y33445181D01*
X35157142Y33445181D02*
X35014285Y33397562D01*
X35014285Y33397562D02*
X34966666Y33349943D01*
X34061904Y33445181D02*
X34538094Y33445181D01*
X34538094Y33445181D02*
X34585713Y32968991D01*
X34585713Y32968991D02*
X34538094Y33016610D01*
X34538094Y33016610D02*
X34442856Y33064229D01*
X34442856Y33064229D02*
X34204761Y33064229D01*
X34204761Y33064229D02*
X34109523Y33016610D01*
X34109523Y33016610D02*
X34061904Y32968991D01*
X34061904Y32968991D02*
X34014285Y32873753D01*
X34014285Y32873753D02*
X34014285Y32635658D01*
X34014285Y32635658D02*
X34061904Y32540420D01*
X34061904Y32540420D02*
X34109523Y32492800D01*
X34109523Y32492800D02*
X34204761Y32445181D01*
X34204761Y32445181D02*
X34442856Y32445181D01*
X34442856Y32445181D02*
X34538094Y32492800D01*
X34538094Y32492800D02*
X34585713Y32540420D01*
X43154819Y17838095D02*
X42154819Y17838095D01*
X42154819Y17838095D02*
X42154819Y17600000D01*
X42154819Y17600000D02*
X42202438Y17457143D01*
X42202438Y17457143D02*
X42297676Y17361905D01*
X42297676Y17361905D02*
X42392914Y17314286D01*
X42392914Y17314286D02*
X42583390Y17266667D01*
X42583390Y17266667D02*
X42726247Y17266667D01*
X42726247Y17266667D02*
X42916723Y17314286D01*
X42916723Y17314286D02*
X43011961Y17361905D01*
X43011961Y17361905D02*
X43107200Y17457143D01*
X43107200Y17457143D02*
X43154819Y17600000D01*
X43154819Y17600000D02*
X43154819Y17838095D01*
X43154819Y16314286D02*
X43154819Y16885714D01*
X43154819Y16600000D02*
X42154819Y16600000D01*
X42154819Y16600000D02*
X42297676Y16695238D01*
X42297676Y16695238D02*
X42392914Y16790476D01*
X42392914Y16790476D02*
X42440533Y16885714D01*
X27161904Y35545181D02*
X27161904Y34735658D01*
X27161904Y34735658D02*
X27114285Y34640420D01*
X27114285Y34640420D02*
X27066666Y34592800D01*
X27066666Y34592800D02*
X26971428Y34545181D01*
X26971428Y34545181D02*
X26780952Y34545181D01*
X26780952Y34545181D02*
X26685714Y34592800D01*
X26685714Y34592800D02*
X26638095Y34640420D01*
X26638095Y34640420D02*
X26590476Y34735658D01*
X26590476Y34735658D02*
X26590476Y35545181D01*
X26209523Y35545181D02*
X25590476Y35545181D01*
X25590476Y35545181D02*
X25923809Y35164229D01*
X25923809Y35164229D02*
X25780952Y35164229D01*
X25780952Y35164229D02*
X25685714Y35116610D01*
X25685714Y35116610D02*
X25638095Y35068991D01*
X25638095Y35068991D02*
X25590476Y34973753D01*
X25590476Y34973753D02*
X25590476Y34735658D01*
X25590476Y34735658D02*
X25638095Y34640420D01*
X25638095Y34640420D02*
X25685714Y34592800D01*
X25685714Y34592800D02*
X25780952Y34545181D01*
X25780952Y34545181D02*
X26066666Y34545181D01*
X26066666Y34545181D02*
X26161904Y34592800D01*
X26161904Y34592800D02*
X26209523Y34640420D01*
X40321905Y52580896D02*
X39845715Y52580896D01*
X40417143Y52295181D02*
X40083810Y53295181D01*
X40083810Y53295181D02*
X39750477Y52295181D01*
X39417143Y52961848D02*
X39417143Y52295181D01*
X39417143Y52866610D02*
X39369524Y52914229D01*
X39369524Y52914229D02*
X39274286Y52961848D01*
X39274286Y52961848D02*
X39131429Y52961848D01*
X39131429Y52961848D02*
X39036191Y52914229D01*
X39036191Y52914229D02*
X38988572Y52818991D01*
X38988572Y52818991D02*
X38988572Y52295181D01*
X38655238Y52961848D02*
X38274286Y52961848D01*
X38512381Y53295181D02*
X38512381Y52438039D01*
X38512381Y52438039D02*
X38464762Y52342800D01*
X38464762Y52342800D02*
X38369524Y52295181D01*
X38369524Y52295181D02*
X38274286Y52295181D01*
X37560000Y52342800D02*
X37655238Y52295181D01*
X37655238Y52295181D02*
X37845714Y52295181D01*
X37845714Y52295181D02*
X37940952Y52342800D01*
X37940952Y52342800D02*
X37988571Y52438039D01*
X37988571Y52438039D02*
X37988571Y52818991D01*
X37988571Y52818991D02*
X37940952Y52914229D01*
X37940952Y52914229D02*
X37845714Y52961848D01*
X37845714Y52961848D02*
X37655238Y52961848D01*
X37655238Y52961848D02*
X37560000Y52914229D01*
X37560000Y52914229D02*
X37512381Y52818991D01*
X37512381Y52818991D02*
X37512381Y52723753D01*
X37512381Y52723753D02*
X37988571Y52628515D01*
X37083809Y52961848D02*
X37083809Y52295181D01*
X37083809Y52866610D02*
X37036190Y52914229D01*
X37036190Y52914229D02*
X36940952Y52961848D01*
X36940952Y52961848D02*
X36798095Y52961848D01*
X36798095Y52961848D02*
X36702857Y52914229D01*
X36702857Y52914229D02*
X36655238Y52818991D01*
X36655238Y52818991D02*
X36655238Y52295181D01*
X36179047Y52961848D02*
X36179047Y52295181D01*
X36179047Y52866610D02*
X36131428Y52914229D01*
X36131428Y52914229D02*
X36036190Y52961848D01*
X36036190Y52961848D02*
X35893333Y52961848D01*
X35893333Y52961848D02*
X35798095Y52914229D01*
X35798095Y52914229D02*
X35750476Y52818991D01*
X35750476Y52818991D02*
X35750476Y52295181D01*
X34845714Y52295181D02*
X34845714Y52818991D01*
X34845714Y52818991D02*
X34893333Y52914229D01*
X34893333Y52914229D02*
X34988571Y52961848D01*
X34988571Y52961848D02*
X35179047Y52961848D01*
X35179047Y52961848D02*
X35274285Y52914229D01*
X34845714Y52342800D02*
X34940952Y52295181D01*
X34940952Y52295181D02*
X35179047Y52295181D01*
X35179047Y52295181D02*
X35274285Y52342800D01*
X35274285Y52342800D02*
X35321904Y52438039D01*
X35321904Y52438039D02*
X35321904Y52533277D01*
X35321904Y52533277D02*
X35274285Y52628515D01*
X35274285Y52628515D02*
X35179047Y52676134D01*
X35179047Y52676134D02*
X34940952Y52676134D01*
X34940952Y52676134D02*
X34845714Y52723753D01*
X33655237Y52580896D02*
X33179047Y52580896D01*
X33750475Y52295181D02*
X33417142Y53295181D01*
X33417142Y53295181D02*
X33083809Y52295181D01*
X32750475Y52295181D02*
X32750475Y52961848D01*
X32750475Y52771372D02*
X32702856Y52866610D01*
X32702856Y52866610D02*
X32655237Y52914229D01*
X32655237Y52914229D02*
X32559999Y52961848D01*
X32559999Y52961848D02*
X32464761Y52961848D01*
X31750475Y52342800D02*
X31845713Y52295181D01*
X31845713Y52295181D02*
X32036189Y52295181D01*
X32036189Y52295181D02*
X32131427Y52342800D01*
X32131427Y52342800D02*
X32179046Y52438039D01*
X32179046Y52438039D02*
X32179046Y52818991D01*
X32179046Y52818991D02*
X32131427Y52914229D01*
X32131427Y52914229D02*
X32036189Y52961848D01*
X32036189Y52961848D02*
X31845713Y52961848D01*
X31845713Y52961848D02*
X31750475Y52914229D01*
X31750475Y52914229D02*
X31702856Y52818991D01*
X31702856Y52818991D02*
X31702856Y52723753D01*
X31702856Y52723753D02*
X32179046Y52628515D01*
X30845713Y52295181D02*
X30845713Y52818991D01*
X30845713Y52818991D02*
X30893332Y52914229D01*
X30893332Y52914229D02*
X30988570Y52961848D01*
X30988570Y52961848D02*
X31179046Y52961848D01*
X31179046Y52961848D02*
X31274284Y52914229D01*
X30845713Y52342800D02*
X30940951Y52295181D01*
X30940951Y52295181D02*
X31179046Y52295181D01*
X31179046Y52295181D02*
X31274284Y52342800D01*
X31274284Y52342800D02*
X31321903Y52438039D01*
X31321903Y52438039D02*
X31321903Y52533277D01*
X31321903Y52533277D02*
X31274284Y52628515D01*
X31274284Y52628515D02*
X31179046Y52676134D01*
X31179046Y52676134D02*
X30940951Y52676134D01*
X30940951Y52676134D02*
X30845713Y52723753D01*
X21254166Y50545181D02*
X21587499Y51021372D01*
X21825594Y50545181D02*
X21825594Y51545181D01*
X21825594Y51545181D02*
X21444642Y51545181D01*
X21444642Y51545181D02*
X21349404Y51497562D01*
X21349404Y51497562D02*
X21301785Y51449943D01*
X21301785Y51449943D02*
X21254166Y51354705D01*
X21254166Y51354705D02*
X21254166Y51211848D01*
X21254166Y51211848D02*
X21301785Y51116610D01*
X21301785Y51116610D02*
X21349404Y51068991D01*
X21349404Y51068991D02*
X21444642Y51021372D01*
X21444642Y51021372D02*
X21825594Y51021372D01*
X20920832Y51545181D02*
X20301785Y51545181D01*
X20301785Y51545181D02*
X20635118Y51164229D01*
X20635118Y51164229D02*
X20492261Y51164229D01*
X20492261Y51164229D02*
X20397023Y51116610D01*
X20397023Y51116610D02*
X20349404Y51068991D01*
X20349404Y51068991D02*
X20301785Y50973753D01*
X20301785Y50973753D02*
X20301785Y50735658D01*
X20301785Y50735658D02*
X20349404Y50640420D01*
X20349404Y50640420D02*
X20397023Y50592800D01*
X20397023Y50592800D02*
X20492261Y50545181D01*
X20492261Y50545181D02*
X20777975Y50545181D01*
X20777975Y50545181D02*
X20873213Y50592800D01*
X20873213Y50592800D02*
X20920832Y50640420D01*
X55154819Y46366667D02*
X54678628Y46700000D01*
X55154819Y46938095D02*
X54154819Y46938095D01*
X54154819Y46938095D02*
X54154819Y46557143D01*
X54154819Y46557143D02*
X54202438Y46461905D01*
X54202438Y46461905D02*
X54250057Y46414286D01*
X54250057Y46414286D02*
X54345295Y46366667D01*
X54345295Y46366667D02*
X54488152Y46366667D01*
X54488152Y46366667D02*
X54583390Y46414286D01*
X54583390Y46414286D02*
X54631009Y46461905D01*
X54631009Y46461905D02*
X54678628Y46557143D01*
X54678628Y46557143D02*
X54678628Y46938095D01*
X54488152Y45509524D02*
X55154819Y45509524D01*
X54107200Y45747619D02*
X54821485Y45985714D01*
X54821485Y45985714D02*
X54821485Y45366667D01*
X44766666Y15345181D02*
X45099999Y15821372D01*
X45338094Y15345181D02*
X45338094Y16345181D01*
X45338094Y16345181D02*
X44957142Y16345181D01*
X44957142Y16345181D02*
X44861904Y16297562D01*
X44861904Y16297562D02*
X44814285Y16249943D01*
X44814285Y16249943D02*
X44766666Y16154705D01*
X44766666Y16154705D02*
X44766666Y16011848D01*
X44766666Y16011848D02*
X44814285Y15916610D01*
X44814285Y15916610D02*
X44861904Y15868991D01*
X44861904Y15868991D02*
X44957142Y15821372D01*
X44957142Y15821372D02*
X45338094Y15821372D01*
X44385713Y16249943D02*
X44338094Y16297562D01*
X44338094Y16297562D02*
X44242856Y16345181D01*
X44242856Y16345181D02*
X44004761Y16345181D01*
X44004761Y16345181D02*
X43909523Y16297562D01*
X43909523Y16297562D02*
X43861904Y16249943D01*
X43861904Y16249943D02*
X43814285Y16154705D01*
X43814285Y16154705D02*
X43814285Y16059467D01*
X43814285Y16059467D02*
X43861904Y15916610D01*
X43861904Y15916610D02*
X44433332Y15345181D01*
X44433332Y15345181D02*
X43814285Y15345181D01*
X43966666Y32540420D02*
X44014285Y32492800D01*
X44014285Y32492800D02*
X44157142Y32445181D01*
X44157142Y32445181D02*
X44252380Y32445181D01*
X44252380Y32445181D02*
X44395237Y32492800D01*
X44395237Y32492800D02*
X44490475Y32588039D01*
X44490475Y32588039D02*
X44538094Y32683277D01*
X44538094Y32683277D02*
X44585713Y32873753D01*
X44585713Y32873753D02*
X44585713Y33016610D01*
X44585713Y33016610D02*
X44538094Y33207086D01*
X44538094Y33207086D02*
X44490475Y33302324D01*
X44490475Y33302324D02*
X44395237Y33397562D01*
X44395237Y33397562D02*
X44252380Y33445181D01*
X44252380Y33445181D02*
X44157142Y33445181D01*
X44157142Y33445181D02*
X44014285Y33397562D01*
X44014285Y33397562D02*
X43966666Y33349943D01*
X43109523Y33111848D02*
X43109523Y32445181D01*
X43347618Y33492800D02*
X43585713Y32778515D01*
X43585713Y32778515D02*
X42966666Y32778515D01*
X12332739Y45749943D02*
X12427977Y45797562D01*
X12427977Y45797562D02*
X12523215Y45892800D01*
X12523215Y45892800D02*
X12666072Y46035658D01*
X12666072Y46035658D02*
X12761310Y46083277D01*
X12761310Y46083277D02*
X12856548Y46083277D01*
X12808929Y45845181D02*
X12904167Y45892800D01*
X12904167Y45892800D02*
X12999405Y45988039D01*
X12999405Y45988039D02*
X13047024Y46178515D01*
X13047024Y46178515D02*
X13047024Y46511848D01*
X13047024Y46511848D02*
X12999405Y46702324D01*
X12999405Y46702324D02*
X12904167Y46797562D01*
X12904167Y46797562D02*
X12808929Y46845181D01*
X12808929Y46845181D02*
X12618453Y46845181D01*
X12618453Y46845181D02*
X12523215Y46797562D01*
X12523215Y46797562D02*
X12427977Y46702324D01*
X12427977Y46702324D02*
X12380358Y46511848D01*
X12380358Y46511848D02*
X12380358Y46178515D01*
X12380358Y46178515D02*
X12427977Y45988039D01*
X12427977Y45988039D02*
X12523215Y45892800D01*
X12523215Y45892800D02*
X12618453Y45845181D01*
X12618453Y45845181D02*
X12808929Y45845181D01*
X11427977Y45845181D02*
X11999405Y45845181D01*
X11713691Y45845181D02*
X11713691Y46845181D01*
X11713691Y46845181D02*
X11808929Y46702324D01*
X11808929Y46702324D02*
X11904167Y46607086D01*
X11904167Y46607086D02*
X11999405Y46559467D01*
X56154166Y16945181D02*
X56487499Y17421372D01*
X56725594Y16945181D02*
X56725594Y17945181D01*
X56725594Y17945181D02*
X56344642Y17945181D01*
X56344642Y17945181D02*
X56249404Y17897562D01*
X56249404Y17897562D02*
X56201785Y17849943D01*
X56201785Y17849943D02*
X56154166Y17754705D01*
X56154166Y17754705D02*
X56154166Y17611848D01*
X56154166Y17611848D02*
X56201785Y17516610D01*
X56201785Y17516610D02*
X56249404Y17468991D01*
X56249404Y17468991D02*
X56344642Y17421372D01*
X56344642Y17421372D02*
X56725594Y17421372D01*
X55201785Y16945181D02*
X55773213Y16945181D01*
X55487499Y16945181D02*
X55487499Y17945181D01*
X55487499Y17945181D02*
X55582737Y17802324D01*
X55582737Y17802324D02*
X55677975Y17707086D01*
X55677975Y17707086D02*
X55773213Y17659467D01*
X49659580Y51066667D02*
X49707200Y51114286D01*
X49707200Y51114286D02*
X49754819Y51257143D01*
X49754819Y51257143D02*
X49754819Y51352381D01*
X49754819Y51352381D02*
X49707200Y51495238D01*
X49707200Y51495238D02*
X49611961Y51590476D01*
X49611961Y51590476D02*
X49516723Y51638095D01*
X49516723Y51638095D02*
X49326247Y51685714D01*
X49326247Y51685714D02*
X49183390Y51685714D01*
X49183390Y51685714D02*
X48992914Y51638095D01*
X48992914Y51638095D02*
X48897676Y51590476D01*
X48897676Y51590476D02*
X48802438Y51495238D01*
X48802438Y51495238D02*
X48754819Y51352381D01*
X48754819Y51352381D02*
X48754819Y51257143D01*
X48754819Y51257143D02*
X48802438Y51114286D01*
X48802438Y51114286D02*
X48850057Y51066667D01*
X49183390Y50495238D02*
X49135771Y50590476D01*
X49135771Y50590476D02*
X49088152Y50638095D01*
X49088152Y50638095D02*
X48992914Y50685714D01*
X48992914Y50685714D02*
X48945295Y50685714D01*
X48945295Y50685714D02*
X48850057Y50638095D01*
X48850057Y50638095D02*
X48802438Y50590476D01*
X48802438Y50590476D02*
X48754819Y50495238D01*
X48754819Y50495238D02*
X48754819Y50304762D01*
X48754819Y50304762D02*
X48802438Y50209524D01*
X48802438Y50209524D02*
X48850057Y50161905D01*
X48850057Y50161905D02*
X48945295Y50114286D01*
X48945295Y50114286D02*
X48992914Y50114286D01*
X48992914Y50114286D02*
X49088152Y50161905D01*
X49088152Y50161905D02*
X49135771Y50209524D01*
X49135771Y50209524D02*
X49183390Y50304762D01*
X49183390Y50304762D02*
X49183390Y50495238D01*
X49183390Y50495238D02*
X49231009Y50590476D01*
X49231009Y50590476D02*
X49278628Y50638095D01*
X49278628Y50638095D02*
X49373866Y50685714D01*
X49373866Y50685714D02*
X49564342Y50685714D01*
X49564342Y50685714D02*
X49659580Y50638095D01*
X49659580Y50638095D02*
X49707200Y50590476D01*
X49707200Y50590476D02*
X49754819Y50495238D01*
X49754819Y50495238D02*
X49754819Y50304762D01*
X49754819Y50304762D02*
X49707200Y50209524D01*
X49707200Y50209524D02*
X49659580Y50161905D01*
X49659580Y50161905D02*
X49564342Y50114286D01*
X49564342Y50114286D02*
X49373866Y50114286D01*
X49373866Y50114286D02*
X49278628Y50161905D01*
X49278628Y50161905D02*
X49231009Y50209524D01*
X49231009Y50209524D02*
X49183390Y50304762D01*
X47427193Y17849698D02*
X46854773Y17277278D01*
X46854773Y17277278D02*
X46753758Y17243606D01*
X46753758Y17243606D02*
X46686414Y17243606D01*
X46686414Y17243606D02*
X46585399Y17277278D01*
X46585399Y17277278D02*
X46450712Y17411965D01*
X46450712Y17411965D02*
X46417040Y17512980D01*
X46417040Y17512980D02*
X46417040Y17580324D01*
X46417040Y17580324D02*
X46450712Y17681339D01*
X46450712Y17681339D02*
X47023132Y18253759D01*
X46652742Y18489461D02*
X46652742Y18556804D01*
X46652742Y18556804D02*
X46619071Y18657820D01*
X46619071Y18657820D02*
X46450712Y18826178D01*
X46450712Y18826178D02*
X46349697Y18859850D01*
X46349697Y18859850D02*
X46282353Y18859850D01*
X46282353Y18859850D02*
X46181338Y18826178D01*
X46181338Y18826178D02*
X46113994Y18758835D01*
X46113994Y18758835D02*
X46046651Y18624148D01*
X46046651Y18624148D02*
X46046651Y17816026D01*
X46046651Y17816026D02*
X45608918Y18253759D01*
D11*
%TO.C,R5*%
X50665000Y48327064D02*
X50665000Y47872936D01*
X52135000Y48327064D02*
X52135000Y47872936D01*
%TO.C,R7*%
X14065000Y51914564D02*
X14065000Y51460436D01*
X15535000Y51914564D02*
X15535000Y51460436D01*
%TO.C,C6*%
X22898752Y48135000D02*
X22376246Y48135000D01*
X22898752Y46665000D02*
X22376246Y46665000D01*
%TO.C,R6*%
X19039564Y48035000D02*
X18585436Y48035000D01*
X19039564Y46565000D02*
X18585436Y46565000D01*
%TO.C,C7*%
X45565000Y46688748D02*
X45565000Y47211254D01*
X47035000Y46688748D02*
X47035000Y47211254D01*
D12*
%TO.C,J2*%
X46819999Y10969999D02*
X46819999Y9720000D01*
X46819999Y5720000D02*
X46819999Y7000001D01*
X56399999Y10969999D02*
X56399999Y9720000D01*
X56399999Y7000001D02*
X56399999Y5720000D01*
X56399999Y5720000D02*
X46819999Y5720000D01*
D10*
%TO.C,D4*%
X16000000Y53300000D02*
X16000000Y49150000D01*
X18400000Y53300000D02*
X16000000Y53300000D01*
X18400000Y49150000D02*
X18400000Y53300000D01*
D11*
%TO.C,D2*%
X14950000Y19160001D02*
X14950000Y15500001D01*
X14950000Y19160001D02*
X16850000Y19160001D01*
X16850000Y19160001D02*
X16850000Y15500001D01*
%TO.C,U1*%
X28240000Y21810000D02*
X28240000Y20550001D01*
X28240000Y14990000D02*
X28240000Y16249999D01*
X32000000Y21810001D02*
X28240000Y21810000D01*
X32000000Y14989999D02*
X28240000Y14990000D01*
X33280000Y21710000D02*
X33040000Y22040000D01*
X33520000Y22040000D01*
X33280000Y21710000D01*
G36*
X33280000Y21710000D02*
G01*
X33040000Y22040000D01*
X33520000Y22040000D01*
X33280000Y21710000D01*
G37*
%TO.C,C2*%
X35165000Y19688746D02*
X35165000Y20211252D01*
X36635000Y19688746D02*
X36635000Y20211252D01*
%TO.C,C3*%
X23765000Y17461253D02*
X23765000Y16938747D01*
X25235000Y17461253D02*
X25235000Y16938747D01*
%TO.C,C1*%
X35165000Y16711254D02*
X35165000Y16188748D01*
X36635000Y16711254D02*
X36635000Y16188748D01*
%TO.C,C5*%
X37288748Y33635000D02*
X37811254Y33635000D01*
X37288748Y32165000D02*
X37811254Y32165000D01*
%TO.C,D1*%
X43399999Y18360000D02*
X44600001Y18360000D01*
X43400000Y16400000D02*
X43399999Y18360000D01*
X44600000Y16400000D02*
X44600001Y18360000D01*
%TO.C,U3*%
X27710000Y55250000D02*
X27710000Y54250000D01*
X27710000Y34450000D02*
X27710000Y35500000D01*
X27860000Y55100000D02*
X27860000Y50000000D01*
X27860000Y50000000D02*
X27860000Y34600000D01*
X27860000Y34600000D02*
X43260000Y34600000D01*
X28760000Y55250000D02*
X27710000Y55250000D01*
X28760000Y34450000D02*
X27710000Y34450000D01*
X42210000Y55250000D02*
X43410000Y55250000D01*
X42360000Y34450000D02*
X43410000Y34450000D01*
X43260000Y55100000D02*
X27860000Y55100000D01*
X43260000Y55100000D02*
X43260000Y50000000D01*
X43260000Y34600000D02*
X43260000Y50000000D01*
X43410000Y34450000D02*
X43410000Y35500000D01*
%TO.C,R3*%
X20860436Y50135000D02*
X21314564Y50135000D01*
X20860436Y48665000D02*
X21314564Y48665000D01*
%TO.C,R4*%
X55665000Y47127064D02*
X55665000Y46672936D01*
X57135000Y47127064D02*
X57135000Y46672936D01*
%TO.C,R2*%
X47314564Y16535000D02*
X46860436Y16535000D01*
X47314564Y15065000D02*
X46860436Y15065000D01*
%TO.C,C4*%
X41311252Y33635000D02*
X40788746Y33635000D01*
X41311252Y32165000D02*
X40788746Y32165000D01*
%TO.C,Q1*%
X14340000Y48860000D02*
X14340000Y48810000D01*
X14340000Y47690000D02*
X14340000Y46910000D01*
X14340000Y45790000D02*
X14340000Y45740000D01*
X14340000Y45740000D02*
X15860000Y45740000D01*
X15860000Y48860000D02*
X14340000Y48860000D01*
X15860000Y47860000D02*
X15860000Y48860000D01*
X15860000Y45740000D02*
X15860000Y46740000D01*
X13800000Y46920000D02*
X13560000Y47250000D01*
X14040000Y47250000D01*
X13800000Y46920000D01*
G36*
X13800000Y46920000D02*
G01*
X13560000Y47250000D01*
X14040000Y47250000D01*
X13800000Y46920000D01*
G37*
%TO.C,R1*%
X55760436Y16635000D02*
X56214564Y16635000D01*
X55760436Y15165000D02*
X56214564Y15165000D01*
%TO.C,C8*%
X48565000Y47838747D02*
X48565000Y48361253D01*
X50035000Y47838747D02*
X50035000Y48361253D01*
%TO.C,U2*%
X46453446Y19240381D02*
X47740381Y17953446D01*
X46488802Y19275736D02*
X46453446Y19240381D01*
X47740381Y17953446D02*
X47775736Y17988802D01*
X48659619Y21446554D02*
X48624264Y21411198D01*
X49911198Y20124264D02*
X49946554Y20159619D01*
X49946554Y20159619D02*
X48659619Y21446554D01*
X46043324Y19254523D02*
X45703913Y19593934D01*
X46106964Y19657574D01*
X46043324Y19254523D01*
G36*
X46043324Y19254523D02*
G01*
X45703913Y19593934D01*
X46106964Y19657574D01*
X46043324Y19254523D01*
G37*
D10*
%TO.C,D3*%
X52800000Y53300000D02*
X52800000Y49150000D01*
X55200000Y53300000D02*
X52800000Y53300000D01*
X55200000Y49150000D02*
X55200000Y53300000D01*
%TD*%
M02*
