%TF.GenerationSoftware,KiCad,Pcbnew,9.0.6+1*%
%TF.CreationDate,2026-01-27T23:35:09+00:00*%
%TF.ProjectId,ESP32Sx01,45535033-3253-4783-9031-2e6b69636164,rev?*%
%TF.SameCoordinates,Original*%
%TF.FileFunction,Soldermask,Bot*%
%TF.FilePolarity,Negative*%
%FSLAX46Y46*%
G04 Gerber Fmt 4.6, Leading zero omitted, Abs format (unit mm)*
G04 Created by KiCad (PCBNEW 9.0.6+1) date 2026-01-27 23:35:09*
%MOMM*%
%LPD*%
G01*
G04 APERTURE LIST*
G04 Aperture macros list*
%AMRoundRect*
0 Rectangle with rounded corners*
0 $1 Rounding radius*
0 $2 $3 $4 $5 $6 $7 $8 $9 X,Y pos of 4 corners*
0 Add a 4 corners polygon primitive as box body*
4,1,4,$2,$3,$4,$5,$6,$7,$8,$9,$2,$3,0*
0 Add four circle primitives for the rounded corners*
1,1,$1+$1,$2,$3*
1,1,$1+$1,$4,$5*
1,1,$1+$1,$6,$7*
1,1,$1+$1,$8,$9*
0 Add four rect primitives between the rounded corners*
20,1,$1+$1,$2,$3,$4,$5,0*
20,1,$1+$1,$4,$5,$6,$7,0*
20,1,$1+$1,$6,$7,$8,$9,0*
20,1,$1+$1,$8,$9,$2,$3,0*%
%AMFreePoly0*
4,1,6,0.600000,-0.600000,0.000000,-0.600000,-0.600000,0.000000,-0.600000,0.600000,0.600000,0.600000,0.600000,-0.600000,0.600000,-0.600000,$1*%
G04 Aperture macros list end*
%ADD10C,0.800000*%
%ADD11C,6.400000*%
%ADD12R,1.524000X1.524000*%
%ADD13RoundRect,0.250000X0.262500X0.450000X-0.262500X0.450000X-0.262500X-0.450000X0.262500X-0.450000X0*%
%ADD14RoundRect,0.250000X0.250000X0.475000X-0.250000X0.475000X-0.250000X-0.475000X0.250000X-0.475000X0*%
%ADD15C,0.650000*%
%ADD16R,0.600000X1.150000*%
%ADD17R,0.300000X1.150000*%
%ADD18O,1.000000X2.000000*%
%ADD19O,1.050000X2.100000*%
%ADD20O,1.900000X2.400000*%
%ADD21RoundRect,0.173334X-0.476666X-0.576666X0.476666X-0.576666X0.476666X0.576666X-0.476666X0.576666X0*%
%ADD22RoundRect,0.173334X0.476666X0.576666X-0.476666X0.576666X-0.476666X-0.576666X0.476666X-0.576666X0*%
%ADD23RoundRect,0.375000X0.625000X0.375000X-0.625000X0.375000X-0.625000X-0.375000X0.625000X-0.375000X0*%
%ADD24RoundRect,0.500000X0.500000X1.400000X-0.500000X1.400000X-0.500000X-1.400000X0.500000X-1.400000X0*%
%ADD25R,0.800000X0.400000*%
%ADD26R,0.400000X0.800000*%
%ADD27R,1.200000X1.200000*%
%ADD28FreePoly0,180.000000*%
%ADD29R,0.800000X0.800000*%
%ADD30R,1.050000X0.650000*%
%ADD31RoundRect,0.150000X0.587500X0.150000X-0.587500X0.150000X-0.587500X-0.150000X0.587500X-0.150000X0*%
%ADD32RoundRect,0.150000X-0.150000X0.512500X-0.150000X-0.512500X0.150000X-0.512500X0.150000X0.512500X0*%
G04 APERTURE END LIST*
D10*
%TO.C,H4*%
X58560000Y10160000D03*
X59262944Y11857056D03*
X59262944Y8462944D03*
X60960000Y12560000D03*
D11*
X60960000Y10160000D03*
D10*
X60960000Y7760000D03*
X62657056Y11857056D03*
X62657056Y8462944D03*
X63360000Y10160000D03*
%TD*%
D12*
%TO.C,J1*%
X81099999Y7360000D03*
X78559999Y7360000D03*
X81100000Y9900000D03*
X78559998Y9900000D03*
X81099999Y12440000D03*
X78559999Y12440000D03*
%TD*%
%TO.C,J6*%
X-13400001Y17960000D03*
X-15940001Y17960000D03*
X-13400000Y20500000D03*
X-15940002Y20500000D03*
X-13400001Y23040000D03*
X-15940001Y23040000D03*
%TD*%
D10*
%TO.C,H3*%
X7760000Y10160000D03*
X8462944Y11857056D03*
X8462944Y8462944D03*
X10160000Y12560000D03*
D11*
X10160000Y10160000D03*
D10*
X10160000Y7760000D03*
X11857056Y11857056D03*
X11857056Y8462944D03*
X12560000Y10160000D03*
%TD*%
%TO.C,H1*%
X7760000Y50800000D03*
X8462944Y52497056D03*
X8462944Y49102944D03*
X10160000Y53200000D03*
D11*
X10160000Y50800000D03*
D10*
X10160000Y48400000D03*
X11857056Y52497056D03*
X11857056Y49102944D03*
X12560000Y50800000D03*
%TD*%
D12*
%TO.C,J7*%
X103850000Y34090000D03*
X106390000Y34090000D03*
X103850000Y31550000D03*
X106390000Y31550000D03*
X103850000Y29010000D03*
X106390000Y29010000D03*
%TD*%
%TO.C,J4*%
X15960000Y9260000D03*
X15960000Y11800000D03*
X18500000Y9260000D03*
X18500000Y11800000D03*
X21040000Y9260000D03*
X21040000Y11800000D03*
X23580000Y9259999D03*
X23580000Y11800001D03*
X26120000Y9260000D03*
X26120000Y11800000D03*
X28660000Y9260000D03*
X28660000Y11800000D03*
X31200000Y9260000D03*
X31200000Y11800000D03*
X33740000Y9260000D03*
X33740000Y11800000D03*
X36280000Y9259999D03*
X36280000Y11800001D03*
X38820000Y9260000D03*
X38820000Y11800000D03*
X41360000Y9260000D03*
X41360000Y11800000D03*
X43900000Y9260000D03*
X43900000Y11800000D03*
%TD*%
%TO.C,J5*%
X10640000Y16600000D03*
X8100000Y16600000D03*
X10640000Y19140000D03*
X8100000Y19140000D03*
X10640000Y21680000D03*
X8100000Y21680000D03*
X10640001Y24220000D03*
X8099999Y24220000D03*
X10640000Y26760000D03*
X8100000Y26760000D03*
X10640000Y29300000D03*
X8100000Y29300000D03*
X10640000Y31840000D03*
X8100000Y31840000D03*
X10640000Y34380000D03*
X8100000Y34380000D03*
X10640001Y36920000D03*
X8099999Y36920000D03*
X10640000Y39460000D03*
X8100000Y39460000D03*
X10640000Y42000000D03*
X8100000Y42000000D03*
X10640000Y44540000D03*
X8100000Y44540000D03*
%TD*%
%TO.C,J3*%
X60000000Y44420000D03*
X62540000Y44420000D03*
X60000000Y41880000D03*
X62540000Y41880000D03*
X60000000Y39340000D03*
X62540000Y39340000D03*
X60000000Y36800000D03*
X62540000Y36800000D03*
X60000000Y34260000D03*
X62540000Y34260000D03*
X60000000Y31720000D03*
X62540000Y31720000D03*
X60000000Y29180000D03*
X62540000Y29180000D03*
X60000000Y26640000D03*
X62540000Y26640000D03*
X60000000Y24100000D03*
X62540000Y24100000D03*
X60000000Y21560000D03*
X62540000Y21560000D03*
X60000000Y19020000D03*
X62540000Y19020000D03*
X60000000Y16480000D03*
X62540000Y16480000D03*
%TD*%
%TO.C,J8*%
X54699999Y22720000D03*
X52159999Y22720000D03*
X54699999Y25260000D03*
X52159999Y25260000D03*
X54700000Y27800000D03*
X52159998Y27800000D03*
X54699999Y30340000D03*
X52159999Y30340000D03*
X54699999Y32880000D03*
X52159999Y32880000D03*
%TD*%
D10*
%TO.C,H2*%
X58560000Y50800000D03*
X59262944Y52497056D03*
X59262944Y49102944D03*
X60960000Y53200000D03*
D11*
X60960000Y50800000D03*
D10*
X60960000Y48400000D03*
X62657056Y52497056D03*
X62657056Y49102944D03*
X63360000Y50800000D03*
%TD*%
D13*
%TO.C,R4*%
X27725000Y64500000D03*
X25900000Y64500000D03*
%TD*%
%TO.C,R6*%
X24600000Y67800000D03*
X22775000Y67800000D03*
%TD*%
D14*
%TO.C,C6*%
X31302498Y15170000D03*
X29402500Y15170000D03*
%TD*%
D13*
%TO.C,R5*%
X25700000Y60200000D03*
X23875000Y60200000D03*
%TD*%
D15*
%TO.C,J2*%
X54500000Y12000000D03*
X48719998Y12000000D03*
D16*
X54809999Y13075000D03*
X54009999Y13075000D03*
D17*
X52859999Y13075000D03*
X51859999Y13075000D03*
X51359999Y13075000D03*
X50359999Y13075000D03*
D16*
X48409999Y13075000D03*
X49209999Y13075000D03*
D17*
X49859999Y13075000D03*
X50859999Y13075000D03*
X52359999Y13075000D03*
X53359999Y13075000D03*
D18*
X55929999Y8320000D03*
X47289999Y8320000D03*
D19*
X55929999Y12500000D03*
X47289999Y12500000D03*
%TD*%
D20*
%TO.C,D2*%
X21899999Y52500000D03*
D21*
X20199998Y52500000D03*
D22*
X23600000Y52500000D03*
%TD*%
D23*
%TO.C,U1*%
X26950000Y24500000D03*
X26949999Y22200000D03*
D24*
X20650001Y22200000D03*
D23*
X26950000Y19900000D03*
%TD*%
D14*
%TO.C,C2*%
X31302497Y21190000D03*
X29402499Y21190000D03*
%TD*%
%TO.C,C3*%
X31302499Y18180001D03*
X29402501Y18180001D03*
%TD*%
%TO.C,C1*%
X31302497Y24199999D03*
X29402499Y24199999D03*
%TD*%
%TO.C,C5*%
X-30135001Y42970000D03*
X-32034999Y42970000D03*
%TD*%
D25*
%TO.C,U3*%
X44050000Y48250000D03*
X44050000Y47400000D03*
X44050000Y46550000D03*
X44050000Y45700001D03*
X44050000Y44850000D03*
X44050000Y44000000D03*
X44050000Y43150000D03*
X44049999Y42300000D03*
X44050000Y41450000D03*
X44050000Y40600000D03*
X44050000Y39750000D03*
X44050000Y38899999D03*
X44050000Y38050000D03*
X44050000Y37200000D03*
X44050000Y36350000D03*
D26*
X43000000Y35300000D03*
X42150000Y35300000D03*
X41300000Y35300000D03*
X40450001Y35300000D03*
X39600000Y35300000D03*
X38750000Y35300000D03*
X37900000Y35300000D03*
X37050000Y35300001D03*
X36200000Y35300000D03*
X35350000Y35300000D03*
X34500000Y35300000D03*
X33649999Y35300000D03*
X32800000Y35300000D03*
X31950000Y35300000D03*
X31100000Y35300000D03*
D25*
X30050000Y36350000D03*
X30050000Y37200000D03*
X30050000Y38050000D03*
X30050000Y38899999D03*
X30050000Y39750000D03*
X30050000Y40600000D03*
X30050000Y41450000D03*
X30050001Y42300000D03*
X30050000Y43150000D03*
X30050000Y44000000D03*
X30050000Y44850000D03*
X30050000Y45700001D03*
X30050000Y46550000D03*
X30050000Y47400000D03*
X30050000Y48250000D03*
D26*
X31100000Y49300000D03*
X31950000Y49300000D03*
X32800000Y49300000D03*
X33649999Y49300000D03*
X34500000Y49300000D03*
X35350000Y49300000D03*
X36200000Y49300000D03*
X37050000Y49299999D03*
X37900000Y49300000D03*
X38750000Y49300000D03*
X39600000Y49300000D03*
X40450001Y49300000D03*
X41300000Y49300000D03*
X42150000Y49300000D03*
X43000000Y49300000D03*
D27*
X38700000Y40650000D03*
X38700000Y42300000D03*
D28*
X38700000Y43950000D03*
D27*
X37050000Y40650000D03*
X37050000Y42300000D03*
X37050000Y43950000D03*
X35400000Y40650000D03*
X35400000Y42300000D03*
X35400000Y43950000D03*
D29*
X44050000Y49300000D03*
X44050000Y35300000D03*
X30050000Y35300000D03*
X30050000Y49300000D03*
%TD*%
D13*
%TO.C,R3*%
X20000000Y67300000D03*
X18175000Y67300000D03*
%TD*%
%TO.C,R2*%
X27725000Y70400000D03*
X25900000Y70400000D03*
%TD*%
D14*
%TO.C,C4*%
X-30135002Y45980001D03*
X-32035000Y45980001D03*
%TD*%
D30*
%TO.C,SW1*%
X74300000Y24600000D03*
X70150000Y24600000D03*
X74300000Y22450000D03*
X70175000Y22450000D03*
%TD*%
D31*
%TO.C,Q1*%
X21500000Y63500000D03*
X21500000Y61600000D03*
X19624999Y62550000D03*
%TD*%
D13*
%TO.C,R1*%
X27725000Y73350000D03*
X25900000Y73350000D03*
%TD*%
D14*
%TO.C,C7*%
X-30135002Y39960000D03*
X-32035000Y39960000D03*
%TD*%
D32*
%TO.C,U2*%
X38800002Y28475000D03*
X39750001Y28475000D03*
X40700000Y28475000D03*
X40700000Y26200000D03*
X39750001Y26200000D03*
X38800002Y26200000D03*
%TD*%
D20*
%TO.C,D1*%
X18799999Y75000000D03*
D21*
X17099998Y75000000D03*
D22*
X20500000Y75000000D03*
%TD*%
M02*
