%TF.GenerationSoftware,KiCad,Pcbnew,9.0.7+1*%
%TF.CreationDate,2026-02-14T17:34:25+00:00*%
%TF.ProjectId,ESP32Sx01,45535033-3253-4783-9031-2e6b69636164,rev?*%
%TF.SameCoordinates,Original*%
%TF.FileFunction,Soldermask,Top*%
%TF.FilePolarity,Negative*%
%FSLAX46Y46*%
G04 Gerber Fmt 4.6, Leading zero omitted, Abs format (unit mm)*
G04 Created by KiCad (PCBNEW 9.0.7+1) date 2026-02-14 17:34:25*
%MOMM*%
%LPD*%
G01*
G04 APERTURE LIST*
%ADD10C,0.800000*%
%ADD11C,6.400000*%
%ADD12R,1.524000X1.524000*%
%ADD13R,0.650000X1.050000*%
%ADD14C,0.650000*%
%ADD15O,1.000000X2.000000*%
%ADD16O,1.050000X2.100000*%
%ADD17O,2.400000X1.900000*%
G04 APERTURE END LIST*
D10*
%TO.C,H4*%
X58560000Y10160000D03*
X59262944Y11857056D03*
X59262944Y8462944D03*
X60960000Y12560000D03*
D11*
X60960000Y10160000D03*
D10*
X60960000Y7760000D03*
X62657056Y11857056D03*
X62657056Y8462944D03*
X63360000Y10160000D03*
%TD*%
D12*
%TO.C,J1*%
X41399999Y15760000D03*
X38859999Y15760000D03*
X41400000Y18300000D03*
X38859998Y18300000D03*
X41399999Y20840000D03*
X38859999Y20840000D03*
%TD*%
%TO.C,J6*%
X20999999Y15760000D03*
X18459999Y15760000D03*
X21000000Y18300000D03*
X18459998Y18300000D03*
X20999999Y20840000D03*
X18459999Y20840000D03*
%TD*%
D10*
%TO.C,H3*%
X7760000Y10160000D03*
X8462944Y11857056D03*
X8462944Y8462944D03*
X10160000Y12560000D03*
D11*
X10160000Y10160000D03*
D10*
X10160000Y7760000D03*
X11857056Y11857056D03*
X11857056Y8462944D03*
X12560000Y10160000D03*
%TD*%
%TO.C,H1*%
X7760000Y50800000D03*
X8462944Y52497056D03*
X8462944Y49102944D03*
X10160000Y53200000D03*
D11*
X10160000Y50800000D03*
D10*
X10160000Y48400000D03*
X11857056Y52497056D03*
X11857056Y49102944D03*
X12560000Y50800000D03*
%TD*%
D13*
%TO.C,SW2*%
X51225000Y40625000D03*
X51225000Y44775000D03*
X53375000Y40625000D03*
X53375000Y44750000D03*
%TD*%
D12*
%TO.C,J4*%
X43900000Y10970000D03*
X43900000Y8430000D03*
X41360000Y10970000D03*
X41360000Y8430000D03*
X38820000Y10970000D03*
X38820000Y8430000D03*
X36280000Y10970001D03*
X36280000Y8429999D03*
X33740000Y10970000D03*
X33740000Y8430000D03*
X31200000Y10970000D03*
X31200000Y8430000D03*
X28660000Y10970000D03*
X28660000Y8430000D03*
X26120000Y10970000D03*
X26120000Y8430000D03*
X23580000Y10970001D03*
X23580000Y8429999D03*
X21040000Y10970000D03*
X21040000Y8430000D03*
X18500000Y10970000D03*
X18500000Y8430000D03*
X15960000Y10970000D03*
X15960000Y8430000D03*
%TD*%
%TO.C,J5*%
X10640000Y16600000D03*
X8100000Y16600000D03*
X10640000Y19140000D03*
X8100000Y19140000D03*
X10640000Y21680000D03*
X8100000Y21680000D03*
X10640001Y24220000D03*
X8099999Y24220000D03*
X10640000Y26760000D03*
X8100000Y26760000D03*
X10640000Y29300000D03*
X8100000Y29300000D03*
X10640000Y31840000D03*
X8100000Y31840000D03*
X10640000Y34380000D03*
X8100000Y34380000D03*
X10640001Y36920000D03*
X8099999Y36920000D03*
X10640000Y39460000D03*
X8100000Y39460000D03*
X10640000Y42000000D03*
X8100000Y42000000D03*
X10640000Y44540000D03*
X8100000Y44540000D03*
%TD*%
%TO.C,J3*%
X60000000Y44420000D03*
X62540000Y44420000D03*
X60000000Y41880000D03*
X62540000Y41880000D03*
X60000000Y39340000D03*
X62540000Y39340000D03*
X60000000Y36800000D03*
X62540000Y36800000D03*
X60000000Y34260000D03*
X62540000Y34260000D03*
X60000000Y31720000D03*
X62540000Y31720000D03*
X60000000Y29180000D03*
X62540000Y29180000D03*
X60000000Y26640000D03*
X62540000Y26640000D03*
X60000000Y24100000D03*
X62540000Y24100000D03*
X60000000Y21560000D03*
X62540000Y21560000D03*
X60000000Y19020000D03*
X62540000Y19020000D03*
X60000000Y16480000D03*
X62540000Y16480000D03*
%TD*%
%TO.C,J7*%
X54699999Y22720000D03*
X52159999Y22720000D03*
X54699999Y25260000D03*
X52159999Y25260000D03*
X54700000Y27800000D03*
X52159998Y27800000D03*
X54699999Y30340000D03*
X52159999Y30340000D03*
X54699999Y32880000D03*
X52159999Y32880000D03*
%TD*%
D10*
%TO.C,H2*%
X58560000Y50800000D03*
X59262944Y52497056D03*
X59262944Y49102944D03*
X60960000Y53200000D03*
D11*
X60960000Y50800000D03*
D10*
X60960000Y48400000D03*
X62657056Y52497056D03*
X62657056Y49102944D03*
X63360000Y50800000D03*
%TD*%
D13*
%TO.C,SW1*%
X20400000Y44775000D03*
X20400000Y40625000D03*
X18250000Y44775000D03*
X18250000Y40650000D03*
%TD*%
D14*
%TO.C,J2*%
X54500000Y12000000D03*
X48719998Y12000000D03*
D15*
X55929999Y8320000D03*
X47289999Y8320000D03*
D16*
X55929999Y12500000D03*
X47289999Y12500000D03*
%TD*%
D17*
%TO.C,D2*%
X17200000Y50800000D03*
%TD*%
%TO.C,D1*%
X54000000Y50800000D03*
%TD*%
M02*
