%TF.GenerationSoftware,KiCad,Pcbnew,9.0.6+1*%
%TF.CreationDate,2026-01-27T23:35:09+00:00*%
%TF.ProjectId,ESP32Sx01,45535033-3253-4783-9031-2e6b69636164,rev?*%
%TF.SameCoordinates,Original*%
%TF.FileFunction,Copper,L2,Bot*%
%TF.FilePolarity,Positive*%
%FSLAX46Y46*%
G04 Gerber Fmt 4.6, Leading zero omitted, Abs format (unit mm)*
G04 Created by KiCad (PCBNEW 9.0.6+1) date 2026-01-27 23:35:09*
%MOMM*%
%LPD*%
G01*
G04 APERTURE LIST*
G04 Aperture macros list*
%AMRoundRect*
0 Rectangle with rounded corners*
0 $1 Rounding radius*
0 $2 $3 $4 $5 $6 $7 $8 $9 X,Y pos of 4 corners*
0 Add a 4 corners polygon primitive as box body*
4,1,4,$2,$3,$4,$5,$6,$7,$8,$9,$2,$3,0*
0 Add four circle primitives for the rounded corners*
1,1,$1+$1,$2,$3*
1,1,$1+$1,$4,$5*
1,1,$1+$1,$6,$7*
1,1,$1+$1,$8,$9*
0 Add four rect primitives between the rounded corners*
20,1,$1+$1,$2,$3,$4,$5,0*
20,1,$1+$1,$4,$5,$6,$7,0*
20,1,$1+$1,$6,$7,$8,$9,0*
20,1,$1+$1,$8,$9,$2,$3,0*%
%AMFreePoly0*
4,1,6,0.600000,-0.600000,0.000000,-0.600000,-0.600000,0.000000,-0.600000,0.600000,0.600000,0.600000,0.600000,-0.600000,0.600000,-0.600000,$1*%
G04 Aperture macros list end*
%TA.AperFunction,ComponentPad*%
%ADD10C,0.800000*%
%TD*%
%TA.AperFunction,ComponentPad*%
%ADD11C,6.400000*%
%TD*%
%TA.AperFunction,ComponentPad*%
%ADD12R,1.524000X1.524000*%
%TD*%
%TA.AperFunction,SMDPad,CuDef*%
%ADD13RoundRect,0.250000X0.262500X0.450000X-0.262500X0.450000X-0.262500X-0.450000X0.262500X-0.450000X0*%
%TD*%
%TA.AperFunction,SMDPad,CuDef*%
%ADD14RoundRect,0.250000X0.250000X0.475000X-0.250000X0.475000X-0.250000X-0.475000X0.250000X-0.475000X0*%
%TD*%
%TA.AperFunction,SMDPad,CuDef*%
%ADD15R,0.600000X1.150000*%
%TD*%
%TA.AperFunction,SMDPad,CuDef*%
%ADD16R,0.300000X1.150000*%
%TD*%
%TA.AperFunction,ComponentPad*%
%ADD17O,1.000000X2.000000*%
%TD*%
%TA.AperFunction,ComponentPad*%
%ADD18O,1.050000X2.100000*%
%TD*%
%TA.AperFunction,SMDPad,CuDef*%
%ADD19RoundRect,0.173334X-0.476666X-0.576666X0.476666X-0.576666X0.476666X0.576666X-0.476666X0.576666X0*%
%TD*%
%TA.AperFunction,SMDPad,CuDef*%
%ADD20RoundRect,0.173334X0.476666X0.576666X-0.476666X0.576666X-0.476666X-0.576666X0.476666X-0.576666X0*%
%TD*%
%TA.AperFunction,SMDPad,CuDef*%
%ADD21RoundRect,0.375000X0.625000X0.375000X-0.625000X0.375000X-0.625000X-0.375000X0.625000X-0.375000X0*%
%TD*%
%TA.AperFunction,SMDPad,CuDef*%
%ADD22RoundRect,0.500000X0.500000X1.400000X-0.500000X1.400000X-0.500000X-1.400000X0.500000X-1.400000X0*%
%TD*%
%TA.AperFunction,SMDPad,CuDef*%
%ADD23R,0.800000X0.400000*%
%TD*%
%TA.AperFunction,SMDPad,CuDef*%
%ADD24R,0.400000X0.800000*%
%TD*%
%TA.AperFunction,SMDPad,CuDef*%
%ADD25R,1.200000X1.200000*%
%TD*%
%TA.AperFunction,SMDPad,CuDef*%
%ADD26FreePoly0,180.000000*%
%TD*%
%TA.AperFunction,SMDPad,CuDef*%
%ADD27R,0.800000X0.800000*%
%TD*%
%TA.AperFunction,SMDPad,CuDef*%
%ADD28R,1.050000X0.650000*%
%TD*%
%TA.AperFunction,SMDPad,CuDef*%
%ADD29RoundRect,0.150000X0.587500X0.150000X-0.587500X0.150000X-0.587500X-0.150000X0.587500X-0.150000X0*%
%TD*%
%TA.AperFunction,SMDPad,CuDef*%
%ADD30RoundRect,0.150000X-0.150000X0.512500X-0.150000X-0.512500X0.150000X-0.512500X0.150000X0.512500X0*%
%TD*%
%TA.AperFunction,Conductor*%
%ADD31C,0.400000*%
%TD*%
G04 APERTURE END LIST*
D10*
%TO.P,H4,1,1*%
%TO.N,GND*%
X58560000Y10160000D03*
X59262944Y11857056D03*
X59262944Y8462944D03*
X60960000Y12560000D03*
D11*
X60960000Y10160000D03*
D10*
X60960000Y7760000D03*
X62657056Y11857056D03*
X62657056Y8462944D03*
X63360000Y10160000D03*
%TD*%
D12*
%TO.P,J1,1*%
%TO.N,GND*%
X81099999Y7360000D03*
%TO.P,J1,2*%
X78559999Y7360000D03*
%TO.P,J1,3*%
%TO.N,+5V*%
X81100000Y9900000D03*
%TO.P,J1,4*%
X78559998Y9900000D03*
%TO.P,J1,5*%
%TO.N,GND*%
X81099999Y12440000D03*
%TO.P,J1,6*%
X78559999Y12440000D03*
%TD*%
%TO.P,J6,1*%
%TO.N,GND*%
X-13400001Y17960000D03*
%TO.P,J6,2*%
X-15940001Y17960000D03*
%TO.P,J6,3*%
%TO.N,+3V3*%
X-13400000Y20500000D03*
%TO.P,J6,4*%
X-15940002Y20500000D03*
%TO.P,J6,5*%
%TO.N,GND*%
X-13400001Y23040000D03*
%TO.P,J6,6*%
X-15940001Y23040000D03*
%TD*%
D10*
%TO.P,H3,1,1*%
%TO.N,GND*%
X7760000Y10160000D03*
X8462944Y11857056D03*
X8462944Y8462944D03*
X10160000Y12560000D03*
D11*
X10160000Y10160000D03*
D10*
X10160000Y7760000D03*
X11857056Y11857056D03*
X11857056Y8462944D03*
X12560000Y10160000D03*
%TD*%
%TO.P,H1,1,1*%
%TO.N,GND*%
X7760000Y50800000D03*
X8462944Y52497056D03*
X8462944Y49102944D03*
X10160000Y53200000D03*
D11*
X10160000Y50800000D03*
D10*
X10160000Y48400000D03*
X11857056Y52497056D03*
X11857056Y49102944D03*
X12560000Y50800000D03*
%TD*%
D12*
%TO.P,J7,1*%
%TO.N,GND*%
X103850000Y34090000D03*
%TO.P,J7,2*%
X106390000Y34090000D03*
%TO.P,J7,3*%
%TO.N,+3V3*%
X103850000Y31550000D03*
%TO.P,J7,4*%
X106390000Y31550000D03*
%TO.P,J7,5*%
%TO.N,GND*%
X103850000Y29010000D03*
%TO.P,J7,6*%
X106390000Y29010000D03*
%TD*%
%TO.P,J4,1*%
%TO.N,Net-(J4-Pad1)*%
X15960000Y9260000D03*
%TO.P,J4,2*%
X15960000Y11800000D03*
%TO.P,J4,3*%
%TO.N,Net-(J4-Pad3)*%
X18500000Y9260000D03*
%TO.P,J4,4*%
X18500000Y11800000D03*
%TO.P,J4,5*%
%TO.N,Net-(J4-Pad5)*%
X21040000Y9260000D03*
%TO.P,J4,6*%
X21040000Y11800000D03*
%TO.P,J4,7*%
%TO.N,Net-(J4-Pad7)*%
X23580000Y9259999D03*
%TO.P,J4,8*%
X23580000Y11800001D03*
%TO.P,J4,9*%
%TO.N,Net-(J4-Pad10)*%
X26120000Y9260000D03*
%TO.P,J4,10*%
X26120000Y11800000D03*
%TO.P,J4,11*%
%TO.N,Net-(J4-Pad11)*%
X28660000Y9260000D03*
%TO.P,J4,12*%
X28660000Y11800000D03*
%TO.P,J4,13*%
%TO.N,Net-(J4-Pad13)*%
X31200000Y9260000D03*
%TO.P,J4,14*%
X31200000Y11800000D03*
%TO.P,J4,15*%
%TO.N,Net-(J4-Pad15)*%
X33740000Y9260000D03*
%TO.P,J4,16*%
X33740000Y11800000D03*
%TO.P,J4,17*%
%TO.N,Net-(J4-Pad17)*%
X36280000Y9259999D03*
%TO.P,J4,18*%
X36280000Y11800001D03*
%TO.P,J4,19*%
%TO.N,Net-(J4-Pad19)*%
X38820000Y9260000D03*
%TO.P,J4,20*%
X38820000Y11800000D03*
%TO.P,J4,21*%
%TO.N,Net-(J4-Pad21)*%
X41360000Y9260000D03*
%TO.P,J4,22*%
X41360000Y11800000D03*
%TO.P,J4,23*%
%TO.N,Net-(J4-Pad23)*%
X43900000Y9260000D03*
%TO.P,J4,24*%
X43900000Y11800000D03*
%TD*%
%TO.P,J5,1*%
%TO.N,/GPIO35*%
X10640000Y16600000D03*
%TO.P,J5,2*%
X8100000Y16600000D03*
%TO.P,J5,3*%
%TO.N,/GPIO36*%
X10640000Y19140000D03*
%TO.P,J5,4*%
X8100000Y19140000D03*
%TO.P,J5,5*%
%TO.N,/GPIO37*%
X10640000Y21680000D03*
%TO.P,J5,6*%
X8100000Y21680000D03*
%TO.P,J5,7*%
%TO.N,/GPIO38*%
X10640001Y24220000D03*
%TO.P,J5,8*%
X8099999Y24220000D03*
%TO.P,J5,9*%
%TO.N,/GPIO39*%
X10640000Y26760000D03*
%TO.P,J5,10*%
X8100000Y26760000D03*
%TO.P,J5,11*%
%TO.N,/GPIO40*%
X10640000Y29300000D03*
%TO.P,J5,12*%
X8100000Y29300000D03*
%TO.P,J5,13*%
%TO.N,/GPIO41*%
X10640000Y31840000D03*
%TO.P,J5,14*%
X8100000Y31840000D03*
%TO.P,J5,15*%
%TO.N,/GPIO42*%
X10640000Y34380000D03*
%TO.P,J5,16*%
X8100000Y34380000D03*
%TO.P,J5,17*%
%TO.N,/GPIO43*%
X10640001Y36920000D03*
%TO.P,J5,18*%
X8099999Y36920000D03*
%TO.P,J5,19*%
%TO.N,/GPIO44*%
X10640000Y39460000D03*
%TO.P,J5,20*%
X8100000Y39460000D03*
%TO.P,J5,21*%
%TO.N,/GPIO45*%
X10640000Y42000000D03*
%TO.P,J5,22*%
X8100000Y42000000D03*
%TO.P,J5,23*%
%TO.N,/GPIO46*%
X10640000Y44540000D03*
%TO.P,J5,24*%
X8100000Y44540000D03*
%TD*%
%TO.P,J3,1*%
%TO.N,/GPIO0_BOOT*%
X60000000Y44420000D03*
%TO.P,J3,2*%
X62540000Y44420000D03*
%TO.P,J3,3*%
%TO.N,/GPIO1*%
X60000000Y41880000D03*
%TO.P,J3,4*%
X62540000Y41880000D03*
%TO.P,J3,5*%
%TO.N,/GPIO2*%
X60000000Y39340000D03*
%TO.P,J3,6*%
X62540000Y39340000D03*
%TO.P,J3,7*%
%TO.N,/GPIO3*%
X60000000Y36800000D03*
%TO.P,J3,8*%
X62540000Y36800000D03*
%TO.P,J3,9*%
%TO.N,/GPIO4*%
X60000000Y34260000D03*
%TO.P,J3,10*%
X62540000Y34260000D03*
%TO.P,J3,11*%
%TO.N,/GPIO5*%
X60000000Y31720000D03*
%TO.P,J3,12*%
X62540000Y31720000D03*
%TO.P,J3,13*%
%TO.N,/GPIO6*%
X60000000Y29180000D03*
%TO.P,J3,14*%
X62540000Y29180000D03*
%TO.P,J3,15*%
%TO.N,/GPIO7*%
X60000000Y26640000D03*
%TO.P,J3,16*%
X62540000Y26640000D03*
%TO.P,J3,17*%
%TO.N,/GPIO8*%
X60000000Y24100000D03*
%TO.P,J3,18*%
X62540000Y24100000D03*
%TO.P,J3,19*%
%TO.N,/GPIO9*%
X60000000Y21560000D03*
%TO.P,J3,20*%
X62540000Y21560000D03*
%TO.P,J3,21*%
%TO.N,/CS*%
X60000000Y19020000D03*
%TO.P,J3,22*%
X62540000Y19020000D03*
%TO.P,J3,23*%
%TO.N,/GPIO11*%
X60000000Y16480000D03*
%TO.P,J3,24*%
X62540000Y16480000D03*
%TD*%
%TO.P,J8,1*%
%TO.N,GND*%
X54699999Y22720000D03*
%TO.P,J8,2*%
X52159999Y22720000D03*
%TO.P,J8,3*%
%TO.N,/GPIO9*%
X54699999Y25260000D03*
%TO.P,J8,4*%
X52159999Y25260000D03*
%TO.P,J8,5*%
%TO.N,+3V3*%
X54700000Y27800000D03*
%TO.P,J8,6*%
X52159998Y27800000D03*
%TO.P,J8,7*%
%TO.N,/GPIO8*%
X54699999Y30340000D03*
%TO.P,J8,8*%
X52159999Y30340000D03*
%TO.P,J8,9*%
%TO.N,GND*%
X54699999Y32880000D03*
%TO.P,J8,10*%
X52159999Y32880000D03*
%TD*%
D10*
%TO.P,H2,1,1*%
%TO.N,GND*%
X58560000Y50800000D03*
X59262944Y52497056D03*
X59262944Y49102944D03*
X60960000Y53200000D03*
D11*
X60960000Y50800000D03*
D10*
X60960000Y48400000D03*
X62657056Y52497056D03*
X62657056Y49102944D03*
X63360000Y50800000D03*
%TD*%
D13*
%TO.P,R4,1*%
%TO.N,Net-(D1-A)*%
X27725000Y64500000D03*
%TO.P,R4,2*%
%TO.N,+3V3*%
X25900000Y64500000D03*
%TD*%
%TO.P,R6,1*%
%TO.N,Net-(D2-K)*%
X24600000Y67800000D03*
%TO.P,R6,2*%
%TO.N,Net-(Q1-C)*%
X22775000Y67800000D03*
%TD*%
D14*
%TO.P,C6,1*%
%TO.N,/en*%
X31302498Y15170000D03*
%TO.P,C6,2*%
%TO.N,GND*%
X29402500Y15170000D03*
%TD*%
D13*
%TO.P,R5,1*%
%TO.N,/GPIO21*%
X25700000Y60200000D03*
%TO.P,R5,2*%
%TO.N,Net-(Q1-B)*%
X23875000Y60200000D03*
%TD*%
D15*
%TO.P,J2,A1/B12,GND*%
%TO.N,GND*%
X54809999Y13075000D03*
%TO.P,J2,A4/B9,VBUS*%
%TO.N,+5V*%
X54009999Y13075000D03*
D16*
%TO.P,J2,A5,CC1*%
%TO.N,Net-(J2-CC1)*%
X52859999Y13075000D03*
%TO.P,J2,A6,D+*%
%TO.N,Net-(J2-D+-PadA6)*%
X51859999Y13075000D03*
%TO.P,J2,A7,D-*%
%TO.N,Net-(J2-D--PadA7)*%
X51359999Y13075000D03*
%TO.P,J2,A8,SBU1*%
%TO.N,unconnected-(J2-SBU1-PadA8)*%
X50359999Y13075000D03*
D15*
%TO.P,J2,B1/A12,GND*%
%TO.N,GND*%
X48409999Y13075000D03*
%TO.P,J2,B4/A9,VBUS*%
%TO.N,+5V*%
X49209999Y13075000D03*
D16*
%TO.P,J2,B5,CC2*%
%TO.N,Net-(J2-CC2)*%
X49859999Y13075000D03*
%TO.P,J2,B6,D+*%
%TO.N,Net-(J2-D+-PadA6)*%
X50859999Y13075000D03*
%TO.P,J2,B7,D-*%
%TO.N,Net-(J2-D--PadA7)*%
X52359999Y13075000D03*
%TO.P,J2,B8,SBU2*%
%TO.N,unconnected-(J2-SBU2-PadB8)*%
X53359999Y13075000D03*
D17*
%TO.P,J2,G1,SHIELD*%
%TO.N,GND*%
X55929999Y8320000D03*
%TO.P,J2,G2,SHIELD*%
X47289999Y8320000D03*
D18*
%TO.P,J2,G3,SHIELD*%
X55929999Y12500000D03*
%TO.P,J2,G4,SHIELD*%
X47289999Y12500000D03*
%TD*%
D19*
%TO.P,D2,1,K*%
%TO.N,Net-(D2-K)*%
X20199998Y52500000D03*
D20*
%TO.P,D2,2,A*%
%TO.N,+3V3*%
X23600000Y52500000D03*
%TD*%
D21*
%TO.P,U1,1,GND*%
%TO.N,GND*%
X26950000Y24500000D03*
%TO.P,U1,2,VO*%
%TO.N,+3V3*%
X26949999Y22200000D03*
D22*
X20650001Y22200000D03*
D21*
%TO.P,U1,3,VI*%
%TO.N,+5V*%
X26950000Y19900000D03*
%TD*%
D14*
%TO.P,C2,1*%
%TO.N,+5V*%
X31302497Y21190000D03*
%TO.P,C2,2*%
%TO.N,GND*%
X29402499Y21190000D03*
%TD*%
%TO.P,C3,1*%
%TO.N,+3V3*%
X31302499Y18180001D03*
%TO.P,C3,2*%
%TO.N,GND*%
X29402501Y18180001D03*
%TD*%
%TO.P,C1,1*%
%TO.N,+5V*%
X31302497Y24199999D03*
%TO.P,C1,2*%
%TO.N,GND*%
X29402499Y24199999D03*
%TD*%
%TO.P,C5,1*%
%TO.N,GND*%
X-30135001Y42970000D03*
%TO.P,C5,2*%
%TO.N,Net-(U3-GPIO16{slash}U0CTS{slash}ADC2_CH5{slash}XTAL_32K_N)*%
X-32034999Y42970000D03*
%TD*%
D23*
%TO.P,U3,1,GND*%
%TO.N,GND*%
X44050000Y48250000D03*
%TO.P,U3,2,GND*%
X44050000Y47400000D03*
%TO.P,U3,3,3V3*%
%TO.N,+3V3*%
X44050000Y46550000D03*
%TO.P,U3,4,GPIO0/BOOT*%
%TO.N,/GPIO0_BOOT*%
X44050000Y45700001D03*
%TO.P,U3,5,GPIO1/TOUCH1/ADC1_CH0*%
%TO.N,/GPIO1*%
X44050000Y44850000D03*
%TO.P,U3,6,GPIO2/TOUCH2/ADC1_CH1*%
%TO.N,/GPIO2*%
X44050000Y44000000D03*
%TO.P,U3,7,GPIO3/TOUCH3/ADC1_CH2*%
%TO.N,/GPIO3*%
X44050000Y43150000D03*
%TO.P,U3,8,GPIO4/TOUCH4/ADC1_CH3*%
%TO.N,/GPIO4*%
X44049999Y42300000D03*
%TO.P,U3,9,GPIO5/TOUCH5/ADC1_CH4*%
%TO.N,/GPIO5*%
X44050000Y41450000D03*
%TO.P,U3,10,GPIO6/TOUCH6/ADC1_CH5*%
%TO.N,/GPIO6*%
X44050000Y40600000D03*
%TO.P,U3,11,GPIO7/TOUCH7/ADC1_CH6*%
%TO.N,/GPIO7*%
X44050000Y39750000D03*
%TO.P,U3,12,GPIO8/TOUCH8/ADC1_CH7/SUBSPICS1*%
%TO.N,/GPIO8*%
X44050000Y38899999D03*
%TO.P,U3,13,GPIO9/TOUCH9/ADC1_CH8/FSPIHD/SUBSPIHD*%
%TO.N,/GPIO9*%
X44050000Y38050000D03*
%TO.P,U3,14,GPIO10/TOUCH10/ADC1_CH9/FSPICS0/FSPIIO4/SUBSPICS0*%
%TO.N,/CS*%
X44050000Y37200000D03*
%TO.P,U3,15,GPIO11/TOUCH11/ADC2_CH0/FSPID/FSPIIO5/SUBSPID*%
%TO.N,/GPIO11*%
X44050000Y36350000D03*
D24*
%TO.P,U3,16,GPIO12/TOUCH12/ADC2_CH1/FSPICLK/FSPIIO6/SUBSPICLK*%
%TO.N,/GPIO12*%
X43000000Y35300000D03*
%TO.P,U3,17,GPIO13/TOUCH13/ADC2_CH2/FSPIQ/FSPIIO7/SUBSPIQ*%
%TO.N,/GPIO13*%
X42150000Y35300000D03*
%TO.P,U3,18,GPIO14/TOUCH14/ADC2_CH3/FSPIWP/FSPIDQS/SUBSPIWP*%
%TO.N,/GPIO14*%
X41300000Y35300000D03*
%TO.P,U3,19,GPIO15/U0RTS/ADC2_CH4/XTAL_32K_P*%
%TO.N,Net-(U3-GPIO15{slash}U0RTS{slash}ADC2_CH4{slash}XTAL_32K_P)*%
X40450001Y35300000D03*
%TO.P,U3,20,GPIO16/U0CTS/ADC2_CH5/XTAL_32K_N*%
%TO.N,Net-(U3-GPIO16{slash}U0CTS{slash}ADC2_CH5{slash}XTAL_32K_N)*%
X39600000Y35300000D03*
%TO.P,U3,21,GPIO17/U1TXD/ADC2_CH6*%
%TO.N,/GPIO17*%
X38750000Y35300000D03*
%TO.P,U3,22,GPIO18/U1RXD/ADC2_CH7/CLK_OUT3*%
%TO.N,/GPIO18*%
X37900000Y35300000D03*
%TO.P,U3,23,GPIO19/U1RTS/ADC2_CH8/CLK_OUT2/USB_D-*%
%TO.N,/USB_DN*%
X37050000Y35300001D03*
%TO.P,U3,24,GPIO20/U1CTS/ADC2_CH9/CLK_OUT1/USB_D+*%
%TO.N,/USB_DP*%
X36200000Y35300000D03*
%TO.P,U3,25,GPIO21*%
%TO.N,/GPIO21*%
X35350000Y35300000D03*
%TO.P,U3,26,GPIO26*%
%TO.N,unconnected-(U3-GPIO26-Pad26)*%
X34500000Y35300000D03*
%TO.P,U3,27,GPIO47/SPICLK_P/SUBSPICLK_P_DIFF*%
%TO.N,/GPIO47*%
X33649999Y35300000D03*
%TO.P,U3,28,SPIIO4/GPIO33/FSPIHD/SUBSPIHD*%
%TO.N,/GPIO33*%
X32800000Y35300000D03*
%TO.P,U3,29,SPIIO5/GPIO34/FSPICS0/SUBSPICS0*%
%TO.N,/GPIO34*%
X31950000Y35300000D03*
%TO.P,U3,30,GPIO48/SPICLK_N/SUBSPICLK_N_DIFF*%
%TO.N,/GPIO48*%
X31100000Y35300000D03*
D23*
%TO.P,U3,31,SPIIO6/GPIO35/FSPID/SUBSPID*%
%TO.N,/GPIO35*%
X30050000Y36350000D03*
%TO.P,U3,32,SPIIO7/GPIO36/FSPICLK/SUBSPICLK*%
%TO.N,/GPIO36*%
X30050000Y37200000D03*
%TO.P,U3,33,SPIDQS/GPIO37/FSPIQ/SUBSPIQ*%
%TO.N,/GPIO37*%
X30050000Y38050000D03*
%TO.P,U3,34,GPIO38/FSPIWP/SUBSPIWP*%
%TO.N,/GPIO38*%
X30050000Y38899999D03*
%TO.P,U3,35,MTCK/GPIO39/CLK_OUT3/SUBSPICS1*%
%TO.N,/GPIO39*%
X30050000Y39750000D03*
%TO.P,U3,36,MTDO/GPIO40/CLK_OUT2*%
%TO.N,/GPIO40*%
X30050000Y40600000D03*
%TO.P,U3,37,MTDI/GPIO41/CLK_OUT1*%
%TO.N,/GPIO41*%
X30050000Y41450000D03*
%TO.P,U3,38,MTMS/GPIO42*%
%TO.N,/GPIO42*%
X30050001Y42300000D03*
%TO.P,U3,39,U0TXD/GPIO43/CLK_OUT1*%
%TO.N,/GPIO43*%
X30050000Y43150000D03*
%TO.P,U3,40,U0RXD/GPIO44/CLK_OUT2*%
%TO.N,/GPIO44*%
X30050000Y44000000D03*
%TO.P,U3,41,GPIO45*%
%TO.N,/GPIO45*%
X30050000Y44850000D03*
%TO.P,U3,42,GND*%
%TO.N,GND*%
X30050000Y45700001D03*
%TO.P,U3,43,GND*%
X30050000Y46550000D03*
%TO.P,U3,44,GPIO46*%
%TO.N,/GPIO46*%
X30050000Y47400000D03*
%TO.P,U3,45,EN*%
%TO.N,/en*%
X30050000Y48250000D03*
D24*
%TO.P,U3,46,GND*%
%TO.N,GND*%
X31100000Y49300000D03*
%TO.P,U3,47,GND*%
X31950000Y49300000D03*
%TO.P,U3,48,GND*%
X32800000Y49300000D03*
%TO.P,U3,49,GND*%
X33649999Y49300000D03*
%TO.P,U3,50,GND*%
X34500000Y49300000D03*
%TO.P,U3,51,GND*%
X35350000Y49300000D03*
%TO.P,U3,52,GND*%
X36200000Y49300000D03*
%TO.P,U3,53,GND*%
X37050000Y49299999D03*
%TO.P,U3,54,GND*%
X37900000Y49300000D03*
%TO.P,U3,55,GND*%
X38750000Y49300000D03*
%TO.P,U3,56,GND*%
X39600000Y49300000D03*
%TO.P,U3,57,GND*%
X40450001Y49300000D03*
%TO.P,U3,58,GND*%
X41300000Y49300000D03*
%TO.P,U3,59,GND*%
X42150000Y49300000D03*
%TO.P,U3,60,GND*%
X43000000Y49300000D03*
D25*
%TO.P,U3,61,GND*%
X38700000Y40650000D03*
X38700000Y42300000D03*
D26*
X38700000Y43950000D03*
D25*
X37050000Y40650000D03*
X37050000Y42300000D03*
X37050000Y43950000D03*
X35400000Y40650000D03*
X35400000Y42300000D03*
X35400000Y43950000D03*
D27*
%TO.P,U3,62,GND*%
X44050000Y49300000D03*
%TO.P,U3,63,GND*%
X44050000Y35300000D03*
%TO.P,U3,64,GND*%
X30050000Y35300000D03*
%TO.P,U3,65,GND*%
X30050000Y49300000D03*
%TD*%
D13*
%TO.P,R3,1*%
%TO.N,+3V3*%
X20000000Y67300000D03*
%TO.P,R3,2*%
%TO.N,/en*%
X18175000Y67300000D03*
%TD*%
%TO.P,R2,1*%
%TO.N,Net-(J2-CC2)*%
X27725000Y70400000D03*
%TO.P,R2,2*%
%TO.N,GND*%
X25900000Y70400000D03*
%TD*%
D14*
%TO.P,C4,1*%
%TO.N,GND*%
X-30135002Y45980001D03*
%TO.P,C4,2*%
%TO.N,Net-(U3-GPIO15{slash}U0RTS{slash}ADC2_CH4{slash}XTAL_32K_P)*%
X-32035000Y45980001D03*
%TD*%
D28*
%TO.P,SW1,1,1*%
%TO.N,GND*%
X74300000Y24600000D03*
X70150000Y24600000D03*
%TO.P,SW1,2,2*%
%TO.N,/en*%
X74300000Y22450000D03*
X70175000Y22450000D03*
%TD*%
D29*
%TO.P,Q1,1,B*%
%TO.N,Net-(Q1-B)*%
X21500000Y63500000D03*
%TO.P,Q1,2,C*%
%TO.N,Net-(Q1-C)*%
X21500000Y61600000D03*
%TO.P,Q1,3,E*%
%TO.N,GND*%
X19624999Y62550000D03*
%TD*%
D13*
%TO.P,R1,1*%
%TO.N,Net-(J2-CC1)*%
X27725000Y73350000D03*
%TO.P,R1,2*%
%TO.N,GND*%
X25900000Y73350000D03*
%TD*%
D14*
%TO.P,C7,1*%
%TO.N,+3V3*%
X-30135002Y39960000D03*
%TO.P,C7,2*%
%TO.N,GND*%
X-32035000Y39960000D03*
%TD*%
D30*
%TO.P,U2,1,I/O1*%
%TO.N,/USB_DP*%
X38800002Y28475000D03*
%TO.P,U2,2,GND*%
%TO.N,GND*%
X39750001Y28475000D03*
%TO.P,U2,3,I/O2*%
%TO.N,/USB_DN*%
X40700000Y28475000D03*
%TO.P,U2,4,I/O2*%
%TO.N,Net-(J2-D--PadA7)*%
X40700000Y26200000D03*
%TO.P,U2,5,VBUS*%
%TO.N,+5V*%
X39750001Y26200000D03*
%TO.P,U2,6,I/O1*%
%TO.N,Net-(J2-D+-PadA6)*%
X38800002Y26200000D03*
%TD*%
D19*
%TO.P,D1,1,K*%
%TO.N,GND*%
X17099998Y75000000D03*
D20*
%TO.P,D1,2,A*%
%TO.N,Net-(D1-A)*%
X20500000Y75000000D03*
%TD*%
D31*
%TO.N,/GPIO5*%
X58500000Y34800000D02*
X58500000Y33300000D01*
X60080000Y31720000D02*
X62540000Y31720000D01*
X51850000Y41450000D02*
X58500000Y34800000D01*
X58500000Y33300000D02*
X60080000Y31720000D01*
X44050000Y41450000D02*
X51850000Y41450000D01*
%TO.N,/GPIO0_BOOT*%
X58719999Y45700001D02*
X60000000Y44420000D01*
X44050000Y45700001D02*
X58719999Y45700001D01*
%TO.N,/GPIO38*%
X12400000Y24200000D02*
X12380000Y24220000D01*
X12380000Y24220000D02*
X8099999Y24220000D01*
X30050000Y38899999D02*
X27099999Y38899999D01*
X27099999Y38899999D02*
X12400000Y24200000D01*
%TO.N,/GPIO6*%
X51500000Y40600000D02*
X57700000Y34400000D01*
X44050000Y40600000D02*
X51500000Y40600000D01*
X57700000Y31600000D02*
X60120000Y29180000D01*
X57700000Y34400000D02*
X57700000Y31600000D01*
X60120000Y29180000D02*
X62540000Y29180000D01*
%TO.N,/GPIO3*%
X44050000Y43150000D02*
X53550000Y43150000D01*
X59900000Y36800000D02*
X62540000Y36800000D01*
X53550000Y43150000D02*
X59900000Y36800000D01*
%TO.N,/GPIO7*%
X51200058Y39750000D02*
X56798000Y34152058D01*
X56798000Y29802000D02*
X59960000Y26640000D01*
X59960000Y26640000D02*
X62540000Y26640000D01*
X44050000Y39750000D02*
X51200058Y39750000D01*
X56798000Y34152058D02*
X56798000Y29802000D01*
%TO.N,/GPIO11*%
X44050000Y36350000D02*
X44950000Y36350000D01*
X58820000Y16480000D02*
X60000000Y16480000D01*
X47700000Y23150058D02*
X51150058Y19700000D01*
X47700000Y33600000D02*
X47700000Y23150058D01*
X44950000Y36350000D02*
X47700000Y33600000D01*
X51150058Y19700000D02*
X55600000Y19700000D01*
X55600000Y19700000D02*
X58820000Y16480000D01*
%TO.N,/GPIO1*%
X44050000Y44850000D02*
X57030000Y44850000D01*
X57030000Y44850000D02*
X60000000Y41880000D01*
%TO.N,/GPIO4*%
X60000000Y34500000D02*
X60000000Y34260000D01*
X52200000Y42300000D02*
X60000000Y34500000D01*
X44049999Y42300000D02*
X52200000Y42300000D01*
%TO.N,/GPIO2*%
X44050000Y44000000D02*
X55340000Y44000000D01*
X55340000Y44000000D02*
X60000000Y39340000D01*
%TO.N,/GPIO44*%
X30050000Y44000000D02*
X16500000Y44000000D01*
X16500000Y44000000D02*
X11960000Y39460000D01*
X11960000Y39460000D02*
X8100000Y39460000D01*
%TO.N,/GPIO46*%
X30050000Y47400000D02*
X29400000Y47400000D01*
X13800000Y45800000D02*
X12540000Y44540000D01*
X27800000Y45800000D02*
X13800000Y45800000D01*
X12540000Y44540000D02*
X8100000Y44540000D01*
X29400000Y47400000D02*
X27800000Y45800000D01*
%TO.N,/GPIO43*%
X16850000Y43150000D02*
X10620000Y36920000D01*
X30050000Y43150000D02*
X16850000Y43150000D01*
X10620000Y36920000D02*
X8099999Y36920000D01*
%TO.N,/GPIO45*%
X30050000Y44850000D02*
X14899942Y44850000D01*
X14899942Y44850000D02*
X12049942Y42000000D01*
X12049942Y42000000D02*
X8100000Y42000000D01*
%TO.N,/GPIO9*%
X45850000Y38050000D02*
X49500000Y34400000D01*
X44050000Y38050000D02*
X45850000Y38050000D01*
X49500000Y34400000D02*
X49500000Y27919999D01*
X56140000Y25260000D02*
X52159999Y25260000D01*
X62540000Y21560000D02*
X59840000Y21560000D01*
X59840000Y21560000D02*
X56140000Y25260000D01*
X49500000Y27919999D02*
X52159999Y25260000D01*
%TO.N,/GPIO8*%
X44050000Y38899999D02*
X46100001Y38899999D01*
X54699999Y30340000D02*
X57100000Y27939999D01*
X57100000Y27214000D02*
X60214000Y24100000D01*
X46100001Y38899999D02*
X48200000Y38899999D01*
X53500000Y33865999D02*
X53500000Y31539999D01*
X48466000Y38899999D02*
X53500000Y33865999D01*
X57100000Y27939999D02*
X57100000Y27214000D01*
X53500000Y31539999D02*
X54699999Y30340000D01*
X54699999Y30340000D02*
X52159999Y30340000D01*
X60214000Y24100000D02*
X62540000Y24100000D01*
X48200000Y38899999D02*
X48466000Y38899999D01*
%TO.N,/GPIO35*%
X10640000Y16600000D02*
X8100000Y16600000D01*
X30050000Y36350000D02*
X29250000Y36350000D01*
X29250000Y35210000D02*
X10640000Y16600000D01*
X29250000Y36350000D02*
X29250000Y35210000D01*
%TO.N,/GPIO37*%
X7820000Y21400000D02*
X8100000Y21680000D01*
X27099942Y38050000D02*
X10449942Y21400000D01*
X30050000Y38050000D02*
X27099942Y38050000D01*
X10449942Y21400000D02*
X7820000Y21400000D01*
%TO.N,/GPIO40*%
X8100000Y29300000D02*
X10640000Y29300000D01*
X13600000Y35100000D02*
X13600000Y32260000D01*
X19100000Y40600000D02*
X13600000Y35100000D01*
X13600000Y32260000D02*
X10640000Y29300000D01*
X30050000Y40600000D02*
X19100000Y40600000D01*
%TO.N,/GPIO42*%
X11080000Y34380000D02*
X8100000Y34380000D01*
X12100000Y35400000D02*
X11080000Y34380000D01*
X12100000Y36900000D02*
X12100000Y35400000D01*
X30050001Y42300000D02*
X17500000Y42300000D01*
X17500000Y42300000D02*
X12100000Y36900000D01*
%TO.N,/GPIO39*%
X19850000Y39750000D02*
X14500000Y34400000D01*
X14500000Y30600000D02*
X10660000Y26760000D01*
X14500000Y34400000D02*
X14500000Y30600000D01*
X10660000Y26760000D02*
X8100000Y26760000D01*
X30050000Y39750000D02*
X19850000Y39750000D01*
%TO.N,/GPIO41*%
X12701000Y35801000D02*
X12701000Y33901000D01*
X12701000Y33901000D02*
X10640000Y31840000D01*
X30050000Y41450000D02*
X18350000Y41450000D01*
X18350000Y41450000D02*
X12701000Y35801000D01*
X10640000Y31840000D02*
X8100000Y31840000D01*
%TO.N,/CS*%
X45400000Y37200000D02*
X48700000Y33900000D01*
X44050000Y37200000D02*
X45400000Y37200000D01*
X58980000Y19020000D02*
X60000000Y19020000D01*
X48700000Y23700000D02*
X51650000Y20750000D01*
X48700000Y33900000D02*
X48700000Y23700000D01*
X57250000Y20750000D02*
X58980000Y19020000D01*
X51650000Y20750000D02*
X57250000Y20750000D01*
%TO.N,/GPIO36*%
X30050000Y37200000D02*
X28000000Y37200000D01*
X28000000Y37200000D02*
X11803000Y21003000D01*
X11803000Y20517000D02*
X11317000Y20517000D01*
X11803000Y21003000D02*
X11803000Y20517000D01*
X11317000Y20517000D02*
X9940000Y19140000D01*
X9940000Y19140000D02*
X8100000Y19140000D01*
%TD*%
M02*
