%TF.GenerationSoftware,KiCad,Pcbnew,9.0.6+1*%
%TF.CreationDate,2026-01-27T23:35:09+00:00*%
%TF.ProjectId,ESP32Sx01,45535033-3253-4783-9031-2e6b69636164,rev?*%
%TF.SameCoordinates,Original*%
%TF.FileFunction,Legend,Top*%
%TF.FilePolarity,Positive*%
%FSLAX46Y46*%
G04 Gerber Fmt 4.6, Leading zero omitted, Abs format (unit mm)*
G04 Created by KiCad (PCBNEW 9.0.6+1) date 2026-01-27 23:35:09*
%MOMM*%
%LPD*%
G01*
G04 APERTURE LIST*
%ADD10C,0.150000*%
%ADD11C,0.050000*%
%ADD12R,1.524000X1.524000*%
G04 APERTURE END LIST*
D10*
X60198095Y13855181D02*
X60198095Y14855181D01*
X60198095Y14378991D02*
X60769523Y14378991D01*
X60769523Y13855181D02*
X60769523Y14855181D01*
X61674285Y14521848D02*
X61674285Y13855181D01*
X61436190Y14902800D02*
X61198095Y14188515D01*
X61198095Y14188515D02*
X61817142Y14188515D01*
X9398095Y13855181D02*
X9398095Y14855181D01*
X9398095Y14378991D02*
X9969523Y14378991D01*
X9969523Y13855181D02*
X9969523Y14855181D01*
X10350476Y14855181D02*
X10969523Y14855181D01*
X10969523Y14855181D02*
X10636190Y14474229D01*
X10636190Y14474229D02*
X10779047Y14474229D01*
X10779047Y14474229D02*
X10874285Y14426610D01*
X10874285Y14426610D02*
X10921904Y14378991D01*
X10921904Y14378991D02*
X10969523Y14283753D01*
X10969523Y14283753D02*
X10969523Y14045658D01*
X10969523Y14045658D02*
X10921904Y13950420D01*
X10921904Y13950420D02*
X10874285Y13902800D01*
X10874285Y13902800D02*
X10779047Y13855181D01*
X10779047Y13855181D02*
X10493333Y13855181D01*
X10493333Y13855181D02*
X10398095Y13902800D01*
X10398095Y13902800D02*
X10350476Y13950420D01*
X9398095Y54495181D02*
X9398095Y55495181D01*
X9398095Y55018991D02*
X9969523Y55018991D01*
X9969523Y54495181D02*
X9969523Y55495181D01*
X10969523Y54495181D02*
X10398095Y54495181D01*
X10683809Y54495181D02*
X10683809Y55495181D01*
X10683809Y55495181D02*
X10588571Y55352324D01*
X10588571Y55352324D02*
X10493333Y55257086D01*
X10493333Y55257086D02*
X10398095Y55209467D01*
X47126128Y3280001D02*
X45626128Y3280001D01*
X46340414Y3280001D02*
X46340414Y4137144D01*
X47126128Y4137144D02*
X45626128Y4137144D01*
X46340414Y4851430D02*
X46340414Y5351430D01*
X47126128Y5565716D02*
X47126128Y4851430D01*
X47126128Y4851430D02*
X45626128Y4851430D01*
X45626128Y4851430D02*
X45626128Y5565716D01*
X46697557Y6137145D02*
X46697557Y6851430D01*
X47126128Y5994288D02*
X45626128Y6494288D01*
X45626128Y6494288D02*
X47126128Y6994288D01*
X47126128Y7494287D02*
X45626128Y7494287D01*
X45626128Y7494287D02*
X45626128Y7851430D01*
X45626128Y7851430D02*
X45697557Y8065716D01*
X45697557Y8065716D02*
X45840414Y8208573D01*
X45840414Y8208573D02*
X45983271Y8280002D01*
X45983271Y8280002D02*
X46268985Y8351430D01*
X46268985Y8351430D02*
X46483271Y8351430D01*
X46483271Y8351430D02*
X46768985Y8280002D01*
X46768985Y8280002D02*
X46911842Y8208573D01*
X46911842Y8208573D02*
X47054700Y8065716D01*
X47054700Y8065716D02*
X47126128Y7851430D01*
X47126128Y7851430D02*
X47126128Y7494287D01*
X46340414Y8994287D02*
X46340414Y9494287D01*
X47126128Y9708573D02*
X47126128Y8994287D01*
X47126128Y8994287D02*
X45626128Y8994287D01*
X45626128Y8994287D02*
X45626128Y9708573D01*
X47126128Y11208573D02*
X46411842Y10708573D01*
X47126128Y10351430D02*
X45626128Y10351430D01*
X45626128Y10351430D02*
X45626128Y10922859D01*
X45626128Y10922859D02*
X45697557Y11065716D01*
X45697557Y11065716D02*
X45768985Y11137145D01*
X45768985Y11137145D02*
X45911842Y11208573D01*
X45911842Y11208573D02*
X46126128Y11208573D01*
X46126128Y11208573D02*
X46268985Y11137145D01*
X46268985Y11137145D02*
X46340414Y11065716D01*
X46340414Y11065716D02*
X46411842Y10922859D01*
X46411842Y10922859D02*
X46411842Y10351430D01*
X47268985Y11494287D02*
X47268985Y12637145D01*
X47126128Y13780002D02*
X47126128Y12922859D01*
X47126128Y13351430D02*
X45626128Y13351430D01*
X45626128Y13351430D02*
X45840414Y13208573D01*
X45840414Y13208573D02*
X45983271Y13065716D01*
X45983271Y13065716D02*
X46054700Y12922859D01*
X47126128Y14280001D02*
X46126128Y15065715D01*
X46126128Y14280001D02*
X47126128Y15065715D01*
X47126128Y16422859D02*
X47126128Y15565716D01*
X47126128Y15994287D02*
X45626128Y15994287D01*
X45626128Y15994287D02*
X45840414Y15851430D01*
X45840414Y15851430D02*
X45983271Y15708573D01*
X45983271Y15708573D02*
X46054700Y15565716D01*
X45768985Y16994287D02*
X45697557Y17065715D01*
X45697557Y17065715D02*
X45626128Y17208572D01*
X45626128Y17208572D02*
X45626128Y17565715D01*
X45626128Y17565715D02*
X45697557Y17708572D01*
X45697557Y17708572D02*
X45768985Y17780001D01*
X45768985Y17780001D02*
X45911842Y17851430D01*
X45911842Y17851430D02*
X46054700Y17851430D01*
X46054700Y17851430D02*
X46268985Y17780001D01*
X46268985Y17780001D02*
X47126128Y16922858D01*
X47126128Y16922858D02*
X47126128Y17851430D01*
D11*
X16188709Y7751858D02*
X16188709Y7466144D01*
X16188709Y7609001D02*
X15688709Y7609001D01*
X15688709Y7609001D02*
X15760138Y7561382D01*
X15760138Y7561382D02*
X15807757Y7513763D01*
X15807757Y7513763D02*
X15831566Y7466144D01*
D10*
X2120000Y46393872D02*
X2120000Y47893872D01*
X2120000Y47179586D02*
X2977143Y47179586D01*
X2977143Y46393872D02*
X2977143Y47893872D01*
X3691429Y47179586D02*
X4191429Y47179586D01*
X4405715Y46393872D02*
X3691429Y46393872D01*
X3691429Y46393872D02*
X3691429Y47893872D01*
X3691429Y47893872D02*
X4405715Y47893872D01*
X4977144Y46822443D02*
X5691430Y46822443D01*
X4834287Y46393872D02*
X5334287Y47893872D01*
X5334287Y47893872D02*
X5834287Y46393872D01*
X6334286Y46393872D02*
X6334286Y47893872D01*
X6334286Y47893872D02*
X6691429Y47893872D01*
X6691429Y47893872D02*
X6905715Y47822443D01*
X6905715Y47822443D02*
X7048572Y47679586D01*
X7048572Y47679586D02*
X7120001Y47536729D01*
X7120001Y47536729D02*
X7191429Y47251015D01*
X7191429Y47251015D02*
X7191429Y47036729D01*
X7191429Y47036729D02*
X7120001Y46751015D01*
X7120001Y46751015D02*
X7048572Y46608158D01*
X7048572Y46608158D02*
X6905715Y46465300D01*
X6905715Y46465300D02*
X6691429Y46393872D01*
X6691429Y46393872D02*
X6334286Y46393872D01*
X7834286Y47179586D02*
X8334286Y47179586D01*
X8548572Y46393872D02*
X7834286Y46393872D01*
X7834286Y46393872D02*
X7834286Y47893872D01*
X7834286Y47893872D02*
X8548572Y47893872D01*
X10048572Y46393872D02*
X9548572Y47108158D01*
X9191429Y46393872D02*
X9191429Y47893872D01*
X9191429Y47893872D02*
X9762858Y47893872D01*
X9762858Y47893872D02*
X9905715Y47822443D01*
X9905715Y47822443D02*
X9977144Y47751015D01*
X9977144Y47751015D02*
X10048572Y47608158D01*
X10048572Y47608158D02*
X10048572Y47393872D01*
X10048572Y47393872D02*
X9977144Y47251015D01*
X9977144Y47251015D02*
X9905715Y47179586D01*
X9905715Y47179586D02*
X9762858Y47108158D01*
X9762858Y47108158D02*
X9191429Y47108158D01*
X10334287Y46251015D02*
X11477144Y46251015D01*
X12620001Y46393872D02*
X11762858Y46393872D01*
X12191429Y46393872D02*
X12191429Y47893872D01*
X12191429Y47893872D02*
X12048572Y47679586D01*
X12048572Y47679586D02*
X11905715Y47536729D01*
X11905715Y47536729D02*
X11762858Y47465300D01*
X13120000Y46393872D02*
X13905715Y47393872D01*
X13120000Y47393872D02*
X13905715Y46393872D01*
X15262858Y46393872D02*
X14405715Y46393872D01*
X14834286Y46393872D02*
X14834286Y47893872D01*
X14834286Y47893872D02*
X14691429Y47679586D01*
X14691429Y47679586D02*
X14548572Y47536729D01*
X14548572Y47536729D02*
X14405715Y47465300D01*
X15834286Y47751015D02*
X15905714Y47822443D01*
X15905714Y47822443D02*
X16048572Y47893872D01*
X16048572Y47893872D02*
X16405714Y47893872D01*
X16405714Y47893872D02*
X16548572Y47822443D01*
X16548572Y47822443D02*
X16620000Y47751015D01*
X16620000Y47751015D02*
X16691429Y47608158D01*
X16691429Y47608158D02*
X16691429Y47465300D01*
X16691429Y47465300D02*
X16620000Y47251015D01*
X16620000Y47251015D02*
X15762857Y46393872D01*
X15762857Y46393872D02*
X16691429Y46393872D01*
D11*
X12433857Y16371291D02*
X12148143Y16371291D01*
X12291000Y16371291D02*
X12291000Y16871291D01*
X12291000Y16871291D02*
X12243381Y16799862D01*
X12243381Y16799862D02*
X12195762Y16752243D01*
X12195762Y16752243D02*
X12148143Y16728434D01*
D10*
X54020000Y13253872D02*
X54020000Y14753872D01*
X54020000Y14039586D02*
X54877143Y14039586D01*
X54877143Y13253872D02*
X54877143Y14753872D01*
X55591429Y14039586D02*
X56091429Y14039586D01*
X56305715Y13253872D02*
X55591429Y13253872D01*
X55591429Y13253872D02*
X55591429Y14753872D01*
X55591429Y14753872D02*
X56305715Y14753872D01*
X56877144Y13682443D02*
X57591430Y13682443D01*
X56734287Y13253872D02*
X57234287Y14753872D01*
X57234287Y14753872D02*
X57734287Y13253872D01*
X58234286Y13253872D02*
X58234286Y14753872D01*
X58234286Y14753872D02*
X58591429Y14753872D01*
X58591429Y14753872D02*
X58805715Y14682443D01*
X58805715Y14682443D02*
X58948572Y14539586D01*
X58948572Y14539586D02*
X59020001Y14396729D01*
X59020001Y14396729D02*
X59091429Y14111015D01*
X59091429Y14111015D02*
X59091429Y13896729D01*
X59091429Y13896729D02*
X59020001Y13611015D01*
X59020001Y13611015D02*
X58948572Y13468158D01*
X58948572Y13468158D02*
X58805715Y13325300D01*
X58805715Y13325300D02*
X58591429Y13253872D01*
X58591429Y13253872D02*
X58234286Y13253872D01*
X59734286Y14039586D02*
X60234286Y14039586D01*
X60448572Y13253872D02*
X59734286Y13253872D01*
X59734286Y13253872D02*
X59734286Y14753872D01*
X59734286Y14753872D02*
X60448572Y14753872D01*
X61948572Y13253872D02*
X61448572Y13968158D01*
X61091429Y13253872D02*
X61091429Y14753872D01*
X61091429Y14753872D02*
X61662858Y14753872D01*
X61662858Y14753872D02*
X61805715Y14682443D01*
X61805715Y14682443D02*
X61877144Y14611015D01*
X61877144Y14611015D02*
X61948572Y14468158D01*
X61948572Y14468158D02*
X61948572Y14253872D01*
X61948572Y14253872D02*
X61877144Y14111015D01*
X61877144Y14111015D02*
X61805715Y14039586D01*
X61805715Y14039586D02*
X61662858Y13968158D01*
X61662858Y13968158D02*
X61091429Y13968158D01*
X62234287Y13111015D02*
X63377144Y13111015D01*
X64520001Y13253872D02*
X63662858Y13253872D01*
X64091429Y13253872D02*
X64091429Y14753872D01*
X64091429Y14753872D02*
X63948572Y14539586D01*
X63948572Y14539586D02*
X63805715Y14396729D01*
X63805715Y14396729D02*
X63662858Y14325300D01*
X65020000Y13253872D02*
X65805715Y14253872D01*
X65020000Y14253872D02*
X65805715Y13253872D01*
X67162858Y13253872D02*
X66305715Y13253872D01*
X66734286Y13253872D02*
X66734286Y14753872D01*
X66734286Y14753872D02*
X66591429Y14539586D01*
X66591429Y14539586D02*
X66448572Y14396729D01*
X66448572Y14396729D02*
X66305715Y14325300D01*
X67734286Y14611015D02*
X67805714Y14682443D01*
X67805714Y14682443D02*
X67948572Y14753872D01*
X67948572Y14753872D02*
X68305714Y14753872D01*
X68305714Y14753872D02*
X68448572Y14682443D01*
X68448572Y14682443D02*
X68520000Y14611015D01*
X68520000Y14611015D02*
X68591429Y14468158D01*
X68591429Y14468158D02*
X68591429Y14325300D01*
X68591429Y14325300D02*
X68520000Y14111015D01*
X68520000Y14111015D02*
X67662857Y13253872D01*
X67662857Y13253872D02*
X68591429Y13253872D01*
D11*
X58491857Y44191291D02*
X58206143Y44191291D01*
X58349000Y44191291D02*
X58349000Y44691291D01*
X58349000Y44691291D02*
X58301381Y44619862D01*
X58301381Y44619862D02*
X58253762Y44572243D01*
X58253762Y44572243D02*
X58206143Y44548434D01*
D10*
X60198095Y54495181D02*
X60198095Y55495181D01*
X60198095Y55018991D02*
X60769523Y55018991D01*
X60769523Y54495181D02*
X60769523Y55495181D01*
X61198095Y55399943D02*
X61245714Y55447562D01*
X61245714Y55447562D02*
X61340952Y55495181D01*
X61340952Y55495181D02*
X61579047Y55495181D01*
X61579047Y55495181D02*
X61674285Y55447562D01*
X61674285Y55447562D02*
X61721904Y55399943D01*
X61721904Y55399943D02*
X61769523Y55304705D01*
X61769523Y55304705D02*
X61769523Y55209467D01*
X61769523Y55209467D02*
X61721904Y55066610D01*
X61721904Y55066610D02*
X61150476Y54495181D01*
X61150476Y54495181D02*
X61769523Y54495181D01*
%TO.C,J1*%
X77289999Y13710000D02*
X82369999Y13710000D01*
X77289999Y6090000D02*
X77289999Y13710000D01*
X82369999Y13710000D02*
X82369999Y6090000D01*
X82369999Y6090000D02*
X77289999Y6090000D01*
%TO.C,J6*%
X-17210001Y24310000D02*
X-12130001Y24310000D01*
X-17210001Y16690000D02*
X-17210001Y24310000D01*
X-12130001Y24310000D02*
X-12130001Y16690000D01*
X-12130001Y16690000D02*
X-17210001Y16690000D01*
%TO.C,J7*%
X102580000Y35360000D02*
X107660000Y35360000D01*
X102580000Y27740000D02*
X102580000Y35360000D01*
X107660000Y35360000D02*
X107660000Y27740000D01*
X107660000Y27740000D02*
X102580000Y27740000D01*
%TO.C,J4*%
X14690000Y13070000D02*
X45170000Y13070000D01*
X14690000Y7990000D02*
X14690000Y13070000D01*
X45170000Y13070000D02*
X45170000Y7990000D01*
X45170000Y7990000D02*
X14690000Y7990000D01*
%TO.C,J5*%
X6830000Y45810000D02*
X11910000Y45810000D01*
X6830000Y15330000D02*
X6830000Y45810000D01*
X11910000Y45810000D02*
X11910000Y15330000D01*
X11910000Y15330000D02*
X6830000Y15330000D01*
%TO.C,J3*%
X58730000Y45690000D02*
X63810000Y45690000D01*
X58730000Y15210000D02*
X58730000Y45690000D01*
X63810000Y45690000D02*
X63810000Y15210000D01*
X63810000Y15210000D02*
X58730000Y15210000D01*
%TO.C,J8*%
X50889999Y34150000D02*
X55969999Y34150000D01*
X50889999Y21450000D02*
X50889999Y34150000D01*
X55969999Y34150000D02*
X55969999Y21450000D01*
X55969999Y21450000D02*
X50889999Y21450000D01*
%TD*%
D12*
%TO.C,J4*%
X15960000Y9260000D03*
X15960000Y11800000D03*
X18500000Y9260000D03*
X18500000Y11800000D03*
X21040000Y9260000D03*
X21040000Y11800000D03*
X23580000Y9259999D03*
X23580000Y11800001D03*
X26120000Y9260000D03*
X26120000Y11800000D03*
X28660000Y9260000D03*
X28660000Y11800000D03*
X31200000Y9260000D03*
X31200000Y11800000D03*
X33740000Y9260000D03*
X33740000Y11800000D03*
X36280000Y9259999D03*
X36280000Y11800001D03*
X38820000Y9260000D03*
X38820000Y11800000D03*
X41360000Y9260000D03*
X41360000Y11800000D03*
X43900000Y9260000D03*
X43900000Y11800000D03*
%TD*%
%TO.C,J5*%
X10640000Y16600000D03*
X8100000Y16600000D03*
X10640000Y19140000D03*
X8100000Y19140000D03*
X10640000Y21680000D03*
X8100000Y21680000D03*
X10640001Y24220000D03*
X8099999Y24220000D03*
X10640000Y26760000D03*
X8100000Y26760000D03*
X10640000Y29300000D03*
X8100000Y29300000D03*
X10640000Y31840000D03*
X8100000Y31840000D03*
X10640000Y34380000D03*
X8100000Y34380000D03*
X10640001Y36920000D03*
X8099999Y36920000D03*
X10640000Y39460000D03*
X8100000Y39460000D03*
X10640000Y42000000D03*
X8100000Y42000000D03*
X10640000Y44540000D03*
X8100000Y44540000D03*
%TD*%
%TO.C,J3*%
X60000000Y44420000D03*
X62540000Y44420000D03*
X60000000Y41880000D03*
X62540000Y41880000D03*
X60000000Y39340000D03*
X62540000Y39340000D03*
X60000000Y36800000D03*
X62540000Y36800000D03*
X60000000Y34260000D03*
X62540000Y34260000D03*
X60000000Y31720000D03*
X62540000Y31720000D03*
X60000000Y29180000D03*
X62540000Y29180000D03*
X60000000Y26640000D03*
X62540000Y26640000D03*
X60000000Y24100000D03*
X62540000Y24100000D03*
X60000000Y21560000D03*
X62540000Y21560000D03*
X60000000Y19020000D03*
X62540000Y19020000D03*
X60000000Y16480000D03*
X62540000Y16480000D03*
%TD*%
M02*
